<?xml version="1.0" encoding="utf-8"?>
<!-- Generator: Adobe Illustrator 19.0.0, SVG Export Plug-In . SVG Version: 6.00 Build 0)  -->
<svg version="1.1" id="Capa_1" xmlns="http://www.w3.org/2000/svg" xmlns:xlink="http://www.w3.org/1999/xlink" x="0px" y="0px"
	 viewBox="-216.6 57 162.6 91.2" style="enable-background:new -216.6 57 162.6 91.2;" xml:space="preserve">
<style type="text/css">
	.st0{opacity:0.32;}
	.st1{fill:#FFFFFF;}
</style>
<g class="st0">
	<path class="st1" d="M-191.5,85.7h-8.3c-0.6,0-0.8,0.3-0.8,0.8v5.6l-11.4-2.1v-6.2c0-1.2,0.2-2.3,0.7-3.3c0.4-1.1,1.1-2,1.9-2.8
		c0.8-0.8,1.7-1.4,2.8-1.9c1.1-0.4,2.2-0.7,3.3-0.7h15.5c1.2,0,2.3,0.2,3.3,0.7c1.1,0.4,2,1.1,2.8,1.9c0.8,0.8,1.4,1.7,1.9,2.8
		c0.4,1.1,0.7,2.2,0.7,3.3v14.9c0,1.8-0.4,3.2-1.2,4.2c-0.8,1-2,1.9-3.7,2.7c-4.5,2-8.1,3.7-10.9,4.9c-2.8,1.2-4.4,2-4.9,2.2
		c-0.4,0.2-0.7,0.6-0.7,1v6.3h21.6v10.5h-33V111c0-1.2,0.2-2.1,0.5-2.9c0.3-0.8,0.8-1.5,1.4-2c0.6-0.6,1.3-1.1,2.2-1.5
		c0.9-0.4,1.8-0.9,2.9-1.3c1.6-0.7,3.2-1.3,4.7-2c1.5-0.7,3-1.3,4.2-1.8c1.3-0.6,2.3-1,3.2-1.3c0.9-0.3,1.4-0.6,1.5-0.7
		c0.5-0.2,0.7-0.6,0.7-1.1v-9.8C-190.7,85.9-191,85.7-191.5,85.7z"/>
	<path class="st1" d="M-134.5,121.9c0,1.2-0.2,2.3-0.7,3.3c-0.4,1.1-1.1,2-1.9,2.8c-0.8,0.8-1.7,1.4-2.8,1.9
		c-1.1,0.4-2.2,0.7-3.3,0.7H-160c-1.2,0-2.3-0.2-3.3-0.7c-1.1-0.4-2-1.1-2.8-1.9c-0.8-0.8-1.4-1.7-1.9-2.8c-0.4-1.1-0.7-2.2-0.7-3.3
		v-38c0-1.2,0.2-2.3,0.7-3.3c0.4-1.1,1.1-2,1.9-2.8c0.8-0.8,1.7-1.4,2.8-1.9c1.1-0.4,2.2-0.7,3.3-0.7h16.9c1.2,0,2.3,0.2,3.3,0.7
		c1.1,0.4,2,1.1,2.8,1.9c0.8,0.8,1.4,1.7,1.9,2.8c0.4,1.1,0.7,2.2,0.7,3.3V121.9z M-146.8,85.7h-9.5c-0.6,0-0.8,0.3-0.8,0.8v32.7
		c0,0.6,0.3,0.8,0.8,0.8h9.5c0.6,0,0.8-0.3,0.8-0.8V86.5C-146,85.9-146.2,85.7-146.8,85.7z"/>
	<path class="st1" d="M-103.2,75.2v55.3h-11.5V86.7l-13.4,4.3V79.5l13.4-4.3H-103.2z"/>
	<path class="st1" d="M-81.6,114.6v4.8c0,0.6,0.3,0.8,0.8,0.8h9.1c0.6,0,0.8-0.3,0.8-0.8V105c-0.9,0.3-2,0.6-3.2,0.8
		c-1.2,0.3-2.4,0.5-3.7,0.7c-1.2,0.2-2.4,0.4-3.6,0.5c-1.1,0.1-2.1,0.2-2.9,0.2c-2.8,0-4.9-0.8-6.4-2.4c-1.5-1.6-2.2-3.7-2.2-6.2
		V83.8c0-1.2,0.2-2.3,0.7-3.3c0.4-1.1,1.1-2,1.9-2.8c0.8-0.8,1.7-1.4,2.8-1.9c1.1-0.4,2.2-0.7,3.3-0.7H-68c1.2,0,2.3,0.2,3.3,0.7
		c1.1,0.4,2,1.1,2.8,1.9c0.8,0.8,1.4,1.7,1.9,2.8c0.4,1.1,0.7,2.2,0.7,3.3v38c0,1.2-0.2,2.3-0.7,3.3c-0.4,1.1-1.1,2-1.9,2.8
		c-0.8,0.8-1.7,1.4-2.8,1.9c-1.1,0.4-2.2,0.7-3.3,0.7h-16.2c-1.2,0-2.3-0.2-3.3-0.7c-1.1-0.4-2-1.1-2.8-1.9
		c-0.8-0.8-1.4-1.7-1.9-2.8c-0.4-1.1-0.7-2.2-0.7-3.3v-5.2L-81.6,114.6z M-80.6,96.7c0.2,0,0.7-0.1,1.6-0.2c0.8-0.1,1.7-0.3,2.7-0.5
		s1.9-0.3,2.8-0.5c0.9-0.2,1.5-0.4,1.8-0.5c0.6-0.3,0.8-0.7,0.8-1.2v-7.5c0-0.6-0.3-0.8-0.8-0.8h-8.9c-0.6,0-0.8,0.3-0.8,0.8v9.6
		C-81.4,96.4-81.1,96.7-80.6,96.7z"/>
</g>
</svg>
