<?xml version="1.0" encoding="utf-8"?>
<!-- Generator: Adobe Illustrator 19.0.0, SVG Export Plug-In . SVG Version: 6.00 Build 0)  -->
<svg version="1.1" id="Capa_1" xmlns="http://www.w3.org/2000/svg" xmlns:xlink="http://www.w3.org/1999/xlink" x="0px" y="0px"
	 viewBox="-177.5 74.1 121.2 52.7" style="enable-background:new -177.5 74.1 121.2 52.7;" xml:space="preserve">
<style type="text/css">
	.st0{fill:none;stroke:#333335;stroke-width:1.7446;stroke-miterlimit:10;}
	.st1{opacity:0.53;fill:#F1664F;}
	.st2{opacity:0.61;}
	.st3{fill:#FFFFFF;}
</style>
<line id="XMLID_39_" class="st0" x1="-176.8" y1="74.6" x2="-143.3" y2="116"/>
<circle id="XMLID_20_" class="st1" cx="-140.7" cy="119.1" r="7.7"/>
<g class="st2">
	<g>
		<path class="st3" d="M-118.4,126.8h-2.5l-0.7-2.3h-3.5l-0.7,2.3h-2.5l3.7-11.4h2.5L-118.4,126.8z M-124.4,122.3h2.1l-1-3.8
			L-124.4,122.3z"/>
		<path class="st3" d="M-116.9,115.4h5.9c0.3,0,0.5,0,0.7,0.1c0.2,0.1,0.4,0.2,0.6,0.4c0.2,0.2,0.3,0.4,0.4,0.6s0.1,0.4,0.1,0.7v2.6
			c0,0.2-0.1,0.5-0.2,0.7c-0.2,0.2-0.4,0.4-0.7,0.5c0.2,0,0.4,0.2,0.7,0.4c0.2,0.2,0.3,0.5,0.3,0.8v3c0,0.2,0,0.5-0.1,0.7
			c-0.1,0.2-0.2,0.4-0.4,0.6c-0.2,0.2-0.3,0.3-0.6,0.4c-0.2,0.1-0.5,0.1-0.7,0.1h-5.9V115.4z M-111.9,120c0.1,0,0.2-0.1,0.2-0.2v-2
			c0-0.1-0.1-0.2-0.2-0.2h-2.5v2.4H-111.9z M-114.4,124.6h2.6c0.1,0,0.2-0.1,0.2-0.2v-2.2c0-0.1-0.1-0.2-0.2-0.2h-2.6V124.6z"/>
		<path class="st3" d="M-99.2,125.6c-0.1,0.2-0.2,0.4-0.4,0.6s-0.4,0.3-0.6,0.4c-0.2,0.1-0.5,0.1-0.7,0.1h-4.2c-0.3,0-0.5,0-0.7-0.1
			s-0.4-0.2-0.6-0.4s-0.3-0.4-0.4-0.6c-0.1-0.2-0.1-0.5-0.1-0.7v-7.6c0-0.3,0-0.5,0.1-0.7c0.1-0.2,0.2-0.4,0.4-0.6
			c0.2-0.2,0.4-0.3,0.6-0.4c0.2-0.1,0.5-0.1,0.7-0.1h4.2c0.3,0,0.5,0,0.7,0.1c0.2,0.1,0.4,0.2,0.6,0.4c0.2,0.2,0.3,0.4,0.4,0.6
			c0.1,0.2,0.1,0.5,0.1,0.7v7.6C-99,125.2-99.1,125.4-99.2,125.6z M-101.7,117.7h-2.7c-0.1,0-0.2,0.1-0.2,0.2v6.5
			c0,0.1,0.1,0.2,0.2,0.2h2.7c0.1,0,0.2-0.1,0.2-0.2v-6.5C-101.5,117.7-101.6,117.7-101.7,117.7z"/>
		<path class="st3" d="M-89,115.4v9.5c0,0.3,0,0.5-0.1,0.7c-0.1,0.2-0.2,0.4-0.4,0.6c-0.2,0.2-0.4,0.3-0.6,0.4s-0.5,0.1-0.7,0.1
			h-4.1c-0.3,0-0.5,0-0.7-0.1s-0.4-0.2-0.6-0.4s-0.3-0.4-0.4-0.6c-0.1-0.2-0.1-0.5-0.1-0.7v-9.5h2.5v9c0,0.1,0.1,0.2,0.2,0.2h2.5
			c0.1,0,0.2-0.1,0.2-0.2v-9H-89z"/>
		<path class="st3" d="M-87.4,115.4h8.4v2.3H-82v9.1h-2.5v-9.1h-2.9V115.4z"/>
		<path class="st3" d="M-66,115.4v9.5c0,0.3,0,0.5-0.1,0.7c-0.1,0.2-0.2,0.4-0.4,0.6c-0.2,0.2-0.4,0.3-0.6,0.4
			c-0.2,0.1-0.5,0.1-0.7,0.1H-72c-0.3,0-0.5,0-0.7-0.1s-0.4-0.2-0.6-0.4c-0.2-0.2-0.3-0.4-0.4-0.6c-0.1-0.2-0.1-0.5-0.1-0.7v-9.5
			h2.5v9c0,0.1,0.1,0.2,0.2,0.2h2.5c0.1,0,0.2-0.1,0.2-0.2v-9H-66z"/>
		<path class="st3" d="M-56.2,124.9c0,0.3,0,0.5-0.1,0.7c-0.1,0.2-0.2,0.4-0.4,0.6s-0.4,0.3-0.6,0.4s-0.5,0.1-0.7,0.1H-62
			c-0.3,0-0.5,0-0.7-0.1c-0.2-0.1-0.4-0.2-0.6-0.4s-0.3-0.4-0.4-0.6c-0.1-0.2-0.1-0.5-0.1-0.7v-1.3l2.4-0.4v1.1
			c0,0.1,0.1,0.2,0.2,0.2h2.4c0.1,0,0.2-0.1,0.2-0.2v-1.6c0-0.1-0.1-0.2-0.2-0.2c-0.1,0-0.5-0.1-1-0.3c-0.5-0.1-1.3-0.4-2.3-0.7
			c-0.5-0.1-0.9-0.4-1.2-0.6c-0.3-0.3-0.4-0.6-0.4-1.2v-2.6c0-0.3,0-0.5,0.1-0.7s0.2-0.4,0.4-0.6c0.2-0.2,0.4-0.3,0.6-0.4
			c0.2-0.1,0.5-0.1,0.7-0.1h3.8c0.3,0,0.5,0,0.7,0.1c0.2,0.1,0.4,0.2,0.6,0.4c0.2,0.2,0.3,0.4,0.4,0.6c0.1,0.2,0.1,0.5,0.1,0.7v1.2
			l-2.4,0.4v-1.1c0-0.1-0.1-0.2-0.2-0.2h-2.3c-0.1,0-0.2,0.1-0.2,0.2v1.5c0,0.1,0,0.1,0.1,0.1c0,0,0.1,0.1,0.1,0.1
			c0.1,0,0.4,0.1,0.9,0.3c0.5,0.1,1.4,0.4,2.5,0.7c0.5,0.1,0.9,0.3,1.1,0.6s0.4,0.7,0.4,1.2V124.9z"/>
	</g>
</g>
</svg>
