<?xml version="1.0" encoding="utf-8"?>
<!-- Generator: Adobe Illustrator 19.0.0, SVG Export Plug-In . SVG Version: 6.00 Build 0)  -->
<svg version="1.1" id="Capa_1" xmlns="http://www.w3.org/2000/svg" xmlns:xlink="http://www.w3.org/1999/xlink" x="0px" y="0px"
	 viewBox="-159.3 95.1 88.4 14.4" style="enable-background:new -159.3 95.1 88.4 14.4;" xml:space="preserve">
<style type="text/css">
	.st0{opacity:0.47;}
	.st1{fill:#FFFFFF;}
</style>
<g class="st0">
	<path class="st1" d="M-158.9,98h6.4v1.7h-2.3v7h-1.9v-7h-2.3V98z"/>
	<path class="st1" d="M-146.9,103.1h-2.5v3.6h-1.9V98h1.9v3.4h2.5V98h1.9v8.7h-1.9V103.1z"/>
	<path class="st1" d="M-143.2,98h5.4v1.7h-3.5v1.7h3.2v1.7h-3.2v1.9h3.5v1.7h-5.4V98z"/>
	<path class="st1" d="M-133.4,98h5.4v1.7h-3.5v1.7h3.2v1.7h-3.2v1.9h3.5v1.7h-5.4V98z"/>
	<path class="st1" d="M-122.6,106.7h-1.9l-2.6-8.7h1.9l1.7,5.9l1.7-5.9h1.9L-122.6,106.7z"/>
	<path class="st1" d="M-113.2,105.8c-0.1,0.2-0.2,0.3-0.3,0.5s-0.3,0.2-0.5,0.3c-0.2,0.1-0.4,0.1-0.6,0.1h-3.2c-0.2,0-0.4,0-0.6-0.1
		s-0.3-0.2-0.5-0.3s-0.2-0.3-0.3-0.5c-0.1-0.2-0.1-0.4-0.1-0.6v-5.8c0-0.2,0-0.4,0.1-0.6c0.1-0.2,0.2-0.3,0.3-0.5s0.3-0.2,0.5-0.3
		c0.2-0.1,0.4-0.1,0.6-0.1h3.2c0.2,0,0.4,0,0.6,0.1c0.2,0.1,0.3,0.2,0.5,0.3s0.2,0.3,0.3,0.5c0.1,0.2,0.1,0.4,0.1,0.6v5.8
		C-113.1,105.4-113.1,105.6-113.2,105.8z M-115.1,99.7h-2c-0.1,0-0.1,0-0.1,0.1v5c0,0.1,0,0.1,0.1,0.1h2c0.1,0,0.1,0,0.1-0.1v-5
		C-115,99.7-115,99.7-115.1,99.7z"/>
	<path class="st1" d="M-111.3,98h1.9v7h3.5v1.7h-5.4V98z"/>
	<path class="st1" d="M-98.7,98v7.3c0,0.2,0,0.4-0.1,0.6c-0.1,0.2-0.2,0.3-0.3,0.5s-0.3,0.2-0.5,0.3c-0.2,0.1-0.4,0.1-0.6,0.1h-3.1
		c-0.2,0-0.4,0-0.6-0.1s-0.3-0.2-0.5-0.3s-0.2-0.3-0.3-0.5c-0.1-0.2-0.1-0.4-0.1-0.6V98h1.9v6.9c0,0.1,0,0.1,0.1,0.1h1.9
		c0.1,0,0.1,0,0.1-0.1V98H-98.7z"/>
	<path class="st1" d="M-97.5,98h6.4v1.7h-2.3v7h-1.9v-7h-2.3V98z"/>
	<path class="st1" d="M-88,106.7h-1.9V98h1.9V106.7z"/>
	<path class="st1" d="M-80.2,105.8c-0.1,0.2-0.2,0.3-0.3,0.5s-0.3,0.2-0.5,0.3c-0.2,0.1-0.4,0.1-0.6,0.1h-3.2c-0.2,0-0.4,0-0.6-0.1
		s-0.3-0.2-0.5-0.3s-0.2-0.3-0.3-0.5c-0.1-0.2-0.1-0.4-0.1-0.6v-5.8c0-0.2,0-0.4,0.1-0.6c0.1-0.2,0.2-0.3,0.3-0.5s0.3-0.2,0.5-0.3
		C-85.2,98-85,98-84.8,98h3.2c0.2,0,0.4,0,0.6,0.1c0.2,0.1,0.3,0.2,0.5,0.3s0.2,0.3,0.3,0.5c0.1,0.2,0.1,0.4,0.1,0.6v5.8
		C-80.1,105.4-80.2,105.6-80.2,105.8z M-82.2,99.7h-2c-0.1,0-0.1,0-0.1,0.1v5c0,0.1,0,0.1,0.1,0.1h2c0.1,0,0.1,0,0.1-0.1v-5
		C-82,99.7-82.1,99.7-82.2,99.7z"/>
	<path class="st1" d="M-71.8,106.7h-1.8l-2.9-5.1v5.1h-1.8V98h1.8l2.9,5.1V98h1.8V106.7z"/>
</g>
</svg>
