<?xml version="1.0" encoding="utf-8"?>
<!-- Generator: Adobe Illustrator 19.0.0, SVG Export Plug-In . SVG Version: 6.00 Build 0)  -->
<svg version="1.1" id="Capa_1" xmlns="http://www.w3.org/2000/svg" xmlns:xlink="http://www.w3.org/1999/xlink" x="0px" y="0px"
	 viewBox="-125.1 97.3 19.6 8.7" style="enable-background:new -125.1 97.3 19.6 8.7;" xml:space="preserve">
<style type="text/css">
	.st0{opacity:0.47;}
	.st1{fill:#FFFFFF;}
</style>
<g class="st0">
	<path class="st1" d="M-125.1,106v-8.7h5.5V99h-3.6v1.7h3.3v1.7h-3.3v3.6H-125.1z"/>
	<path class="st1" d="M-118.4,97.3h5.4V99h-3.5v1.7h3.2v1.7h-3.2v1.9h3.5v1.7h-5.4V97.3z"/>
	<path class="st1" d="M-111.4,97.3h4.5c0.2,0,0.4,0,0.5,0.1c0.2,0.1,0.3,0.2,0.4,0.3c0.1,0.1,0.2,0.3,0.3,0.4
		c0.1,0.2,0.1,0.3,0.1,0.5v2c0,0.2-0.1,0.3-0.2,0.5c-0.1,0.2-0.3,0.3-0.5,0.4c0.2,0,0.3,0.1,0.5,0.3s0.2,0.3,0.2,0.6v2.3
		c0,0.2,0,0.4-0.1,0.5c-0.1,0.2-0.2,0.3-0.3,0.4c-0.1,0.1-0.3,0.2-0.4,0.3c-0.2,0.1-0.3,0.1-0.5,0.1h-4.5V97.3z M-107.5,100.8
		c0.1,0,0.1,0,0.1-0.1v-1.5c0-0.1,0-0.1-0.1-0.1h-1.9v1.8H-107.5z M-109.5,104.3h2c0.1,0,0.1,0,0.1-0.1v-1.7c0-0.1,0-0.1-0.1-0.1h-2
		V104.3z"/>
</g>
</svg>
