<?xml version="1.0" encoding="utf-8"?>
<!-- Generator: Adobe Illustrator 19.0.0, SVG Export Plug-In . SVG Version: 6.00 Build 0)  -->
<svg version="1.1" id="Capa_1" xmlns="http://www.w3.org/2000/svg" xmlns:xlink="http://www.w3.org/1999/xlink" x="0px" y="0px"
	 viewBox="-180.1 36.6 136.8 132.3" style="enable-background:new -180.1 36.6 136.8 132.3;" xml:space="preserve">
<style type="text/css">
	.st0{fill:#333335;}
	.st1{opacity:0.55;fill:#333335;}
	.st2{opacity:0.55;fill:#F1664F;}
	.st3{opacity:0.64;}
	.st4{fill:#FFFFFF;}
</style>
<path id="XMLID_24_" class="st0" d="M-55.3,113.6l-18.5,10.7c-7.4,4.3-16.6,4.3-24,0l-18.5-10.7c-7.4-4.3-12-12.2-12-20.8V71.3
	c0-8.6,4.6-16.5,12-20.8l18.5-10.7c7.4-4.3,16.6-4.3,24,0l18.5,10.7c7.4,4.3,12,12.2,12,20.8v21.5
	C-43.3,101.4-47.9,109.3-55.3,113.6z"/>
<rect id="XMLID_29_" x="-175.1" y="122.9" transform="matrix(0.6631 -0.7485 0.7485 0.6631 -141.2132 -62.3082)" class="st1" width="70.6" height="5.6"/>
<circle id="XMLID_32_" class="st2" cx="-169.8" cy="158.6" r="10.3"/>
<g class="st3">
	<g>
		<path class="st4" d="M-141.1,160.5c-0.1,0.2-0.2,0.4-0.4,0.6s-0.4,0.3-0.6,0.4c-0.2,0.1-0.5,0.1-0.7,0.1h-4.2
			c-0.3,0-0.5,0-0.7-0.1s-0.4-0.2-0.6-0.4c-0.2-0.2-0.3-0.4-0.4-0.6c-0.1-0.2-0.1-0.5-0.1-0.7v-7.6c0-0.3,0-0.5,0.1-0.7
			c0.1-0.2,0.2-0.4,0.4-0.6c0.2-0.2,0.4-0.3,0.6-0.4c0.2-0.1,0.5-0.1,0.7-0.1h4.2c0.3,0,0.5,0,0.7,0.1c0.2,0.1,0.4,0.2,0.6,0.4
			c0.2,0.2,0.3,0.4,0.4,0.6s0.1,0.5,0.1,0.7v7.6C-141,160-141,160.3-141.1,160.5z M-143.7,152.5h-2.7c-0.1,0-0.2,0.1-0.2,0.2v6.5
			c0,0.1,0.1,0.2,0.2,0.2h2.7c0.1,0,0.2-0.1,0.2-0.2v-6.5C-143.5,152.6-143.5,152.5-143.7,152.5z"/>
		<path class="st4" d="M-131,150.3v9.5c0,0.3,0,0.5-0.1,0.7c-0.1,0.2-0.2,0.4-0.4,0.6c-0.2,0.2-0.4,0.3-0.6,0.4
			c-0.2,0.1-0.5,0.1-0.7,0.1h-4.1c-0.3,0-0.5,0-0.7-0.1s-0.4-0.2-0.6-0.4c-0.2-0.2-0.3-0.4-0.4-0.6c-0.1-0.2-0.1-0.5-0.1-0.7v-9.5
			h2.5v9c0,0.1,0.1,0.2,0.2,0.2h2.5c0.1,0,0.2-0.1,0.2-0.2v-9H-131z"/>
		<path class="st4" d="M-124.5,157.5h-1.7v4.2h-2.5v-11.4h6.3c0.3,0,0.5,0,0.7,0.1c0.2,0.1,0.4,0.2,0.6,0.4c0.2,0.2,0.3,0.4,0.4,0.6
			s0.1,0.5,0.1,0.7v3.4c0,0.4-0.1,0.8-0.4,1.1s-0.6,0.6-1,0.7l2,4.3h-2.7L-124.5,157.5z M-126.2,152.5v2.7h3.1
			c0.1,0,0.2-0.1,0.2-0.2v-2.3c0-0.1-0.1-0.2-0.2-0.2H-126.2z"/>
		<path class="st4" d="M-115.1,150.3h8.4v2.3h-2.9v9.1h-2.5v-9.1h-2.9V150.3z"/>
		<path class="st4" d="M-105.2,150.3h7.1v2.3h-4.6v2.2h4.2v2.3h-4.2v2.4h4.6v2.3h-7.1V150.3z"/>
		<path class="st4" d="M-86.7,161.7h-2.5l-0.7-2.3h-3.5l-0.7,2.3h-2.5l3.7-11.4h2.5L-86.7,161.7z M-92.8,157.2h2.1l-1-3.8
			L-92.8,157.2z"/>
		<path class="st4" d="M-82.8,155.7v6h-2.4v-11.4h2.4l2.9,6.8l2.9-6.8h2.4v11.4h-2.4v-6l-1.8,4.2H-81L-82.8,155.7z"/>
	</g>
</g>
</svg>
