<?xml version="1.0" encoding="utf-8"?>
<!-- Generator: Adobe Illustrator 19.0.0, SVG Export Plug-In . SVG Version: 6.00 Build 0)  -->
<svg version="1.1" id="Layer_1" xmlns="http://www.w3.org/2000/svg" xmlns:xlink="http://www.w3.org/1999/xlink" x="0px" y="0px"
	 viewBox="-351 186.4 256.4 188.6" style="enable-background:new -351 186.4 256.4 188.6;" xml:space="preserve">
<style type="text/css">
	.st0{opacity:0.19;fill:#9E8B8A;enable-background:new    ;}
	.st1{fill:#FFFFFF;}
	.st2{fill:#C7B299;}
</style>
<path id="XMLID_40_" class="st0" d="M-114.9,375h-215.8c-11.2,0-20.3-9.1-20.3-20.3v-148c0-11.2,9.1-20.3,20.3-20.3h215.8
	c11.2,0,20.3,9.1,20.3,20.3v148C-94.6,365.9-103.7,375-114.9,375z"/>
<g>
	<path class="st1" d="M-250,217.4h-2.5l-1-3h-4.6l-1,3h-2.5l4.6-13.8h2.3L-250,217.4z M-257.4,212.2h3.2l-1.6-5.2L-257.4,212.2z"/>
	<path class="st1" d="M-244.4,212.5v-2.1h5.1v2.1H-244.4z"/>
	<path class="st1" d="M-230.1,209.2v8.2h-2.4v-13.8h2.4l3.7,8.4l3.7-8.4h2.4v13.8h-2.4l0-8.2l-2.6,5.9h-2.1L-230.1,209.2z"/>
	<path class="st1" d="M-206.8,217.4h-2.5l-1-3h-4.6l-1,3h-2.5l4.6-13.8h2.3L-206.8,217.4z M-214.2,212.2h3.2l-1.6-5.2L-214.2,212.2z
		"/>
	<path class="st1" d="M-195.9,217.4h-9.3v-2.3l6.3-9.2h-6.1v-2.3h9v2.3l-6.3,9.2h6.4V217.4z"/>
	<path class="st1" d="M-193.1,203.6h8.3v2.3h-5.9v3.4h5.3v2.3h-5.3v3.5h5.9v2.3h-8.3V203.6z"/>
</g>
<g>
	<path class="st2" d="M-259.6,266.8c1,0,1.9-0.8,1.9-1.9v-7.8c0-5,4.1-9.1,9.1-9.1h16.5v20.2h-12.2V258c0-1-0.8-1.9-1.9-1.9
		s-1.9,0.8-1.9,1.9v21.3c0,1,0.8,1.9,1.9,1.9s1.9-0.8,1.9-1.9V272h14.1c1,0,1.9-0.8,1.9-1.9V248h25.3v8.2h-16.5
		c-1,0-1.9,0.8-1.9,1.9v32.7c0,1,0.8,1.9,1.9,1.9s1.9-0.8,1.9-1.9V260h16.5c1,0,1.9-0.8,1.9-1.9V248h2.4c5,0,9.1,4.1,9.1,9.1v3.1
		c0,1,0.8,1.9,1.9,1.9c1,0,1.9-0.8,1.9-1.9v-3.1c0-7.1-5.7-12.8-12.8-12.8h-51.6c-7.1,0-12.8,5.7-12.8,12.8v7.8
		C-261.4,265.9-260.6,266.8-259.6,266.8z"/>
	<path class="st2" d="M-259.6,306.9c1,0,1.9-0.8,1.9-1.9v-32.7c0-1-0.8-1.9-1.9-1.9s-1.9,0.8-1.9,1.9v32.7
		C-261.4,306.1-260.6,306.9-259.6,306.9z"/>
	<path class="st2" d="M-186,274.4c-1,0-1.9,0.8-1.9,1.9v5.4h-9.9c-1,0-1.9,0.8-1.9,1.9v29.1h-28.6c-1,0-1.9,0.8-1.9,1.9
		s0.8,1.9,1.9,1.9h30.4c1,0,1.9-0.8,1.9-1.9v-29.1h8.1v38.8c0,5-4.1,9.1-9.1,9.1h-21.7v-8.7c0-1-0.8-1.9-1.9-1.9h-17.6v-24
		c0-1-0.8-1.9-1.9-1.9c-1,0-1.9,0.8-1.9,1.9v25.9c0,1,0.8,1.9,1.9,1.9h17.6v6.8h-26.2c-5,0-9.1-4.1-9.1-9.1V321c0-1-0.8-1.9-1.9-1.9
		s-1.9,0.8-1.9,1.9v3.1c0,7.1,5.7,12.8,12.8,12.8h51.6c7.1,0,12.8-5.7,12.8-12.8v-47.9C-184.2,275.2-185,274.4-186,274.4z"/>
	<path class="st2" d="M-278.3,304.5c-4.3,0-7.9,3.5-7.9,7.9c0,4.3,3.5,7.9,7.9,7.9s7.9-3.5,7.9-7.9S-273.9,304.5-278.3,304.5z
		 M-278.3,316.6c-2.3,0-4.2-1.9-4.2-4.2c0-2.3,1.9-4.2,4.2-4.2s4.2,1.9,4.2,4.2C-274.1,314.7-276,316.6-278.3,316.6z"/>
	<path class="st2" d="M-163.5,267.6l3.5-3.5c0.7-0.7,0.7-1.9,0-2.6c-0.7-0.7-1.9-0.7-2.6,0l-3.5,3.5l-3.5-3.5
		c-0.7-0.7-1.9-0.7-2.6,0c-0.7,0.7-0.7,1.9,0,2.6l3.5,3.5l-3.5,3.5c-0.7,0.7-0.7,1.9,0,2.6c0.4,0.4,0.8,0.5,1.3,0.5s0.9-0.2,1.3-0.5
		l3.5-3.5l3.5,3.5c0.4,0.4,0.8,0.5,1.3,0.5s0.9-0.2,1.3-0.5c0.7-0.7,0.7-1.9,0-2.6L-163.5,267.6z"/>
	<path class="st2" d="M-180.6,266.4h-28.7c-1,0-1.9,0.8-1.9,1.9v33.4h-17.2v-14.1c0-1-0.8-1.9-1.9-1.9h-19.6c-1,0-1.9,0.8-1.9,1.9
		v23.6H-265c-1,0-1.9,0.8-1.9,1.9s0.8,1.9,1.9,1.9h15.2c1,0,1.9-0.8,1.9-1.9v-23.6h15.9v14.1c0,1,0.8,1.9,1.9,1.9h20.9
		c1,0,1.9-0.8,1.9-1.9v-33.4h26.9c1,0,1.9-0.8,1.9-1.9S-179.5,266.4-180.6,266.4z"/>
</g>
</svg>
