<?xml version="1.0" encoding="utf-8"?>
<!-- Generator: Adobe Illustrator 19.0.0, SVG Export Plug-In . SVG Version: 6.00 Build 0)  -->
<svg version="1.1" id="Layer_1" xmlns="http://www.w3.org/2000/svg" xmlns:xlink="http://www.w3.org/1999/xlink" x="0px" y="0px"
	 viewBox="-351 186.4 256.4 188.6" style="enable-background:new -351 186.4 256.4 188.6;" xml:space="preserve">
<style type="text/css">
	.st0{opacity:0.19;fill:#9E8B8A;enable-background:new    ;}
	.st1{fill:#FFFFFF;}
	.st2{fill:#C7B299;}
</style>
<path id="XMLID_40_" class="st0" d="M-114.9,375h-215.8c-11.2,0-20.3-9.1-20.3-20.3v-148c0-11.2,9.1-20.3,20.3-20.3h215.8
	c11.2,0,20.3,9.1,20.3,20.3v148C-94.6,365.9-103.7,375-114.9,375z"/>
<g>
	<path class="st1" d="M-238.1,210.3l2.6,0.4v2.2c0,0.3-0.1,0.6-0.2,0.9c-0.1,0.3-0.3,0.5-0.5,0.8s-0.5,0.4-0.8,0.5
		c-0.3,0.1-0.6,0.2-0.9,0.2h-4.9c-0.3,0-0.6-0.1-0.9-0.2c-0.3-0.1-0.5-0.3-0.8-0.5c-0.2-0.2-0.4-0.5-0.5-0.8
		c-0.1-0.3-0.2-0.6-0.2-0.9v-9.8c0-0.3,0.1-0.6,0.2-0.9c0.1-0.3,0.3-0.5,0.5-0.8c0.2-0.2,0.5-0.4,0.8-0.5c0.3-0.1,0.6-0.2,0.9-0.2
		h4.9c0.3,0,0.6,0.1,0.9,0.2c0.3,0.1,0.5,0.3,0.8,0.5c0.2,0.2,0.4,0.5,0.5,0.8c0.1,0.3,0.2,0.6,0.2,0.9v2.1l-2.6,0.4v-1.9
		c0-0.2-0.1-0.3-0.2-0.4c-0.1-0.1-0.3-0.2-0.4-0.2h-3.3c-0.2,0-0.3,0.1-0.4,0.2c-0.1,0.1-0.2,0.2-0.2,0.4v8.6c0,0.2,0.1,0.3,0.2,0.4
		c0.1,0.1,0.3,0.2,0.4,0.2h3.3c0.2,0,0.3-0.1,0.4-0.2c0.1-0.1,0.2-0.2,0.2-0.4V210.3z"/>
	<path class="st1" d="M-229.8,215.4h-2.6v-14.6h2.6V215.4z"/>
	<path class="st1" d="M-220.7,215.4h-2.6l-4.5-14.6h2.6l3.1,10.6l3.1-10.6h2.6L-220.7,215.4z"/>
	<path class="st1" d="M-211.5,215.4h-2.6v-14.6h2.6V215.4z"/>
	<path class="st1" d="M-208.2,200.8h2.6V213h5.9v2.4h-8.6V200.8z"/>
</g>
<g>
	<path class="st2" d="M-242.3,301.4h3v3h-3V301.4z"/>
	<path class="st2" d="M-236.3,301.4h3v3h-3V301.4z"/>
	<path class="st2" d="M-230.3,301.4h3v3h-3V301.4z"/>
	<path class="st2" d="M-242.3,307.4h3v3h-3V307.4z"/>
	<path class="st2" d="M-236.3,307.4h3v3h-3V307.4z"/>
	<path class="st2" d="M-230.3,307.4h3v3h-3V307.4z"/>
	<path class="st2" d="M-224.3,307.4h3v3h-3V307.4z"/>
	<path class="st2" d="M-218.3,307.4h3v3h-3V307.4z"/>
	<path class="st2" d="M-242.3,313.4h3v3h-3V313.4z"/>
	<path class="st2" d="M-236.3,313.4h3v3h-3V313.4z"/>
	<path class="st2" d="M-230.3,313.4h3v3h-3V313.4z"/>
	<path class="st2" d="M-224.3,313.4h3v3h-3V313.4z"/>
	<path class="st2" d="M-218.3,313.4h3v3h-3V313.4z"/>
	<path class="st2" d="M-242.3,319.4h3v3h-3V319.4z"/>
	<path class="st2" d="M-236.3,319.4h3v3h-3V319.4z"/>
	<path class="st2" d="M-230.3,319.4h3v3h-3V319.4z"/>
	<path class="st2" d="M-224.3,319.4h3v3h-3V319.4z"/>
	<path class="st2" d="M-218.3,319.4h3v3h-3V319.4z"/>
	<path class="st2" d="M-242.3,325.4h3v3h-3V325.4z"/>
	<path class="st2" d="M-236.3,325.4h3v3h-3V325.4z"/>
	<path class="st2" d="M-230.3,325.4h3v3h-3V325.4z"/>
	<path class="st2" d="M-224.3,325.4h3v3h-3V325.4z"/>
	<path class="st2" d="M-218.3,325.4h3v3h-3V325.4z"/>
	<path class="st2" d="M-242.3,331.4h3v3h-3V331.4z"/>
	<path class="st2" d="M-236.3,331.4h3v3h-3V331.4z"/>
	<path class="st2" d="M-230.3,331.4h3v3h-3V331.4z"/>
	<path class="st2" d="M-224.3,331.4h3v3h-3V331.4z"/>
	<path class="st2" d="M-218.3,331.4h3v3h-3V331.4z"/>
	<path class="st2" d="M-179.2,254.8h-10.5v-3c0-0.8-0.7-1.5-1.5-1.5h-15c-0.8,0-1.5,0.7-1.5,1.5v3h-58.6c-0.8,0-1.5,0.7-1.5,1.5v6
		c0,0.8,0.7,1.5,1.5,1.5h4.5v28.5c0,0.8,0.7,1.5,1.5,1.5s1.5,0.7,1.5,1.5c0,0.8-0.7,1.5-1.5,1.5s-1.5-0.7-1.5-1.5h-3
		c0,1.1,0.4,2.2,1.1,3l-3.9,5.1l0,0c-0.2,0.3-0.3,0.6-0.3,0.9v6c0,0.4,0.2,0.8,0.4,1.1l3,3c0.3,0.3,0.7,0.4,1.1,0.4h6
		c0.4,0,0.8-0.2,1.1-0.4l3-3c0.3-0.3,0.4-0.7,0.4-1.1v-6c0-0.3-0.1-0.6-0.3-0.9l0,0l-3.9-5.1c1-1.1,1.4-2.7,1-4.1
		c-0.4-1.5-1.4-2.6-2.9-3.1v-27.3h51.1v1.5c0,0.8,0.7,1.5,1.5,1.5h3v70.6h-6v-60.1h-3v6h-9v-3h-3v3h-9v-1.5h-3v1.5h-9v-4.5h19.5v-3
		h-19.5v-6h-3v67.6h-2.4l-7.1-7.1c-0.6-0.6-1.5-0.6-2.1,0l-7.1,7.1h-0.9v3h90.1v-3h-1.2c1.1-1.2,1.4-2.8,1-4.3
		c-0.4-1.5-1.6-2.7-3.2-3.1c0.8-1.9,0.2-4-1.4-5.3c-1.6-1.2-3.9-1.2-5.5,0c-1.6,1.2-2.2,3.4-1.4,5.3c-1.5,0.4-2.7,1.6-3.2,3.1
		c-0.4,1.5-0.1,3.1,1,4.3h-2.7v-70.6h3c0.8,0,1.5-0.7,1.5-1.5v-1.5h10.5c0.8,0,1.5-0.7,1.5-1.5v-6
		C-177.7,255.5-178.4,254.8-179.2,254.8z M-259.6,299.9l2.3,3h-6l2.3-3H-259.6z M-255.8,309.8l-2.1,2.1h-4.8l-2.1-2.1v-3.9h9V309.8z
		 M-185.7,257.8l-4.1,2.7v-2.7H-185.7z M-204.8,253.3h6v6h-6V253.3z M-245.3,258.1l4.1,2.7h-8.1L-245.3,258.1z M-254.3,260.5
		l-4.1-2.7h8.1L-254.3,260.5z M-240.4,257.8h8.1l-4.1,2.7L-240.4,257.8z M-227.3,258.1l4.1,2.7h-8.1L-227.3,258.1z M-222.4,257.8
		h8.1l-4.1,2.7L-222.4,257.8z M-264.9,257.8h1.1l4.5,3h-5.6V257.8z M-213.3,260.8l4.5-3h1.1v3H-213.3z M-197.3,332.5l-2.7-4.1
		l2.7-4.1V332.5z M-197.3,296.4l-2.7-4.1l2.7-4.1V296.4z M-200.3,297.3l2.7,4.1l-2.7,4.1V297.3z M-200.3,287.4v-8.1l2.7,4.1
		L-200.3,287.4z M-200.3,315.4l2.7,4.1l-2.7,4.1V315.4z M-197.3,314.4l-2.7-4l2.7-4.1V314.4z M-200,274.3l2.7-4.1v8.1L-200,274.3z
		 M-200.3,269.4v-2.6h1.7L-200.3,269.4z M-212.3,286.4v15h-9v-15H-212.3z M-224.3,286.4v12.9l-3.5-3.4c-0.3-0.3-0.7-0.4-1.1-0.4
		h-4.5v-9.1H-224.3z M-236.3,286.4v2.5h-9v-2.5H-236.3z M-258.8,333.5l3.9,3.9h-7.8L-258.8,333.5z M-245.3,337.4v-45.6h9v5.1
		c0,0.8,0.7,1.5,1.5,1.5h5.4l5.6,5.5c0.3,0.3,0.7,0.4,1.1,0.4h10.5v33H-245.3z M-200.3,333.4l2.7,4.1h-2.7V333.4z M-182.2,335.9
		c-0.8,0-1.5-0.7-1.5-1.5c0-0.8,0.7-1.5,1.5-1.5c0.8,0,1.5,0.7,1.5,1.5C-180.7,335.3-181.4,335.9-182.2,335.9z M-185.3,326.9
		c0.8,0,1.5,0.7,1.5,1.5c0,0.8-0.7,1.5-1.5,1.5c-0.8,0-1.5-0.7-1.5-1.5C-186.8,327.6-186.1,326.9-185.3,326.9z M-188.3,332.9
		c0.8,0,1.5,0.7,1.5,1.5c0,0.8-0.7,1.5-1.5,1.5s-1.5-0.7-1.5-1.5C-189.8,333.6-189.1,332.9-188.3,332.9z M-192.8,263.8h-12v-1.5h7.5
		c0.8,0,1.5-0.7,1.5-1.5v-7.5h3V263.8z M-184.8,260.8l4.1-2.7v2.7H-184.8z"/>
</g>
</svg>
