<?xml version="1.0" encoding="utf-8"?>
<!-- Generator: Adobe Illustrator 19.0.0, SVG Export Plug-In . SVG Version: 6.00 Build 0)  -->
<svg version="1.1" id="Layer_1" xmlns="http://www.w3.org/2000/svg" xmlns:xlink="http://www.w3.org/1999/xlink" x="0px" y="0px"
	 viewBox="-351 186.4 256.4 188.6" style="enable-background:new -351 186.4 256.4 188.6;" xml:space="preserve">
<style type="text/css">
	.st0{opacity:0.19;fill:#9E8B8A;enable-background:new    ;}
	.st1{fill:#FFFFFF;}
	.st2{fill:#C7B299;}
</style>
<path id="XMLID_40_" class="st0" d="M-114.9,375h-215.8c-11.2,0-20.3-9.1-20.3-20.3v-148c0-11.2,9.1-20.3,20.3-20.3h215.8
	c11.2,0,20.3,9.1,20.3,20.3v148C-94.6,365.9-103.7,375-114.9,375z"/>
<g>
	<path class="st1" d="M-285.9,200.8h8.8v2.4h-6.2v3.6h5.7v2.4h-5.7v3.7h6.2v2.4h-8.8V200.8z"/>
	<path class="st1" d="M-274.2,200.8h2.6V213h5.9v2.4h-8.6V200.8z"/>
	<path class="st1" d="M-263.2,200.8h8.8v2.4h-6.2v3.6h5.7v2.4h-5.7v3.7h6.2v2.4h-8.8V200.8z"/>
	<path class="st1" d="M-244.6,210.3l2.6,0.4v2.2c0,0.3-0.1,0.6-0.2,0.9c-0.1,0.3-0.3,0.5-0.5,0.8s-0.5,0.4-0.8,0.5
		c-0.3,0.1-0.6,0.2-0.9,0.2h-4.9c-0.3,0-0.6-0.1-0.9-0.2c-0.3-0.1-0.5-0.3-0.8-0.5c-0.2-0.2-0.4-0.5-0.5-0.8
		c-0.1-0.3-0.2-0.6-0.2-0.9v-9.8c0-0.3,0.1-0.6,0.2-0.9c0.1-0.3,0.3-0.5,0.5-0.8c0.2-0.2,0.5-0.4,0.8-0.5c0.3-0.1,0.6-0.2,0.9-0.2
		h4.9c0.3,0,0.6,0.1,0.9,0.2c0.3,0.1,0.5,0.3,0.8,0.5c0.2,0.2,0.4,0.5,0.5,0.8c0.1,0.3,0.2,0.6,0.2,0.9v2.1l-2.6,0.4v-1.9
		c0-0.2-0.1-0.3-0.2-0.4c-0.1-0.1-0.3-0.2-0.4-0.2h-3.3c-0.2,0-0.3,0.1-0.4,0.2c-0.1,0.1-0.2,0.2-0.2,0.4v8.6c0,0.2,0.1,0.3,0.2,0.4
		c0.1,0.1,0.3,0.2,0.4,0.2h3.3c0.2,0,0.3-0.1,0.4-0.2c0.1-0.1,0.2-0.2,0.2-0.4V210.3z"/>
	<path class="st1" d="M-240.3,200.8h10.5v2.4h-4v12.2h-2.6v-12.2h-4V200.8z"/>
	<path class="st1" d="M-222.3,209.8h-2.8v5.6h-2.6v-14.6h7.6c0.3,0,0.6,0.1,0.9,0.2c0.3,0.1,0.5,0.3,0.8,0.5
		c0.2,0.2,0.4,0.5,0.5,0.8c0.1,0.3,0.2,0.6,0.2,0.9v4.1c0,0.6-0.2,1.1-0.5,1.5c-0.3,0.4-0.8,0.7-1.3,0.8l2.8,5.7h-2.9L-222.3,209.8z
		 M-220.3,203.8c0-0.2-0.1-0.3-0.2-0.4c-0.1-0.1-0.3-0.2-0.4-0.2h-4.2v4.1h4.2c0.2,0,0.3-0.1,0.4-0.2c0.1-0.1,0.2-0.2,0.2-0.4V203.8
		z"/>
	<path class="st1" d="M-212.9,215.2c-0.3-0.1-0.5-0.3-0.8-0.5c-0.2-0.2-0.4-0.5-0.5-0.8c-0.1-0.3-0.2-0.6-0.2-0.9v-9.8
		c0-0.3,0.1-0.6,0.2-0.9c0.1-0.3,0.3-0.5,0.5-0.8c0.2-0.2,0.5-0.4,0.8-0.5c0.3-0.1,0.6-0.2,0.9-0.2h5.1c0.3,0,0.6,0.1,0.9,0.2
		c0.3,0.1,0.5,0.3,0.8,0.5c0.2,0.2,0.4,0.5,0.5,0.8c0.1,0.3,0.2,0.6,0.2,0.9v9.8c0,0.3-0.1,0.6-0.2,0.9c-0.1,0.3-0.3,0.5-0.5,0.8
		s-0.5,0.4-0.8,0.5c-0.3,0.1-0.6,0.2-0.9,0.2h-5.1C-212.3,215.4-212.6,215.3-212.9,215.2z M-207,203.8c0-0.2-0.1-0.3-0.2-0.4
		c-0.1-0.1-0.3-0.2-0.4-0.2h-3.5c-0.2,0-0.3,0.1-0.4,0.2c-0.1,0.1-0.2,0.2-0.2,0.4v8.6c0,0.2,0.1,0.3,0.2,0.4
		c0.1,0.1,0.3,0.2,0.4,0.2h3.5c0.2,0,0.3-0.1,0.4-0.2c0.1-0.1,0.2-0.2,0.2-0.4V203.8z"/>
	<path class="st1" d="M-190.7,215.4h-2.5l-5.6-9.4v9.4h-2.5v-14.6h2.5l5.6,9.5v-9.5h2.5V215.4z"/>
	<path class="st1" d="M-184.8,215.4h-2.6v-14.6h2.6V215.4z"/>
	<path class="st1" d="M-174.5,210.3l2.6,0.4v2.2c0,0.3-0.1,0.6-0.2,0.9c-0.1,0.3-0.3,0.5-0.5,0.8s-0.5,0.4-0.8,0.5
		c-0.3,0.1-0.6,0.2-0.9,0.2h-4.9c-0.3,0-0.6-0.1-0.9-0.2c-0.3-0.1-0.5-0.3-0.8-0.5c-0.2-0.2-0.4-0.5-0.5-0.8
		c-0.1-0.3-0.2-0.6-0.2-0.9v-9.8c0-0.3,0.1-0.6,0.2-0.9c0.1-0.3,0.3-0.5,0.5-0.8c0.2-0.2,0.5-0.4,0.8-0.5c0.3-0.1,0.6-0.2,0.9-0.2
		h4.9c0.3,0,0.6,0.1,0.9,0.2c0.3,0.1,0.5,0.3,0.8,0.5c0.2,0.2,0.4,0.5,0.5,0.8c0.1,0.3,0.2,0.6,0.2,0.9v2.1l-2.6,0.4v-1.9
		c0-0.2-0.1-0.3-0.2-0.4c-0.1-0.1-0.3-0.2-0.4-0.2h-3.3c-0.2,0-0.3,0.1-0.4,0.2c-0.1,0.1-0.2,0.2-0.2,0.4v8.6c0,0.2,0.1,0.3,0.2,0.4
		c0.1,0.1,0.3,0.2,0.4,0.2h3.3c0.2,0,0.3-0.1,0.4-0.2c0.1-0.1,0.2-0.2,0.2-0.4V210.3z"/>
	<path class="st1" d="M-162.6,209.7c-0.4-0.1-0.8-0.2-1.1-0.3c-0.3-0.1-0.6-0.2-0.9-0.3c-0.3-0.1-0.6-0.2-0.9-0.3
		c-0.3-0.1-0.7-0.2-1.1-0.3c-0.3-0.1-0.6-0.2-0.9-0.4s-0.5-0.3-0.7-0.5c-0.2-0.2-0.4-0.4-0.5-0.7c-0.1-0.2-0.2-0.5-0.2-0.9v-3
		c0-0.3,0.1-0.6,0.2-0.9c0.1-0.3,0.3-0.5,0.5-0.8c0.2-0.2,0.5-0.4,0.8-0.5c0.3-0.1,0.6-0.2,0.9-0.2h4.6c0.3,0,0.6,0.1,0.9,0.2
		c0.3,0.1,0.5,0.3,0.8,0.5c0.2,0.2,0.4,0.5,0.5,0.8c0.1,0.3,0.2,0.6,0.2,0.9v1.7l-2.6,0.4v-1.6c0-0.2-0.1-0.3-0.2-0.4
		c-0.1-0.1-0.3-0.2-0.4-0.2h-3c-0.2,0-0.3,0.1-0.4,0.2c-0.1,0.1-0.2,0.2-0.2,0.4v1.8c0,0.2,0.1,0.3,0.2,0.4c0.1,0.1,0.3,0.2,0.4,0.2
		c0.6,0.2,1.3,0.4,1.9,0.5c0.6,0.2,1.3,0.4,2.1,0.6c0.6,0.2,1.2,0.4,1.6,0.8c0.4,0.4,0.7,0.9,0.7,1.6v3.3c0,0.3-0.1,0.6-0.2,0.9
		c-0.1,0.3-0.3,0.5-0.5,0.8c-0.2,0.2-0.5,0.4-0.8,0.5c-0.3,0.1-0.6,0.2-0.9,0.2h-4.7c-0.3,0-0.6-0.1-0.9-0.2
		c-0.3-0.1-0.5-0.3-0.8-0.5s-0.4-0.5-0.5-0.8c-0.1-0.3-0.2-0.6-0.2-0.9v-1.7l2.6-0.4v1.5c0,0.2,0.1,0.3,0.2,0.4
		c0.1,0.1,0.3,0.2,0.4,0.2h3.1c0.2,0,0.3-0.1,0.4-0.2c0.1-0.1,0.2-0.2,0.2-0.4v-2.1c0-0.2-0.1-0.3-0.2-0.4S-162.5,209.8-162.6,209.7
		z"/>
</g>
<g>
	<g>
		<g>
			<path class="st2" d="M-176.2,287.3h-22.6v-3.2h6.1c0.8,0,1.4-0.6,1.4-1.4s-0.6-1.4-1.4-1.4h-6.1v-3.2h4.2c1.6,0,3.1-0.6,4.2-1.7
				l9.2-9.2c0.6,0.3,1.3,0.5,2,0.5c1.2,0,2.3-0.5,3.1-1.3c0.8-0.8,1.3-1.9,1.3-3.1c0-1.2-0.5-2.3-1.3-3.1c-0.8-0.8-1.9-1.3-3.1-1.3
				c-1.2,0-2.3,0.5-3.1,1.3c-0.8,0.8-1.3,1.9-1.3,3.1c0,0.7,0.2,1.4,0.5,2l-9.2,9.2c-0.6,0.6-1.4,0.9-2.2,0.9h-4.2v-3.1
				c0-4.1-3.3-7.4-7.4-7.4h-3.1v-12.4c1.7-0.6,3-2.2,3-4.2c0-2.4-2-4.4-4.4-4.4s-4.4,2-4.4,4.4c0,1.9,1.3,3.6,3,4.2v12.4h-3.2v-6.1
				c0-0.8-0.6-1.4-1.4-1.4s-1.4,0.6-1.4,1.4v6.1h-3.2v-22.6c0-0.8-0.6-1.4-1.4-1.4s-1.4,0.6-1.4,1.4v22.6h-3.2v-6.1
				c0-0.8-0.6-1.4-1.4-1.4s-1.4,0.6-1.4,1.4v6.1h-3.2v-4.2c0-1.6-0.6-3.1-1.7-4.2l-9.3-9.3c0.8-1.7,0.5-3.7-0.8-5.1
				c-1.7-1.7-4.5-1.7-6.2,0c-1.7,1.7-1.7,4.5,0,6.2c0.9,0.9,2,1.3,3.1,1.3c0.7,0,1.3-0.2,2-0.5l9.3,9.3c0.6,0.6,0.9,1.4,0.9,2.2v4.2
				h-3.1c-0.6,0-1.3,0.1-1.9,0.2c-0.8,0.2-1.2,1-1,1.7s1,1.2,1.7,1c0.4-0.1,0.8-0.1,1.2-0.1h33.1c2.5,0,4.6,2.1,4.6,4.6v33.1
				c0,0.4,0,0.8-0.1,1.2c-0.2,0.8,0.3,1.5,1,1.7c0.1,0,0.2,0,0.4,0c0.6,0,1.2-0.4,1.4-1.1c0.2-0.6,0.2-1.2,0.2-1.9v-3.1h12.4
				c0.6,1.7,2.2,3,4.2,3c2.4,0,4.4-2,4.4-4.4c0-2.4-2-4.4-4.4-4.4c-1.9,0-3.6,1.3-4.2,3h-12.4v-3.2h6.1c0.8,0,1.4-0.6,1.4-1.4
				s-0.6-1.4-1.4-1.4h-6.1v-3.2h22.6c0.8,0,1.4-0.6,1.4-1.4S-175.4,287.3-176.2,287.3z M-180.3,262c0.3-0.3,0.7-0.5,1.1-0.5
				s0.8,0.2,1.1,0.5c0.3,0.3,0.5,0.7,0.5,1.1s-0.2,0.8-0.5,1.1c-0.3,0.3-0.7,0.5-1.1,0.5s-0.8-0.2-1.1-0.5c-0.3-0.3-0.5-0.7-0.5-1.1
				S-180.6,262.3-180.3,262z M-247.2,246.2c-0.6,0.6-1.6,0.6-2.3,0c-0.6-0.6-0.6-1.6,0-2.3c0.3-0.3,0.7-0.5,1.1-0.5
				c0.4,0,0.8,0.2,1.1,0.5C-246.6,244.6-246.6,245.6-247.2,246.2z M-210.8,249.7c-0.9,0-1.6-0.7-1.6-1.6c0-0.9,0.7-1.6,1.6-1.6
				c0.9,0,1.6,0.7,1.6,1.6C-209.2,249-209.9,249.7-210.8,249.7z M-182.2,299.1c0.9,0,1.6,0.7,1.6,1.6c0,0.9-0.7,1.6-1.6,1.6
				s-1.6-0.7-1.6-1.6C-183.8,299.8-183.1,299.1-182.2,299.1z"/>
		</g>
	</g>
	<g>
		<g>
			<path class="st2" d="M-194.1,329.2c-1.4-1.4-3.4-1.6-5.1-0.8l-9.3-9.3c-0.6-0.6-0.9-1.4-0.9-2.2v-4.2h3.1c0.6,0,1.3-0.1,1.9-0.2
				c0.8-0.2,1.2-1,1-1.7c-0.2-0.8-1-1.2-1.7-1c-0.4,0.1-0.8,0.1-1.2,0.1h-33.1c-2.5,0-4.6-2.1-4.6-4.6v-33.1c0-0.4,0-0.8,0.1-1.2
				c0.2-0.8-0.3-1.5-1-1.7c-0.8-0.2-1.5,0.3-1.7,1c-0.2,0.6-0.2,1.2-0.2,1.9v3.1h-12.4c-0.6-1.7-2.2-3-4.2-3c-2.4,0-4.4,2-4.4,4.4
				c0,2.4,2,4.4,4.4,4.4c1.9,0,3.6-1.3,4.2-3h12.4v3.2h-6.1c-0.8,0-1.4,0.6-1.4,1.4s0.6,1.4,1.4,1.4h6.1v3.2h-22.6
				c-0.8,0-1.4,0.6-1.4,1.4s0.6,1.4,1.4,1.4h22.6v3.2h-6.1c-0.8,0-1.4,0.6-1.4,1.4c0,0.8,0.6,1.4,1.4,1.4h6.1v3.2h-4.2
				c-1.6,0-3.1,0.6-4.2,1.7l-9.2,9.2c-0.6-0.3-1.3-0.5-2-0.5c-1.2,0-2.3,0.5-3.1,1.3c-0.8,0.8-1.3,1.9-1.3,3.1
				c0,1.2,0.5,2.3,1.3,3.1c0.8,0.8,1.9,1.3,3.1,1.3s2.3-0.5,3.1-1.3c0.8-0.8,1.3-1.9,1.3-3.1c0-0.7-0.2-1.4-0.5-2l9.2-9.2
				c0.6-0.6,1.4-0.9,2.2-0.9h4.2v3.1c0,4.1,3.3,7.4,7.4,7.4h3.1v12.4c-1.7,0.6-3,2.2-3,4.2c0,2.4,2,4.4,4.4,4.4c2.4,0,4.4-2,4.4-4.4
				c0-1.9-1.3-3.6-3-4.2v-12.4h3.2v6.1c0,0.8,0.6,1.4,1.4,1.4s1.4-0.6,1.4-1.4v-6.1h3.2v22.6c0,0.8,0.6,1.4,1.4,1.4s1.4-0.6,1.4-1.4
				v-22.6h3.2v6.1c0,0.8,0.6,1.4,1.4,1.4s1.4-0.6,1.4-1.4v-6.1h3.2v4.2c0,1.6,0.6,3.1,1.7,4.2l9.3,9.3c-0.8,1.7-0.5,3.7,0.8,5.1
				c0.9,0.9,2,1.3,3.1,1.3s2.3-0.4,3.1-1.3C-192.4,333.7-192.4,330.9-194.1,329.2z M-263.4,278.3c-0.9,0-1.6-0.7-1.6-1.6
				c0-0.9,0.7-1.6,1.6-1.6c0.9,0,1.6,0.7,1.6,1.6C-261.8,277.6-262.5,278.3-263.4,278.3z M-265.3,315.4c-0.3,0.3-0.7,0.5-1.1,0.5
				s-0.8-0.2-1.1-0.5c-0.3-0.3-0.5-0.7-0.5-1.1s0.2-0.8,0.5-1.1c0.3-0.3,0.7-0.5,1.1-0.5s0.8,0.2,1.1,0.5c0.3,0.3,0.5,0.7,0.5,1.1
				S-265,315.1-265.3,315.4z M-233.2,329.3c0,0.9-0.7,1.6-1.6,1.6c-0.9,0-1.6-0.7-1.6-1.6c0-0.9,0.7-1.6,1.6-1.6
				C-233.9,327.7-233.2,328.4-233.2,329.3z M-196.1,333.4c-0.6,0.6-1.6,0.6-2.3,0c-0.6-0.6-0.6-1.6,0-2.3c0.3-0.3,0.7-0.5,1.1-0.5
				c0.4,0,0.8,0.2,1.1,0.5C-195.5,331.8-195.5,332.8-196.1,333.4z"/>
		</g>
	</g>
	<g>
		<g>
			<path class="st2" d="M-207.9,284.9c0-3-2.2-5.6-5.2-6.4c0.1-0.4,0.1-0.7,0.1-1.1c0-2.8-2.5-5.2-5.6-5.2c-1.7,0-3.2,0.7-4.2,1.8
				c-1-1.1-2.5-1.8-4.2-1.8c-3.1,0-5.6,2.3-5.6,5.2c0,0.4,0,0.8,0.1,1.1c-3,0.8-5.2,3.4-5.2,6.4c0,1.5,0.5,2.9,1.5,4
				c-0.9,1.2-1.5,2.7-1.5,4.3c0,2.4,1.3,4.6,3.4,6c0,0,0,0,0,0c0,3.3,2.9,5.9,6.5,5.9c2.1,0,3.9-0.9,5.1-2.2c1.2,1.4,3,2.2,5.1,2.2
				c3.4,0,6.3-2.5,6.5-5.6c2.1-1.2,3.4-3.3,3.4-5.6c0-1.7-0.7-3.3-2-4.5C-208.6,288.2-207.9,286.6-207.9,284.9z M-212.8,290.7
				c1.4,0.7,2.2,1.9,2.2,3.3c0,1-0.5,1.9-1.2,2.6c-0.7-1.4-2-2.5-3.7-3c-0.7-0.2-1.5,0.2-1.8,0.9c-0.2,0.7,0.2,1.5,0.9,1.8
				c1.4,0.5,2.4,1.6,2.4,2.9c0,1.7-1.6,3.1-3.7,3.1c-2,0-3.7-1.4-3.7-3.1v-9c0-1.7,1.6-3.1,3.7-3.1c0.8,0,1.4-0.6,1.4-1.4
				s-0.6-1.4-1.4-1.4c-1.4,0-2.6,0.4-3.7,1v-1.8c0-0.8-0.6-1.4-1.4-1.4s-1.4,0.6-1.4,1.4v7.8c-0.5-0.3-1-0.5-1.6-0.7
				c-0.7-0.2-1.5,0.2-1.8,0.9c-0.2,0.7,0.2,1.5,0.9,1.8c1.4,0.5,2.4,1.6,2.4,2.9v3c0,1.7-1.6,3.1-3.7,3.1c-2,0-3.7-1.4-3.7-3.1
				c0-0.7,0.3-1.4,0.9-2c0.6-0.5,0.6-1.4,0-2s-1.4-0.6-2,0c-0.3,0.3-0.6,0.7-0.9,1.1c-0.9-0.8-1.4-1.9-1.4-3.1c0-2.1,1.6-3.9,4-4.5
				c0.8-0.2,1.2-0.9,1.1-1.7c-0.2-0.8-0.9-1.2-1.7-1.1c-0.9,0.2-1.8,0.6-2.6,1.1c-0.5-0.6-0.8-1.4-0.8-2.1c0-2.1,2-3.8,4.5-3.9
				c0,0,0,0,0,0c0.3,0,0.6-0.1,0.9-0.3c0.5-0.5,0.6-1.2,0.3-1.8c0,0,0,0,0-0.1c0,0,0,0,0,0c0,0,0-0.1-0.1-0.1c0,0,0,0,0,0
				c-0.2-0.3-0.5-0.7-0.5-1.3c0-1.3,1.3-2.4,2.8-2.4c1.6,0,2.8,1.1,2.8,2.4c0,0.8,0.6,1.4,1.4,1.4s1.4-0.6,1.4-1.4
				c0-1.3,1.3-2.4,2.8-2.4s2.8,1.1,2.8,2.4c0,0.3-0.1,0.6-0.2,0.9c-0.8,0.1-1.6,0.3-2.3,0.6c-0.7,0.3-1.1,1.1-0.7,1.8
				c0.3,0.7,1.1,1.1,1.8,0.7c0.6-0.3,1.3-0.4,1.9-0.4c0,0,0,0,0,0c0,0,0,0,0,0c2.5,0,4.5,1.7,4.5,3.9c0,1.3-0.8,2.6-2.2,3.3
				c-0.5,0.2-0.8,0.7-0.8,1.2C-213.6,290-213.3,290.5-212.8,290.7z"/>
		</g>
	</g>
</g>
</svg>
