<?xml version="1.0" encoding="utf-8"?>
<!-- Generator: Adobe Illustrator 19.0.0, SVG Export Plug-In . SVG Version: 6.00 Build 0)  -->
<svg version="1.1" id="Layer_1" xmlns="http://www.w3.org/2000/svg" xmlns:xlink="http://www.w3.org/1999/xlink" x="0px" y="0px"
	 viewBox="-351 186.4 256.4 188.6" style="enable-background:new -351 186.4 256.4 188.6;" xml:space="preserve">
<style type="text/css">
	.st0{opacity:0.19;fill:#9E8B8A;enable-background:new    ;}
	.st1{fill:#FFFFFF;}
	.st2{fill:#C7B299;}
</style>
<path id="XMLID_40_" class="st0" d="M-114.9,375h-215.8c-11.2,0-20.3-9.1-20.3-20.3v-148c0-11.2,9.1-20.3,20.3-20.3h215.8
	c11.2,0,20.3,9.1,20.3,20.3v148C-94.6,365.9-103.7,375-114.9,375z"/>
<g>
	<path class="st1" d="M-289.1,215.4v-14.6h8.9v2.4h-6.3v3.6h5.8v2.4h-5.8v6.1H-289.1z"/>
	<path class="st1" d="M-275.5,215.4h-2.6v-14.6h2.6V215.4z"/>
	<path class="st1" d="M-266.8,209.8h-2.8v5.6h-2.6v-14.6h7.6c0.3,0,0.6,0.1,0.9,0.2c0.3,0.1,0.5,0.3,0.8,0.5
		c0.2,0.2,0.4,0.5,0.5,0.8c0.1,0.3,0.2,0.6,0.2,0.9v4.1c0,0.6-0.2,1.1-0.5,1.5c-0.3,0.4-0.8,0.7-1.3,0.8l2.8,5.7h-2.9L-266.8,209.8z
		 M-264.8,203.8c0-0.2-0.1-0.3-0.2-0.4c-0.1-0.1-0.3-0.2-0.4-0.2h-4.2v4.1h4.2c0.2,0,0.3-0.1,0.4-0.2c0.1-0.1,0.2-0.2,0.2-0.4V203.8
		z"/>
	<path class="st1" d="M-258.8,200.8h8.8v2.4h-6.2v3.6h5.7v2.4h-5.7v3.7h6.2v2.4h-8.8V200.8z"/>
	<path class="st1" d="M-240,206.2c0,0.2,0,0.3,0.1,0.4c0.1,0.1,0.2,0.2,0.4,0.2h8.8v2.3h-2.8v4.1c0,0.3-0.1,0.6-0.2,0.9
		c-0.1,0.3-0.3,0.5-0.5,0.7s-0.4,0.4-0.7,0.5s-0.6,0.2-0.9,0.2h-4.6c-0.3,0-0.6-0.1-0.9-0.2s-0.5-0.3-0.7-0.5s-0.4-0.5-0.5-0.7
		c-0.1-0.3-0.2-0.6-0.2-0.9v-3.7c0-0.4,0.1-0.8,0.3-1s0.4-0.4,0.7-0.6c-0.2-0.1-0.5-0.3-0.6-0.6c-0.2-0.2-0.3-0.5-0.3-0.9v-3.2
		c0-0.3,0.1-0.6,0.2-0.9s0.3-0.5,0.5-0.7s0.4-0.4,0.7-0.5c0.3-0.1,0.6-0.2,0.9-0.2h3c0.3,0,0.6,0.1,0.9,0.2c0.3,0.1,0.5,0.3,0.7,0.5
		c0.2,0.2,0.4,0.4,0.5,0.7c0.1,0.3,0.2,0.6,0.2,0.9v1.1l-2.5,0.4v-0.9c0-0.2-0.1-0.3-0.2-0.4c-0.1-0.1-0.3-0.2-0.4-0.2h-1.4
		c-0.2,0-0.3,0.1-0.4,0.2c-0.1,0.1-0.2,0.2-0.2,0.4V206.2z M-240.1,212.5c0,0.2,0.1,0.3,0.2,0.4c0.1,0.1,0.3,0.2,0.4,0.2h3
		c0.2,0,0.3-0.1,0.4-0.2c0.1-0.1,0.2-0.2,0.2-0.4V209h-3.5c-0.2,0-0.3,0.1-0.5,0.2s-0.2,0.2-0.2,0.4V212.5z"/>
	<path class="st1" d="M-218.5,209.7c-0.4-0.1-0.8-0.2-1.1-0.3c-0.3-0.1-0.6-0.2-0.9-0.3c-0.3-0.1-0.6-0.2-0.9-0.3
		c-0.3-0.1-0.7-0.2-1.1-0.3c-0.3-0.1-0.6-0.2-0.9-0.4s-0.5-0.3-0.7-0.5c-0.2-0.2-0.4-0.4-0.5-0.7c-0.1-0.2-0.2-0.5-0.2-0.9v-3
		c0-0.3,0.1-0.6,0.2-0.9c0.1-0.3,0.3-0.5,0.5-0.8c0.2-0.2,0.5-0.4,0.8-0.5c0.3-0.1,0.6-0.2,0.9-0.2h4.6c0.3,0,0.6,0.1,0.9,0.2
		c0.3,0.1,0.5,0.3,0.8,0.5c0.2,0.2,0.4,0.5,0.5,0.8c0.1,0.3,0.2,0.6,0.2,0.9v1.7l-2.6,0.4v-1.6c0-0.2-0.1-0.3-0.2-0.4
		c-0.1-0.1-0.3-0.2-0.4-0.2h-3c-0.2,0-0.3,0.1-0.4,0.2c-0.1,0.1-0.2,0.2-0.2,0.4v1.8c0,0.2,0.1,0.3,0.2,0.4c0.1,0.1,0.3,0.2,0.4,0.2
		c0.6,0.2,1.3,0.4,1.9,0.5c0.6,0.2,1.3,0.4,2.1,0.6c0.6,0.2,1.2,0.4,1.6,0.8c0.4,0.4,0.7,0.9,0.7,1.6v3.3c0,0.3-0.1,0.6-0.2,0.9
		c-0.1,0.3-0.3,0.5-0.5,0.8c-0.2,0.2-0.5,0.4-0.8,0.5c-0.3,0.1-0.6,0.2-0.9,0.2h-4.7c-0.3,0-0.6-0.1-0.9-0.2
		c-0.3-0.1-0.5-0.3-0.8-0.5s-0.4-0.5-0.5-0.8c-0.1-0.3-0.2-0.6-0.2-0.9v-1.7l2.6-0.4v1.5c0,0.2,0.1,0.3,0.2,0.4
		c0.1,0.1,0.3,0.2,0.4,0.2h3.1c0.2,0,0.3-0.1,0.4-0.2c0.1-0.1,0.2-0.2,0.2-0.4v-2.1c0-0.2-0.1-0.3-0.2-0.4S-218.3,209.8-218.5,209.7
		z"/>
	<path class="st1" d="M-201.3,215.4h-2.6l-1-3.2h-4.9l-1,3.2h-2.6l4.9-14.6h2.4L-201.3,215.4z M-209.1,209.9h3.4l-1.7-5.6
		L-209.1,209.9z"/>
	<path class="st1" d="M-199.3,215.4v-14.6h8.9v2.4h-6.3v3.6h5.8v2.4h-5.8v6.1H-199.3z"/>
	<path class="st1" d="M-188.3,200.8h8.8v2.4h-6.2v3.6h5.7v2.4h-5.7v3.7h6.2v2.4h-8.8V200.8z"/>
	<path class="st1" d="M-177.8,200.8h10.5v2.4h-4v12.2h-2.6v-12.2h-4V200.8z"/>
	<path class="st1" d="M-160.5,206.6l2.9-5.8h2.8l-4.3,8.7v5.9h-2.6v-5.9l-4.3-8.7h2.8L-160.5,206.6z"/>
</g>
<g>
	<path class="st2" d="M-199.7,265.7h2.6v2.6h-2.6V265.7z"/>
	<path class="st2" d="M-199.7,270.8h2.6v2.6h-2.6V270.8z"/>
	<path class="st2" d="M-199.7,256.8h2.6v6.3h-2.6V256.8z"/>
	<path class="st2" d="M-208,276.1h2.6v2.6h-2.6V276.1z"/>
	<path class="st2" d="M-208,262h2.6v6.3h-2.6V262z"/>
	<path class="st2" d="M-208,270.9h2.6v2.6h-2.6V270.9z"/>
	<path class="st2" d="M-216.3,286.3h2.6v2.6h-2.6V286.3z"/>
	<path class="st2" d="M-216.3,281.2h2.6v2.6h-2.6V281.2z"/>
	<path class="st2" d="M-216.3,267.2h2.6v6.3h-2.6V267.2z"/>
	<path class="st2" d="M-216.3,276.1h2.6v2.6h-2.6V276.1z"/>
	<path class="st2" d="M-191.5,265.7h2.6v6.3h-2.6V265.7z"/>
	<path class="st2" d="M-191.5,274.6h2.6v2.6h-2.6V274.6z"/>
	<path class="st2" d="M-238.4,272.5v2.6c3.1,0,5.6,2.5,5.6,5.5l2.6,0C-230.3,276.1-233.9,272.5-238.4,272.5z"/>
	<path class="st2" d="M-233.4,318.8h2.6v2.6h-2.6V318.8z"/>
	<path class="st2" d="M-246.2,318.8h10.3v2.6h-10.3V318.8z"/>
	<path class="st2" d="M-179.1,260.2c0-6.4-5.2-11.5-11.5-11.5h-64.4c-6.4,0-11.5,5.2-11.5,11.5v64.4c0,6.4,5.2,11.5,11.5,11.5h64.4
		c6.4,0,11.6-5.2,11.6-11.5L-179.1,260.2z M-190.6,333.7h-64.4c-4.9,0-9-4-9-9v-64.4c0-4.9,4-9,9-9h64.4c4.9,0,9,4,9,9l0.1,64.4
		C-181.6,329.6-185.6,333.7-190.6,333.7z"/>
	<path class="st2" d="M-233.7,268.2v-1.5h5.1v-7h-5.1v-1.9h-9.4v1.9h-8.3l-10,10l0.9,0.9c1.1,1.1,2.6,1.7,4,1.7c1.5,0,2.9-0.6,4-1.7
		l3.9-3.9h5.4v1.5c-5,1.9-8.5,6.7-8.5,12.4v41.2c0,3.5,2.9,6.4,6.4,6.4h13.7c3.5,0,6.4-2.9,6.4-6.4v-41.2
		C-225.2,274.9-228.7,270.1-233.7,268.2z M-233.7,262.2h2.6v1.9h-2.6V262.2z M-240.5,266.6v-6.3h4.3v7.2c-0.7-0.1-1.4-0.2-2.1-0.2
		c-0.7,0-1.4,0.1-2.1,0.2V266.6z M-249.6,264.1l-4.6,4.6c-0.9,0.9-2.2,1.1-3.4,0.7l7.2-7.2h7.3v1.9H-249.6z M-227.7,321.8
		c0,2.1-1.7,3.8-3.8,3.8h-13.7c-2.1,0-3.8-1.7-3.8-3.8v-41.2c0-5.9,4.8-10.7,10.7-10.7c5.9,0,10.7,4.8,10.7,10.7V321.8z"/>
	<path class="st2" d="M-246.5,307h16.2v-23.6h-16.2V307z M-244,286h11.1v18.5H-244V286z"/>
	<path class="st2" d="M-239.7,288.7h2.6v2.6h-2.6V288.7z"/>
	<path class="st2" d="M-239.7,293.8h2.6v2.6h-2.6V293.8z"/>
	<path class="st2" d="M-239.7,299h2.6v2.6h-2.6V299z"/>
	<path class="st2" d="M-193.4,301.1c-2.3-1.9-4.5-3.6-4.5-5.2c0-2.6,1.7-4.1,1.8-4.1l2.3-1.8l-2.9-0.5c-0.3-0.1-7.3-1.2-10.9,2.4
		c-4.1,4.1-2.3,8.7-1.1,11.7c0.5,1.1,0.9,2.2,0.9,2.9c0,1.4-1.2,2.6-2.6,2.6c-2.3,0-2.6-2.2-2.6-2.7l-0.1-2.6l-2,1.6
		c-0.1,0.1-3.3,2.8-3.3,8.2c0,9.2,7.5,16.7,16.7,16.7c9.2,0,16.7-7.5,16.7-16.7C-185.1,307.9-189.7,304.1-193.4,301.1z
		 M-201.8,327.8c-7.8,0-14.1-6.3-14.1-14.1c0-1.9,0.5-3.4,1.1-4.4c0.7,1.3,2.1,2.5,4.4,2.5c2.9,0,5.2-2.3,5.2-5.2
		c0-1.2-0.5-2.5-1.1-3.8c-1.2-3-2.4-6,0.5-8.9c1.6-1.6,4.4-1.9,6.4-1.9c-0.6,1-1,2.4-1,4c0,2.7,2.5,4.8,5.4,7.2
		c3.4,2.8,7.3,6,7.3,10.6C-187.7,321.5-194,327.8-201.8,327.8z"/>
	<path class="st2" d="M-204.8,324.9c0.9,0.3,1.9,0.4,2.8,0.4l0-2.6c-0.8,0-1.5-0.1-2.2-0.3L-204.8,324.9z"/>
	<path class="st2" d="M-210.7,315.3l-2.5,0.4c0.6,3.4,2.7,6.3,5.7,8.1l1.3-2.2C-208.6,320.2-210.2,317.9-210.7,315.3z"/>
</g>
</svg>
