<?xml version="1.0" encoding="utf-8"?>
<!-- Generator: Adobe Illustrator 19.0.0, SVG Export Plug-In . SVG Version: 6.00 Build 0)  -->
<svg version="1.1" id="Layer_1" xmlns="http://www.w3.org/2000/svg" xmlns:xlink="http://www.w3.org/1999/xlink" x="0px" y="0px"
	 viewBox="-351 186.4 256.4 188.6" style="enable-background:new -351 186.4 256.4 188.6;" xml:space="preserve">
<style type="text/css">
	.st0{opacity:0.19;fill:#9E8B8A;enable-background:new    ;}
	.st1{fill:#FFFFFF;}
	.st2{fill:#C7B299;}
</style>
<path id="XMLID_40_" class="st0" d="M-114.9,375h-215.8c-11.2,0-20.3-9.1-20.3-20.3v-148c0-11.2,9.1-20.3,20.3-20.3h215.8
	c11.2,0,20.3,9.1,20.3,20.3v148C-94.6,365.9-103.7,375-114.9,375z"/>
<g>
	<path class="st1" d="M-283.1,215.4h-2.6v-14.6h2.6V215.4z"/>
	<path class="st1" d="M-269.3,215.4h-2.5l-5.6-9.4v9.4h-2.5v-14.6h2.5l5.6,9.5v-9.5h2.5V215.4z"/>
	<path class="st1" d="M-266,215.4v-14.6h8.9v2.4h-6.3v3.6h5.8v2.4h-5.8v6.1H-266z"/>
	<path class="st1" d="M-253.7,215.2c-0.3-0.1-0.5-0.3-0.8-0.5c-0.2-0.2-0.4-0.5-0.5-0.8c-0.1-0.3-0.2-0.6-0.2-0.9v-9.8
		c0-0.3,0.1-0.6,0.2-0.9c0.1-0.3,0.3-0.5,0.5-0.8c0.2-0.2,0.5-0.4,0.8-0.5c0.3-0.1,0.6-0.2,0.9-0.2h5.1c0.3,0,0.6,0.1,0.9,0.2
		c0.3,0.1,0.5,0.3,0.8,0.5c0.2,0.2,0.4,0.5,0.5,0.8c0.1,0.3,0.2,0.6,0.2,0.9v9.8c0,0.3-0.1,0.6-0.2,0.9c-0.1,0.3-0.3,0.5-0.5,0.8
		s-0.5,0.4-0.8,0.5c-0.3,0.1-0.6,0.2-0.9,0.2h-5.1C-253.1,215.4-253.4,215.3-253.7,215.2z M-247.8,203.8c0-0.2-0.1-0.3-0.2-0.4
		c-0.1-0.1-0.3-0.2-0.4-0.2h-3.5c-0.2,0-0.3,0.1-0.4,0.2c-0.1,0.1-0.2,0.2-0.2,0.4v8.6c0,0.2,0.1,0.3,0.2,0.4
		c0.1,0.1,0.3,0.2,0.4,0.2h3.5c0.2,0,0.3-0.1,0.4-0.2c0.1-0.1,0.2-0.2,0.2-0.4V203.8z"/>
	<path class="st1" d="M-236.7,209.8h-2.8v5.6h-2.6v-14.6h7.6c0.3,0,0.6,0.1,0.9,0.2c0.3,0.1,0.5,0.3,0.8,0.5
		c0.2,0.2,0.4,0.5,0.5,0.8c0.1,0.3,0.2,0.6,0.2,0.9v4.1c0,0.6-0.2,1.1-0.5,1.5c-0.3,0.4-0.8,0.7-1.3,0.8l2.8,5.7h-2.9L-236.7,209.8z
		 M-234.6,203.8c0-0.2-0.1-0.3-0.2-0.4c-0.1-0.1-0.3-0.2-0.4-0.2h-4.2v4.1h4.2c0.2,0,0.3-0.1,0.4-0.2c0.1-0.1,0.2-0.2,0.2-0.4V203.8
		z"/>
	<path class="st1" d="M-226.1,206.7v8.7h-2.5v-14.6h2.5l3.9,8.9l3.9-8.9h2.5v14.6h-2.5l0-8.7l-2.8,6.2h-2.2L-226.1,206.7z"/>
	<path class="st1" d="M-201.4,215.4h-2.6l-1-3.2h-4.9l-1,3.2h-2.6l4.9-14.6h2.4L-201.4,215.4z M-209.3,209.9h3.4l-1.7-5.6
		L-209.3,209.9z"/>
	<path class="st1" d="M-201.9,200.8h10.5v2.4h-4v12.2h-2.6v-12.2h-4V200.8z"/>
	<path class="st1" d="M-186.7,215.4h-2.6v-14.6h2.6V215.4z"/>
	<path class="st1" d="M-182.1,215.2c-0.3-0.1-0.5-0.3-0.8-0.5c-0.2-0.2-0.4-0.5-0.5-0.8c-0.1-0.3-0.2-0.6-0.2-0.9v-9.8
		c0-0.3,0.1-0.6,0.2-0.9c0.1-0.3,0.3-0.5,0.5-0.8c0.2-0.2,0.5-0.4,0.8-0.5c0.3-0.1,0.6-0.2,0.9-0.2h5.1c0.3,0,0.6,0.1,0.9,0.2
		c0.3,0.1,0.5,0.3,0.8,0.5c0.2,0.2,0.4,0.5,0.5,0.8c0.1,0.3,0.2,0.6,0.2,0.9v9.8c0,0.3-0.1,0.6-0.2,0.9c-0.1,0.3-0.3,0.5-0.5,0.8
		s-0.5,0.4-0.8,0.5c-0.3,0.1-0.6,0.2-0.9,0.2h-5.1C-181.5,215.4-181.8,215.3-182.1,215.2z M-176.2,203.8c0-0.2-0.1-0.3-0.2-0.4
		c-0.1-0.1-0.3-0.2-0.4-0.2h-3.5c-0.2,0-0.3,0.1-0.4,0.2c-0.1,0.1-0.2,0.2-0.2,0.4v8.6c0,0.2,0.1,0.3,0.2,0.4
		c0.1,0.1,0.3,0.2,0.4,0.2h3.5c0.2,0,0.3-0.1,0.4-0.2c0.1-0.1,0.2-0.2,0.2-0.4V203.8z"/>
	<path class="st1" d="M-159.8,215.4h-2.5l-5.6-9.4v9.4h-2.5v-14.6h2.5l5.6,9.5v-9.5h2.5V215.4z"/>
	<path class="st1" d="M-284,227.1h10.5v2.4h-4v12.2h-2.6v-12.2h-4V227.1z"/>
	<path class="st1" d="M-271.4,227.1h8.8v2.4h-6.2v3.6h5.7v2.4h-5.7v3.7h6.2v2.4h-8.8V227.1z"/>
	<path class="st1" d="M-252.8,236.6l2.6,0.4v2.2c0,0.3-0.1,0.6-0.2,0.9c-0.1,0.3-0.3,0.5-0.5,0.8s-0.5,0.4-0.8,0.5
		c-0.3,0.1-0.6,0.2-0.9,0.2h-4.9c-0.3,0-0.6-0.1-0.9-0.2c-0.3-0.1-0.5-0.3-0.8-0.5c-0.2-0.2-0.4-0.5-0.5-0.8
		c-0.1-0.3-0.2-0.6-0.2-0.9v-9.8c0-0.3,0.1-0.6,0.2-0.9c0.1-0.3,0.3-0.5,0.5-0.8c0.2-0.2,0.5-0.4,0.8-0.5c0.3-0.1,0.6-0.2,0.9-0.2
		h4.9c0.3,0,0.6,0.1,0.9,0.2c0.3,0.1,0.5,0.3,0.8,0.5c0.2,0.2,0.4,0.5,0.5,0.8c0.1,0.3,0.2,0.6,0.2,0.9v2.1l-2.6,0.4v-1.9
		c0-0.2-0.1-0.3-0.2-0.4c-0.1-0.1-0.3-0.2-0.4-0.2h-3.3c-0.2,0-0.3,0.1-0.4,0.2c-0.1,0.1-0.2,0.2-0.2,0.4v8.6c0,0.2,0.1,0.3,0.2,0.4
		c0.1,0.1,0.3,0.2,0.4,0.2h3.3c0.2,0,0.3-0.1,0.4-0.2c0.1-0.1,0.2-0.2,0.2-0.4V236.6z"/>
	<path class="st1" d="M-239.5,235.4h-4.9v6.2h-2.6v-14.6h2.6v5.9h4.9v-5.9h2.6v14.6h-2.6V235.4z"/>
	<path class="st1" d="M-223,241.6h-2.5l-5.6-9.4v9.4h-2.5v-14.6h2.5l5.6,9.5v-9.5h2.5V241.6z"/>
	<path class="st1" d="M-218.4,241.5c-0.3-0.1-0.5-0.3-0.8-0.5c-0.2-0.2-0.4-0.5-0.5-0.8c-0.1-0.3-0.2-0.6-0.2-0.9v-9.8
		c0-0.3,0.1-0.6,0.2-0.9c0.1-0.3,0.3-0.5,0.5-0.8c0.2-0.2,0.5-0.4,0.8-0.5c0.3-0.1,0.6-0.2,0.9-0.2h5.1c0.3,0,0.6,0.1,0.9,0.2
		c0.3,0.1,0.5,0.3,0.8,0.5c0.2,0.2,0.4,0.5,0.5,0.8c0.1,0.3,0.2,0.6,0.2,0.9v9.8c0,0.3-0.1,0.6-0.2,0.9c-0.1,0.3-0.3,0.5-0.5,0.8
		s-0.5,0.4-0.8,0.5c-0.3,0.1-0.6,0.2-0.9,0.2h-5.1C-217.8,241.6-218.1,241.6-218.4,241.5z M-212.5,230.1c0-0.2-0.1-0.3-0.2-0.4
		c-0.1-0.1-0.3-0.2-0.4-0.2h-3.5c-0.2,0-0.3,0.1-0.4,0.2c-0.1,0.1-0.2,0.2-0.2,0.4v8.6c0,0.2,0.1,0.3,0.2,0.4
		c0.1,0.1,0.3,0.2,0.4,0.2h3.5c0.2,0,0.3-0.1,0.4-0.2c0.1-0.1,0.2-0.2,0.2-0.4V230.1z"/>
	<path class="st1" d="M-206.7,227.1h2.6v12.2h5.9v2.4h-8.6V227.1z"/>
	<path class="st1" d="M-194.7,241.5c-0.3-0.1-0.5-0.3-0.8-0.5c-0.2-0.2-0.4-0.5-0.5-0.8c-0.1-0.3-0.2-0.6-0.2-0.9v-9.8
		c0-0.3,0.1-0.6,0.2-0.9c0.1-0.3,0.3-0.5,0.5-0.8c0.2-0.2,0.5-0.4,0.8-0.5c0.3-0.1,0.6-0.2,0.9-0.2h5.1c0.3,0,0.6,0.1,0.9,0.2
		c0.3,0.1,0.5,0.3,0.8,0.5c0.2,0.2,0.4,0.5,0.5,0.8c0.1,0.3,0.2,0.6,0.2,0.9v9.8c0,0.3-0.1,0.6-0.2,0.9c-0.1,0.3-0.3,0.5-0.5,0.8
		s-0.5,0.4-0.8,0.5c-0.3,0.1-0.6,0.2-0.9,0.2h-5.1C-194,241.6-194.4,241.6-194.7,241.5z M-188.8,230.1c0-0.2-0.1-0.3-0.2-0.4
		c-0.1-0.1-0.3-0.2-0.4-0.2h-3.5c-0.2,0-0.3,0.1-0.4,0.2c-0.1,0.1-0.2,0.2-0.2,0.4v8.6c0,0.2,0.1,0.3,0.2,0.4
		c0.1,0.1,0.3,0.2,0.4,0.2h3.5c0.2,0,0.3-0.1,0.4-0.2c0.1-0.1,0.2-0.2,0.2-0.4V230.1z"/>
	<path class="st1" d="M-178.6,233.9h5.2v5.3c0,0.3-0.1,0.6-0.2,0.9c-0.1,0.3-0.3,0.5-0.5,0.8c-0.2,0.2-0.5,0.4-0.8,0.5
		c-0.3,0.1-0.6,0.2-0.9,0.2h-4.9c-0.3,0-0.6-0.1-0.9-0.2c-0.3-0.1-0.5-0.3-0.8-0.5c-0.2-0.2-0.4-0.5-0.5-0.8
		c-0.1-0.3-0.2-0.6-0.2-0.9v-9.8c0-0.3,0.1-0.6,0.2-0.9c0.1-0.3,0.3-0.5,0.5-0.8c0.2-0.2,0.5-0.4,0.8-0.5c0.3-0.1,0.6-0.2,0.9-0.2
		h4.9c0.3,0,0.6,0.1,0.9,0.2c0.3,0.1,0.5,0.3,0.8,0.5c0.2,0.2,0.4,0.5,0.5,0.8c0.1,0.3,0.2,0.6,0.2,0.9v1.6l-2.6,0.4v-1.5
		c0-0.2-0.1-0.3-0.2-0.4c-0.1-0.1-0.3-0.2-0.4-0.2h-3.3c-0.2,0-0.3,0.1-0.4,0.2c-0.1,0.1-0.2,0.2-0.2,0.4v8.6c0,0.2,0.1,0.3,0.2,0.4
		c0.1,0.1,0.3,0.2,0.4,0.2h3.3c0.2,0,0.3-0.1,0.4-0.2c0.1-0.1,0.2-0.2,0.2-0.4v-2.4h-2.5V233.9z"/>
	<path class="st1" d="M-166.8,232.9l2.9-5.8h2.8l-4.3,8.7v5.9h-2.6v-5.9l-4.3-8.7h2.8L-166.8,232.9z"/>
</g>
<g>
	<g>
		<g>
			<path class="st2" d="M-257.9,290.5h11.7c0,4.5-1.6,6.2-2.2,6.7h-2.8v3.3h23.4v-3.3h-2.8c-0.6-0.5-2.2-2.2-2.2-6.7h11.7
				c2.8,0,5-2.2,5-5v-10h23.4v11l-3.8-3.8l-2.4,2.4l6.7,6.7c0.7,0.6,1.7,0.6,2.4,0l6.7-6.7l-2.4-2.4l-3.8,3.8v-12.7
				c0-0.9-0.7-1.7-1.7-1.7h-25.1v-6.7c0-2.8-2.2-5-5-5h-36.8c-2.8,0-5,2.2-5,5v20.1C-263,288.3-260.7,290.5-257.9,290.5z
				 M-244.3,297.2c1-2.1,1.5-4.4,1.4-6.7h6.7c-0.1,2.3,0.4,4.6,1.4,6.7H-244.3L-244.3,297.2z M-259.6,265.4c0-0.9,0.7-1.7,1.7-1.7
				h36.8c0.9,0,1.7,0.7,1.7,1.7v20.1c0,0.9-0.7,1.7-1.7,1.7h-36.8c-0.9,0-1.7-0.7-1.7-1.7V265.4z"/>
			<path class="st2" d="M-187.7,317.3c0-2.8-2.2-5-5-5v-15.1c0-0.9-0.7-1.7-1.7-1.7h-20.1c-0.9,0-1.7,0.7-1.7,1.7v8.4h-3.3
				c-0.9,0-1.7,0.7-1.7,1.7v18.4h-31.8v-11l3.8,3.8l2.4-2.4l-6.7-6.7c-0.7-0.6-1.7-0.6-2.4,0l-6.7,6.7l2.4,2.4l3.8-3.8v12.7
				c0,0.9,0.7,1.7,1.7,1.7h33.5v1.7c0,2.8,2.2,5,5,5c0,2.8,2.2,5,5,5h23.4c2.8,0,5-2.2,5-5v-13.4
				C-182.6,319.5-184.9,317.3-187.7,317.3z M-212.8,298.9h16.7v13.4h-9l-2.9-5.8c-0.3-0.6-0.9-0.9-1.5-0.9h-3.3V298.9z
				 M-216.1,332.4c-0.9,0-1.7-0.7-1.7-1.7v-21.8h7.3l2.9,5.8c0.3,0.6,0.9,0.9,1.5,0.9h13.4c0.9,0,1.7,0.7,1.7,1.7v13.4
				c0,0.9-0.7,1.7-1.7,1.7H-216.1z M-186,335.7c0,0.9-0.7,1.7-1.7,1.7h-23.4c-0.9,0-1.7-0.7-1.7-1.7h20.1c2.8,0,5-2.2,5-5v-10
				c0.9,0,1.7,0.7,1.7,1.7V335.7z"/>
			<path class="st2" d="M-202.7,323.3l-4.7-4.7c-0.7-0.6-1.7-0.6-2.4,0l-5.9,5.9l2.4,2.4l4.7-4.7l4.7,4.7c0.7,0.6,1.7,0.6,2.4,0
				l7.5-7.5l-2.4-2.4L-202.7,323.3z"/>
			<rect x="-204.4" y="300.6" class="st2" width="6.7" height="3.3"/>
			<rect x="-204.4" y="305.6" class="st2" width="6.7" height="3.3"/>
			<path class="st2" d="M-224.5,272.1h3.3v-5c0-0.9-0.7-1.7-1.7-1.7h-5v3.3h3.3V272.1L-224.5,272.1z"/>
			<path class="st2" d="M-242.9,283.8h1.7v1.7h3.3v-1.7h1.7c1.8,0,3.3-1.5,3.3-3.3v-3.3c0-1.8-1.5-3.3-3.3-3.3h-6.7v-3.3h6.7v1.7
				h3.3v-1.7c0-1.8-1.5-3.3-3.3-3.3h-1.7v-1.7h-3.3v1.7h-1.7c-1.8,0-3.3,1.5-3.3,3.3v3.3c0,1.8,1.5,3.3,3.3,3.3h6.7v3.3h-6.7v-1.7
				h-3.3v1.7C-246.2,282.3-244.7,283.8-242.9,283.8z"/>
		</g>
	</g>
</g>
</svg>
