<?xml version="1.0" encoding="utf-8"?>
<!-- Generator: Adobe Illustrator 19.0.0, SVG Export Plug-In . SVG Version: 6.00 Build 0)  -->
<svg version="1.1" id="Layer_1" xmlns="http://www.w3.org/2000/svg" xmlns:xlink="http://www.w3.org/1999/xlink" x="0px" y="0px"
	 viewBox="-351 186.4 256.4 188.6" style="enable-background:new -351 186.4 256.4 188.6;" xml:space="preserve">
<style type="text/css">
	.st0{opacity:0.19;fill:#9E8B8A;enable-background:new    ;}
	.st1{fill:#FFFFFF;}
	.st2{fill:#C7B299;}
</style>
<path id="XMLID_40_" class="st0" d="M-114.9,375h-215.8c-11.2,0-20.3-9.1-20.3-20.3v-148c0-11.2,9.1-20.3,20.3-20.3h215.8
	c11.2,0,20.3,9.1,20.3,20.3v148C-94.6,365.9-103.7,375-114.9,375z"/>
<g>
	<path class="st1" d="M-277.3,209.6h2.5v6.4l4.3-6.4h2.9l-4.6,6.8l4.8,6.9h-2.9l-4.5-6.5v6.5h-2.5V209.6z"/>
	<path class="st1" d="M-265.8,209.6h8.3v2.3h-5.9v3.4h5.3v2.3h-5.3v3.5h5.9v2.3h-8.3V209.6z"/>
	<path class="st1" d="M-251,215.1l2.7-5.5h2.6l-4.1,8.2v5.5h-2.5v-5.5l-4.1-8.2h2.6L-251,215.1z"/>
	<path class="st1" d="M-240.4,218.5v-2.1h5.1v2.1H-240.4z"/>
	<path class="st1" d="M-228.4,209.6h8.3v2.3h-5.9v3.4h5.3v2.3h-5.3v3.5h5.9v2.3h-8.3V209.6z"/>
	<path class="st1" d="M-211.9,223.4h-2.4l-4.2-13.8h2.5l3,10l3-10h2.5L-211.9,223.4z"/>
	<path class="st1" d="M-205.7,209.6h8.3v2.3h-5.9v3.4h5.3v2.3h-5.3v3.5h5.9v2.3h-8.3V209.6z"/>
	<path class="st1" d="M-184.7,223.4h-2.4l-5.2-8.9v8.9h-2.4v-13.8h2.4l5.2,8.9v-8.9h2.4V223.4z"/>
	<path class="st1" d="M-182.7,209.6h10v2.3h-3.7v11.5h-2.5v-11.5h-3.7V209.6z"/>
	<path class="st1" d="M-165,218c-0.4-0.1-0.7-0.2-1-0.3s-0.6-0.2-0.8-0.2c-0.3-0.1-0.5-0.2-0.8-0.2s-0.6-0.2-1-0.3
		c-0.3-0.1-0.6-0.2-0.9-0.3s-0.5-0.3-0.7-0.5c-0.2-0.2-0.4-0.4-0.5-0.6c-0.1-0.2-0.2-0.5-0.2-0.8v-2.8c0-0.3,0.1-0.6,0.2-0.9
		c0.1-0.3,0.3-0.5,0.5-0.7c0.2-0.2,0.4-0.4,0.7-0.5c0.3-0.1,0.6-0.2,0.9-0.2h4.4c0.3,0,0.6,0.1,0.9,0.2c0.3,0.1,0.5,0.3,0.7,0.5
		s0.4,0.4,0.5,0.7c0.1,0.3,0.2,0.6,0.2,0.9v1.6l-2.5,0.4v-1.5c0-0.2-0.1-0.3-0.2-0.4c-0.1-0.1-0.2-0.2-0.4-0.2h-2.8
		c-0.2,0-0.3,0.1-0.4,0.2c-0.1,0.1-0.2,0.2-0.2,0.4v1.7c0,0.2,0.1,0.3,0.2,0.4c0.1,0.1,0.2,0.2,0.4,0.2c0.6,0.2,1.2,0.3,1.8,0.5
		s1.2,0.3,2,0.6c0.6,0.2,1.1,0.4,1.5,0.8c0.4,0.3,0.6,0.8,0.6,1.5v3.1c0,0.3-0.1,0.6-0.2,0.9c-0.1,0.3-0.3,0.5-0.5,0.7
		c-0.2,0.2-0.4,0.4-0.7,0.5c-0.3,0.1-0.6,0.2-0.9,0.2h-4.5c-0.3,0-0.6-0.1-0.9-0.2c-0.3-0.1-0.5-0.3-0.7-0.5
		c-0.2-0.2-0.4-0.4-0.5-0.7c-0.1-0.3-0.2-0.6-0.2-0.9v-1.6l2.5-0.4v1.4c0,0.2,0.1,0.3,0.2,0.4c0.1,0.1,0.2,0.2,0.4,0.2h2.9
		c0.2,0,0.3-0.1,0.4-0.2c0.1-0.1,0.2-0.2,0.2-0.4v-2c0-0.2-0.1-0.3-0.2-0.4S-164.8,218.1-165,218z"/>
</g>
<g>
	<path class="st2" d="M-245.6,282.9h-9.4c-0.9,0-1.6,0.7-1.6,1.6v9.4c0,0.9,0.7,1.6,1.6,1.6h9.4c0.9,0,1.6-0.7,1.6-1.6v-9.4
		C-244.1,283.6-244.8,282.9-245.6,282.9z M-247.2,292.3h-6.3V286h6.3V292.3z"/>
	<path class="st2" d="M-229.9,282.9h-9.4c-0.9,0-1.6,0.7-1.6,1.6v9.4c0,0.9,0.7,1.6,1.6,1.6h9.4c0.9,0,1.6-0.7,1.6-1.6v-9.4
		C-228.3,283.6-229,282.9-229.9,282.9z M-231.5,292.3h-6.3V286h6.3V292.3z"/>
	<path class="st2" d="M-214.1,282.9h-9.4c-0.9,0-1.6,0.7-1.6,1.6v9.4c0,0.9,0.7,1.6,1.6,1.6h9.4c0.9,0,1.6-0.7,1.6-1.6v-9.4
		C-212.6,283.6-213.3,282.9-214.1,282.9z M-215.7,292.3h-6.3V286h6.3V292.3z"/>
	<path class="st2" d="M-207.8,295.5h9.4c0.9,0,1.6-0.7,1.6-1.6v-9.4c0-0.9-0.7-1.6-1.6-1.6h-9.4c-0.9,0-1.6,0.7-1.6,1.6v9.4
		C-209.4,294.8-208.7,295.5-207.8,295.5z M-206.3,286h6.3v6.3h-6.3V286z"/>
	<path class="st2" d="M-245.6,298.6h-9.4c-0.9,0-1.6,0.7-1.6,1.6v9.4c0,0.9,0.7,1.6,1.6,1.6h9.4c0.9,0,1.6-0.7,1.6-1.6v-9.4
		C-244.1,299.3-244.8,298.6-245.6,298.6z M-247.2,308.1h-6.3v-6.3h6.3V308.1z"/>
	<path class="st2" d="M-229.9,298.6h-9.4c-0.9,0-1.6,0.7-1.6,1.6v9.4c0,0.9,0.7,1.6,1.6,1.6h9.4c0.9,0,1.6-0.7,1.6-1.6v-9.4
		C-228.3,299.3-229,298.6-229.9,298.6z M-231.5,308.1h-6.3v-6.3h6.3V308.1z"/>
	<path class="st2" d="M-214.1,298.6h-9.4c-0.9,0-1.6,0.7-1.6,1.6v9.4c0,0.9,0.7,1.6,1.6,1.6h9.4c0.9,0,1.6-0.7,1.6-1.6v-9.4
		C-212.6,299.3-213.3,298.6-214.1,298.6z M-215.7,308.1h-6.3v-6.3h6.3V308.1z"/>
	<path class="st2" d="M-207.8,311.2h9.4c0.9,0,1.6-0.7,1.6-1.6v-9.4c0-0.9-0.7-1.6-1.6-1.6h-9.4c-0.9,0-1.6,0.7-1.6,1.6v9.4
		C-209.4,310.5-208.7,311.2-207.8,311.2z M-206.3,301.8h6.3v6.3h-6.3V301.8z"/>
	<path class="st2" d="M-245.6,314.4h-9.4c-0.9,0-1.6,0.7-1.6,1.6v9.4c0,0.9,0.7,1.6,1.6,1.6h9.4c0.9,0,1.6-0.7,1.6-1.6v-9.4
		C-244.1,315.1-244.8,314.4-245.6,314.4z M-247.2,323.8h-6.3v-6.3h6.3V323.8z"/>
	<path class="st2" d="M-229.9,314.4h-9.4c-0.9,0-1.6,0.7-1.6,1.6v9.4c0,0.9,0.7,1.6,1.6,1.6h9.4c0.9,0,1.6-0.7,1.6-1.6v-9.4
		C-228.3,315.1-229,314.4-229.9,314.4z M-231.5,323.8h-6.3v-6.3h6.3V323.8z"/>
	<path class="st2" d="M-214.1,314.4h-9.4c-0.9,0-1.6,0.7-1.6,1.6v9.4c0,0.9,0.7,1.6,1.6,1.6h9.4c0.9,0,1.6-0.7,1.6-1.6v-9.4
		C-212.6,315.1-213.3,314.4-214.1,314.4z M-215.7,323.8h-6.3v-6.3h6.3V323.8z"/>
	<path class="st2" d="M-187.4,314.9v-55.7c0-0.9-0.7-1.6-1.6-1.6h-7.9v-1.6c0-2.6-2.1-4.7-4.7-4.7s-4.7,2.1-4.7,4.7v1.6h-3.1v-1.6
		c0-2.6-2.1-4.7-4.7-4.7c-2.6,0-4.7,2.1-4.7,4.7v1.6h-3.1v-1.6c0-2.6-2.1-4.7-4.7-4.7s-4.7,2.1-4.7,4.7v1.6h-3.1v-1.6
		c0-2.6-2.1-4.7-4.7-4.7c-2.6,0-4.7,2.1-4.7,4.7v1.6h-3.1v-1.6c0-2.6-2.1-4.7-4.7-4.7s-4.7,2.1-4.7,4.7v1.6h-7.9
		c-0.9,0-1.6,0.7-1.6,1.6v75.6c0,0.9,0.7,1.6,1.6,1.6h55.7c4.3,7.5,14,10.1,21.5,5.8c7.5-4.3,10.1-14,5.8-21.5
		C-183,318.3-185,316.3-187.4,314.9z M-203.1,256.1c0-0.9,0.7-1.6,1.6-1.6s1.6,0.7,1.6,1.6v6.3c0,0.9-0.7,1.6-1.6,1.6
		s-1.6-0.7-1.6-1.6V256.1z M-215.7,256.1c0-0.9,0.7-1.6,1.6-1.6c0.9,0,1.6,0.7,1.6,1.6v6.3c0,0.9-0.7,1.6-1.6,1.6
		c-0.9,0-1.6-0.7-1.6-1.6V256.1z M-228.3,256.1c0-0.9,0.7-1.6,1.6-1.6s1.6,0.7,1.6,1.6v6.3c0,0.9-0.7,1.6-1.6,1.6s-1.6-0.7-1.6-1.6
		V256.1z M-240.9,256.1c0-0.9,0.7-1.6,1.6-1.6c0.9,0,1.6,0.7,1.6,1.6v6.3c0,0.9-0.7,1.6-1.6,1.6c-0.9,0-1.6-0.7-1.6-1.6V256.1z
		 M-253.5,256.1c0-0.9,0.7-1.6,1.6-1.6s1.6,0.7,1.6,1.6v6.3c0,0.9-0.7,1.6-1.6,1.6s-1.6-0.7-1.6-1.6V256.1z M-262.9,260.8h6.3v1.6
		c0,2.6,2.1,4.7,4.7,4.7s4.7-2.1,4.7-4.7v-1.6h3.1v1.6c0,2.6,2.1,4.7,4.7,4.7c2.6,0,4.7-2.1,4.7-4.7v-1.6h3.1v1.6
		c0,2.6,2.1,4.7,4.7,4.7s4.7-2.1,4.7-4.7v-1.6h3.1v1.6c0,2.6,2.1,4.7,4.7,4.7c2.6,0,4.7-2.1,4.7-4.7v-1.6h3.1v1.6
		c0,2.6,2.1,4.7,4.7,4.7c2.6,0,4.7-2.1,4.7-4.7v-1.6h6.3v12.6h-72.4V260.8z M-262.9,333.3v-56.7h72.4v36.9
		c-8.3-2.6-17.1,2-19.7,10.3c-1,3.1-1,6.4,0,9.4H-262.9z M-195.3,341.1c-7,0-12.6-5.6-12.6-12.6c0-7,5.6-12.6,12.6-12.6
		c7,0,12.6,5.6,12.6,12.6C-182.7,335.5-188.3,341.1-195.3,341.1z"/>
	<path class="st2" d="M-189.9,322.6l-6.8,5.4l-3.7-3.7c-0.6-0.6-1.6-0.6-2.2,0c-0.6,0.6-0.6,1.6,0,2.2l4.7,4.7
		c0.6,0.6,1.5,0.6,2.1,0.1l7.9-6.3c0.7-0.5,0.8-1.5,0.2-2.2C-188.3,322.2-189.3,322-189.9,322.6L-189.9,322.6z"/>
</g>
</svg>
