<?xml version="1.0" encoding="utf-8"?>
<!-- Generator: Adobe Illustrator 19.0.0, SVG Export Plug-In . SVG Version: 6.00 Build 0)  -->
<svg version="1.1" id="Layer_1" xmlns="http://www.w3.org/2000/svg" xmlns:xlink="http://www.w3.org/1999/xlink" x="0px" y="0px"
	 viewBox="-351 186.4 256.4 188.6" style="enable-background:new -351 186.4 256.4 188.6;" xml:space="preserve">
<style type="text/css">
	.st0{opacity:0.19;fill:#9E8B8A;enable-background:new    ;}
	.st1{fill:#FFFFFF;}
	.st2{fill:#C7B299;}
</style>
<path id="XMLID_40_" class="st0" d="M-114.9,375h-215.8c-11.2,0-20.3-9.1-20.3-20.3v-148c0-11.2,9.1-20.3,20.3-20.3h215.8
	c11.2,0,20.3,9.1,20.3,20.3v148C-94.6,365.9-103.7,375-114.9,375z"/>
<g>
	<path class="st1" d="M-280.4,206.7v8.7h-2.5v-14.6h2.5l3.9,8.9l3.9-8.9h2.5v14.6h-2.5l0-8.7l-2.8,6.2h-2.2L-280.4,206.7z"/>
	<path class="st1" d="M-266.8,200.8h8.8v2.4h-6.2v3.6h5.7v2.4h-5.7v3.7h6.2v2.4h-8.8V200.8z"/>
	<path class="st1" d="M-248.1,210.3l2.6,0.4v2.2c0,0.3-0.1,0.6-0.2,0.9c-0.1,0.3-0.3,0.5-0.5,0.8s-0.5,0.4-0.8,0.5
		c-0.3,0.1-0.6,0.2-0.9,0.2h-4.9c-0.3,0-0.6-0.1-0.9-0.2c-0.3-0.1-0.5-0.3-0.8-0.5c-0.2-0.2-0.4-0.5-0.5-0.8
		c-0.1-0.3-0.2-0.6-0.2-0.9v-9.8c0-0.3,0.1-0.6,0.2-0.9c0.1-0.3,0.3-0.5,0.5-0.8c0.2-0.2,0.5-0.4,0.8-0.5c0.3-0.1,0.6-0.2,0.9-0.2
		h4.9c0.3,0,0.6,0.1,0.9,0.2c0.3,0.1,0.5,0.3,0.8,0.5c0.2,0.2,0.4,0.5,0.5,0.8c0.1,0.3,0.2,0.6,0.2,0.9v2.1l-2.6,0.4v-1.9
		c0-0.2-0.1-0.3-0.2-0.4c-0.1-0.1-0.3-0.2-0.4-0.2h-3.3c-0.2,0-0.3,0.1-0.4,0.2c-0.1,0.1-0.2,0.2-0.2,0.4v8.6c0,0.2,0.1,0.3,0.2,0.4
		c0.1,0.1,0.3,0.2,0.4,0.2h3.3c0.2,0,0.3-0.1,0.4-0.2c0.1-0.1,0.2-0.2,0.2-0.4V210.3z"/>
	<path class="st1" d="M-234.8,209.2h-4.9v6.2h-2.6v-14.6h2.6v5.9h4.9v-5.9h2.6v14.6h-2.6V209.2z"/>
	<path class="st1" d="M-217.9,215.4h-2.6l-1-3.2h-4.9l-1,3.2h-2.6l4.9-14.6h2.4L-217.9,215.4z M-225.8,209.9h3.4l-1.7-5.6
		L-225.8,209.9z"/>
	<path class="st1" d="M-205.3,215.4h-2.5l-5.6-9.4v9.4h-2.5v-14.6h2.5l5.6,9.5v-9.5h2.5V215.4z"/>
	<path class="st1" d="M-199.4,215.4h-2.6v-14.6h2.6V215.4z"/>
	<path class="st1" d="M-189.1,210.3l2.6,0.4v2.2c0,0.3-0.1,0.6-0.2,0.9c-0.1,0.3-0.3,0.5-0.5,0.8s-0.5,0.4-0.8,0.5
		c-0.3,0.1-0.6,0.2-0.9,0.2h-4.9c-0.3,0-0.6-0.1-0.9-0.2c-0.3-0.1-0.5-0.3-0.8-0.5c-0.2-0.2-0.4-0.5-0.5-0.8
		c-0.1-0.3-0.2-0.6-0.2-0.9v-9.8c0-0.3,0.1-0.6,0.2-0.9c0.1-0.3,0.3-0.5,0.5-0.8c0.2-0.2,0.5-0.4,0.8-0.5c0.3-0.1,0.6-0.2,0.9-0.2
		h4.9c0.3,0,0.6,0.1,0.9,0.2c0.3,0.1,0.5,0.3,0.8,0.5c0.2,0.2,0.4,0.5,0.5,0.8c0.1,0.3,0.2,0.6,0.2,0.9v2.1l-2.6,0.4v-1.9
		c0-0.2-0.1-0.3-0.2-0.4c-0.1-0.1-0.3-0.2-0.4-0.2h-3.3c-0.2,0-0.3,0.1-0.4,0.2c-0.1,0.1-0.2,0.2-0.2,0.4v8.6c0,0.2,0.1,0.3,0.2,0.4
		c0.1,0.1,0.3,0.2,0.4,0.2h3.3c0.2,0,0.3-0.1,0.4-0.2c0.1-0.1,0.2-0.2,0.2-0.4V210.3z"/>
	<path class="st1" d="M-172.4,215.4h-2.6l-1-3.2h-4.9l-1,3.2h-2.6l4.9-14.6h2.4L-172.4,215.4z M-180.3,209.9h3.4l-1.7-5.6
		L-180.3,209.9z"/>
	<path class="st1" d="M-170.4,200.8h2.6V213h5.9v2.4h-8.6V200.8z"/>
</g>
<g>
	<g>
		<g>
			<path class="st2" d="M-244.9,260.1c-0.9-1.5-2.3-2.6-4-3c-1.7-0.4-3.4-0.2-4.9,0.6c-1.5,0.9-2.6,2.3-3,4
				c-0.4,1.7-0.2,3.4,0.6,4.9c0.9,1.5,2.3,2.6,4,3c0.6,0.2,1.1,0.2,1.7,0.2c1.1,0,2.2-0.3,3.2-0.9c1.5-0.9,2.6-2.3,3-4
				C-243.8,263.4-244,261.6-244.9,260.1z M-248.1,264c-0.2,0.6-0.6,1.2-1.2,1.5c-0.6,0.3-1.3,0.4-1.9,0.3c-0.6-0.2-1.2-0.6-1.5-1.2
				c-0.3-0.6-0.4-1.3-0.3-1.9c0.2-0.6,0.6-1.2,1.2-1.5c0.4-0.2,0.8-0.3,1.2-0.3c0.2,0,0.4,0,0.7,0.1c0.6,0.2,1.2,0.6,1.5,1.2
				C-248,262.7-247.9,263.4-248.1,264z"/>
		</g>
	</g>
	<g>
		<g>
			<path class="st2" d="M-171.8,256.8c-0.3-1.2-1.1-2.3-2.2-2.9l-23.4-13.5c-2.3-1.3-5.3-0.5-6.6,1.8l-14.9,25.9
				c-0.6,1-0.2,2.2,0.7,2.7l4.1,2.4c0.8,0.5,1.8,0.3,2.4-0.3l2.9-3l0.8,0.5l-4.6,8.1c-0.5,1-0.2,2.2,0.7,2.7c1,0.5,2.2,0.2,2.7-0.7
				l4.6-8.1l6.3,3.6l-15.6,26.2c-0.6,0.9-0.3,2.2,0.7,2.7c0.3,0.2,0.7,0.3,1,0.3c0.7,0,1.3-0.3,1.7-1l15.7-26.2l0.8,0.5l-1.2,4.1
				c-0.3,0.9,0.1,1.8,0.9,2.3l4.1,2.4c0.3,0.2,0.7,0.3,1,0.3c0.7,0,1.4-0.4,1.7-1c0,0,13.1-22.7,13.1-22.7c0,0,0,0,0,0l1.8-3.2
				C-171.6,259.3-171.4,258-171.8,256.8z M-189.6,282.6l-1.1-0.6l1.2-4.1c0.3-0.9-0.1-1.8-0.9-2.3l-3.9-2.3c0,0,0,0,0,0l-9.8-5.6
				c0,0,0,0,0,0l-3.9-2.3c-0.8-0.5-1.8-0.3-2.4,0.3l-2.9,3l-1.1-0.6l11.1-19.2l24.8,14.3L-189.6,282.6z M-175.7,258.4l-0.8,1.4
				l-24.8-14.3l0.8-1.4c0.2-0.4,0.7-0.5,1.1-0.3l23.4,13.5c0.3,0.1,0.3,0.4,0.4,0.5C-175.6,258-175.6,258.2-175.7,258.4z"/>
		</g>
	</g>
	<g>
		<g>
			<path class="st2" d="M-188.8,261.7c-0.4-1.7-1.5-3.1-3-4c-1.5-0.9-3.3-1.1-4.9-0.6c-1.7,0.4-3.1,1.5-4,3
				c-0.9,1.5-1.1,3.3-0.6,4.9c0.4,1.7,1.5,3.1,3,4c1,0.6,2.1,0.9,3.2,0.9c0.6,0,1.1-0.1,1.7-0.2c1.7-0.4,3.1-1.5,4-3
				C-188.6,265.1-188.4,263.4-188.8,261.7z M-192.9,264.6c-0.3,0.6-0.9,1-1.5,1.2c-0.6,0.2-1.3,0.1-1.9-0.3c-0.6-0.3-1-0.9-1.2-1.5
				c-0.2-0.6-0.1-1.3,0.3-1.9c0.3-0.6,0.9-1,1.5-1.2c0.2-0.1,0.4-0.1,0.7-0.1c0.4,0,0.9,0.1,1.2,0.3c0.6,0.3,1,0.9,1.2,1.5
				S-192.6,264-192.9,264.6z"/>
		</g>
	</g>
	<g>
		<g>
			<path class="st2" d="M-213.5,285.3c-0.4-0.4-0.9-0.6-1.4-0.6c-0.5,0-1,0.2-1.4,0.6c-0.4,0.4-0.6,0.9-0.6,1.4s0.2,1,0.6,1.4
				c0.4,0.4,0.9,0.6,1.4,0.6c0.5,0,1-0.2,1.4-0.6c0.4-0.4,0.6-0.9,0.6-1.4S-213.1,285.7-213.5,285.3z"/>
		</g>
	</g>
	<g>
		<g>
			<path class="st2" d="M-222.8,313.7c-3.3,0-6,2.7-6,6c0,3.3,2.7,6,6,6c3.3,0,6-2.7,6-6C-216.8,316.4-219.5,313.7-222.8,313.7z
				 M-222.8,321.7c-1.1,0-2-0.9-2-2c0-1.1,0.9-2,2-2c1.1,0,2,0.9,2,2C-220.8,320.8-221.7,321.7-222.8,321.7z"/>
		</g>
	</g>
	<g>
		<g>
			<path class="st2" d="M-216.7,307.1c0-0.1-0.1-0.3-0.2-0.4l-3.7-6.4c0.1-0.1,0.1-0.1,0.2-0.2l3.2-5.6c0.5-1,0.2-2.2-0.7-2.7
				c-1-0.5-2.2-0.2-2.7,0.7l-2.2,3.8l-14.9-26.1l0.8-0.5l2.9,3c0.6,0.7,1.6,0.8,2.4,0.3l4.1-2.4c1-0.6,1.3-1.8,0.7-2.7l-14.9-25.9
				c-1.3-2.3-4.3-3.1-6.6-1.8l-23.4,13.5c-1.1,0.6-1.9,1.7-2.2,2.9c-0.3,1.2-0.2,2.5,0.5,3.7l1.8,3.2c0,0,0,0,0,0
				c0,0,13.1,22.7,13.1,22.7c0.4,0.6,1,1,1.7,1c0.3,0,0.7-0.1,1-0.3l4.1-2.4c0.8-0.5,1.2-1.4,0.9-2.3l-1.2-4.1l0.8-0.5l10.2,17
				c0.6,0.9,1.8,1.3,2.7,0.7c0.9-0.6,1.3-1.8,0.7-2.7l-10.1-17l6.3-3.6l19.2,33.5c-0.2,0-0.5,0-0.7,0c-7.7,0-14,6.3-14,14
				c0,7.7,6.3,14,14,14s14-6.3,14-14C-208.8,314.2-212,309.4-216.7,307.1z M-269.9,258.4c-0.1-0.3-0.1-0.5-0.1-0.6
				c0-0.1,0.1-0.3,0.4-0.5l23.4-13.5c0.4-0.2,0.9-0.1,1.1,0.3l0.8,1.4l-24.8,14.3L-269.9,258.4z M-241.5,267.7
				C-241.5,267.7-241.5,267.7-241.5,267.7l-9.8,5.6c0,0,0,0,0,0l-3.9,2.3c-0.8,0.5-1.2,1.4-0.9,2.3l1.2,4.1l-1.1,0.6l-11.1-19.2
				l24.8-14.3l11.1,19.2l-1.1,0.6l-2.9-3c-0.6-0.7-1.6-0.8-2.4-0.3L-241.5,267.7z M-222.8,329.7c-5.5,0-10-4.5-10-10
				c0-5.5,4.5-10,10-10c5.5,0,10,4.5,10,10C-212.8,325.2-217.3,329.7-222.8,329.7z"/>
		</g>
	</g>
	<g>
		<g>
			<path class="st2" d="M-233.4,299.5c-0.4-0.4-0.9-0.6-1.4-0.6s-1,0.2-1.4,0.6c-0.4,0.4-0.6,0.9-0.6,1.4s0.2,1,0.6,1.4
				c0.4,0.4,0.9,0.6,1.4,0.6c0.5,0,1-0.2,1.4-0.6c0.4-0.4,0.6-0.9,0.6-1.4S-233,299.9-233.4,299.5z"/>
		</g>
	</g>
</g>
</svg>
