<?xml version="1.0" encoding="utf-8"?>
<!-- Generator: Adobe Illustrator 19.0.0, SVG Export Plug-In . SVG Version: 6.00 Build 0)  -->
<svg version="1.1" id="Layer_1" xmlns="http://www.w3.org/2000/svg" xmlns:xlink="http://www.w3.org/1999/xlink" x="0px" y="0px"
	 viewBox="-351 186.4 256.4 188.6" style="enable-background:new -351 186.4 256.4 188.6;" xml:space="preserve">
<style type="text/css">
	.st0{opacity:0.19;fill:#9E8B8A;enable-background:new    ;}
	.st1{fill:#C7B299;}
	.st2{fill:#FFFFFF;}
</style>
<path id="XMLID_40_" class="st0" d="M-114.9,375h-215.8c-11.2,0-20.3-9.1-20.3-20.3v-148c0-11.2,9.1-20.3,20.3-20.3h215.8
	c11.2,0,20.3,9.1,20.3,20.3v148C-94.6,365.9-103.7,375-114.9,375z"/>
<g>
	<g>
		<g>
			<path class="st1" d="M-246.2,265.3c-1.8-1.9-4.3-2.9-6.9-2.9h-0.5c-2.6,0-5.1,1-6.9,2.9c-1.7,1.8-2.6,4.1-2.5,6.6l0.2,4.3
				c0.3,5,4.4,8.8,9.4,8.7h0.1c5,0.1,9.1-3.8,9.4-8.7l0.2-4.3C-243.6,269.5-244.5,267.1-246.2,265.3z M-247.2,276.1
				c-0.2,3.2-2.9,5.7-6.2,5.6h-0.1c-3.2,0.1-6-2.4-6.2-5.6l-0.1-1.3c3.1-0.1,6-1.2,8.4-3.2c1,1.5,2.5,2.5,4.2,2.9L-247.2,276.1z
				 M-249.2,268.5c-0.1-0.7-0.6-1.2-1.3-1.4c-0.7-0.1-1.4,0.2-1.7,0.8c0,0-2,3.2-7.7,3.7c0-1.5,0.6-2.9,1.6-4
				c1.2-1.2,2.9-1.9,4.6-1.9h0.5c1.7,0,3.4,0.7,4.6,1.9c0.9,1,1.5,2.3,1.6,3.6C-248.1,270.7-248.9,269.7-249.2,268.5z"/>
		</g>
	</g>
	<g>
		<g>
			<path class="st1" d="M-183.4,304c-1.8-1.9-4.3-2.9-6.9-2.9h-0.5c-2.6,0-5.1,1-6.9,2.9c-1.7,1.8-2.6,4.1-2.5,6.6l0.2,4.3
				c0.3,5,4.4,8.8,9.4,8.7h0.1c5,0.1,9.1-3.8,9.4-8.7l0.2-4.3C-180.8,308.1-181.7,305.7-183.4,304z M-184.1,310.4l-0.2,4.3
				c-0.2,3.2-2.9,5.7-6.2,5.6h-0.1c-3.2,0.1-6-2.4-6.2-5.6l-0.2-4.3c-0.1-1.6,0.5-3.1,1.6-4.2c1.2-1.2,2.9-1.9,4.6-1.9h0.5
				c1.7,0,3.4,0.7,4.6,1.9C-184.7,307.3-184.1,308.9-184.1,310.4z"/>
		</g>
	</g>
	<g>
		<g>
			<path class="st1" d="M-221.4,268.1c-1.7-1.7-4.5-1.7-6.2,0l-18,18c-0.3,0.3-0.7,0.5-1.1,0.5h-16.4c-4.4,0-8.1,3.6-8.1,8.1v22.6
				c0,2.7,2.2,4.8,4.8,4.8c0.5,0,1.1-0.1,1.6-0.3v1.9c0,0.9,0.7,1.6,1.6,1.6h19.3c0.9,0,1.6-0.7,1.6-1.6v-26.1
				c0-0.4,0.2-0.8,0.4-1.1l20.4-22C-219.5,272.6-219.6,269.8-221.4,268.1z M-223.6,272.2C-223.6,272.2-223.6,272.2-223.6,272.2
				l-20.5,22c-0.8,0.9-1.3,2.1-1.3,3.3V322h-16.1v-24.2c0-0.9-0.7-1.6-1.6-1.6s-1.6,0.7-1.6,1.6v19.3c0,0.9-0.7,1.6-1.6,1.6
				s-1.6-0.7-1.6-1.6v-22.6c0-2.7,2.2-4.8,4.8-4.8h16.4c1.3,0,2.5-0.5,3.4-1.4l18-18c0.5-0.5,1.3-0.5,1.7,0
				C-223.1,270.9-223.1,271.7-223.6,272.2z"/>
		</g>
	</g>
	<g>
		<g>
			<path class="st1" d="M-253.4,291.4c-0.9,0-1.6,0.7-1.6,1.6v19.3c0,0.9,0.7,1.6,1.6,1.6c0.9,0,1.6-0.7,1.6-1.6V293
				C-251.8,292.1-252.5,291.4-253.4,291.4z"/>
		</g>
	</g>
	<g>
		<g>
			<path class="st1" d="M-218.9,304c-1.8-1.9-4.3-2.9-6.9-2.9h-0.5c-2.6,0-5.1,1-6.9,2.9c-1.7,1.8-2.6,4.1-2.5,6.6l0.2,4.3
				c0.3,5,4.4,8.8,9.4,8.7h0.1c5,0.1,9.1-3.8,9.4-8.7l0.2-4.3C-216.3,308.1-217.2,305.7-218.9,304z M-219.6,310.4l-0.2,4.3
				c-0.2,3.2-2.9,5.7-6.2,5.6h-0.1c-3.2,0.1-6-2.4-6.2-5.6l-0.2-4.3c-0.1-1.6,0.5-3.1,1.6-4.2c1.2-1.2,2.9-1.9,4.6-1.9h0.5
				c1.7,0,3.4,0.7,4.6,1.9C-220.1,307.3-219.5,308.9-219.6,310.4z"/>
		</g>
	</g>
	<g>
		<g>
			<path class="st1" d="M-217.7,325.2h-16.6c-4.3,0-7.8,3.5-7.8,7.8v6.7c0,0.9,0.7,1.6,1.6,1.6c0.9,0,1.6-0.7,1.6-1.6V333
				c0-2.5,2-4.6,4.6-4.6h16.6c2.5,0,4.6,2,4.6,4.6v6.7c0,0.9,0.7,1.6,1.6,1.6s1.6-0.7,1.6-1.6V333
				C-209.9,328.7-213.4,325.2-217.7,325.2z"/>
		</g>
	</g>
	<g>
		<g>
			<path class="st1" d="M-182.3,325.2h-16.6c-4.3,0-7.8,3.5-7.8,7.8v6.7c0,0.9,0.7,1.6,1.6,1.6s1.6-0.7,1.6-1.6V333
				c0-2.5,2-4.6,4.6-4.6h16.6c2.5,0,4.6,2,4.6,4.6v6.7c0,0.9,0.7,1.6,1.6,1.6s1.6-0.7,1.6-1.6V333
				C-174.5,328.7-178,325.2-182.3,325.2z"/>
		</g>
	</g>
	<g>
		<g>
			<path class="st1" d="M-179.2,244.7h-56.6c-2.6,0-4.8,2.2-4.8,4.8v24.2c0,0.9,0.7,1.6,1.6,1.6s1.6-0.7,1.6-1.6v-19.3h59.6V293
				c0,0.9-0.7,1.6-1.5,1.6h-55c-0.9,0-1.6,0.7-1.6,1.6s0.7,1.6,1.6,1.6h55c2.6,0,4.8-2.2,4.8-4.8v-43.5
				C-174.4,246.9-176.6,244.7-179.2,244.7z M-177.7,251.1h-59.6v-1.6c0-0.9,0.7-1.6,1.5-1.6h56.6c0.9,0,1.6,0.7,1.5,1.6V251.1z"/>
		</g>
	</g>
	<g>
		<g>
			<path class="st1" d="M-182.5,265.2c-0.9,0-1.6,0.7-1.6,1.6v23c0,0.9,0.7,1.6,1.6,1.6s1.6-0.7,1.6-1.6v-23
				C-180.9,265.9-181.6,265.2-182.5,265.2z"/>
		</g>
	</g>
	<g>
		<g>
			<path class="st1" d="M-189,275.3c-0.9,0-1.6,0.7-1.6,1.6v12.9c0,0.9,0.7,1.6,1.6,1.6s1.6-0.7,1.6-1.6v-12.9
				C-187.4,276-188.1,275.3-189,275.3z"/>
		</g>
	</g>
	<g>
		<g>
			<path class="st1" d="M-195.4,272.1c-0.9,0-1.6,0.7-1.6,1.6v16.1c0,0.9,0.7,1.6,1.6,1.6s1.6-0.7,1.6-1.6v-16.1
				C-193.8,272.8-194.5,272.1-195.4,272.1z"/>
		</g>
	</g>
	<g>
		<g>
			<path class="st1" d="M-201.9,281.7c-0.9,0-1.6,0.7-1.6,1.6v6.4c0,0.9,0.7,1.6,1.6,1.6s1.6-0.7,1.6-1.6v-6.4
				C-200.2,282.5-201,281.7-201.9,281.7z"/>
		</g>
	</g>
	<g>
		<g>
			<path class="st1" d="M-181.6,257.8c-0.7-0.5-1.7-0.3-2.2,0.4l-5.5,8.2l-5.1-3.8c-0.7-0.5-1.7-0.4-2.3,0.3
				c-0.1,0.1-0.1,0.2-0.2,0.3l-6.3,12.5l-6.1,4.6c-0.7,0.5-0.9,1.5-0.3,2.3c0.5,0.7,1.5,0.9,2.3,0.3l6.4-4.8
				c0.2-0.1,0.4-0.3,0.5-0.6l5.6-11.2l4.9,3.7c0.7,0.5,1.7,0.4,2.3-0.3c0,0,0,0,0.1-0.1l6.4-9.7
				C-180.7,259.3-180.9,258.3-181.6,257.8z"/>
		</g>
	</g>
	<g>
		<g>
			<path class="st1" d="M-213.1,257.6h-19.3c-0.9,0-1.6,0.7-1.6,1.6c0,0.9,0.7,1.6,1.6,1.6h19.3c0.9,0,1.6-0.7,1.6-1.6
				C-211.5,258.3-212.2,257.6-213.1,257.6z"/>
		</g>
	</g>
	<g>
		<g>
			<path class="st1" d="M-203.5,257.6h-3.2c-0.9,0-1.6,0.7-1.6,1.6c0,0.9,0.7,1.6,1.6,1.6h3.2c0.9,0,1.6-0.7,1.6-1.6
				C-201.9,258.3-202.6,257.6-203.5,257.6z"/>
		</g>
	</g>
</g>
<g>
	<path class="st2" d="M-271.9,209.6h2.2l2.5,9.4l1.4-9.4h2.4l-2.4,13.8h-2.5l-2.6-9.9l-2.6,9.9h-2.5l-2.4-13.8h2.4l1.4,9.4
		L-271.9,209.6z"/>
	<path class="st2" d="M-260,223.2c-0.3-0.1-0.5-0.3-0.7-0.5c-0.2-0.2-0.4-0.4-0.5-0.7c-0.1-0.3-0.2-0.6-0.2-0.9v-9.2
		c0-0.3,0.1-0.6,0.2-0.9c0.1-0.3,0.3-0.5,0.5-0.7c0.2-0.2,0.4-0.4,0.7-0.5c0.3-0.1,0.6-0.2,0.9-0.2h4.9c0.3,0,0.6,0.1,0.9,0.2
		c0.3,0.1,0.5,0.3,0.7,0.5c0.2,0.2,0.4,0.4,0.5,0.7c0.1,0.3,0.2,0.6,0.2,0.9v9.2c0,0.3-0.1,0.6-0.2,0.9c-0.1,0.3-0.3,0.5-0.5,0.7
		c-0.2,0.2-0.4,0.4-0.7,0.5c-0.3,0.1-0.6,0.2-0.9,0.2h-4.9C-259.4,223.4-259.7,223.3-260,223.2z M-254.4,212.5
		c0-0.2-0.1-0.3-0.2-0.4c-0.1-0.1-0.2-0.2-0.4-0.2h-3.3c-0.2,0-0.3,0.1-0.4,0.2c-0.1,0.1-0.2,0.2-0.2,0.4v8.1c0,0.2,0.1,0.3,0.2,0.4
		c0.1,0.1,0.2,0.2,0.4,0.2h3.3c0.2,0,0.3-0.1,0.4-0.2c0.1-0.1,0.2-0.2,0.2-0.4V212.5z"/>
	<path class="st2" d="M-243.9,218.1h-2.6v5.3h-2.5v-13.8h7.2c0.3,0,0.6,0.1,0.9,0.2c0.3,0.1,0.5,0.3,0.7,0.5
		c0.2,0.2,0.4,0.4,0.5,0.7c0.1,0.3,0.2,0.6,0.2,0.9v3.9c0,0.5-0.2,1-0.5,1.4c-0.3,0.4-0.7,0.7-1.2,0.8l2.6,5.4h-2.7L-243.9,218.1z
		 M-242,212.5c0-0.2-0.1-0.3-0.2-0.4c-0.1-0.1-0.2-0.2-0.4-0.2h-4v3.9h4c0.2,0,0.3-0.1,0.4-0.2c0.1-0.1,0.2-0.2,0.2-0.4V212.5z"/>
	<path class="st2" d="M-236.3,209.6h2.5v6.4l4.3-6.4h2.9l-4.6,6.8l4.8,6.9h-2.9l-4.5-6.5v6.5h-2.5V209.6z"/>
	<path class="st2" d="M-219.1,218c-0.4-0.1-0.7-0.2-1-0.3s-0.6-0.2-0.8-0.2c-0.3-0.1-0.5-0.2-0.8-0.2s-0.6-0.2-1-0.3
		c-0.3-0.1-0.6-0.2-0.9-0.3s-0.5-0.3-0.7-0.5c-0.2-0.2-0.4-0.4-0.5-0.6c-0.1-0.2-0.2-0.5-0.2-0.8v-2.8c0-0.3,0.1-0.6,0.2-0.9
		c0.1-0.3,0.3-0.5,0.5-0.7c0.2-0.2,0.4-0.4,0.7-0.5c0.3-0.1,0.6-0.2,0.9-0.2h4.4c0.3,0,0.6,0.1,0.9,0.2c0.3,0.1,0.5,0.3,0.7,0.5
		s0.4,0.4,0.5,0.7c0.1,0.3,0.2,0.6,0.2,0.9v1.6l-2.5,0.4v-1.5c0-0.2-0.1-0.3-0.2-0.4c-0.1-0.1-0.2-0.2-0.4-0.2h-2.8
		c-0.2,0-0.3,0.1-0.4,0.2c-0.1,0.1-0.2,0.2-0.2,0.4v1.7c0,0.2,0.1,0.3,0.2,0.4c0.1,0.1,0.2,0.2,0.4,0.2c0.6,0.2,1.2,0.3,1.8,0.5
		s1.2,0.3,2,0.6c0.6,0.2,1.1,0.4,1.5,0.8c0.4,0.3,0.6,0.8,0.6,1.5v3.1c0,0.3-0.1,0.6-0.2,0.9c-0.1,0.3-0.3,0.5-0.5,0.7
		c-0.2,0.2-0.4,0.4-0.7,0.5c-0.3,0.1-0.6,0.2-0.9,0.2h-4.5c-0.3,0-0.6-0.1-0.9-0.2c-0.3-0.1-0.5-0.3-0.7-0.5
		c-0.2-0.2-0.4-0.4-0.5-0.7c-0.1-0.3-0.2-0.6-0.2-0.9v-1.6l2.5-0.4v1.4c0,0.2,0.1,0.3,0.2,0.4c0.1,0.1,0.2,0.2,0.4,0.2h2.9
		c0.2,0,0.3-0.1,0.4-0.2c0.1-0.1,0.2-0.2,0.2-0.4v-2c0-0.2-0.1-0.3-0.2-0.4S-218.9,218.1-219.1,218z"/>
	<path class="st2" d="M-206.1,217.5h-4.7v5.9h-2.5v-13.8h2.5v5.6h4.7v-5.6h2.5v13.8h-2.5V217.5z"/>
	<path class="st2" d="M-199.3,223.2c-0.3-0.1-0.5-0.3-0.7-0.5c-0.2-0.2-0.4-0.4-0.5-0.7c-0.1-0.3-0.2-0.6-0.2-0.9v-9.2
		c0-0.3,0.1-0.6,0.2-0.9c0.1-0.3,0.3-0.5,0.5-0.7c0.2-0.2,0.4-0.4,0.7-0.5c0.3-0.1,0.6-0.2,0.9-0.2h4.9c0.3,0,0.6,0.1,0.9,0.2
		c0.3,0.1,0.5,0.3,0.7,0.5c0.2,0.2,0.4,0.4,0.5,0.7c0.1,0.3,0.2,0.6,0.2,0.9v9.2c0,0.3-0.1,0.6-0.2,0.9c-0.1,0.3-0.3,0.5-0.5,0.7
		c-0.2,0.2-0.4,0.4-0.7,0.5c-0.3,0.1-0.6,0.2-0.9,0.2h-4.9C-198.7,223.4-199,223.3-199.3,223.2z M-193.7,212.5
		c0-0.2-0.1-0.3-0.2-0.4c-0.1-0.1-0.2-0.2-0.4-0.2h-3.3c-0.2,0-0.3,0.1-0.4,0.2c-0.1,0.1-0.2,0.2-0.2,0.4v8.1c0,0.2,0.1,0.3,0.2,0.4
		c0.1,0.1,0.2,0.2,0.4,0.2h3.3c0.2,0,0.3-0.1,0.4-0.2c0.1-0.1,0.2-0.2,0.2-0.4V212.5z"/>
	<path class="st2" d="M-188.3,209.6h7c0.3,0,0.6,0.1,0.9,0.2c0.3,0.1,0.5,0.3,0.7,0.5c0.2,0.2,0.4,0.4,0.5,0.7
		c0.1,0.3,0.2,0.6,0.2,0.9v3.9c0,0.3-0.1,0.6-0.2,0.9s-0.3,0.5-0.5,0.7c-0.2,0.2-0.4,0.4-0.7,0.5c-0.3,0.1-0.6,0.2-0.9,0.2h-4.5v5.3
		h-2.5V209.6z M-181.5,212.5c0-0.2-0.1-0.3-0.2-0.4c-0.1-0.1-0.2-0.2-0.4-0.2h-3.8v3.9h3.8c0.2,0,0.3-0.1,0.4-0.2
		c0.1-0.1,0.2-0.2,0.2-0.4V212.5z"/>
	<path class="st2" d="M-171,218c-0.4-0.1-0.7-0.2-1-0.3s-0.6-0.2-0.8-0.2c-0.3-0.1-0.5-0.2-0.8-0.2s-0.6-0.2-1-0.3
		c-0.3-0.1-0.6-0.2-0.9-0.3s-0.5-0.3-0.7-0.5c-0.2-0.2-0.4-0.4-0.5-0.6c-0.1-0.2-0.2-0.5-0.2-0.8v-2.8c0-0.3,0.1-0.6,0.2-0.9
		c0.1-0.3,0.3-0.5,0.5-0.7c0.2-0.2,0.4-0.4,0.7-0.5c0.3-0.1,0.6-0.2,0.9-0.2h4.4c0.3,0,0.6,0.1,0.9,0.2c0.3,0.1,0.5,0.3,0.7,0.5
		s0.4,0.4,0.5,0.7c0.1,0.3,0.2,0.6,0.2,0.9v1.6l-2.5,0.4v-1.5c0-0.2-0.1-0.3-0.2-0.4c-0.1-0.1-0.2-0.2-0.4-0.2h-2.8
		c-0.2,0-0.3,0.1-0.4,0.2c-0.1,0.1-0.2,0.2-0.2,0.4v1.7c0,0.2,0.1,0.3,0.2,0.4c0.1,0.1,0.2,0.2,0.4,0.2c0.6,0.2,1.2,0.3,1.8,0.5
		s1.2,0.3,2,0.6c0.6,0.2,1.1,0.4,1.5,0.8c0.4,0.3,0.6,0.8,0.6,1.5v3.1c0,0.3-0.1,0.6-0.2,0.9c-0.1,0.3-0.3,0.5-0.5,0.7
		c-0.2,0.2-0.4,0.4-0.7,0.5c-0.3,0.1-0.6,0.2-0.9,0.2h-4.5c-0.3,0-0.6-0.1-0.9-0.2c-0.3-0.1-0.5-0.3-0.7-0.5
		c-0.2-0.2-0.4-0.4-0.5-0.7c-0.1-0.3-0.2-0.6-0.2-0.9v-1.6l2.5-0.4v1.4c0,0.2,0.1,0.3,0.2,0.4c0.1,0.1,0.2,0.2,0.4,0.2h2.9
		c0.2,0,0.3-0.1,0.4-0.2c0.1-0.1,0.2-0.2,0.2-0.4v-2c0-0.2-0.1-0.3-0.2-0.4S-170.8,218.1-171,218z"/>
</g>
</svg>
