<?xml version="1.0" encoding="utf-8"?>
<!-- Generator: Adobe Illustrator 19.0.0, SVG Export Plug-In . SVG Version: 6.00 Build 0)  -->
<svg version="1.1" id="Layer_1" xmlns="http://www.w3.org/2000/svg" xmlns:xlink="http://www.w3.org/1999/xlink" x="0px" y="0px"
	 viewBox="-351 186.4 256.4 188.6" style="enable-background:new -351 186.4 256.4 188.6;" xml:space="preserve">
<style type="text/css">
	.st0{opacity:0.19;fill:#9E8B8A;enable-background:new    ;}
	.st1{enable-background:new    ;}
	.st2{fill:#FFFFFF;}
	.st3{fill:#C7B299;}
</style>
<path id="XMLID_40_" class="st0" d="M-114.9,375h-215.8c-11.2,0-20.3-9.1-20.3-20.3v-148c0-11.2,9.1-20.3,20.3-20.3h215.8
	c11.2,0,20.3,9.1,20.3,20.3v148C-94.6,365.9-103.7,375-114.9,375z"/>
<g class="st1">
	<path class="st2" d="M-303.8,199.6h6.8c0.3,0,0.6,0.1,0.9,0.2c0.3,0.1,0.5,0.3,0.7,0.5c0.2,0.2,0.3,0.4,0.5,0.7
		c0.1,0.3,0.2,0.5,0.2,0.8v3c0,0.3-0.1,0.6-0.3,0.9s-0.5,0.5-0.8,0.6c0.3,0.1,0.6,0.2,0.8,0.5s0.4,0.6,0.4,1v3.5
		c0,0.3-0.1,0.6-0.2,0.8c-0.1,0.3-0.3,0.5-0.5,0.7c-0.2,0.2-0.4,0.4-0.7,0.5s-0.6,0.2-0.9,0.2h-6.9V199.6z M-297.8,205.2
		c0.2,0,0.3-0.1,0.4-0.2s0.1-0.2,0.1-0.4v-2.3c0-0.2-0.1-0.3-0.2-0.4c-0.1-0.1-0.2-0.2-0.4-0.2h-3.5v3.3H-297.8z M-301.4,211.1h3.6
		c0.2,0,0.3-0.1,0.4-0.2s0.2-0.2,0.2-0.4V208c0-0.2-0.1-0.3-0.2-0.4s-0.2-0.2-0.4-0.2h-3.6V211.1z"/>
	<path class="st2" d="M-281.4,213.4h-2.5l-1-3h-4.6l-0.9,3h-2.5l4.6-13.8h2.3L-281.4,213.4z M-288.8,208.2h3.2l-1.6-5.2
		L-288.8,208.2z"/>
	<path class="st2" d="M-281.9,199.6h10v2.3h-3.7v11.5h-2.5v-11.5h-3.7V199.6z"/>
	<path class="st2" d="M-271.1,199.6h10v2.3h-3.7v11.5h-2.5v-11.5h-3.7V199.6z"/>
	<path class="st2" d="M-259.2,199.6h2.5v11.5h5.6v2.3h-8.1V199.6z"/>
	<path class="st2" d="M-248.8,199.6h8.3v2.3h-5.9v3.4h5.3v2.3h-5.3v3.5h5.9v2.3h-8.3V199.6z"/>
	<path class="st2" d="M-232.1,213.2c-0.3-0.1-0.5-0.3-0.7-0.5c-0.2-0.2-0.4-0.4-0.5-0.7c-0.1-0.3-0.2-0.6-0.2-0.9v-9.2
		c0-0.3,0.1-0.6,0.2-0.9c0.1-0.3,0.3-0.5,0.5-0.7c0.2-0.2,0.4-0.4,0.7-0.5c0.3-0.1,0.6-0.2,0.9-0.2h4.9c0.3,0,0.6,0.1,0.9,0.2
		c0.3,0.1,0.5,0.3,0.7,0.5c0.2,0.2,0.4,0.4,0.5,0.7c0.1,0.3,0.2,0.6,0.2,0.9v9.2c0,0.3-0.1,0.6-0.2,0.9c-0.1,0.3-0.3,0.5-0.5,0.7
		c-0.2,0.2-0.4,0.4-0.7,0.5c-0.3,0.1-0.6,0.2-0.9,0.2h-4.9C-231.5,213.4-231.8,213.3-232.1,213.2z M-226.6,202.5
		c0-0.2-0.1-0.3-0.2-0.4c-0.1-0.1-0.2-0.2-0.4-0.2h-3.3c-0.2,0-0.3,0.1-0.4,0.2c-0.1,0.1-0.2,0.2-0.2,0.4v8.1c0,0.2,0.1,0.3,0.2,0.4
		c0.1,0.1,0.2,0.2,0.4,0.2h3.3c0.2,0,0.3-0.1,0.4-0.2c0.1-0.1,0.2-0.2,0.2-0.4V202.5z"/>
	<path class="st2" d="M-221.1,213.4v-13.8h8.4v2.3h-6v3.4h5.5v2.3h-5.5v5.8H-221.1z"/>
	<path class="st2" d="M-206.3,199.6h6.8c0.3,0,0.6,0.1,0.9,0.2c0.3,0.1,0.5,0.3,0.7,0.5c0.2,0.2,0.3,0.4,0.5,0.7s0.2,0.5,0.2,0.8v3
		c0,0.3-0.1,0.6-0.3,0.9c-0.2,0.3-0.5,0.5-0.8,0.6c0.3,0.1,0.6,0.2,0.8,0.5s0.4,0.6,0.4,1v3.5c0,0.3-0.1,0.6-0.2,0.8
		s-0.3,0.5-0.5,0.7c-0.2,0.2-0.4,0.4-0.7,0.5c-0.3,0.1-0.6,0.2-0.9,0.2h-6.9V199.6z M-200.3,205.2c0.2,0,0.3-0.1,0.4-0.2
		c0.1-0.1,0.1-0.2,0.1-0.4v-2.3c0-0.2-0.1-0.3-0.2-0.4s-0.2-0.2-0.4-0.2h-3.5v3.3H-200.3z M-203.8,211.1h3.6c0.2,0,0.3-0.1,0.4-0.2
		c0.1-0.1,0.2-0.2,0.2-0.4V208c0-0.2-0.1-0.3-0.2-0.4c-0.1-0.1-0.2-0.2-0.4-0.2h-3.6V211.1z"/>
	<path class="st2" d="M-189.2,208.1h-2.6v5.3h-2.5v-13.8h7.2c0.3,0,0.6,0.1,0.9,0.2c0.3,0.1,0.5,0.3,0.7,0.5
		c0.2,0.2,0.4,0.4,0.5,0.7s0.2,0.6,0.2,0.9v3.9c0,0.5-0.2,1-0.5,1.4s-0.7,0.7-1.2,0.8l2.6,5.4h-2.7L-189.2,208.1z M-187.3,202.5
		c0-0.2-0.1-0.3-0.2-0.4s-0.2-0.2-0.4-0.2h-4v3.9h4c0.2,0,0.3-0.1,0.4-0.2c0.1-0.1,0.2-0.2,0.2-0.4V202.5z"/>
	<path class="st2" d="M-170.9,213.4h-2.5l-1-3h-4.6l-1,3h-2.5l4.6-13.8h2.3L-170.9,213.4z M-178.3,208.2h3.2l-1.6-5.2L-178.3,208.2z
		"/>
	<path class="st2" d="M-166.5,213.4h-2.5v-13.8h2.5V213.4z"/>
	<path class="st2" d="M-153.4,213.4h-2.4l-5.2-8.9v8.9h-2.4v-13.8h2.4l5.2,8.9v-8.9h2.4V213.4z"/>
	<path class="st2" d="M-144.5,208c-0.4-0.1-0.7-0.2-1-0.3c-0.3-0.1-0.6-0.2-0.8-0.2c-0.3-0.1-0.5-0.2-0.8-0.2
		c-0.3-0.1-0.6-0.2-1-0.3c-0.3-0.1-0.6-0.2-0.9-0.3c-0.3-0.1-0.5-0.3-0.7-0.5c-0.2-0.2-0.4-0.4-0.5-0.6c-0.1-0.2-0.2-0.5-0.2-0.8
		v-2.8c0-0.3,0.1-0.6,0.2-0.9c0.1-0.3,0.3-0.5,0.5-0.7c0.2-0.2,0.4-0.4,0.7-0.5c0.3-0.1,0.6-0.2,0.9-0.2h4.4c0.3,0,0.6,0.1,0.9,0.2
		c0.3,0.1,0.5,0.3,0.7,0.5c0.2,0.2,0.4,0.4,0.5,0.7s0.2,0.6,0.2,0.9v1.6l-2.5,0.4v-1.5c0-0.2-0.1-0.3-0.2-0.4s-0.2-0.2-0.4-0.2h-2.8
		c-0.2,0-0.3,0.1-0.4,0.2c-0.1,0.1-0.2,0.2-0.2,0.4v1.7c0,0.2,0.1,0.3,0.2,0.4c0.1,0.1,0.2,0.2,0.4,0.2c0.6,0.2,1.2,0.3,1.8,0.5
		c0.6,0.2,1.2,0.3,2,0.6c0.6,0.2,1.1,0.4,1.5,0.8c0.4,0.3,0.6,0.8,0.6,1.5v3.1c0,0.3-0.1,0.6-0.2,0.9s-0.3,0.5-0.5,0.7
		c-0.2,0.2-0.4,0.4-0.7,0.5c-0.3,0.1-0.6,0.2-0.9,0.2h-4.5c-0.3,0-0.6-0.1-0.9-0.2c-0.3-0.1-0.5-0.3-0.7-0.5
		c-0.2-0.2-0.4-0.4-0.5-0.7c-0.1-0.3-0.2-0.6-0.2-0.9v-1.6l2.5-0.4v1.4c0,0.2,0.1,0.3,0.2,0.4c0.1,0.1,0.2,0.2,0.4,0.2h2.9
		c0.2,0,0.3-0.1,0.4-0.2c0.1-0.1,0.2-0.2,0.2-0.4v-2c0-0.2-0.1-0.3-0.2-0.4C-144.2,208.1-144.3,208.1-144.5,208z"/>
</g>
<g>
	<g>
		<g>
			<path class="st3" d="M-175.7,308.8l0-28.6c0-3.7-3-6.7-6.7-6.7c-3.2,0-6,2.3-6.6,5.5l-3.7,21c-1.5-0.2-3,0.2-4.2,1l-12.6,8.9
				c-0.4,0.3-0.7,0.8-0.7,1.3v17.2c0,0.9,0.7,1.6,1.6,1.6h15.7c0.9,0,1.6-0.7,1.6-1.6v-2l10.3-6.6
				C-177.6,317.2-175.6,313.1-175.7,308.8z M-182.8,317.2L-182.8,317.2l-11,7c-0.5,0.3-0.7,0.8-0.7,1.3v1.3h-12.5V312l12-8.4
				c1.3-0.9,3.1-0.6,4,0.7c0.9,1.3,0.6,3-0.6,4l-8.4,6.3l1.9,2.5l8.4-6.3c2.7-2,3.2-5.8,1.2-8.4c-0.2-0.2-0.4-0.4-0.6-0.6
				c-0.2-0.2-0.3-0.3-0.5-0.5l3.8-21.7c0.3-1.9,2.2-3.2,4.1-2.9c1.7,0.3,2.9,1.8,2.9,3.5l0,28.6C-178.7,312-180.2,315.2-182.8,317.2
				z"/>
		</g>
	</g>
	<g>
		<g>
			<path class="st3" d="M-236,309.9l-12.6-8.9c-1.2-0.9-2.8-1.2-4.2-1l-3.7-21c-0.6-3.6-4.1-6.1-7.7-5.4c-3.2,0.6-5.5,3.3-5.5,6.6
				l0,28.6c-0.1,4.4,1.9,8.5,5.4,11.1l10.3,6.6v2c0,0.9,0.7,1.6,1.6,1.6h15.7c0.9,0,1.6-0.7,1.6-1.6v-17.2
				C-235.3,310.7-235.6,310.2-236,309.9z M-238.5,326.8H-251v-1.3c0-0.5-0.3-1-0.7-1.3l-11-7c-2.6-2-4.1-5.2-4-8.4l0-28.6
				c0-2,1.6-3.5,3.5-3.5c1.7,0,3.2,1.2,3.5,2.9l3.8,21.7c-0.2,0.1-0.3,0.3-0.5,0.5c-2.4,2.4-2.4,6.2,0,8.5c0.2,0.2,0.4,0.4,0.6,0.6
				l8.4,6.3l1.9-2.5l-8.4-6.3c-1.3-1-1.5-2.8-0.6-4c0.9-1.2,2.7-1.5,4-0.6l12,8.4L-238.5,326.8L-238.5,326.8z"/>
		</g>
	</g>
	<g>
		<g>
			<path class="st3" d="M-222.8,235.8L-222.8,235.8v3.1c1.9,0,3.8,0.2,5.7,0.5l0.6-3.1C-218.6,236-220.7,235.8-222.8,235.8z"/>
		</g>
	</g>
	<g>
		<g>
			<path class="st3" d="M-229.3,236.5c-2.1,0.4-4.2,1.1-6.2,1.9l1.2,2.9c1.8-0.8,3.7-1.3,5.6-1.7L-229.3,236.5z"/>
		</g>
	</g>
	<g>
		<g>
			<path class="st3" d="M-201.7,289.8c-1.4,1.4-2.9,2.6-4.5,3.7l1.7,2.6c1.8-1.2,3.5-2.6,5-4.1L-201.7,289.8z"/>
		</g>
	</g>
	<g>
		<g>
			<path class="st3" d="M-210.3,238.3l-1.2,2.9c1.8,0.7,3.5,1.7,5.2,2.7l1.7-2.6C-206.4,240.1-208.3,239.1-210.3,238.3z"/>
		</g>
	</g>
	<g>
		<g>
			<path class="st3" d="M-193,268.8c0,2-0.2,3.9-0.6,5.8l3.1,0.6c0.4-2.1,0.6-4.3,0.6-6.4v-0.1L-193,268.8z"/>
		</g>
	</g>
	<g>
		<g>
			<path class="st3" d="M-199.6,245.4l-2.2,2.2c1.4,1.4,2.6,2.9,3.7,4.5l2.6-1.8C-196.7,248.6-198.1,246.9-199.6,245.4z"/>
		</g>
	</g>
	<g>
		<g>
			<path class="st3" d="M-211.4,296.3c-1.8,0.7-3.7,1.3-5.6,1.7l0.6,3.1c2.1-0.4,4.2-1,6.2-1.9L-211.4,296.3z"/>
		</g>
	</g>
	<g>
		<g>
			<path class="st3" d="M-192.4,256l-2.9,1.2c0.8,1.8,1.3,3.7,1.7,5.6l3.1-0.6C-190.9,260.1-191.6,258-192.4,256z"/>
		</g>
	</g>
	<g>
		<g>
			<path class="st3" d="M-195.3,280.2c-0.7,1.8-1.7,3.5-2.8,5.1l2.6,1.7c1.2-1.8,2.2-3.7,3-5.7L-195.3,280.2z"/>
		</g>
	</g>
	<g>
		<g>
			<path class="st3" d="M-222.8,298.6c-1.9,0-3.9-0.2-5.8-0.6l-0.6,3.1c2.1,0.4,4.2,0.6,6.4,0.6h0L-222.8,298.6z"/>
		</g>
	</g>
	<g>
		<g>
			<path class="st3" d="M-247.6,285.4l-2.6,1.8c1.2,1.8,2.6,3.5,4.1,5l2.2-2.2C-245.2,288.5-246.5,287-247.6,285.4z"/>
		</g>
	</g>
	<g>
		<g>
			<path class="st3" d="M-241.2,241.4c-1.8,1.2-3.5,2.6-5,4.1l2.2,2.2c1.4-1.4,2.9-2.6,4.5-3.7L-241.2,241.4z"/>
		</g>
	</g>
	<g>
		<g>
			<path class="st3" d="M-255.1,262.4c-0.4,2.1-0.6,4.2-0.6,6.4v0.1l3.1-0.1c0-1.9,0.2-3.9,0.6-5.8L-255.1,262.4z"/>
		</g>
	</g>
	<g>
		<g>
			<path class="st3" d="M-250.2,250.5c-1.2,1.8-2.2,3.7-3,5.7l2.9,1.2c0.7-1.8,1.7-3.5,2.7-5.2L-250.2,250.5z"/>
		</g>
	</g>
	<g>
		<g>
			<path class="st3" d="M-252,274.6l-3.1,0.6c0.4,2.1,1.1,4.2,1.9,6.2l2.9-1.2C-251.1,278.4-251.6,276.5-252,274.6z"/>
		</g>
	</g>
	<g>
		<g>
			<path class="st3" d="M-239.3,293.6l-1.7,2.6c1.8,1.2,3.7,2.2,5.7,3l1.2-2.9C-236,295.6-237.7,294.7-239.3,293.6z"/>
		</g>
	</g>
	<g>
		<g>
			<path class="st3" d="M-199.3,262.5c0-4.8-3-10-7.9-10.9c-0.5-5.4-4.9-9.5-10.3-9.5c-1.9,0-3.7,0.5-5.3,1.5
				c-1.6-1-3.4-1.5-5.3-1.5c-5.5,0.1-10.1,4.3-10.6,9.9c-4.6,1.4-7.7,5.7-7.6,10.5c0,2.2,0.7,4.4,1.9,6.3c-1.3,1.9-1.9,4-1.9,6.3
				c0,4.8,3,10,7.9,10.9c0.5,5.4,4.9,9.5,10.3,9.5c1.9,0,3.7-0.5,5.3-1.5c1.6,1,3.4,1.5,5.3,1.5c5.5-0.1,10.1-4.3,10.6-9.9
				c4.6-1.4,7.7-5.7,7.6-10.5c0-2.2-0.7-4.4-1.9-6.3C-199.9,266.9-199.3,264.7-199.3,262.5z M-224.4,256.2c0,1.7-1.4,3.1-3.1,3.1
				s-3.1-1.4-3.1-3.1h-3.1c0,3.5,2.8,6.3,6.3,6.3c1.1,0,2.2-0.3,3.1-0.9v29.6c-1.1,0.7-2.4,1.1-3.7,1.1c-3.7-0.1-6.7-2.9-7.1-6.5
				c3.3-0.9,5.3-4.4,4.4-7.7c-0.8-2.7-3.2-4.6-6-4.6v3.1c1.7,0,3.1,1.4,3.1,3.1s-1.4,3.1-3.1,3.1c-3.8,0-6.3-4.1-6.3-7.8
				c0-1.9,0.7-3.8,1.9-5.2c0.5-0.6,0.5-1.5,0-2.1c-1.3-1.5-1.9-3.3-1.9-5.2c-0.1-3.8,2.6-7,6.3-7.7c0.8-0.2,1.3-0.9,1.3-1.7
				c-0.1-4.2,3.3-7.7,7.5-7.8c1.3,0,2.6,0.4,3.7,1.1L-224.4,256.2L-224.4,256.2z M-204.4,269.8c1.3,1.5,1.9,3.3,1.9,5.2
				c0.1,3.8-2.6,7-6.3,7.7c-0.8,0.2-1.3,0.9-1.3,1.7c0.1,4.2-3.3,7.7-7.5,7.8c-1.3,0-2.6-0.4-3.7-1.1v-17.8c0-1.7,1.4-3.1,3.1-3.1
				s3.1,1.4,3.1,3.1h3.1c0-3.5-2.8-6.3-6.3-6.3c-1.1,0-2.2,0.3-3.1,0.9v-21.8c1.1-0.7,2.4-1.1,3.7-1.1c3.7,0.1,6.7,2.9,7.1,6.5
				c-3.3,0.9-5.3,4.4-4.4,7.7c0.8,2.7,3.2,4.6,6,4.6v-3.1c-1.7,0-3.1-1.4-3.1-3.1s1.4-3.1,3.1-3.1c3.8,0,6.3,4.1,6.3,7.8
				c0,1.9-0.7,3.8-1.9,5.2C-204.9,268.3-204.9,269.2-204.4,269.8z"/>
		</g>
	</g>
</g>
</svg>
