<?xml version="1.0" encoding="utf-8"?>
<!-- Generator: Adobe Illustrator 19.0.0, SVG Export Plug-In . SVG Version: 6.00 Build 0)  -->
<svg version="1.1" id="Layer_1" xmlns="http://www.w3.org/2000/svg" xmlns:xlink="http://www.w3.org/1999/xlink" x="0px" y="0px"
	 viewBox="-351 186.4 256.4 188.6" style="enable-background:new -351 186.4 256.4 188.6;" xml:space="preserve">
<style type="text/css">
	.st0{opacity:0.19;fill:#9E8B8A;enable-background:new    ;}
	.st1{enable-background:new    ;}
	.st2{fill:#FFFFFF;}
	.st3{fill:#C7B299;}
</style>
<path id="XMLID_40_" class="st0" d="M-114.9,375h-215.8c-11.2,0-20.3-9.1-20.3-20.3v-148c0-11.2,9.1-20.3,20.3-20.3h215.8
	c11.2,0,20.3,9.1,20.3,20.3v148C-94.6,365.9-103.7,375-114.9,375z"/>
<g class="st1">
	<path class="st2" d="M-271.7,208.6l2.5,0.4v2.1c0,0.3-0.1,0.6-0.2,0.9c-0.1,0.3-0.3,0.5-0.5,0.7c-0.2,0.2-0.4,0.4-0.7,0.5
		c-0.3,0.1-0.6,0.2-0.9,0.2h-4.6c-0.3,0-0.6-0.1-0.9-0.2c-0.3-0.1-0.5-0.3-0.7-0.5c-0.2-0.2-0.4-0.4-0.5-0.7
		c-0.1-0.3-0.2-0.6-0.2-0.9v-9.2c0-0.3,0.1-0.6,0.2-0.9c0.1-0.3,0.3-0.5,0.5-0.7c0.2-0.2,0.4-0.4,0.7-0.5c0.3-0.1,0.6-0.2,0.9-0.2
		h4.6c0.3,0,0.6,0.1,0.9,0.2c0.3,0.1,0.5,0.3,0.7,0.5c0.2,0.2,0.4,0.4,0.5,0.7c0.1,0.3,0.2,0.6,0.2,0.9v2l-2.5,0.4v-1.8
		c0-0.2-0.1-0.3-0.2-0.4c-0.1-0.1-0.2-0.2-0.4-0.2h-3.1c-0.2,0-0.3,0.1-0.4,0.2c-0.1,0.1-0.2,0.2-0.2,0.4v8.1c0,0.2,0.1,0.3,0.2,0.4
		c0.1,0.1,0.2,0.2,0.4,0.2h3.1c0.2,0,0.3-0.1,0.4-0.2c0.1-0.1,0.2-0.2,0.2-0.4V208.6z"/>
	<path class="st2" d="M-265.1,213.2c-0.3-0.1-0.5-0.3-0.7-0.5c-0.2-0.2-0.4-0.4-0.5-0.7c-0.1-0.3-0.2-0.6-0.2-0.9v-9.2
		c0-0.3,0.1-0.6,0.2-0.9c0.1-0.3,0.3-0.5,0.5-0.7c0.2-0.2,0.4-0.4,0.7-0.5c0.3-0.1,0.6-0.2,0.9-0.2h4.9c0.3,0,0.6,0.1,0.9,0.2
		c0.3,0.1,0.5,0.3,0.7,0.5c0.2,0.2,0.4,0.4,0.5,0.7c0.1,0.3,0.2,0.6,0.2,0.9v9.2c0,0.3-0.1,0.6-0.2,0.9c-0.1,0.3-0.3,0.5-0.5,0.7
		c-0.2,0.2-0.4,0.4-0.7,0.5c-0.3,0.1-0.6,0.2-0.9,0.2h-4.9C-264.5,213.4-264.8,213.3-265.1,213.2z M-259.5,202.5
		c0-0.2-0.1-0.3-0.2-0.4c-0.1-0.1-0.2-0.2-0.4-0.2h-3.3c-0.2,0-0.3,0.1-0.4,0.2c-0.1,0.1-0.2,0.2-0.2,0.4v8.1c0,0.2,0.1,0.3,0.2,0.4
		c0.1,0.1,0.2,0.2,0.4,0.2h3.3c0.2,0,0.3-0.1,0.4-0.2c0.1-0.1,0.2-0.2,0.2-0.4V202.5z"/>
	<path class="st2" d="M-254.1,199.6h6.7c0.3,0,0.6,0.1,0.9,0.2c0.3,0.1,0.5,0.3,0.7,0.5c0.2,0.2,0.4,0.4,0.5,0.7
		c0.1,0.3,0.2,0.6,0.2,0.9v9.2c0,0.3-0.1,0.6-0.2,0.9c-0.1,0.3-0.3,0.5-0.5,0.7c-0.2,0.2-0.4,0.4-0.7,0.5c-0.3,0.1-0.6,0.2-0.9,0.2
		h-6.7V199.6z M-247.6,202.5c0-0.2-0.1-0.3-0.2-0.4c-0.1-0.1-0.2-0.2-0.4-0.2h-3.5v9.2h3.5c0.2,0,0.3-0.1,0.4-0.2
		c0.1-0.1,0.2-0.2,0.2-0.4V202.5z"/>
	<path class="st2" d="M-242.1,199.6h8.3v2.3h-5.9v3.4h5.3v2.3h-5.3v3.5h5.9v2.3h-8.3V199.6z"/>
	<path class="st2" d="M-220.8,208c-0.4-0.1-0.7-0.2-1-0.3c-0.3-0.1-0.6-0.2-0.8-0.2c-0.3-0.1-0.5-0.2-0.8-0.2
		c-0.3-0.1-0.6-0.2-1-0.3c-0.3-0.1-0.6-0.2-0.9-0.3s-0.5-0.3-0.7-0.5s-0.4-0.4-0.5-0.6c-0.1-0.2-0.2-0.5-0.2-0.8v-2.8
		c0-0.3,0.1-0.6,0.2-0.9c0.1-0.3,0.3-0.5,0.5-0.7c0.2-0.2,0.4-0.4,0.7-0.5c0.3-0.1,0.6-0.2,0.9-0.2h4.4c0.3,0,0.6,0.1,0.9,0.2
		c0.3,0.1,0.5,0.3,0.7,0.5c0.2,0.2,0.4,0.4,0.5,0.7c0.1,0.3,0.2,0.6,0.2,0.9v1.6l-2.5,0.4v-1.5c0-0.2-0.1-0.3-0.2-0.4
		c-0.1-0.1-0.2-0.2-0.4-0.2h-2.8c-0.2,0-0.3,0.1-0.4,0.2c-0.1,0.1-0.2,0.2-0.2,0.4v1.7c0,0.2,0.1,0.3,0.2,0.4
		c0.1,0.1,0.2,0.2,0.4,0.2c0.6,0.2,1.2,0.3,1.8,0.5c0.6,0.2,1.2,0.3,2,0.6c0.6,0.2,1.1,0.4,1.5,0.8c0.4,0.3,0.6,0.8,0.6,1.5v3.1
		c0,0.3-0.1,0.6-0.2,0.9s-0.3,0.5-0.5,0.7c-0.2,0.2-0.4,0.4-0.7,0.5c-0.3,0.1-0.6,0.2-0.9,0.2h-4.5c-0.3,0-0.6-0.1-0.9-0.2
		c-0.3-0.1-0.5-0.3-0.7-0.5c-0.2-0.2-0.4-0.4-0.5-0.7c-0.1-0.3-0.2-0.6-0.2-0.9v-1.6l2.5-0.4v1.4c0,0.2,0.1,0.3,0.2,0.4
		c0.1,0.1,0.2,0.2,0.4,0.2h2.9c0.2,0,0.3-0.1,0.4-0.2c0.1-0.1,0.2-0.2,0.2-0.4v-2c0-0.2-0.1-0.3-0.2-0.4
		C-220.5,208.1-220.6,208.1-220.8,208z"/>
	<path class="st2" d="M-216.1,199.6h10v2.3h-3.7v11.5h-2.5v-11.5h-3.7V199.6z"/>
	<path class="st2" d="M-203.1,213.2c-0.3-0.1-0.5-0.3-0.7-0.5c-0.2-0.2-0.4-0.4-0.5-0.7c-0.1-0.3-0.2-0.6-0.2-0.9v-9.2
		c0-0.3,0.1-0.6,0.2-0.9c0.1-0.3,0.3-0.5,0.5-0.7c0.2-0.2,0.4-0.4,0.7-0.5c0.3-0.1,0.6-0.2,0.9-0.2h4.9c0.3,0,0.6,0.1,0.9,0.2
		c0.3,0.1,0.5,0.3,0.7,0.5c0.2,0.2,0.4,0.4,0.5,0.7s0.2,0.6,0.2,0.9v9.2c0,0.3-0.1,0.6-0.2,0.9s-0.3,0.5-0.5,0.7
		c-0.2,0.2-0.4,0.4-0.7,0.5c-0.3,0.1-0.6,0.2-0.9,0.2h-4.9C-202.6,213.4-202.9,213.3-203.1,213.2z M-197.6,202.5
		c0-0.2-0.1-0.3-0.2-0.4s-0.2-0.2-0.4-0.2h-3.3c-0.2,0-0.3,0.1-0.4,0.2c-0.1,0.1-0.2,0.2-0.2,0.4v8.1c0,0.2,0.1,0.3,0.2,0.4
		c0.1,0.1,0.2,0.2,0.4,0.2h3.3c0.2,0,0.3-0.1,0.4-0.2c0.1-0.1,0.2-0.2,0.2-0.4V202.5z"/>
	<path class="st2" d="M-187,208.1h-2.6v5.3h-2.5v-13.8h7.2c0.3,0,0.6,0.1,0.9,0.2c0.3,0.1,0.5,0.3,0.7,0.5c0.2,0.2,0.4,0.4,0.5,0.7
		s0.2,0.6,0.2,0.9v3.9c0,0.5-0.2,1-0.5,1.4s-0.7,0.7-1.2,0.8l2.6,5.4h-2.7L-187,208.1z M-185.1,202.5c0-0.2-0.1-0.3-0.2-0.4
		s-0.2-0.2-0.4-0.2h-4v3.9h4c0.2,0,0.3-0.1,0.4-0.2c0.1-0.1,0.2-0.2,0.2-0.4V202.5z"/>
	<path class="st2" d="M-177.1,205.2v8.2h-2.4v-13.8h2.4l3.7,8.4l3.7-8.4h2.4v13.8h-2.4l0-8.2l-2.6,5.9h-2.1L-177.1,205.2z"/>
</g>
<g id="surface1">
	<path class="st3" d="M-179.4,257.3H-199c-0.8,0-1.4,0.6-1.4,1.4c0,0.8,0.6,1.4,1.4,1.4h19.5c0.8,0,1.5,0.7,1.5,1.5v53.8
		c0,0.8-0.7,1.5-1.5,1.5h-86.8c-0.8,0-1.5-0.7-1.5-1.5v-53.8c0-0.8,0.7-1.5,1.5-1.5h30.7v2.8h-28c-0.8,0-1.4,0.6-1.4,1.4v36.9
		c0,0.8,0.6,1.4,1.4,1.4c0.8,0,1.4-0.6,1.4-1.4v-35.5h26.6v7.5l-6,2.9c-0.5,0.2-0.8,0.7-0.8,1.3V300c0,0.5,0.3,1,0.8,1.3l18.1,8.6
		c0.4,0.2,0.8,0.2,1.2,0l10.2-4.9c0.7-0.3,1-1.2,0.7-1.9c-0.3-0.7-1.2-1-1.9-0.7l-8.2,3.9v-19.7l15.3-7.3v19.7l-2.1,1
		c-0.7,0.3-1,1.2-0.7,1.9c0.3,0.7,1.2,1,1.9,0.7l2.9-1.4c0.5-0.2,0.8-0.7,0.8-1.3v-22.8c0-0.5-0.3-1-0.8-1.3l-6-2.9v-7.5h26.6v45.6
		h-78.6v-4.2c0-0.8-0.6-1.4-1.4-1.4c-0.8,0-1.4,0.6-1.4,1.4v5.6c0,0.8,0.6,1.4,1.4,1.4h81.4c0.8,0,1.4-0.6,1.4-1.4v-48.4
		c0-0.8-0.6-1.4-1.4-1.4h-28V260h5.2c0.8,0,1.4-0.6,1.4-1.4c0-0.8-0.6-1.4-1.4-1.4h-5.2v-2.8h12.5c0.8,0,1.4-0.6,1.4-1.4v-3.3
		c1.6-0.6,2.8-2.1,2.8-4c0-2.3-1.9-4.2-4.2-4.2c-2.3,0-4.2,1.9-4.2,4.2c0,1.8,1.2,3.4,2.8,4v1.9h-12.5c-0.8,0-1.4,0.6-1.4,1.4v4.2
		h-8.5v-7.5c1.6-0.6,2.8-2.1,2.8-4c0-2.3-1.9-4.2-4.2-4.2c-2.3,0-4.2,1.9-4.2,4.2c0,1.8,1.2,3.4,2.8,4v7.5h-8.5v-4.2
		c0-0.8-0.6-1.4-1.4-1.4h-12.5v-1.9c1.6-0.6,2.8-2.1,2.8-4c0-2.3-1.9-4.2-4.2-4.2c-2.3,0-4.2,1.9-4.2,4.2c0,1.8,1.2,3.4,2.8,4v3.3
		c0,0.8,0.6,1.4,1.4,1.4h12.5v2.8h-30.7c-2.4,0-4.3,1.9-4.3,4.3v53.8c0,2.4,1.9,4.3,4.3,4.3h30.3c-0.5,5.1-3.9,8.1-5,8.9h-5.9
		c-2.3,0-4.2,1.9-4.2,4.2s1.9,4.2,4.2,4.2h48.1c2.3,0,4.2-1.9,4.2-4.2s-1.9-4.2-4.2-4.2h-5.9c-1.1-0.8-4.5-3.8-5-8.9h30.3
		c2.4,0,4.3-1.9,4.3-4.3v-53.8C-175.1,259.2-177,257.3-179.4,257.3z M-197.6,244.4c0.8,0,1.4,0.6,1.4,1.4c0,0.8-0.6,1.4-1.4,1.4
		s-1.4-0.6-1.4-1.4C-199,245-198.4,244.4-197.6,244.4z M-222.8,244.4c0.8,0,1.4,0.6,1.4,1.4c0,0.8-0.6,1.4-1.4,1.4
		c-0.8,0-1.4-0.6-1.4-1.4C-224.2,245-223.6,244.4-222.8,244.4z M-248,244.4c0.8,0,1.4,0.6,1.4,1.4c0,0.8-0.6,1.4-1.4,1.4
		c-0.8,0-1.4-0.6-1.4-1.4C-249.4,245-248.8,244.4-248,244.4z M-232.7,265.6h8.5v2.1l-8.5,4.1V265.6z M-208,277.2l-14.8,7.1
		l-14.8-7.1l14.8-7.1L-208,277.2z M-239.5,279.5l15.3,7.3v19.7l-15.3-7.3V279.5z M-212.9,271.8l-8.5-4.1v-2.1h8.5V271.8z
		 M-212.9,260v2.8h-8.5V260H-212.9z M-224.2,260v2.8h-8.5V260H-224.2z M-197.4,332.8c0,0.8-0.6,1.4-1.4,1.4h-48.1
		c-0.8,0-1.4-0.6-1.4-1.4s0.6-1.4,1.4-1.4h48.1C-198,331.4-197.4,332-197.4,332.8z M-208.7,328.6h-28.2c1.6-1.9,3.5-4.9,3.8-8.9
		h20.6C-212.2,323.7-210.3,326.7-208.7,328.6z"/>
</g>
</svg>
