<?xml version="1.0" encoding="utf-8"?>
<!-- Generator: Adobe Illustrator 19.0.0, SVG Export Plug-In . SVG Version: 6.00 Build 0)  -->
<svg version="1.1" id="Layer_1" xmlns="http://www.w3.org/2000/svg" xmlns:xlink="http://www.w3.org/1999/xlink" x="0px" y="0px"
	 viewBox="0 0 351 394.8" style="enable-background:new 0 0 351 394.8;" xml:space="preserve">
<style type="text/css">
	.st0{opacity:0.49;fill:none;}
	.st1{fill:#333335;}
	.st2{opacity:0.5;fill:#333335;}
	.st3{opacity:0.49;fill:#333335;}
</style>
<path id="XMLID_66_" class="st0" d="M216.9,166.9l-34.7-20c-3.8-2.2-8.4-2.2-12.2,0l-35.3,20c-3.8,2.2-6.8,6.2-6.8,10.5v40
	c0,4.3,3.1,8.4,6.8,10.5l35.1,20c3.8,2.2,8.6,2.2,12.4,0l34.6-20c3.8-2.2,6.2-6.2,6.2-10.5v-40C223,173,220.7,169,216.9,166.9z
	 M219,215.5c0,4.3-2,8.3-5.7,10.5l-31.1,18.1c-3.8,2.2-8.3,2.2-12.1,0L138.4,226c-3.7-2.2-6.4-6.2-6.4-10.5v-36.2
	c0-4.3,2.7-8.3,6.5-10.5l31.5-18.1c3.8-2.2,8.5-2.2,12.3,0l31,18.1c3.7,2.2,5.8,6.2,5.8,10.5V215.5z"/>
<path id="XMLID_64_" class="st1" d="M227.2,160.8l-45.1-26.1c-3.8-2.2-8.3-2.2-12.1,0l-45.5,26.1c-3.8,2.2-6.5,6.2-6.5,10.5v52.1
	c0,4.3,2.8,8.3,6.6,10.5L170,260c3.8,2.2,8.5,2.2,12.3,0l44.8-26.1c3.8-2.2,5.9-6.2,5.9-10.5v-52.1C233,167,230.9,163,227.2,160.8z
	 M232,223.3c0,1.4,0.3,2.7-0.1,3.9c-0.2,0.5-0.1,1-0.3,1.5c-0.1,0.3-0.2,0.6-0.3,0.9c-0.2,0.3-0.3,0.6-0.5,0.8
	c-0.4,0.5-0.8,1-1.2,1.5c-0.2,0.2-0.4,0.4-0.6,0.5c-0.4,0.4-0.8,0.7-1.3,1c-0.2,0.2-0.4,0.3-0.7,0.4l-9.7,5.6l-35.1,20.3
	c-0.4,0.2-0.9,0.5-1.3,0.7c-0.2,0.1-0.4,0.2-0.6,0.2c-0.4,0.2-0.9,0.3-1.3,0.4c-0.7,0.2-1.4,0.3-2,0.3c-0.5,0-1,0-1.5,0
	c-1.9-0.1-3.7-1-5.3-1.9l-44.7-26.2h0c-0.7,0-1.4-0.6-1.9-1.1c-0.4-0.4-0.9-0.7-1.2-1.1c-0.6-0.7-1.2-1.5-1.6-2.4
	c-0.2-0.5-0.4-0.9-0.6-1.4c-0.1-0.3-0.4-0.6-0.5-0.9c-0.2-1-0.6-1.9-0.6-3v-51.8c0-1.4,0.5-2.7,0.9-3.9c0.2-0.5,0.5-1,0.7-1.5
	c0.6-1.2,1.5-2.4,2.4-3.3c0.1-0.1,0.3-0.3,0.5-0.4c0.1-0.1,0.3-0.3,0.5-0.4c0.5-0.4,1-0.7,1.5-1l9.7-5.6l35.1-20.3
	c0.6-0.4,1.2-0.6,1.9-0.9c0.2-0.1,0.4-0.1,0.7-0.2c0.2-0.1,0.5-0.1,0.7-0.2c0.7-0.2,1.4-0.3,2-0.3c0.5,0,1,0,1.5,0
	c1.8,0.1,3.7,0.7,5.3,1.7l44.7,25.9h0c0.9,1,1.8,1.1,2.5,1.9c0.3,0.4,0.7,0.7,1,1.1c0.5,0.6,0.9,1.3,1.3,2.1
	c0.1,0.2,0.2,0.5,0.3,0.7c0.1,0.1,0.1,0.2,0.1,0.4c0,0.1,0.1,0.2,0.1,0.4c0.1,0.1,0.1,0.3,0.1,0.4c0,0.2-0.4,0.3-0.4,0.5
	c0.2,1-0.2,2-0.2,3V223.3z"/>
<path id="XMLID_60_" class="st1" d="M227.2,160.8l-45.1-26.1c-3.8-2.2-8.3-2.2-12.1,0l-45.5,26.1c-3.8,2.2-6.5,6.2-6.5,10.5v52.1
	c0,4.3,2.8,8.3,6.6,10.5L170,260c3.8,2.2,8.5,2.2,12.3,0l44.8-26.1c3.8-2.2,5.9-6.2,5.9-10.5v-52.1C233,167,230.9,163,227.2,160.8z
	 M232,223.3c0,1.4,0.3,2.7-0.1,3.9c-0.2,0.5-0.1,1-0.3,1.5c-0.1,0.3-0.2,0.6-0.3,0.9c-0.2,0.3-0.3,0.6-0.5,0.8
	c-0.4,0.5-0.8,1-1.2,1.5c-0.2,0.2-0.4,0.4-0.6,0.5c-0.4,0.4-0.8,0.7-1.3,1c-0.2,0.2-0.4,0.3-0.7,0.4l-9.7,5.6l-35.1,20.3
	c-0.4,0.2-0.9,0.5-1.3,0.7c-0.2,0.1-0.4,0.2-0.6,0.2c-0.4,0.2-0.9,0.3-1.3,0.4c-0.7,0.2-1.4,0.3-2,0.3c-0.5,0-1,0-1.5,0
	c-1.9-0.1-3.7-1-5.3-1.9l-44.7-26.2h0c-0.7,0-1.4-0.6-1.9-1.1c-0.4-0.4-0.9-0.7-1.2-1.1c-0.6-0.7-1.2-1.5-1.6-2.4
	c-0.2-0.5-0.4-0.9-0.6-1.4c-0.1-0.3-0.4-0.6-0.5-0.9c-0.2-1-0.6-1.9-0.6-3v-51.8c0-1.4,0.5-2.7,0.9-3.9c0.2-0.5,0.5-1,0.7-1.5
	c0.6-1.2,1.5-2.4,2.4-3.3c0.1-0.1,0.3-0.3,0.5-0.4c0.1-0.1,0.3-0.3,0.5-0.4c0.5-0.4,1-0.7,1.5-1l9.7-5.6l35.1-20.3
	c0.6-0.4,1.2-0.6,1.9-0.9c0.2-0.1,0.4-0.1,0.7-0.2c0.2-0.1,0.5-0.1,0.7-0.2c0.7-0.2,1.4-0.3,2-0.3c0.5,0,1,0,1.5,0
	c1.8,0.1,3.7,0.7,5.3,1.7l44.7,25.9h0c0.9,1,1.8,1.1,2.5,1.9c0.3,0.4,0.7,0.7,1,1.1c0.5,0.6,0.9,1.3,1.3,2.1
	c0.1,0.2,0.2,0.5,0.3,0.7c0.1,0.1,0.1,0.2,0.1,0.4c0,0.1,0.1,0.2,0.1,0.4c0.1,0.1,0.1,0.3,0.1,0.4c0,0.2-0.4,0.3-0.4,0.5
	c0.2,1-0.2,2-0.2,3V223.3z"/>
<path id="XMLID_55_" class="st1" d="M227.2,160.8l-45.1-26.1c-3.8-2.2-8.3-2.2-12.1,0l-45.5,26.1c-3.8,2.2-6.5,6.2-6.5,10.5v52.1
	c0,4.3,2.8,8.3,6.6,10.5L170,260c3.8,2.2,8.5,2.2,12.3,0l44.8-26.1c3.8-2.2,5.9-6.2,5.9-10.5v-52.1C233,167,230.9,163,227.2,160.8z
	 M232,223.3c0,1.4,0.3,2.7-0.1,3.9c-0.2,0.5-0.1,1-0.3,1.5c-0.1,0.3-0.2,0.6-0.3,0.9c-0.2,0.3-0.3,0.6-0.5,0.8
	c-0.4,0.5-0.8,1-1.2,1.5c-0.2,0.2-0.4,0.4-0.6,0.5c-0.4,0.4-0.8,0.7-1.3,1c-0.2,0.2-0.4,0.3-0.7,0.4l-9.7,5.6l-35.1,20.3
	c-0.4,0.2-0.9,0.5-1.3,0.7c-0.2,0.1-0.4,0.2-0.6,0.2c-0.4,0.2-0.9,0.3-1.3,0.4c-0.7,0.2-1.4,0.3-2,0.3c-0.5,0-1,0-1.5,0
	c-1.9-0.1-3.7-1-5.3-1.9l-44.7-26.2h0c-0.7,0-1.4-0.6-1.9-1.1c-0.4-0.4-0.9-0.7-1.2-1.1c-0.6-0.7-1.2-1.5-1.6-2.4
	c-0.2-0.5-0.4-0.9-0.6-1.4c-0.1-0.3-0.4-0.6-0.5-0.9c-0.2-1-0.6-1.9-0.6-3v-51.8c0-1.4,0.5-2.7,0.9-3.9c0.2-0.5,0.5-1,0.7-1.5
	c0.6-1.2,1.5-2.4,2.4-3.3c0.1-0.1,0.3-0.3,0.5-0.4c0.1-0.1,0.3-0.3,0.5-0.4c0.5-0.4,1-0.7,1.5-1l9.7-5.6l35.1-20.3
	c0.6-0.4,1.2-0.6,1.9-0.9c0.2-0.1,0.4-0.1,0.7-0.2c0.2-0.1,0.5-0.1,0.7-0.2c0.7-0.2,1.4-0.3,2-0.3c0.5,0,1,0,1.5,0
	c1.8,0.1,3.7,0.7,5.3,1.7l44.7,25.9h0c0.9,1,1.8,1.1,2.5,1.9c0.3,0.4,0.7,0.7,1,1.1c0.5,0.6,0.9,1.3,1.3,2.1
	c0.1,0.2,0.2,0.5,0.3,0.7c0.1,0.1,0.1,0.2,0.1,0.4c0,0.1,0.1,0.2,0.1,0.4c0.1,0.1,0.1,0.3,0.1,0.4c0,0.2-0.4,0.3-0.4,0.5
	c0.2,1-0.2,2-0.2,3V223.3z"/>
<path id="XMLID_48_" class="st1" d="M227.2,160.8l-45.1-26.1c-3.8-2.2-8.3-2.2-12.1,0l-45.5,26.1c-3.8,2.2-6.5,6.2-6.5,10.5v52.1
	c0,4.3,2.8,8.3,6.6,10.5L170,260c3.8,2.2,8.5,2.2,12.3,0l44.8-26.1c3.8-2.2,5.9-6.2,5.9-10.5v-52.1C233,167,230.9,163,227.2,160.8z
	 M232,223.3c0,1.4,0.3,2.7-0.1,3.9c-0.2,0.5-0.1,1-0.3,1.5c-0.1,0.3-0.2,0.6-0.3,0.9c-0.2,0.3-0.3,0.6-0.5,0.8
	c-0.4,0.5-0.8,1-1.2,1.5c-0.2,0.2-0.4,0.4-0.6,0.5c-0.4,0.4-0.8,0.7-1.3,1c-0.2,0.2-0.4,0.3-0.7,0.4l-9.7,5.6l-35.1,20.3
	c-0.4,0.2-0.9,0.5-1.3,0.7c-0.2,0.1-0.4,0.2-0.6,0.2c-0.4,0.2-0.9,0.3-1.3,0.4c-0.7,0.2-1.4,0.3-2,0.3c-0.5,0-1,0-1.5,0
	c-1.9-0.1-3.7-1-5.3-1.9l-44.7-26.2h0c-0.7,0-1.4-0.6-1.9-1.1c-0.4-0.4-0.9-0.7-1.2-1.1c-0.6-0.7-1.2-1.5-1.6-2.4
	c-0.2-0.5-0.4-0.9-0.6-1.4c-0.1-0.3-0.4-0.6-0.5-0.9c-0.2-1-0.6-1.9-0.6-3v-51.8c0-1.4,0.5-2.7,0.9-3.9c0.2-0.5,0.5-1,0.7-1.5
	c0.6-1.2,1.5-2.4,2.4-3.3c0.1-0.1,0.3-0.3,0.5-0.4c0.1-0.1,0.3-0.3,0.5-0.4c0.5-0.4,1-0.7,1.5-1l9.7-5.6l35.1-20.3
	c0.6-0.4,1.2-0.6,1.9-0.9c0.2-0.1,0.4-0.1,0.7-0.2c0.2-0.1,0.5-0.1,0.7-0.2c0.7-0.2,1.4-0.3,2-0.3c0.5,0,1,0,1.5,0
	c1.8,0.1,3.7,0.7,5.3,1.7l44.7,25.9h0c0.9,1,1.8,1.1,2.5,1.9c0.3,0.4,0.7,0.7,1,1.1c0.5,0.6,0.9,1.3,1.3,2.1
	c0.1,0.2,0.2,0.5,0.3,0.7c0.1,0.1,0.1,0.2,0.1,0.4c0,0.1,0.1,0.2,0.1,0.4c0.1,0.1,0.1,0.3,0.1,0.4c0,0.2-0.4,0.3-0.4,0.5
	c0.2,1-0.2,2-0.2,3V223.3z"/>
<path id="XMLID_39_" class="st1" d="M332.9,85L194.6,5c-11.6-6.7-25.6-6.7-37.2,0L18.8,85C7.2,91.7,0,104,0,117.3v160.1
	c0,13.3,7.3,25.7,18.8,32.3l138.6,80c11.6,6.7,25.8,6.7,37.4,0l138-80c11.5-6.7,18.1-19,18.1-32.3V117.3
	C351,104,344.4,91.7,332.9,85z M350,276.9c0,2.1,0.4,4.1,0,6.2c-0.1,0.8,0,1.6-0.2,2.4c-0.2,0.8-0.3,1.6-0.5,2.4
	c-0.1,0.3-0.1,0.6-0.2,0.9c-0.2,0.6-0.4,1.1-0.6,1.7c-0.1,0.3-0.2,0.6-0.3,0.8c-1.9,4.5-4.6,8.6-8,12c-2.3,2.3-4.9,4.3-7.8,6
	l-137.5,79.5c-1.1,0.6-2.2,1.2-3.3,1.7c0,0,0,0,0,0c-0.6,0.3-1.1,0.5-1.7,0.7c-0.3,0.1-0.6,0.2-0.9,0.3c-0.3,0.1-0.6,0.2-1,0.3
	c-2.3,0.8-4.6,1.3-7,1.6c-3.2,0.4-6.4,0.4-9.6,0c-4.8-0.6-9.5-2.2-13.8-4.7L20.1,309.1h0c-2.9-2-5.5-3.7-7.8-6
	c-0.1-0.1-0.2-0.2-0.3-0.3c-0.2-0.2-0.4-0.4-0.6-0.6c-0.2-0.2-0.4-0.5-0.6-0.7c-0.2-0.2-0.3-0.3-0.4-0.5c-0.1-0.1-0.2-0.2-0.3-0.3
	c-0.1-0.1-0.2-0.2-0.3-0.3l-0.1-0.2c0-0.1-0.1-0.1-0.1-0.2c-0.1-0.1-0.2-0.2-0.3-0.4c-0.6-0.7-1.3-1.5-1.8-2.2
	c-4-6-6.5-13.2-6.5-20.7V117.9c0-7.5,2.5-14.7,6.5-20.7c0.7-1,1.5-2,2.3-2.9c0.5-0.6,1.1-1.2,1.6-1.8c0.3-0.3,0.6-0.6,0.9-0.9
	c2.3-2.3,4.9-4.3,7.8-6L157.6,6.1c0.4-0.2,0.8-0.4,1.2-0.7c0.4-0.2,0.8-0.4,1.2-0.6c0.3-0.1,0.5-0.3,0.8-0.4
	c0.4-0.2,0.7-0.3,1.1-0.5c0.3-0.1,0.6-0.2,0.9-0.4c0.6-0.2,1.2-0.4,1.8-0.6c1.3-0.4,2.7-0.8,4-1.1c0.5-0.1,1.1-0.2,1.6-0.3
	c0.4-0.1,0.8-0.1,1.2-0.2c3.2-0.4,6.4-0.4,9.6,0c4.8,0.6,9.5,2.4,13.9,5l137.5,79.7h0c0.7,0,1.4,0.6,2.1,1c0.3,0.2,0.5,0.2,0.8,0.4
	c1.8,1.2,3.4,2.6,4.9,4.1c1.7,1.7,3.1,3.5,4.4,5.5c0.2,0.3,0,0.6,0.1,0.8c0.3,0.4,0.3,0.9,0.3,1.3v0c1,0.3,0.8,0.7,1,1
	c0.6,1.1,1.4,2.1,1.9,3.2c0.2,0.6,0.6,1.1,0.8,1.7c0,0,0.1,0,0.1,0c0.1,0.3,0.2,0.6,0.3,0.9c0.1,0.3,0.2,0.6,0.3,0.9
	c0.2,0.8,0.5,1.6,0.6,2.3c0,0.1,0,0.1,0.1,0.2c0.2,0.7-0.2,1.4-0.1,2.2c0.3,2,0,4.1,0,6.2V276.9z"/>
<path id="XMLID_30_" class="st1" d="M350,111.8c-0.1-0.7,0-1.5-0.2-2.2c0-0.1,0.1-0.1,0.1-0.2c-0.2-0.8-0.3-1.6-0.6-2.3
	c-0.1-0.3-0.2-0.6-0.3-0.9c-0.1-0.3-0.2-0.6-0.3-0.9c0,0,0,0,0,0c-0.2-0.6-0.5-1.1-0.7-1.7c-0.5-1.1-1.4-2.2-2-3.2
	c-0.2-0.4,0-0.7-1-1v0c0-0.5,0-0.9-0.3-1.3c-0.2-0.3-0.2-0.6-0.4-0.9c-1.3-2-2.7-3.8-4.4-5.5c-1.5-1.5-3.1-3-4.8-4.2
	c-0.2-0.2-0.5-0.1-0.7-0.3c-0.7-0.4-1.4-1-2.1-1h0L194.8,6.4c-4.3-2.5-9-4.2-13.8-4.8c-3.2-0.4-6.4-0.5-9.6-0.1
	c-0.4,0.1-0.8,0.1-1.2,0.1c-0.6,0.1-1.1,0.2-1.6,0.3c-1.4,0.3-2.7,0.6-4,1.1c-0.6,0.2-1.2,0.4-1.8,0.6c-0.3,0.1-0.6,0.2-0.9,0.4
	c-0.4,0.2-0.7,0.3-1.1,0.5c-0.3,0.1-0.5,0.3-0.8,0.4c-0.4,0.2-0.8,0.4-1.2,0.6c-0.4,0.2-0.8,0.4-1.2,0.7L20,85.6
	c-2.9,1.7-5.5,3.7-7.8,6c-0.3,0.3-0.6,0.6-0.8,0.9c-0.6,0.6-1.1,1.2-1.6,1.8c-0.8,0.9-1.7,1.9-2.3,2.9c-4,6-6.4,13.2-6.4,20.7v158.9
	c0,7.5,2.4,14.7,6.4,20.7c0.5,0.8,1.1,1.5,1.7,2.2c0.1,0.1,0.2,0.3,0.3,0.4c0,0.1,0.1,0.1,0.2,0.2l0.1,0.2c0.1,0.1,0.2,0.2,0.3,0.3
	c0.1,0.1,0.2,0.2,0.3,0.3c0.1,0.2,0.3,0.3,0.4,0.5c0.2,0.2,0.4,0.5,0.6,0.7c0.2,0.2,0.4,0.4,0.6,0.6c0.1,0.1,0.2,0.2,0.3,0.3
	c2.3,2.3,4.9,4,7.8,6h0l137.5,79.5c4.3,2.5,9,4.1,13.8,4.7c3.2,0.4,6.4,0.4,9.6,0c2.4-0.3,4.7-0.8,7-1.6c0.3-0.1,0.7-0.2,1-0.3
	c0.3-0.1,0.6-0.2,0.9-0.3c0.6-0.2,1.1-0.5,1.7-0.7c0,0,0,0,0,0c1.1-0.5,2.2-1.1,3.3-1.7l137.5-79.5c2.9-1.7,5.5-3.7,7.8-6
	c3.4-3.5,6.1-7.5,8-12c0.1-0.3,0.2-0.6,0.3-0.8c0.2-0.6,0.4-1.1,0.6-1.7c0.1-0.3,0.2-0.6,0.3-0.9c0.2-0.8,0.4-1.6,0.6-2.4
	c0.2-0.8-0.1-1.6,0-2.4c0.3-2,0-4.1,0-6.2V117.9C350,115.8,350.3,113.8,350,111.8z M319,258.9c0,13.3-6.7,25.6-18.3,32.3
	l-106.1,61.4c-11.6,6.7-25.7,6.7-37.3,0L50.9,291.2c-11.5-6.7-18.9-19-18.9-32.3V135.9c0-13.3,7.4-25.6,18.9-32.3l106.4-61.4
	c11.5-6.7,25.9-6.7,37.4,0l105.9,61.4c11.5,6.7,18.3,19,18.3,32.3V258.9z"/>
<path id="XMLID_26_" class="st2" d="M300.8,103.6l-106-61.4c-11.5-6.7-25.7-6.7-37.2,0L50.9,103.6c-11.5,6.7-18.9,19-18.9,32.3
	v122.9c0,13.3,7.4,25.6,18.9,32.3l106.4,61.4c11.5,6.7,25.9,6.7,37.4,0l106-61.4c11.5-6.7,18.3-19,18.3-32.3V135.9
	C319,122.6,312.3,110.3,300.8,103.6z M309,253c0,13.3-6.8,25.6-18.3,32.3l-95.9,55.6c-11.6,6.7-25.8,6.7-37.3,0L61,285.3
	c-11.5-6.7-19-19-19-32.3V141.7c0-13.3,7.5-25.6,19.1-32.3l96.3-55.6c11.6-6.7,25.9-6.7,37.5,0l95.8,55.6
	c11.5,6.7,18.4,19,18.4,32.3V253z"/>
<path id="XMLID_22_" class="st1" d="M290.6,109.4l-95.8-55.6c-11.6-6.7-25.9-6.7-37.4,0l-95.8,55.6C50,116.1,43,128.4,43,141.7V253
	c0,13.3,6.9,25.6,18.5,32.3l96,55.6c11.6,6.7,25.7,6.7,37.3,0l95.9-55.6c11.5-6.7,18.4-19,18.4-32.3V141.7
	C309,128.4,302.1,116.1,290.6,109.4z M290,249.2c0,0.1-0.2,0.2-0.2,0.2c0,0.8-0.1,1.6-0.2,2.3c0,0.1,0,0.1-0.1,0.2
	c0,0.2-0.1,0.4-0.1,0.7c0,0.3-0.1,0.5-0.1,0.8c-0.1,0.5-0.2,0.9-0.3,1.4c-0.1,0.2-0.1,0.5-0.2,0.7c0,0.1-0.1,0.2-0.1,0.4
	c-0.1,0.2-0.1,0.4-0.2,0.6c-0.3,0.9-0.6,1.9-1,2.8c-0.1,0.2-0.2,0.5-0.3,0.7c-0.1,0.2-0.2,0.5-0.4,0.7c-0.1,0.2-0.2,0.5-0.4,0.7
	c-0.1,0.3-0.3,0.5-0.4,0.8c-0.2,0.4-0.5,0.8-0.8,1.2c-1.9,2.8-4.5,5.1-7.5,6.9l-89.6,51.8c-7.5,4.3-16.7,4.3-24.1,0l-89.3-51.8
	c-7.5-4.3-11.7-12.3-11.7-20.9V145.6c0-8.6,4.2-16.6,11.7-20.9l89.5-51.8c7.5-4.3,16.6-4.3,24.1,0l89.5,51.8c2.8,1.6,5.1,3.7,7,6.2
	c0.1,0.2,0.3,0.4,0.4,0.5c0.3,0.4,0.6,0.9,0.9,1.4c0.1,0.2,0.3,0.4,0.4,0.7c0.1,0.2,0.2,0.4,0.3,0.6c0.4,0.7,0.7,1.4,1,2.2
	c0.1,0.2,0.2,0.4,0.2,0.6c0.3,0.8,0.6,1.5,0.8,2.3c0.1,0.2,0.1,0.5,0.2,0.8c0.1,0.5,0.2,1,0.3,1.5c0.2,1.3,0.5,2.6,0.5,3.9
	c0,0.1,0.2,0.2,0.2,0.2V249.2z"/>
<path id="XMLID_18_" class="st1" d="M227.2,160.8l-45.1-26.1c-3.8-2.2-8.3-2.2-12.1,0l-45.5,26.1c-3.8,2.2-6.5,6.2-6.5,10.5v52.1
	c0,4.3,2.8,8.3,6.6,10.5L170,260c3.8,2.2,8.5,2.2,12.3,0l44.8-26.1c3.8-2.2,5.9-6.2,5.9-10.5v-52.1C233,167,230.9,163,227.2,160.8z
	 M232,223.3c0,1.4,0.3,2.7-0.1,3.9c-0.2,0.5-0.1,1-0.3,1.5c-0.1,0.3-0.2,0.6-0.3,0.9c-0.2,0.3-0.3,0.6-0.5,0.8
	c-0.4,0.5-0.8,1-1.2,1.5c-0.2,0.2-0.4,0.4-0.6,0.5c-0.4,0.4-0.8,0.7-1.3,1c-0.2,0.2-0.4,0.3-0.7,0.4l-9.7,5.6l-35.1,20.3
	c-0.4,0.2-0.9,0.5-1.3,0.7c-0.2,0.1-0.4,0.2-0.6,0.2c-0.4,0.2-0.9,0.3-1.3,0.4c-0.7,0.2-1.4,0.3-2,0.3c-0.5,0-1,0-1.5,0
	c-1.9-0.1-3.7-1-5.3-1.9l-44.7-26.2h0c-0.7,0-1.4-0.6-1.9-1.1c-0.4-0.4-0.9-0.7-1.2-1.1c-0.6-0.7-1.2-1.5-1.6-2.4
	c-0.2-0.5-0.4-0.9-0.6-1.4c-0.1-0.3-0.4-0.6-0.5-0.9c-0.2-1-0.6-1.9-0.6-3v-51.8c0-1.4,0.5-2.7,0.9-3.9c0.2-0.5,0.5-1,0.7-1.5
	c0.6-1.2,1.5-2.4,2.4-3.3c0.1-0.1,0.3-0.3,0.5-0.4c0.1-0.1,0.3-0.3,0.5-0.4c0.5-0.4,1-0.7,1.5-1l9.7-5.6l35.1-20.3
	c0.6-0.4,1.2-0.6,1.9-0.9c0.2-0.1,0.4-0.1,0.7-0.2c0.2-0.1,0.5-0.1,0.7-0.2c0.7-0.2,1.4-0.3,2-0.3c0.5,0,1,0,1.5,0
	c1.8,0.1,3.7,0.7,5.3,1.7l44.7,25.9h0c0.9,1,1.8,1.1,2.5,1.9c0.3,0.4,0.7,0.7,1,1.1c0.5,0.6,0.9,1.3,1.3,2.1
	c0.1,0.2,0.2,0.5,0.3,0.7c0.1,0.1,0.1,0.2,0.1,0.4c0,0.1,0.1,0.2,0.1,0.4c0.1,0.1,0.1,0.3,0.1,0.4c0,0.2-0.4,0.3-0.4,0.5
	c0.2,1-0.2,2-0.2,3V223.3z"/>
<path id="XMLID_8_" class="st1" d="M227.2,160.8l-45.1-26.1c-3.8-2.2-8.3-2.2-12.1,0l-45.5,26.1c-3.8,2.2-6.5,6.2-6.5,10.5v52.1
	c0,4.3,2.8,8.3,6.6,10.5L170,260c3.8,2.2,8.5,2.2,12.3,0l44.8-26.1c3.8-2.2,5.9-6.2,5.9-10.5v-52.1C233,167,230.9,163,227.2,160.8z
	 M232,223.3c0,1.4,0.3,2.7-0.1,3.9c-0.2,0.5-0.1,1-0.3,1.5c-0.1,0.3-0.2,0.6-0.3,0.9c-0.2,0.3-0.3,0.6-0.5,0.8
	c-0.4,0.5-0.8,1-1.2,1.5c-0.2,0.2-0.4,0.4-0.6,0.5c-0.4,0.4-0.8,0.7-1.3,1c-0.2,0.2-0.4,0.3-0.7,0.4l-9.7,5.6l-35.1,20.3
	c-0.4,0.2-0.9,0.5-1.3,0.7c-0.2,0.1-0.4,0.2-0.6,0.2c-0.4,0.2-0.9,0.3-1.3,0.4c-0.7,0.2-1.4,0.3-2,0.3c-0.5,0-1,0-1.5,0
	c-1.9-0.1-3.7-1-5.3-1.9l-44.7-26.2h0c-0.7,0-1.4-0.6-1.9-1.1c-0.4-0.4-0.9-0.7-1.2-1.1c-0.6-0.7-1.2-1.5-1.6-2.4
	c-0.2-0.5-0.4-0.9-0.6-1.4c-0.1-0.3-0.4-0.6-0.5-0.9c-0.2-1-0.6-1.9-0.6-3v-51.8c0-1.4,0.5-2.7,0.9-3.9c0.2-0.5,0.5-1,0.7-1.5
	c0.6-1.2,1.5-2.4,2.4-3.3c0.1-0.1,0.3-0.3,0.5-0.4c0.1-0.1,0.3-0.3,0.5-0.4c0.5-0.4,1-0.7,1.5-1l9.7-5.6l35.1-20.3
	c0.6-0.4,1.2-0.6,1.9-0.9c0.2-0.1,0.4-0.1,0.7-0.2c0.2-0.1,0.5-0.1,0.7-0.2c0.7-0.2,1.4-0.3,2-0.3c0.5,0,1,0,1.5,0
	c1.8,0.1,3.7,0.7,5.3,1.7l44.7,25.9h0c0.9,1,1.8,1.1,2.5,1.9c0.3,0.4,0.7,0.7,1,1.1c0.5,0.6,0.9,1.3,1.3,2.1
	c0.1,0.2,0.2,0.5,0.3,0.7c0.1,0.1,0.1,0.2,0.1,0.4c0,0.1,0.1,0.2,0.1,0.4c0.1,0.1,0.1,0.3,0.1,0.4c0,0.2-0.4,0.3-0.4,0.5
	c0.2,1-0.2,2-0.2,3V223.3z"/>
<path id="XMLID_1852_" class="st1" d="M227.2,160.8l-45.1-26.1c-3.8-2.2-8.3-2.2-12.1,0l-45.5,26.1c-3.8,2.2-6.5,6.2-6.5,10.5v52.1
	c0,4.3,2.8,8.3,6.6,10.5L170,260c3.8,2.2,8.5,2.2,12.3,0l44.8-26.1c3.8-2.2,5.9-6.2,5.9-10.5v-52.1C233,167,230.9,163,227.2,160.8z
	 M232,223.3c0,1.4,0.3,2.7-0.1,3.9c-0.2,0.5-0.1,1-0.3,1.5c-0.1,0.3-0.2,0.6-0.3,0.9c-0.2,0.3-0.3,0.6-0.5,0.8
	c-0.4,0.5-0.8,1-1.2,1.5c-0.2,0.2-0.4,0.4-0.6,0.5c-0.4,0.4-0.8,0.7-1.3,1c-0.2,0.2-0.4,0.3-0.7,0.4l-9.7,5.6l-35.1,20.3
	c-0.4,0.2-0.9,0.5-1.3,0.7c-0.2,0.1-0.4,0.2-0.6,0.2c-0.4,0.2-0.9,0.3-1.3,0.4c-0.7,0.2-1.4,0.3-2,0.3c-0.5,0-1,0-1.5,0
	c-1.9-0.1-3.7-1-5.3-1.9l-44.7-26.2h0c-0.7,0-1.4-0.6-1.9-1.1c-0.4-0.4-0.9-0.7-1.2-1.1c-0.6-0.7-1.2-1.5-1.6-2.4
	c-0.2-0.5-0.4-0.9-0.6-1.4c-0.1-0.3-0.4-0.6-0.5-0.9c-0.2-1-0.6-1.9-0.6-3v-51.8c0-1.4,0.5-2.7,0.9-3.9c0.2-0.5,0.5-1,0.7-1.5
	c0.6-1.2,1.5-2.4,2.4-3.3c0.1-0.1,0.3-0.3,0.5-0.4c0.1-0.1,0.3-0.3,0.5-0.4c0.5-0.4,1-0.7,1.5-1l9.7-5.6l35.1-20.3
	c0.6-0.4,1.2-0.6,1.9-0.9c0.2-0.1,0.4-0.1,0.7-0.2c0.2-0.1,0.5-0.1,0.7-0.2c0.7-0.2,1.4-0.3,2-0.3c0.5,0,1,0,1.5,0
	c1.8,0.1,3.7,0.7,5.3,1.7l44.7,25.9h0c0.9,1,1.8,1.1,2.5,1.9c0.3,0.4,0.7,0.7,1,1.1c0.5,0.6,0.9,1.3,1.3,2.1
	c0.1,0.2,0.2,0.5,0.3,0.7c0.1,0.1,0.1,0.2,0.1,0.4c0,0.1,0.1,0.2,0.1,0.4c0.1,0.1,0.1,0.3,0.1,0.4c0,0.2-0.4,0.3-0.4,0.5
	c0.2,1-0.2,2-0.2,3V223.3z"/>
<path id="XMLID_1569_" class="st3" d="M289.2,145.3c0-0.3,0.1-0.6,0.1-0.9c0-0.3,0-0.6,0-0.9c-0.1-0.5-0.1-1.1-0.2-1.6
	c-0.2-1-0.4-2.1-0.7-3.1c-0.2-0.5-0.3-1-0.5-1.5c-0.1-0.3-0.2-0.6-0.4-0.9c-0.1-0.2-0.2-0.4-0.3-0.6c-0.1-0.2-0.2-0.4-0.3-0.6
	c-0.1-0.2-0.2-0.5-0.4-0.7c-0.2-0.3-0.3-0.6-0.5-0.9c-0.2-0.3-0.4-0.6-0.6-0.9c-0.2-0.3-0.4-0.6-0.6-0.9c-0.4-0.6-0.8-1.1-1.3-1.6
	c-1.8-2.1-4-3.9-6.4-5.3L188,73.6c-3.5-2-7.4-3.1-11.3-3.2c-0.5,0-1,0-1.4,0c-3.9,0.1-7.8,1.2-11.3,3.2L74.6,125
	c-3.9,2.3-7,5.5-9.2,9.3c-0.1,0.2-0.2,0.4-0.3,0.6c-0.1,0.1-0.1,0.3-0.2,0.4c-0.1,0.2-0.2,0.4-0.3,0.6c-0.1,0.3-0.3,0.6-0.4,0.9
	c0,0.1-0.1,0.1-0.1,0.2c-0.1,0.3-0.2,0.6-0.4,0.9c-0.1,0.4-0.3,0.8-0.4,1.2c-0.1,0.4-0.2,0.8-0.3,1.2c-0.1,0.5-0.4,1-0.5,1.6
	c-0.2,1.3-0.5,2.6-0.5,4v102.9c0,1.3,0.3,2.7,0.5,4c0.1,0.5,0.3,1,0.4,1.6c0.1,0.4,0.2,0.8,0.4,1.2c0.2,0.6,0.4,1.2,0.7,1.9
	c0.1,0.3,0.3,0.7,0.4,1c0,0,0,0,0,0c0.3,0.6,0.5,1.1,0.8,1.6c0.4,0.7,0.8,1.4,1.3,2.1c0.1,0.2,0.2,0.3,0.4,0.5
	c0.6,0.8,1.2,1.6,1.9,2.4c0.3,0.3,0.6,0.6,0.9,0.9c0.6,0.6,1.2,1.1,1.9,1.7c1,0.8,2,1.5,3.1,2.1l89.2,51.4c3.5,2,7.4,3.1,11.3,3.2
	c0.5,0,1,0,1.4,0c3.9-0.1,7.8-1.2,11.3-3.2l89.2-51.4c0.2-0.1,0.5-0.3,0.7-0.4c0.3-0.2,0.5-0.3,0.8-0.5c0,0,0.1,0,0.1-0.1
	c0.2-0.2,0.5-0.3,0.7-0.5c0.2-0.2,0.5-0.4,0.7-0.5c0.3-0.2,0.5-0.4,0.8-0.6c0.3-0.3,0.6-0.6,0.9-0.9c0.3-0.2,0.5-0.5,0.7-0.7
	c0.5-0.5,0.9-1,1.4-1.6c0.2-0.3,0.4-0.6,0.6-0.8c0.1-0.2,0.3-0.4,0.4-0.6c0,0,0.1-0.1,0.1-0.1c0.1-0.2,0.3-0.4,0.4-0.6
	c0.5-0.7,0.9-1.4,1.2-2.2c0.1-0.2,0.2-0.4,0.3-0.6c0.1-0.2,0.2-0.4,0.3-0.6c0.1-0.3,0.2-0.6,0.4-0.9c0.2-0.5,0.4-1,0.5-1.5
	c0.3-1,0.6-2,0.7-3.1c0.1-0.5,0.2-1,0.2-1.6c0-0.3,0.1-0.6,0.1-0.9c0-0.3-0.2-0.6-0.2-0.9c0-0.2-0.2-0.4-0.2-0.6V145.9
	C289,145.7,289.2,145.5,289.2,145.3z M268,237.2c0,8.6-4.2,16.6-11.6,20.9l-68.6,39.8c-7.5,4.3-16.6,4.3-24.1,0L95,258.1
	c-7.5-4.3-12-12.3-12-20.9v-79.6c0-8.6,4.6-16.6,12-20.9l68.8-39.8c7.5-4.3,16.7-4.3,24.2,0l68.4,39.8c7.5,4.3,11.6,12.3,11.6,20.9
	V237.2z"/>
<path id="XMLID_1409_" class="st1" d="M227.2,160.8l-45.1-26.1c-3.8-2.2-8.3-2.2-12.1,0l-45.5,26.1c-3.8,2.2-6.5,6.2-6.5,10.5v52.1
	c0,4.3,2.8,8.3,6.6,10.5L170,260c3.8,2.2,8.5,2.2,12.3,0l44.8-26.1c3.8-2.2,5.9-6.2,5.9-10.5v-52.1C233,167,230.9,163,227.2,160.8z
	 M232,223.3c0,1.4,0.3,2.7-0.1,3.9c-0.2,0.5-0.1,1-0.3,1.5c-0.1,0.3-0.2,0.6-0.3,0.9c-0.2,0.3-0.3,0.6-0.5,0.8
	c-0.4,0.5-0.8,1-1.2,1.5c-0.2,0.2-0.4,0.4-0.6,0.5c-0.4,0.4-0.8,0.7-1.3,1c-0.2,0.2-0.4,0.3-0.7,0.4l-9.7,5.6l-35.1,20.3
	c-0.4,0.2-0.9,0.5-1.3,0.7c-0.2,0.1-0.4,0.2-0.6,0.2c-0.4,0.2-0.9,0.3-1.3,0.4c-0.7,0.2-1.4,0.3-2,0.3c-0.5,0-1,0-1.5,0
	c-1.9-0.1-3.7-1-5.3-1.9l-44.7-26.2h0c-0.7,0-1.4-0.6-1.9-1.1c-0.4-0.4-0.9-0.7-1.2-1.1c-0.6-0.7-1.2-1.5-1.6-2.4
	c-0.2-0.5-0.4-0.9-0.6-1.4c-0.1-0.3-0.4-0.6-0.5-0.9c-0.2-1-0.6-1.9-0.6-3v-51.8c0-1.4,0.5-2.7,0.9-3.9c0.2-0.5,0.5-1,0.7-1.5
	c0.6-1.2,1.5-2.4,2.4-3.3c0.1-0.1,0.3-0.3,0.5-0.4c0.1-0.1,0.3-0.3,0.5-0.4c0.5-0.4,1-0.7,1.5-1l9.7-5.6l35.1-20.3
	c0.6-0.4,1.2-0.6,1.9-0.9c0.2-0.1,0.4-0.1,0.7-0.2c0.2-0.1,0.5-0.1,0.7-0.2c0.7-0.2,1.4-0.3,2-0.3c0.5,0,1,0,1.5,0
	c1.8,0.1,3.7,0.7,5.3,1.7l44.7,25.9h0c0.9,1,1.8,1.1,2.5,1.9c0.3,0.4,0.7,0.7,1,1.1c0.5,0.6,0.9,1.3,1.3,2.1
	c0.1,0.2,0.2,0.5,0.3,0.7c0.1,0.1,0.1,0.2,0.1,0.4c0,0.1,0.1,0.2,0.1,0.4c0.1,0.1,0.1,0.3,0.1,0.4c0,0.2-0.4,0.3-0.4,0.5
	c0.2,1-0.2,2-0.2,3V223.3z"/>
<path id="XMLID_34_" class="st1" d="M261.3,153c0,0.1,0,0.1,0.1,0.2c0,0,0,0.1,0.1,0.1C261.4,153.3,261.4,153.1,261.3,153z
	 M261.2,152.6c-0.1-0.3-0.3-0.6-0.4-0.9C260.9,152,261,152.2,261.2,152.6c0,0.1,0.1,0.3,0.2,0.5c0-0.1-0.1-0.1-0.1-0.2
	C261.2,152.7,261.2,152.7,261.2,152.6z M260.3,150.9C260.3,150.9,260.3,150.9,260.3,150.9C260.3,150.9,260.3,150.9,260.3,150.9
	L260.3,150.9z M260.2,150.7C260.2,150.7,260.2,150.7,260.2,150.7c0,0,0,0.1,0.1,0.1C260.3,150.8,260.3,150.7,260.2,150.7
	L260.2,150.7z M260.1,150.3C260.1,150.3,260,150.3,260.1,150.3c0,0.1,0,0.1,0.1,0.2C260.1,150.5,260.1,150.4,260.1,150.3
	C260.1,150.3,260.1,150.3,260.1,150.3z M258.7,147.9C258.7,147.9,258.7,147.9,258.7,147.9C258.7,147.9,258.7,147.9,258.7,147.9
	C258.7,147.9,258.7,147.9,258.7,147.9z M257.7,146.6c0.1,0.1,0.2,0.2,0.2,0.3l0,0c0,0,0,0,0-0.1
	C257.9,146.8,257.8,146.7,257.7,146.6z M257.4,146.2C257.4,146.2,257.4,146.2,257.4,146.2c-0.1-0.1-0.1-0.1-0.1-0.1c0,0-0.1,0-0.1,0
	c0,0,0,0,0,0C257.3,146.2,257.3,146.2,257.4,146.2C257.4,146.2,257.4,146.2,257.4,146.2L257.4,146.2
	C257.4,146.2,257.4,146.2,257.4,146.2c0.1,0.2,0.2,0.3,0.3,0.4C257.6,146.5,257.5,146.4,257.4,146.2L257.4,146.2z M256.6,136.7
	l-68.4-39.8c-7.5-4.3-16.5-4.3-24,0l-69,39.8C87.7,141,83,149,83,157.6v79.6c0,8.6,4.7,16.6,12.2,20.9l68.8,39.8
	c7.5,4.3,16.7,4.3,24.2,0l68.3-39.8c7.5-4.3,11.5-12.3,11.5-20.9v-79.6C268,149,264,141,256.6,136.7z M262,233.4
	c0,1.4,0.3,2.7,0.1,4c-0.1,0.5,0,1-0.1,1.5c-0.1,0.4-0.1,0.8-0.2,1.2c-0.1,0.4-0.2,0.8-0.3,1.2c-0.1,0.3-0.2,0.7-0.4,1
	c-0.3,0.6-0.5,1.2-0.8,1.8c-0.1,0.3-0.3,0.6-0.5,0.9c-0.3,0.6-0.7,1.1-1,1.7c-0.4,0.5-0.8,1.1-1.2,1.6c0,0,0,0,0,0
	c0,0-0.1,0.1-0.1,0.1c-0.6,0.7-1.2,1.5-1.9,2.2c-0.1,0.1-0.2,0.1-0.3,0.2c0,0-0.1,0-0.1,0.1c-0.1,0.1-0.1,0.1-0.2,0.1
	c0,0,0-0.2,0-0.2c-0.1,0.1-0.2,0.2-0.2,0.2h0c-0.5,0-1,0.9-1.5,1.2c-0.8,0.6-1.7,1.4-2.7,2l-62.3,36c-3.5,2.1-7.5,3.1-11.5,3.2
	c-0.5,0-1,0-1.4,0c-4-0.1-7.9-1.2-11.5-3.2l-62.2-36c-0.1-0.1-0.2-0.1-0.4-0.2c-0.9-0.5-1.7-1.1-2.5-1.7c-0.2-0.2-0.4-0.3-0.6-0.5
	c0,0,0-0.1,0-0.1c-0.2-0.2-0.4-0.6-0.5-0.6h0c-0.1,0-0.3-0.1-0.4-0.3c-0.1-0.1-0.3-0.2-0.4-0.3c-0.2-0.1-0.3-0.3-0.5-0.4
	c0,0-0.1,0-0.1-0.1l0,0c-0.1-0.1-0.2-0.2-0.4-0.3c0,0-0.1,0-0.1-0.1c0,0-0.1-0.1-0.1-0.1c0,0-0.4,0-0.4-0.1c0,0-0.3,0-0.3,0v0
	c0,0,0-0.1,0-0.1v0l0.3,0c-0.1-0.1,0-0.3-0.1-0.4c0-0.1,0-0.1,0-0.1c0,0,0,0,0-0.1c-0.1-0.1-0.2-0.2-0.3-0.3
	c-0.1-0.1-0.1-0.1-0.1-0.1c0,0,0,0.1,0,0.1c-0.1-0.2-0.2-0.2-0.4-0.2h0c0,0,0-0.1,0-0.2c0,0-0.1-0.3-0.1-0.3
	c-0.1-0.1-0.1-0.3-0.2-0.3c0-0.1-0.1-0.1-0.2-0.2c0,0-0.1-0.1-0.1-0.1c0,0-0.3-0.1-0.3-0.1c0,0-0.4-0.1-0.4-0.2v0
	c0-0.1,0.3-0.6,0.2-0.6H93c0,0,0,0.2,0,0.2v0c0,0,0.1-0.1,0.1-0.1c0,0,0.1-0.1,0.1-0.1c0,0,0,0,0,0s-0.2,0.2-0.2,0.2v-0.2h0.2
	l-0.2,0.2v0l0.1-0.1c0-0.1,0-0.1-0.1-0.2c0,0,0-0.1,0-0.1c0-0.1-0.1-0.4-0.1-0.4c0-0.1-0.1-0.3-0.1-0.3H92v0.5c0,0,0,0,0,0
	c0,0,0.3,0,0.3,0c0,0,0.2-0.1,0.2-0.1c0,0,0.1,0,0.1,0c0,0,0.1,0,0.1,0c0,0,0.1-0.1,0.1-0.1c0,0,0.1,0,0.1,0c0,0,0,0,0,0
	c0-0.3-0.4-0.6-0.6-0.9c-0.1-0.1-0.2-0.3-0.2-0.4c-0.1-0.1-0.2-0.3-0.2-0.4c-0.5-1-0.9-2.1-1.3-3.2c-0.3-1-0.6-2-0.7-3.1
	c-0.1-0.6-0.2-1.1-0.2-1.7c0-0.2-0.3-0.4-0.4-0.6c-0.1-0.6-0.4-1.2-0.4-1.8v-72c0-1.4,0.4-2.7,0.6-4c0.2-1,0.6-2.1,0.9-3.1
	c0.3-1.1,0.8-2.1,1.3-3.2c0.1-0.3,0.3-0.6,0.4-0.8c0.3-0.5,0.6-1,0.9-1.5c2.1-3.4,5.1-6.3,8.6-8.4l62.3-36c3.5-2.1,7.5-3.1,11.5-3.2
	c0.5,0,1,0,1.5,0c4,0.1,7.9,1.2,11.5,3.2l62.3,36c0.1,0.1,0.2,0.1,0.3,0.2c0.1,0,0.1,0.1,0.2,0.1c0,0,0,0,0.1,0
	c0.1,0,0.1,0.1,0.2,0.1c0.1,0.1,0.3,0.2,0.4,0.3c0.2,0.1,0.4,0.3,0.6,0.4c0,0,0.1,0,0.1,0.1c0.2,0.2,0.5,0.3,0.7,0.5
	c0.1,0.1,0.2,0.2,0.4,0.3c0.2,0.2,0.4,0.3,0.6,0.5c0,0,0,0,0,0c0,0,0.1,0.1,0.1,0.1c0.2,0.2,0.4,0.4,0.6,0.6c0,0,0,0,0,0
	c0,0,0.1,0,0.1,0.1c0,0,0,0,0,0c0,0,0,0.1,0.1,0.1c0,0,0.1,0.1,0.1,0.1c0.1,0.1,0.2,0.2,0.3,0.3c0,0,0.1,0.1,0.1,0.1c0,0,0,0,0,0
	c0,0,0,0,0,0.1c0.1,0.1,0.2,0.2,0.3,0.3c0,0,0,0,0,0c0.1,0.1,0.1,0.1,0.2,0.2c0,0,0,0,0,0c0,0,0.1,0.1,0.1,0.1c0,0,0.1,0.1,0.1,0.1
	c0,0-0.3,0-0.3,0c0,0-0.3,0-0.3,0.1v0c0,0,0.4,0.1,0.4,0.1l0.2,0c0.1,0.1,0.3,0.2,0.3,0.3c0,0,0.1,0,0.1,0c0,0,0.1,0.1,0.1,0.2
	c0,0,0,0,0,0c0,0,0.1,0.2,0.1,0.2c0,0,0,0,0,0c0,0,0-0.1,0,0c0,0,0.1,0,0.1,0c0,0,0,0,0,0h0c0,0,0,0.1,0,0.1
	c0.1,0.1,0.2,0.3,0.3,0.4c0.1,0.1,0.2,0.2,0.2,0.3l0,0c0,0,0,0.1,0,0.1c0,0,0,0.1,0,0.1h0c0,0,0,0,0,0c0,0-0.1,0-0.1,0V147l0,0v0.1
	c0,0,0,0.1,0,0.1c0,0,0,0,0,0c0,0,0.1,0,0.1,0c0,0,0.1,0.1,0.1,0.1c0,0,0.1,0.1,0.1,0.1c0,0,0.1,0.1,0.1,0.1c0,0,0,0,0,0
	c0,0,0,0.2,0,0.3c0,0,0,0.2,0,0.2h0c0,0,0-0.2,0-0.2c0,0,0-0.1,0-0.1c0,0,0,0,0,0c0,0,0,0,0,0c0,0,0,0,0,0c0,0,0,0,0,0
	c0,0,0,0,0.1,0.1c0,0,0,0,0,0c0.1,0.1,0.1,0.2,0.2,0.2c0,0,0,0,0,0.1c0,0,0.1-0.1,0.1-0.1c0,0,0.1-0.1,0.1-0.1c0,0,0,0,0,0h0
	c0,0,0,0,0.1,0.1l0-0.1h0c0,0,0.1,0.3,0.1,0.4c0,0,0,0.1,0,0.1c0,0,0,0.1,0,0.1c0.1,0.1,0.1,0.2,0.2,0.2c0,0,0,0,0,0
	c0,0,0,0,0.1,0.1c0,0,0,0,0,0.1c0,0.1,0.1,0.1,0.1,0.1c0,0,0.1,0,0.1,0H259v0.1c0,0,0.4,0.1,0.4,0.1c0,0.1,0.2,0.1,0.2,0.1
	c0,0.1,0.1,0.1,0.1,0.2c0,0,0.1,0.1,0.1,0.1c0,0,0,0,0,0c0,0.1-0.4,0.1-0.4,0.1c0,0-0.4,0.1-0.4,0.1c0,0,0,0.1,0,0.1h0.9
	c0,0,0,0,0,0c0,0-0.5,0.1-0.5,0.1c0,0-0.5,0-0.5,0v0c0,0,0.6,0,0.6,0c0,0.1,0.3,0.1,0.3,0.2c0,0,0.1,0,0.1,0c0,0,0.1,0.1,0.1,0.1
	c0,0,0,0,0,0c0,0,0,0,0,0c0,0,0,0,0,0c0,0,0,0.1,0.1,0.1c0,0,0,0,0,0c0,0,0,0,0,0c0.1,0.3,0.3,0.5,0.4,0.8c0,0,0,0,0,0
	c0.1,0.3,0.2,0.5,0.3,0.8c0.1,0.2,0.2,0.4,0.2,0.6c0,0.1,0,0.1,0.1,0.2c0,0,0,0.1,0.1,0.1c0,0,0,0.1,0.1,0.1
	c0.1,0.4,0.3,0.8,0.4,1.2c0,0.1,0.1,0.2,0.1,0.3c0,0.1,0.1,0.2,0.1,0.3c0.1,0.2,0.1,0.4,0.1,0.6c0.1,0.5-0.2,1-0.1,1.5
	c0.2,1.3-0.1,2.6-0.1,4V233.4z"/>
<path id="XMLID_44_" class="st1" d="M227.2,160.8l-45.1-26.1c-3.8-2.2-8.3-2.2-12.1,0l-45.5,26.1c-3.8,2.2-6.5,6.2-6.5,10.5v52.1
	c0,4.3,2.8,8.3,6.6,10.5L170,260c3.8,2.2,8.5,2.2,12.3,0l44.8-26.1c3.8-2.2,5.9-6.2,5.9-10.5v-52.1C233,167,230.9,163,227.2,160.8z
	 M232,223.3c0,1.4,0.3,2.7-0.1,3.9c-0.2,0.5-0.1,1-0.3,1.5c-0.1,0.3-0.2,0.6-0.3,0.9c-0.2,0.3-0.3,0.6-0.5,0.8
	c-0.4,0.5-0.8,1-1.2,1.5c-0.2,0.2-0.4,0.4-0.6,0.5c-0.4,0.4-0.8,0.7-1.3,1c-0.2,0.2-0.4,0.3-0.7,0.4l-9.7,5.6l-35.1,20.3
	c-0.4,0.2-0.9,0.5-1.3,0.7c-0.2,0.1-0.4,0.2-0.6,0.2c-0.4,0.2-0.9,0.3-1.3,0.4c-0.7,0.2-1.4,0.3-2,0.3c-0.5,0-1,0-1.5,0
	c-1.9-0.1-3.7-1-5.3-1.9l-44.7-26.2h0c-0.7,0-1.4-0.6-1.9-1.1c-0.4-0.4-0.9-0.7-1.2-1.1c-0.6-0.7-1.2-1.5-1.6-2.4
	c-0.2-0.5-0.4-0.9-0.6-1.4c-0.1-0.3-0.4-0.6-0.5-0.9c-0.2-1-0.6-1.9-0.6-3v-51.8c0-1.4,0.5-2.7,0.9-3.9c0.2-0.5,0.5-1,0.7-1.5
	c0.6-1.2,1.5-2.4,2.4-3.3c0.1-0.1,0.3-0.3,0.5-0.4c0.1-0.1,0.3-0.3,0.5-0.4c0.5-0.4,1-0.7,1.5-1l9.7-5.6l35.1-20.3
	c0.6-0.4,1.2-0.6,1.9-0.9c0.2-0.1,0.4-0.1,0.7-0.2c0.2-0.1,0.5-0.1,0.7-0.2c0.7-0.2,1.4-0.3,2-0.3c0.5,0,1,0,1.5,0
	c1.8,0.1,3.7,0.7,5.3,1.7l44.7,25.9h0c0.9,1,1.8,1.1,2.5,1.9c0.3,0.4,0.7,0.7,1,1.1c0.5,0.6,0.9,1.3,1.3,2.1
	c0.1,0.2,0.2,0.5,0.3,0.7c0.1,0.1,0.1,0.2,0.1,0.4c0,0.1,0.1,0.2,0.1,0.4c0.1,0.1,0.1,0.3,0.1,0.4c0,0.2-0.4,0.3-0.4,0.5
	c0.2,1-0.2,2-0.2,3V223.3z"/>
<path id="XMLID_12_" class="st1" d="M232.1,168.5c0-0.2,0.1-0.3,0.1-0.5c-0.1-0.1,0-0.3,0-0.4c0-0.1,0-0.3-0.1-0.4
	c0-0.1-0.1-0.2-0.1-0.4c-0.1-0.2-0.2-0.5-0.3-0.7c-0.4-0.7-0.8-1.4-1.3-2.1c-0.3-0.4-0.6-0.8-1-1.1c-0.7-0.8-1.6-0.9-2.5-1.9h0
	l-44.7-25.9c-1.6-0.9-3.5-1.5-5.3-1.6c-0.5,0-1,0-1.5,0c-0.7,0-1.4,0.1-2,0.3c-0.2,0.1-0.5,0.1-0.7,0.2c-0.2,0.1-0.4,0.1-0.6,0.2
	c-0.6,0.2-1.3,0.5-1.9,0.9L135,155.4l-9.7,5.6c-0.5,0.3-1,0.6-1.5,1c-0.2,0.1-0.3,0.2-0.5,0.4c-0.1,0.1-0.3,0.3-0.4,0.4
	c-1,1-1.8,2.1-2.4,3.3c-0.2,0.5-0.6,1-0.8,1.5c-0.4,1.2-0.8,2.6-0.8,3.9v51.8c0,1,0.3,2,0.5,3c0.1,0.3,0.3,0.6,0.4,0.9
	c0.2,0.5,0.4,1,0.6,1.4c0.4,0.9,1,1.7,1.6,2.4c0.4,0.4,0.8,0.6,1.2,1c0.6,0.5,1.3,1.1,2,1.1h0l44.7,26.2c1.6,0.9,3.5,1.6,5.3,1.8
	c0.5,0,1,0.1,1.5,0.1c0.7,0,1.4-0.1,2-0.3c0.4-0.1,0.9-0.2,1.3-0.4c0.2-0.1,0.4-0.1,0.6-0.2c0.4-0.2,0.9-0.4,1.3-0.7l35.1-20.3
	l9.7-5.6c0.2-0.1,0.5-0.3,0.7-0.4c0.4-0.3,0.9-0.6,1.3-1c0.2-0.2,0.4-0.4,0.6-0.5c0.5-0.5,0.9-1,1.3-1.5c0.2-0.3,0.4-0.5,0.5-0.8
	c0.2-0.3,0.3-0.6,0.5-0.9c0.2-0.5,0-1,0.1-1.5c0.4-1.2,0.2-2.6,0.2-3.9v-51.8C232,170.5,232.3,169.5,232.1,168.5z M223,217.4
	c0,4.3-2.4,8.4-6.1,10.5l-34.6,20c-3.8,2.2-8.4,2.2-12.2,0l-35.3-20c-3.8-2.2-6.8-6.2-6.8-10.5v-40c0-4.3,3-8.4,6.8-10.5l35-20
	c3.7-2.2,8.6-2.2,12.3,0l34.7,20c3.8,2.2,6.2,6.2,6.2,10.5V217.4z"/>
<path id="XMLID_2482_" class="st1" d="M210.7,172.9l-31.2-18c-2.6-1.5-5.8-1.5-8.4,0l-31,18c-2.6,1.5-4,4.3-4,7.3v36
	c0,3,1.4,5.8,4,7.3l31.1,18c2.6,1.5,5.8,1.5,8.4,0l31.3-18c2.6-1.5,4.3-4.3,4.3-7.3v-36C215,177.1,213.3,174.4,210.7,172.9z
	 M215,216c0,0.5-0.3,0.9-0.4,1.4c0,0.2-0.2,0.4-0.2,0.5c0,0.2-0.2,0.4-0.2,0.5c0,0.1-0.1,0.1-0.1,0.2c0,0.1-0.1,0.3-0.2,0.4
	c0,0.1-0.1,0.1-0.1,0.2c-0.4,1-1,1.9-1.8,2.7c-0.5,0.5-1.1,1-1.8,1.3l-30.9,17.9c-0.2,0.1-0.5,0.3-0.7,0.4c0,0,0,0,0,0
	c-0.1,0.1-0.3,0.1-0.4,0.2c-0.1,0-0.1,0.1-0.2,0.1c-0.1,0-0.1,0.1-0.2,0.1c-0.5,0.2-1,0.3-1.6,0.4c-0.7,0.1-1.4,0.1-2.2,0
	c-1.1-0.1-2.1-0.6-3.1-1.1l-30.9-17.9h0c-0.6,0-1.2-0.8-1.7-1.3c0,0,0,0-0.1,0c0,0-0.1-0.1-0.1-0.1c0-0.1-0.1-0.1-0.1-0.1
	c0,0-0.1-0.1-0.1-0.1c0,0,0,0-0.1-0.1c0,0,0,0-0.1-0.1l0,0c0,0,0,0,0,0c0,0,0-0.1-0.1-0.1c-0.1-0.2-0.2-0.3-0.3-0.5
	c-0.9-1.4-1.4-3-1.4-4.7v-35.7c0-1.7,0.5-3.3,1.4-4.7c0.2-0.2,0.3-0.4,0.5-0.7c0.1-0.1,0.2-0.3,0.3-0.4c0.1-0.1,0.1-0.1,0.2-0.2
	c0.5-0.5,1.1-1,1.7-1.3l30.9-17.9c0.1-0.1,0.2-0.1,0.3-0.1c0.1,0,0.2-0.1,0.3-0.1c0.1,0,0.1-0.1,0.2-0.1c0.1,0,0.2-0.1,0.2-0.1
	c0.1,0,0.1-0.1,0.2-0.1c0.1-0.1,0.3-0.1,0.4-0.1c0.3-0.1,0.6-0.2,0.9-0.2c0.1,0,0.2,0,0.4-0.1c0.1,0,0.2,0,0.3,0
	c0.7-0.1,1.4-0.1,2.2,0c1.1,0.1,2.1,0.6,3.1,1.1l30.9,17.9h0c0.2,0,0.3,0.1,0.5,0.2c0.1,0,0.1,0.1,0.2,0.1c0.4,0.3,0.8,0.6,1.1,0.9
	c0.4,0.4,0.7,0.8,1,1.2c0,0.1,0.4,0.1,0.5,0.2c0.1,0.1,0.5,0.2,0.5,0.3v0c0,0.1-0.2,0.2-0.2,0.2c0.1,0.2,0.1,0.5,0.2,0.7
	c0.1,0.1,0,0.2,0.1,0.4c0,0,0,0,0,0c0,0.1,0,0.1,0,0.2c0,0.1,0,0.1,0.1,0.2c0.1,0.2,0.1,0.3,0.1,0.5c0,0,0,0,0,0
	c0,0.2,0.3,0.3,0.3,0.5c0.1,0.5,0.4,0.9,0.4,1.4V216z"/>
<path id="XMLID_2470_" class="st1" d="M214.6,178.9c0-0.2-0.2-0.3-0.2-0.5c0,0-0.1,0-0.1,0c0-0.2-0.1-0.4-0.2-0.5
	c0-0.1-0.1-0.1-0.1-0.2c0-0.1-0.1-0.1-0.1-0.2c0,0,0,0,0,0c0-0.1-0.1-0.3-0.2-0.4c-0.1-0.2,0.1-0.5,0-0.7c0-0.1,0.2-0.2,0.2-0.2v0
	c0-0.1-0.4-0.2-0.5-0.3c0-0.1-0.2-0.1-0.3-0.2c-0.3-0.4-0.7-0.9-1.1-1.2c-0.3-0.3-0.7-0.7-1.1-0.9c-0.1,0-0.1,0-0.2-0.1
	c-0.2-0.1-0.3-0.2-0.5-0.2h0l-30.9-17.9c-1-0.6-2-0.9-3.1-1.1c-0.7-0.1-1.4-0.1-2.2,0c-0.1,0-0.2,0-0.3,0c-0.1,0-0.2,0-0.4,0.1
	c-0.3,0.1-0.6,0.1-0.9,0.2c-0.1,0-0.3,0.1-0.4,0.1c-0.1,0-0.1,0.1-0.2,0.1c-0.1,0-0.2,0.1-0.2,0.1c-0.1,0-0.1,0.1-0.2,0.1
	c-0.1,0-0.2,0.1-0.3,0.1c-0.1,0-0.2,0.1-0.3,0.1L140.1,173c-0.6,0.4-1.2,0.8-1.7,1.3c-0.1,0.1-0.1,0.1-0.2,0.2
	c-0.1,0.1-0.2,0.3-0.4,0.4c-0.2,0.2-0.3,0.4-0.4,0.7c-0.9,1.4-1.4,3-1.4,4.7V216c0,1.7,0.5,3.3,1.4,4.7c0.1,0.2,0.2,0.3,0.3,0.5
	c0,0,0,0.1,0.1,0.1c0,0,0,0,0,0l0,0c0,0,0,0,0.1,0.1c0,0,0,0,0.1,0.1c0,0,0.1,0.1,0.1,0.1c0,0.1,0.1,0.1,0.1,0.2
	c0,0,0.1,0.1,0.1,0.1c0,0,0,0,0.1,0c0.5,0.5,1.1,1.3,1.7,1.3h0l30.9,17.9c1,0.6,2,1,3.1,1.1c0.7,0.1,1.4,0.1,2.2,0
	c0.5-0.1,1.1-0.2,1.6-0.3c0.1,0,0.1,0,0.2-0.1c0.1,0,0.1,0,0.2-0.1c0.1-0.1,0.3-0.1,0.4-0.2c0,0,0,0,0,0c0.3-0.1,0.5-0.2,0.7-0.4
	l30.9-17.9c0.7-0.4,1.2-0.8,1.8-1.3c0.8-0.8,1.4-1.7,1.8-2.7c0-0.1,0.1-0.1,0.1-0.2c0-0.1,0.1-0.3,0.1-0.4c0-0.1,0-0.1,0.1-0.2
	c0.1-0.2,0.1-0.4,0.1-0.5c0-0.2,0.3-0.4,0.4-0.5c0.1-0.5,0.4-0.9,0.4-1.4v-35.7C215,179.8,214.7,179.3,214.6,178.9z M208,212
	c0,3-1.8,5.8-4.4,7.3l-24,13.8c-2.6,1.5-5.9,1.5-8.5,0l-23.9-13.8c-2.6-1.5-4.2-4.3-4.2-7.3v-27.6c0-3,1.6-5.8,4.1-7.3l23.9-13.8
	c2.6-1.5,5.8-1.5,8.4,0l24.1,13.8c2.6,1.5,4.4,4.3,4.4,7.3V212z"/>
</svg>
