<?xml version="1.0" encoding="utf-8"?>
<!-- Generator: Adobe Illustrator 19.0.0, SVG Export Plug-In . SVG Version: 6.00 Build 0)  -->
<svg version="1.1" id="Layer_1" xmlns="http://www.w3.org/2000/svg" xmlns:xlink="http://www.w3.org/1999/xlink" x="0px" y="0px"
	 viewBox="-109.2 922.6 108.7 108.7" style="enable-background:new -109.2 922.6 108.7 108.7;" xml:space="preserve">
<style type="text/css">
	.st0{fill:#C7B299;}
</style>
<g id="XMLID_2359_">
	<g id="presentation-training-teaching-meeting-discussion_1_">
		<path id="XMLID_2392_" class="st0" d="M-92.2,953.2c0,5.6,4.6,10.2,10.2,10.2c5.6,0,10.2-4.6,10.2-10.2c0-5.6-4.6-10.2-10.2-10.2
			C-87.6,943-92.2,947.6-92.2,953.2z M-75.2,953.2c0,3.7-3,6.8-6.8,6.8s-6.8-3-6.8-6.8s3-6.8,6.8-6.8
			C-78.2,946.4-75.2,949.5-75.2,953.2z"/>
		<path id="XMLID_2383_" class="st0" d="M-57,971.4l11.9-11.9c0.7-0.7,0.7-1.7,0-2.4l-5.1-5.1c-0.6-0.6-1.6-0.7-2.3-0.1l-11.7,10
			l-11.3,4.9h-20c-0.5,0-1,0.2-1.3,0.6l-11.9,13.6c-0.4,0.5-0.5,1.1-0.3,1.7l5.1,15.3c0.2,0.5,0.5,0.8,1,1c0.5,0.2,1,0.2,1.4,0
			l6.8-3.4c0.6-0.3,0.9-0.9,0.9-1.5v28.8c0,4.7,3.8,8.5,8.5,8.5h13.6c0.9,0,1.7-0.8,1.7-1.7V978l12.6-6.3
			C-57.3,971.6-57.1,971.5-57,971.4z M-93.9,993.9c0-0.2,0-0.4-0.1-0.6l-3-7.6l3.2-3.9V993.9z M-72.5,975.5
			c-0.6,0.3-0.9,0.9-0.9,1.5v51h-6.8v-27.2c0-0.9-0.8-1.7-1.7-1.7s-1.7,0.8-1.7,1.7v27.2h-1.7c-2.8,0-5.1-2.3-5.1-5.1V977
			c0-0.7-0.5-1.4-1.1-1.6c-0.7-0.2-1.4,0-1.9,0.5l-6.8,8.5c-0.4,0.5-0.5,1.1-0.3,1.7l2.8,7l-3.6,1.8l-4.2-12.5l10.7-12.3h19.6
			c0.2,0,0.5,0,0.7-0.1l11.9-5.1c0.2-0.1,0.3-0.2,0.4-0.3l10.7-9.2l2.8,2.8l-10.5,10.5L-72.5,975.5z"/>
		<polygon id="XMLID_2382_" class="st0" points="-85.4,977 -83.7,977 -83.7,990.6 -80.3,990.6 -80.3,977 -78.6,977 -78.6,973.6 
			-85.4,973.6 		"/>
		<path id="XMLID_2375_" class="st0" d="M-0.4,1007.6c0-5.6-4.6-10.2-10.2-10.2c-3.5,0-6.7,1.8-8.5,4.6c-1.8-2.8-4.9-4.6-8.5-4.6
			s-6.7,1.8-8.5,4.6c-1.8-2.8-4.9-4.6-8.5-4.6c-5.6,0-10.2,4.6-10.2,10.2c0,3.5,1.8,6.7,4.6,8.5c-2.8,1.8-4.6,4.9-4.6,8.5v6.8h3.4
			v-6.8c0-3.7,3-6.8,6.8-6.8c3.7,0,6.8,3,6.8,6.8v6.8h3.4v-6.8c0-3.7,3-6.8,6.8-6.8s6.8,3,6.8,6.8v6.8h3.4v-6.8c0-3.7,3-6.8,6.8-6.8
			s6.8,3,6.8,6.8v6.8h3.4v-6.8c0-3.5-1.8-6.7-4.6-8.5C-2.3,1014.2-0.4,1011.1-0.4,1007.6z M-27.6,1000.8c3.7,0,6.8,3,6.8,6.8
			c0,3.7-3,6.8-6.8,6.8s-6.8-3-6.8-6.8C-34.4,1003.8-31.4,1000.8-27.6,1000.8z M-51.4,1007.6c0-3.7,3-6.8,6.8-6.8
			c3.7,0,6.8,3,6.8,6.8c0,3.7-3,6.8-6.8,6.8C-48.4,1014.4-51.4,1011.3-51.4,1007.6z M-36.1,1018.9c-0.8-1.1-1.7-2.1-2.9-2.9
			c1.1-0.8,2.1-1.7,2.9-2.9c0.8,1.1,1.7,2.1,2.9,2.9C-34.4,1016.8-35.4,1017.8-36.1,1018.9z M-19.1,1018.9c-0.8-1.1-1.7-2.1-2.9-2.9
			c1.1-0.8,2.1-1.7,2.9-2.9c0.8,1.1,1.7,2.1,2.9,2.9C-17.4,1016.8-18.4,1017.8-19.1,1018.9z M-10.6,1014.4c-3.7,0-6.8-3-6.8-6.8
			c0-3.7,3-6.8,6.8-6.8s6.8,3,6.8,6.8C-3.8,1011.3-6.9,1014.4-10.6,1014.4z"/>
		<path id="XMLID_2374_" class="st0" d="M-2.1,922.6H-65c-0.9,0-1.7,0.8-1.7,1.7v32.3h3.4V926h59.5v45.9c0,2.8-2.3,5.1-5.1,5.1
			h-52.7v3.4h52.7c4.7,0,8.5-3.8,8.5-8.5v-47.6C-0.4,923.4-1.2,922.6-2.1,922.6z"/>
		<path id="XMLID_2368_" class="st0" d="M-37.8,931.1h-17c-0.9,0-1.7,0.8-1.7,1.7v6.8c0,0.9,0.8,1.7,1.7,1.7h17
			c0.9,0,1.7-0.8,1.7-1.7v-1.7h5.1v1.7c0,0.9,0.8,1.7,1.7,1.7h6.8v5.1h-6.8c-0.9,0-1.7,0.8-1.7,1.7v6.8c0,0.9,0.8,1.7,1.7,1.7h6.8
			v5.1h-6.8c-0.9,0-1.7,0.8-1.7,1.7v6.8c0,0.9,0.8,1.7,1.7,1.7h17c0.9,0,1.7-0.8,1.7-1.7v-6.8c0-0.9-0.8-1.7-1.7-1.7h-6.8v-5.1h6.8
			c0.9,0,1.7-0.8,1.7-1.7v-6.8c0-0.9-0.8-1.7-1.7-1.7h-6.8v-5.1h6.8c0.9,0,1.7-0.8,1.7-1.7v-6.8c0-0.9-0.8-1.7-1.7-1.7h-17
			c-0.9,0-1.7,0.8-1.7,1.7v1.7h-5.1v-1.7C-36.1,931.9-36.9,931.1-37.8,931.1z M-39.5,937.9h-13.6v-3.4h13.6V937.9z M-14,968.5h-13.6
			v-3.4H-14V968.5z M-14,953.2h-13.6v-3.4H-14V953.2z M-27.6,934.5H-14v3.4h-13.6V934.5z"/>
		<rect id="XMLID_2367_" x="-54.8" y="944.7" class="st0" width="18.7" height="3.4"/>
		<rect id="XMLID_2366_" x="-42.9" y="951.5" class="st0" width="6.8" height="3.4"/>
		<rect id="XMLID_2365_" x="-41.2" y="958.3" class="st0" width="5.1" height="3.4"/>
		<rect id="XMLID_2364_" x="-46.3" y="965.1" class="st0" width="10.2" height="3.4"/>
		<path id="XMLID_2361_" class="st0" d="M-102.4,939.6h0.8l4.6,6.1c0.3,0.4,0.8,0.7,1.4,0.7c0.2,0,0.4,0,0.5-0.1
			c0.7-0.2,1.2-0.9,1.2-1.6v-5.1h10.2c2.8,0,5.1-2.3,5.1-5.1v-6.8c0-2.8-2.3-5.1-5.1-5.1h-18.7c-2.8,0-5.1,2.3-5.1,5.1v6.8
			C-107.5,937.3-105.2,939.6-102.4,939.6z M-104.1,927.7c0-0.9,0.8-1.7,1.7-1.7h18.7c0.9,0,1.7,0.8,1.7,1.7v6.8
			c0,0.9-0.8,1.7-1.7,1.7h-11.9c-0.9,0-1.7,0.8-1.7,1.7v1.7l-2-2.7c-0.3-0.4-0.8-0.7-1.4-0.7h-1.7c-0.9,0-1.7-0.8-1.7-1.7V927.7z"/>
		<rect id="XMLID_2360_" x="-100.7" y="929.4" class="st0" width="15.3" height="3.4"/>
	</g>
	<g id="Layer_1_21_">
	</g>
</g>
</svg>
