<?xml version="1.0" encoding="utf-8"?>
<!-- Generator: Adobe Illustrator 19.0.0, SVG Export Plug-In . SVG Version: 6.00 Build 0)  -->
<svg version="1.1" id="Layer_1" xmlns="http://www.w3.org/2000/svg" xmlns:xlink="http://www.w3.org/1999/xlink" x="0px" y="0px"
	 viewBox="-86.6 915.6 90.8 120.3" style="enable-background:new -86.6 915.6 90.8 120.3;" xml:space="preserve">
<style type="text/css">
	.st0{fill:#C7B299;}
</style>
<g id="XMLID_3091_">
	<g id="XMLID_3132_">
		<g id="XMLID_3133_">
			<path id="XMLID_3134_" class="st0" d="M-52.9,942.4c-4.5,0-8.2,3.7-8.2,8.2c0,4.5,3.7,8.2,8.2,8.2s8.2-3.7,8.2-8.2
				C-44.7,946.1-48.4,942.4-52.9,942.4z M-52.9,954.6c-2.3,0-4.1-1.8-4.1-4.1c0-2.2,1.8-4.1,4.1-4.1v0c2.3,0,4.1,1.8,4.1,4.1
				S-50.6,954.6-52.9,954.6z"/>
		</g>
	</g>
	<g id="XMLID_3127_">
		<g id="XMLID_3128_">
			<path id="XMLID_3129_" class="st0" d="M-29.5,942.4c-4.5,0-8.2,3.7-8.2,8.2c0,4.5,3.7,8.2,8.2,8.2s8.2-3.7,8.2-8.2
				C-21.4,946.1-25,942.4-29.5,942.4z M-29.5,954.6c-2.3,0-4.1-1.8-4.1-4.1c0-2.2,1.8-4.1,4.1-4.1v0c2.3,0,4.1,1.8,4.1,4.1
				S-27.3,954.6-29.5,954.6z"/>
		</g>
	</g>
	<g id="XMLID_3119_">
		<g id="XMLID_3120_">
			<path id="XMLID_3121_" class="st0" d="M-4.6,951.8c-0.9-4.8-4.8-8.6-9.7-9.2c-1.3-5-5.2-9.2-13-9.2h-11.8v-4.5
				c3.6-1.1,5.6-4.9,4.4-8.5c-1.1-3.6-4.9-5.6-8.5-4.4c-3.6,1.1-5.6,4.9-4.4,8.5c0.7,2.1,2.3,3.8,4.4,4.4v4.4h-11.8
				c-5.5,0-11.3,2.5-13.1,9.2c-6.2,0.9-10.6,6.6-9.7,12.8c0.7,4.9,4.4,8.8,9.2,9.6l0,0.1c0.6,9,7.3,12.2,13.5,12.2h27.8
				c9.3,0,13.1-6.1,13.5-12.2C-7.6,963.9-3.5,958-4.6,951.8z M-68.7,960.9c-3.9-1.1-6.1-5.1-5-9c0.7-2.4,2.6-4.3,5-5V960.9z
				 M-43.9,922.5c0-1.5,1.2-2.7,2.7-2.7s2.7,1.2,2.7,2.7s-1.2,2.7-2.7,2.7C-42.7,925.2-43.9,924-43.9,922.5z M-17.8,963.5
				c0,3.6-1.2,9.5-9.5,9.5h-27.7c-3.6,0-9.5-1.2-9.5-9.5l0-16.6c0-8.3,6-9.5,9.5-9.5h27.8c8.3,0,9.5,6,9.5,9.5V963.5z M-13.8,960.8
				v-14c3.1,0.9,5.3,3.7,5.3,7C-8.6,957-10.7,959.9-13.8,960.8z"/>
		</g>
	</g>
	<g id="XMLID_3103_">
		<g id="XMLID_3104_">
			<path id="XMLID_3118_" class="st0" d="M-29.5,964.3h-23.3c-1.1,0-2,0.9-2,2c0,1.1,0.9,2,2,2h23.3c1.1,0,2-0.9,2-2
				C-27.5,965.2-28.4,964.3-29.5,964.3z"/>
		</g>
	</g>
	<g id="XMLID_3095_">
		<g id="XMLID_3096_">
			<path id="XMLID_3097_" class="st0" d="M4.2,981.1L4.2,981.1c0-4.4-3.6-7.9-8-7.8c-3.7,0-6.8,2.6-7.6,6.1l-5.4,1.1h-48.7l-5.4-1.1
				c-0.9-4.3-5.2-7-9.4-6c-4.3,0.9-7,5.2-6,9.4c0.6,2.9,2.8,5.2,5.7,6v15.2c-3.5,0.9-5.9,4-5.9,7.6v3.6c0,1.1,0.9,2,2,2
				c1.1,0,2-0.9,2-2v-3.6c0-2.1,1.7-3.8,3.8-3.8c2.1,0,3.8,1.7,3.8,3.8v3.6c0,1.1,0.9,2,2,2s2-0.9,2-2v-3.6c0-3.6-2.4-6.7-5.9-7.6
				v-15.2c2.6-0.7,4.7-2.7,5.5-5.2l3.4,0.7v25.2c0,3.7,0.8,7.3,2.3,10.7v0.2c6,13.4,21.7,19.3,35.1,13.3c5.9-2.7,10.6-7.4,13.3-13.3
				l0.1-0.2c1.5-3.4,2.3-7,2.3-10.7v-25.2l3.4-0.7c0.8,2.6,2.9,4.5,5.5,5.2v15.2c-3.5,0.9-5.9,4-5.9,7.6v3.6c0,1.1,0.9,2,2,2
				s2-0.9,2-2v-3.6c0-2.1,1.7-3.8,3.8-3.8c2.1,0,3.8,1.7,3.8,3.8v3.6c0,1.1,0.9,2,2,2s2-0.9,2-2v-3.6c0-3.6-2.4-6.7-5.9-7.6v-15.2
				C1.8,987.8,4.2,984.7,4.2,981.1z M-78.7,984.9c-2.1,0-3.8-1.7-3.8-3.8c0-2.1,1.7-3.8,3.8-3.8c2.1,0,3.8,1.7,3.8,3.8
				C-74.9,983.2-76.6,984.9-78.7,984.9z M-41.2,1031.8c-7.7,0-14.8-3.9-19-10.4h37.9C-26.4,1027.9-33.5,1031.8-41.2,1031.8z
				 M-18.8,1009.3c0,2.7-0.5,5.4-1.5,8h-42c-1-2.5-1.5-5.2-1.5-8v-24.8h44.9V1009.3z M-3.7,984.9C-3.7,984.9-3.7,984.9-3.7,984.9
				L-3.7,984.9c-2.2-0.1-3.9-1.8-3.9-3.9s1.7-3.8,3.8-3.8s3.8,1.7,3.8,3.8C0.1,983.1-1.6,984.9-3.7,984.9z"/>
		</g>
	</g>
	<g id="XMLID_3092_">
		<g id="XMLID_3093_">
			<path id="XMLID_3094_" class="st0" d="M-34,998.9c-0.4-0.3-0.9-0.5-1.4-0.5h-6.1l7.5-7.7c0.7-0.9,0.6-2.2-0.3-2.9
				c-0.8-0.6-1.9-0.6-2.7,0L-47.8,999c-0.8,0.8-0.8,2.1,0,2.9c0.4,0.4,0.9,0.6,1.4,0.6h6.3l-7.7,8.6c-0.8,0.8-0.7,2.1,0.1,2.9l0,0
				c0.8,0.8,2.1,0.7,2.9-0.1l10.9-12C-33.1,1001-33.1,999.7-34,998.9z"/>
		</g>
	</g>
</g>
</svg>
