<?xml version="1.0" encoding="utf-8"?>
<!-- Generator: Adobe Illustrator 19.0.0, SVG Export Plug-In . SVG Version: 6.00 Build 0)  -->
<svg version="1.1" id="Layer_1" xmlns="http://www.w3.org/2000/svg" xmlns:xlink="http://www.w3.org/1999/xlink" x="0px" y="0px"
	 viewBox="-169.4 882.4 256.4 188.6" style="enable-background:new -169.4 882.4 256.4 188.6;" xml:space="preserve">
<style type="text/css">
	.st0{opacity:0.19;fill:#9E8B8A;}
	.st1{fill:#C7B299;}
	.st2{fill:#FFFFFF;}
	.st3{font-family:'StratumNo1-Black';}
	.st4{font-size:23.2138px;}
</style>
<path id="XMLID_3139_" class="st0" d="M70.2,1071.1h-222.9c-9.2,0-16.7-7.5-16.7-16.7V899.2c0-9.2,7.5-16.7,16.7-16.7H70.2
	c9.2,0,16.7,7.5,16.7,16.7v155.2C87,1063.6,79.5,1071.1,70.2,1071.1z"/>
<g id="XMLID_2359_">
	<g id="presentation-training-teaching-meeting-discussion_1_">
		<path id="XMLID_2392_" class="st1" d="M-78.6,965.3c0,5.6,4.6,10.2,10.2,10.2c5.6,0,10.2-4.6,10.2-10.2c0-5.6-4.6-10.2-10.2-10.2
			C-74,955.1-78.6,959.7-78.6,965.3z M-61.6,965.3c0,3.7-3,6.8-6.8,6.8c-3.7,0-6.8-3-6.8-6.8c0-3.7,3-6.8,6.8-6.8
			C-64.6,958.5-61.6,961.6-61.6,965.3z"/>
		<path id="XMLID_2383_" class="st1" d="M-43.4,983.5l11.9-11.9c0.7-0.7,0.7-1.7,0-2.4l-5.1-5.1c-0.6-0.6-1.6-0.7-2.3-0.1l-11.7,10
			l-11.3,4.9h-20c-0.5,0-1,0.2-1.3,0.6l-11.9,13.6c-0.4,0.5-0.5,1.1-0.3,1.7l5.1,15.3c0.2,0.5,0.5,0.8,1,1c0.5,0.2,1,0.2,1.4,0
			l6.8-3.4c0.6-0.3,0.9-0.9,0.9-1.5v28.8c0,4.7,3.8,8.5,8.5,8.5h13.6c0.9,0,1.7-0.8,1.7-1.7v-51.6l12.6-6.3
			C-43.7,983.7-43.5,983.6-43.4,983.5z M-80.3,1006c0-0.2,0-0.4-0.1-0.6l-3-7.6l3.2-3.9V1006z M-59,987.6c-0.6,0.3-0.9,0.9-0.9,1.5
			v51h-6.8v-27.2c0-0.9-0.8-1.7-1.7-1.7c-0.9,0-1.7,0.8-1.7,1.7v27.2h-1.7c-2.8,0-5.1-2.3-5.1-5.1v-45.9c0-0.7-0.5-1.4-1.1-1.6
			c-0.7-0.2-1.4,0-1.9,0.5l-6.8,8.5c-0.4,0.5-0.5,1.1-0.3,1.7l2.8,7l-3.6,1.8l-4.2-12.5l10.7-12.3h19.6c0.2,0,0.5,0,0.7-0.1
			l11.9-5.1c0.2-0.1,0.3-0.2,0.4-0.3l10.7-9.2l2.8,2.8l-10.5,10.5L-59,987.6z"/>
		<polygon id="XMLID_2382_" class="st1" points="-71.8,989.1 -70.1,989.1 -70.1,1002.7 -66.7,1002.7 -66.7,989.1 -65,989.1 
			-65,985.7 -71.8,985.7 		"/>
		<path id="XMLID_2375_" class="st1" d="M13.1,1019.7c0-5.6-4.6-10.2-10.2-10.2c-3.5,0-6.7,1.8-8.5,4.6c-1.8-2.8-4.9-4.6-8.5-4.6
			s-6.7,1.8-8.5,4.6c-1.8-2.8-4.9-4.6-8.5-4.6c-5.6,0-10.2,4.6-10.2,10.2c0,3.5,1.8,6.7,4.6,8.5c-2.8,1.8-4.6,4.9-4.6,8.5v6.8h3.4
			v-6.8c0-3.7,3-6.8,6.8-6.8c3.7,0,6.8,3,6.8,6.8v6.8h3.4v-6.8c0-3.7,3-6.8,6.8-6.8s6.8,3,6.8,6.8v6.8h3.4v-6.8c0-3.7,3-6.8,6.8-6.8
			s6.8,3,6.8,6.8v6.8h3.4v-6.8c0-3.5-1.8-6.7-4.6-8.5C11.3,1026.3,13.1,1023.2,13.1,1019.7z M-14,1012.9c3.7,0,6.8,3,6.8,6.8
			c0,3.7-3,6.8-6.8,6.8s-6.8-3-6.8-6.8C-20.8,1015.9-17.8,1012.9-14,1012.9z M-37.8,1019.7c0-3.7,3-6.8,6.8-6.8c3.7,0,6.8,3,6.8,6.8
			c0,3.7-3,6.8-6.8,6.8C-34.8,1026.5-37.8,1023.4-37.8,1019.7z M-22.5,1031c-0.8-1.1-1.7-2.1-2.9-2.9c1.1-0.8,2.1-1.7,2.9-2.9
			c0.8,1.1,1.7,2.1,2.9,2.9C-20.8,1028.9-21.8,1029.9-22.5,1031z M-5.5,1031c-0.8-1.1-1.7-2.1-2.9-2.9c1.1-0.8,2.1-1.7,2.9-2.9
			c0.8,1.1,1.7,2.1,2.9,2.9C-3.8,1028.9-4.8,1029.9-5.5,1031z M2.9,1026.5c-3.7,0-6.8-3-6.8-6.8c0-3.7,3-6.8,6.8-6.8s6.8,3,6.8,6.8
			C9.7,1023.4,6.7,1026.5,2.9,1026.5z"/>
		<path id="XMLID_2374_" class="st1" d="M11.4,934.7h-62.8c-0.9,0-1.7,0.8-1.7,1.7v32.3h3.4v-30.6H9.7V984c0,2.8-2.3,5.1-5.1,5.1
			H-48v3.4H4.6c4.7,0,8.5-3.8,8.5-8.5v-47.6C13.1,935.5,12.4,934.7,11.4,934.7z"/>
		<path id="XMLID_2368_" class="st1" d="M-24.2,943.2h-17c-0.9,0-1.7,0.8-1.7,1.7v6.8c0,0.9,0.8,1.7,1.7,1.7h17
			c0.9,0,1.7-0.8,1.7-1.7V950h5.1v1.7c0,0.9,0.8,1.7,1.7,1.7h6.8v5.1h-6.8c-0.9,0-1.7,0.8-1.7,1.7v6.8c0,0.9,0.8,1.7,1.7,1.7h6.8
			v5.1h-6.8c-0.9,0-1.7,0.8-1.7,1.7v6.8c0,0.9,0.8,1.7,1.7,1.7h17c0.9,0,1.7-0.8,1.7-1.7v-6.8c0-0.9-0.8-1.7-1.7-1.7h-6.8v-5.1h6.8
			c0.9,0,1.7-0.8,1.7-1.7v-6.8c0-0.9-0.8-1.7-1.7-1.7h-6.8v-5.1h6.8c0.9,0,1.7-0.8,1.7-1.7v-6.8c0-0.9-0.8-1.7-1.7-1.7h-17
			c-0.9,0-1.7,0.8-1.7,1.7v1.7h-5.1v-1.7C-22.5,944-23.3,943.2-24.2,943.2z M-25.9,950h-13.6v-3.4h13.6V950z M-0.4,980.6H-14v-3.4
			h13.6V980.6z M-0.4,965.3H-14v-3.4h13.6V965.3z M-14,946.6h13.6v3.4H-14V946.6z"/>
		<rect id="XMLID_2367_" x="-41.2" y="956.8" class="st1" width="18.7" height="3.4"/>
		<rect id="XMLID_2366_" x="-29.3" y="963.6" class="st1" width="6.8" height="3.4"/>
		<rect id="XMLID_2365_" x="-27.6" y="970.4" class="st1" width="5.1" height="3.4"/>
		<rect id="XMLID_2364_" x="-32.7" y="977.2" class="st1" width="10.2" height="3.4"/>
		<path id="XMLID_2361_" class="st1" d="M-88.8,951.7h0.8l4.6,6.1c0.3,0.4,0.8,0.7,1.4,0.7c0.2,0,0.4,0,0.5-0.1
			c0.7-0.2,1.2-0.9,1.2-1.6v-5.1h10.2c2.8,0,5.1-2.3,5.1-5.1v-6.8c0-2.8-2.3-5.1-5.1-5.1h-18.7c-2.8,0-5.1,2.3-5.1,5.1v6.8
			C-93.9,949.4-91.6,951.7-88.8,951.7z M-90.5,939.8c0-0.9,0.8-1.7,1.7-1.7h18.7c0.9,0,1.7,0.8,1.7,1.7v6.8c0,0.9-0.8,1.7-1.7,1.7
			H-82c-0.9,0-1.7,0.8-1.7,1.7v1.7l-2-2.7c-0.3-0.4-0.8-0.7-1.4-0.7h-1.7c-0.9,0-1.7-0.8-1.7-1.7V939.8z"/>
		<rect id="XMLID_2360_" x="-87.1" y="941.5" class="st1" width="15.3" height="3.4"/>
	</g>
	<g id="Layer_1_21_">
	</g>
</g>
<text id="XMLID_2357_" transform="matrix(1 0 0 1 -98.9456 921.1691)" class="st2 st3 st4">SLIDE DECK</text>
</svg>
