<?xml version="1.0" encoding="utf-8"?>
<!-- Generator: Adobe Illustrator 19.0.0, SVG Export Plug-In . SVG Version: 6.00 Build 0)  -->
<svg version="1.1" id="Layer_1" xmlns="http://www.w3.org/2000/svg" xmlns:xlink="http://www.w3.org/1999/xlink" x="0px" y="0px"
	 viewBox="-351 186.4 256.4 188.6" style="enable-background:new -351 186.4 256.4 188.6;" xml:space="preserve">
<style type="text/css">
	.st0{opacity:0.19;fill:#9E8B8A;enable-background:new    ;}
	.st1{enable-background:new    ;}
	.st2{fill:#FFFFFF;}
	.st3{fill:#C7B299;}
</style>
<path id="XMLID_40_" class="st0" d="M-114.9,375h-215.8c-11.2,0-20.3-9.1-20.3-20.3v-148c0-11.2,9.1-20.3,20.3-20.3h215.8
	c11.2,0,20.3,9.1,20.3,20.3v148C-94.6,365.9-103.7,375-114.9,375z"/>
<g class="st1">
	<path class="st2" d="M-275.4,213.4h-2.5l-1-3h-4.6l-0.9,3h-2.5l4.6-13.8h2.3L-275.4,213.4z M-282.7,208.2h3.2l-1.6-5.2
		L-282.7,208.2z"/>
	<path class="st2" d="M-263.4,213.4h-2.4l-5.2-8.9v8.9h-2.4v-13.8h2.4l5.2,8.9v-8.9h2.4V213.4z"/>
	<path class="st2" d="M-254.5,208c-0.4-0.1-0.7-0.2-1-0.3c-0.3-0.1-0.6-0.2-0.8-0.2c-0.3-0.1-0.5-0.2-0.8-0.2
		c-0.3-0.1-0.6-0.2-1-0.3c-0.3-0.1-0.6-0.2-0.9-0.3s-0.5-0.3-0.7-0.5s-0.4-0.4-0.5-0.6c-0.1-0.2-0.2-0.5-0.2-0.8v-2.8
		c0-0.3,0.1-0.6,0.2-0.9c0.1-0.3,0.3-0.5,0.5-0.7c0.2-0.2,0.4-0.4,0.7-0.5c0.3-0.1,0.6-0.2,0.9-0.2h4.4c0.3,0,0.6,0.1,0.9,0.2
		c0.3,0.1,0.5,0.3,0.7,0.5c0.2,0.2,0.4,0.4,0.5,0.7c0.1,0.3,0.2,0.6,0.2,0.9v1.6l-2.5,0.4v-1.5c0-0.2-0.1-0.3-0.2-0.4
		c-0.1-0.1-0.2-0.2-0.4-0.2h-2.8c-0.2,0-0.3,0.1-0.4,0.2c-0.1,0.1-0.2,0.2-0.2,0.4v1.7c0,0.2,0.1,0.3,0.2,0.4
		c0.1,0.1,0.2,0.2,0.4,0.2c0.6,0.2,1.2,0.3,1.8,0.5c0.6,0.2,1.2,0.3,2,0.6c0.6,0.2,1.1,0.4,1.5,0.8c0.4,0.3,0.6,0.8,0.6,1.5v3.1
		c0,0.3-0.1,0.6-0.2,0.9c-0.1,0.3-0.3,0.5-0.5,0.7c-0.2,0.2-0.4,0.4-0.7,0.5c-0.3,0.1-0.6,0.2-0.9,0.2h-4.5c-0.3,0-0.6-0.1-0.9-0.2
		c-0.3-0.1-0.5-0.3-0.7-0.5c-0.2-0.2-0.4-0.4-0.5-0.7c-0.1-0.3-0.2-0.6-0.2-0.9v-1.6l2.5-0.4v1.4c0,0.2,0.1,0.3,0.2,0.4
		c0.1,0.1,0.2,0.2,0.4,0.2h2.9c0.2,0,0.3-0.1,0.4-0.2c0.1-0.1,0.2-0.2,0.2-0.4v-2c0-0.2-0.1-0.3-0.2-0.4
		C-254.2,208.1-254.3,208.1-254.5,208z"/>
	<path class="st2" d="M-243.2,199.6h2.2l2.5,9.4l1.4-9.4h2.4l-2.4,13.8h-2.5l-2.6-9.9l-2.6,9.9h-2.5l-2.4-13.8h2.4l1.4,9.4
		L-243.2,199.6z"/>
	<path class="st2" d="M-232.5,199.6h8.3v2.3h-5.9v3.4h5.3v2.3h-5.3v3.5h5.9v2.3h-8.3V199.6z"/>
	<path class="st2" d="M-216.4,208.1h-2.6v5.3h-2.5v-13.8h7.2c0.3,0,0.6,0.1,0.9,0.2c0.3,0.1,0.5,0.3,0.7,0.5
		c0.2,0.2,0.4,0.4,0.5,0.7s0.2,0.6,0.2,0.9v3.9c0,0.5-0.2,1-0.5,1.4s-0.7,0.7-1.2,0.8l2.6,5.4h-2.7L-216.4,208.1z M-214.4,202.5
		c0-0.2-0.1-0.3-0.2-0.4s-0.2-0.2-0.4-0.2h-4v3.9h4c0.2,0,0.3-0.1,0.4-0.2c0.1-0.1,0.2-0.2,0.2-0.4V202.5z"/>
	<path class="st2" d="M-204.3,199.6h6.8c0.3,0,0.6,0.1,0.9,0.2c0.3,0.1,0.5,0.3,0.7,0.5c0.2,0.2,0.3,0.4,0.5,0.7s0.2,0.5,0.2,0.8v3
		c0,0.3-0.1,0.6-0.3,0.9c-0.2,0.3-0.5,0.5-0.8,0.6c0.3,0.1,0.6,0.2,0.8,0.5s0.4,0.6,0.4,1v3.5c0,0.3-0.1,0.6-0.2,0.8
		s-0.3,0.5-0.5,0.7c-0.2,0.2-0.4,0.4-0.7,0.5s-0.6,0.2-0.9,0.2h-6.9V199.6z M-198.3,205.2c0.2,0,0.3-0.1,0.4-0.2
		c0.1-0.1,0.1-0.2,0.1-0.4v-2.3c0-0.2-0.1-0.3-0.2-0.4s-0.2-0.2-0.4-0.2h-3.5v3.3H-198.3z M-201.8,211.1h3.6c0.2,0,0.3-0.1,0.4-0.2
		s0.2-0.2,0.2-0.4V208c0-0.2-0.1-0.3-0.2-0.4s-0.2-0.2-0.4-0.2h-3.6V211.1z"/>
	<path class="st2" d="M-185.8,199.6h2.5v11.5c0,0.3-0.1,0.6-0.2,0.9s-0.3,0.5-0.5,0.7c-0.2,0.2-0.4,0.4-0.7,0.5
		c-0.3,0.1-0.6,0.2-0.9,0.2h-4.6c-0.3,0-0.6-0.1-0.9-0.2c-0.3-0.1-0.5-0.3-0.7-0.5c-0.2-0.2-0.4-0.4-0.5-0.7
		c-0.1-0.3-0.2-0.6-0.2-0.9v-11.5h2.5v10.9c0,0.2,0.1,0.3,0.2,0.4c0.1,0.1,0.2,0.2,0.4,0.2h3.1c0.2,0,0.3-0.1,0.4-0.2
		c0.1-0.1,0.2-0.2,0.2-0.4V199.6z"/>
	<path class="st2" d="M-171.3,213.4h-9.3v-2.3l6.3-9.2h-6.1v-2.3h9v2.3l-6.3,9.2h6.4V213.4z"/>
	<path class="st2" d="M-159.5,213.4h-9.3v-2.3l6.3-9.2h-6.1v-2.3h9v2.3l-6.3,9.2h6.4V213.4z"/>
</g>
<g>
	<g>
		<path class="st2" d="M-234.3,364.9c-0.2-0.1-0.3-0.2-0.5-0.3c-0.1-0.1-0.2-0.3-0.3-0.5c-0.1-0.2-0.1-0.4-0.1-0.6v-5.9
			c0-0.2,0-0.4,0.1-0.6c0.1-0.2,0.2-0.3,0.3-0.5c0.1-0.1,0.3-0.2,0.5-0.3c0.2-0.1,0.4-0.1,0.6-0.1h3.1c0.2,0,0.4,0,0.6,0.1
			c0.2,0.1,0.3,0.2,0.5,0.3c0.1,0.1,0.2,0.3,0.3,0.5c0.1,0.2,0.1,0.4,0.1,0.6v5.9c0,0.2,0,0.4-0.1,0.6c-0.1,0.2-0.2,0.3-0.3,0.5
			c-0.1,0.1-0.3,0.2-0.5,0.3s-0.4,0.1-0.6,0.1h-0.8v2.1h-1.5V365h-0.8C-234,365-234.2,364.9-234.3,364.9z M-230.8,358
			c0-0.1,0-0.2-0.1-0.2c-0.1-0.1-0.2-0.1-0.3-0.1h-2.1c-0.1,0-0.2,0-0.3,0.1c-0.1,0.1-0.1,0.1-0.1,0.2v5.2c0,0.1,0,0.2,0.1,0.2
			c0.1,0.1,0.2,0.1,0.3,0.1h2.1c0.1,0,0.2,0,0.3-0.1c0.1-0.1,0.1-0.1,0.1-0.2V358z"/>
		<path class="st2" d="M-223.1,356.2h1.6v7.4c0,0.2,0,0.4-0.1,0.6c-0.1,0.2-0.2,0.3-0.3,0.5c-0.1,0.1-0.3,0.2-0.5,0.3
			s-0.4,0.1-0.6,0.1h-3c-0.2,0-0.4,0-0.6-0.1s-0.3-0.2-0.5-0.3c-0.1-0.1-0.2-0.3-0.3-0.5c-0.1-0.2-0.1-0.4-0.1-0.6v-7.4h1.6v7
			c0,0.1,0,0.2,0.1,0.2c0.1,0.1,0.2,0.1,0.3,0.1h2c0.1,0,0.2,0,0.3-0.1c0.1-0.1,0.1-0.1,0.1-0.2V356.2z"/>
		<path class="st2" d="M-218,365h-1.6v-8.8h1.6V365z"/>
		<path class="st2" d="M-210.3,365h-5.9v-1.5l4-5.9h-3.9v-1.5h5.8v1.5l-4,5.9h4.1V365z"/>
	</g>
</g>
<g>
	<path class="st3" d="M-241.7,242.3h2.9v2.7h-2.9V242.3z"/>
	<path class="st3" d="M-235.9,242.3h2.9v2.7h-2.9V242.3z"/>
	<path class="st3" d="M-230,242.3h2.9v2.7h-2.9V242.3z"/>
	<path class="st3" d="M-246.3,306.5h24.1l4.3-4.3l-4.3-4.3h-24.1v-60.1h35.3v16.1h17.4v-3.5L-209,235h-40v62.8h-17.5v8.6h8.6v-5.8
		h34.7l1.6,1.6l-1.6,1.6h-31.6v2.7h5.8v7.3h35.1V311h-32.3V306.5z M-208.3,239.6l11.5,11.5h-11.5V239.6z M-260.7,303.7h-3.1v-3.1
		h3.1V303.7z"/>
	<path class="st3" d="M-230,257h29.2v2.7H-230V257z"/>
	<path class="st3" d="M-230,249.7h16.1v2.7H-230V249.7z"/>
	<path class="st3" d="M-241.7,249.7h8.8v2.7h-8.8V249.7z"/>
	<path class="st3" d="M-230,262.8h16.1v2.7H-230V262.8z"/>
	<path class="st3" d="M-233.1,257h-8.6v8.6h8.6V257z M-235.9,262.8h-3.1v-3.1h3.1V262.8z"/>
	<path class="st3" d="M-230,270.1h29.2v2.7H-230V270.1z"/>
	<path class="st3" d="M-230,276h16.1v2.7H-230V276z"/>
	<path class="st3" d="M-233.1,270.1h-8.6v8.6h8.6V270.1z M-235.9,276h-3.1v-3.1h3.1V276z"/>
	<path class="st3" d="M-230,283.3h29.2v2.7H-230V283.3z"/>
	<path class="st3" d="M-230,289.1h16.1v2.7H-230V289.1z"/>
	<path class="st3" d="M-241.7,291.9h8.6v-8.6h-8.6V291.9z M-239,286h3.1v3.1h-3.1V286z"/>
	<path class="st3" d="M-195,302.2c-5.6,0-10.1,4.5-10.1,10.1c0,5.6,4.5,10.1,10.1,10.1c5.6,0,10.1-4.5,10.1-10.1
		C-184.8,306.7-189.4,302.2-195,302.2z M-195,319.7c-4.1,0-7.4-3.3-7.4-7.4c0-4.1,3.3-7.4,7.4-7.4s7.4,3.3,7.4,7.4
		C-187.6,316.4-190.9,319.7-195,319.7z"/>
	<path class="st3" d="M-193.7,296.4v-39.6h-2.7v39.6c-8,0.7-14.6,7.6-14.6,15.9c0,8.8,7.2,16,16,16s16-7.2,16-16
		C-179,304-185.5,297.1-193.7,296.4z M-195,325.6c-7.3,0-13.2-5.9-13.2-13.2c0-7.3,5.9-13.2,13.2-13.2s13.2,5.9,13.2,13.2
		C-181.7,319.6-187.7,325.6-195,325.6z"/>
	<path class="st3" d="M-196.4,311.7l-2.5,2.5l1.9,1.9l3.3-3.3v-5h-2.7V311.7z"/>
</g>
</svg>
