<?xml version="1.0" encoding="utf-8"?>
<!-- Generator: Adobe Illustrator 19.0.0, SVG Export Plug-In . SVG Version: 6.00 Build 0)  -->
<svg version="1.1" id="Layer_1" xmlns="http://www.w3.org/2000/svg" xmlns:xlink="http://www.w3.org/1999/xlink" x="0px" y="0px"
	 viewBox="-351 186.4 256.4 188.6" style="enable-background:new -351 186.4 256.4 188.6;" xml:space="preserve">
<style type="text/css">
	.st0{opacity:0.19;fill:#9E8B8A;enable-background:new    ;}
	.st1{enable-background:new    ;}
	.st2{fill:#FFFFFF;}
	.st3{fill:#C7B299;}
</style>
<path id="XMLID_40_" class="st0" d="M-114.9,375h-215.8c-11.2,0-20.3-9.1-20.3-20.3v-148c0-11.2,9.1-20.3,20.3-20.3h215.8
	c11.2,0,20.3,9.1,20.3,20.3v148C-94.6,365.9-103.7,375-114.9,375z"/>
<g class="st1">
	<path class="st2" d="M-293.3,199.6h6.8c0.3,0,0.6,0.1,0.9,0.2c0.3,0.1,0.5,0.3,0.7,0.5c0.2,0.2,0.3,0.4,0.5,0.7
		c0.1,0.3,0.2,0.5,0.2,0.8v3c0,0.3-0.1,0.6-0.3,0.9s-0.5,0.5-0.8,0.6c0.3,0.1,0.6,0.2,0.8,0.5s0.4,0.6,0.4,1v3.5
		c0,0.3-0.1,0.6-0.2,0.8c-0.1,0.3-0.3,0.5-0.5,0.7c-0.2,0.2-0.4,0.4-0.7,0.5s-0.6,0.2-0.9,0.2h-6.9V199.6z M-287.3,205.2
		c0.2,0,0.3-0.1,0.4-0.2s0.1-0.2,0.1-0.4v-2.3c0-0.2-0.1-0.3-0.2-0.4c-0.1-0.1-0.2-0.2-0.4-0.2h-3.5v3.3H-287.3z M-290.8,211.1h3.6
		c0.2,0,0.3-0.1,0.4-0.2s0.2-0.2,0.2-0.4V208c0-0.2-0.1-0.3-0.2-0.4s-0.2-0.2-0.4-0.2h-3.6V211.1z"/>
	<path class="st2" d="M-276.2,208.1h-2.6v5.3h-2.5v-13.8h7.2c0.3,0,0.6,0.1,0.9,0.2c0.3,0.1,0.5,0.3,0.7,0.5
		c0.2,0.2,0.4,0.4,0.5,0.7c0.1,0.3,0.2,0.6,0.2,0.9v3.9c0,0.5-0.2,1-0.5,1.4c-0.3,0.4-0.7,0.7-1.2,0.8l2.6,5.4h-2.7L-276.2,208.1z
		 M-274.3,202.5c0-0.2-0.1-0.3-0.2-0.4c-0.1-0.1-0.2-0.2-0.4-0.2h-4v3.9h4c0.2,0,0.3-0.1,0.4-0.2c0.1-0.1,0.2-0.2,0.2-0.4V202.5z"/>
	<path class="st2" d="M-266.1,213.4h-2.5v-13.8h2.5V213.4z"/>
	<path class="st2" d="M-263,199.6h6.7c0.3,0,0.6,0.1,0.9,0.2c0.3,0.1,0.5,0.3,0.7,0.5c0.2,0.2,0.4,0.4,0.5,0.7
		c0.1,0.3,0.2,0.6,0.2,0.9v9.2c0,0.3-0.1,0.6-0.2,0.9c-0.1,0.3-0.3,0.5-0.5,0.7c-0.2,0.2-0.4,0.4-0.7,0.5c-0.3,0.1-0.6,0.2-0.9,0.2
		h-6.7V199.6z M-256.5,202.5c0-0.2-0.1-0.3-0.2-0.4c-0.1-0.1-0.2-0.2-0.4-0.2h-3.5v9.2h3.5c0.2,0,0.3-0.1,0.4-0.2
		c0.1-0.1,0.2-0.2,0.2-0.4V202.5z"/>
	<path class="st2" d="M-246.9,206.1h4.9v5c0,0.3-0.1,0.6-0.2,0.9c-0.1,0.3-0.3,0.5-0.5,0.7s-0.4,0.4-0.7,0.5s-0.6,0.2-0.9,0.2h-4.6
		c-0.3,0-0.6-0.1-0.9-0.2c-0.3-0.1-0.5-0.3-0.7-0.5c-0.2-0.2-0.4-0.4-0.5-0.7c-0.1-0.3-0.2-0.6-0.2-0.9v-9.2c0-0.3,0.1-0.6,0.2-0.9
		c0.1-0.3,0.3-0.5,0.5-0.7c0.2-0.2,0.4-0.4,0.7-0.5c0.3-0.1,0.6-0.2,0.9-0.2h4.6c0.3,0,0.6,0.1,0.9,0.2c0.3,0.1,0.5,0.3,0.7,0.5
		c0.2,0.2,0.4,0.4,0.5,0.7c0.1,0.3,0.2,0.6,0.2,0.9v1.5l-2.5,0.4v-1.4c0-0.2-0.1-0.3-0.2-0.4c-0.1-0.1-0.2-0.2-0.4-0.2h-3.1
		c-0.2,0-0.3,0.1-0.4,0.2c-0.1,0.1-0.2,0.2-0.2,0.4v8.1c0,0.2,0.1,0.3,0.2,0.4c0.1,0.1,0.2,0.2,0.4,0.2h3.1c0.2,0,0.3-0.1,0.4-0.2
		c0.1-0.1,0.2-0.2,0.2-0.4v-2.3h-2.4V206.1z"/>
	<path class="st2" d="M-239.2,199.6h8.3v2.3h-5.9v3.4h5.3v2.3h-5.3v3.5h5.9v2.3h-8.3V199.6z"/>
	<path class="st2" d="M-224.9,199.6h10v2.3h-3.7v11.5h-2.5v-11.5h-3.7V199.6z"/>
	<path class="st2" d="M-205.8,207.5h-4.7v5.9h-2.5v-13.8h2.5v5.6h4.7v-5.6h2.5v13.8h-2.5V207.5z"/>
	<path class="st2" d="M-200.2,199.6h8.3v2.3h-5.9v3.4h5.3v2.3h-5.3v3.5h5.9v2.3h-8.3V199.6z"/>
	<path class="st2" d="M-180.6,206.1h4.9v5c0,0.3-0.1,0.6-0.2,0.9s-0.3,0.5-0.5,0.7c-0.2,0.2-0.4,0.4-0.7,0.5s-0.6,0.2-0.9,0.2h-4.6
		c-0.3,0-0.6-0.1-0.9-0.2c-0.3-0.1-0.5-0.3-0.7-0.5c-0.2-0.2-0.4-0.4-0.5-0.7c-0.1-0.3-0.2-0.6-0.2-0.9v-9.2c0-0.3,0.1-0.6,0.2-0.9
		c0.1-0.3,0.3-0.5,0.5-0.7c0.2-0.2,0.4-0.4,0.7-0.5c0.3-0.1,0.6-0.2,0.9-0.2h4.6c0.3,0,0.6,0.1,0.9,0.2c0.3,0.1,0.5,0.3,0.7,0.5
		c0.2,0.2,0.4,0.4,0.5,0.7s0.2,0.6,0.2,0.9v1.5l-2.5,0.4v-1.4c0-0.2-0.1-0.3-0.2-0.4s-0.2-0.2-0.4-0.2h-3.1c-0.2,0-0.3,0.1-0.4,0.2
		c-0.1,0.1-0.2,0.2-0.2,0.4v8.1c0,0.2,0.1,0.3,0.2,0.4c0.1,0.1,0.2,0.2,0.4,0.2h3.1c0.2,0,0.3-0.1,0.4-0.2c0.1-0.1,0.2-0.2,0.2-0.4
		v-2.3h-2.4V206.1z"/>
	<path class="st2" d="M-162.6,213.4h-2.5l-1-3h-4.6l-0.9,3h-2.5l4.6-13.8h2.3L-162.6,213.4z M-170,208.2h3.2l-1.6-5.2L-170,208.2z"
		/>
	<path class="st2" d="M-160.7,199.6h7c0.3,0,0.6,0.1,0.9,0.2c0.3,0.1,0.5,0.3,0.7,0.5c0.2,0.2,0.4,0.4,0.5,0.7s0.2,0.6,0.2,0.9v3.9
		c0,0.3-0.1,0.6-0.2,0.9s-0.3,0.5-0.5,0.7c-0.2,0.2-0.4,0.4-0.7,0.5s-0.6,0.2-0.9,0.2h-4.5v5.3h-2.5V199.6z M-153.9,202.5
		c0-0.2-0.1-0.3-0.2-0.4s-0.2-0.2-0.4-0.2h-3.8v3.9h3.8c0.2,0,0.3-0.1,0.4-0.2c0.1-0.1,0.2-0.2,0.2-0.4V202.5z"/>
</g>
<g>
	<path class="st3" d="M-196.4,272.8c-7.8-5.6-14.4-12.8-17.7-19.1v-10h-17.4v10c-3.3,6.3-9.9,13.4-17.7,19.1c-8.3,6-16.6,9.4-23,9.4
		V316h11.7v26.6h17.4V316h40.6v26.6h17.4V316h11.7v-33.8C-179.7,282.2-188.1,278.8-196.4,272.8z M-200.5,277c2.5,1.8,5.1,3.5,7.7,5
		v16.2h-7.7V277z M-214.1,264.1c2.3,2.8,4.9,5.6,7.9,8.2v25.9h-7.9V264.1z M-225.7,249.6h5.8v48.6h-5.8V249.6z M-239.3,272.3
		c2.9-2.6,5.6-5.4,7.9-8.2v34.1h-7.9V272.3z M-252.9,282.1c2.7-1.5,5.3-3.2,7.8-5v21.2h-7.8V282.1z M-266.4,287.4
		c2.5-0.5,5.1-1.4,7.7-2.5v13.3h-7.7V287.4z M-248.9,336.8h-5.8V316h5.8V336.8z M-190.9,336.8h-5.8V316h5.8V336.8z M-179.2,310.2
		h-87.2V304h87.2V310.2z M-179.2,298.2h-7.8v-13.4c2.6,1.1,5.3,2,7.8,2.5V298.2z"/>
	<path class="st3" d="M-201.7,254.6h5.8v5.8h-5.8V254.6z"/>
	<path class="st3" d="M-182.7,271.7h5.8v5.8h-5.8V271.7z"/>
	<path class="st3" d="M-193.7,243.8h5.8v5.8h-5.8V243.8z"/>
	<path class="st3" d="M-256.5,250.2h5.8v5.8h-5.8V250.2z"/>
	<path class="st3" d="M-270.3,267.2h5.8v5.8h-5.8V267.2z"/>
</g>
</svg>
