<?xml version="1.0" encoding="utf-8"?>
<!-- Generator: Adobe Illustrator 19.0.0, SVG Export Plug-In . SVG Version: 6.00 Build 0)  -->
<svg version="1.1" id="Layer_1" xmlns="http://www.w3.org/2000/svg" xmlns:xlink="http://www.w3.org/1999/xlink" x="0px" y="0px"
	 viewBox="-351 186.4 256.4 188.6" style="enable-background:new -351 186.4 256.4 188.6;" xml:space="preserve">
<style type="text/css">
	.st0{opacity:0.19;fill:#9E8B8A;enable-background:new    ;}
	.st1{enable-background:new    ;}
	.st2{fill:#FFFFFF;}
	.st3{fill:#C7B299;}
</style>
<path id="XMLID_40_" class="st0" d="M-114.9,375h-215.8c-11.2,0-20.3-9.1-20.3-20.3v-148c0-11.2,9.1-20.3,20.3-20.3h215.8
	c11.2,0,20.3,9.1,20.3,20.3v148C-94.6,365.9-103.7,375-114.9,375z"/>
<g class="st1">
	<path class="st2" d="M-276.7,206.1h4.9v5c0,0.3-0.1,0.6-0.2,0.9c-0.1,0.3-0.3,0.5-0.5,0.7s-0.4,0.4-0.7,0.5s-0.6,0.2-0.9,0.2h-4.6
		c-0.3,0-0.6-0.1-0.9-0.2c-0.3-0.1-0.5-0.3-0.7-0.5c-0.2-0.2-0.4-0.4-0.5-0.7c-0.1-0.3-0.2-0.6-0.2-0.9v-9.2c0-0.3,0.1-0.6,0.2-0.9
		c0.1-0.3,0.3-0.5,0.5-0.7c0.2-0.2,0.4-0.4,0.7-0.5c0.3-0.1,0.6-0.2,0.9-0.2h4.6c0.3,0,0.6,0.1,0.9,0.2c0.3,0.1,0.5,0.3,0.7,0.5
		c0.2,0.2,0.4,0.4,0.5,0.7c0.1,0.3,0.2,0.6,0.2,0.9v1.5l-2.5,0.4v-1.4c0-0.2-0.1-0.3-0.2-0.4c-0.1-0.1-0.2-0.2-0.4-0.2h-3.1
		c-0.2,0-0.3,0.1-0.4,0.2c-0.1,0.1-0.2,0.2-0.2,0.4v8.1c0,0.2,0.1,0.3,0.2,0.4c0.1,0.1,0.2,0.2,0.4,0.2h3.1c0.2,0,0.3-0.1,0.4-0.2
		c0.1-0.1,0.2-0.2,0.2-0.4v-2.3h-2.4V206.1z"/>
	<path class="st2" d="M-258.7,213.4h-2.5l-1-3h-4.6l-0.9,3h-2.5l4.6-13.8h2.3L-258.7,213.4z M-266.1,208.2h3.2l-1.6-5.2
		L-266.1,208.2z"/>
	<path class="st2" d="M-254.4,205.2v8.2h-2.4v-13.8h2.4l3.7,8.4l3.7-8.4h2.4v13.8h-2.4l0-8.2l-2.6,5.9h-2.1L-254.4,205.2z"/>
	<path class="st2" d="M-241.5,199.6h8.3v2.3h-5.9v3.4h5.3v2.3h-5.3v3.5h5.9v2.3h-8.3V199.6z"/>
	<path class="st2" d="M-224.8,213.2c-0.3-0.1-0.5-0.3-0.7-0.5c-0.2-0.2-0.4-0.4-0.5-0.7c-0.1-0.3-0.2-0.6-0.2-0.9v-9.2
		c0-0.3,0.1-0.6,0.2-0.9c0.1-0.3,0.3-0.5,0.5-0.7c0.2-0.2,0.4-0.4,0.7-0.5c0.3-0.1,0.6-0.2,0.9-0.2h4.9c0.3,0,0.6,0.1,0.9,0.2
		c0.3,0.1,0.5,0.3,0.7,0.5c0.2,0.2,0.4,0.4,0.5,0.7s0.2,0.6,0.2,0.9v9.2c0,0.3-0.1,0.6-0.2,0.9s-0.3,0.5-0.5,0.7
		c-0.2,0.2-0.4,0.4-0.7,0.5c-0.3,0.1-0.6,0.2-0.9,0.2h-4.9C-224.2,213.4-224.5,213.3-224.8,213.2z M-219.3,202.5
		c0-0.2-0.1-0.3-0.2-0.4s-0.2-0.2-0.4-0.2h-3.3c-0.2,0-0.3,0.1-0.4,0.2c-0.1,0.1-0.2,0.2-0.2,0.4v8.1c0,0.2,0.1,0.3,0.2,0.4
		c0.1,0.1,0.2,0.2,0.4,0.2h3.3c0.2,0,0.3-0.1,0.4-0.2c0.1-0.1,0.2-0.2,0.2-0.4V202.5z"/>
	<path class="st2" d="M-213.8,213.4v-13.8h8.4v2.3h-6v3.4h5.5v2.3h-5.5v5.8H-213.8z"/>
	<path class="st2" d="M-199,199.6h2.5v11.5h5.6v2.3h-8.1V199.6z"/>
	<path class="st2" d="M-186.1,213.4h-2.5v-13.8h2.5V213.4z"/>
	<path class="st2" d="M-183,213.4v-13.8h8.4v2.3h-6v3.4h5.5v2.3h-5.5v5.8H-183z"/>
	<path class="st2" d="M-172.7,199.6h8.3v2.3h-5.9v3.4h5.3v2.3h-5.3v3.5h5.9v2.3h-8.3V199.6z"/>
</g>
<path id="XMLID_119_" class="st3" d="M-233.8,306.1c-1.4,1.4-2.2,3.3-2.2,5.3c0,1.9,0.7,3.7,2,5c0,0,0,0,0.1,0.1
	c0.1,0.1,0.1,0.1,0.2,0.2c1.4,1.4,3.3,2.2,5.3,2.2c1.2,0,2.3-1,2.3-2.3c0-1.2-1-2.3-2.3-2.3c-0.8,0-1.5-0.3-2.1-0.9c0,0,0,0-0.1-0.1
	c-0.1-0.1-0.1-0.1-0.2-0.2c-0.4-0.5-0.6-1.2-0.6-1.8c0-0.8,0.3-1.5,0.9-2.1c0,0,0,0,0,0c0.6-0.6,1.3-0.9,2.1-0.9h20.9
	c3.4,0,6.6-1.3,9-3.7c2.4-2.4,3.7-5.6,3.7-9c0-3.4-1.3-6.6-3.7-9c-2.4-2.4-5.6-3.7-9-3.7c-1,0-1.8-0.8-1.8-1.8c0-1,0.8-1.8,1.8-1.8
	c4.4,0,8.5,1.7,11.6,4.8c3.1,3.1,4.8,7.2,4.8,11.6c0,4.4-1.7,8.5-4.8,11.6c-3.1,3.1-7.2,4.8-11.6,4.8h-17.2c1.3,1.1,2.1,2.7,2.1,4.6
	c0,3.3-2.7,5.9-5.9,5.9c-3,0-5.8-1.2-7.9-3.3c-0.1-0.1-0.3-0.3-0.4-0.4c-1.9-2.1-2.9-4.7-2.9-7.5c0-3,1.2-5.8,3.3-7.9c0,0,0,0,0,0
	l0,0c2.1-2.1,4.9-3.3,7.9-3.3h20.9c1.2,0,2.3-0.5,3.2-1.3c0.9-0.9,1.3-2,1.3-3.2s-0.5-2.3-1.3-3.2c-0.9-0.9-2-1.3-3.2-1.3
	c-1,0-1.8-0.8-1.8-1.8c0-1,0.8-1.8,1.8-1.8c2.2,0,4.2,0.9,5.8,2.4c1.6,1.6,2.4,3.6,2.4,5.8s-0.9,4.2-2.4,5.8
	c-1.6,1.6-3.6,2.4-5.8,2.4h-20.9C-230.5,303.9-232.3,304.7-233.8,306.1C-233.8,306.1-233.8,306.1-233.8,306.1L-233.8,306.1z
	 M-180.9,244.5h-26.5c-1,0-1.8,0.8-1.8,1.8s0.8,1.8,1.8,1.8h24.6v80.1h-80.1v-80.1h7.3c1,0,1.8-0.8,1.8-1.8s-0.8-1.8-1.8-1.8h-9.1
	c-1,0-1.8,0.8-1.8,1.8v83.8c0,1,0.8,1.8,1.8,1.8h83.8c1,0,1.8-0.8,1.8-1.8v-83.8C-179.1,245.3-179.9,244.5-180.9,244.5z
	 M-229.5,287.1v-5.7h-1.1c-1,0-1.8-0.8-1.8-1.8c0-1,0.8-1.8,1.8-1.8h1.1v-5.7h-1.1c-1,0-1.8-0.8-1.8-1.8c0-1,0.8-1.8,1.8-1.8h1.1
	v-5.7h-1.1c-1,0-1.8-0.8-1.8-1.8c0-1,0.8-1.8,1.8-1.8h1.1v-5.7h-1.1c-1,0-1.8-0.8-1.8-1.8s0.8-1.8,1.8-1.8h1.1v-5
	c0-1,0.8-1.8,1.8-1.8c1,0,1.8,0.8,1.8,1.8v5h6.8v-5c0-1,0.8-1.8,1.8-1.8c1,0,1.8,0.8,1.8,1.8v5h1.1c1,0,1.8,0.8,1.8,1.8
	s-0.8,1.8-1.8,1.8h-1.1v5.7h1.1c1,0,1.8,0.8,1.8,1.8c0,1-0.8,1.8-1.8,1.8h-1.1v5.7h1.1c1,0,1.8,0.8,1.8,1.8c0,1-0.8,1.8-1.8,1.8
	h-1.1v5.7h1.1c1,0,1.8,0.8,1.8,1.8s-0.8,1.8-1.8,1.8h-1.1v5.7h1.1c1,0,1.8,0.8,1.8,1.8c0,1-0.8,1.8-1.8,1.8h-1.1v4.4
	c0,1-0.8,1.8-1.8,1.8c-1,0-1.8-0.8-1.8-1.8v-4.4h-6.8v4.4c0,1-0.8,1.8-1.8,1.8s-1.8-0.8-1.8-1.8v-4.4h-1.1c-1,0-1.8-0.8-1.8-1.8
	c0-1,0.8-1.8,1.8-1.8L-229.5,287.1L-229.5,287.1z M-225.8,259.1h6.8v-5.7h-6.8V259.1L-225.8,259.1z M-225.8,268.4h6.8v-5.7h-6.8
	V268.4L-225.8,268.4z M-225.8,277.7h6.8v-5.7h-6.8V277.7L-225.8,277.7z M-225.8,287.1h6.8v-5.7h-6.8V287.1L-225.8,287.1z
	 M-254.5,262.1c0,1.4,0.4,2.7,1.1,3.8v8.8c0,4.4,1.7,8.5,4.8,11.6c3.1,3.1,7.2,4.8,11.6,4.8c1,0,1.8-0.8,1.8-1.8
	c0-1-0.8-1.8-1.8-1.8c-3.4,0-6.6-1.3-9-3.7c-2.4-2.4-3.7-5.6-3.7-9v-9.4c0-0.4-0.1-0.8-0.4-1.1c-0.5-0.6-0.7-1.3-0.7-2.1v-5.2
	c0-1.9,1.5-3.4,3.4-3.4c1.9,0,3.4,1.5,3.4,3.4v5.2c0,0.8-0.3,1.5-0.7,2.1c-0.3,0.3-0.4,0.7-0.4,1.1v9.4c0,2.2,0.9,4.2,2.4,5.8
	c1.6,1.6,3.6,2.4,5.8,2.4c1,0,1.8-0.8,1.8-1.8s-0.8-1.8-1.8-1.8c-1.2,0-2.3-0.5-3.2-1.3c-0.9-0.9-1.3-2-1.3-3.2v-8.8
	c0.7-1.1,1.1-2.5,1.1-3.8v-5.2c0-3.3-2.2-6-5.2-6.8v-5.3c0-1-0.8-1.8-1.8-1.8s-1.8,0.8-1.8,1.8v5.3c-3,0.8-5.2,3.6-5.2,6.8
	L-254.5,262.1L-254.5,262.1z"/>
</svg>
