<?xml version="1.0" encoding="utf-8"?>
<!-- Generator: Adobe Illustrator 19.0.0, SVG Export Plug-In . SVG Version: 6.00 Build 0)  -->
<svg version="1.1" id="Layer_1" xmlns="http://www.w3.org/2000/svg" xmlns:xlink="http://www.w3.org/1999/xlink" x="0px" y="0px"
	 viewBox="-351 186.4 256.4 188.6" style="enable-background:new -351 186.4 256.4 188.6;" xml:space="preserve">
<style type="text/css">
	.st0{opacity:0.19;fill:#9E8B8A;enable-background:new    ;}
	.st1{enable-background:new    ;}
	.st2{fill:#FFFFFF;}
	.st3{fill:#C7B299;}
</style>
<path id="XMLID_40_" class="st0" d="M-114.9,375h-215.8c-11.2,0-20.3-9.1-20.3-20.3v-148c0-11.2,9.1-20.3,20.3-20.3h215.8
	c11.2,0,20.3,9.1,20.3,20.3v148C-94.6,365.9-103.7,375-114.9,375z"/>
<g class="st1">
	<path class="st2" d="M-296.9,208c-0.4-0.1-0.7-0.2-1-0.3c-0.3-0.1-0.6-0.2-0.8-0.2c-0.3-0.1-0.5-0.2-0.8-0.2
		c-0.3-0.1-0.6-0.2-1-0.3c-0.3-0.1-0.6-0.2-0.9-0.3s-0.5-0.3-0.7-0.5s-0.4-0.4-0.5-0.6c-0.1-0.2-0.2-0.5-0.2-0.8v-2.8
		c0-0.3,0.1-0.6,0.2-0.9c0.1-0.3,0.3-0.5,0.5-0.7c0.2-0.2,0.4-0.4,0.7-0.5c0.3-0.1,0.6-0.2,0.9-0.2h4.4c0.3,0,0.6,0.1,0.9,0.2
		c0.3,0.1,0.5,0.3,0.7,0.5c0.2,0.2,0.4,0.4,0.5,0.7c0.1,0.3,0.2,0.6,0.2,0.9v1.6l-2.5,0.4v-1.5c0-0.2-0.1-0.3-0.2-0.4
		c-0.1-0.1-0.2-0.2-0.4-0.2h-2.8c-0.2,0-0.3,0.1-0.4,0.2c-0.1,0.1-0.2,0.2-0.2,0.4v1.7c0,0.2,0.1,0.3,0.2,0.4
		c0.1,0.1,0.2,0.2,0.4,0.2c0.6,0.2,1.2,0.3,1.8,0.5c0.6,0.2,1.2,0.3,2,0.6c0.6,0.2,1.1,0.4,1.5,0.8c0.4,0.3,0.6,0.8,0.6,1.5v3.1
		c0,0.3-0.1,0.6-0.2,0.9c-0.1,0.3-0.3,0.5-0.5,0.7c-0.2,0.2-0.4,0.4-0.7,0.5c-0.3,0.1-0.6,0.2-0.9,0.2h-4.5c-0.3,0-0.6-0.1-0.9-0.2
		c-0.3-0.1-0.5-0.3-0.7-0.5c-0.2-0.2-0.4-0.4-0.5-0.7c-0.1-0.3-0.2-0.6-0.2-0.9v-1.6l2.5-0.4v1.4c0,0.2,0.1,0.3,0.2,0.4
		c0.1,0.1,0.2,0.2,0.4,0.2h2.9c0.2,0,0.3-0.1,0.4-0.2c0.1-0.1,0.2-0.2,0.2-0.4v-2c0-0.2-0.1-0.3-0.2-0.4
		C-296.6,208.1-296.7,208.1-296.9,208z"/>
	<path class="st2" d="M-291,199.6h8.3v2.3h-5.9v3.4h5.3v2.3h-5.3v3.5h5.9v2.3h-8.3V199.6z"/>
	<path class="st2" d="M-280,199.6h2.5v11.5h5.6v2.3h-8.1V199.6z"/>
	<path class="st2" d="M-269.6,213.4v-13.8h8.4v2.3h-6v3.4h5.5v2.3h-5.5v5.8H-269.6z"/>
	<path class="st2" d="M-248.3,208.6l2.5,0.4v2.1c0,0.3-0.1,0.6-0.2,0.9c-0.1,0.3-0.3,0.5-0.5,0.7c-0.2,0.2-0.4,0.4-0.7,0.5
		c-0.3,0.1-0.6,0.2-0.9,0.2h-4.6c-0.3,0-0.6-0.1-0.9-0.2c-0.3-0.1-0.5-0.3-0.7-0.5c-0.2-0.2-0.4-0.4-0.5-0.7
		c-0.1-0.3-0.2-0.6-0.2-0.9v-9.2c0-0.3,0.1-0.6,0.2-0.9c0.1-0.3,0.3-0.5,0.5-0.7c0.2-0.2,0.4-0.4,0.7-0.5c0.3-0.1,0.6-0.2,0.9-0.2
		h4.6c0.3,0,0.6,0.1,0.9,0.2c0.3,0.1,0.5,0.3,0.7,0.5c0.2,0.2,0.4,0.4,0.5,0.7c0.1,0.3,0.2,0.6,0.2,0.9v2l-2.5,0.4v-1.8
		c0-0.2-0.1-0.3-0.2-0.4c-0.1-0.1-0.2-0.2-0.4-0.2h-3.1c-0.2,0-0.3,0.1-0.4,0.2c-0.1,0.1-0.2,0.2-0.2,0.4v8.1c0,0.2,0.1,0.3,0.2,0.4
		c0.1,0.1,0.2,0.2,0.4,0.2h3.1c0.2,0,0.3-0.1,0.4-0.2c0.1-0.1,0.2-0.2,0.2-0.4V208.6z"/>
	<path class="st2" d="M-241.6,213.2c-0.3-0.1-0.5-0.3-0.7-0.5c-0.2-0.2-0.4-0.4-0.5-0.7c-0.1-0.3-0.2-0.6-0.2-0.9v-9.2
		c0-0.3,0.1-0.6,0.2-0.9c0.1-0.3,0.3-0.5,0.5-0.7c0.2-0.2,0.4-0.4,0.7-0.5c0.3-0.1,0.6-0.2,0.9-0.2h4.9c0.3,0,0.6,0.1,0.9,0.2
		c0.3,0.1,0.5,0.3,0.7,0.5c0.2,0.2,0.4,0.4,0.5,0.7c0.1,0.3,0.2,0.6,0.2,0.9v9.2c0,0.3-0.1,0.6-0.2,0.9c-0.1,0.3-0.3,0.5-0.5,0.7
		c-0.2,0.2-0.4,0.4-0.7,0.5c-0.3,0.1-0.6,0.2-0.9,0.2h-4.9C-241.1,213.4-241.3,213.3-241.6,213.2z M-236.1,202.5
		c0-0.2-0.1-0.3-0.2-0.4c-0.1-0.1-0.2-0.2-0.4-0.2h-3.3c-0.2,0-0.3,0.1-0.4,0.2c-0.1,0.1-0.2,0.2-0.2,0.4v8.1c0,0.2,0.1,0.3,0.2,0.4
		c0.1,0.1,0.2,0.2,0.4,0.2h3.3c0.2,0,0.3-0.1,0.4-0.2c0.1-0.1,0.2-0.2,0.2-0.4V202.5z"/>
	<path class="st2" d="M-228.2,205.2v8.2h-2.4v-13.8h2.4l3.7,8.4l3.7-8.4h2.4v13.8h-2.4l0-8.2l-2.6,5.9h-2.1L-228.2,205.2z"/>
	<path class="st2" d="M-215.4,199.6h7c0.3,0,0.6,0.1,0.9,0.2c0.3,0.1,0.5,0.3,0.7,0.5c0.2,0.2,0.4,0.4,0.5,0.7s0.2,0.6,0.2,0.9v3.9
		c0,0.3-0.1,0.6-0.2,0.9s-0.3,0.5-0.5,0.7c-0.2,0.2-0.4,0.4-0.7,0.5s-0.6,0.2-0.9,0.2h-4.5v5.3h-2.5V199.6z M-208.6,202.5
		c0-0.2-0.1-0.3-0.2-0.4s-0.2-0.2-0.4-0.2h-3.8v3.9h3.8c0.2,0,0.3-0.1,0.4-0.2c0.1-0.1,0.2-0.2,0.2-0.4V202.5z"/>
	<path class="st2" d="M-194.7,213.4h-2.5l-1-3h-4.6l-1,3h-2.5l4.6-13.8h2.3L-194.7,213.4z M-202.1,208.2h3.2l-1.6-5.2L-202.1,208.2z
		"/>
	<path class="st2" d="M-186.3,208.6l2.5,0.4v2.1c0,0.3-0.1,0.6-0.2,0.9c-0.1,0.3-0.3,0.5-0.5,0.7c-0.2,0.2-0.4,0.4-0.7,0.5
		c-0.3,0.1-0.6,0.2-0.9,0.2h-4.6c-0.3,0-0.6-0.1-0.9-0.2c-0.3-0.1-0.5-0.3-0.7-0.5c-0.2-0.2-0.4-0.4-0.5-0.7s-0.2-0.6-0.2-0.9v-9.2
		c0-0.3,0.1-0.6,0.2-0.9s0.3-0.5,0.5-0.7c0.2-0.2,0.4-0.4,0.7-0.5c0.3-0.1,0.6-0.2,0.9-0.2h4.6c0.3,0,0.6,0.1,0.9,0.2
		c0.3,0.1,0.5,0.3,0.7,0.5c0.2,0.2,0.4,0.4,0.5,0.7c0.1,0.3,0.2,0.6,0.2,0.9v2l-2.5,0.4v-1.8c0-0.2-0.1-0.3-0.2-0.4
		c-0.1-0.1-0.2-0.2-0.4-0.2h-3.1c-0.2,0-0.3,0.1-0.4,0.2s-0.2,0.2-0.2,0.4v8.1c0,0.2,0.1,0.3,0.2,0.4c0.1,0.1,0.2,0.2,0.4,0.2h3.1
		c0.2,0,0.3-0.1,0.4-0.2c0.1-0.1,0.2-0.2,0.2-0.4V208.6z"/>
	<path class="st2" d="M-182.2,199.6h10v2.3h-3.7v11.5h-2.5v-11.5h-3.7V199.6z"/>
	<path class="st2" d="M-167.8,213.4h-2.5v-13.8h2.5V213.4z"/>
	<path class="st2" d="M-154.7,213.4h-2.4l-5.2-8.9v8.9h-2.4v-13.8h2.4l5.2,8.9v-8.9h2.4V213.4z"/>
	<path class="st2" d="M-147.5,206.1h4.9v5c0,0.3-0.1,0.6-0.2,0.9s-0.3,0.5-0.5,0.7s-0.4,0.4-0.7,0.5s-0.6,0.2-0.9,0.2h-4.6
		c-0.3,0-0.6-0.1-0.9-0.2c-0.3-0.1-0.5-0.3-0.7-0.5c-0.2-0.2-0.4-0.4-0.5-0.7s-0.2-0.6-0.2-0.9v-9.2c0-0.3,0.1-0.6,0.2-0.9
		s0.3-0.5,0.5-0.7c0.2-0.2,0.4-0.4,0.7-0.5c0.3-0.1,0.6-0.2,0.9-0.2h4.6c0.3,0,0.6,0.1,0.9,0.2c0.3,0.1,0.5,0.3,0.7,0.5
		c0.2,0.2,0.4,0.4,0.5,0.7s0.2,0.6,0.2,0.9v1.5l-2.5,0.4v-1.4c0-0.2-0.1-0.3-0.2-0.4s-0.2-0.2-0.4-0.2h-3.1c-0.2,0-0.3,0.1-0.4,0.2
		c-0.1,0.1-0.2,0.2-0.2,0.4v8.1c0,0.2,0.1,0.3,0.2,0.4c0.1,0.1,0.2,0.2,0.4,0.2h3.1c0.2,0,0.3-0.1,0.4-0.2c0.1-0.1,0.2-0.2,0.2-0.4
		v-2.3h-2.4V206.1z"/>
	<path class="st2" d="M-262.1,233.4l2.5,0.4v2.1c0,0.3-0.1,0.6-0.2,0.9c-0.1,0.3-0.3,0.5-0.5,0.7c-0.2,0.2-0.4,0.4-0.7,0.5
		c-0.3,0.1-0.6,0.2-0.9,0.2h-4.6c-0.3,0-0.6-0.1-0.9-0.2c-0.3-0.1-0.5-0.3-0.7-0.5c-0.2-0.2-0.4-0.4-0.5-0.7
		c-0.1-0.3-0.2-0.6-0.2-0.9v-9.2c0-0.3,0.1-0.6,0.2-0.9c0.1-0.3,0.3-0.5,0.5-0.7c0.2-0.2,0.4-0.4,0.7-0.5c0.3-0.1,0.6-0.2,0.9-0.2
		h4.6c0.3,0,0.6,0.1,0.9,0.2c0.3,0.1,0.5,0.3,0.7,0.5c0.2,0.2,0.4,0.4,0.5,0.7c0.1,0.3,0.2,0.6,0.2,0.9v2l-2.5,0.4v-1.8
		c0-0.2-0.1-0.3-0.2-0.4c-0.1-0.1-0.2-0.2-0.4-0.2h-3.1c-0.2,0-0.3,0.1-0.4,0.2c-0.1,0.1-0.2,0.2-0.2,0.4v8.1c0,0.2,0.1,0.3,0.2,0.4
		c0.1,0.1,0.2,0.2,0.4,0.2h3.1c0.2,0,0.3-0.1,0.4-0.2c0.1-0.1,0.2-0.2,0.2-0.4V233.4z"/>
	<path class="st2" d="M-255.4,238c-0.3-0.1-0.5-0.3-0.7-0.5c-0.2-0.2-0.4-0.4-0.5-0.7c-0.1-0.3-0.2-0.6-0.2-0.9v-9.2
		c0-0.3,0.1-0.6,0.2-0.9c0.1-0.3,0.3-0.5,0.5-0.7c0.2-0.2,0.4-0.4,0.7-0.5c0.3-0.1,0.6-0.2,0.9-0.2h4.9c0.3,0,0.6,0.1,0.9,0.2
		c0.3,0.1,0.5,0.3,0.7,0.5c0.2,0.2,0.4,0.4,0.5,0.7c0.1,0.3,0.2,0.6,0.2,0.9v9.2c0,0.3-0.1,0.6-0.2,0.9c-0.1,0.3-0.3,0.5-0.5,0.7
		c-0.2,0.2-0.4,0.4-0.7,0.5c-0.3,0.1-0.6,0.2-0.9,0.2h-4.9C-254.9,238.2-255.2,238.1-255.4,238z M-249.9,227.2
		c0-0.2-0.1-0.3-0.2-0.4c-0.1-0.1-0.2-0.2-0.4-0.2h-3.3c-0.2,0-0.3,0.1-0.4,0.2c-0.1,0.1-0.2,0.2-0.2,0.4v8.1c0,0.2,0.1,0.3,0.2,0.4
		c0.1,0.1,0.2,0.2,0.4,0.2h3.3c0.2,0,0.3-0.1,0.4-0.2c0.1-0.1,0.2-0.2,0.2-0.4V227.2z"/>
	<path class="st2" d="M-234.4,238.2h-2.4l-5.2-8.9v8.9h-2.4v-13.8h2.4l5.2,8.9v-8.9h2.4V238.2z"/>
	<path class="st2" d="M-224.7,233.4l2.5,0.4v2.1c0,0.3-0.1,0.6-0.2,0.9c-0.1,0.3-0.3,0.5-0.5,0.7c-0.2,0.2-0.4,0.4-0.7,0.5
		c-0.3,0.1-0.6,0.2-0.9,0.2h-4.6c-0.3,0-0.6-0.1-0.9-0.2c-0.3-0.1-0.5-0.3-0.7-0.5c-0.2-0.2-0.4-0.4-0.5-0.7
		c-0.1-0.3-0.2-0.6-0.2-0.9v-9.2c0-0.3,0.1-0.6,0.2-0.9c0.1-0.3,0.3-0.5,0.5-0.7c0.2-0.2,0.4-0.4,0.7-0.5c0.3-0.1,0.6-0.2,0.9-0.2
		h4.6c0.3,0,0.6,0.1,0.9,0.2c0.3,0.1,0.5,0.3,0.7,0.5c0.2,0.2,0.4,0.4,0.5,0.7c0.1,0.3,0.2,0.6,0.2,0.9v2l-2.5,0.4v-1.8
		c0-0.2-0.1-0.3-0.2-0.4c-0.1-0.1-0.2-0.2-0.4-0.2h-3.1c-0.2,0-0.3,0.1-0.4,0.2c-0.1,0.1-0.2,0.2-0.2,0.4v8.1c0,0.2,0.1,0.3,0.2,0.4
		c0.1,0.1,0.2,0.2,0.4,0.2h3.1c0.2,0,0.3-0.1,0.4-0.2c0.1-0.1,0.2-0.2,0.2-0.4V233.4z"/>
	<path class="st2" d="M-214.3,232.9h-2.6v5.3h-2.5v-13.8h7.2c0.3,0,0.6,0.1,0.9,0.2c0.3,0.1,0.5,0.3,0.7,0.5
		c0.2,0.2,0.4,0.4,0.5,0.7s0.2,0.6,0.2,0.9v3.9c0,0.5-0.2,1-0.5,1.4s-0.7,0.7-1.2,0.8l2.6,5.4h-2.7L-214.3,232.9z M-212.4,227.2
		c0-0.2-0.1-0.3-0.2-0.4s-0.2-0.2-0.4-0.2h-4v3.9h4c0.2,0,0.3-0.1,0.4-0.2c0.1-0.1,0.2-0.2,0.2-0.4V227.2z"/>
	<path class="st2" d="M-206.7,224.4h8.3v2.3h-5.9v3.4h5.3v2.3h-5.3v3.5h5.9v2.3h-8.3V224.4z"/>
	<path class="st2" d="M-196.8,224.4h10v2.3h-3.7v11.5h-2.5v-11.5h-3.7V224.4z"/>
	<path class="st2" d="M-184.9,224.4h8.3v2.3h-5.9v3.4h5.3v2.3h-5.3v3.5h5.9v2.3h-8.3V224.4z"/>
</g>
<g>
	<g>
		<path class="st2" d="M-246.5,359.9h1.2l1.4,5.1l0.8-5.1h1.3l-1.3,7.5h-1.4l-1.4-5.4l-1.4,5.4h-1.4l-1.3-7.5h1.3l0.8,5.1
			L-246.5,359.9z"/>
		<path class="st2" d="M-240,367.4c-0.2-0.1-0.3-0.2-0.4-0.3c-0.1-0.1-0.2-0.2-0.3-0.4c-0.1-0.2-0.1-0.3-0.1-0.5v-5
			c0-0.2,0-0.3,0.1-0.5c0.1-0.2,0.2-0.3,0.3-0.4c0.1-0.1,0.2-0.2,0.4-0.3c0.2-0.1,0.3-0.1,0.5-0.1h2.7c0.2,0,0.3,0,0.5,0.1
			c0.2,0.1,0.3,0.2,0.4,0.3c0.1,0.1,0.2,0.2,0.3,0.4c0.1,0.2,0.1,0.3,0.1,0.5v5c0,0.2,0,0.3-0.1,0.5c-0.1,0.2-0.2,0.3-0.3,0.4
			c-0.1,0.1-0.2,0.2-0.4,0.3c-0.2,0.1-0.3,0.1-0.5,0.1h-2.7C-239.7,367.5-239.8,367.4-240,367.4z M-236.9,361.5c0-0.1,0-0.2-0.1-0.2
			c-0.1-0.1-0.1-0.1-0.2-0.1h-1.8c-0.1,0-0.2,0-0.2,0.1c-0.1,0.1-0.1,0.1-0.1,0.2v4.5c0,0.1,0,0.2,0.1,0.2c0.1,0.1,0.1,0.1,0.2,0.1
			h1.8c0.1,0,0.2,0,0.2-0.1c0.1-0.1,0.1-0.1,0.1-0.2V361.5z"/>
		<path class="st2" d="M-231.2,364.6h-1.4v2.9h-1.4v-7.5h3.9c0.2,0,0.3,0,0.5,0.1c0.2,0.1,0.3,0.2,0.4,0.3c0.1,0.1,0.2,0.2,0.3,0.4
			c0.1,0.2,0.1,0.3,0.1,0.5v2.1c0,0.3-0.1,0.6-0.3,0.8c-0.2,0.2-0.4,0.4-0.7,0.4l1.4,2.9h-1.5L-231.2,364.6z M-230.1,361.5
			c0-0.1,0-0.2-0.1-0.2c-0.1-0.1-0.1-0.1-0.2-0.1h-2.2v2.1h2.2c0.1,0,0.2,0,0.2-0.1c0.1-0.1,0.1-0.1,0.1-0.2V361.5z"/>
		<path class="st2" d="M-227,359.9h1.4v3.5l2.4-3.5h1.6l-2.5,3.7l2.6,3.8h-1.6l-2.5-3.6v3.6h-1.4V359.9z"/>
		<path class="st2" d="M-217.6,364.5c-0.2-0.1-0.4-0.1-0.6-0.2s-0.3-0.1-0.5-0.1c-0.1,0-0.3-0.1-0.5-0.1c-0.2,0-0.3-0.1-0.5-0.2
			c-0.2-0.1-0.3-0.1-0.5-0.2c-0.1-0.1-0.3-0.2-0.4-0.2c-0.1-0.1-0.2-0.2-0.3-0.3c-0.1-0.1-0.1-0.3-0.1-0.5v-1.5c0-0.2,0-0.3,0.1-0.5
			c0.1-0.2,0.2-0.3,0.3-0.4s0.2-0.2,0.4-0.3c0.2-0.1,0.3-0.1,0.5-0.1h2.4c0.2,0,0.3,0,0.5,0.1c0.2,0.1,0.3,0.2,0.4,0.3
			s0.2,0.2,0.3,0.4c0.1,0.2,0.1,0.3,0.1,0.5v0.9l-1.4,0.2v-0.8c0-0.1,0-0.2-0.1-0.2c-0.1-0.1-0.1-0.1-0.2-0.1h-1.5
			c-0.1,0-0.2,0-0.2,0.1c-0.1,0.1-0.1,0.1-0.1,0.2v0.9c0,0.1,0,0.2,0.1,0.2c0.1,0.1,0.1,0.1,0.2,0.1c0.3,0.1,0.7,0.2,1,0.3
			c0.3,0.1,0.7,0.2,1.1,0.3c0.3,0.1,0.6,0.2,0.8,0.4c0.2,0.2,0.3,0.5,0.3,0.8v1.7c0,0.2,0,0.3-0.1,0.5c-0.1,0.2-0.2,0.3-0.3,0.4
			c-0.1,0.1-0.2,0.2-0.4,0.3c-0.2,0.1-0.3,0.1-0.5,0.1h-2.4c-0.2,0-0.3,0-0.5-0.1c-0.2-0.1-0.3-0.2-0.4-0.3
			c-0.1-0.1-0.2-0.2-0.3-0.4c-0.1-0.2-0.1-0.3-0.1-0.5v-0.9l1.4-0.2v0.8c0,0.1,0,0.2,0.1,0.2c0.1,0.1,0.1,0.1,0.2,0.1h1.6
			c0.1,0,0.2,0,0.2-0.1c0.1-0.1,0.1-0.1,0.1-0.2v-1.1c0-0.1,0-0.2-0.1-0.2C-217.4,364.6-217.5,364.6-217.6,364.5z"/>
		<path class="st2" d="M-210.5,364.3h-2.6v3.2h-1.4v-7.5h1.4v3.1h2.6v-3.1h1.4v7.5h-1.4V364.3z"/>
		<path class="st2" d="M-206.7,367.4c-0.2-0.1-0.3-0.2-0.4-0.3c-0.1-0.1-0.2-0.2-0.3-0.4c-0.1-0.2-0.1-0.3-0.1-0.5v-5
			c0-0.2,0-0.3,0.1-0.5c0.1-0.2,0.2-0.3,0.3-0.4s0.2-0.2,0.4-0.3c0.2-0.1,0.3-0.1,0.5-0.1h2.7c0.2,0,0.3,0,0.5,0.1
			c0.2,0.1,0.3,0.2,0.4,0.3c0.1,0.1,0.2,0.2,0.3,0.4c0.1,0.2,0.1,0.3,0.1,0.5v5c0,0.2,0,0.3-0.1,0.5c-0.1,0.2-0.2,0.3-0.3,0.4
			c-0.1,0.1-0.2,0.2-0.4,0.3c-0.2,0.1-0.3,0.1-0.5,0.1h-2.7C-206.4,367.5-206.6,367.4-206.7,367.4z M-203.7,361.5
			c0-0.1,0-0.2-0.1-0.2c-0.1-0.1-0.1-0.1-0.2-0.1h-1.8c-0.1,0-0.2,0-0.2,0.1s-0.1,0.1-0.1,0.2v4.5c0,0.1,0,0.2,0.1,0.2
			s0.1,0.1,0.2,0.1h1.8c0.1,0,0.2,0,0.2-0.1c0.1-0.1,0.1-0.1,0.1-0.2V361.5z"/>
		<path class="st2" d="M-200.7,359.9h3.8c0.2,0,0.3,0,0.5,0.1c0.2,0.1,0.3,0.2,0.4,0.3c0.1,0.1,0.2,0.2,0.3,0.4
			c0.1,0.2,0.1,0.3,0.1,0.5v2.1c0,0.2,0,0.3-0.1,0.5c-0.1,0.2-0.2,0.3-0.3,0.4c-0.1,0.1-0.2,0.2-0.4,0.3c-0.2,0.1-0.3,0.1-0.5,0.1
			h-2.5v2.9h-1.4V359.9z M-197,361.5c0-0.1,0-0.2-0.1-0.2c-0.1-0.1-0.1-0.1-0.2-0.1h-2.1v2.1h2.1c0.1,0,0.2,0,0.2-0.1
			c0.1-0.1,0.1-0.1,0.1-0.2V361.5z"/>
	</g>
</g>
<g>
	<g>
		<g>
			<path class="st3" d="M-199.3,318c-2.3,0-4.1,1.9-4.1,4.1s1.9,4.1,4.1,4.1c2.3,0,4.1-1.9,4.1-4.1S-197.1,318-199.3,318z
				 M-199.3,323.5c-0.8,0-1.4-0.6-1.4-1.4c0-0.8,0.6-1.4,1.4-1.4c0.8,0,1.4,0.6,1.4,1.4C-198,322.9-198.6,323.5-199.3,323.5z"/>
		</g>
	</g>
	<g>
		<g>
			<path class="st3" d="M-215.9,318c-2.3,0-4.1,1.9-4.1,4.1s1.9,4.1,4.1,4.1s4.1-1.9,4.1-4.1S-213.6,318-215.9,318z M-215.9,323.5
				c-0.8,0-1.4-0.6-1.4-1.4c0-0.8,0.6-1.4,1.4-1.4c0.8,0,1.4,0.6,1.4,1.4C-214.5,322.9-215.1,323.5-215.9,323.5z"/>
		</g>
	</g>
	<g>
		<g>
			<path class="st3" d="M-244.9,315.2c-3,0-5.5,2.5-5.5,5.5c0,3,2.5,5.5,5.5,5.5c3,0,5.5-2.5,5.5-5.5
				C-239.4,317.7-241.8,315.2-244.9,315.2z M-244.9,323.5c-1.5,0-2.8-1.2-2.8-2.8c0-1.5,1.2-2.8,2.8-2.8c1.5,0,2.8,1.2,2.8,2.8
				C-242.1,322.3-243.3,323.5-244.9,323.5z"/>
		</g>
	</g>
	<g>
		<g>
			<path class="st3" d="M-189.7,302.8v2.8c0.8,0,1.4,0.6,1.4,1.4h2.8C-185.6,304.7-187.4,302.8-189.7,302.8z"/>
		</g>
	</g>
	<g>
		<g>
			<path class="st3" d="M-180,269.7h-10.4l-2.7-6.7c-0.7-1.8-2.4-2.9-4.3-2.9c-2.3,0-4.2,1.6-4.6,3.8l-0.3-0.1
				c-6.5-1.6-13.4-1.1-19.6,1.5l-9.6,4c-0.7-1.3-2.1-2.3-3.7-2.3c-2.3,0-4.1,1.9-4.1,4.1v6.9h-12c-2.4,0-4.7,1.3-6,3.4l-7.3,12.5
				c-0.6,1.1-0.9,2.3-0.9,3.5v22c0,3.8,3.1,6.9,6.9,6.9h4.1v-0.2c1.9,3.4,5.5,5.7,9.7,5.7c4.1,0,7.6-2.2,9.5-5.5h10.7
				c1.6,3.3,4.9,5.5,8.7,5.5c3.5,0,6.6-1.9,8.3-4.7c1.7,2.8,4.8,4.7,8.3,4.7c5.3,0,9.7-4.3,9.7-9.7c0-2.1-0.7-4.1-1.9-5.7
				c0.6,0.1,1.2,0.2,1.9,0.2c5.3,0,9.7-4.3,9.7-9.7c0-4-2.4-7.4-5.9-8.9c3.8-4.5,5.9-10.1,5.9-16V269.7z M-199.3,264.7
				c0-1.1,0.9-1.9,1.9-1.9c0.8,0,1.5,0.5,1.8,1.2l7.2,18c0.1,0.2,0.1,0.5,0.1,0.7v0.2c0,1.1-0.9,1.9-1.9,1.9c-0.8,0-1.5-0.5-1.8-1.2
				l-7.2-18c-0.1-0.2-0.1-0.5-0.1-0.7V264.7z M-203,266.4l1.3,0.3l7.2,18c0.6,1.5,1.9,2.6,3.5,2.8v9.9c-2.9,0.4-5.3,2.1-6.8,4.4
				l-13.3-36.2C-208.4,265.5-205.7,265.8-203,266.4z M-220.9,267.8c2.2-0.9,4.5-1.5,6.9-1.9l14.6,39.7h-9.5l-13.6-37.1L-220.9,267.8
				z M-231.1,272l6-2.5l13.2,36.1h-11.5l-5.5-11h-2.2V272z M-236.6,271.1c0-0.8,0.6-1.4,1.4-1.4c0.8,0,1.4,0.6,1.4,1.4v23.5h-2.8
				V271.1z M-255.5,323.5h-3.1c-2.3,0-4.1-1.9-4.1-4.1V318h7.3c-0.2,0.9-0.4,1.8-0.4,2.8C-255.9,321.7-255.8,322.6-255.5,323.5z
				 M-262.8,315.2v-17.8c0-0.7,0.2-1.5,0.6-2.1l7.3-12.5c0.7-1.3,2.1-2.1,3.6-2.1h12v2.8h-12.8l-7.9,13.5v9.9h20.7v4.3
				c-1.6-0.9-3.5-1.5-5.5-1.5c-4.2,0-7.8,2.3-9.7,5.7v-0.2H-262.8z M-239.4,298.7v5.5h-17.9v-5.5h11v-2.8h-9.9l5.6-9.7h11.2v9.7
				h-4.1v2.8H-239.4z M-244.9,329c-4.6,0-8.3-3.7-8.3-8.3c0-4.6,3.7-8.3,8.3-8.3c4.6,0,8.3,3.7,8.3,8.3
				C-236.6,325.3-240.3,329-244.9,329z M-225.4,323.5h-8.7c0.2-0.9,0.4-1.8,0.4-2.8c0-1-0.1-1.9-0.4-2.8h9.6
				c-0.6,1.3-0.9,2.7-0.9,4.1C-225.6,322.6-225.5,323.1-225.4,323.5z M-215.9,329c-3.8,0-6.9-3.1-6.9-6.9c0-3.8,3.1-6.9,6.9-6.9
				s6.9,3.1,6.9,6.9C-209,325.9-212.1,329-215.9,329z M-207.6,317.2c-1.7-2.8-4.8-4.7-8.3-4.7c-2.6,0-5,1.1-6.7,2.8h-12.6v0.2
				c-0.4-0.7-0.9-1.3-1.4-1.9v-16.2h6l5.5,11h25.8c0.2,1.6,0.9,3.1,1.8,4.3c-0.6-0.1-1.2-0.2-1.9-0.2
				C-202.9,312.5-205.9,314.4-207.6,317.2z M-199.3,329c-3.8,0-6.9-3.1-6.9-6.9c0-3.8,3.1-6.9,6.9-6.9c3.8,0,6.9,3.1,6.9,6.9
				C-192.5,325.9-195.5,329-199.3,329z M-182.8,307c0,3.8-3.1,6.9-6.9,6.9s-6.9-3.1-6.9-6.9s3.1-6.9,6.9-6.9S-182.8,303.2-182.8,307
				z M-188.3,296.6v-9.4c1.5-0.7,2.5-2.1,2.7-3.7h2.7C-183.2,288.4-185.1,293-188.3,296.6z M-182.8,280.8h-3.2l-1.1-2.8h4.3V280.8z
				 M-182.8,275.2h-5.4l-1.1-2.8h6.5V275.2z"/>
		</g>
	</g>
	<g>
		<g>
			<rect x="-233.8" y="301.5" class="st3" width="2.8" height="2.8"/>
		</g>
	</g>
</g>
</svg>
