<?xml version="1.0" encoding="utf-8"?>
<!-- Generator: Adobe Illustrator 19.0.0, SVG Export Plug-In . SVG Version: 6.00 Build 0)  -->
<svg version="1.1" id="Layer_1" xmlns="http://www.w3.org/2000/svg" xmlns:xlink="http://www.w3.org/1999/xlink" x="0px" y="0px"
	 viewBox="-351 186.4 256.4 188.6" style="enable-background:new -351 186.4 256.4 188.6;" xml:space="preserve">
<style type="text/css">
	.st0{opacity:0.19;fill:#9E8B8A;enable-background:new    ;}
	.st1{enable-background:new    ;}
	.st2{fill:#FFFFFF;}
	.st3{fill:#C7B299;}
</style>
<path id="XMLID_40_" class="st0" d="M-114.9,375h-215.8c-11.2,0-20.3-9.1-20.3-20.3v-148c0-11.2,9.1-20.3,20.3-20.3h215.8
	c11.2,0,20.3,9.1,20.3,20.3v148C-94.6,365.9-103.7,375-114.9,375z"/>
<g class="st1">
	<path class="st2" d="M-278.7,208c-0.4-0.1-0.7-0.2-1-0.3c-0.3-0.1-0.6-0.2-0.8-0.2c-0.3-0.1-0.5-0.2-0.8-0.2
		c-0.3-0.1-0.6-0.2-1-0.3c-0.3-0.1-0.6-0.2-0.9-0.3s-0.5-0.3-0.7-0.5s-0.4-0.4-0.5-0.6c-0.1-0.2-0.2-0.5-0.2-0.8v-2.8
		c0-0.3,0.1-0.6,0.2-0.9c0.1-0.3,0.3-0.5,0.5-0.7c0.2-0.2,0.4-0.4,0.7-0.5c0.3-0.1,0.6-0.2,0.9-0.2h4.4c0.3,0,0.6,0.1,0.9,0.2
		c0.3,0.1,0.5,0.3,0.7,0.5c0.2,0.2,0.4,0.4,0.5,0.7c0.1,0.3,0.2,0.6,0.2,0.9v1.6l-2.5,0.4v-1.5c0-0.2-0.1-0.3-0.2-0.4
		c-0.1-0.1-0.2-0.2-0.4-0.2h-2.8c-0.2,0-0.3,0.1-0.4,0.2c-0.1,0.1-0.2,0.2-0.2,0.4v1.7c0,0.2,0.1,0.3,0.2,0.4
		c0.1,0.1,0.2,0.2,0.4,0.2c0.6,0.2,1.2,0.3,1.8,0.5c0.6,0.2,1.2,0.3,2,0.6c0.6,0.2,1.1,0.4,1.5,0.8c0.4,0.3,0.6,0.8,0.6,1.5v3.1
		c0,0.3-0.1,0.6-0.2,0.9c-0.1,0.3-0.3,0.5-0.5,0.7c-0.2,0.2-0.4,0.4-0.7,0.5c-0.3,0.1-0.6,0.2-0.9,0.2h-4.5c-0.3,0-0.6-0.1-0.9-0.2
		c-0.3-0.1-0.5-0.3-0.7-0.5c-0.2-0.2-0.4-0.4-0.5-0.7c-0.1-0.3-0.2-0.6-0.2-0.9v-1.6l2.5-0.4v1.4c0,0.2,0.1,0.3,0.2,0.4
		c0.1,0.1,0.2,0.2,0.4,0.2h2.9c0.2,0,0.3-0.1,0.4-0.2c0.1-0.1,0.2-0.2,0.2-0.4v-2c0-0.2-0.1-0.3-0.2-0.4
		C-278.4,208.1-278.5,208.1-278.7,208z"/>
	<path class="st2" d="M-270.5,205.2v8.2h-2.4v-13.8h2.4l3.7,8.4l3.7-8.4h2.4v13.8h-2.4l0-8.2l-2.6,5.9h-2.1L-270.5,205.2z"/>
	<path class="st2" d="M-247.2,213.4h-2.5l-1-3h-4.6l-0.9,3h-2.5l4.6-13.8h2.3L-247.2,213.4z M-254.6,208.2h3.2l-1.6-5.2
		L-254.6,208.2z"/>
	<path class="st2" d="M-240.2,208.1h-2.6v5.3h-2.5v-13.8h7.2c0.3,0,0.6,0.1,0.9,0.2c0.3,0.1,0.5,0.3,0.7,0.5
		c0.2,0.2,0.4,0.4,0.5,0.7c0.1,0.3,0.2,0.6,0.2,0.9v3.9c0,0.5-0.2,1-0.5,1.4c-0.3,0.4-0.7,0.7-1.2,0.8l2.6,5.4h-2.7L-240.2,208.1z
		 M-238.3,202.5c0-0.2-0.1-0.3-0.2-0.4c-0.1-0.1-0.2-0.2-0.4-0.2h-4v3.9h4c0.2,0,0.3-0.1,0.4-0.2c0.1-0.1,0.2-0.2,0.2-0.4V202.5z"/>
	<path class="st2" d="M-234,199.6h10v2.3h-3.7v11.5h-2.5v-11.5h-3.7V199.6z"/>
	<path class="st2" d="M-213.4,206.1h4.9v5c0,0.3-0.1,0.6-0.2,0.9s-0.3,0.5-0.5,0.7c-0.2,0.2-0.4,0.4-0.7,0.5s-0.6,0.2-0.9,0.2h-4.6
		c-0.3,0-0.6-0.1-0.9-0.2c-0.3-0.1-0.5-0.3-0.7-0.5c-0.2-0.2-0.4-0.4-0.5-0.7c-0.1-0.3-0.2-0.6-0.2-0.9v-9.2c0-0.3,0.1-0.6,0.2-0.9
		c0.1-0.3,0.3-0.5,0.5-0.7c0.2-0.2,0.4-0.4,0.7-0.5c0.3-0.1,0.6-0.2,0.9-0.2h4.6c0.3,0,0.6,0.1,0.9,0.2c0.3,0.1,0.5,0.3,0.7,0.5
		c0.2,0.2,0.4,0.4,0.5,0.7s0.2,0.6,0.2,0.9v1.5l-2.5,0.4v-1.4c0-0.2-0.1-0.3-0.2-0.4s-0.2-0.2-0.4-0.2h-3.1c-0.2,0-0.3,0.1-0.4,0.2
		c-0.1,0.1-0.2,0.2-0.2,0.4v8.1c0,0.2,0.1,0.3,0.2,0.4c0.1,0.1,0.2,0.2,0.4,0.2h3.1c0.2,0,0.3-0.1,0.4-0.2c0.1-0.1,0.2-0.2,0.2-0.4
		v-2.3h-2.4V206.1z"/>
	<path class="st2" d="M-200.7,208.1h-2.6v5.3h-2.5v-13.8h7.2c0.3,0,0.6,0.1,0.9,0.2c0.3,0.1,0.5,0.3,0.7,0.5
		c0.2,0.2,0.4,0.4,0.5,0.7c0.1,0.3,0.2,0.6,0.2,0.9v3.9c0,0.5-0.2,1-0.5,1.4c-0.3,0.4-0.7,0.7-1.2,0.8l2.6,5.4h-2.7L-200.7,208.1z
		 M-198.8,202.5c0-0.2-0.1-0.3-0.2-0.4c-0.1-0.1-0.2-0.2-0.4-0.2h-4v3.9h4c0.2,0,0.3-0.1,0.4-0.2c0.1-0.1,0.2-0.2,0.2-0.4V202.5z"/>
	<path class="st2" d="M-193.1,199.6h8.3v2.3h-5.9v3.4h5.3v2.3h-5.3v3.5h5.9v2.3h-8.3V199.6z"/>
	<path class="st2" d="M-182.1,199.6h8.3v2.3h-5.9v3.4h5.3v2.3h-5.3v3.5h5.9v2.3h-8.3V199.6z"/>
	<path class="st2" d="M-161,213.4h-2.4l-5.2-8.9v8.9h-2.4v-13.8h2.4l5.2,8.9v-8.9h2.4V213.4z"/>
	<path class="st2" d="M-234.5,233.4l2.5,0.4v2.1c0,0.3-0.1,0.6-0.2,0.9c-0.1,0.3-0.3,0.5-0.5,0.7c-0.2,0.2-0.4,0.4-0.7,0.5
		c-0.3,0.1-0.6,0.2-0.9,0.2h-4.6c-0.3,0-0.6-0.1-0.9-0.2c-0.3-0.1-0.5-0.3-0.7-0.5c-0.2-0.2-0.4-0.4-0.5-0.7
		c-0.1-0.3-0.2-0.6-0.2-0.9v-9.2c0-0.3,0.1-0.6,0.2-0.9c0.1-0.3,0.3-0.5,0.5-0.7c0.2-0.2,0.4-0.4,0.7-0.5c0.3-0.1,0.6-0.2,0.9-0.2
		h4.6c0.3,0,0.6,0.1,0.9,0.2c0.3,0.1,0.5,0.3,0.7,0.5c0.2,0.2,0.4,0.4,0.5,0.7c0.1,0.3,0.2,0.6,0.2,0.9v2l-2.5,0.4v-1.8
		c0-0.2-0.1-0.3-0.2-0.4c-0.1-0.1-0.2-0.2-0.4-0.2h-3.1c-0.2,0-0.3,0.1-0.4,0.2c-0.1,0.1-0.2,0.2-0.2,0.4v8.1c0,0.2,0.1,0.3,0.2,0.4
		c0.1,0.1,0.2,0.2,0.4,0.2h3.1c0.2,0,0.3-0.1,0.4-0.2c0.1-0.1,0.2-0.2,0.2-0.4V233.4z"/>
	<path class="st2" d="M-226.6,238.2h-2.5v-13.8h2.5V238.2z"/>
	<path class="st2" d="M-224.6,224.4h10v2.3h-3.7v11.5h-2.5v-11.5h-3.7V224.4z"/>
	<path class="st2" d="M-208.3,229.9l2.7-5.5h2.6l-4.1,8.2v5.5h-2.5v-5.5l-4.1-8.2h2.6L-208.3,229.9z"/>
</g>
<g>
	<g>
		<path class="st2" d="M-246.5,359.9h1.2l1.4,5.1l0.8-5.1h1.3l-1.3,7.5h-1.4l-1.4-5.4l-1.4,5.4h-1.4l-1.3-7.5h1.3l0.8,5.1
			L-246.5,359.9z"/>
		<path class="st2" d="M-240,367.4c-0.2-0.1-0.3-0.2-0.4-0.3c-0.1-0.1-0.2-0.2-0.3-0.4c-0.1-0.2-0.1-0.3-0.1-0.5v-5
			c0-0.2,0-0.3,0.1-0.5c0.1-0.2,0.2-0.3,0.3-0.4c0.1-0.1,0.2-0.2,0.4-0.3c0.2-0.1,0.3-0.1,0.5-0.1h2.7c0.2,0,0.3,0,0.5,0.1
			c0.2,0.1,0.3,0.2,0.4,0.3c0.1,0.1,0.2,0.2,0.3,0.4c0.1,0.2,0.1,0.3,0.1,0.5v5c0,0.2,0,0.3-0.1,0.5c-0.1,0.2-0.2,0.3-0.3,0.4
			c-0.1,0.1-0.2,0.2-0.4,0.3c-0.2,0.1-0.3,0.1-0.5,0.1h-2.7C-239.7,367.5-239.8,367.4-240,367.4z M-236.9,361.5c0-0.1,0-0.2-0.1-0.2
			c-0.1-0.1-0.1-0.1-0.2-0.1h-1.8c-0.1,0-0.2,0-0.2,0.1c-0.1,0.1-0.1,0.1-0.1,0.2v4.5c0,0.1,0,0.2,0.1,0.2c0.1,0.1,0.1,0.1,0.2,0.1
			h1.8c0.1,0,0.2,0,0.2-0.1c0.1-0.1,0.1-0.1,0.1-0.2V361.5z"/>
		<path class="st2" d="M-231.2,364.6h-1.4v2.9h-1.4v-7.5h3.9c0.2,0,0.3,0,0.5,0.1c0.2,0.1,0.3,0.2,0.4,0.3c0.1,0.1,0.2,0.2,0.3,0.4
			c0.1,0.2,0.1,0.3,0.1,0.5v2.1c0,0.3-0.1,0.6-0.3,0.8c-0.2,0.2-0.4,0.4-0.7,0.4l1.4,2.9h-1.5L-231.2,364.6z M-230.1,361.5
			c0-0.1,0-0.2-0.1-0.2c-0.1-0.1-0.1-0.1-0.2-0.1h-2.2v2.1h2.2c0.1,0,0.2,0,0.2-0.1c0.1-0.1,0.1-0.1,0.1-0.2V361.5z"/>
		<path class="st2" d="M-227,359.9h1.4v3.5l2.4-3.5h1.6l-2.5,3.7l2.6,3.8h-1.6l-2.5-3.6v3.6h-1.4V359.9z"/>
		<path class="st2" d="M-217.6,364.5c-0.2-0.1-0.4-0.1-0.6-0.2s-0.3-0.1-0.5-0.1c-0.1,0-0.3-0.1-0.5-0.1c-0.2,0-0.3-0.1-0.5-0.2
			c-0.2-0.1-0.3-0.1-0.5-0.2c-0.1-0.1-0.3-0.2-0.4-0.2c-0.1-0.1-0.2-0.2-0.3-0.3c-0.1-0.1-0.1-0.3-0.1-0.5v-1.5c0-0.2,0-0.3,0.1-0.5
			c0.1-0.2,0.2-0.3,0.3-0.4s0.2-0.2,0.4-0.3c0.2-0.1,0.3-0.1,0.5-0.1h2.4c0.2,0,0.3,0,0.5,0.1c0.2,0.1,0.3,0.2,0.4,0.3
			s0.2,0.2,0.3,0.4c0.1,0.2,0.1,0.3,0.1,0.5v0.9l-1.4,0.2v-0.8c0-0.1,0-0.2-0.1-0.2c-0.1-0.1-0.1-0.1-0.2-0.1h-1.5
			c-0.1,0-0.2,0-0.2,0.1c-0.1,0.1-0.1,0.1-0.1,0.2v0.9c0,0.1,0,0.2,0.1,0.2c0.1,0.1,0.1,0.1,0.2,0.1c0.3,0.1,0.7,0.2,1,0.3
			c0.3,0.1,0.7,0.2,1.1,0.3c0.3,0.1,0.6,0.2,0.8,0.4c0.2,0.2,0.3,0.5,0.3,0.8v1.7c0,0.2,0,0.3-0.1,0.5c-0.1,0.2-0.2,0.3-0.3,0.4
			c-0.1,0.1-0.2,0.2-0.4,0.3c-0.2,0.1-0.3,0.1-0.5,0.1h-2.4c-0.2,0-0.3,0-0.5-0.1c-0.2-0.1-0.3-0.2-0.4-0.3
			c-0.1-0.1-0.2-0.2-0.3-0.4c-0.1-0.2-0.1-0.3-0.1-0.5v-0.9l1.4-0.2v0.8c0,0.1,0,0.2,0.1,0.2c0.1,0.1,0.1,0.1,0.2,0.1h1.6
			c0.1,0,0.2,0,0.2-0.1c0.1-0.1,0.1-0.1,0.1-0.2v-1.1c0-0.1,0-0.2-0.1-0.2C-217.4,364.6-217.5,364.6-217.6,364.5z"/>
		<path class="st2" d="M-210.5,364.3h-2.6v3.2h-1.4v-7.5h1.4v3.1h2.6v-3.1h1.4v7.5h-1.4V364.3z"/>
		<path class="st2" d="M-206.7,367.4c-0.2-0.1-0.3-0.2-0.4-0.3c-0.1-0.1-0.2-0.2-0.3-0.4c-0.1-0.2-0.1-0.3-0.1-0.5v-5
			c0-0.2,0-0.3,0.1-0.5c0.1-0.2,0.2-0.3,0.3-0.4s0.2-0.2,0.4-0.3c0.2-0.1,0.3-0.1,0.5-0.1h2.7c0.2,0,0.3,0,0.5,0.1
			c0.2,0.1,0.3,0.2,0.4,0.3c0.1,0.1,0.2,0.2,0.3,0.4c0.1,0.2,0.1,0.3,0.1,0.5v5c0,0.2,0,0.3-0.1,0.5c-0.1,0.2-0.2,0.3-0.3,0.4
			c-0.1,0.1-0.2,0.2-0.4,0.3c-0.2,0.1-0.3,0.1-0.5,0.1h-2.7C-206.4,367.5-206.6,367.4-206.7,367.4z M-203.7,361.5
			c0-0.1,0-0.2-0.1-0.2c-0.1-0.1-0.1-0.1-0.2-0.1h-1.8c-0.1,0-0.2,0-0.2,0.1s-0.1,0.1-0.1,0.2v4.5c0,0.1,0,0.2,0.1,0.2
			s0.1,0.1,0.2,0.1h1.8c0.1,0,0.2,0,0.2-0.1c0.1-0.1,0.1-0.1,0.1-0.2V361.5z"/>
		<path class="st2" d="M-200.7,359.9h3.8c0.2,0,0.3,0,0.5,0.1c0.2,0.1,0.3,0.2,0.4,0.3c0.1,0.1,0.2,0.2,0.3,0.4
			c0.1,0.2,0.1,0.3,0.1,0.5v2.1c0,0.2,0,0.3-0.1,0.5c-0.1,0.2-0.2,0.3-0.3,0.4c-0.1,0.1-0.2,0.2-0.4,0.3c-0.2,0.1-0.3,0.1-0.5,0.1
			h-2.5v2.9h-1.4V359.9z M-197,361.5c0-0.1,0-0.2-0.1-0.2c-0.1-0.1-0.1-0.1-0.2-0.1h-2.1v2.1h2.1c0.1,0,0.2,0,0.2-0.1
			c0.1-0.1,0.1-0.1,0.1-0.2V361.5z"/>
	</g>
</g>
<g>
	<g>
		<path d="M-357.2,321.8c-0.5-0.5-1.3-0.4-1.8,0.1l0,0c-0.5,0.5-0.4,1.3,0.1,1.8c0.2,0.2,0.5,0.3,0.8,0.3c0.3,0,0.7-0.1,0.9-0.4l0,0
			C-356.6,323.1-356.7,322.3-357.2,321.8z"/>
	</g>
</g>
<g>
	<g>
		<path class="st3" d="M-204.5,301.6c-0.6-0.6-1.5-0.6-2.1,0c-1,0.9-2,1.8-3.1,2.5c-4.1,2.7-6.5,7.3-6.7,12.3h-2.9v-12.5h2.1
			c0.8,0,1.5-0.7,1.5-1.5c0-0.8-0.7-1.5-1.5-1.5h-2.1v-3h2.1c0.8,0,1.5-0.7,1.5-1.5c0-0.8-0.7-1.5-1.5-1.5h-2.1v-3h2.1
			c0.8,0,1.5-0.7,1.5-1.5c0-0.8-0.7-1.5-1.5-1.5h-2.1v-3h2.1c0.8,0,1.5-0.7,1.5-1.5s-0.7-1.5-1.5-1.5h-3.3c-0.1,0-0.2,0-0.2,0
			c0,0,0,0-0.1,0h-3.5v-3h7.1c0.8,0,1.5-0.7,1.5-1.5s-0.7-1.5-1.5-1.5h-7.1v-3h11.9v25c0,0.8,0.7,1.5,1.5,1.5c0.8,0,1.5-0.7,1.5-1.5
			v-26.5c0-0.8-0.7-1.5-1.5-1.5h-15c-0.8,0-1.5,0.7-1.5,1.5v10.6h-8.5c-0.8,0-1.5,0.7-1.5,1.5v14.5c0,0.8,0.7,1.5,1.5,1.5
			c0.8,0,1.5-0.7,1.5-1.5v-13h11.9v30.6h-6.8c-0.1-4.9-2.7-9.5-6.8-12.3c-1-0.7-1.9-1.4-2.8-2.2c-0.6-0.6-1.6-0.5-2.1,0.1
			c-0.6,0.6-0.5,1.6,0.1,2.1c1,0.9,2.1,1.8,3.2,2.5c3.4,2.4,5.5,6.2,5.5,10.3v1.1v8.2c0,0.8,0.7,1.5,1.5,1.5h15.7
			c0.8,0,1.5-0.7,1.5-1.5v-8.2v-1c0-4.1,2-8,5.4-10.3c1.2-0.8,2.4-1.8,3.5-2.8C-203.9,303.1-203.9,302.2-204.5,301.6z M-216.5,324.5
			h-12.7v-5.1h12.7V324.5z"/>
	</g>
	<g>
		<path class="st3" d="M-242.6,269.5c-0.7-0.5-1.6-0.3-2.1,0.4l0,0c-0.5,0.7-0.3,1.6,0.4,2.1c0.3,0.2,0.6,0.3,0.8,0.3
			c0.5,0,1-0.2,1.3-0.7l0,0C-241.7,270.9-241.9,269.9-242.6,269.5z"/>
	</g>
	<g>
		<path class="st3" d="M-200.6,270.4c-4.9-7.6-13.2-12.1-22.2-12.1c0,0,0,0-0.1,0c-6.8,0-13.3,2.6-18.2,7.3c-0.6,0.6-0.6,1.5,0,2.1
			c0.6,0.6,1.5,0.6,2.1,0c4.3-4.2,10.1-6.5,16.1-6.5c0,0,0,0,0,0c8,0,15.3,4,19.6,10.7c0.3,0.4,0.8,0.7,1.3,0.7
			c0.3,0,0.6-0.1,0.8-0.2C-200.4,272-200.2,271.1-200.6,270.4z"/>
	</g>
	<g>
		<path class="st3" d="M-186.7,282.7C-186.7,282.7-186.7,282.7-186.7,282.7l-7.7-10.1c-0.3-0.4-0.7-0.6-1.2-0.6
			c-0.5,0-0.9,0.2-1.2,0.6l-7.7,10.1c0,0,0,0-0.1,0.1c-1.6,2.1-2.5,4.7-2.5,7.3c0,6.4,5.2,11.7,11.5,11.7c1.2,0,2.4-0.2,3.5-0.6
			c0.8-0.3,1.2-1.1,1-1.9c-0.3-0.8-1.1-1.2-1.9-1c-0.8,0.3-1.7,0.4-2.6,0.4c-4.7,0-8.5-3.9-8.5-8.7c0-2,0.7-4,1.9-5.5
			c0,0,0.1-0.1,0.1-0.1l6.5-8.4l6.5,8.5c0,0,0,0,0,0.1c1.2,1.5,1.9,3.5,1.9,5.5c0,0.6-0.1,1.3-0.2,1.9c-0.2,0.8,0.3,1.6,1.2,1.8
			c0.8,0.2,1.6-0.3,1.8-1.2c0.2-0.8,0.3-1.7,0.3-2.5C-184.1,287.3-185,284.7-186.7,282.7z"/>
	</g>
	<g>
		<path class="st3" d="M-190.6,288.5c-0.8,0-1.5,0.7-1.5,1.5c0,2-1.6,3.6-3.5,3.6c-0.8,0-1.5,0.7-1.5,1.5s0.7,1.5,1.5,1.5
			c3.6,0,6.5-3,6.5-6.6C-189.1,289.2-189.8,288.5-190.6,288.5z"/>
	</g>
	<g>
		<path class="st3" d="M-241.4,283.5l-7.5-10.8c-0.3-0.4-0.8-0.7-1.3-0.7c-0.5,0-1,0.3-1.3,0.7l-7.5,10.8c-2.1,3-2.9,6.6-2.4,10.2
			c0.4,2.8,1.8,5.3,3.9,7.1c1.6,1.4,3.5,2.3,5.6,2.6v1.2c0,0.8,0.7,1.5,1.5,1.5s1.5-0.7,1.5-1.5v-1.1c2.1-0.3,4.1-1.3,5.7-2.7
			c2.1-1.8,3.5-4.3,3.9-7.1C-238.5,290.1-239.4,286.4-241.4,283.5z M-251.8,278.4v8.5l-3.5-3.5L-251.8,278.4z M-251.8,300.3
			c-3.4-0.8-6-3.5-6.5-7.1c-0.4-2.5,0.1-5,1.4-7.2l5.2,5.2V300.3z M-248.8,278.2l4.8,7c0.6,0.8,1,1.7,1.3,2.6l-6.2,6.2V278.2z
			 M-242.1,293.2c-0.6,3.6-3.2,6.4-6.7,7.2v-2.2l6.8-6.8C-241.9,292-242,292.6-242.1,293.2z"/>
	</g>
	<g>
		<path class="st3" d="M-222.8,250.1c-0.8,0-1.5,0.7-1.5,1.5v2.8c0,0.8,0.7,1.5,1.5,1.5c0.8,0,1.5-0.7,1.5-1.5v-2.8
			C-221.3,250.8-222,250.1-222.8,250.1z"/>
	</g>
	<g>
		<path class="st3" d="M-237.2,257.3l-3.2-3.2c-0.6-0.6-1.5-0.6-2.1,0c-0.6,0.6-0.6,1.5,0,2.1l3.2,3.2c0.3,0.3,0.7,0.4,1.1,0.4
			c0.4,0,0.8-0.1,1.1-0.4C-236.6,258.9-236.6,257.9-237.2,257.3z"/>
	</g>
	<g>
		<path class="st3" d="M-203.1,254.1c-0.6-0.6-1.5-0.6-2.1,0l-3.1,3.1c-0.6,0.6-0.6,1.5,0,2.1c0.3,0.3,0.7,0.4,1.1,0.4
			c0.4,0,0.8-0.1,1.1-0.4l3.1-3.1C-202.5,255.7-202.5,254.7-203.1,254.1z"/>
	</g>
	<g>
		<path class="st3" d="M-225.8,288.2c-0.8,0-1.5,0.7-1.5,1.5v1c0,0.8,0.7,1.5,1.5,1.5c0.8,0,1.5-0.7,1.5-1.5v-1
			C-224.3,288.8-225,288.2-225.8,288.2z"/>
	</g>
	<g>
		<path class="st3" d="M-230.8,288.2c-0.8,0-1.5,0.7-1.5,1.5v1c0,0.8,0.7,1.5,1.5,1.5c0.8,0,1.5-0.7,1.5-1.5v-1
			C-229.3,288.8-229.9,288.2-230.8,288.2z"/>
	</g>
	<g>
		<path class="st3" d="M-225.8,294.1c-0.8,0-1.5,0.7-1.5,1.5v1c0,0.8,0.7,1.5,1.5,1.5c0.8,0,1.5-0.7,1.5-1.5v-1
			C-224.3,294.8-225,294.1-225.8,294.1z"/>
	</g>
	<g>
		<path class="st3" d="M-230.8,294.1c-0.8,0-1.5,0.7-1.5,1.5v1c0,0.8,0.7,1.5,1.5,1.5c0.8,0,1.5-0.7,1.5-1.5v-1
			C-229.3,294.8-229.9,294.1-230.8,294.1z"/>
	</g>
	<g>
		<path class="st3" d="M-225.8,300c-0.8,0-1.5,0.7-1.5,1.5v1c0,0.8,0.7,1.5,1.5,1.5c0.8,0,1.5-0.7,1.5-1.5v-1
			C-224.3,300.7-225,300-225.8,300z"/>
	</g>
	<g>
		<path class="st3" d="M-230.8,300c-0.8,0-1.5,0.7-1.5,1.5v1c0,0.8,0.7,1.5,1.5,1.5c0.8,0,1.5-0.7,1.5-1.5v-1
			C-229.3,300.7-229.9,300-230.8,300z"/>
	</g>
</g>
</svg>
