<?xml version="1.0" encoding="utf-8"?>
<!-- Generator: Adobe Illustrator 19.0.0, SVG Export Plug-In . SVG Version: 6.00 Build 0)  -->
<svg version="1.1" id="Layer_1" xmlns="http://www.w3.org/2000/svg" xmlns:xlink="http://www.w3.org/1999/xlink" x="0px" y="0px"
	 viewBox="-351 186.4 256.4 188.6" style="enable-background:new -351 186.4 256.4 188.6;" xml:space="preserve">
<style type="text/css">
	.st0{opacity:0.19;fill:#9E8B8A;enable-background:new    ;}
	.st1{enable-background:new    ;}
	.st2{fill:#FFFFFF;}
	.st3{fill:#C7B299;}
</style>
<path id="XMLID_40_" class="st0" d="M-114.9,375h-215.8c-11.2,0-20.3-9.1-20.3-20.3v-148c0-11.2,9.1-20.3,20.3-20.3h215.8
	c11.2,0,20.3,9.1,20.3,20.3v148C-94.6,365.9-103.7,375-114.9,375z"/>
<g class="st1">
	<path class="st2" d="M-296.1,199.6h10v2.3h-3.7v11.5h-2.5v-11.5h-3.7V199.6z"/>
	<path class="st2" d="M-279.1,208.1h-2.6v5.3h-2.5v-13.8h7.2c0.3,0,0.6,0.1,0.9,0.2c0.3,0.1,0.5,0.3,0.7,0.5
		c0.2,0.2,0.4,0.4,0.5,0.7c0.1,0.3,0.2,0.6,0.2,0.9v3.9c0,0.5-0.2,1-0.5,1.4c-0.3,0.4-0.7,0.7-1.2,0.8l2.6,5.4h-2.7L-279.1,208.1z
		 M-277.1,202.5c0-0.2-0.1-0.3-0.2-0.4c-0.1-0.1-0.2-0.2-0.4-0.2h-4v3.9h4c0.2,0,0.3-0.1,0.4-0.2c0.1-0.1,0.2-0.2,0.2-0.4V202.5z"/>
	<path class="st2" d="M-271.5,199.6h8.3v2.3h-5.9v3.4h5.3v2.3h-5.3v3.5h5.9v2.3h-8.3V199.6z"/>
	<path class="st2" d="M-249.8,213.4h-2.5l-1-3h-4.6l-0.9,3h-2.5l4.6-13.8h2.3L-249.8,213.4z M-257.2,208.2h3.2l-1.6-5.2
		L-257.2,208.2z"/>
	<path class="st2" d="M-242.3,208c-0.4-0.1-0.7-0.2-1-0.3c-0.3-0.1-0.6-0.2-0.8-0.2c-0.3-0.1-0.5-0.2-0.8-0.2
		c-0.3-0.1-0.6-0.2-1-0.3c-0.3-0.1-0.6-0.2-0.9-0.3s-0.5-0.3-0.7-0.5s-0.4-0.4-0.5-0.6c-0.1-0.2-0.2-0.5-0.2-0.8v-2.8
		c0-0.3,0.1-0.6,0.2-0.9c0.1-0.3,0.3-0.5,0.5-0.7c0.2-0.2,0.4-0.4,0.7-0.5c0.3-0.1,0.6-0.2,0.9-0.2h4.4c0.3,0,0.6,0.1,0.9,0.2
		c0.3,0.1,0.5,0.3,0.7,0.5c0.2,0.2,0.4,0.4,0.5,0.7c0.1,0.3,0.2,0.6,0.2,0.9v1.6l-2.5,0.4v-1.5c0-0.2-0.1-0.3-0.2-0.4
		c-0.1-0.1-0.2-0.2-0.4-0.2h-2.8c-0.2,0-0.3,0.1-0.4,0.2c-0.1,0.1-0.2,0.2-0.2,0.4v1.7c0,0.2,0.1,0.3,0.2,0.4
		c0.1,0.1,0.2,0.2,0.4,0.2c0.6,0.2,1.2,0.3,1.8,0.5c0.6,0.2,1.2,0.3,2,0.6c0.6,0.2,1.1,0.4,1.5,0.8c0.4,0.3,0.6,0.8,0.6,1.5v3.1
		c0,0.3-0.1,0.6-0.2,0.9c-0.1,0.3-0.3,0.5-0.5,0.7c-0.2,0.2-0.4,0.4-0.7,0.5c-0.3,0.1-0.6,0.2-0.9,0.2h-4.5c-0.3,0-0.6-0.1-0.9-0.2
		c-0.3-0.1-0.5-0.3-0.7-0.5c-0.2-0.2-0.4-0.4-0.5-0.7c-0.1-0.3-0.2-0.6-0.2-0.9v-1.6l2.5-0.4v1.4c0,0.2,0.1,0.3,0.2,0.4
		c0.1,0.1,0.2,0.2,0.4,0.2h2.9c0.2,0,0.3-0.1,0.4-0.2c0.1-0.1,0.2-0.2,0.2-0.4v-2c0-0.2-0.1-0.3-0.2-0.4
		C-242,208.1-242.1,208.1-242.3,208z"/>
	<path class="st2" d="M-229.9,199.6h2.5v11.5c0,0.3-0.1,0.6-0.2,0.9c-0.1,0.3-0.3,0.5-0.5,0.7c-0.2,0.2-0.4,0.4-0.7,0.5
		c-0.3,0.1-0.6,0.2-0.9,0.2h-4.6c-0.3,0-0.6-0.1-0.9-0.2c-0.3-0.1-0.5-0.3-0.7-0.5c-0.2-0.2-0.4-0.4-0.5-0.7
		c-0.1-0.3-0.2-0.6-0.2-0.9v-11.5h2.5v10.9c0,0.2,0.1,0.3,0.2,0.4c0.1,0.1,0.2,0.2,0.4,0.2h3.1c0.2,0,0.3-0.1,0.4-0.2
		c0.1-0.1,0.2-0.2,0.2-0.4V199.6z"/>
	<path class="st2" d="M-219.3,208.1h-2.6v5.3h-2.5v-13.8h7.2c0.3,0,0.6,0.1,0.9,0.2c0.3,0.1,0.5,0.3,0.7,0.5
		c0.2,0.2,0.4,0.4,0.5,0.7c0.1,0.3,0.2,0.6,0.2,0.9v3.9c0,0.5-0.2,1-0.5,1.4c-0.3,0.4-0.7,0.7-1.2,0.8l2.6,5.4h-2.7L-219.3,208.1z
		 M-217.4,202.5c0-0.2-0.1-0.3-0.2-0.4c-0.1-0.1-0.2-0.2-0.4-0.2h-4v3.9h4c0.2,0,0.3-0.1,0.4-0.2c0.1-0.1,0.2-0.2,0.2-0.4V202.5z"/>
	<path class="st2" d="M-211.7,199.6h8.3v2.3h-5.9v3.4h5.3v2.3h-5.3v3.5h5.9v2.3h-8.3V199.6z"/>
	<path class="st2" d="M-189.1,207.5h-4.7v5.9h-2.5v-13.8h2.5v5.6h4.7v-5.6h2.5v13.8h-2.5V207.5z"/>
	<path class="st2" d="M-176.9,199.6h2.5v11.5c0,0.3-0.1,0.6-0.2,0.9s-0.3,0.5-0.5,0.7c-0.2,0.2-0.4,0.4-0.7,0.5
		c-0.3,0.1-0.6,0.2-0.9,0.2h-4.6c-0.3,0-0.6-0.1-0.9-0.2c-0.3-0.1-0.5-0.3-0.7-0.5c-0.2-0.2-0.4-0.4-0.5-0.7
		c-0.1-0.3-0.2-0.6-0.2-0.9v-11.5h2.5v10.9c0,0.2,0.1,0.3,0.2,0.4c0.1,0.1,0.2,0.2,0.4,0.2h3.1c0.2,0,0.3-0.1,0.4-0.2
		c0.1-0.1,0.2-0.2,0.2-0.4V199.6z"/>
	<path class="st2" d="M-161.5,213.4h-2.4l-5.2-8.9v8.9h-2.4v-13.8h2.4l5.2,8.9v-8.9h2.4V213.4z"/>
	<path class="st2" d="M-159.5,199.6h10v2.3h-3.7v11.5h-2.5v-11.5h-3.7V199.6z"/>
</g>
<path class="st3" d="M-215.9,263.2c-0.4,0.5-0.9,0.7-1.5,0.7c-0.1,0-0.3,0-0.4,0c-0.7-0.1-1.3-0.7-1.5-1.3l-1.8-6.1l-21.2-5.3v53
	c0.9-0.2,1.8-0.4,2.6-0.5c0.7-0.1,1.4,0.1,1.8,0.6c0.5,0.5,0.6,1.2,0.4,1.9c-0.2,0.6-0.8,1.1-1.5,1.2c-1.1,0.2-2.2,0.4-3.3,0.7v17.4
	l4.4,1.1l4-3c0.5-0.4,1.1-0.5,1.7-0.3c0.6,0.2,1,0.6,1.3,1.1l1.8,4.4l28.9,7.2v-74.3l-12-3L-215.9,263.2z M-223,268.7
	c2.8,0.4,5.5,1.4,7.9,3c0.8,0.6,1.1,1.8,0.5,2.6c-0.6,0.9-1.7,1.1-2.6,0.5c-1.9-1.3-4-2.1-6.2-2.4c-1-0.1-1.8-1.1-1.7-2.1
	C-225,269.4-224.1,268.6-223,268.7z M-237.3,276.9c0.6-1.9,1.8-3.7,3.3-5c0.8-0.6,1.6-1.2,2.5-1.7c0.6-0.3,1.3-0.3,1.9,0
	c0.6,0.4,0.9,1,0.9,1.7c0,0.7-0.4,1.3-1,1.6c-0.6,0.3-1.2,0.7-1.8,1.2c-1,0.9-1.8,2.1-2.2,3.4c-0.3,0.8-1,1.3-1.8,1.3
	c-0.2,0-0.4,0-0.6-0.1c-0.5-0.2-0.9-0.5-1.1-1C-237.4,277.9-237.4,277.4-237.3,276.9z M-234.1,294.3c-0.5,0.2-1,0.1-1.5-0.1
	c-0.5-0.2-0.8-0.6-1-1.1c-0.7-2.2-1.3-4.5-1.6-6.9c0-0.3-0.1-0.6-0.1-1c-0.1-1,0.7-2,1.8-2.1c1.1-0.1,2,0.7,2.1,1.8
	c0,0.3,0,0.5,0.1,0.8c0.3,2.1,0.8,4.2,1.4,6.2c0.2,0.5,0.1,1-0.1,1.5C-233.2,293.8-233.6,294.2-234.1,294.3z M-230.1,306
	c-0.5,0.1-1,0.1-1.4,0.2c-1,0.1-1.9-0.5-2.1-1.5c-0.2-1,0.4-1.9,1.3-2.2l4.1-0.6c1.1-0.2,2.3-0.4,3.4-0.8c0.7-0.2,1.4,0,1.9,0.5
	c0.5,0.5,0.7,1.2,0.5,1.9c-0.2,0.7-0.7,1.2-1.4,1.4c-0.7,0.2-1.5,0.4-2.2,0.5L-230.1,306z M-216,318.4c-0.3,0.4-0.7,0.7-1.2,0.8
	c-0.5,0.1-1,0-1.4-0.3c-2.2-1.6-4.2-3.4-6-5.5c-0.7-0.8-0.6-2,0.2-2.7c0.8-0.7,2-0.6,2.7,0.2c1.5,1.8,3.3,3.5,5.2,4.8
	C-215.7,316.3-215.5,317.5-216,318.4L-216,318.4z M-216.3,300.7c-0.8,0.7-2,0.6-2.7-0.1c-0.7-0.8-0.6-2,0.1-2.7
	c1.7-1.6,3.2-3.4,4.4-5.5c0.3-0.6,1-1,1.7-1c0.7,0,1.3,0.4,1.7,1c0.3,0.6,0.3,1.3,0,1.9C-212.6,296.7-214.3,298.8-216.3,300.7
	L-216.3,300.7z M-207,318.8c1.2,0,2.3-0.1,3.5-0.4c1-0.2,2,0.4,2.3,1.5c0.2,1-0.4,2-1.5,2.3c-1.4,0.3-2.8,0.4-4.2,0.5h-0.2
	c-1.3,0-2.6-0.2-3.9-0.5c-0.7-0.1-1.2-0.6-1.4-1.3c-0.2-0.7,0-1.4,0.4-1.9c0.5-0.5,1.2-0.7,1.8-0.6c1,0.2,2,0.4,3.1,0.4L-207,318.8z
	 M-209.4,278.1c1.4,2.6,1.8,5.7,1.3,8.6c-0.2,0.9-1,1.6-1.9,1.6c-0.1,0-0.2,0-0.3,0c-1-0.2-1.7-1.2-1.5-2.2c0.1-0.6,0.2-1.2,0.2-1.7
	c0-1.5-0.4-3.1-1.1-4.5c-0.4-0.6-0.3-1.4,0-2c0.4-0.6,1.1-0.9,1.8-0.9C-210.3,277-209.7,277.4-209.4,278.1L-209.4,278.1z"/>
<path class="st3" d="M-249.9,256.6c-0.1,0.7-0.6,1.2-1.3,1.4c-0.2,0.1-0.4,0.1-0.6,0.1c-0.5,0-1-0.2-1.3-0.6l-2.8-2.8l-18.7,6.6V319
	l4.7,2.3c0.6,0.3,1,0.9,1,1.5c0.1,0.7-0.2,1.3-0.8,1.7l-5,3.7v7.3l28.6-10.1v-16.6l-0.2,0c-0.2,0-0.3,0.1-0.5,0.1
	c-1,0-1.8-0.7-1.9-1.7c-0.1-1,0.5-1.8,1.4-2.1c0.4-0.1,0.8-0.2,1.1-0.3v-53.7l-3,1.1L-249.9,256.6z M-265.1,300.5
	c-0.4,0.3-0.9,0.5-1.4,0.5c-0.5,0-1-0.3-1.3-0.6c-0.9-1-1.7-1.9-2.5-2.7c-0.7-0.7-0.7-1.9,0-2.7c0.7-0.7,1.9-0.7,2.7,0
	c0.9,0.9,1.8,1.9,2.7,2.9c0.3,0.4,0.5,0.9,0.5,1.4C-264.5,299.7-264.7,300.2-265.1,300.5z M-254.2,309.7c-0.1,0-0.2,0-0.3,0
	l-0.4-0.1c-2.7-0.5-5.3-1.8-7.3-3.6c-0.8-0.7-0.9-1.9-0.2-2.7c0.7-0.8,1.9-0.9,2.7-0.2c1.6,1.4,3.5,2.4,5.5,2.8l0.3,0
	c1,0.1,1.7,1,1.6,2C-252.4,308.9-253.2,309.7-254.2,309.7L-254.2,309.7z M-250.4,282.4c-0.7,0.7-2,0.7-2.7,0l-3.9-3.9l-2.6,5.3
	c-0.5,0.9-1.6,1.3-2.6,0.9c-0.9-0.5-1.3-1.6-0.9-2.6l3.2-6.4l-4.8-4.8c-0.5-0.5-0.7-1.2-0.5-1.9c0.2-0.7,0.7-1.2,1.4-1.4
	c0.7-0.2,1.4,0,1.9,0.5l3.9,3.9l2.6-5.3c0.3-0.6,0.9-1,1.6-1.1c0.7,0,1.3,0.3,1.7,0.9c0.4,0.6,0.4,1.3,0.1,1.9l-3.2,6.4l4.8,4.8
	c0.4,0.4,0.6,0.8,0.6,1.4S-250.1,282-250.4,282.4L-250.4,282.4z"/>
<path class="st3" d="M-196.4,261.4v53.3c1.6-1.3,3.1-2.7,4.6-4.1c0.5-0.5,1.2-0.6,1.9-0.5c0.7,0.2,1.2,0.7,1.3,1.4
	c0.2,0.7,0,1.4-0.5,1.8c-1.8,1.8-3.8,3.5-5.8,5.1c-0.3,0.3-0.8,0.4-1.2,0.4c-0.1,0-0.1,0-0.2,0v16.6l14.2-5l1.1-7.8
	c0.1-0.8,0.7-1.4,1.4-1.6c0.7-0.2,1.5,0.1,2,0.6l4.5,5.6l5.5-1.9v-74.2L-196.4,261.4z M-186.5,276.1c0.3-0.4,0.8-0.7,1.3-0.7
	c0.5-0.1,1,0.1,1.4,0.4c1.1,0.8,2.1,1.7,3.1,2.7c0.5,0.5,0.6,1.2,0.4,1.9c-0.2,0.7-0.7,1.2-1.4,1.3c-0.7,0.2-1.4,0-1.8-0.5
	c-0.8-0.8-1.7-1.6-2.6-2.3c-0.4-0.3-0.7-0.8-0.7-1.3C-187,277-186.8,276.5-186.5,276.1z M-178.9,301.7c-1.2,1.7-2.6,3.3-3.9,4.9
	c-0.4,0.5-0.7,0.8-1,1.2c-0.4,0.5-1.1,0.8-1.8,0.7c-0.7-0.1-1.2-0.6-1.5-1.3s-0.1-1.4,0.4-1.9c0.3-0.4,0.6-0.7,0.9-1.1
	c1.3-1.6,2.6-3.1,3.7-4.7c0.4-0.6,1-0.9,1.7-0.8c0.7,0.1,1.3,0.5,1.6,1.1C-178.5,300.4-178.5,301.1-178.9,301.7L-178.9,301.7z
	 M-175.4,294.1c-0.2,0.9-1,1.5-1.9,1.5c-0.1,0-0.3,0-0.4,0c-0.5-0.1-0.9-0.4-1.2-0.8c-0.3-0.4-0.4-0.9-0.3-1.4
	c0.1-0.7,0.2-1.3,0.2-2V291c0-1.4-0.3-2.8-0.8-4.1c-0.3-0.6-0.1-1.4,0.3-1.9c0.4-0.5,1.1-0.8,1.8-0.7c0.7,0.1,1.2,0.6,1.5,1.3
	c0.6,1.7,1,3.5,1,5.3v0.4C-175.2,292.3-175.3,293.2-175.4,294.1z"/>
</svg>
