<?xml version="1.0" encoding="utf-8"?>
<!-- Generator: Adobe Illustrator 19.0.0, SVG Export Plug-In . SVG Version: 6.00 Build 0)  -->
<svg version="1.1" id="Layer_1" xmlns="http://www.w3.org/2000/svg" xmlns:xlink="http://www.w3.org/1999/xlink" x="0px" y="0px"
	 viewBox="-351 186.4 256.4 188.6" style="enable-background:new -351 186.4 256.4 188.6;" xml:space="preserve">
<style type="text/css">
	.st0{opacity:0.19;fill:#9E8B8A;enable-background:new    ;}
	.st1{enable-background:new    ;}
	.st2{fill:#FFFFFF;}
	.st3{fill:#C7B299;}
</style>
<path id="XMLID_40_" class="st0" d="M-114.9,375h-215.8c-11.2,0-20.3-9.1-20.3-20.3v-148c0-11.2,9.1-20.3,20.3-20.3h215.8
	c11.2,0,20.3,9.1,20.3,20.3v148C-94.6,365.9-103.7,375-114.9,375z"/>
<g class="st1">
	<path class="st2" d="M-291.3,199.6h6.7c0.3,0,0.6,0.1,0.9,0.2c0.3,0.1,0.5,0.3,0.7,0.5c0.2,0.2,0.4,0.4,0.5,0.7
		c0.1,0.3,0.2,0.6,0.2,0.9v9.2c0,0.3-0.1,0.6-0.2,0.9c-0.1,0.3-0.3,0.5-0.5,0.7c-0.2,0.2-0.4,0.4-0.7,0.5c-0.3,0.1-0.6,0.2-0.9,0.2
		h-6.7V199.6z M-284.8,202.5c0-0.2-0.1-0.3-0.2-0.4c-0.1-0.1-0.2-0.2-0.4-0.2h-3.5v9.2h3.5c0.2,0,0.3-0.1,0.4-0.2
		c0.1-0.1,0.2-0.2,0.2-0.4V202.5z"/>
	<path class="st2" d="M-279.3,199.6h8.3v2.3h-5.9v3.4h5.3v2.3h-5.3v3.5h5.9v2.3h-8.3V199.6z"/>
	<path class="st2" d="M-268.3,199.6h8.3v2.3h-5.9v3.4h5.3v2.3h-5.3v3.5h5.9v2.3h-8.3V199.6z"/>
	<path class="st2" d="M-257.3,199.6h7c0.3,0,0.6,0.1,0.9,0.2c0.3,0.1,0.5,0.3,0.7,0.5c0.2,0.2,0.4,0.4,0.5,0.7
		c0.1,0.3,0.2,0.6,0.2,0.9v3.9c0,0.3-0.1,0.6-0.2,0.9c-0.1,0.3-0.3,0.5-0.5,0.7c-0.2,0.2-0.4,0.4-0.7,0.5s-0.6,0.2-0.9,0.2h-4.5v5.3
		h-2.5V199.6z M-250.5,202.5c0-0.2-0.1-0.3-0.2-0.4c-0.1-0.1-0.2-0.2-0.4-0.2h-3.8v3.9h3.8c0.2,0,0.3-0.1,0.4-0.2
		c0.1-0.1,0.2-0.2,0.2-0.4V202.5z"/>
	<path class="st2" d="M-241.4,199.6h2.5v11.5h5.6v2.3h-8.1V199.6z"/>
	<path class="st2" d="M-231,199.6h8.3v2.3h-5.9v3.4h5.3v2.3h-5.3v3.5h5.9v2.3h-8.3V199.6z"/>
	<path class="st2" d="M-209.4,213.4h-2.5l-1-3h-4.6l-0.9,3h-2.5l4.6-13.8h2.3L-209.4,213.4z M-216.8,208.2h3.2l-1.6-5.2
		L-216.8,208.2z"/>
	<path class="st2" d="M-202.4,208.1h-2.6v5.3h-2.5v-13.8h7.2c0.3,0,0.6,0.1,0.9,0.2c0.3,0.1,0.5,0.3,0.7,0.5
		c0.2,0.2,0.4,0.4,0.5,0.7c0.1,0.3,0.2,0.6,0.2,0.9v3.9c0,0.5-0.2,1-0.5,1.4c-0.3,0.4-0.7,0.7-1.2,0.8l2.6,5.4h-2.7L-202.4,208.1z
		 M-200.5,202.5c0-0.2-0.1-0.3-0.2-0.4c-0.1-0.1-0.2-0.2-0.4-0.2h-4v3.9h4c0.2,0,0.3-0.1,0.4-0.2c0.1-0.1,0.2-0.2,0.2-0.4V202.5z"/>
	<path class="st2" d="M-184.8,213.4h-2.4l-5.2-8.9v8.9h-2.4v-13.8h2.4l5.2,8.9v-8.9h2.4V213.4z"/>
	<path class="st2" d="M-179.2,213.4h-2.5v-13.8h2.5V213.4z"/>
	<path class="st2" d="M-166.1,213.4h-2.4l-5.2-8.9v8.9h-2.4v-13.8h2.4l5.2,8.9v-8.9h2.4V213.4z"/>
	<path class="st2" d="M-158.8,206.1h4.9v5c0,0.3-0.1,0.6-0.2,0.9s-0.3,0.5-0.5,0.7c-0.2,0.2-0.4,0.4-0.7,0.5s-0.6,0.2-0.9,0.2h-4.6
		c-0.3,0-0.6-0.1-0.9-0.2c-0.3-0.1-0.5-0.3-0.7-0.5c-0.2-0.2-0.4-0.4-0.5-0.7c-0.1-0.3-0.2-0.6-0.2-0.9v-9.2c0-0.3,0.1-0.6,0.2-0.9
		c0.1-0.3,0.3-0.5,0.5-0.7c0.2-0.2,0.4-0.4,0.7-0.5c0.3-0.1,0.6-0.2,0.9-0.2h4.6c0.3,0,0.6,0.1,0.9,0.2c0.3,0.1,0.5,0.3,0.7,0.5
		c0.2,0.2,0.4,0.4,0.5,0.7s0.2,0.6,0.2,0.9v1.5l-2.5,0.4v-1.4c0-0.2-0.1-0.3-0.2-0.4s-0.2-0.2-0.4-0.2h-3.1c-0.2,0-0.3,0.1-0.4,0.2
		c-0.1,0.1-0.2,0.2-0.2,0.4v8.1c0,0.2,0.1,0.3,0.2,0.4c0.1,0.1,0.2,0.2,0.4,0.2h3.1c0.2,0,0.3-0.1,0.4-0.2c0.1-0.1,0.2-0.2,0.2-0.4
		v-2.3h-2.4V206.1z"/>
</g>
<g>
	<path class="st3" d="M-246.8,282.6h48v3h-48V282.6z"/>
	<path class="st3" d="M-218.3,288.5h19.5v3h-19.5V288.5z"/>
	<path class="st3" d="M-246.8,288.5h19.5v3h-19.5V288.5z"/>
	<path class="st3" d="M-218.3,276.6h19.5v3h-19.5V276.6z"/>
	<path class="st3" d="M-246.8,276.6h19.5v3h-19.5V276.6z"/>
	<path class="st3" d="M-246.8,270.6h48v3h-48V270.6z"/>
	<path class="st3" d="M-189.8,278.3v-7.8c0-5-4-9-9-9v3c3.3,0,6,2.7,6,6v7.8c0,2.7,0.9,5.2,2.5,7.2c-1.6,2.1-2.5,4.6-2.5,7.2v7.8
		c0,3.3-2.7,6-6,6v3c5,0,9-4,9-9v-7.8c0-2.3,0.9-4.5,2.6-6.2l1.1-1.1l-1.1-1.1C-188.9,282.8-189.8,280.6-189.8,278.3z"/>
	<path class="st3" d="M-252.8,300.5v-7.8c0-2.7-0.9-5.2-2.5-7.2c1.6-2.1,2.5-4.6,2.5-7.2v-7.8c0-3.3,2.7-6,6-6v-3c-5,0-9,4-9,9v7.8
		c0,2.3-0.9,4.5-2.6,6.2l-1.1,1.1l1.1,1.1c1.7,1.7,2.6,3.8,2.6,6.2v7.8c0,5,4,9,9,9v-3C-250.1,306.5-252.8,303.8-252.8,300.5z"/>
	<path class="st3" d="M-222.8,309.5c-3.3,0-6,2.7-6,6s2.7,6,6,6s6-2.7,6-6S-219.5,309.5-222.8,309.5z M-222.8,318.5
		c-1.7,0-3-1.3-3-3c0-1.7,1.3-3,3-3s3,1.3,3,3C-219.8,317.2-221.1,318.5-222.8,318.5z"/>
	<path class="st3" d="M-222.8,303.5c-2,0-4,0.5-5.7,1.4l1.4,2.6c1.3-0.7,2.8-1.1,4.3-1.1c5,0,9,4,9,9c0,1.5-0.4,3-1.1,4.3l2.6,1.4
		c0.9-1.7,1.4-3.7,1.4-5.7C-210.8,308.9-216.2,303.5-222.8,303.5z"/>
	<path class="st3" d="M-222.8,324.5c-5,0-9-4-9-9c0-1.5,0.4-3,1.1-4.3l-2.6-1.4c-0.9,1.7-1.4,3.7-1.4,5.7c0,6.6,5.4,12,12,12
		c2,0,4-0.5,5.7-1.4l-1.4-2.6C-219.8,324.1-221.3,324.5-222.8,324.5z"/>
	<path class="st3" d="M-176.3,248.1c0-2.5-2-4.5-4.5-4.5h-83.9c-2.5,0-4.5,2-4.5,4.5v69h25.5v2.7l3.8,0.9c0.4,1.2,0.8,2.4,1.4,3.5
		l-2,3.3l5.9,5.9l3.3-2c1.1,0.6,2.3,1.1,3.5,1.4l0.9,3.8h8.3l0.9-3.8c1.2-0.4,2.4-0.8,3.5-1.4l3.3,2l5.9-5.9l-2-3.3
		c0.6-1.1,1.1-2.3,1.4-3.5l3.8-0.9V317h25.5V248.1z M-264.8,246.6h83.9c0.8,0,1.5,0.7,1.5,1.5v7.5h-86.9v-7.5
		C-266.3,247.3-265.6,246.6-264.8,246.6z M-204.8,317.4l-3.2,0.8l-0.2,0.9c-0.4,1.5-1,3-1.8,4.3l-0.5,0.8l1.7,2.8l-2.6,2.6l-2.8-1.7
		l-0.8,0.5c-1.3,0.8-2.8,1.4-4.3,1.8l-0.9,0.2l-0.8,3.2h-3.7l-0.8-3.2l-0.9-0.2c-1.5-0.4-3-1-4.3-1.8l-0.8-0.5l-2.8,1.7l-2.6-2.6
		l1.7-2.8l-0.5-0.8c-0.8-1.3-1.4-2.8-1.8-4.3l-0.2-0.9l-3.2-0.8v-3.7l3.2-0.8l0.2-0.9c0.4-1.5,1-3,1.8-4.3l0.5-0.8l-1.7-2.8l2.6-2.6
		l2.8,1.7l0.8-0.5c1.3-0.8,2.8-1.4,4.3-1.8l0.9-0.2l0.8-3.2h3.7l0.8,3.2l0.9,0.2c1.5,0.4,3,1,4.3,1.8l0.8,0.5l2.8-1.7l2.6,2.6
		l-1.7,2.8l0.5,0.8c0.8,1.3,1.4,2.8,1.8,4.3l0.2,0.9l3.2,0.8V317.4z M-201.8,314v-2.7l-3.8-0.9c-0.4-1.2-0.8-2.4-1.4-3.5l2-3.3
		l-5.9-5.9l-3.3,2c-1.1-0.6-2.3-1.1-3.5-1.4l-0.9-3.8h-8.3l-0.9,3.8c-1.2,0.4-2.4,0.8-3.5,1.4l-3.3-2l-5.9,5.9l2,3.3
		c-0.6,1.1-1.1,2.3-1.4,3.5l-3.8,0.9v2.7h-22.5v-55.5h86.9V314H-201.8z"/>
	<path class="st3" d="M-263.3,249.6h3v3h-3V249.6z"/>
	<path class="st3" d="M-257.3,249.6h3v3h-3V249.6z"/>
	<path class="st3" d="M-251.3,249.6h3v3h-3V249.6z"/>
</g>
<g>
	<g>
		<path class="st2" d="M-251.6,354.7h1.4l1.7,6.3l1-6.3h1.6l-1.6,9.2h-1.7l-1.7-6.6l-1.7,6.6h-1.7l-1.6-9.2h1.6l1,6.3L-251.6,354.7z
			"/>
		<path class="st2" d="M-243.7,363.7c-0.2-0.1-0.3-0.2-0.5-0.3c-0.1-0.1-0.2-0.3-0.3-0.5s-0.1-0.4-0.1-0.6v-6.1c0-0.2,0-0.4,0.1-0.6
			s0.2-0.3,0.3-0.5c0.1-0.1,0.3-0.2,0.5-0.3c0.2-0.1,0.4-0.1,0.6-0.1h3.2c0.2,0,0.4,0,0.6,0.1s0.3,0.2,0.5,0.3s0.2,0.3,0.3,0.5
			s0.1,0.4,0.1,0.6v6.1c0,0.2,0,0.4-0.1,0.6s-0.2,0.3-0.3,0.5s-0.3,0.2-0.5,0.3s-0.4,0.1-0.6,0.1h-3.2
			C-243.3,363.9-243.5,363.8-243.7,363.7z M-240,356.6c0-0.1,0-0.2-0.1-0.3c-0.1-0.1-0.2-0.1-0.3-0.1h-2.2c-0.1,0-0.2,0-0.3,0.1
			c-0.1,0.1-0.1,0.2-0.1,0.3v5.4c0,0.1,0,0.2,0.1,0.3c0.1,0.1,0.2,0.1,0.3,0.1h2.2c0.1,0,0.2,0,0.3-0.1c0.1-0.1,0.1-0.2,0.1-0.3
			V356.6z"/>
		<path class="st2" d="M-233,360.3h-1.7v3.5h-1.7v-9.2h4.8c0.2,0,0.4,0,0.6,0.1s0.3,0.2,0.5,0.3s0.2,0.3,0.3,0.5s0.1,0.4,0.1,0.6
			v2.6c0,0.4-0.1,0.7-0.3,0.9c-0.2,0.3-0.5,0.4-0.8,0.5l1.8,3.6h-1.8L-233,360.3z M-231.7,356.6c0-0.1,0-0.2-0.1-0.3
			c-0.1-0.1-0.2-0.1-0.3-0.1h-2.6v2.6h2.6c0.1,0,0.2,0,0.3-0.1c0.1-0.1,0.1-0.2,0.1-0.3V356.6z"/>
		<path class="st2" d="M-227.9,354.7h1.7v4.3l2.9-4.3h1.9l-3.1,4.6l3.2,4.6h-1.9l-3-4.3v4.3h-1.7V354.7z"/>
		<path class="st2" d="M-216.4,360.3c-0.3-0.1-0.5-0.1-0.7-0.2c-0.2-0.1-0.4-0.1-0.6-0.2c-0.2-0.1-0.4-0.1-0.6-0.2
			c-0.2-0.1-0.4-0.1-0.7-0.2c-0.2-0.1-0.4-0.1-0.6-0.2c-0.2-0.1-0.3-0.2-0.5-0.3c-0.1-0.1-0.2-0.3-0.3-0.4c-0.1-0.2-0.1-0.3-0.1-0.6
			v-1.9c0-0.2,0-0.4,0.1-0.6s0.2-0.3,0.3-0.5c0.1-0.1,0.3-0.2,0.5-0.3s0.4-0.1,0.6-0.1h2.9c0.2,0,0.4,0,0.6,0.1s0.3,0.2,0.5,0.3
			s0.2,0.3,0.3,0.5c0.1,0.2,0.1,0.4,0.1,0.6v1.1l-1.7,0.3v-1c0-0.1,0-0.2-0.1-0.3c-0.1-0.1-0.2-0.1-0.3-0.1h-1.9
			c-0.1,0-0.2,0-0.3,0.1c-0.1,0.1-0.1,0.2-0.1,0.3v1.1c0,0.1,0,0.2,0.1,0.3c0.1,0.1,0.2,0.1,0.3,0.1c0.4,0.1,0.8,0.2,1.2,0.3
			c0.4,0.1,0.8,0.2,1.3,0.4c0.4,0.1,0.7,0.3,1,0.5c0.3,0.2,0.4,0.6,0.4,1v2.1c0,0.2,0,0.4-0.1,0.6s-0.2,0.3-0.3,0.5
			c-0.1,0.1-0.3,0.2-0.5,0.3s-0.4,0.1-0.6,0.1h-3c-0.2,0-0.4,0-0.6-0.1s-0.3-0.2-0.5-0.3s-0.2-0.3-0.3-0.5s-0.1-0.4-0.1-0.6v-1
			l1.7-0.3v1c0,0.1,0,0.2,0.1,0.3c0.1,0.1,0.2,0.1,0.3,0.1h1.9c0.1,0,0.2,0,0.3-0.1c0.1-0.1,0.1-0.2,0.1-0.3v-1.3
			c0-0.1,0-0.2-0.1-0.2C-216.2,360.4-216.3,360.3-216.4,360.3z"/>
		<path class="st2" d="M-207.8,359.9h-3.1v3.9h-1.7v-9.2h1.7v3.7h3.1v-3.7h1.7v9.2h-1.7V359.9z"/>
		<path class="st2" d="M-203.2,363.7c-0.2-0.1-0.3-0.2-0.5-0.3s-0.2-0.3-0.3-0.5s-0.1-0.4-0.1-0.6v-6.1c0-0.2,0-0.4,0.1-0.6
			s0.2-0.3,0.3-0.5s0.3-0.2,0.5-0.3c0.2-0.1,0.4-0.1,0.6-0.1h3.2c0.2,0,0.4,0,0.6,0.1s0.3,0.2,0.5,0.3s0.2,0.3,0.3,0.5
			s0.1,0.4,0.1,0.6v6.1c0,0.2,0,0.4-0.1,0.6s-0.2,0.3-0.3,0.5s-0.3,0.2-0.5,0.3s-0.4,0.1-0.6,0.1h-3.2
			C-202.8,363.9-203,363.8-203.2,363.7z M-199.5,356.6c0-0.1,0-0.2-0.1-0.3c-0.1-0.1-0.2-0.1-0.3-0.1h-2.2c-0.1,0-0.2,0-0.3,0.1
			c-0.1,0.1-0.1,0.2-0.1,0.3v5.4c0,0.1,0,0.2,0.1,0.3c0.1,0.1,0.2,0.1,0.3,0.1h2.2c0.1,0,0.2,0,0.3-0.1c0.1-0.1,0.1-0.2,0.1-0.3
			V356.6z"/>
		<path class="st2" d="M-195.9,354.7h4.7c0.2,0,0.4,0,0.6,0.1s0.3,0.2,0.5,0.3s0.2,0.3,0.3,0.5s0.1,0.4,0.1,0.6v2.6
			c0,0.2,0,0.4-0.1,0.6s-0.2,0.3-0.3,0.5s-0.3,0.2-0.5,0.3s-0.4,0.1-0.6,0.1h-3v3.5h-1.7V354.7z M-191.3,356.6c0-0.1,0-0.2-0.1-0.3
			c-0.1-0.1-0.2-0.1-0.3-0.1h-2.5v2.6h2.5c0.1,0,0.2,0,0.3-0.1c0.1-0.1,0.1-0.2,0.1-0.3V356.6z"/>
	</g>
</g>
</svg>
