<?xml version="1.0" encoding="utf-8"?>
<!-- Generator: Adobe Illustrator 19.0.0, SVG Export Plug-In . SVG Version: 6.00 Build 0)  -->
<svg version="1.1" id="Layer_1" xmlns="http://www.w3.org/2000/svg" xmlns:xlink="http://www.w3.org/1999/xlink" x="0px" y="0px"
	 viewBox="-351 186.4 256.4 188.6" style="enable-background:new -351 186.4 256.4 188.6;" xml:space="preserve">
<style type="text/css">
	.st0{opacity:0.19;fill:#9E8B8A;enable-background:new    ;}
	.st1{fill:#FFFFFF;}
	.st2{fill:#C7B299;}
</style>
<path id="XMLID_40_" class="st0" d="M-114.9,375h-215.8c-11.2,0-20.3-9.1-20.3-20.3v-148c0-11.2,9.1-20.3,20.3-20.3h215.8
	c11.2,0,20.3,9.1,20.3,20.3v148C-94.6,365.9-103.7,375-114.9,375z"/>
<g>
	<path class="st1" d="M-258.3,200.1h8.8v2.4h-6.2v3.6h5.7v2.4h-5.7v3.7h6.2v2.4h-8.8V200.1z"/>
	<path class="st1" d="M-236,214.7h-2.5l-5.6-9.4v9.4h-2.5v-14.6h2.5l5.6,9.5v-9.5h2.5V214.7z"/>
	<path class="st1" d="M-228.3,207h5.2v5.3c0,0.3-0.1,0.6-0.2,0.9s-0.3,0.5-0.5,0.8c-0.2,0.2-0.5,0.4-0.8,0.5
		c-0.3,0.1-0.6,0.2-0.9,0.2h-4.9c-0.3,0-0.6-0.1-0.9-0.2c-0.3-0.1-0.5-0.3-0.8-0.5c-0.2-0.2-0.4-0.5-0.5-0.8
		c-0.1-0.3-0.2-0.6-0.2-0.9v-9.8c0-0.3,0.1-0.6,0.2-0.9c0.1-0.3,0.3-0.5,0.5-0.8c0.2-0.2,0.5-0.4,0.8-0.5c0.3-0.1,0.6-0.2,0.9-0.2
		h4.9c0.3,0,0.6,0.1,0.9,0.2c0.3,0.1,0.5,0.3,0.8,0.5c0.2,0.2,0.4,0.5,0.5,0.8c0.1,0.3,0.2,0.6,0.2,0.9v1.6l-2.6,0.4v-1.5
		c0-0.2-0.1-0.3-0.2-0.4c-0.1-0.1-0.3-0.2-0.4-0.2h-3.3c-0.2,0-0.3,0.1-0.4,0.2c-0.1,0.1-0.2,0.2-0.2,0.4v8.6c0,0.2,0.1,0.3,0.2,0.4
		c0.1,0.1,0.3,0.2,0.4,0.2h3.3c0.2,0,0.3-0.1,0.4-0.2c0.1-0.1,0.2-0.2,0.2-0.4v-2.4h-2.5V207z"/>
	<path class="st1" d="M-217.6,214.7h-2.6v-14.6h2.6V214.7z"/>
	<path class="st1" d="M-203.7,214.7h-2.5l-5.6-9.4v9.4h-2.5v-14.6h2.5l5.6,9.5v-9.5h2.5V214.7z"/>
	<path class="st1" d="M-200.4,200.1h8.8v2.4h-6.2v3.6h5.7v2.4h-5.7v3.7h6.2v2.4h-8.8V200.1z"/>
	<path class="st1" d="M-285.5,226.4h7.1c0.3,0,0.6,0.1,0.9,0.2c0.3,0.1,0.5,0.3,0.8,0.5c0.2,0.2,0.4,0.5,0.5,0.8
		c0.1,0.3,0.2,0.6,0.2,0.9v9.8c0,0.3-0.1,0.6-0.2,0.9c-0.1,0.3-0.3,0.5-0.5,0.8s-0.5,0.4-0.8,0.5c-0.3,0.1-0.6,0.2-0.9,0.2h-7.1
		V226.4z M-278.6,229.4c0-0.2-0.1-0.3-0.2-0.4c-0.1-0.1-0.3-0.2-0.4-0.2h-3.7v9.8h3.7c0.2,0,0.3-0.1,0.4-0.2
		c0.1-0.1,0.2-0.2,0.2-0.4V229.4z"/>
	<path class="st1" d="M-270.2,240.9h-2.6v-14.6h2.6V240.9z"/>
	<path class="st1" d="M-260.7,235.3c-0.4-0.1-0.8-0.2-1.1-0.3c-0.3-0.1-0.6-0.2-0.9-0.3s-0.6-0.2-0.9-0.3c-0.3-0.1-0.7-0.2-1.1-0.3
		c-0.3-0.1-0.6-0.2-0.9-0.4s-0.5-0.3-0.7-0.5c-0.2-0.2-0.4-0.4-0.5-0.7c-0.1-0.2-0.2-0.5-0.2-0.9v-3c0-0.3,0.1-0.6,0.2-0.9
		c0.1-0.3,0.3-0.5,0.5-0.8c0.2-0.2,0.5-0.4,0.8-0.5c0.3-0.1,0.6-0.2,0.9-0.2h4.6c0.3,0,0.6,0.1,0.9,0.2c0.3,0.1,0.5,0.3,0.8,0.5
		c0.2,0.2,0.4,0.5,0.5,0.8c0.1,0.3,0.2,0.6,0.2,0.9v1.7l-2.6,0.4v-1.6c0-0.2-0.1-0.3-0.2-0.4c-0.1-0.1-0.3-0.2-0.4-0.2h-3
		c-0.2,0-0.3,0.1-0.4,0.2c-0.1,0.1-0.2,0.2-0.2,0.4v1.8c0,0.2,0.1,0.3,0.2,0.4c0.1,0.1,0.3,0.2,0.4,0.2c0.6,0.2,1.3,0.4,1.9,0.5
		c0.6,0.2,1.3,0.4,2.1,0.6c0.6,0.2,1.2,0.4,1.6,0.8c0.4,0.4,0.7,0.9,0.7,1.6v3.3c0,0.3-0.1,0.6-0.2,0.9c-0.1,0.3-0.3,0.5-0.5,0.8
		c-0.2,0.2-0.5,0.4-0.8,0.5c-0.3,0.1-0.6,0.2-0.9,0.2h-4.7c-0.3,0-0.6-0.1-0.9-0.2c-0.3-0.1-0.5-0.3-0.8-0.5s-0.4-0.5-0.5-0.8
		c-0.1-0.3-0.2-0.6-0.2-0.9v-1.7l2.6-0.4v1.5c0,0.2,0.1,0.3,0.2,0.4c0.1,0.1,0.3,0.2,0.4,0.2h3.1c0.2,0,0.3-0.1,0.4-0.2
		c0.1-0.1,0.2-0.2,0.2-0.4v-2.1c0-0.2-0.1-0.3-0.2-0.4S-260.6,235.3-260.7,235.3z"/>
	<path class="st1" d="M-252.1,232.2v8.7h-2.5v-14.6h2.5l3.9,8.9l3.9-8.9h2.5v14.6h-2.5l0-8.7l-2.8,6.2h-2.2L-252.1,232.2z"/>
	<path class="st1" d="M-227.4,240.9h-2.6l-1-3.2h-4.9l-1,3.2h-2.6l4.9-14.6h2.4L-227.4,240.9z M-235.2,235.4h3.4l-1.7-5.6
		L-235.2,235.4z"/>
	<path class="st1" d="M-214.8,240.9h-2.5l-5.6-9.4v9.4h-2.5v-14.6h2.5l5.6,9.5v-9.5h2.5V240.9z"/>
	<path class="st1" d="M-212.7,226.4h10.5v2.4h-4v12.2h-2.6v-12.2h-4V226.4z"/>
	<path class="st1" d="M-200.1,226.4h2.6v12.2h5.9v2.4h-8.6V226.4z"/>
	<path class="st1" d="M-186.5,240.9h-2.6v-14.6h2.6V240.9z"/>
	<path class="st1" d="M-172.6,240.9h-2.5l-5.6-9.4v9.4h-2.5v-14.6h2.5l5.6,9.5v-9.5h2.5V240.9z"/>
	<path class="st1" d="M-164.9,233.2h5.2v5.3c0,0.3-0.1,0.6-0.2,0.9s-0.3,0.5-0.5,0.8c-0.2,0.2-0.5,0.4-0.8,0.5
		c-0.3,0.1-0.6,0.2-0.9,0.2h-4.9c-0.3,0-0.6-0.1-0.9-0.2c-0.3-0.1-0.5-0.3-0.8-0.5c-0.2-0.2-0.4-0.5-0.5-0.8
		c-0.1-0.3-0.2-0.6-0.2-0.9v-9.8c0-0.3,0.1-0.6,0.2-0.9c0.1-0.3,0.3-0.5,0.5-0.8c0.2-0.2,0.5-0.4,0.8-0.5c0.3-0.1,0.6-0.2,0.9-0.2
		h4.9c0.3,0,0.6,0.1,0.9,0.2c0.3,0.1,0.5,0.3,0.8,0.5c0.2,0.2,0.4,0.5,0.5,0.8c0.1,0.3,0.2,0.6,0.2,0.9v1.6l-2.6,0.4v-1.5
		c0-0.2-0.1-0.3-0.2-0.4c-0.1-0.1-0.3-0.2-0.4-0.2h-3.3c-0.2,0-0.3,0.1-0.4,0.2c-0.1,0.1-0.2,0.2-0.2,0.4v8.6c0,0.2,0.1,0.3,0.2,0.4
		c0.1,0.1,0.3,0.2,0.4,0.2h3.3c0.2,0,0.3-0.1,0.4-0.2c0.1-0.1,0.2-0.2,0.2-0.4v-2.4h-2.5V233.2z"/>
</g>
<g>
	<g>
		<circle class="st2" cx="-188.3" cy="281.4" r="1.8"/>
	</g>
</g>
<g>
	<g>
		<g>
			<path class="st2" d="M-209.1,296.9C-209.1,296.9-209.1,297-209.1,296.9L-209.1,296.9z"/>
			<path class="st2" d="M-214.1,292C-214.1,292-214.1,292-214.1,292L-214.1,292z"/>
			<path class="st2" d="M-172.1,277.7h-2.2c-0.7-2.8-1.8-5.5-3.3-8.1l1.5-1.5c1.7-1.7,1.7-4.6,0-6.3l-3.6-3.6
				c-1.7-1.7-4.6-1.7-6.3,0l-1.5,1.5c-2.5-1.5-5.2-2.6-8.1-3.3v-2.2c0-2.5-2-4.5-4.5-4.5h-5c-2.5,0-4.5,2-4.5,4.5v2.2
				c-2.8,0.7-5.5,1.8-8.1,3.3l-1.5-1.5c-1.7-1.7-4.6-1.7-6.3,0l-3.6,3.6c-1.7,1.7-1.7,4.6,0,6.3l1.5,1.5c-1.5,2.5-2.6,5.2-3.3,8.1
				h-2.2c-2.5,0-4.5,2-4.5,4.5v5c0,2.5,2,4.5,4.5,4.5h2.2c0.7,2.8,1.8,5.5,3.3,8l0.4,0.7l-29.5,29.5c-5.7-2.1-12.3-0.6-16.7,3.7
				c-4.4,4.4-5.9,11.1-3.6,17c0.2,0.5,0.6,0.9,1.2,1c0.5,0.1,1.1-0.1,1.5-0.4l8.3-8.3l4.1,1.7l1.8,4.3l-8.3,8.3
				c-0.4,0.4-0.6,0.9-0.4,1.5c0.1,0.5,0.5,1,1,1.2c1.9,0.7,3.8,1.1,5.7,1.1c4.1,0,8.2-1.6,11.3-4.7c4.4-4.4,5.8-10.9,3.7-16.7
				l5.5-5.5c0.6-0.6,0.6-1.7,0-2.3c-0.6-0.6-1.7-0.6-2.3,0l-6.2,6.2c-0.5,0.5-0.6,1.2-0.3,1.8c2.1,4.8,1.1,10.4-2.6,14.1
				c-2.9,2.9-7,4.2-11,3.6l7.1-7.1c0.5-0.5,0.6-1.2,0.3-1.8l-2.5-5.9c-0.2-0.4-0.5-0.7-0.9-0.9l-5.7-2.3c-0.6-0.2-1.3-0.1-1.8,0.4
				l-7.1,7.1c-0.6-4,0.6-8.1,3.6-11c3.7-3.7,9.3-4.7,14.1-2.6c0.6,0.3,1.3,0.1,1.8-0.3l41-41c0.5-0.5,0.6-1.2,0.3-1.8
				c-2.1-4.8-1.1-10.4,2.6-14.1c2.9-2.9,7-4.2,11-3.6c0,0,0,0,0,0l-7.1,7.1c0,0,0,0,0,0c0,0,0,0,0,0c0,0,0,0,0,0c0,0,0,0,0,0
				c0,0,0,0,0,0c0,0,0,0,0,0c0,0,0,0,0,0c0,0,0,0,0,0c0,0,0,0,0,0c0,0,0,0,0,0c0,0,0,0,0,0c0,0,0,0,0,0c0,0,0,0,0,0c0,0,0,0,0,0
				c0,0,0,0,0,0c0,0,0,0,0,0c0,0,0,0,0,0c0,0,0,0,0,0c0,0,0,0,0,0c0,0,0,0,0,0c0,0,0,0,0,0c0,0,0,0,0,0c0,0,0,0,0,0c0,0,0,0,0,0
				c0,0,0,0,0,0c0,0,0,0,0,0c0,0,0,0,0,0c0,0,0,0,0,0c0,0,0,0,0,0c0,0,0,0,0,0c0,0,0,0,0,0c0,0,0,0,0,0c0,0,0,0,0,0c0,0,0,0,0,0
				c0,0,0,0,0,0c0,0,0,0,0,0c0,0,0,0,0,0c0,0,0,0,0,0c0,0,0,0,0,0c0,0,0,0,0,0c0,0,0,0,0,0c0,0,0,0,0,0c0,0,0,0,0,0c0,0,0,0,0,0
				c0,0,0,0,0,0c0,0,0,0,0,0c0,0,0,0,0,0c0,0,0,0,0,0c0,0,0,0,0,0c0,0,0,0,0,0c0,0,0,0,0,0c0,0,0,0,0,0c0,0,0,0,0,0c0,0,0,0,0,0
				c0,0,0,0,0,0c0,0,0,0,0,0c0,0,0,0,0,0c0,0,0,0,0,0c0,0,0,0,0,0c0,0,0,0,0,0c0,0,0,0,0,0c0,0,0,0,0,0c0,0,0,0,0,0c0,0,0,0,0,0
				c0,0,0,0,0,0c0,0,0,0,0,0c0,0,0,0,0,0c0,0,0,0,0,0c0,0,0,0,0,0c0,0,0,0,0,0c0,0,0,0,0,0c0,0,0,0,0,0c0,0,0,0,0,0c0,0,0,0,0,0
				c0,0,0,0,0,0c0,0,0,0,0,0c0,0,0,0,0,0c0,0,0,0,0,0c0,0,0,0,0,0c0,0,0,0,0,0c0,0,0,0,0,0c0,0,0,0,0,0c0,0,0,0,0,0c0,0,0,0,0,0
				c0,0,0,0,0,0c0,0,0,0,0,0c0,0,0,0,0,0c0,0,0,0,0,0c0,0,0,0,0,0c0,0,0,0,0,0c0,0,0,0,0,0c0,0,0,0,0,0c0,0,0,0,0,0c0,0,0,0,0,0
				c0,0,0,0,0,0c0,0,0,0,0,0c0,0,0,0,0,0c0,0,0,0,0,0c0,0,0,0,0,0c0,0,0,0,0,0c0,0,0,0,0,0c0,0,0,0,0,0c0,0,0,0,0,0c0,0,0,0,0,0
				c0,0,0,0,0,0c0,0,0,0,0,0c0,0,0,0,0,0c0,0,0,0,0,0c0,0,0,0,0,0l0,0c0,0,0,0,0,0c0,0,0,0,0,0c0,0,0,0,0,0c0,0,0,0,0,0c0,0,0,0,0,0
				c0,0,0,0,0,0c0,0,0,0,0,0c0,0,0,0,0,0c0,0,0,0,0,0c0,0,0,0,0,0c0,0,0,0,0,0c0,0,0,0,0,0c0,0,0,0,0,0c0,0,0,0,0,0l2.4,5.7
				c0.2,0.4,0.5,0.7,0.9,0.9l5.8,2.5c0.6,0.3,1.3,0.1,1.8-0.3l7.1-7.1c0.6,4-0.6,8.1-3.6,11c-3.7,3.7-9.3,4.7-14.1,2.6
				c-0.6-0.3-1.3-0.1-1.8,0.3l-30.2,30.2c-0.6,0.6-0.6,1.7,0,2.3c0.6,0.6,1.7,0.6,2.3,0l19.7-19.7c2.4,1.5,5.1,2.5,7.8,3.2v2.2
				c0,2.5,2,4.5,4.5,4.5h5c2.5,0,4.5-2,4.5-4.5V313c2.8-0.7,5.5-1.8,8.1-3.3l1.5,1.5c0.8,0.8,2,1.3,3.2,1.3c1.2,0,2.3-0.5,3.2-1.3
				l3.6-3.6c0.8-0.8,1.3-2,1.3-3.2c0-1.2-0.5-2.3-1.3-3.2l-1.5-1.5c1.5-2.5,2.6-5.2,3.3-8.1h2.2c2.5,0,4.5-2,4.5-4.5v-5
				C-167.6,279.8-169.7,277.7-172.1,277.7z M-195,283.8l-3.3,3.3l-4.3-2l-1.7-3.9l4.1-4.1l4.6,1.4l1.4,4.6L-195,283.8z
				 M-170.9,287.2c0,0.7-0.6,1.2-1.2,1.2h-3c-1,0-1.9,0.7-2.2,1.7c-0.7,3-1.8,5.9-3.5,8.5c-0.6,0.9-0.4,2,0.3,2.8l2.1,2.1
				c0.2,0.2,0.4,0.5,0.4,0.9c0,0.3-0.1,0.6-0.4,0.9l-3.6,3.6c-0.5,0.5-1.3,0.5-1.7,0l-2.1-2.1c-0.7-0.7-1.9-0.9-2.8-0.3
				c-2.6,1.7-5.5,2.9-8.5,3.5c-1,0.2-1.7,1.1-1.7,2.2v3c0,0.7-0.6,1.2-1.2,1.2h-5c-0.7,0-1.2-0.6-1.2-1.2v-3c0-1-0.7-1.9-1.7-2.2
				c-2.4-0.5-4.8-1.4-7-2.6l3.1-3.1c2.9,1.4,6.1,2.1,9.4,2.1c10.4,0,19.3-7.4,21.3-17.5c0.2-0.9-0.4-1.7-1.3-1.9
				c-0.9-0.2-1.7,0.4-1.9,1.3c-1.7,8.6-9.3,14.9-18.1,14.9c-2.4,0-4.7-0.5-6.9-1.3l1.9-1.9c5.7,2.1,12.3,0.6,16.7-3.7
				c4.4-4.4,5.9-11.1,3.6-17c-0.2-0.5-0.6-0.9-1.2-1c-0.5-0.1-1.1,0.1-1.5,0.4l-1.6,1.6l-1.1-3.7c-0.2-0.5-0.6-0.9-1.1-1.1l-3.7-1.1
				l1.6-1.6c0.4-0.4,0.6-0.9,0.4-1.5c-0.1-0.5-0.5-1-1-1.2c-5.9-2.3-12.5-0.8-17,3.6c-4.4,4.4-5.8,10.9-3.7,16.7l-2.1,2.1
				c-1.1-2.4-1.7-5.1-1.7-7.9c0-10.2,8.3-18.5,18.5-18.5c9.3,0,17.1,6.9,18.3,16.1c0.1,0.9,0.9,1.5,1.8,1.4c0.9-0.1,1.5-0.9,1.4-1.8
				c-1.4-10.8-10.7-18.9-21.5-18.9c-12,0-21.7,9.7-21.7,21.7c0,3.6,0.9,7.1,2.6,10.3l-3,3c-1.5-2.4-2.5-5.1-3.1-7.8
				c-0.2-1-1.1-1.7-2.2-1.7h-3c-0.7,0-1.2-0.6-1.2-1.2v-5c0-0.7,0.6-1.2,1.2-1.2h3c1,0,1.9-0.7,2.2-1.7c0.7-3,1.8-5.9,3.5-8.5
				c0.6-0.9,0.4-2-0.3-2.8l-2.1-2.1c-0.5-0.5-0.5-1.3,0-1.7l3.6-3.6c0.5-0.5,1.3-0.5,1.7,0l2.1,2.1c0.7,0.7,1.9,0.9,2.8,0.3
				c2.6-1.7,5.5-2.9,8.5-3.5c1-0.2,1.7-1.1,1.7-2.2v-3c0-0.7,0.6-1.2,1.2-1.2h5c0.7,0,1.2,0.6,1.2,1.2v3c0,1,0.7,1.9,1.7,2.2
				c3,0.7,5.9,1.8,8.5,3.5c0.9,0.6,2,0.4,2.8-0.3l2.1-2.1c0.5-0.5,1.3-0.5,1.7,0l3.6,3.6c0.5,0.5,0.5,1.3,0,1.7l-2.1,2.1
				c-0.7,0.7-0.9,1.9-0.3,2.8c1.7,2.6,2.9,5.5,3.5,8.5c0.2,1,1.1,1.7,2.2,1.7h3c0.7,0,1.2,0.6,1.2,1.2L-170.9,287.2L-170.9,287.2z"
				/>
		</g>
	</g>
</g>
<g>
	<g>
		<path class="st2" d="M-245,281.9h-0.9c-0.2-0.5-0.4-1-0.6-1.5l0.6-0.6c0.9-0.9,0.9-2.5,0-3.4l-2.8-2.8c-0.5-0.5-1.1-0.7-1.7-0.7
			c-0.6,0-1.3,0.3-1.7,0.7l-0.6,0.6c-0.5-0.2-1-0.4-1.5-0.6v-0.9c0-1.3-1.1-2.4-2.4-2.4h-4c-1.3,0-2.4,1.1-2.4,2.4v0.9
			c-0.5,0.2-1,0.4-1.5,0.6l-0.6-0.6c-0.5-0.5-1.1-0.7-1.7-0.7s-1.3,0.3-1.7,0.7l-2.8,2.8c-0.9,0.9-0.9,2.5,0,3.4l0.6,0.6
			c-0.2,0.5-0.4,1-0.6,1.5h-0.9c-1.3,0-2.4,1.1-2.4,2.4v4c0,1.3,1.1,2.4,2.4,2.4h0.9c0.2,0.5,0.4,1,0.6,1.5l-0.6,0.6
			c-0.9,0.9-0.9,2.5,0,3.4l2.8,2.8c0.5,0.5,1.1,0.7,1.7,0.7c0.6,0,1.3-0.3,1.7-0.7l0.6-0.6c0.5,0.2,1,0.4,1.5,0.6v0.9
			c0,1.3,1.1,2.4,2.4,2.4h4c1.3,0,2.4-1.1,2.4-2.4V299c0.5-0.2,1-0.4,1.5-0.6l0.6,0.6c0.5,0.5,1.1,0.7,1.7,0.7
			c0.6,0,1.3-0.3,1.7-0.7l2.8-2.8c0.9-0.9,0.9-2.5,0-3.4l-0.6-0.6c0.2-0.5,0.4-1,0.6-1.5h0.9c1.3,0,2.4-1.1,2.4-2.4v-4
			C-242.6,283-243.7,281.9-245,281.9z M-245.8,287.5h-1.3c-0.7,0-1.4,0.5-1.6,1.2c-0.2,1-0.7,2-1.2,2.9c-0.4,0.6-0.3,1.5,0.2,2
			l0.9,0.9l-1.7,1.7l-0.9-0.9c-0.5-0.5-1.3-0.6-2-0.2c-0.9,0.5-1.9,1-2.9,1.2c-0.7,0.2-1.2,0.8-1.2,1.6v1.3h-2.4v-1.3
			c0-0.7-0.5-1.4-1.2-1.6c-1-0.2-2-0.7-2.9-1.2c-0.6-0.4-1.5-0.3-2,0.2l-0.9,0.9l-1.7-1.7l0.9-0.9c0.5-0.5,0.6-1.3,0.2-2
			c-0.5-0.9-1-1.9-1.2-2.9c-0.2-0.7-0.8-1.2-1.6-1.2h-1.3v-2.4h1.3c0.7,0,1.4-0.5,1.6-1.2c0.2-1,0.7-2,1.2-2.9
			c0.4-0.6,0.3-1.5-0.2-2l-0.9-0.9l1.7-1.7l0.9,0.9c0.5,0.5,1.3,0.6,2,0.2c0.9-0.5,1.9-1,2.9-1.2c0.7-0.2,1.2-0.8,1.2-1.6v-1.3h2.4
			v1.3c0,0.7,0.5,1.4,1.2,1.6c1,0.2,2,0.7,2.9,1.2c0.6,0.4,1.5,0.3,2-0.2l0.9-0.9l1.7,1.7l-0.9,0.9c-0.5,0.5-0.6,1.3-0.2,2
			c0.5,0.9,1,1.9,1.2,2.9c0.2,0.7,0.8,1.2,1.6,1.2h1.3L-245.8,287.5L-245.8,287.5z"/>
	</g>
</g>
<g>
	<g>
		<path class="st2" d="M-258.7,278.4c-4.3,0-7.9,3.5-7.9,7.9c0,4.3,3.5,7.9,7.9,7.9s7.9-3.5,7.9-7.9
			C-250.8,282-254.3,278.4-258.7,278.4z M-258.7,290.9c-2.6,0-4.6-2.1-4.6-4.6c0-2.6,2.1-4.6,4.6-4.6c2.6,0,4.6,2.1,4.6,4.6
			C-254,288.9-256.1,290.9-258.7,290.9z"/>
	</g>
</g>
<g>
	<g>
		<path class="st2" d="M-188.5,335.4h-0.9c-0.2-0.5-0.4-1-0.6-1.5l0.6-0.6c0.9-0.9,0.9-2.5,0-3.4l-2.8-2.8c-0.5-0.5-1.1-0.7-1.7-0.7
			c-0.6,0-1.3,0.3-1.7,0.7l-0.6,0.6c-0.5-0.2-1-0.4-1.5-0.6v-0.9c0-1.3-1.1-2.4-2.4-2.4h-4c-1.3,0-2.4,1.1-2.4,2.4v0.9
			c-0.5,0.2-1,0.4-1.5,0.6l-0.6-0.6c-0.5-0.5-1.1-0.7-1.7-0.7c-0.6,0-1.3,0.3-1.7,0.7l-2.8,2.8c-0.9,0.9-0.9,2.5,0,3.4l0.6,0.6
			c-0.2,0.5-0.4,1-0.6,1.5h-0.9c-1.3,0-2.4,1.1-2.4,2.4v4c0,1.3,1.1,2.4,2.4,2.4h0.9c0.2,0.5,0.4,1,0.6,1.5l-0.6,0.6
			c-0.9,0.9-0.9,2.5,0,3.4l2.8,2.8c0.5,0.5,1.1,0.7,1.7,0.7c0.6,0,1.3-0.3,1.7-0.7l0.6-0.6c0.5,0.2,1,0.4,1.5,0.6v0.9
			c0,1.3,1.1,2.4,2.4,2.4h4c1.3,0,2.4-1.1,2.4-2.4v-0.9c0.5-0.2,1-0.4,1.5-0.6l0.6,0.6c0.5,0.5,1.1,0.7,1.7,0.7
			c0.6,0,1.3-0.3,1.7-0.7l2.8-2.8c0.9-0.9,0.9-2.5,0-3.4l-0.6-0.6c0.2-0.5,0.4-1,0.6-1.5h0.9c1.3,0,2.4-1.1,2.4-2.4v-4
			C-186.1,336.5-187.2,335.4-188.5,335.4z M-189.3,341h-1.3c-0.7,0-1.4,0.5-1.6,1.2c-0.2,1-0.7,2-1.2,2.9c-0.4,0.6-0.3,1.5,0.2,2
			l0.9,0.9l-1.7,1.7l-0.9-0.9c-0.5-0.5-1.3-0.6-2-0.2c-0.9,0.5-1.9,1-2.9,1.2c-0.7,0.2-1.2,0.8-1.2,1.6v1.3h-2.4v-1.3
			c0-0.7-0.5-1.4-1.2-1.6c-1-0.2-2-0.7-2.9-1.2c-0.6-0.4-1.5-0.3-2,0.2l-0.9,0.9l-1.7-1.7l0.9-0.9c0.5-0.5,0.6-1.3,0.2-2
			c-0.5-0.9-1-1.9-1.2-2.9c-0.2-0.7-0.8-1.2-1.6-1.2h-1.3v-2.4h1.3c0.7,0,1.4-0.5,1.6-1.2c0.2-1,0.7-2,1.2-2.9
			c0.4-0.6,0.3-1.5-0.2-2l-0.9-0.9l1.7-1.7l0.9,0.9c0.5,0.5,1.3,0.6,2,0.2c0.9-0.5,1.9-1,2.9-1.2c0.7-0.2,1.2-0.8,1.2-1.6V327h2.4
			v1.3c0,0.7,0.5,1.4,1.2,1.6c1,0.2,2,0.7,2.9,1.2c0.6,0.4,1.5,0.3,2-0.2l0.9-0.9l1.7,1.7l-0.9,0.9c-0.5,0.5-0.6,1.3-0.2,2
			c0.5,0.9,1,1.9,1.2,2.9c0.2,0.7,0.8,1.2,1.6,1.2h1.3V341z"/>
	</g>
</g>
<g>
	<g>
		<path class="st2" d="M-202.2,331.9c-4.3,0-7.9,3.5-7.9,7.9s3.5,7.9,7.9,7.9c4.3,0,7.9-3.5,7.9-7.9S-197.8,331.9-202.2,331.9z
			 M-202.2,344.4c-2.6,0-4.6-2.1-4.6-4.6c0-2.6,2.1-4.6,4.6-4.6s4.6,2.1,4.6,4.6C-197.5,342.3-199.6,344.4-202.2,344.4z"/>
	</g>
</g>
</svg>
