<?xml version="1.0" encoding="utf-8"?>
<!-- Generator: Adobe Illustrator 19.0.0, SVG Export Plug-In . SVG Version: 6.00 Build 0)  -->
<svg version="1.1" id="Layer_1" xmlns="http://www.w3.org/2000/svg" xmlns:xlink="http://www.w3.org/1999/xlink" x="0px" y="0px"
	 viewBox="-351 186.4 256.4 188.6" style="enable-background:new -351 186.4 256.4 188.6;" xml:space="preserve">
<style type="text/css">
	.st0{opacity:0.19;fill:#9E8B8A;enable-background:new    ;}
	.st1{fill:#FFFFFF;}
	.st2{fill:#C7B299;}
</style>
<path id="XMLID_40_" class="st0" d="M-114.9,375h-215.8c-11.2,0-20.3-9.1-20.3-20.3v-148c0-11.2,9.1-20.3,20.3-20.3h215.8
	c11.2,0,20.3,9.1,20.3,20.3v148C-94.6,365.9-103.7,375-114.9,375z"/>
<g>
	<path class="st1" d="M-265.8,210.3l2.6,0.4v2.2c0,0.3-0.1,0.6-0.2,0.9c-0.1,0.3-0.3,0.5-0.5,0.8s-0.5,0.4-0.8,0.5
		c-0.3,0.1-0.6,0.2-0.9,0.2h-4.9c-0.3,0-0.6-0.1-0.9-0.2c-0.3-0.1-0.5-0.3-0.8-0.5c-0.2-0.2-0.4-0.5-0.5-0.8
		c-0.1-0.3-0.2-0.6-0.2-0.9v-9.8c0-0.3,0.1-0.6,0.2-0.9c0.1-0.3,0.3-0.5,0.5-0.8c0.2-0.2,0.5-0.4,0.8-0.5c0.3-0.1,0.6-0.2,0.9-0.2
		h4.9c0.3,0,0.6,0.1,0.9,0.2c0.3,0.1,0.5,0.3,0.8,0.5c0.2,0.2,0.4,0.5,0.5,0.8c0.1,0.3,0.2,0.6,0.2,0.9v2.1l-2.6,0.4v-1.9
		c0-0.2-0.1-0.3-0.2-0.4c-0.1-0.1-0.3-0.2-0.4-0.2h-3.3c-0.2,0-0.3,0.1-0.4,0.2c-0.1,0.1-0.2,0.2-0.2,0.4v8.6c0,0.2,0.1,0.3,0.2,0.4
		c0.1,0.1,0.3,0.2,0.4,0.2h3.3c0.2,0,0.3-0.1,0.4-0.2c0.1-0.1,0.2-0.2,0.2-0.4V210.3z"/>
	<path class="st1" d="M-258.8,215.2c-0.3-0.1-0.5-0.3-0.8-0.5c-0.2-0.2-0.4-0.5-0.5-0.8c-0.1-0.3-0.2-0.6-0.2-0.9v-9.8
		c0-0.3,0.1-0.6,0.2-0.9c0.1-0.3,0.3-0.5,0.5-0.8c0.2-0.2,0.5-0.4,0.8-0.5c0.3-0.1,0.6-0.2,0.9-0.2h5.1c0.3,0,0.6,0.1,0.9,0.2
		c0.3,0.1,0.5,0.3,0.8,0.5c0.2,0.2,0.4,0.5,0.5,0.8c0.1,0.3,0.2,0.6,0.2,0.9v9.8c0,0.3-0.1,0.6-0.2,0.9c-0.1,0.3-0.3,0.5-0.5,0.8
		s-0.5,0.4-0.8,0.5c-0.3,0.1-0.6,0.2-0.9,0.2h-5.1C-258.2,215.4-258.5,215.3-258.8,215.2z M-252.9,203.8c0-0.2-0.1-0.3-0.2-0.4
		c-0.1-0.1-0.3-0.2-0.4-0.2h-3.5c-0.2,0-0.3,0.1-0.4,0.2c-0.1,0.1-0.2,0.2-0.2,0.4v8.6c0,0.2,0.1,0.3,0.2,0.4
		c0.1,0.1,0.3,0.2,0.4,0.2h3.5c0.2,0,0.3-0.1,0.4-0.2c0.1-0.1,0.2-0.2,0.2-0.4V203.8z"/>
	<path class="st1" d="M-244.6,206.7v8.7h-2.5v-14.6h2.5l3.9,8.9l3.9-8.9h2.5v14.6h-2.5l0-8.7l-2.8,6.2h-2.2L-244.6,206.7z"/>
	<path class="st1" d="M-231,200.8h7.4c0.3,0,0.6,0.1,0.9,0.2c0.3,0.1,0.5,0.3,0.8,0.5c0.2,0.2,0.4,0.5,0.5,0.8
		c0.1,0.3,0.2,0.6,0.2,0.9v4.1c0,0.3-0.1,0.6-0.2,0.9c-0.1,0.3-0.3,0.5-0.5,0.8c-0.2,0.2-0.5,0.4-0.8,0.5c-0.3,0.1-0.6,0.2-0.9,0.2
		h-4.8v5.6h-2.6V200.8z M-223.8,203.8c0-0.2-0.1-0.3-0.2-0.4c-0.1-0.1-0.3-0.2-0.4-0.2h-4v4.1h4c0.2,0,0.3-0.1,0.4-0.2
		c0.1-0.1,0.2-0.2,0.2-0.4V203.8z"/>
	<path class="st1" d="M-211.9,200.8h2.6V213c0,0.3-0.1,0.6-0.2,0.9c-0.1,0.3-0.3,0.5-0.5,0.8s-0.5,0.4-0.8,0.5
		c-0.3,0.1-0.6,0.2-0.9,0.2h-4.9c-0.3,0-0.6-0.1-0.9-0.2c-0.3-0.1-0.5-0.3-0.8-0.5c-0.2-0.2-0.4-0.5-0.5-0.8
		c-0.1-0.3-0.2-0.6-0.2-0.9v-12.2h2.6v11.6c0,0.2,0.1,0.3,0.2,0.4c0.1,0.1,0.3,0.2,0.4,0.2h3.3c0.2,0,0.3-0.1,0.4-0.2
		c0.1-0.1,0.2-0.2,0.2-0.4V200.8z"/>
	<path class="st1" d="M-207.3,200.8h10.5v2.4h-4v12.2h-2.6v-12.2h-4V200.8z"/>
	<path class="st1" d="M-194.7,200.8h8.8v2.4h-6.2v3.6h5.7v2.4h-5.7v3.7h6.2v2.4h-8.8V200.8z"/>
	<path class="st1" d="M-177.6,209.8h-2.8v5.6h-2.6v-14.6h7.6c0.3,0,0.6,0.1,0.9,0.2c0.3,0.1,0.5,0.3,0.8,0.5
		c0.2,0.2,0.4,0.5,0.5,0.8c0.1,0.3,0.2,0.6,0.2,0.9v4.1c0,0.6-0.2,1.1-0.5,1.5c-0.3,0.4-0.8,0.7-1.3,0.8l2.8,5.7h-2.9L-177.6,209.8z
		 M-175.6,203.8c0-0.2-0.1-0.3-0.2-0.4c-0.1-0.1-0.3-0.2-0.4-0.2h-4.2v4.1h4.2c0.2,0,0.3-0.1,0.4-0.2c0.1-0.1,0.2-0.2,0.2-0.4V203.8
		z"/>
	<path class="st1" d="M-255.4,236c-0.4-0.1-0.8-0.2-1.1-0.3c-0.3-0.1-0.6-0.2-0.9-0.3c-0.3-0.1-0.6-0.2-0.9-0.3
		c-0.3-0.1-0.7-0.2-1.1-0.3c-0.3-0.1-0.6-0.2-0.9-0.4s-0.5-0.3-0.7-0.5c-0.2-0.2-0.4-0.4-0.5-0.7c-0.1-0.2-0.2-0.5-0.2-0.9v-3
		c0-0.3,0.1-0.6,0.2-0.9c0.1-0.3,0.3-0.5,0.5-0.8c0.2-0.2,0.5-0.4,0.8-0.5c0.3-0.1,0.6-0.2,0.9-0.2h4.6c0.3,0,0.6,0.1,0.9,0.2
		c0.3,0.1,0.5,0.3,0.8,0.5c0.2,0.2,0.4,0.5,0.5,0.8c0.1,0.3,0.2,0.6,0.2,0.9v1.7l-2.6,0.4v-1.6c0-0.2-0.1-0.3-0.2-0.4
		c-0.1-0.1-0.3-0.2-0.4-0.2h-3c-0.2,0-0.3,0.1-0.4,0.2c-0.1,0.1-0.2,0.2-0.2,0.4v1.8c0,0.2,0.1,0.3,0.2,0.4c0.1,0.1,0.3,0.2,0.4,0.2
		c0.6,0.2,1.3,0.4,1.9,0.5c0.6,0.2,1.3,0.4,2.1,0.6c0.6,0.2,1.2,0.4,1.6,0.8c0.4,0.4,0.7,0.9,0.7,1.6v3.3c0,0.3-0.1,0.6-0.2,0.9
		c-0.1,0.3-0.3,0.5-0.5,0.8c-0.2,0.2-0.5,0.4-0.8,0.5c-0.3,0.1-0.6,0.2-0.9,0.2h-4.7c-0.3,0-0.6-0.1-0.9-0.2
		c-0.3-0.1-0.5-0.3-0.8-0.5s-0.4-0.5-0.5-0.8c-0.1-0.3-0.2-0.6-0.2-0.9v-1.7l2.6-0.4v1.5c0,0.2,0.1,0.3,0.2,0.4
		c0.1,0.1,0.3,0.2,0.4,0.2h3.1c0.2,0,0.3-0.1,0.4-0.2c0.1-0.1,0.2-0.2,0.2-0.4v-2.1c0-0.2-0.1-0.3-0.2-0.4S-255.2,236-255.4,236z"/>
	<path class="st1" d="M-242.2,236.6l2.6,0.4v2.2c0,0.3-0.1,0.6-0.2,0.9c-0.1,0.3-0.3,0.5-0.5,0.8s-0.5,0.4-0.8,0.5
		c-0.3,0.1-0.6,0.2-0.9,0.2h-4.9c-0.3,0-0.6-0.1-0.9-0.2c-0.3-0.1-0.5-0.3-0.8-0.5c-0.2-0.2-0.4-0.5-0.5-0.8
		c-0.1-0.3-0.2-0.6-0.2-0.9v-9.8c0-0.3,0.1-0.6,0.2-0.9c0.1-0.3,0.3-0.5,0.5-0.8c0.2-0.2,0.5-0.4,0.8-0.5c0.3-0.1,0.6-0.2,0.9-0.2
		h4.9c0.3,0,0.6,0.1,0.9,0.2c0.3,0.1,0.5,0.3,0.8,0.5c0.2,0.2,0.4,0.5,0.5,0.8c0.1,0.3,0.2,0.6,0.2,0.9v2.1l-2.6,0.4v-1.9
		c0-0.2-0.1-0.3-0.2-0.4c-0.1-0.1-0.3-0.2-0.4-0.2h-3.3c-0.2,0-0.3,0.1-0.4,0.2c-0.1,0.1-0.2,0.2-0.2,0.4v8.6c0,0.2,0.1,0.3,0.2,0.4
		c0.1,0.1,0.3,0.2,0.4,0.2h3.3c0.2,0,0.3-0.1,0.4-0.2c0.1-0.1,0.2-0.2,0.2-0.4V236.6z"/>
	<path class="st1" d="M-233.9,241.6h-2.6v-14.6h2.6V241.6z"/>
	<path class="st1" d="M-230.6,227.1h8.8v2.4h-6.2v3.6h5.7v2.4h-5.7v3.7h6.2v2.4h-8.8V227.1z"/>
	<path class="st1" d="M-208.4,241.6h-2.5l-5.6-9.4v9.4h-2.5v-14.6h2.5l5.6,9.5v-9.5h2.5V241.6z"/>
	<path class="st1" d="M-198.1,236.6l2.6,0.4v2.2c0,0.3-0.1,0.6-0.2,0.9c-0.1,0.3-0.3,0.5-0.5,0.8s-0.5,0.4-0.8,0.5
		c-0.3,0.1-0.6,0.2-0.9,0.2h-4.9c-0.3,0-0.6-0.1-0.9-0.2c-0.3-0.1-0.5-0.3-0.8-0.5c-0.2-0.2-0.4-0.5-0.5-0.8
		c-0.1-0.3-0.2-0.6-0.2-0.9v-9.8c0-0.3,0.1-0.6,0.2-0.9c0.1-0.3,0.3-0.5,0.5-0.8c0.2-0.2,0.5-0.4,0.8-0.5c0.3-0.1,0.6-0.2,0.9-0.2
		h4.9c0.3,0,0.6,0.1,0.9,0.2c0.3,0.1,0.5,0.3,0.8,0.5c0.2,0.2,0.4,0.5,0.5,0.8c0.1,0.3,0.2,0.6,0.2,0.9v2.1l-2.6,0.4v-1.9
		c0-0.2-0.1-0.3-0.2-0.4c-0.1-0.1-0.3-0.2-0.4-0.2h-3.3c-0.2,0-0.3,0.1-0.4,0.2c-0.1,0.1-0.2,0.2-0.2,0.4v8.6c0,0.2,0.1,0.3,0.2,0.4
		c0.1,0.1,0.3,0.2,0.4,0.2h3.3c0.2,0,0.3-0.1,0.4-0.2c0.1-0.1,0.2-0.2,0.2-0.4V236.6z"/>
	<path class="st1" d="M-192.4,227.1h8.8v2.4h-6.2v3.6h5.7v2.4h-5.7v3.7h6.2v2.4h-8.8V227.1z"/>
</g>
<g>
	<g>
		<g>
			<path class="st2" d="M-254,310L-254,310c-1.3,0-2.3,1-2.3,2.3c0,1.3,1,2.3,2.3,2.3h0c1.3,0,2.3-1,2.3-2.3
				C-251.7,311-252.7,310-254,310z"/>
		</g>
	</g>
	<g>
		<g>
			<path class="st2" d="M-174.7,246.7h-96.3c-5.8,0-10.5,4.7-10.5,10.5v55c0,5.8,4.7,10.5,10.5,10.5h36.1l-1.8,17.2h-5
				c-4.4,0-8,3.6-8,8v4.1c0,1.3,1,2.3,2.3,2.3h49.2c1.3,0,2.3-1,2.3-2.3v-4.1c0-4.4-3.6-8-8-8h-5l-1.8-17.2h36.1
				c5.8,0,10.5-4.7,10.5-10.5v-55C-164.1,251.4-168.8,246.7-174.7,246.7z M-270.9,251.3h96.3c2.3,0,4.3,1.3,5.3,3.2h-106.9
				C-275.3,252.6-273.3,251.3-270.9,251.3z M-204,344.6c1.9,0,3.5,1.6,3.5,3.5v1.8h-44.6v-1.8c0-1.9,1.6-3.5,3.5-3.5h7.1h23.5H-204z
				 M-232,340l1.8-17.2h14.9l1.8,17.2H-232z M-168.7,310h-77.9c-1.3,0-2.3,1-2.3,2.3c0,1.3,1,2.3,2.3,2.3h77.4
				c-0.9,2.2-3,3.7-5.5,3.7h-38.6h-19.1h-38.6c-2.5,0-4.6-1.5-5.5-3.7h15.2c1.3,0,2.3-1,2.3-2.3c0-1.3-1-2.3-2.3-2.3h-15.7v-50.9
				h108.2V310z"/>
		</g>
	</g>
	<g>
		<g>
			<path class="st2" d="M-232.9,264.7c-3.4,0-6.2,2.8-6.2,6.2c0,0.9,0.2,1.7,0.5,2.5l-4.1,4.1c-1.1-0.6-2.3-0.9-3.6-0.9
				c-3,0-5.6,1.7-6.9,4.2l-3.6-0.6c-0.6-2.8-3.1-5-6.1-5c-3.4,0-6.2,2.8-6.2,6.2c0,3.4,2.8,6.2,6.2,6.2c2.2,0,4.2-1.2,5.2-2.9
				l3.6,0.6c0.4,3.6,3.3,6.5,7,6.8l0.7,3.7c-1.6,1.1-2.7,3-2.7,5.1c0,3.4,2.8,6.2,6.2,6.2c3.4,0,6.2-2.8,6.2-6.2
				c0-3.1-2.3-5.7-5.2-6.1l-0.7-3.6c2.4-1.3,4.1-3.9,4.1-6.9c0-1.3-0.3-2.6-0.9-3.6l4.1-4.1c0.7,0.3,1.6,0.5,2.4,0.5
				c3.4,0,6.2-2.8,6.2-6.2C-226.7,267.4-229.5,264.7-232.9,264.7z M-262.9,282.9c-0.9,0-1.6-0.7-1.6-1.6s0.7-1.6,1.6-1.6
				s1.6,0.7,1.6,1.6S-262,282.9-262.9,282.9z M-249.6,284.3c0-1.8,1.4-3.2,3.2-3.2s3.2,1.4,3.2,3.2s-1.4,3.2-3.2,3.2
				S-249.6,286.1-249.6,284.3z M-241.3,300.9c0,0.9-0.7,1.6-1.6,1.6s-1.6-0.7-1.6-1.6s0.7-1.6,1.6-1.6S-241.3,300-241.3,300.9z
				 M-232.9,272.5c-0.9,0-1.6-0.7-1.6-1.6s0.7-1.6,1.6-1.6s1.6,0.7,1.6,1.6S-232,272.5-232.9,272.5z"/>
		</g>
	</g>
	<g>
		<g>
			<path class="st2" d="M-181.5,268.3h-33.8c-1.3,0-2.3,1-2.3,2.3c0,1.3,1,2.3,2.3,2.3h33.8c1.3,0,2.3-1,2.3-2.3
				C-179.2,269.3-180.2,268.3-181.5,268.3z"/>
		</g>
	</g>
	<g>
		<g>
			<path class="st2" d="M-181.5,277.9h-33.8c-1.3,0-2.3,1-2.3,2.3s1,2.3,2.3,2.3h33.8c1.3,0,2.3-1,2.3-2.3S-180.2,277.9-181.5,277.9
				z"/>
		</g>
	</g>
	<g>
		<g>
			<path class="st2" d="M-181.5,287.6h-33.8c-1.3,0-2.3,1-2.3,2.3c0,1.3,1,2.3,2.3,2.3h33.8c1.3,0,2.3-1,2.3-2.3
				C-179.2,288.6-180.2,287.6-181.5,287.6z"/>
		</g>
	</g>
	<g>
		<g>
			<path class="st2" d="M-181.4,297.3L-181.4,297.3c-1.3,0-2.3,1-2.3,2.3s1,2.3,2.3,2.3h0c1.3,0,2.3-1,2.3-2.3
				S-180.2,297.3-181.4,297.3z"/>
		</g>
	</g>
	<g>
		<g>
			<path class="st2" d="M-189.2,297.3h-26c-1.3,0-2.3,1-2.3,2.3s1,2.3,2.3,2.3h26c1.3,0,2.3-1,2.3-2.3S-188,297.3-189.2,297.3z"/>
		</g>
	</g>
</g>
</svg>
