<?xml version="1.0" encoding="utf-8"?>
<!-- Generator: Adobe Illustrator 19.0.0, SVG Export Plug-In . SVG Version: 6.00 Build 0)  -->
<svg version="1.1" id="Layer_1" xmlns="http://www.w3.org/2000/svg" xmlns:xlink="http://www.w3.org/1999/xlink" x="0px" y="0px"
	 viewBox="-351 186.4 256.4 188.6" style="enable-background:new -351 186.4 256.4 188.6;" xml:space="preserve">
<style type="text/css">
	.st0{opacity:0.19;fill:#9E8B8A;enable-background:new    ;}
	.st1{fill:#FFFFFF;}
	.st2{fill:#C7B299;}
</style>
<path id="XMLID_40_" class="st0" d="M-114.9,375h-215.8c-11.2,0-20.3-9.1-20.3-20.3v-148c0-11.2,9.1-20.3,20.3-20.3h215.8
	c11.2,0,20.3,9.1,20.3,20.3v148C-94.6,365.9-103.7,375-114.9,375z"/>
<g>
	<path class="st1" d="M-278.3,200.8h8.8v2.4h-6.2v3.6h5.7v2.4h-5.7v3.7h6.2v2.4h-8.8V200.8z"/>
	<path class="st1" d="M-266.6,200.8h2.6V213h5.9v2.4h-8.6V200.8z"/>
	<path class="st1" d="M-255.6,200.8h8.8v2.4h-6.2v3.6h5.7v2.4h-5.7v3.7h6.2v2.4h-8.8V200.8z"/>
	<path class="st1" d="M-237,210.3l2.6,0.4v2.2c0,0.3-0.1,0.6-0.2,0.9c-0.1,0.3-0.3,0.5-0.5,0.8s-0.5,0.4-0.8,0.5
		c-0.3,0.1-0.6,0.2-0.9,0.2h-4.9c-0.3,0-0.6-0.1-0.9-0.2c-0.3-0.1-0.5-0.3-0.8-0.5c-0.2-0.2-0.4-0.5-0.5-0.8
		c-0.1-0.3-0.2-0.6-0.2-0.9v-9.8c0-0.3,0.1-0.6,0.2-0.9c0.1-0.3,0.3-0.5,0.5-0.8c0.2-0.2,0.5-0.4,0.8-0.5c0.3-0.1,0.6-0.2,0.9-0.2
		h4.9c0.3,0,0.6,0.1,0.9,0.2c0.3,0.1,0.5,0.3,0.8,0.5c0.2,0.2,0.4,0.5,0.5,0.8c0.1,0.3,0.2,0.6,0.2,0.9v2.1l-2.6,0.4v-1.9
		c0-0.2-0.1-0.3-0.2-0.4c-0.1-0.1-0.3-0.2-0.4-0.2h-3.3c-0.2,0-0.3,0.1-0.4,0.2c-0.1,0.1-0.2,0.2-0.2,0.4v8.6c0,0.2,0.1,0.3,0.2,0.4
		c0.1,0.1,0.3,0.2,0.4,0.2h3.3c0.2,0,0.3-0.1,0.4-0.2c0.1-0.1,0.2-0.2,0.2-0.4V210.3z"/>
	<path class="st1" d="M-232.7,200.8h10.5v2.4h-4v12.2h-2.6v-12.2h-4V200.8z"/>
	<path class="st1" d="M-214.7,209.8h-2.8v5.6h-2.6v-14.6h7.6c0.3,0,0.6,0.1,0.9,0.2c0.3,0.1,0.5,0.3,0.8,0.5
		c0.2,0.2,0.4,0.5,0.5,0.8c0.1,0.3,0.2,0.6,0.2,0.9v4.1c0,0.6-0.2,1.1-0.5,1.5c-0.3,0.4-0.8,0.7-1.3,0.8l2.8,5.7h-2.9L-214.7,209.8z
		 M-212.7,203.8c0-0.2-0.1-0.3-0.2-0.4c-0.1-0.1-0.3-0.2-0.4-0.2h-4.2v4.1h4.2c0.2,0,0.3-0.1,0.4-0.2c0.1-0.1,0.2-0.2,0.2-0.4V203.8
		z"/>
	<path class="st1" d="M-204,215.4h-2.6v-14.6h2.6V215.4z"/>
	<path class="st1" d="M-193.8,210.3l2.6,0.4v2.2c0,0.3-0.1,0.6-0.2,0.9c-0.1,0.3-0.3,0.5-0.5,0.8s-0.5,0.4-0.8,0.5
		c-0.3,0.1-0.6,0.2-0.9,0.2h-4.9c-0.3,0-0.6-0.1-0.9-0.2c-0.3-0.1-0.5-0.3-0.8-0.5c-0.2-0.2-0.4-0.5-0.5-0.8
		c-0.1-0.3-0.2-0.6-0.2-0.9v-9.8c0-0.3,0.1-0.6,0.2-0.9c0.1-0.3,0.3-0.5,0.5-0.8c0.2-0.2,0.5-0.4,0.8-0.5c0.3-0.1,0.6-0.2,0.9-0.2
		h4.9c0.3,0,0.6,0.1,0.9,0.2c0.3,0.1,0.5,0.3,0.8,0.5c0.2,0.2,0.4,0.5,0.5,0.8c0.1,0.3,0.2,0.6,0.2,0.9v2.1l-2.6,0.4v-1.9
		c0-0.2-0.1-0.3-0.2-0.4c-0.1-0.1-0.3-0.2-0.4-0.2h-3.3c-0.2,0-0.3,0.1-0.4,0.2c-0.1,0.1-0.2,0.2-0.2,0.4v8.6c0,0.2,0.1,0.3,0.2,0.4
		c0.1,0.1,0.3,0.2,0.4,0.2h3.3c0.2,0,0.3-0.1,0.4-0.2c0.1-0.1,0.2-0.2,0.2-0.4V210.3z"/>
	<path class="st1" d="M-177.1,215.4h-2.6l-1-3.2h-4.9l-1,3.2h-2.6l4.9-14.6h2.4L-177.1,215.4z M-184.9,209.9h3.4l-1.7-5.6
		L-184.9,209.9z"/>
	<path class="st1" d="M-175,200.8h2.6V213h5.9v2.4h-8.6V200.8z"/>
</g>
<g>
	<g>
		<g>
			<path class="st2" d="M-231,305.9c0.1,0,0.2,0,0.3,0l16.5-3.3c0.9-0.2,1.5-1,1.3-1.9c-0.2-0.9-1-1.5-1.9-1.3l-6.3,1.3v-6.2
				c0-0.9-0.7-1.6-1.6-1.6c-0.9,0-1.6,0.7-1.6,1.6v6.9l-6.9,1.4c-0.9,0.2-1.5,1-1.3,1.9C-232.5,305.3-231.8,305.9-231,305.9z"/>
			<path class="st2" d="M-231,319.1c0.1,0,0.2,0,0.3,0l16.5-3.3c0.9-0.2,1.5-1,1.3-1.9c-0.2-0.9-1-1.5-1.9-1.3l-16.5,3.3
				c-0.9,0.2-1.5,1-1.3,1.9C-232.5,318.5-231.8,319.1-231,319.1z"/>
			<path class="st2" d="M-222.8,289.4c5.5,0,9.9-4.4,9.9-9.9s-4.4-9.9-9.9-9.9s-9.9,4.4-9.9,9.9C-232.7,285-228.3,289.4-222.8,289.4
				z M-222.8,272.9c3.6,0,6.6,3,6.6,6.6c0,3.6-3,6.6-6.6,6.6c-3.6,0-6.6-3-6.6-6.6C-229.4,275.9-226.4,272.9-222.8,272.9z"/>
			<path class="st2" d="M-225.5,259.6l4.9-2l-2.2,6.5c-0.3,0.9,0.2,1.8,1,2.1c0.2,0.1,0.3,0.1,0.5,0.1c0.7,0,1.3-0.4,1.6-1.1
				l3.3-9.9c0.2-0.6,0-1.3-0.4-1.7c-0.5-0.4-1.2-0.6-1.7-0.3l-4.9,2l2.2-6.5c0.3-0.9-0.2-1.8-1-2.1c-0.9-0.3-1.8,0.2-2.1,1l-3.3,9.9
				c-0.2,0.6,0,1.3,0.4,1.7C-226.8,259.7-226.1,259.9-225.5,259.6z"/>
			<path class="st2" d="M-231,312.5c0.1,0,0.2,0,0.3,0l16.5-3.3c0.9-0.2,1.5-1,1.3-1.9c-0.2-0.9-1-1.5-1.9-1.3l-16.5,3.3
				c-0.9,0.2-1.5,1-1.3,1.9C-232.5,311.9-231.8,312.5-231,312.5z"/>
			<path class="st2" d="M-186.9,250.4c-0.6-0.7-1.6-0.8-2.3-0.2l-11.5,9.9c-0.5,0.4-0.7,1.2-0.5,1.8c0.2,0.6,0.9,1.1,1.5,1.1h3.5
				l-12.8,10.2c-0.7,0.6-0.8,1.6-0.3,2.3c0.3,0.4,0.8,0.6,1.3,0.6c0.4,0,0.7-0.1,1-0.4l16.5-13.2c0.5-0.4,0.8-1.2,0.5-1.8
				c-0.2-0.7-0.9-1.1-1.6-1.1h-3.8l8.2-7C-186.4,252.2-186.4,251.1-186.9,250.4z"/>
			<path class="st2" d="M-204.7,335.5h-16.5c0-0.9-0.7-1.6-1.6-1.6c-0.9,0-1.6,0.7-1.6,1.6h-16.5c-2.8,0-4.9,2.2-4.9,4.9v3.3
				c0,0.9,0.7,1.6,1.6,1.6c0.9,0,1.6-0.7,1.6-1.6v-3.3c0-0.8,0.6-1.6,1.6-1.6h36.2c1,0,1.6,0.7,1.6,1.6v3.3c0,0.9,0.7,1.6,1.6,1.6
				s1.6-0.7,1.6-1.6v-3.3C-199.7,337.7-201.9,335.5-204.7,335.5z"/>
			<path class="st2" d="M-231,325.6c0.1,0,0.2,0,0.3,0l16.5-3.3c0.9-0.2,1.5-1,1.3-1.9c-0.2-0.9-1-1.5-1.9-1.3l-16.5,3.3
				c-0.9,0.2-1.5,1-1.3,1.9C-232.5,325.1-231.8,325.6-231,325.6z"/>
			<path class="st2" d="M-231,332.2c0.1,0,0.2,0,0.3,0l16.5-3.3c0.9-0.2,1.5-1,1.3-1.9c-0.2-0.9-1-1.5-1.9-1.3l-16.5,3.3
				c-0.9,0.2-1.5,1-1.3,1.9C-232.5,331.7-231.8,332.2-231,332.2z"/>
			<path class="st2" d="M-245.9,259.1l10.3,11.6c0.6,0.7,1.6,0.7,2.3,0.1c0.7-0.6,0.7-1.6,0.1-2.3l-13.2-14.8
				c-0.5-0.5-1.2-0.7-1.8-0.4c-0.6,0.2-1.1,0.9-1.1,1.5v12.5l-7.1-7.1c-0.6-0.6-1.7-0.6-2.3,0c-0.6,0.6-0.6,1.7,0,2.3l9.9,9.9
				c0.3,0.3,0.7,0.5,1.2,0.5c0.2,0,0.4,0,0.6-0.1c0.6-0.3,1-0.9,1-1.5V259.1z"/>
		</g>
	</g>
</g>
</svg>
