<?xml version="1.0" encoding="utf-8"?>
<!-- Generator: Adobe Illustrator 19.0.0, SVG Export Plug-In . SVG Version: 6.00 Build 0)  -->
<svg version="1.1" id="Layer_1" xmlns="http://www.w3.org/2000/svg" xmlns:xlink="http://www.w3.org/1999/xlink" x="0px" y="0px"
	 viewBox="-351 186.4 256.4 188.6" style="enable-background:new -351 186.4 256.4 188.6;" xml:space="preserve">
<style type="text/css">
	.st0{opacity:0.19;fill:#9E8B8A;enable-background:new    ;}
	.st1{enable-background:new    ;}
	.st2{fill:#FFFFFF;}
	.st3{fill:#C7B299;}
</style>
<path id="XMLID_40_" class="st0" d="M-114.9,375h-215.8c-11.2,0-20.3-9.1-20.3-20.3v-148c0-11.2,9.1-20.3,20.3-20.3h215.8
	c11.2,0,20.3,9.1,20.3,20.3v148C-94.6,365.9-103.7,375-114.9,375z"/>
<g class="st1">
	<path class="st2" d="M-267,217.4v-13.8h8.4v2.3h-6v3.4h5.5v2.3h-5.5v5.8H-267z"/>
	<path class="st2" d="M-255.4,217.2c-0.3-0.1-0.5-0.3-0.7-0.5c-0.2-0.2-0.4-0.4-0.5-0.7c-0.1-0.3-0.2-0.6-0.2-0.9v-9.2
		c0-0.3,0.1-0.6,0.2-0.9c0.1-0.3,0.3-0.5,0.5-0.7c0.2-0.2,0.4-0.4,0.7-0.5c0.3-0.1,0.6-0.2,0.9-0.2h4.9c0.3,0,0.6,0.1,0.9,0.2
		c0.3,0.1,0.5,0.3,0.7,0.5c0.2,0.2,0.4,0.4,0.5,0.7c0.1,0.3,0.2,0.6,0.2,0.9v9.2c0,0.3-0.1,0.6-0.2,0.9c-0.1,0.3-0.3,0.5-0.5,0.7
		c-0.2,0.2-0.4,0.4-0.7,0.5c-0.3,0.1-0.6,0.2-0.9,0.2h-4.9C-254.8,217.4-255.1,217.3-255.4,217.2z M-249.9,206.5
		c0-0.2-0.1-0.3-0.2-0.4c-0.1-0.1-0.2-0.2-0.4-0.2h-3.3c-0.2,0-0.3,0.1-0.4,0.2c-0.1,0.1-0.2,0.2-0.2,0.4v8.1c0,0.2,0.1,0.3,0.2,0.4
		c0.1,0.1,0.2,0.2,0.4,0.2h3.3c0.2,0,0.3-0.1,0.4-0.2c0.1-0.1,0.2-0.2,0.2-0.4V206.5z"/>
	<path class="st2" d="M-237.8,203.6h2.5v11.5c0,0.3-0.1,0.6-0.2,0.9c-0.1,0.3-0.3,0.5-0.5,0.7c-0.2,0.2-0.4,0.4-0.7,0.5
		c-0.3,0.1-0.6,0.2-0.9,0.2h-4.6c-0.3,0-0.6-0.1-0.9-0.2c-0.3-0.1-0.5-0.3-0.7-0.5c-0.2-0.2-0.4-0.4-0.5-0.7
		c-0.1-0.3-0.2-0.6-0.2-0.9v-11.5h2.5v10.9c0,0.2,0.1,0.3,0.2,0.4c0.1,0.1,0.2,0.2,0.4,0.2h3.1c0.2,0,0.3-0.1,0.4-0.2
		c0.1-0.1,0.2-0.2,0.2-0.4V203.6z"/>
	<path class="st2" d="M-222.3,217.4h-2.4l-5.2-8.9v8.9h-2.4v-13.8h2.4l5.2,8.9v-8.9h2.4V217.4z"/>
	<path class="st2" d="M-219.2,203.6h6.7c0.3,0,0.6,0.1,0.9,0.2c0.3,0.1,0.5,0.3,0.7,0.5c0.2,0.2,0.4,0.4,0.5,0.7
		c0.1,0.3,0.2,0.6,0.2,0.9v9.2c0,0.3-0.1,0.6-0.2,0.9c-0.1,0.3-0.3,0.5-0.5,0.7c-0.2,0.2-0.4,0.4-0.7,0.5c-0.3,0.1-0.6,0.2-0.9,0.2
		h-6.7V203.6z M-212.7,206.5c0-0.2-0.1-0.3-0.2-0.4c-0.1-0.1-0.2-0.2-0.4-0.2h-3.5v9.2h3.5c0.2,0,0.3-0.1,0.4-0.2
		c0.1-0.1,0.2-0.2,0.2-0.4V206.5z"/>
	<path class="st2" d="M-208,212.5v-2.1h5.1v2.1H-208z"/>
	<path class="st2" d="M-190.8,217.4h-2.5l-1-3h-4.6l-0.9,3h-2.5l4.6-13.8h2.3L-190.8,217.4z M-198.2,212.2h3.2l-1.6-5.2
		L-198.2,212.2z"/>
	<path class="st2" d="M-183.8,212.1h-2.6v5.3h-2.5v-13.8h7.2c0.3,0,0.6,0.1,0.9,0.2c0.3,0.1,0.5,0.3,0.7,0.5
		c0.2,0.2,0.4,0.4,0.5,0.7s0.2,0.6,0.2,0.9v3.9c0,0.5-0.2,1-0.5,1.4s-0.7,0.7-1.2,0.8l2.6,5.4h-2.7L-183.8,212.1z M-181.9,206.5
		c0-0.2-0.1-0.3-0.2-0.4s-0.2-0.2-0.4-0.2h-4v3.9h4c0.2,0,0.3-0.1,0.4-0.2c0.1-0.1,0.2-0.2,0.2-0.4V206.5z"/>
</g>
<g>
	<g>
		<g>
			<path class="st3" d="M-209.3,273.8c0-0.1-0.1-0.2-0.1-0.4c0-0.1-0.1-0.2-0.2-0.3c-0.1-0.1-0.2-0.2-0.2-0.3
				c-0.1-0.1-0.2-0.2-0.3-0.2c-0.1-0.1-0.2-0.1-0.3-0.2c-0.1,0-0.2-0.1-0.4-0.1s-0.5,0-0.7,0c-0.1,0-0.2,0.1-0.4,0.1
				c-0.1,0-0.2,0.1-0.3,0.2s-0.2,0.1-0.3,0.2s-0.2,0.2-0.2,0.3c-0.1,0.1-0.1,0.2-0.2,0.3c0,0.1-0.1,0.2-0.1,0.4c0,0.1,0,0.2,0,0.4
				c0,0.5,0.2,1,0.6,1.3c0.1,0.1,0.2,0.2,0.3,0.2c0.1,0.1,0.2,0.1,0.3,0.2c0.1,0,0.2,0.1,0.4,0.1c0.1,0,0.2,0,0.4,0
				c0.5,0,1-0.2,1.3-0.6c0.4-0.4,0.6-0.8,0.6-1.3C-209.3,274-209.3,273.9-209.3,273.8z"/>
		</g>
	</g>
	<g>
		<g>
			<path class="st3" d="M-184.5,285.9c-0.6-0.2-1.2-0.2-1.8,0.2c-0.5,0.4-0.8,0.9-0.8,1.6v15c-2.3,0.8-5,1.6-8,2.3
				c-1.3-5.2-6-9.1-11.6-9.1h-8.8l-0.5-1.7c5.3-2.2,9.2-6.9,10.5-12.5h2.5c1.1,0,1.9-0.9,1.9-1.9v-11.1c0-0.2,0-0.3-0.1-0.5
				c0.6-2.9,0.7-5.9,0.4-8.9c-0.5-4.7-1.6-10.5-5.9-13.5c-2.7-1.9-6.4-2.3-10.9-1.1c-0.9,0.1-8.2,1.2-15.1,1.5c-0.1,0-0.3,0-0.4,0
				c-3.8,0.3-7.2,2.7-9.6,6.8c-2.6,4.5-3.1,9.8-1.7,14.8c-0.2,0.3-0.3,0.6-0.3,0.9v11.1c0,1.1,0.9,1.9,1.9,1.9h2.5
				c1.2,5.6,5.2,10.3,10.5,12.5l-0.5,1.7h-8.8c-5.6,0-10.3,3.8-11.6,9.1c-3-0.7-5.7-1.4-8-2.3v-15c0-0.6-0.3-1.2-0.8-1.6
				s-1.2-0.4-1.8-0.2c-7,2.7-10.5,6.1-10.5,9.9V326c0,4.6,5.2,8.6,15.1,11.5c9,2.6,21,4.1,33.7,4.1s24.7-1.4,33.7-4.1
				c9.9-2.9,15.1-6.9,15.1-11.5v-30.2C-174,291.9-177.5,288.6-184.5,285.9z M-204.9,277.8h-26v-1.7h13.5c1.1,0,1.9-0.9,1.9-1.9
				c0-1.1-0.9-1.9-1.9-1.9h-13.5v-1.7h26V277.8L-204.9,277.8z M-208.9,266.7h-27.8v-1.3h14.8c0.4,0,0.9-0.2,1.2-0.4l3.9-3.2l4.4,3.2
				c0.3,0.2,0.7,0.4,1.1,0.4h2.4L-208.9,266.7L-208.9,266.7z M-239.2,254.8c1-1.7,3.2-4.7,6.5-4.9c0.1,0,0.2,0,0.3,0
				c7.5-0.3,15.3-1.5,15.6-1.5c0.1,0,0.1,0,0.2,0c3.4-0.9,6-0.7,7.8,0.6c2.3,1.6,3.6,5,4.2,10.7c0.3,2.4,0.2,4.8-0.2,7.1h-0.3v-3.2
				c0-1.1-0.9-1.9-1.9-1.9h-3.7l-5.1-3.8c-0.7-0.5-1.7-0.5-2.4,0.1l-4.5,3.7h-16c-1.1,0-1.9,0.9-1.9,1.9v3.2h-0.1
				C-241.7,262.6-241.3,258.4-239.2,254.8z M-240.7,277.8v-7.3h5.9v7.3H-240.7z M-236.1,281.6h26.7c-1.3,4.5-4.8,8.1-9.4,9.4
				c-1,0.3-1.6,1.4-1.3,2.4l1.4,4.8l0,0l0.3,1l-4.3,2.6l-4.3-2.6l0.3-1l0,0l1.4-4.8c0.3-1-0.3-2.1-1.3-2.4
				C-231.3,289.7-234.8,286.1-236.1,281.6z M-238.9,299.6h7.7l0,0c-0.2,0.8,0.1,1.7,0.8,2.2l6.6,4c0.3,0.2,0.6,0.3,1,0.3
				s0.7-0.1,1-0.3l6.6-4c0.7-0.4,1.1-1.3,0.8-2.2l0,0h7.7c3.7,0,6.9,2.5,7.9,6c-6.3,1.1-13.4,1.8-20.8,1.9l0,0c-0.5,0-0.9,0-1.4,0
				c-0.1,0-0.2,0-0.3,0c-0.5,0-1,0-1.5,0s-1,0-1.5,0c-0.1,0-0.2,0-0.3,0c-0.5,0-0.9,0-1.4,0l0,0c-7.4-0.1-14.5-0.8-20.8-1.9
				C-245.8,302.1-242.6,299.6-238.9,299.6z M-209.4,330.5L-209.4,330.5c-0.6,0.1-1.1,0.1-1.6,0.1c-0.1,0-0.2,0-0.3,0
				c-0.4,0-0.8,0.1-1.2,0.1c-0.2,0-0.4,0-0.6,0c-0.3,0-0.7,0-1,0.1c-0.2,0-0.4,0-0.6,0c-0.4,0-0.7,0-1.1,0.1c-0.2,0-0.4,0-0.6,0
				c-0.4,0-0.8,0-1.1,0c-0.2,0-0.4,0-0.5,0c-0.4,0-0.8,0-1.2,0c-0.1,0-0.3,0-0.4,0c-0.5,0-0.9,0-1.4,0c-0.1,0-0.1,0-0.2,0
				c-0.5,0-1,0-1.6,0c-0.7,0-1.3,0-2,0l0,0c-4.6-0.1-9.2-0.3-13.4-0.8l1.2-1.5l3-3.8l3.5,1.9c0.1,0,0.2,0.1,0.2,0.1h0.1
				c0.1,0,0.1,0,0.2,0h0.1c0.1,0,0.1,0,0.2,0h0.1c0,0,0,0,0.1,0h0.1l0,0c0.1,0,0.2,0,0.2,0l0,0c0.1,0,0.1,0,0.2-0.1l0,0
				c0.1,0,0.1-0.1,0.2-0.1l0,0c0.1,0,0.1-0.1,0.2-0.1l1.7-1.2l1.7-1.2l3.4,2.5c0.3,0.2,0.6,0.3,1,0.4c0.4,0,0.9-0.1,1.3-0.4l3.5-2.6
				l2.4,1.3L-209.4,330.5z M-211.4,322l4.9-4.8l11.2,11.1c-0.1,0-0.2,0.1-0.3,0.1c-1.9,0.4-5,1-9.3,1.6L-211.4,322z M-242.7,329.7
				c-0.3,0-0.6-0.1-0.9-0.1l0,0c-0.3,0-0.6-0.1-0.8-0.1l0,0c-0.3,0-0.5-0.1-0.8-0.1c0,0,0,0-0.1,0c-0.3,0-0.5-0.1-0.8-0.1
				c0,0,0,0-0.1,0c-0.6-0.1-1.1-0.2-1.7-0.3l0,0c-0.2-0.1-0.5-0.1-0.7-0.2c-0.1,0-0.2,0-0.3-0.1c-0.2,0-0.3-0.1-0.5-0.1h-0.1
				l10.3-8.9l2.7,2.3L-242.7,329.7z M-220.6,322.8l-3.4-2.5c-0.4-0.3-0.9-0.4-1.4-0.3c-0.3,0-0.6,0.2-0.8,0.3l-3.5,2.6l-1.8-1
				l7.6-9.4l6.5,8L-220.6,322.8z M-262.3,290.5V301c-1-0.5-1.9-1-2.6-1.5c-1.5-1-2.4-2.1-2.7-3.1l0,0c0-0.1,0-0.2-0.1-0.2v-0.1
				c0,0,0,0,0-0.1s0-0.1,0-0.2C-267.8,294.1-265.8,292.3-262.3,290.5z M-177.8,326c0,4.9-17.1,11.7-45,11.7s-45-6.8-45-11.7v-23.8
				c1.1,0.8,2.4,1.6,4,2.4h0.1c0.2,0.1,0.3,0.2,0.5,0.2c0.1,0,0.2,0.1,0.2,0.1c0.1,0,0.1,0,0.2,0.1c0.5,0.2,1.1,0.5,1.7,0.7l0,0l0,0
				c1.4,0.5,2.9,1.1,4.6,1.6c7.7,2.3,17.6,3.6,28.3,4c0.1,0,0.1,0,0.2,0c0.1,0,0.2,0,0.2,0l-6.2,7.7l-3.9-3.3
				c-0.7-0.6-1.8-0.6-2.5,0l-13.6,11.7c-0.4-0.1-0.7-0.2-1-0.3c-1-0.3-2.1,0.2-2.4,1.2s0.2,2.1,1.2,2.4c0.7,0.2,1.4,0.4,2.2,0.7l0,0
				l0,0c0.2,0.1,0.4,0.1,0.7,0.2h0.1c0.2,0.1,0.4,0.1,0.7,0.2h0.1c0.2,0.1,0.4,0.1,0.6,0.2h0.1c0.3,0.1,0.5,0.1,0.8,0.2
				s0.6,0.1,0.9,0.2c0.1,0,0.2,0,0.3,0.1c0.2,0.1,0.5,0.1,0.7,0.2c0.1,0,0.2,0,0.3,0.1c0.3,0.1,0.6,0.1,0.9,0.2h0.1
				c0.3,0.1,0.6,0.1,0.9,0.2c0.1,0,0.2,0,0.3,0.1c0.3,0,0.5,0.1,0.8,0.1c0.1,0,0.2,0,0.2,0c0.3,0.1,0.7,0.1,1,0.2c0.1,0,0.1,0,0.2,0
				c0.3,0,0.5,0.1,0.8,0.1c0.1,0,0.2,0,0.3,0c0.3,0,0.6,0.1,0.9,0.1h0.1l0,0c0,0,0,0,0.1,0c0.3,0,0.6,0.1,1,0.1h0.1l0,0l0,0l0,0
				c0.1,0,0.2,0,0.3,0c0.2,0,0.5,0.1,0.7,0.1c0.1,0,0.2,0,0.3,0c4.5,0.5,9.4,0.9,14.3,0.9c0.1,0,0.1,0,0.2,0c0.3,0,0.6,0,0.9,0
				c0.1,0,0.2,0,0.3,0c0.4,0,0.8,0,1.1,0c0.7,0,1.4,0,2.1,0c0.1,0,0.2,0,0.3,0c0.6,0,1.2,0,1.8,0c0.1,0,0.3,0,0.4,0
				c0.6,0,1.1,0,1.7-0.1c0.2,0,0.5,0,0.7,0c0.5,0,1,0,1.6-0.1c0.2,0,0.4,0,0.6,0c0.5,0,1-0.1,1.5-0.1c0.2,0,0.4,0,0.6,0
				c0.6,0,1.1-0.1,1.7-0.1c0.1,0,0.3,0,0.4,0c0.6-0.1,1.2-0.1,1.8-0.2c0.1,0,0.2,0,0.3,0c0.6-0.1,1.2-0.1,1.8-0.2h0.1l0,0l0,0
				c3.8-0.5,7.5-1.1,10.7-1.9c0.3-0.1,0.6-0.1,0.9-0.2c0.1,0,0.1,0,0.2,0c0.3-0.1,0.5-0.1,0.8-0.2c0,0,0,0,0.1,0
				c6.6-1.7,9.5-3.6,10.4-4.3c0.8-0.7,1-1.9,0.3-2.7c-0.7-0.8-1.9-1-2.7-0.3c-0.4,0.3-2.1,1.5-6.3,2.8l-14.1-14
				c-0.7-0.7-1.9-0.7-2.7,0l-6,5.9l-6.2-7.7c0.8,0,1.6,0,2.4-0.1c0.1,0,0.1,0,0.2,0c10.7-0.3,20.6-1.7,28.3-4c1.7-0.5,3.2-1,4.6-1.6
				l0,0l0,0c0.6-0.2,1.2-0.5,1.7-0.7c0.1,0,0.1,0,0.2-0.1c0.1,0,0.2-0.1,0.2-0.1c0.2-0.1,0.3-0.2,0.5-0.2h0.1c1.6-0.8,2.9-1.5,4-2.4
				L-177.8,326L-177.8,326z M-177.8,296L-177.8,296c0,0.1,0,0.2,0,0.2c0,0.1,0,0.1-0.1,0.2l0,0c-0.3,1-1.2,2.1-2.7,3.1
				c-0.7,0.5-1.6,1-2.6,1.5v-10.5c3.5,1.7,5.5,3.6,5.5,5.2C-177.8,295.9-177.8,295.9-177.8,296z"/>
		</g>
	</g>
	<g>
		<g>
			<path class="st3" d="M-260.8,324.3L-260.8,324.3c-0.9-0.7-2.1-0.5-2.7,0.3c-0.3,0.3-0.4,0.8-0.4,1.2c0,0.6,0.3,1.1,0.7,1.5l0,0
				c0.3,0.3,0.8,0.4,1.2,0.4c0.6,0,1.1-0.3,1.5-0.7c0.3-0.3,0.4-0.8,0.4-1.2C-260.1,325.2-260.3,324.6-260.8,324.3z"/>
		</g>
	</g>
</g>
</svg>
