<svg id="svg" version="1.1" width="400" height="400" viewBox="0 0 400 400" xmlns="http://www.w3.org/2000/svg" xmlns:xlink="http://www.w3.org/1999/xlink" ><g id="svgg"><path id="path0" d="M150.957 68.024 C 149.899 68.338,147.219 70.815,140.084 78.075 C 138.351 79.838,125.131 93.071,124.773 93.400 C 124.535 93.620,121.195 96.905,117.351 100.700 C 113.507 104.495,110.212 107.600,110.028 107.600 C 109.844 107.600,109.596 107.973,109.476 108.430 C 109.357 108.886,108.886 109.357,108.430 109.476 C 107.973 109.596,107.600 109.841,107.600 110.021 C 107.600 110.272,102.641 115.336,99.539 118.254 C 92.892 124.505,93.471 119.621,93.873 166.019 L 94.200 203.838 96.281 205.919 C 97.425 207.064,98.538 208.000,98.754 208.000 C 98.970 208.000,99.251 208.331,99.380 208.736 C 99.508 209.141,100.057 209.710,100.600 210.000 C 101.143 210.290,101.679 210.820,101.793 211.177 C 101.906 211.535,102.539 212.146,103.199 212.536 C 103.860 212.926,104.400 213.425,104.400 213.645 C 104.400 214.057,109.799 219.688,121.017 230.977 C 124.546 234.529,128.328 238.507,129.421 239.817 C 130.514 241.128,134.826 245.637,139.004 249.839 C 143.182 254.040,147.725 258.720,149.100 260.239 C 150.475 261.757,151.874 263.270,152.209 263.600 C 152.543 263.930,153.668 265.064,154.709 266.121 C 155.749 267.178,157.500 268.919,158.600 269.990 C 159.700 271.062,160.847 272.200,161.150 272.519 C 162.055 273.474,163.256 274.697,163.645 275.060 C 164.609 275.958,166.800 278.590,166.800 278.850 C 166.800 279.986,170.549 281.572,174.086 281.934 C 178.831 282.419,245.693 282.506,247.726 282.030 C 248.566 281.833,249.916 281.212,250.726 280.648 C 251.765 279.927,286.776 245.529,294.533 237.607 C 295.309 236.816,299.296 232.839,299.622 232.533 C 299.817 232.350,300.846 231.284,301.910 230.164 C 302.973 229.044,304.111 227.964,304.438 227.764 C 304.765 227.564,305.880 226.309,306.916 224.975 L 308.800 222.550 308.782 186.975 C 308.768 160.127,308.646 151.133,308.282 150.312 L 307.800 149.224 305.571 150.372 C 304.310 151.022,302.243 152.666,300.808 154.160 C 299.414 155.612,298.032 156.800,297.737 156.800 C 297.441 156.800,297.200 156.992,297.200 157.226 C 297.200 157.791,288.451 166.577,287.300 167.167 C 286.805 167.420,286.400 167.812,286.400 168.036 C 286.400 168.529,274.969 180.000,274.479 180.000 C 274.290 180.000,273.905 180.430,273.624 180.956 C 273.342 181.482,272.682 182.142,272.156 182.424 C 271.630 182.705,271.200 183.080,271.200 183.256 C 271.200 183.432,268.995 185.742,266.300 188.390 C 263.605 191.037,261.220 193.386,261.000 193.610 C 258.492 196.164,256.320 198.266,253.776 200.600 C 252.097 202.140,250.516 203.639,250.262 203.931 C 249.680 204.600,245.832 208.326,239.946 213.919 C 237.871 215.890,235.004 218.719,234.455 219.335 C 233.333 220.594,230.584 223.369,229.774 224.060 C 229.348 224.423,228.162 225.593,227.138 226.660 C 226.114 227.727,224.944 228.897,224.538 229.260 C 224.132 229.623,222.962 230.793,221.938 231.860 C 220.914 232.927,219.744 234.089,219.338 234.443 C 218.932 234.796,218.303 235.453,217.940 235.901 C 216.635 237.512,214.212 237.475,212.289 235.815 C 207.945 232.063,206.800 230.974,206.800 230.595 C 206.800 230.370,206.377 229.919,205.860 229.593 C 205.342 229.267,204.054 228.010,202.997 226.800 C 201.940 225.590,200.800 224.437,200.463 224.238 C 199.336 223.573,191.200 215.359,191.200 214.887 C 191.200 214.630,190.705 214.157,190.100 213.835 C 189.495 213.514,188.315 212.474,187.478 211.525 C 186.641 210.576,185.769 209.620,185.541 209.400 C 185.312 209.180,180.471 204.379,174.783 198.731 C 169.095 193.084,164.186 188.314,163.875 188.131 C 163.564 187.949,162.561 186.900,161.648 185.800 C 160.734 184.700,159.854 183.684,159.693 183.543 C 159.392 183.279,144.917 168.827,144.200 168.075 C 143.980 167.844,142.855 166.808,141.700 165.773 C 140.545 164.738,139.600 163.658,139.600 163.374 C 139.600 163.090,139.373 162.619,139.095 162.329 C 136.753 159.878,136.827 159.642,141.424 154.885 C 145.520 150.646,144.934 151.228,147.700 148.657 C 148.965 147.482,150.000 146.390,150.000 146.231 C 150.000 145.874,151.050 144.800,151.399 144.800 C 151.541 144.800,152.408 143.968,153.328 142.951 C 154.248 141.933,155.337 140.808,155.749 140.451 C 157.846 138.631,171.600 124.707,171.600 124.405 C 171.600 124.212,171.931 123.949,172.336 123.820 C 172.741 123.692,173.311 123.140,173.604 122.593 C 173.896 122.047,174.365 121.600,174.645 121.600 C 174.925 121.600,175.436 121.195,175.780 120.700 C 176.383 119.832,182.767 113.063,189.400 106.261 C 191.160 104.456,193.431 102.084,194.447 100.990 C 195.463 99.895,202.778 92.588,210.704 84.751 C 225.624 69.998,226.288 69.219,224.719 68.324 C 223.602 67.687,153.056 67.399,150.957 68.024 " stroke="none" fill="#0a98d5" fill-rule="evenodd"></path><path id="path1" d="M0.000 200.000 L 0.000 400.000 200.000 400.000 L 400.000 400.000 400.000 200.000 L 400.000 0.000 200.000 0.000 L 0.000 0.000 0.000 200.000 M228.723 65.308 C 229.972 66.812,229.733 70.577,228.362 71.012 C 227.916 71.154,227.357 71.695,227.120 72.215 C 226.884 72.735,226.192 73.334,225.583 73.546 C 224.974 73.758,224.356 74.309,224.209 74.770 C 224.063 75.232,223.416 75.881,222.772 76.215 C 222.116 76.554,221.600 77.147,221.600 77.562 C 221.600 78.006,221.125 78.500,220.413 78.794 C 219.761 79.065,219.118 79.629,218.985 80.047 C 218.852 80.466,218.216 81.081,217.572 81.415 C 216.927 81.748,216.400 82.290,216.400 82.619 C 216.400 82.948,215.937 83.428,215.370 83.686 C 214.804 83.945,214.075 84.668,213.751 85.295 C 213.427 85.922,212.720 86.602,212.181 86.807 C 211.614 87.023,211.200 87.501,211.200 87.942 C 211.200 88.410,210.739 88.894,210.000 89.200 C 209.340 89.473,208.800 89.879,208.800 90.102 C 208.800 90.642,204.964 94.400,204.413 94.400 C 204.175 94.400,203.812 94.841,203.607 95.381 C 203.402 95.920,202.699 96.638,202.046 96.976 C 201.392 97.315,200.745 97.944,200.608 98.375 C 200.471 98.806,200.006 99.271,199.575 99.408 C 199.144 99.545,198.529 100.163,198.210 100.781 C 197.890 101.400,197.172 102.021,196.614 102.161 C 195.963 102.324,195.600 102.694,195.600 103.195 C 195.600 103.625,195.141 104.215,194.575 104.512 C 194.010 104.807,193.330 105.488,193.063 106.025 C 192.795 106.561,192.087 107.235,191.488 107.522 C 190.890 107.809,190.400 108.299,190.400 108.612 C 190.400 108.924,189.873 109.452,189.228 109.785 C 188.584 110.119,187.938 110.764,187.794 111.220 C 187.649 111.676,187.116 112.238,186.609 112.468 C 186.103 112.699,185.491 113.321,185.250 113.850 C 185.009 114.379,184.398 115.000,183.893 115.231 C 183.387 115.461,182.739 116.178,182.453 116.825 C 182.154 117.500,181.625 118.000,181.210 118.000 C 180.782 118.000,180.389 118.388,180.248 118.949 C 180.110 119.501,179.505 120.108,178.805 120.398 C 178.142 120.673,177.600 121.199,177.600 121.569 C 177.600 122.446,176.824 123.200,175.920 123.200 C 175.465 123.200,175.200 123.497,175.200 124.006 C 175.200 124.479,174.686 125.124,173.955 125.569 C 173.271 125.985,172.501 126.747,172.245 127.263 C 171.989 127.778,171.390 128.256,170.914 128.325 C 170.313 128.411,170.010 128.777,169.924 129.522 C 169.841 130.241,169.421 130.775,168.651 131.143 C 168.019 131.444,167.415 132.019,167.311 132.420 C 167.206 132.821,166.598 133.332,165.960 133.554 C 165.168 133.830,164.800 134.230,164.800 134.814 C 164.800 135.385,164.425 135.811,163.673 136.095 C 163.053 136.329,162.251 137.033,161.891 137.660 C 161.508 138.329,160.899 138.800,160.419 138.800 C 159.884 138.800,159.600 139.061,159.600 139.551 C 159.600 140.420,158.938 141.051,157.805 141.262 C 157.367 141.343,156.943 141.767,156.862 142.205 C 156.651 143.338,156.020 144.000,155.151 144.000 C 154.683 144.000,154.400 144.283,154.400 144.751 C 154.400 145.620,153.738 146.251,152.605 146.462 C 152.167 146.543,151.743 146.967,151.662 147.405 C 151.451 148.538,150.820 149.200,149.951 149.200 C 149.483 149.200,149.200 149.483,149.200 149.951 C 149.200 150.820,148.538 151.451,147.405 151.662 C 146.967 151.743,146.543 152.167,146.462 152.605 C 146.253 153.727,145.622 154.400,144.779 154.400 C 144.334 154.400,144.006 154.746,143.928 155.296 C 143.855 155.806,143.318 156.423,142.684 156.726 C 141.965 157.069,141.485 157.676,141.334 158.429 C 141.205 159.073,140.906 159.600,140.670 159.600 C 140.391 159.600,140.409 159.769,140.720 160.080 C 140.984 160.344,141.200 160.978,141.200 161.490 C 141.200 162.122,141.531 162.546,142.236 162.814 C 142.817 163.034,143.471 163.734,143.724 164.404 C 143.972 165.062,144.460 165.600,144.808 165.600 C 145.635 165.600,146.400 166.386,146.400 167.237 C 146.400 167.629,146.830 168.021,147.426 168.171 C 148.083 168.336,148.600 168.854,148.865 169.614 C 149.105 170.302,149.564 170.800,149.959 170.800 C 150.830 170.800,151.600 171.568,151.600 172.437 C 151.600 172.832,152.033 173.222,152.642 173.375 C 153.300 173.540,153.847 174.071,154.129 174.818 C 154.375 175.468,154.860 176.000,155.208 176.000 C 156.035 176.000,156.800 176.786,156.800 177.637 C 156.800 178.032,157.233 178.422,157.842 178.575 C 158.495 178.739,159.047 179.270,159.323 180.001 C 159.576 180.671,160.106 181.215,160.571 181.283 C 161.016 181.347,161.600 181.842,161.868 182.383 C 162.137 182.924,162.742 183.509,163.213 183.683 C 163.684 183.857,164.273 184.540,164.522 185.200 C 164.772 185.860,165.260 186.400,165.608 186.400 C 166.450 186.400,167.200 187.191,167.200 188.080 C 167.200 188.539,167.497 188.800,168.019 188.800 C 168.497 188.800,169.107 189.270,169.487 189.932 C 169.844 190.554,170.646 191.356,171.268 191.713 C 171.930 192.093,172.400 192.703,172.400 193.181 C 172.400 193.740,172.660 194.000,173.219 194.000 C 173.697 194.000,174.307 194.470,174.687 195.132 C 175.044 195.754,175.846 196.556,176.468 196.913 C 177.130 197.293,177.600 197.903,177.600 198.381 C 177.600 198.903,177.861 199.200,178.320 199.200 C 179.201 199.200,179.997 199.945,180.009 200.780 C 180.013 201.121,180.598 201.670,181.309 202.000 C 182.104 202.370,182.649 202.945,182.728 203.500 C 182.804 204.037,183.135 204.400,183.548 204.400 C 184.412 204.400,185.200 205.159,185.200 205.992 C 185.200 206.340,185.754 206.834,186.431 207.089 C 187.112 207.346,187.763 207.936,187.886 208.408 C 188.009 208.877,188.538 209.424,189.062 209.624 C 189.586 209.823,190.187 210.439,190.397 210.993 C 190.608 211.547,190.995 212.000,191.259 212.000 C 192.019 212.000,193.200 213.254,193.200 214.062 C 193.200 214.506,193.487 214.800,193.920 214.800 C 194.801 214.800,195.597 215.545,195.609 216.380 C 195.613 216.721,196.198 217.270,196.909 217.600 C 197.704 217.970,198.249 218.545,198.328 219.100 C 198.404 219.637,198.735 220.000,199.148 220.000 C 200.012 220.000,200.800 220.759,200.800 221.592 C 200.800 221.940,201.354 222.434,202.031 222.689 C 202.709 222.945,203.349 223.482,203.453 223.882 C 203.558 224.283,204.174 224.915,204.822 225.287 C 205.470 225.659,206.000 226.239,206.000 226.576 C 206.000 226.913,206.630 227.452,207.400 227.774 C 208.363 228.176,208.800 228.619,208.800 229.189 C 208.800 229.709,209.177 230.163,209.807 230.403 C 210.361 230.613,210.978 231.216,211.178 231.742 C 211.378 232.268,212.000 232.814,212.561 232.954 C 213.121 233.095,213.819 233.666,214.111 234.224 L 214.642 235.238 215.383 234.419 C 215.791 233.968,216.245 233.600,216.394 233.600 C 216.728 233.600,223.662 227.040,226.731 223.820 C 232.983 217.262,243.812 206.800,244.350 206.800 C 244.545 206.800,245.176 206.182,245.752 205.427 C 246.328 204.672,247.160 203.940,247.600 203.800 C 248.040 203.660,248.400 203.364,248.400 203.141 C 248.400 202.544,251.701 199.349,252.618 199.058 C 253.052 198.920,253.586 198.401,253.804 197.904 C 254.022 197.407,254.573 196.836,255.030 196.635 C 255.486 196.435,256.153 195.760,256.511 195.135 C 256.893 194.470,257.502 194.000,257.981 194.000 C 258.490 194.000,258.805 193.734,258.813 193.300 C 258.830 192.377,259.745 191.200,260.446 191.200 C 260.753 191.200,261.244 190.660,261.536 190.000 C 261.863 189.261,262.365 188.800,262.843 188.800 C 263.305 188.800,263.775 188.392,264.002 187.795 C 264.212 187.242,264.818 186.593,265.348 186.351 C 265.878 186.109,266.509 185.478,266.751 184.948 C 266.993 184.418,267.642 183.812,268.195 183.602 C 268.748 183.392,269.200 182.937,269.200 182.591 C 269.200 182.246,269.736 181.656,270.392 181.281 C 271.047 180.907,271.789 180.105,272.040 179.500 C 272.291 178.895,272.806 178.400,273.184 178.400 C 273.562 178.400,274.078 177.947,274.330 177.394 C 274.582 176.841,275.198 176.202,275.699 175.973 C 276.199 175.745,276.914 175.028,277.286 174.379 C 277.658 173.731,278.251 173.200,278.602 173.200 C 278.954 173.200,279.424 172.677,279.647 172.037 C 279.877 171.377,280.431 170.778,280.926 170.652 C 281.407 170.531,282.040 169.884,282.334 169.216 C 282.627 168.547,283.112 168.000,283.411 168.000 C 283.710 168.000,284.267 167.471,284.649 166.825 C 285.030 166.180,285.766 165.545,286.285 165.414 C 286.803 165.284,287.428 164.736,287.674 164.197 C 287.920 163.657,288.456 163.109,288.865 162.979 C 289.274 162.850,289.875 162.229,290.200 161.600 C 290.525 160.971,291.108 160.354,291.496 160.229 C 291.883 160.104,292.507 159.462,292.881 158.801 C 293.256 158.140,293.819 157.600,294.133 157.600 C 294.446 157.600,294.920 157.076,295.186 156.435 C 295.468 155.754,296.076 155.167,296.648 155.024 C 297.196 154.886,297.800 154.325,298.019 153.750 C 298.234 153.185,298.775 152.627,299.221 152.510 C 299.667 152.394,300.299 151.781,300.626 151.149 C 300.953 150.517,301.482 150.000,301.801 150.000 C 302.120 150.000,302.687 149.534,303.061 148.964 C 303.434 148.393,304.144 147.773,304.637 147.586 C 305.131 147.398,305.776 146.739,306.071 146.122 C 307.070 144.033,310.093 144.390,311.090 146.714 C 311.657 148.035,311.731 152.257,311.764 184.800 L 311.800 221.400 310.868 223.200 C 310.356 224.190,309.801 225.270,309.635 225.600 C 309.470 225.930,308.975 226.364,308.536 226.565 C 308.097 226.766,307.511 227.441,307.235 228.065 C 306.959 228.689,306.545 229.200,306.315 229.200 C 305.836 229.200,301.600 233.577,301.600 234.072 C 301.600 234.252,301.324 234.400,300.987 234.400 C 300.649 234.400,300.001 235.030,299.547 235.800 C 299.093 236.570,298.473 237.200,298.171 237.200 C 297.868 237.200,297.348 237.727,297.015 238.372 C 296.681 239.016,296.045 239.659,295.600 239.800 C 295.155 239.941,294.519 240.584,294.185 241.228 C 293.852 241.873,293.324 242.400,293.012 242.400 C 292.700 242.400,292.126 242.940,291.736 243.600 C 291.346 244.260,290.878 244.800,290.695 244.800 C 290.207 244.800,286.608 248.480,286.294 249.300 C 286.146 249.685,285.829 250.000,285.590 250.000 C 285.018 250.000,281.411 253.600,281.081 254.500 C 280.940 254.885,280.466 255.200,280.027 255.200 C 279.587 255.200,279.019 255.605,278.764 256.100 C 278.509 256.595,277.783 257.418,277.150 257.929 C 276.518 258.440,276.000 259.119,276.000 259.439 C 276.000 259.758,275.548 260.192,274.995 260.402 C 274.442 260.612,273.793 261.218,273.551 261.748 C 273.309 262.278,272.678 262.909,272.148 263.151 C 271.618 263.393,271.012 264.042,270.802 264.595 C 270.592 265.148,270.137 265.600,269.791 265.600 C 269.446 265.600,268.858 266.131,268.486 266.779 C 268.114 267.428,267.399 268.146,266.897 268.374 C 266.395 268.603,265.812 269.242,265.602 269.795 C 265.392 270.348,265.011 270.800,264.756 270.800 C 264.178 270.800,260.653 274.353,260.292 275.300 C 260.145 275.685,259.819 276.000,259.566 276.000 C 259.313 276.000,257.823 277.274,256.253 278.831 C 254.684 280.388,252.937 282.109,252.371 282.657 C 251.805 283.204,250.635 283.816,249.771 284.017 C 247.924 284.445,173.569 284.481,170.600 284.055 C 168.489 283.752,165.200 281.170,165.200 279.816 C 165.200 279.477,164.876 279.200,164.480 279.200 C 163.551 279.200,162.800 278.440,162.800 277.499 C 162.800 277.041,162.356 276.604,161.637 276.353 C 160.948 276.113,160.379 275.571,160.242 275.024 C 160.110 274.500,159.490 273.886,158.805 273.602 C 158.062 273.294,157.600 272.811,157.600 272.342 C 157.600 271.896,157.182 271.421,156.593 271.197 C 156.039 270.987,155.417 270.370,155.210 269.826 C 155.003 269.283,154.287 268.555,153.617 268.209 C 152.948 267.863,152.400 267.305,152.400 266.969 C 152.400 266.633,151.877 266.176,151.237 265.953 C 150.516 265.702,149.979 265.172,149.826 264.560 C 149.689 264.017,149.129 263.368,148.579 263.118 C 148.030 262.868,147.486 262.287,147.371 261.828 C 147.256 261.368,146.630 260.688,145.981 260.315 C 145.331 259.942,144.800 259.363,144.800 259.029 C 144.800 258.694,144.260 258.141,143.600 257.800 C 142.940 257.459,142.400 256.905,142.400 256.569 C 142.400 256.234,141.770 255.696,141.000 255.374 C 140.058 254.981,139.600 254.526,139.600 253.985 C 139.600 253.493,139.208 253.031,138.593 252.797 C 138.039 252.587,137.412 251.958,137.200 251.400 C 136.988 250.842,136.358 250.212,135.800 250.000 C 135.242 249.788,134.623 249.186,134.424 248.662 C 134.224 248.138,133.674 247.608,133.201 247.484 C 132.728 247.361,132.245 246.892,132.127 246.444 C 132.010 245.995,131.303 245.268,130.557 244.828 C 129.811 244.387,129.200 243.746,129.200 243.404 C 129.200 243.061,128.747 242.608,128.193 242.397 C 127.639 242.187,127.029 241.606,126.837 241.107 C 126.645 240.608,125.928 239.790,125.244 239.288 C 124.560 238.786,124.000 238.216,124.000 238.021 C 124.000 237.825,123.055 236.752,121.900 235.634 C 119.341 233.159,119.591 233.413,117.417 231.100 C 116.434 230.055,115.447 229.200,115.224 229.200 C 115.001 229.200,114.519 228.743,114.153 228.184 C 113.786 227.625,112.052 225.690,110.298 223.884 C 108.545 222.078,106.638 219.970,106.063 219.200 C 105.487 218.430,104.517 217.369,103.908 216.842 C 103.298 216.315,102.800 215.646,102.800 215.356 C 102.800 215.066,102.434 214.632,101.987 214.393 C 101.540 214.154,99.245 212.041,96.887 209.697 L 92.600 205.437 92.374 186.419 C 92.212 172.819,92.006 167.001,91.651 166.000 C 90.659 163.201,90.505 125.495,91.482 124.518 C 91.923 124.077,92.405 123.234,92.553 122.644 C 92.701 122.055,93.247 121.379,93.767 121.142 C 94.287 120.906,94.909 120.279,95.150 119.750 C 95.391 119.221,96.003 118.599,96.511 118.368 C 97.018 118.137,97.605 117.555,97.816 117.074 C 98.027 116.593,98.593 116.027,99.074 115.816 C 99.555 115.605,100.133 115.025,100.360 114.527 C 100.587 114.029,101.229 113.508,101.786 113.368 C 102.344 113.228,102.800 112.849,102.800 112.527 C 102.800 111.785,111.817 102.800,112.561 102.800 C 112.865 102.800,113.228 102.344,113.368 101.786 C 113.508 101.229,114.064 100.572,114.603 100.326 C 115.143 100.080,115.691 99.544,115.821 99.135 C 115.950 98.726,116.584 98.119,117.228 97.785 C 117.873 97.452,118.400 96.906,118.400 96.571 C 118.400 96.237,118.931 95.658,119.579 95.286 C 120.228 94.914,120.942 94.207,121.166 93.716 C 121.390 93.224,122.013 92.712,122.552 92.576 C 123.145 92.427,123.627 91.945,123.776 91.352 C 123.912 90.813,124.447 90.179,124.967 89.942 C 125.487 89.706,126.106 89.087,126.342 88.567 C 126.579 88.047,127.229 87.508,127.786 87.368 C 128.344 87.228,128.800 86.861,128.800 86.553 C 128.800 86.055,129.720 84.896,131.858 82.700 C 132.233 82.315,132.849 82.000,133.227 82.000 C 133.628 82.000,134.019 81.579,134.168 80.986 C 134.308 80.429,134.847 79.779,135.367 79.542 C 135.887 79.306,136.506 78.687,136.742 78.167 C 136.979 77.647,137.622 77.109,138.172 76.971 C 138.722 76.833,139.293 76.338,139.441 75.870 C 139.815 74.692,142.857 71.615,143.657 71.607 C 144.023 71.603,144.426 71.152,144.568 70.586 C 144.708 70.029,145.247 69.379,145.767 69.142 C 146.287 68.906,146.906 68.287,147.142 67.767 C 147.379 67.247,148.068 66.698,148.673 66.546 C 149.278 66.394,150.129 65.938,150.564 65.534 C 151.572 64.594,227.948 64.373,228.723 65.308 M147.041 296.016 C 147.643 296.244,148.329 296.679,148.567 296.982 C 148.805 297.284,150.025 297.738,151.277 297.989 C 153.366 298.409,153.591 298.560,154.009 299.827 C 154.259 300.585,154.810 301.391,155.232 301.617 C 156.280 302.178,156.196 303.306,155.001 304.726 C 153.643 306.340,152.238 306.646,150.925 305.613 C 150.357 305.166,149.644 304.800,149.341 304.800 C 149.037 304.800,147.709 304.285,146.388 303.657 C 143.927 302.484,142.200 302.397,141.386 303.405 C 141.159 303.687,140.319 304.190,139.521 304.524 C 137.475 305.378,136.427 306.565,135.773 308.765 C 135.462 309.812,134.846 310.996,134.404 311.396 C 133.238 312.451,133.180 321.145,134.333 321.865 C 134.736 322.117,135.377 323.312,135.758 324.521 C 136.222 325.996,136.703 326.786,137.220 326.921 C 137.644 327.032,138.168 327.590,138.385 328.161 C 139.058 329.932,149.426 329.673,150.220 327.866 C 151.164 325.716,156.000 327.087,156.000 329.504 C 156.000 330.740,154.495 333.106,153.506 333.426 C 153.124 333.549,152.283 334.179,151.636 334.825 L 150.462 336.000 143.657 336.000 C 136.580 336.000,134.857 335.705,134.526 334.438 C 134.412 334.001,133.839 333.588,133.160 333.452 C 132.473 333.315,131.817 332.837,131.569 332.293 C 131.338 331.784,130.760 331.195,130.286 330.984 C 129.775 330.756,129.319 330.082,129.168 329.329 C 129.028 328.631,128.419 327.634,127.814 327.114 C 125.647 325.249,125.816 309.348,128.033 306.559 C 128.675 305.751,129.200 304.768,129.200 304.374 C 129.200 303.980,129.616 303.330,130.125 302.929 C 130.634 302.528,131.219 301.905,131.425 301.545 C 132.245 300.112,135.173 298.107,136.830 297.842 C 137.759 297.693,139.045 297.128,139.690 296.586 C 140.988 295.494,144.875 295.192,147.041 296.016 M266.020 296.210 C 266.669 296.546,267.200 296.960,267.200 297.130 C 267.200 297.301,268.254 297.658,269.541 297.924 C 272.846 298.606,273.400 299.346,273.400 303.074 C 273.400 305.573,273.272 306.158,272.624 306.632 C 271.549 307.418,271.307 307.362,270.077 306.050 C 269.452 305.381,268.388 304.790,267.540 304.639 C 266.737 304.496,265.424 303.934,264.622 303.389 C 262.860 302.193,261.176 302.106,260.508 303.176 C 260.241 303.603,259.028 304.265,257.812 304.649 C 256.548 305.047,255.600 305.580,255.600 305.893 C 255.600 306.696,254.376 308.928,253.639 309.467 C 252.346 310.414,252.543 324.000,253.849 324.000 C 254.175 324.000,254.693 324.604,255.002 325.342 C 256.769 329.571,266.315 331.063,269.156 327.555 C 269.927 326.603,272.435 326.399,273.411 327.209 C 274.843 328.398,273.773 333.105,271.990 333.462 C 271.355 333.589,270.786 334.011,270.674 334.438 C 270.346 335.693,268.633 336.000,261.948 336.000 C 255.626 336.000,254.198 335.756,253.488 334.555 C 253.316 334.264,252.383 333.676,251.416 333.248 C 249.620 332.454,248.400 330.824,248.400 329.220 C 248.400 328.763,248.138 328.400,247.809 328.400 C 246.801 328.400,246.100 326.723,245.812 323.622 C 245.660 321.984,245.281 320.279,244.968 319.833 C 244.215 318.757,244.246 315.541,245.027 313.687 C 245.372 312.869,245.760 310.959,245.890 309.442 C 246.076 307.264,246.345 306.424,247.172 305.442 C 247.747 304.759,248.519 303.540,248.886 302.734 C 249.254 301.928,249.892 301.161,250.305 301.030 C 250.718 300.899,251.443 300.268,251.917 299.627 C 252.571 298.743,253.311 298.351,254.985 298.003 C 256.198 297.751,257.329 297.298,257.499 296.996 C 258.284 295.591,263.834 295.080,266.020 296.210 M166.100 297.592 L 167.200 298.813 167.200 316.675 C 167.200 337.267,167.437 336.000,163.587 336.000 C 159.970 336.000,160.187 337.281,160.289 316.533 C 160.377 298.450,160.467 297.209,161.760 296.285 C 162.646 295.652,164.986 296.357,166.100 297.592 M238.761 297.379 L 239.800 298.417 239.903 316.109 C 240.022 336.591,240.156 335.733,236.808 335.924 C 235.608 335.992,234.225 335.828,233.718 335.556 L 232.800 335.065 232.801 316.832 C 232.803 299.138,232.827 298.560,233.626 297.251 C 234.650 295.570,237.010 295.629,238.761 297.379 M198.800 297.685 C 199.350 297.683,206.185 297.648,213.989 297.606 L 228.177 297.532 228.922 298.451 C 229.696 299.407,229.619 301.341,228.772 302.188 C 228.530 302.430,226.488 302.576,223.822 302.541 L 219.284 302.482 219.042 303.691 C 218.909 304.356,218.800 311.540,218.800 319.656 L 218.800 334.412 217.500 335.204 C 215.205 336.603,210.596 336.007,210.200 334.260 C 210.093 333.787,209.959 326.530,209.903 318.133 C 209.846 309.736,209.674 302.740,209.520 302.586 C 209.366 302.432,208.069 302.474,206.639 302.680 C 205.209 302.886,203.781 302.909,203.465 302.732 C 202.500 302.192,197.313 302.208,196.657 302.753 C 196.200 303.132,195.509 303.146,193.671 302.813 C 191.049 302.337,188.438 303.286,188.368 304.740 C 188.351 305.103,188.355 311.790,188.378 319.600 C 188.427 336.272,188.534 335.739,185.101 335.920 C 180.891 336.141,181.200 337.400,181.200 320.036 C 181.200 302.384,181.184 302.228,179.443 302.570 C 178.759 302.704,178.020 302.804,177.800 302.792 C 177.580 302.781,176.133 302.722,174.583 302.661 C 171.269 302.531,170.947 302.379,170.595 300.779 C 169.861 297.437,170.299 297.347,186.200 297.544 C 192.580 297.623,198.250 297.686,198.800 297.685 " stroke="none" fill="#fbfbfb" fill-rule="evenodd"></path><path id="path2" d="M140.000 299.051 C 136.746 299.521,136.095 299.743,135.467 300.600 C 135.063 301.150,134.555 301.600,134.338 301.600 C 133.824 301.600,132.800 302.628,132.800 303.144 C 132.800 303.365,132.281 303.915,131.646 304.367 C 130.783 304.982,130.425 305.636,130.226 306.966 C 130.079 307.944,129.564 309.247,129.080 309.862 C 128.262 310.902,128.200 311.404,128.200 317.000 C 128.200 322.596,128.262 323.098,129.080 324.138 C 129.564 324.753,130.082 326.076,130.232 327.077 C 130.446 328.503,130.750 329.038,131.631 329.544 C 132.250 329.899,132.839 330.505,132.939 330.890 C 133.040 331.275,133.635 331.783,134.261 332.018 C 134.888 332.252,136.060 332.899,136.867 333.454 C 138.703 334.717,148.826 334.802,149.733 333.561 C 149.990 333.210,150.805 332.611,151.543 332.229 C 152.744 331.609,152.860 331.402,152.639 330.296 C 152.321 328.706,152.034 328.439,151.557 329.292 C 150.159 331.789,139.408 331.844,136.931 329.367 C 136.399 328.835,135.814 328.400,135.630 328.400 C 135.447 328.400,135.067 327.815,134.785 327.100 C 134.503 326.385,133.806 325.294,133.236 324.675 C 132.229 323.582,132.196 323.376,132.073 317.428 C 131.933 310.712,131.729 311.584,134.926 305.206 C 135.200 304.659,135.830 304.009,136.327 303.761 C 136.824 303.514,137.628 302.938,138.115 302.482 C 140.634 300.123,146.887 300.087,149.220 302.420 C 151.146 304.346,153.585 303.695,152.511 301.542 C 151.792 300.101,150.283 299.403,147.037 299.012 C 145.738 298.855,144.478 298.676,144.237 298.615 C 143.997 298.553,142.090 298.750,140.000 299.051 M259.200 299.022 C 257.110 299.302,255.372 299.547,255.338 299.566 C 254.405 300.081,250.003 304.968,249.623 305.909 C 249.333 306.630,248.822 307.372,248.487 307.559 C 246.892 308.452,246.930 325.028,248.530 326.198 C 248.894 326.464,249.453 327.294,249.773 328.041 C 250.408 329.523,252.388 331.415,255.200 333.226 C 257.983 335.018,266.096 334.998,268.760 333.193 C 269.728 332.537,270.741 332.000,271.011 332.000 C 271.900 332.000,272.410 330.951,272.151 329.657 C 271.850 328.148,271.538 328.099,270.277 329.359 C 267.491 332.146,256.133 331.614,254.371 328.615 C 253.978 327.947,253.263 327.014,252.781 326.542 C 250.124 323.937,250.232 309.340,252.929 306.462 C 258.055 300.991,258.894 300.560,263.801 300.872 C 265.943 301.009,266.581 301.224,267.523 302.126 C 270.537 305.014,273.743 303.955,270.824 301.036 C 269.415 299.626,268.946 299.413,266.717 299.168 C 265.332 299.015,263.930 298.805,263.600 298.701 C 263.270 298.597,261.290 298.741,259.200 299.022 M161.802 300.078 C 161.679 300.585,161.628 308.470,161.689 317.600 L 161.800 334.200 163.600 334.200 L 165.400 334.200 165.400 316.800 L 165.400 299.400 163.713 299.278 C 162.234 299.170,161.999 299.269,161.802 300.078 M172.270 299.761 C 171.911 300.697,172.366 300.800,176.867 300.800 C 183.369 300.800,182.800 299.111,182.800 318.400 L 182.800 334.400 184.579 334.400 L 186.358 334.400 186.479 318.441 C 186.625 299.158,186.075 300.800,192.395 300.800 C 196.834 300.800,197.496 300.638,196.748 299.737 C 196.075 298.926,172.582 298.950,172.270 299.761 M200.852 299.737 C 200.098 300.645,200.771 300.800,205.480 300.800 C 213.784 300.800,213.308 299.596,213.124 320.118 L 213.000 334.035 213.877 334.255 C 215.586 334.684,215.600 334.561,215.600 319.036 C 215.600 299.746,215.161 300.800,223.193 300.800 C 227.634 300.800,228.088 300.696,227.730 299.761 C 227.418 298.948,201.526 298.925,200.852 299.737 M234.583 299.700 C 234.477 299.975,234.438 307.850,234.496 317.200 L 234.600 334.200 236.300 334.323 C 237.925 334.441,238.000 334.396,238.003 333.323 C 238.004 332.705,238.068 325.000,238.145 316.200 C 238.303 298.046,238.425 299.200,236.345 299.200 C 235.458 299.200,234.691 299.418,234.583 299.700 " stroke="none" fill="#0d0d0d" fill-rule="evenodd"></path><path id="path3" d="M150.564 65.534 C 150.129 65.938,149.278 66.394,148.673 66.546 C 148.068 66.698,147.379 67.247,147.142 67.767 C 146.906 68.287,146.287 68.906,145.767 69.142 C 145.247 69.379,144.708 70.029,144.568 70.586 C 144.426 71.152,144.023 71.603,143.657 71.607 C 142.857 71.615,139.815 74.692,139.441 75.870 C 139.293 76.338,138.722 76.833,138.172 76.971 C 137.622 77.109,136.979 77.647,136.742 78.167 C 136.506 78.687,135.887 79.306,135.367 79.542 C 134.847 79.779,134.308 80.429,134.168 80.986 C 134.019 81.579,133.628 82.000,133.227 82.000 C 132.849 82.000,132.233 82.315,131.858 82.700 C 129.720 84.896,128.800 86.055,128.800 86.553 C 128.800 86.861,128.344 87.228,127.786 87.368 C 127.229 87.508,126.579 88.047,126.342 88.567 C 126.106 89.087,125.487 89.706,124.967 89.942 C 124.447 90.179,123.912 90.813,123.776 91.352 C 123.627 91.945,123.145 92.427,122.552 92.576 C 122.013 92.712,121.390 93.224,121.166 93.716 C 120.942 94.207,120.228 94.914,119.579 95.286 C 118.931 95.658,118.400 96.237,118.400 96.571 C 118.400 96.906,117.873 97.452,117.228 97.785 C 116.584 98.119,115.950 98.726,115.821 99.135 C 115.691 99.544,115.143 100.080,114.603 100.326 C 114.064 100.572,113.508 101.229,113.368 101.786 C 113.228 102.344,112.865 102.800,112.561 102.800 C 111.817 102.800,102.800 111.785,102.800 112.527 C 102.800 112.849,102.344 113.228,101.786 113.368 C 101.229 113.508,100.587 114.029,100.360 114.527 C 100.133 115.025,99.555 115.605,99.074 115.816 C 98.593 116.027,98.027 116.593,97.816 117.074 C 97.605 117.555,97.018 118.137,96.511 118.368 C 96.003 118.599,95.391 119.221,95.150 119.750 C 94.909 120.279,94.287 120.906,93.767 121.142 C 93.247 121.379,92.701 122.055,92.553 122.644 C 92.405 123.234,91.923 124.077,91.482 124.518 C 90.505 125.495,90.659 163.201,91.651 166.000 C 92.006 167.001,92.212 172.819,92.374 186.419 L 92.600 205.437 96.887 209.697 C 99.245 212.041,101.540 214.154,101.987 214.393 C 102.434 214.632,102.800 215.066,102.800 215.356 C 102.800 215.646,103.298 216.315,103.908 216.842 C 104.517 217.369,105.487 218.430,106.063 219.200 C 106.638 219.970,108.545 222.078,110.298 223.884 C 112.052 225.690,113.786 227.625,114.153 228.184 C 114.519 228.743,115.001 229.200,115.224 229.200 C 115.447 229.200,116.434 230.055,117.417 231.100 C 119.591 233.413,119.341 233.159,121.900 235.634 C 123.055 236.752,124.000 237.825,124.000 238.021 C 124.000 238.216,124.560 238.786,125.244 239.288 C 125.928 239.790,126.645 240.608,126.837 241.107 C 127.029 241.606,127.639 242.187,128.193 242.397 C 128.747 242.608,129.200 243.061,129.200 243.404 C 129.200 243.746,129.811 244.387,130.557 244.828 C 131.303 245.268,132.010 245.995,132.127 246.444 C 132.245 246.892,132.728 247.361,133.201 247.484 C 133.674 247.608,134.224 248.138,134.424 248.662 C 134.623 249.186,135.242 249.788,135.800 250.000 C 136.358 250.212,136.988 250.842,137.200 251.400 C 137.412 251.958,138.039 252.587,138.593 252.797 C 139.208 253.031,139.600 253.493,139.600 253.985 C 139.600 254.526,140.058 254.981,141.000 255.374 C 141.770 255.696,142.400 256.234,142.400 256.569 C 142.400 256.905,142.940 257.459,143.600 257.800 C 144.260 258.141,144.800 258.694,144.800 259.029 C 144.800 259.363,145.331 259.942,145.981 260.315 C 146.630 260.688,147.256 261.368,147.371 261.828 C 147.486 262.287,148.030 262.868,148.579 263.118 C 149.129 263.368,149.689 264.017,149.826 264.560 C 149.979 265.172,150.516 265.702,151.237 265.953 C 151.877 266.176,152.400 266.633,152.400 266.969 C 152.400 267.305,152.948 267.863,153.617 268.209 C 154.287 268.555,155.003 269.283,155.210 269.826 C 155.417 270.370,156.039 270.987,156.593 271.197 C 157.182 271.421,157.600 271.896,157.600 272.342 C 157.600 272.811,158.062 273.294,158.805 273.602 C 159.490 273.886,160.110 274.500,160.242 275.024 C 160.379 275.571,160.948 276.113,161.637 276.353 C 162.356 276.604,162.800 277.041,162.800 277.499 C 162.800 278.440,163.551 279.200,164.480 279.200 C 164.876 279.200,165.200 279.477,165.200 279.816 C 165.200 281.170,168.489 283.752,170.600 284.055 C 173.569 284.481,247.924 284.445,249.771 284.017 C 250.635 283.816,251.805 283.204,252.371 282.657 C 252.937 282.109,254.684 280.388,256.253 278.831 C 257.823 277.274,259.313 276.000,259.566 276.000 C 259.819 276.000,260.145 275.685,260.292 275.300 C 260.653 274.353,264.178 270.800,264.756 270.800 C 265.011 270.800,265.392 270.348,265.602 269.795 C 265.812 269.242,266.395 268.603,266.897 268.374 C 267.399 268.146,268.114 267.428,268.486 266.779 C 268.858 266.131,269.446 265.600,269.791 265.600 C 270.137 265.600,270.592 265.148,270.802 264.595 C 271.012 264.042,271.618 263.393,272.148 263.151 C 272.678 262.909,273.309 262.278,273.551 261.748 C 273.793 261.218,274.442 260.612,274.995 260.402 C 275.548 260.192,276.000 259.758,276.000 259.439 C 276.000 259.119,276.518 258.440,277.150 257.929 C 277.783 257.418,278.509 256.595,278.764 256.100 C 279.019 255.605,279.587 255.200,280.027 255.200 C 280.466 255.200,280.940 254.885,281.081 254.500 C 281.411 253.600,285.018 250.000,285.590 250.000 C 285.829 250.000,286.146 249.685,286.294 249.300 C 286.608 248.480,290.207 244.800,290.695 244.800 C 290.878 244.800,291.346 244.260,291.736 243.600 C 292.126 242.940,292.700 242.400,293.012 242.400 C 293.324 242.400,293.852 241.873,294.185 241.228 C 294.519 240.584,295.155 239.941,295.600 239.800 C 296.045 239.659,296.681 239.016,297.015 238.372 C 297.348 237.727,297.868 237.200,298.171 237.200 C 298.473 237.200,299.093 236.570,299.547 235.800 C 300.001 235.030,300.649 234.400,300.987 234.400 C 301.324 234.400,301.600 234.252,301.600 234.072 C 301.600 233.577,305.836 229.200,306.315 229.200 C 306.545 229.200,306.959 228.689,307.235 228.065 C 307.511 227.441,308.097 226.766,308.536 226.565 C 308.975 226.364,309.470 225.930,309.635 225.600 C 309.801 225.270,310.356 224.190,310.868 223.200 L 311.800 221.400 311.764 184.800 C 311.731 152.257,311.657 148.035,311.090 146.714 C 310.093 144.390,307.070 144.033,306.071 146.122 C 305.776 146.739,305.131 147.398,304.637 147.586 C 304.144 147.773,303.434 148.393,303.061 148.964 C 302.687 149.534,302.120 150.000,301.801 150.000 C 301.482 150.000,300.953 150.517,300.626 151.149 C 300.299 151.781,299.667 152.394,299.221 152.510 C 298.775 152.627,298.234 153.185,298.019 153.750 C 297.800 154.325,297.196 154.886,296.648 155.024 C 296.076 155.167,295.468 155.754,295.186 156.435 C 294.920 157.076,294.446 157.600,294.133 157.600 C 293.819 157.600,293.256 158.140,292.881 158.801 C 292.507 159.462,291.883 160.104,291.496 160.229 C 291.108 160.354,290.525 160.971,290.200 161.600 C 289.875 162.229,289.274 162.850,288.865 162.979 C 288.456 163.109,287.920 163.657,287.674 164.197 C 287.428 164.736,286.803 165.284,286.285 165.414 C 285.766 165.545,285.030 166.180,284.649 166.825 C 284.267 167.471,283.710 168.000,283.411 168.000 C 283.112 168.000,282.627 168.547,282.334 169.216 C 282.040 169.884,281.407 170.531,280.926 170.652 C 280.431 170.778,279.877 171.377,279.647 172.037 C 279.424 172.677,278.954 173.200,278.602 173.200 C 278.251 173.200,277.658 173.731,277.286 174.379 C 276.914 175.028,276.199 175.745,275.699 175.973 C 275.198 176.202,274.582 176.841,274.330 177.394 C 274.078 177.947,273.562 178.400,273.184 178.400 C 272.806 178.400,272.291 178.895,272.040 179.500 C 271.789 180.105,271.047 180.907,270.392 181.281 C 269.736 181.656,269.200 182.246,269.200 182.591 C 269.200 182.937,268.748 183.392,268.195 183.602 C 267.642 183.812,266.993 184.418,266.751 184.948 C 266.509 185.478,265.878 186.109,265.348 186.351 C 264.818 186.593,264.212 187.242,264.002 187.795 C 263.775 188.392,263.305 188.800,262.843 188.800 C 262.365 188.800,261.863 189.261,261.536 190.000 C 261.244 190.660,260.753 191.200,260.446 191.200 C 259.745 191.200,258.830 192.377,258.813 193.300 C 258.805 193.734,258.490 194.000,257.981 194.000 C 257.502 194.000,256.893 194.470,256.511 195.135 C 256.153 195.760,255.486 196.435,255.030 196.635 C 254.573 196.836,254.022 197.407,253.804 197.904 C 253.586 198.401,253.052 198.920,252.618 199.058 C 251.701 199.349,248.400 202.544,248.400 203.141 C 248.400 203.364,248.040 203.660,247.600 203.800 C 247.160 203.940,246.328 204.672,245.752 205.427 C 245.176 206.182,244.545 206.800,244.350 206.800 C 243.812 206.800,232.983 217.262,226.731 223.820 C 223.662 227.040,216.728 233.600,216.394 233.600 C 216.245 233.600,215.791 233.968,215.383 234.419 L 214.642 235.238 214.111 234.224 C 213.819 233.666,213.121 233.095,212.561 232.954 C 212.000 232.814,211.378 232.268,211.178 231.742 C 210.978 231.216,210.361 230.613,209.807 230.403 C 209.177 230.163,208.800 229.709,208.800 229.189 C 208.800 228.619,208.363 228.176,207.400 227.774 C 206.630 227.452,206.000 226.913,206.000 226.576 C 206.000 226.239,205.470 225.659,204.822 225.287 C 204.174 224.915,203.558 224.283,203.453 223.882 C 203.349 223.482,202.709 222.945,202.031 222.689 C 201.354 222.434,200.800 221.940,200.800 221.592 C 200.800 220.759,200.012 220.000,199.148 220.000 C 198.735 220.000,198.404 219.637,198.328 219.100 C 198.249 218.545,197.704 217.970,196.909 217.600 C 196.198 217.270,195.613 216.721,195.609 216.380 C 195.597 215.545,194.801 214.800,193.920 214.800 C 193.487 214.800,193.200 214.506,193.200 214.062 C 193.200 213.254,192.019 212.000,191.259 212.000 C 190.995 212.000,190.608 211.547,190.397 210.993 C 190.187 210.439,189.586 209.823,189.062 209.624 C 188.538 209.424,188.009 208.877,187.886 208.408 C 187.763 207.936,187.112 207.346,186.431 207.089 C 185.754 206.834,185.200 206.340,185.200 205.992 C 185.200 205.159,184.412 204.400,183.548 204.400 C 183.135 204.400,182.804 204.037,182.728 203.500 C 182.649 202.945,182.104 202.370,181.309 202.000 C 180.598 201.670,180.013 201.121,180.009 200.780 C 179.997 199.945,179.201 199.200,178.320 199.200 C 177.861 199.200,177.600 198.903,177.600 198.381 C 177.600 197.903,177.130 197.293,176.468 196.913 C 175.846 196.556,175.044 195.754,174.687 195.132 C 174.307 194.470,173.697 194.000,173.219 194.000 C 172.660 194.000,172.400 193.740,172.400 193.181 C 172.400 192.703,171.930 192.093,171.268 191.713 C 170.646 191.356,169.844 190.554,169.487 189.932 C 169.107 189.270,168.497 188.800,168.019 188.800 C 167.497 188.800,167.200 188.539,167.200 188.080 C 167.200 187.191,166.450 186.400,165.608 186.400 C 165.260 186.400,164.772 185.860,164.522 185.200 C 164.273 184.540,163.684 183.857,163.213 183.683 C 162.742 183.509,162.137 182.924,161.868 182.383 C 161.600 181.842,161.016 181.347,160.571 181.283 C 160.106 181.215,159.576 180.671,159.323 180.001 C 159.047 179.270,158.495 178.739,157.842 178.575 C 157.233 178.422,156.800 178.032,156.800 177.637 C 156.800 176.786,156.035 176.000,155.208 176.000 C 154.860 176.000,154.375 175.468,154.129 174.818 C 153.847 174.071,153.300 173.540,152.642 173.375 C 152.033 173.222,151.600 172.832,151.600 172.437 C 151.600 171.568,150.830 170.800,149.959 170.800 C 149.564 170.800,149.105 170.302,148.865 169.614 C 148.600 168.854,148.083 168.336,147.426 168.171 C 146.830 168.021,146.400 167.629,146.400 167.237 C 146.400 166.386,145.635 165.600,144.808 165.600 C 144.460 165.600,143.972 165.062,143.724 164.404 C 143.471 163.734,142.817 163.034,142.236 162.814 C 141.531 162.546,141.200 162.122,141.200 161.490 C 141.200 160.978,140.984 160.344,140.720 160.080 C 140.409 159.769,140.391 159.600,140.670 159.600 C 140.906 159.600,141.205 159.073,141.334 158.429 C 141.485 157.676,141.965 157.069,142.684 156.726 C 143.318 156.423,143.855 155.806,143.928 155.296 C 144.006 154.746,144.334 154.400,144.779 154.400 C 145.622 154.400,146.253 153.727,146.462 152.605 C 146.543 152.167,146.967 151.743,147.405 151.662 C 148.538 151.451,149.200 150.820,149.200 149.951 C 149.200 149.483,149.483 149.200,149.951 149.200 C 150.820 149.200,151.451 148.538,151.662 147.405 C 151.743 146.967,152.167 146.543,152.605 146.462 C 153.738 146.251,154.400 145.620,154.400 144.751 C 154.400 144.283,154.683 144.000,155.151 144.000 C 156.020 144.000,156.651 143.338,156.862 142.205 C 156.943 141.767,157.367 141.343,157.805 141.262 C 158.938 141.051,159.600 140.420,159.600 139.551 C 159.600 139.061,159.884 138.800,160.419 138.800 C 160.899 138.800,161.508 138.329,161.891 137.660 C 162.251 137.033,163.053 136.329,163.673 136.095 C 164.425 135.811,164.800 135.385,164.800 134.814 C 164.800 134.230,165.168 133.830,165.960 133.554 C 166.598 133.332,167.206 132.821,167.311 132.420 C 167.415 132.019,168.019 131.444,168.651 131.143 C 169.421 130.775,169.841 130.241,169.924 129.522 C 170.010 128.777,170.313 128.411,170.914 128.325 C 171.390 128.256,171.989 127.778,172.245 127.263 C 172.501 126.747,173.271 125.985,173.955 125.569 C 174.686 125.124,175.200 124.479,175.200 124.006 C 175.200 123.497,175.465 123.200,175.920 123.200 C 176.824 123.200,177.600 122.446,177.600 121.569 C 177.600 121.199,178.142 120.673,178.805 120.398 C 179.505 120.108,180.110 119.501,180.248 118.949 C 180.389 118.388,180.782 118.000,181.210 118.000 C 181.625 118.000,182.154 117.500,182.453 116.825 C 182.739 116.178,183.387 115.461,183.893 115.231 C 184.398 115.000,185.009 114.379,185.250 113.850 C 185.491 113.321,186.103 112.699,186.609 112.468 C 187.116 112.238,187.649 111.676,187.794 111.220 C 187.938 110.764,188.584 110.119,189.228 109.785 C 189.873 109.452,190.400 108.924,190.400 108.612 C 190.400 108.299,190.890 107.809,191.488 107.522 C 192.087 107.235,192.795 106.561,193.063 106.025 C 193.330 105.488,194.010 104.807,194.575 104.512 C 195.141 104.215,195.600 103.625,195.600 103.195 C 195.600 102.694,195.963 102.324,196.614 102.161 C 197.172 102.021,197.890 101.400,198.210 100.781 C 198.529 100.163,199.144 99.545,199.575 99.408 C 200.006 99.271,200.471 98.806,200.608 98.375 C 200.745 97.944,201.392 97.315,202.046 96.976 C 202.699 96.638,203.402 95.920,203.607 95.381 C 203.812 94.841,204.175 94.400,204.413 94.400 C 204.964 94.400,208.800 90.642,208.800 90.102 C 208.800 89.879,209.340 89.473,210.000 89.200 C 210.739 88.894,211.200 88.410,211.200 87.942 C 211.200 87.501,211.614 87.023,212.181 86.807 C 212.720 86.602,213.427 85.922,213.751 85.295 C 214.075 84.668,214.804 83.945,215.370 83.686 C 215.937 83.428,216.400 82.948,216.400 82.619 C 216.400 82.290,216.927 81.748,217.572 81.415 C 218.216 81.081,218.852 80.466,218.985 80.047 C 219.118 79.629,219.761 79.065,220.413 78.794 C 221.125 78.500,221.600 78.006,221.600 77.562 C 221.600 77.147,222.116 76.554,222.772 76.215 C 223.416 75.881,224.063 75.232,224.209 74.770 C 224.356 74.309,224.974 73.758,225.583 73.546 C 226.192 73.334,226.884 72.735,227.120 72.215 C 227.357 71.695,227.916 71.154,228.362 71.012 C 229.733 70.577,229.972 66.812,228.723 65.308 C 227.948 64.373,151.572 64.594,150.564 65.534 M226.818 68.257 C 227.160 68.600,226.794 69.150,225.351 70.457 C 222.855 72.717,196.875 98.391,194.454 100.990 C 193.434 102.084,191.160 104.456,189.400 106.261 C 182.767 113.063,176.383 119.832,175.780 120.700 C 175.436 121.195,174.925 121.600,174.645 121.600 C 174.365 121.600,173.896 122.047,173.604 122.593 C 173.311 123.140,172.741 123.692,172.336 123.820 C 171.931 123.949,171.600 124.212,171.600 124.405 C 171.600 124.707,157.846 138.631,155.749 140.451 C 155.337 140.808,154.248 141.933,153.328 142.951 C 152.408 143.968,151.541 144.800,151.399 144.800 C 151.050 144.800,150.000 145.874,150.000 146.231 C 150.000 146.390,148.965 147.482,147.700 148.657 C 144.933 151.229,145.522 150.644,141.411 154.898 C 137.220 159.235,136.975 159.651,138.029 160.646 C 138.468 161.061,139.137 161.727,139.514 162.127 C 139.891 162.527,142.240 164.867,144.734 167.327 C 147.227 169.787,149.567 172.137,149.934 172.549 C 150.300 172.961,150.832 173.501,151.115 173.749 C 151.732 174.289,155.607 178.155,156.263 178.885 C 156.518 179.168,157.688 180.336,158.863 181.481 C 161.643 184.188,161.585 184.130,164.132 186.750 C 164.654 187.287,170.729 193.347,171.950 194.548 C 172.144 194.740,174.464 197.056,177.104 199.696 C 179.744 202.336,182.060 204.651,182.252 204.840 C 185.731 208.277,192.310 214.880,192.651 215.276 C 192.899 215.564,193.439 216.106,193.851 216.480 C 194.263 216.854,194.837 217.394,195.126 217.680 C 195.416 217.966,199.867 222.385,205.018 227.500 C 215.228 237.639,216.076 238.194,217.904 235.943 C 218.287 235.471,218.932 234.796,219.338 234.443 C 219.744 234.089,220.914 232.927,221.938 231.860 C 222.962 230.793,224.132 229.623,224.538 229.260 C 224.944 228.897,226.114 227.727,227.138 226.660 C 228.162 225.593,229.348 224.423,229.774 224.060 C 230.584 223.369,233.333 220.594,234.455 219.335 C 235.004 218.719,237.871 215.890,239.946 213.919 C 240.247 213.634,241.712 212.230,243.203 210.800 C 244.693 209.370,246.248 207.894,246.657 207.520 C 247.065 207.146,247.607 206.633,247.860 206.380 C 248.113 206.127,248.653 205.591,249.060 205.189 C 249.467 204.786,249.999 204.219,250.243 203.929 C 250.486 203.638,251.116 203.004,251.643 202.520 C 252.169 202.035,252.780 201.459,253.000 201.239 C 254.585 199.653,256.946 197.600,257.184 197.600 C 257.342 197.600,257.677 197.150,257.927 196.600 C 258.178 196.050,258.591 195.600,258.845 195.600 C 259.319 195.600,260.800 194.090,260.800 193.606 C 260.800 193.457,261.230 193.105,261.756 192.824 C 262.282 192.542,262.908 191.882,263.147 191.356 C 263.387 190.830,263.781 190.400,264.023 190.400 C 264.582 190.400,267.711 187.287,268.347 186.098 C 268.612 185.604,269.026 185.200,269.267 185.200 C 269.725 185.200,271.200 183.679,271.200 183.206 C 271.200 183.057,271.630 182.705,272.156 182.424 C 272.682 182.142,273.308 181.482,273.547 180.956 C 273.787 180.430,274.163 180.000,274.382 180.000 C 274.923 180.000,279.200 175.762,279.200 175.226 C 279.200 174.992,279.400 174.800,279.645 174.800 C 280.189 174.800,286.400 168.562,286.400 168.017 C 286.400 167.803,286.805 167.416,287.300 167.158 C 288.473 166.545,297.200 157.795,297.200 157.232 C 297.200 156.994,297.408 156.800,297.663 156.800 C 298.042 156.800,302.059 153.093,304.103 150.857 C 304.377 150.558,305.254 149.658,306.053 148.857 C 306.851 148.056,307.595 147.130,307.705 146.800 C 307.845 146.380,308.039 146.539,308.352 147.326 C 309.020 149.006,308.956 222.296,308.286 223.400 C 307.682 224.394,305.657 226.697,304.632 227.556 C 304.209 227.910,302.989 229.100,301.920 230.200 C 300.851 231.300,299.817 232.350,299.622 232.533 C 299.298 232.838,295.320 236.804,294.533 237.607 C 284.674 247.669,252.321 279.401,250.640 280.659 L 248.280 282.424 210.411 282.386 C 189.584 282.366,172.068 282.468,171.487 282.614 C 170.521 282.856,166.987 280.668,166.468 279.505 C 166.342 279.223,161.685 274.230,160.774 273.400 C 160.532 273.180,159.368 272.010,158.187 270.800 C 157.006 269.590,155.896 268.473,155.720 268.317 C 154.356 267.111,148.400 261.146,148.400 260.987 C 148.400 260.699,144.971 257.121,135.800 247.842 C 131.400 243.389,127.380 239.180,126.866 238.488 C 126.353 237.795,123.203 234.450,119.866 231.055 C 114.092 225.179,107.386 218.210,105.920 216.564 C 105.546 216.144,105.047 215.620,104.811 215.400 C 104.575 215.180,103.953 214.550,103.429 214.000 C 102.904 213.450,102.233 212.797,101.938 212.549 C 101.642 212.301,101.094 211.761,100.720 211.349 C 100.346 210.937,99.847 210.420,99.611 210.200 C 99.375 209.980,98.749 209.350,98.220 208.800 C 97.691 208.250,97.020 207.557,96.729 207.260 C 96.438 206.964,95.722 206.232,95.137 205.635 L 94.074 204.548 93.937 164.317 L 93.800 124.085 96.400 121.440 C 97.830 119.985,99.204 118.595,99.454 118.351 C 105.494 112.443,107.600 110.290,107.600 110.021 C 107.600 109.841,107.973 109.596,108.430 109.476 C 108.886 109.357,109.357 108.886,109.476 108.430 C 109.596 107.973,109.844 107.600,110.028 107.600 C 110.212 107.600,113.507 104.495,117.351 100.700 C 121.195 96.905,124.535 93.620,124.773 93.400 C 125.012 93.180,128.439 89.760,132.388 85.800 C 136.337 81.840,139.752 78.420,139.977 78.200 C 142.620 75.617,146.400 71.490,146.400 71.187 C 146.400 70.974,146.657 70.800,146.971 70.800 C 147.285 70.800,147.978 70.243,148.511 69.562 C 149.063 68.856,150.065 68.180,150.840 67.991 C 153.044 67.453,226.270 67.709,226.818 68.257 M139.690 296.586 C 139.045 297.128,137.759 297.693,136.830 297.842 C 135.173 298.107,132.245 300.112,131.425 301.545 C 131.219 301.905,130.634 302.528,130.125 302.929 C 129.616 303.330,129.200 303.980,129.200 304.374 C 129.200 304.768,128.675 305.751,128.033 306.559 C 125.816 309.348,125.647 325.249,127.814 327.114 C 128.419 327.634,129.028 328.631,129.168 329.329 C 129.319 330.082,129.775 330.756,130.286 330.984 C 130.760 331.195,131.338 331.784,131.569 332.293 C 131.817 332.837,132.473 333.315,133.160 333.452 C 133.839 333.588,134.412 334.001,134.526 334.438 C 134.857 335.705,136.580 336.000,143.657 336.000 L 150.462 336.000 151.636 334.825 C 152.283 334.179,153.124 333.549,153.506 333.426 C 154.495 333.106,156.000 330.740,156.000 329.504 C 156.000 327.087,151.164 325.716,150.220 327.866 C 149.426 329.673,139.058 329.932,138.385 328.161 C 138.168 327.590,137.644 327.032,137.220 326.921 C 136.703 326.786,136.222 325.996,135.758 324.521 C 135.377 323.312,134.736 322.117,134.333 321.865 C 133.180 321.145,133.238 312.451,134.404 311.396 C 134.846 310.996,135.462 309.812,135.773 308.765 C 136.427 306.565,137.475 305.378,139.521 304.524 C 140.319 304.190,141.159 303.687,141.386 303.405 C 142.200 302.397,143.927 302.484,146.388 303.657 C 147.709 304.285,149.037 304.800,149.341 304.800 C 149.644 304.800,150.357 305.166,150.925 305.613 C 152.238 306.646,153.643 306.340,155.001 304.726 C 156.196 303.306,156.280 302.178,155.232 301.617 C 154.810 301.391,154.259 300.585,154.009 299.827 C 153.591 298.560,153.366 298.409,151.277 297.989 C 150.025 297.738,148.805 297.284,148.567 296.982 C 147.229 295.279,141.544 295.026,139.690 296.586 M258.803 296.048 C 258.255 296.267,257.668 296.693,257.499 296.996 C 257.329 297.298,256.198 297.751,254.985 298.003 C 253.311 298.351,252.571 298.743,251.917 299.627 C 251.443 300.268,250.718 300.899,250.305 301.030 C 249.892 301.161,249.254 301.928,248.886 302.734 C 248.519 303.540,247.747 304.759,247.172 305.442 C 246.345 306.424,246.076 307.264,245.890 309.442 C 245.760 310.959,245.372 312.869,245.027 313.687 C 244.246 315.541,244.215 318.757,244.968 319.833 C 245.281 320.279,245.660 321.984,245.812 323.622 C 246.100 326.723,246.801 328.400,247.809 328.400 C 248.138 328.400,248.400 328.763,248.400 329.220 C 248.400 330.824,249.620 332.454,251.416 333.248 C 252.383 333.676,253.316 334.264,253.488 334.555 C 254.795 336.766,270.093 336.662,270.674 334.438 C 270.786 334.011,271.355 333.589,271.990 333.462 C 273.773 333.105,274.843 328.398,273.411 327.209 C 272.435 326.399,269.927 326.603,269.156 327.555 C 266.315 331.063,256.769 329.571,255.002 325.342 C 254.693 324.604,254.175 324.000,253.849 324.000 C 252.543 324.000,252.346 310.414,253.639 309.467 C 254.376 308.928,255.600 306.696,255.600 305.893 C 255.600 305.580,256.548 305.047,257.812 304.649 C 259.028 304.265,260.241 303.603,260.508 303.176 C 261.176 302.106,262.860 302.193,264.622 303.389 C 265.424 303.934,266.737 304.496,267.540 304.639 C 268.388 304.790,269.452 305.381,270.077 306.050 C 271.307 307.362,271.549 307.418,272.624 306.632 C 273.272 306.158,273.400 305.573,273.400 303.074 C 273.400 299.346,272.846 298.606,269.541 297.924 C 268.254 297.658,267.200 297.301,267.200 297.130 C 267.200 295.870,261.192 295.095,258.803 296.048 M161.760 296.285 C 160.467 297.209,160.377 298.450,160.289 316.533 C 160.187 337.281,159.970 336.000,163.587 336.000 C 167.437 336.000,167.200 337.267,167.200 316.675 L 167.200 298.813 166.100 297.592 C 164.986 296.357,162.646 295.652,161.760 296.285 M233.626 297.251 C 232.827 298.560,232.803 299.138,232.801 316.832 L 232.800 335.065 233.718 335.556 C 234.225 335.828,235.608 335.992,236.808 335.924 C 240.156 335.733,240.022 336.591,239.903 316.109 L 239.800 298.417 238.761 297.379 C 237.010 295.629,234.650 295.570,233.626 297.251 M146.896 297.368 C 148.273 297.900,150.050 298.444,150.845 298.576 C 153.923 299.087,155.399 302.821,153.179 304.477 C 152.041 305.325,148.838 304.404,147.697 302.901 C 147.099 302.114,140.980 301.888,140.487 302.635 C 140.329 302.874,139.330 303.575,138.266 304.193 C 136.944 304.960,136.137 305.773,135.717 306.758 C 135.379 307.551,134.911 308.560,134.678 309.000 C 134.444 309.440,133.971 310.340,133.626 311.000 C 132.726 312.725,132.787 320.911,133.713 322.600 C 134.075 323.260,134.654 324.394,135.000 325.121 C 135.994 327.211,138.388 329.297,140.200 329.652 C 144.478 330.490,149.069 329.858,150.808 328.193 C 151.844 327.200,152.010 327.161,153.063 327.663 C 154.974 328.575,154.732 332.387,152.722 333.025 C 152.310 333.155,151.630 333.631,151.211 334.081 C 149.145 336.298,137.788 336.211,135.151 333.957 C 134.408 333.322,133.644 332.801,133.453 332.801 C 132.604 332.799,129.926 329.389,128.529 326.530 L 127.000 323.400 127.000 317.000 C 127.000 310.636,127.007 310.586,128.262 308.000 C 128.956 306.570,129.640 305.004,129.782 304.520 C 129.924 304.037,130.383 303.533,130.800 303.400 C 131.217 303.267,131.661 302.838,131.786 302.445 C 132.161 301.263,135.986 298.400,137.191 298.400 C 137.787 298.400,139.067 297.963,140.037 297.430 C 142.300 296.185,143.799 296.171,146.896 297.368 M265.000 297.200 C 265.660 297.637,267.100 298.113,268.200 298.258 C 271.974 298.756,274.090 301.918,272.590 304.820 C 271.871 306.211,271.465 306.278,270.308 305.200 C 269.836 304.760,269.149 304.400,268.783 304.400 C 268.417 304.400,267.618 303.938,267.008 303.373 C 265.589 302.058,261.213 301.582,259.600 302.568 C 259.050 302.904,257.914 303.520,257.076 303.936 C 256.237 304.353,255.247 305.241,254.876 305.910 C 254.504 306.579,253.874 307.579,253.475 308.131 C 251.316 311.123,251.801 322.684,254.217 325.850 C 254.978 326.846,255.600 327.837,255.600 328.051 C 255.600 330.343,267.745 330.436,269.916 328.160 C 271.714 326.276,273.200 327.148,273.200 330.086 C 273.200 331.832,273.079 332.084,271.900 332.790 C 271.185 333.218,270.194 333.923,269.698 334.356 C 267.495 336.278,256.485 336.060,254.194 334.048 C 253.412 333.362,252.553 332.800,252.285 332.800 C 251.621 332.800,249.876 330.897,249.019 329.238 C 248.632 328.488,247.976 327.512,247.562 327.068 C 247.149 326.623,246.727 325.706,246.626 325.030 C 245.754 319.199,245.647 316.274,246.140 311.800 C 246.576 307.851,246.674 307.486,247.548 306.548 C 247.976 306.089,248.695 304.989,249.147 304.105 C 250.115 302.207,254.496 298.405,255.735 298.388 C 256.211 298.381,257.590 297.951,258.800 297.432 C 261.564 296.248,263.455 296.177,265.000 297.200 M173.093 297.525 C 171.204 297.681,170.202 298.987,170.595 300.779 C 170.947 302.379,171.269 302.531,174.583 302.661 C 176.133 302.722,177.580 302.781,177.800 302.792 C 178.020 302.804,178.759 302.704,179.443 302.570 C 181.184 302.228,181.200 302.384,181.200 320.036 C 181.200 337.400,180.891 336.141,185.101 335.920 C 188.534 335.739,188.427 336.272,188.378 319.600 C 188.355 311.790,188.351 305.103,188.368 304.740 C 188.438 303.286,191.049 302.337,193.671 302.813 C 195.509 303.146,196.200 303.132,196.657 302.753 C 197.313 302.208,202.500 302.192,203.465 302.732 C 203.781 302.909,205.209 302.886,206.639 302.680 C 208.069 302.474,209.366 302.432,209.520 302.586 C 209.674 302.740,209.846 309.736,209.903 318.133 C 209.959 326.530,210.093 333.787,210.200 334.260 C 210.596 336.007,215.205 336.603,217.500 335.204 L 218.800 334.412 218.800 319.656 C 218.800 311.540,218.909 304.356,219.042 303.691 L 219.284 302.482 223.822 302.541 C 226.488 302.576,228.530 302.430,228.772 302.188 C 229.619 301.341,229.696 299.407,228.922 298.451 L 228.177 297.532 213.989 297.606 C 206.185 297.648,199.350 297.683,198.800 297.685 C 198.250 297.686,192.580 297.623,186.200 297.544 C 179.820 297.465,173.922 297.456,173.093 297.525 M165.656 298.365 L 166.600 299.130 166.600 316.551 C 166.600 336.037,166.747 335.069,163.727 335.474 C 160.683 335.882,160.800 336.626,160.800 316.860 C 160.800 301.685,160.882 299.261,161.423 298.489 C 162.213 297.360,164.339 297.298,165.656 298.365 M237.759 298.054 C 239.290 298.751,239.286 298.704,239.219 317.000 C 239.151 335.912,239.284 334.991,236.544 335.426 C 233.053 335.979,233.159 336.599,233.288 316.449 C 233.417 296.226,233.450 296.091,237.759 298.054 M197.596 298.645 C 198.965 299.193,199.309 299.208,199.866 298.745 C 200.548 298.179,225.331 297.645,227.355 298.153 C 228.706 298.492,229.284 300.035,228.458 301.098 C 227.866 301.859,227.328 301.958,223.132 302.072 C 220.565 302.143,218.315 302.350,218.132 302.533 C 217.950 302.716,217.744 309.853,217.675 318.394 C 217.557 332.974,217.504 333.963,216.800 334.600 C 215.879 335.433,213.588 335.543,212.234 334.818 L 211.226 334.279 211.113 318.572 C 211.051 309.934,210.853 302.719,210.673 302.540 C 210.493 302.360,208.035 302.111,205.210 301.986 C 201.841 301.837,199.854 301.577,199.437 301.231 C 198.908 300.792,198.688 300.795,198.140 301.251 C 197.705 301.613,195.948 301.868,192.974 302.000 C 190.495 302.110,188.316 302.350,188.133 302.533 C 187.950 302.716,187.710 310.036,187.600 318.800 C 187.381 336.286,187.531 335.400,184.787 335.400 C 181.661 335.400,181.824 336.272,181.600 318.280 L 181.400 302.200 176.716 302.000 C 171.500 301.777,170.430 301.251,171.301 299.337 C 171.874 298.082,171.705 298.098,184.492 298.046 C 194.208 298.007,196.233 298.100,197.596 298.645 " stroke="none" fill="#a8dce5" fill-rule="evenodd"></path><path id="path4" d="M224.720 68.293 C 225.372 68.818,225.555 69.252,225.349 69.788 C 225.068 70.521,225.091 70.520,226.117 69.772 C 227.725 68.599,227.576 68.282,225.200 67.824 L 223.800 67.554 224.720 68.293 M307.600 146.811 C 307.600 147.125,306.853 148.065,305.941 148.899 C 303.974 150.697,304.074 151.087,306.232 150.025 L 307.800 149.252 308.314 150.326 C 308.791 151.322,308.817 151.245,308.671 149.276 C 308.530 147.384,307.600 145.243,307.600 146.811 M138.400 161.613 C 138.400 161.826,138.577 162.000,138.792 162.000 C 139.008 162.000,139.296 162.442,139.431 162.981 C 139.567 163.521,140.605 164.794,141.739 165.809 C 142.872 166.824,143.980 167.844,144.200 168.075 C 144.917 168.827,159.392 183.279,159.693 183.543 C 159.854 183.684,160.734 184.700,161.648 185.800 C 162.561 186.900,163.564 187.949,163.875 188.131 C 164.186 188.314,169.095 193.084,174.783 198.731 C 180.471 204.379,185.312 209.180,185.541 209.400 C 185.769 209.620,186.641 210.576,187.478 211.525 C 188.315 212.474,189.495 213.514,190.100 213.835 C 190.705 214.157,191.200 214.630,191.200 214.887 C 191.200 215.359,199.336 223.573,200.463 224.238 C 200.800 224.437,201.940 225.590,202.997 226.800 C 204.054 228.010,205.342 229.267,205.860 229.593 C 206.377 229.919,206.800 230.370,206.800 230.595 C 206.800 230.974,207.978 232.094,212.248 235.778 C 213.224 236.619,214.285 237.181,214.848 237.154 C 215.600 237.117,215.643 237.067,215.053 236.915 C 214.643 236.810,210.110 232.556,204.980 227.462 C 199.850 222.368,195.416 217.966,195.126 217.680 C 194.837 217.394,194.263 216.854,193.851 216.480 C 193.439 216.106,192.899 215.564,192.651 215.276 C 192.310 214.880,185.731 208.277,182.252 204.840 C 182.060 204.651,179.744 202.336,177.104 199.696 C 174.464 197.056,172.144 194.740,171.950 194.548 C 170.729 193.347,164.654 187.287,164.132 186.750 C 161.619 184.165,161.605 184.151,158.863 181.481 C 157.688 180.336,156.518 179.168,156.263 178.885 C 155.607 178.155,151.732 174.289,151.115 173.749 C 150.832 173.501,150.300 172.961,149.932 172.549 C 149.565 172.137,147.090 169.655,144.432 167.033 C 141.775 164.412,139.600 162.136,139.600 161.976 C 139.600 161.816,139.330 161.582,139.000 161.455 C 138.670 161.329,138.400 161.399,138.400 161.613 M93.925 202.395 C 93.672 204.051,93.749 204.287,94.925 205.452 C 96.284 206.797,96.703 207.223,98.220 208.800 C 98.749 209.350,99.375 209.980,99.611 210.200 C 99.847 210.420,100.346 210.937,100.720 211.349 C 101.094 211.761,101.642 212.301,101.938 212.549 C 102.233 212.797,102.904 213.450,103.429 214.000 C 103.953 214.550,104.575 215.180,104.811 215.400 C 105.047 215.620,105.546 216.144,105.920 216.564 C 107.386 218.210,114.092 225.179,119.866 231.055 C 123.203 234.450,126.353 237.795,126.866 238.488 C 127.380 239.180,131.400 243.389,135.800 247.842 C 144.971 257.121,148.400 260.699,148.400 260.987 C 148.400 261.146,154.356 267.111,155.720 268.317 C 155.896 268.473,157.006 269.590,158.187 270.800 C 159.368 272.010,160.532 273.180,160.774 273.400 C 161.685 274.230,166.342 279.223,166.468 279.505 C 167.294 281.354,171.033 283.113,172.224 282.213 C 172.959 281.657,172.932 281.625,171.720 281.613 C 170.512 281.601,166.800 279.516,166.800 278.850 C 166.800 278.590,164.609 275.958,163.645 275.060 C 163.256 274.697,162.055 273.474,161.150 272.519 C 160.847 272.200,159.700 271.062,158.600 269.990 C 157.500 268.919,155.749 267.178,154.709 266.121 C 153.668 265.064,152.543 263.930,152.209 263.600 C 151.874 263.270,150.475 261.757,149.100 260.239 C 147.725 258.720,143.182 254.040,139.004 249.839 C 134.826 245.637,130.514 241.128,129.421 239.817 C 128.328 238.507,124.546 234.529,121.017 230.977 C 109.799 219.688,104.400 214.057,104.400 213.645 C 104.400 213.425,103.860 212.926,103.199 212.536 C 102.539 212.146,101.906 211.535,101.793 211.177 C 101.679 210.820,101.143 210.290,100.600 210.000 C 100.057 209.710,99.508 209.141,99.380 208.736 C 99.251 208.331,98.970 208.000,98.754 208.000 C 97.545 208.000,94.447 204.044,94.325 202.344 L 94.200 200.600 93.925 202.395 M174.505 282.287 C 175.114 282.379,176.014 282.377,176.505 282.282 C 176.997 282.187,176.500 282.111,175.400 282.114 C 174.300 282.117,173.897 282.195,174.505 282.287 M140.037 297.430 C 139.067 297.963,137.787 298.400,137.191 298.400 C 135.986 298.400,132.161 301.263,131.786 302.445 C 131.661 302.838,131.217 303.267,130.800 303.400 C 130.383 303.533,129.924 304.037,129.782 304.520 C 129.640 305.004,128.956 306.570,128.262 308.000 C 127.007 310.586,127.000 310.636,127.000 317.000 L 127.000 323.400 128.529 326.530 C 129.926 329.389,132.604 332.799,133.453 332.801 C 133.644 332.801,134.408 333.322,135.151 333.957 C 137.788 336.211,149.145 336.298,151.211 334.081 C 151.630 333.631,152.310 333.155,152.722 333.025 C 154.732 332.387,154.974 328.575,153.063 327.663 C 152.010 327.161,151.844 327.200,150.808 328.193 C 149.069 329.858,144.478 330.490,140.200 329.652 C 138.388 329.297,135.994 327.211,135.000 325.121 C 134.654 324.394,134.075 323.260,133.713 322.600 C 132.787 320.911,132.726 312.725,133.626 311.000 C 133.971 310.340,134.444 309.440,134.678 309.000 C 134.911 308.560,135.379 307.551,135.717 306.758 C 136.137 305.773,136.944 304.960,138.266 304.193 C 139.330 303.575,140.329 302.874,140.487 302.635 C 140.980 301.888,147.099 302.114,147.697 302.901 C 148.838 304.404,152.041 305.325,153.179 304.477 C 155.399 302.821,153.923 299.087,150.845 298.576 C 150.050 298.444,148.273 297.900,146.896 297.368 C 143.799 296.171,142.300 296.185,140.037 297.430 M258.800 297.432 C 257.590 297.951,256.211 298.381,255.735 298.388 C 254.496 298.405,250.115 302.207,249.147 304.105 C 248.695 304.989,247.976 306.089,247.548 306.548 C 246.674 307.486,246.576 307.851,246.140 311.800 C 245.647 316.274,245.754 319.199,246.626 325.030 C 246.727 325.706,247.149 326.623,247.562 327.068 C 247.976 327.512,248.632 328.488,249.019 329.238 C 249.876 330.897,251.621 332.800,252.285 332.800 C 252.553 332.800,253.412 333.362,254.194 334.048 C 256.485 336.060,267.495 336.278,269.698 334.356 C 270.194 333.923,271.185 333.218,271.900 332.790 C 273.079 332.084,273.200 331.832,273.200 330.086 C 273.200 327.148,271.714 326.276,269.916 328.160 C 267.745 330.436,255.600 330.343,255.600 328.051 C 255.600 327.837,254.978 326.846,254.217 325.850 C 251.801 322.684,251.316 311.123,253.475 308.131 C 253.874 307.579,254.504 306.579,254.876 305.910 C 255.247 305.241,256.237 304.353,257.076 303.936 C 257.914 303.520,259.050 302.904,259.600 302.568 C 261.213 301.582,265.589 302.058,267.008 303.373 C 267.618 303.938,268.417 304.400,268.783 304.400 C 269.149 304.400,269.836 304.760,270.308 305.200 C 271.465 306.278,271.871 306.211,272.590 304.820 C 274.090 301.918,271.974 298.756,268.200 298.258 C 267.100 298.113,265.660 297.637,265.000 297.200 C 263.455 296.177,261.564 296.248,258.800 297.432 M161.423 298.489 C 160.882 299.261,160.800 301.685,160.800 316.860 C 160.800 336.626,160.683 335.882,163.727 335.474 C 166.747 335.069,166.600 336.037,166.600 316.551 L 166.600 299.130 165.656 298.365 C 164.339 297.298,162.213 297.360,161.423 298.489 M233.949 298.261 C 232.872 299.558,232.950 333.750,234.032 334.832 C 234.965 335.765,237.690 335.676,238.678 334.681 C 239.200 334.157,239.523 300.393,239.019 299.154 C 238.421 297.687,234.936 297.073,233.949 298.261 M172.356 298.265 C 171.300 298.547,170.794 300.104,171.462 301.018 C 171.954 301.694,172.666 301.827,176.716 302.000 L 181.400 302.200 181.600 318.280 C 181.824 336.272,181.661 335.400,184.787 335.400 C 187.531 335.400,187.381 336.286,187.600 318.800 C 187.710 310.036,187.950 302.716,188.133 302.533 C 188.316 302.350,190.495 302.110,192.974 302.000 C 195.948 301.868,197.705 301.613,198.140 301.251 C 198.688 300.795,198.908 300.792,199.437 301.231 C 199.854 301.577,201.841 301.837,205.210 301.986 C 208.035 302.111,210.493 302.360,210.673 302.540 C 210.853 302.719,211.051 309.934,211.113 318.572 L 211.226 334.279 212.234 334.818 C 213.588 335.543,215.879 335.433,216.800 334.600 C 217.504 333.963,217.557 332.974,217.675 318.394 C 217.744 309.853,217.950 302.716,218.132 302.533 C 218.315 302.350,220.565 302.143,223.132 302.072 C 227.328 301.958,227.866 301.859,228.458 301.098 C 229.284 300.035,228.706 298.492,227.355 298.153 C 225.331 297.645,200.548 298.179,199.866 298.745 C 199.309 299.208,198.965 299.193,197.596 298.645 C 196.064 298.032,174.446 297.706,172.356 298.265 M147.037 299.012 C 150.283 299.403,151.792 300.101,152.511 301.542 C 153.585 303.695,151.146 304.346,149.220 302.420 C 146.887 300.087,140.634 300.123,138.115 302.482 C 137.628 302.938,136.824 303.514,136.327 303.761 C 135.830 304.009,135.200 304.659,134.926 305.206 C 131.729 311.584,131.933 310.712,132.073 317.428 C 132.196 323.376,132.229 323.582,133.236 324.675 C 133.806 325.294,134.503 326.385,134.785 327.100 C 135.067 327.815,135.447 328.400,135.630 328.400 C 135.814 328.400,136.399 328.835,136.931 329.367 C 139.408 331.844,150.159 331.789,151.557 329.292 C 152.034 328.439,152.321 328.706,152.639 330.296 C 152.860 331.402,152.744 331.609,151.543 332.229 C 150.805 332.611,149.990 333.210,149.733 333.561 C 148.826 334.802,138.703 334.717,136.867 333.454 C 136.060 332.899,134.888 332.252,134.261 332.018 C 133.635 331.783,133.040 331.275,132.939 330.890 C 132.839 330.505,132.250 329.899,131.631 329.544 C 130.750 329.038,130.446 328.503,130.232 327.077 C 130.082 326.076,129.564 324.753,129.080 324.138 C 128.262 323.098,128.200 322.596,128.200 317.000 C 128.200 311.404,128.262 310.902,129.080 309.862 C 129.564 309.247,130.079 307.944,130.226 306.966 C 130.425 305.636,130.783 304.982,131.646 304.367 C 132.281 303.915,132.800 303.365,132.800 303.144 C 132.800 302.628,133.824 301.600,134.338 301.600 C 134.555 301.600,135.063 301.150,135.467 300.600 C 136.156 299.660,142.612 298.199,144.237 298.615 C 144.478 298.676,145.738 298.855,147.037 299.012 M266.717 299.168 C 268.946 299.413,269.415 299.626,270.824 301.036 C 273.743 303.955,270.537 305.014,267.523 302.126 C 266.581 301.224,265.943 301.009,263.801 300.872 C 258.894 300.560,258.055 300.991,252.929 306.462 C 250.232 309.340,250.124 323.937,252.781 326.542 C 253.263 327.014,253.978 327.947,254.371 328.615 C 256.133 331.614,267.491 332.146,270.277 329.359 C 271.538 328.099,271.850 328.148,272.151 329.657 C 272.410 330.951,271.900 332.000,271.011 332.000 C 270.741 332.000,269.728 332.537,268.760 333.193 C 266.096 334.998,257.983 335.018,255.200 333.226 C 252.388 331.415,250.408 329.523,249.773 328.041 C 249.453 327.294,248.894 326.464,248.530 326.198 C 246.930 325.028,246.892 308.452,248.487 307.559 C 248.822 307.372,249.333 306.630,249.623 305.909 C 250.003 304.968,254.405 300.081,255.338 299.566 C 255.753 299.337,263.157 298.562,263.600 298.701 C 263.930 298.805,265.332 299.015,266.717 299.168 M165.400 316.800 L 165.400 334.200 163.600 334.200 L 161.800 334.200 161.689 317.600 C 161.559 298.190,161.457 299.114,163.713 299.278 L 165.400 299.400 165.400 316.800 M196.748 299.737 C 197.496 300.638,196.834 300.800,192.395 300.800 C 186.075 300.800,186.625 299.158,186.479 318.441 L 186.358 334.400 184.579 334.400 L 182.800 334.400 182.800 318.400 C 182.800 299.111,183.369 300.800,176.867 300.800 C 172.366 300.800,171.911 300.697,172.270 299.761 C 172.582 298.950,196.075 298.926,196.748 299.737 M227.730 299.761 C 228.088 300.696,227.634 300.800,223.193 300.800 C 215.161 300.800,215.600 299.746,215.600 319.036 C 215.600 334.561,215.586 334.684,213.877 334.255 L 213.000 334.035 213.124 320.118 C 213.308 299.596,213.784 300.800,205.480 300.800 C 200.771 300.800,200.098 300.645,200.852 299.737 C 201.526 298.925,227.418 298.948,227.730 299.761 M238.099 299.700 C 238.201 299.975,238.221 307.400,238.145 316.200 C 238.068 325.000,238.004 332.705,238.003 333.323 C 238.000 334.396,237.925 334.441,236.300 334.323 L 234.600 334.200 234.496 317.200 C 234.378 297.983,234.253 299.200,236.345 299.200 C 237.235 299.200,237.994 299.416,238.099 299.700 " stroke="none" fill="#7c7c7c" fill-rule="evenodd"></path></g></svg>