<svg id="svg" version="1.1" width="400" height="355.24475524475525" viewBox="0 0 400 355.24475524475525" xmlns="http://www.w3.org/2000/svg" xmlns:xlink="http://www.w3.org/1999/xlink" ><g id="svgg"><path id="path0" d="M103.080 21.078 C 102.115 21.819,101.788 22.851,101.761 25.237 C 101.746 26.526,101.568 27.596,101.356 27.666 C 101.148 27.736,100.978 28.419,100.978 29.185 L 100.978 30.578 94.735 30.578 C 91.150 30.578,88.575 30.713,88.688 30.896 C 88.796 31.071,88.646 31.306,88.354 31.418 C 88.061 31.530,87.822 32.037,87.822 32.543 C 87.822 33.050,87.684 33.379,87.515 33.274 C 87.346 33.170,87.177 34.476,87.139 36.177 C 87.059 39.833,87.195 39.626,84.950 39.507 C 83.860 39.449,82.934 39.596,82.579 39.884 C 82.093 40.277,82.045 40.276,82.286 39.876 C 82.518 39.490,82.432 39.472,81.844 39.787 C 81.442 40.002,80.543 40.178,79.846 40.178 C 79.148 40.178,78.578 40.347,78.578 40.554 C 78.578 40.761,78.450 40.852,78.294 40.756 C 77.342 40.167,76.494 42.218,76.575 44.911 C 76.614 46.203,76.523 47.067,76.373 46.830 C 76.213 46.578,76.098 46.879,76.094 47.556 C 76.091 48.191,75.929 48.711,75.733 48.711 C 75.530 48.711,75.378 49.778,75.378 51.200 L 75.378 53.689 73.956 53.689 C 73.173 53.689,72.533 53.849,72.533 54.044 C 72.533 54.240,71.983 54.400,71.310 54.400 C 70.637 54.400,69.988 54.560,69.867 54.756 C 69.746 54.951,69.409 55.111,69.118 55.111 C 68.424 55.111,66.844 56.705,66.844 57.406 C 66.844 57.708,66.687 57.956,66.494 57.956 C 66.031 57.956,66.039 69.944,66.502 70.231 C 66.692 70.347,66.844 72.406,66.844 74.836 C 66.844 77.306,66.993 79.282,67.184 79.348 C 67.371 79.413,67.547 81.387,67.577 83.733 C 67.606 86.080,67.773 88.176,67.948 88.392 C 68.124 88.608,68.279 90.648,68.293 92.926 C 68.307 95.211,68.467 97.067,68.648 97.067 C 68.833 97.067,68.978 99.020,68.978 101.511 C 68.978 104.237,69.115 105.956,69.333 105.956 C 69.553 105.956,69.689 107.852,69.689 110.933 C 69.689 114.015,69.824 115.911,70.044 115.911 C 70.262 115.911,70.400 117.620,70.400 120.326 C 70.400 122.754,70.549 124.794,70.730 124.859 C 70.912 124.924,71.097 126.978,71.141 129.422 C 71.186 131.867,71.346 133.949,71.497 134.050 C 71.648 134.151,71.807 136.071,71.851 138.317 C 71.894 140.562,72.055 142.564,72.209 142.764 C 72.474 143.111,72.652 145.836,73.090 156.267 C 73.197 158.809,73.435 161.041,73.620 161.227 C 73.805 161.412,73.956 163.375,73.956 165.587 C 73.956 168.172,74.113 169.862,74.397 170.316 C 74.748 170.878,74.748 171.166,74.397 171.729 C 74.142 172.137,73.956 173.629,73.956 175.263 C 73.956 176.819,73.796 178.190,73.600 178.311 C 73.394 178.439,73.244 180.396,73.244 182.975 C 73.244 185.420,73.364 187.346,73.511 187.255 C 73.658 187.165,73.801 187.482,73.830 187.961 C 73.859 188.439,74.219 189.123,74.630 189.479 C 75.310 190.069,75.378 190.503,75.378 194.264 C 75.378 196.784,75.517 198.400,75.733 198.400 C 75.929 198.400,76.089 198.880,76.089 199.467 C 76.089 200.053,76.223 200.533,76.387 200.533 C 76.552 200.533,76.612 201.747,76.521 203.229 C 76.417 204.916,76.511 206.215,76.770 206.700 C 76.999 207.126,77.229 207.953,77.282 208.538 C 77.340 209.171,77.561 209.561,77.827 209.502 C 78.074 209.449,78.174 209.569,78.050 209.769 C 77.926 209.969,78.114 210.145,78.468 210.158 C 79.043 210.181,79.037 210.212,78.408 210.458 C 77.716 210.728,77.717 210.739,78.450 211.132 C 78.860 211.351,79.305 211.421,79.439 211.287 C 79.573 211.153,79.576 211.319,79.447 211.655 C 79.313 212.007,79.380 212.267,79.606 212.267 C 79.823 212.267,80.011 212.067,80.024 211.822 C 80.037 211.578,80.216 211.725,80.422 212.150 C 80.841 213.017,93.522 213.467,94.037 212.634 C 94.174 212.413,96.020 212.267,98.658 212.267 C 101.153 212.267,103.103 212.119,103.170 211.925 C 103.237 211.733,105.286 211.561,107.822 211.533 C 110.316 211.505,112.356 211.363,112.356 211.217 C 112.356 211.071,114.037 211.016,116.092 211.094 C 118.947 211.202,120.002 211.115,120.559 210.724 C 121.129 210.325,122.200 210.250,125.477 210.382 C 128.851 210.517,129.767 210.449,130.188 210.028 C 130.606 209.610,131.566 209.535,135.044 209.650 C 137.852 209.743,139.378 209.665,139.378 209.430 C 139.378 209.230,139.605 209.067,139.883 209.067 C 140.551 209.067,140.948 207.164,140.468 206.266 C 140.258 205.874,140.089 203.594,140.089 201.157 C 140.089 197.248,140.009 196.671,139.378 195.993 C 138.806 195.380,138.667 194.738,138.667 192.726 L 138.667 190.222 134.933 190.222 C 132.681 190.222,131.200 190.081,131.200 189.867 C 131.200 189.671,130.889 189.511,130.510 189.511 C 130.130 189.511,129.721 189.351,129.600 189.156 C 129.479 188.960,129.060 188.800,128.669 188.800 C 128.278 188.800,128.031 188.680,128.119 188.533 C 128.208 188.387,128.069 188.071,127.811 187.833 C 127.441 187.491,127.304 187.491,127.165 187.833 C 127.069 188.071,126.964 187.867,126.933 187.378 C 126.902 186.889,126.793 186.700,126.689 186.959 C 126.468 187.512,125.511 185.857,125.511 184.919 C 125.511 184.590,125.355 184.164,125.165 183.974 C 124.653 183.462,124.595 179.802,125.097 179.634 C 125.325 179.558,125.511 179.190,125.511 178.815 C 125.511 178.440,125.678 178.133,125.882 178.133 C 126.086 178.133,126.206 177.928,126.149 177.677 C 126.013 177.082,128.521 174.578,129.254 174.578 C 129.565 174.578,129.721 174.418,129.600 174.222 C 129.469 174.011,129.893 173.867,130.646 173.867 C 131.342 173.867,131.911 173.707,131.911 173.511 C 131.911 173.280,136.593 173.156,145.244 173.156 C 153.896 173.156,158.578 173.280,158.578 173.511 C 158.578 173.707,159.058 173.867,159.644 173.867 C 160.231 173.867,160.711 174.027,160.711 174.222 C 160.711 174.418,161.085 174.578,161.541 174.578 C 162.153 174.578,162.737 175.115,163.763 176.622 C 164.529 177.747,165.252 178.712,165.371 178.768 C 165.489 178.824,165.514 179.245,165.426 179.704 C 165.338 180.163,165.441 180.647,165.655 180.779 C 165.869 180.912,166.042 181.530,166.039 182.154 C 166.035 183.055,165.955 183.179,165.655 182.756 C 165.374 182.361,165.331 182.638,165.487 183.822 C 165.608 184.731,165.570 185.226,165.400 184.968 C 165.190 184.648,164.899 184.936,164.417 185.942 C 164.041 186.727,163.604 187.371,163.446 187.374 C 163.287 187.376,163.257 187.538,163.378 187.733 C 163.499 187.929,163.268 188.089,162.865 188.089 C 162.463 188.089,162.133 188.249,162.133 188.444 C 162.133 188.640,161.893 188.800,161.600 188.800 C 161.307 188.800,161.067 188.960,161.067 189.156 C 161.067 189.351,160.667 189.511,160.178 189.511 C 159.689 189.511,159.289 189.671,159.289 189.867 C 159.289 190.080,157.867 190.222,155.733 190.222 L 152.178 190.222 152.178 196.800 C 152.178 203.089,152.208 203.378,152.873 203.378 C 153.483 203.378,153.580 203.669,153.673 205.778 L 153.778 208.178 155.672 208.277 C 156.718 208.331,157.477 208.233,157.369 208.058 C 157.116 207.648,160.159 207.370,163.552 207.493 C 165.144 207.551,166.409 207.429,166.697 207.190 C 166.999 206.939,168.722 206.805,171.323 206.829 C 173.880 206.853,175.649 206.717,175.943 206.475 C 176.230 206.238,178.067 206.081,180.565 206.079 C 182.846 206.078,184.809 205.936,184.929 205.763 C 185.049 205.591,187.169 205.456,189.640 205.464 C 192.262 205.472,194.133 205.337,194.133 205.139 C 194.133 204.710,202.553 204.683,202.817 205.111 C 202.923 205.283,204.230 205.446,205.722 205.475 C 207.213 205.504,208.755 205.700,209.149 205.910 C 209.721 206.217,209.806 206.197,209.575 205.813 C 209.347 205.435,209.395 205.420,209.798 205.743 C 210.082 205.970,211.484 206.152,212.934 206.150 C 214.506 206.148,215.656 206.309,215.805 206.550 C 215.970 206.817,216.977 206.900,218.787 206.795 C 220.837 206.677,221.646 206.763,222.023 207.141 C 222.383 207.501,223.441 207.644,225.731 207.644 C 227.494 207.644,229.028 207.793,229.140 207.974 C 229.252 208.156,230.581 208.288,232.094 208.269 C 233.607 208.249,235.164 208.355,235.556 208.505 C 236.122 208.723,236.158 208.700,235.733 208.395 C 235.354 208.122,235.332 208.009,235.656 208.005 C 235.906 208.002,236.207 208.251,236.325 208.557 C 236.503 209.020,237.037 209.086,239.490 208.950 C 241.847 208.819,242.481 208.889,242.639 209.301 C 242.795 209.706,243.470 209.791,245.832 209.702 C 247.479 209.640,248.762 209.695,248.682 209.824 C 248.603 209.953,248.797 210.158,249.114 210.280 C 250.177 210.688,250.667 209.809,250.667 207.494 C 250.667 204.371,251.202 203.384,252.897 203.381 L 254.238 203.378 254.141 196.889 L 254.044 190.400 250.578 190.298 C 248.661 190.242,247.111 190.043,247.111 189.854 C 247.111 189.665,246.666 189.511,246.123 189.511 C 245.543 189.511,244.923 189.218,244.622 188.800 C 244.340 188.409,243.894 188.089,243.629 188.089 C 242.988 188.089,242.133 187.203,242.133 186.540 C 242.133 186.246,241.856 185.729,241.517 185.390 C 241.177 185.050,240.949 184.399,241.009 183.942 C 241.083 183.377,240.938 183.111,240.559 183.111 C 239.834 183.111,239.784 180.781,240.500 180.373 C 240.775 180.217,241.079 179.580,241.176 178.959 C 241.369 177.719,244.216 174.578,245.146 174.578 C 245.445 174.578,245.689 174.418,245.689 174.222 C 245.689 174.027,246.169 173.867,246.756 173.867 C 247.342 173.867,247.822 173.707,247.822 173.511 C 247.822 173.280,252.504 173.156,261.156 173.156 C 269.807 173.156,274.489 173.280,274.489 173.511 C 274.489 173.707,275.058 173.867,275.754 173.867 C 276.560 173.867,276.935 174.004,276.785 174.246 C 276.655 174.458,276.768 174.576,277.043 174.513 C 277.932 174.309,280.889 177.773,280.889 179.017 C 280.889 179.313,281.049 179.556,281.244 179.556 C 281.442 179.556,281.600 180.504,281.600 181.689 C 281.600 182.874,281.442 183.822,281.244 183.822 C 281.049 183.822,280.889 184.142,280.889 184.533 C 280.889 184.924,280.729 185.244,280.533 185.244 C 280.338 185.244,280.178 185.534,280.178 185.889 C 280.178 186.822,278.135 188.800,277.171 188.800 C 276.869 188.800,276.622 188.960,276.622 189.156 C 276.622 189.351,276.302 189.511,275.911 189.511 C 275.520 189.511,275.200 189.671,275.200 189.867 C 275.200 190.082,273.659 190.222,271.289 190.222 L 267.378 190.222 267.378 194.289 L 267.378 198.355 266.222 198.466 C 265.167 198.568,265.057 198.694,264.956 199.911 C 264.896 200.644,264.696 201.244,264.512 201.244 C 264.328 201.244,264.178 202.684,264.178 204.444 C 264.178 206.204,264.034 207.644,263.859 207.644 C 263.683 207.644,263.547 208.524,263.555 209.600 L 263.571 211.556 266.185 211.556 C 267.691 211.556,268.800 211.706,268.800 211.911 C 268.800 212.122,270.104 212.267,272.000 212.267 C 273.896 212.267,275.200 212.412,275.200 212.622 C 275.200 212.836,276.622 212.978,278.756 212.978 C 280.720 212.978,282.311 213.126,282.311 213.310 C 282.311 213.492,283.871 213.730,285.778 213.837 C 293.681 214.284,295.467 214.466,295.467 214.825 C 295.467 215.055,295.672 215.028,296.000 214.756 C 296.345 214.469,296.533 214.448,296.533 214.696 C 296.533 214.940,297.599 215.078,299.459 215.074 C 301.213 215.070,302.436 215.218,302.511 215.445 C 302.588 215.675,303.939 215.822,305.985 215.822 C 307.980 215.822,309.333 215.966,309.333 216.178 C 309.333 216.398,311.223 216.533,314.290 216.533 C 317.211 216.533,319.337 216.387,319.467 216.178 C 319.588 215.982,319.967 215.822,320.310 215.822 C 320.944 215.822,323.255 213.698,322.644 213.678 C 322.461 213.671,322.619 213.433,322.996 213.148 C 323.373 212.863,323.573 212.521,323.439 212.388 C 323.306 212.255,323.451 211.759,323.761 211.286 C 324.191 210.629,324.300 209.680,324.223 207.258 C 324.157 205.143,324.265 203.948,324.550 203.663 C 324.785 203.428,324.978 202.868,324.978 202.418 C 324.978 201.968,325.147 201.600,325.354 201.600 C 325.561 201.600,325.643 201.458,325.536 201.285 C 325.429 201.112,325.660 200.887,326.048 200.785 C 326.562 200.651,326.756 200.299,326.756 199.500 C 326.756 198.895,326.916 198.400,327.111 198.400 C 327.324 198.400,327.467 196.978,327.467 194.844 C 327.467 192.711,327.609 191.289,327.822 191.289 C 328.043 191.289,328.178 189.333,328.178 186.133 C 328.178 182.933,328.043 180.978,327.822 180.978 C 327.602 180.978,327.467 179.081,327.467 176.000 C 327.467 173.262,327.607 171.022,327.778 171.022 C 327.949 171.022,328.117 169.543,328.150 167.735 C 328.182 165.927,328.362 164.295,328.549 164.109 C 328.736 163.922,328.889 162.281,328.889 160.462 C 328.889 158.495,329.033 157.156,329.244 157.156 C 329.455 157.156,329.600 155.852,329.600 153.956 C 329.600 152.196,329.749 150.756,329.932 150.756 C 330.115 150.756,330.351 149.196,330.458 147.289 C 330.843 140.428,331.087 137.773,331.365 137.423 C 331.520 137.227,331.676 135.631,331.711 133.875 C 331.745 132.120,331.909 130.600,332.075 130.497 C 332.240 130.395,332.390 128.951,332.408 127.290 C 332.426 125.609,332.599 124.215,332.798 124.149 C 333.004 124.080,333.156 122.610,333.156 120.681 C 333.156 118.686,333.299 117.333,333.511 117.333 C 333.722 117.333,333.867 116.037,333.867 114.154 C 333.867 112.364,334.026 110.877,334.232 110.750 C 334.432 110.626,334.573 110.336,334.545 110.107 C 334.361 108.616,334.634 103.104,334.884 103.258 C 335.052 103.362,335.230 102.131,335.279 100.524 C 335.328 98.916,335.377 97.400,335.388 97.156 C 335.399 96.911,335.541 96.711,335.704 96.711 C 335.867 96.711,336.000 95.351,336.000 93.689 C 336.000 92.027,336.141 90.667,336.314 90.667 C 336.486 90.667,336.651 89.277,336.680 87.579 C 336.709 85.881,336.876 84.319,337.051 84.107 C 337.227 83.896,337.411 82.093,337.460 80.102 C 337.509 78.110,337.681 76.562,337.841 76.662 C 338.002 76.761,338.133 75.393,338.133 73.621 C 338.133 71.658,338.276 70.400,338.498 70.400 C 339.326 70.400,338.862 61.986,338.012 61.575 C 337.590 61.371,337.451 61.193,337.703 61.180 C 338.077 61.160,338.077 61.064,337.703 60.660 C 337.451 60.387,337.100 60.251,336.923 60.359 C 336.746 60.466,336.710 60.378,336.843 60.163 C 337.443 59.192,334.534 57.956,331.651 57.956 C 330.047 57.956,328.889 57.807,328.889 57.600 C 328.889 57.404,328.569 57.244,328.178 57.244 C 327.506 57.244,327.467 57.007,327.467 52.978 C 327.467 50.370,327.328 48.711,327.111 48.711 C 326.916 48.711,326.756 48.256,326.756 47.700 C 326.756 46.652,325.657 45.306,325.186 45.777 C 325.039 45.924,324.951 45.884,324.990 45.689 C 325.165 44.820,324.944 44.381,324.431 44.578 C 324.120 44.698,323.797 44.561,323.682 44.261 C 323.571 43.971,323.137 43.736,322.718 43.739 C 322.095 43.743,322.053 43.807,322.489 44.089 C 322.809 44.296,322.853 44.436,322.599 44.439 C 322.366 44.442,322.076 44.284,321.956 44.089 C 321.835 43.893,320.705 43.733,319.446 43.733 L 317.156 43.733 317.111 42.578 C 317.086 41.942,317.075 40.982,317.086 40.444 C 317.099 39.817,316.921 39.467,316.589 39.467 C 316.304 39.467,315.927 39.088,315.751 38.624 C 315.288 37.406,313.563 36.111,313.189 36.701 C 312.956 37.067,312.899 37.064,312.894 36.688 C 312.890 36.312,311.687 36.258,306.756 36.417 C 303.382 36.525,298.580 36.609,296.083 36.604 C 292.534 36.596,291.503 36.701,291.355 37.087 C 291.205 37.477,290.387 37.551,287.446 37.439 C 284.600 37.331,283.554 37.418,282.993 37.811 C 282.421 38.212,281.380 38.287,278.229 38.155 C 275.326 38.032,273.965 38.113,273.366 38.444 C 272.799 38.757,271.235 38.882,268.461 38.836 C 265.710 38.790,264.307 38.901,264.137 39.178 C 263.968 39.450,262.483 39.580,259.675 39.567 C 257.132 39.556,255.276 39.702,254.986 39.937 C 254.690 40.176,252.871 40.308,250.271 40.281 C 247.943 40.256,246.116 40.361,246.210 40.514 C 246.450 40.902,243.215 41.173,239.826 41.048 C 238.264 40.991,236.899 41.085,236.792 41.257 C 236.686 41.429,234.604 41.594,232.166 41.623 C 229.728 41.651,227.636 41.831,227.517 42.021 C 227.396 42.215,225.440 42.365,223.080 42.362 C 220.527 42.359,218.768 42.503,218.629 42.727 C 218.489 42.954,216.654 43.095,213.911 43.089 C 211.412 43.084,209.422 43.225,209.422 43.407 C 209.422 43.594,206.398 43.733,202.311 43.733 C 197.734 43.733,195.200 43.605,195.200 43.372 C 195.200 43.151,193.944 43.028,191.956 43.055 C 190.131 43.079,188.614 42.943,188.489 42.743 C 188.367 42.548,186.921 42.369,185.276 42.346 C 183.631 42.322,182.103 42.152,181.881 41.967 C 181.658 41.782,180.152 41.634,178.534 41.637 C 176.916 41.641,175.393 41.479,175.150 41.277 C 174.906 41.075,173.758 40.928,172.598 40.952 C 168.660 41.031,168.889 41.167,168.889 38.756 C 168.889 37.582,169.043 36.622,169.231 36.622 C 169.433 36.622,169.558 34.985,169.536 32.644 C 169.486 27.451,169.103 26.947,165.297 27.058 C 163.702 27.105,162.683 26.981,162.523 26.722 C 162.360 26.458,161.161 26.323,159.167 26.345 C 157.324 26.365,155.868 26.214,155.578 25.974 C 155.210 25.669,155.046 25.683,154.907 26.030 C 154.766 26.381,154.716 26.385,154.695 26.044 C 154.675 25.731,153.881 25.600,152.000 25.600 C 150.334 25.600,149.333 25.456,149.333 25.218 C 149.333 24.995,148.700 24.860,147.822 24.895 C 144.499 25.027,141.352 24.866,141.792 24.587 C 142.053 24.422,140.832 24.265,138.960 24.223 C 137.150 24.184,135.584 24.023,135.479 23.866 C 135.375 23.709,133.935 23.550,132.281 23.513 C 130.627 23.476,129.186 23.304,129.079 23.131 C 128.972 22.959,127.384 22.817,125.549 22.817 C 123.431 22.817,122.122 22.669,121.962 22.411 C 121.801 22.150,120.665 22.030,118.775 22.076 C 116.939 22.120,115.747 21.999,115.595 21.753 C 115.443 21.507,114.171 21.380,112.187 21.413 C 110.021 21.449,108.977 21.332,108.881 21.044 C 108.691 20.474,103.830 20.502,103.080 21.078 M230.400 65.737 C 230.400 65.909,231.139 66.026,232.042 65.996 C 233.087 65.960,233.748 66.105,233.858 66.392 C 233.954 66.641,234.495 66.844,235.060 66.844 C 235.626 66.844,236.089 67.015,236.089 67.224 C 236.089 67.442,236.392 67.507,236.800 67.378 C 237.305 67.218,237.511 67.314,237.511 67.709 C 237.511 68.030,237.814 68.267,238.222 68.267 C 238.613 68.267,238.933 68.427,238.933 68.622 C 238.933 68.818,239.053 68.959,239.200 68.936 C 239.848 68.833,240.811 68.996,240.630 69.177 C 240.383 69.424,242.033 71.111,242.521 71.111 C 243.000 71.111,244.622 72.758,244.622 73.244 C 244.622 73.457,245.033 74.064,245.534 74.593 C 246.036 75.123,246.680 75.996,246.966 76.533 C 247.251 77.071,247.636 77.511,247.820 77.511 C 248.005 77.511,248.053 77.779,247.927 78.106 C 247.754 78.557,247.843 78.646,248.294 78.473 C 248.715 78.311,248.889 78.432,248.889 78.885 C 248.889 79.238,249.009 79.646,249.155 79.792 C 250.105 80.742,249.816 93.215,248.815 94.472 C 248.628 94.707,248.578 95.267,248.705 95.716 C 248.853 96.242,248.822 96.371,248.618 96.079 C 248.227 95.518,247.324 97.259,247.695 97.859 C 247.846 98.104,247.763 98.139,247.466 97.955 C 247.118 97.740,247.050 97.862,247.200 98.433 C 247.310 98.855,247.244 99.200,247.052 99.200 C 246.481 99.200,245.626 100.233,245.870 100.628 C 245.995 100.830,245.957 100.951,245.786 100.898 C 245.279 100.739,242.033 104.083,242.290 104.499 C 242.435 104.734,242.314 104.800,241.974 104.669 C 241.671 104.553,241.422 104.634,241.422 104.851 C 241.422 105.067,241.182 105.244,240.889 105.244 C 239.713 105.244,240.294 106.960,241.689 107.610 C 242.422 107.951,243.281 108.519,243.597 108.871 C 243.914 109.223,244.323 109.511,244.508 109.511 C 244.693 109.511,245.189 109.833,245.611 110.226 C 246.033 110.619,246.503 110.920,246.656 110.895 C 247.365 110.778,247.594 110.977,247.111 111.289 C 246.655 111.583,246.668 111.634,247.200 111.639 C 247.542 111.642,247.822 111.804,247.822 112.000 C 247.822 112.196,247.997 112.316,248.211 112.267 C 248.425 112.218,248.785 112.491,249.011 112.874 C 249.695 114.031,250.286 114.546,250.663 114.313 C 250.872 114.184,250.984 114.435,250.933 114.913 C 250.879 115.414,251.017 115.699,251.289 115.644 C 251.533 115.596,251.708 115.676,251.677 115.822 C 251.561 116.369,252.182 117.333,252.649 117.333 C 252.933 117.333,253.049 117.554,252.929 117.867 C 252.816 118.160,252.890 118.400,253.093 118.400 C 253.296 118.400,253.825 118.909,254.268 119.531 C 254.711 120.153,254.842 120.525,254.559 120.359 C 254.229 120.164,254.267 120.311,254.667 120.768 C 255.010 121.159,255.187 121.583,255.061 121.709 C 254.935 121.836,255.071 122.031,255.363 122.143 C 255.707 122.275,255.836 122.655,255.728 123.218 C 255.636 123.697,255.701 124.089,255.872 124.089 C 256.396 124.089,257.031 125.955,257.118 127.754 C 257.164 128.694,257.331 129.544,257.490 129.642 C 257.648 129.740,257.778 133.170,257.778 137.265 L 257.778 144.711 245.867 144.711 L 233.956 144.711 233.899 140.889 C 233.868 138.787,233.871 136.758,233.906 136.381 C 233.941 136.004,233.784 135.580,233.557 135.440 C 233.330 135.300,233.111 134.569,233.071 133.815 C 233.030 133.061,232.835 132.044,232.638 131.556 C 232.441 131.067,232.350 130.467,232.436 130.222 C 232.522 129.978,232.419 129.778,232.207 129.778 C 231.996 129.778,231.822 129.458,231.822 129.067 C 231.822 128.676,231.609 128.356,231.348 128.356 C 231.087 128.356,230.874 128.156,230.874 127.911 C 230.874 127.178,229.594 124.664,228.907 124.047 C 228.555 123.731,228.267 123.299,228.267 123.088 C 228.267 122.596,221.651 115.911,221.165 115.911 C 220.964 115.911,220.800 115.751,220.800 115.556 C 220.800 115.360,220.560 115.200,220.267 115.200 C 219.973 115.200,219.733 115.040,219.733 114.844 C 219.733 114.649,219.493 114.489,219.200 114.489 C 218.907 114.489,218.667 114.322,218.667 114.118 C 218.667 113.914,218.403 113.794,218.081 113.851 C 217.759 113.909,217.426 113.756,217.341 113.511 C 217.255 113.267,217.363 113.067,217.580 113.067 C 218.097 113.067,221.156 110.003,221.156 109.485 C 221.156 109.265,221.636 108.637,222.222 108.089 C 222.809 107.541,223.289 106.837,223.289 106.524 C 223.289 106.211,223.449 105.956,223.644 105.956 C 223.840 105.956,224.000 105.636,224.000 105.244 C 224.000 104.853,224.160 104.533,224.356 104.533 C 224.551 104.533,224.711 104.063,224.711 103.488 C 224.711 102.913,224.871 102.343,225.067 102.222 C 225.262 102.101,225.422 101.612,225.422 101.135 C 225.422 100.657,225.589 100.267,225.793 100.267 C 226.337 100.267,226.200 89.965,225.655 89.927 C 225.418 89.911,225.449 89.818,225.729 89.707 C 226.133 89.546,226.134 89.465,225.737 89.219 C 225.439 89.035,225.302 88.433,225.371 87.622 C 225.446 86.753,225.355 86.399,225.097 86.559 C 224.760 86.767,224.537 86.083,224.669 85.244 C 224.692 85.098,224.551 84.978,224.356 84.978 C 224.160 84.978,224.000 84.658,224.000 84.267 C 224.000 83.876,223.840 83.556,223.644 83.556 C 223.449 83.556,223.289 83.325,223.289 83.042 C 223.289 82.760,222.933 82.280,222.499 81.976 C 221.988 81.618,221.891 81.422,222.225 81.422 C 222.596 81.422,222.521 81.198,221.957 80.622 C 221.525 80.182,220.761 79.382,220.259 78.844 C 219.757 78.307,219.193 77.867,219.006 77.867 C 218.819 77.867,218.667 77.645,218.667 77.374 C 218.667 77.103,218.112 76.618,217.434 76.296 C 216.755 75.974,216.055 75.451,215.878 75.134 C 215.685 74.789,215.322 74.646,214.977 74.778 C 214.606 74.921,214.400 74.813,214.400 74.478 C 214.400 74.191,214.080 73.956,213.689 73.956 C 213.298 73.956,212.978 73.778,212.978 73.562 C 212.978 73.337,212.711 73.266,212.356 73.398 C 212.013 73.524,212.213 73.220,212.800 72.724 C 215.154 70.731,216.889 68.955,216.894 68.534 C 216.898 68.235,217.017 68.264,217.256 68.622 C 217.568 69.089,217.658 69.079,217.971 68.548 C 218.169 68.214,218.565 68.031,218.854 68.142 C 219.142 68.252,219.378 68.166,219.378 67.949 C 219.378 67.733,219.627 67.556,219.932 67.556 C 220.237 67.556,220.408 67.429,220.312 67.274 C 220.216 67.119,220.647 66.954,221.269 66.907 C 221.891 66.860,222.453 66.667,222.519 66.478 C 222.584 66.288,223.494 66.133,224.542 66.133 C 225.590 66.133,226.546 65.973,226.667 65.778 C 226.938 65.339,230.400 65.301,230.400 65.737 M190.541 77.724 C 191.343 77.853,192.000 78.097,192.000 78.268 C 192.000 78.438,192.480 78.578,193.067 78.578 C 193.653 78.578,194.133 78.738,194.133 78.933 C 194.133 79.129,194.395 79.289,194.714 79.289 C 195.033 79.289,195.577 79.614,195.922 80.012 C 196.267 80.410,196.688 80.690,196.857 80.634 C 197.026 80.579,198.406 81.773,199.922 83.289 C 201.438 84.804,202.845 86.044,203.049 86.044 C 203.253 86.044,203.323 86.201,203.205 86.393 C 202.946 86.811,203.650 88.245,204.304 88.632 C 204.560 88.783,204.680 89.143,204.569 89.432 C 204.459 89.720,204.545 89.956,204.762 89.956 C 204.978 89.956,205.137 90.076,205.113 90.222 C 204.955 91.228,205.213 92.143,205.613 91.990 C 205.945 91.862,206.032 92.143,205.929 93.018 C 205.852 93.680,205.940 94.222,206.124 94.222 C 206.541 94.222,206.548 94.293,206.592 98.844 C 206.640 103.913,206.641 103.903,206.167 103.610 C 205.908 103.450,205.854 103.513,206.020 103.783 C 206.165 104.017,206.018 104.615,205.693 105.111 C 205.367 105.607,205.187 106.235,205.291 106.506 C 205.395 106.777,205.337 107.088,205.163 107.196 C 204.649 107.513,203.844 109.335,203.937 109.970 C 203.984 110.292,203.918 110.521,203.789 110.478 C 203.452 110.366,201.956 111.927,201.956 112.391 C 201.956 112.926,199.643 115.200,199.099 115.200 C 198.686 115.200,197.364 116.485,197.307 116.943 C 197.292 117.060,197.211 117.533,197.125 117.995 C 197.006 118.640,197.098 118.786,197.521 118.623 C 197.827 118.506,198.156 118.631,198.261 118.907 C 198.366 119.179,198.920 119.596,199.492 119.833 C 200.065 120.070,200.533 120.405,200.533 120.576 C 200.533 120.748,200.703 120.889,200.910 120.889 C 201.117 120.889,201.189 120.731,201.069 120.537 C 200.945 120.336,201.087 120.276,201.404 120.398 C 201.707 120.514,201.956 120.849,201.956 121.143 C 201.956 121.501,202.156 121.599,202.567 121.441 C 202.903 121.312,203.062 121.323,202.919 121.466 C 202.634 121.751,204.015 123.378,204.542 123.378 C 204.962 123.378,206.933 125.477,206.933 125.925 C 206.933 126.112,207.093 126.165,207.289 126.044 C 207.484 125.924,207.644 126.047,207.644 126.320 C 207.644 126.592,208.106 127.276,208.670 127.841 C 209.234 128.405,209.625 129.051,209.539 129.276 C 209.452 129.502,209.641 129.786,209.958 129.907 C 210.275 130.029,210.449 130.265,210.346 130.433 C 210.243 130.600,210.512 131.118,210.946 131.584 C 211.379 132.050,211.690 132.562,211.638 132.723 C 211.586 132.884,211.779 133.252,212.067 133.540 C 212.356 133.829,212.494 134.320,212.374 134.632 C 212.249 134.958,212.387 135.328,212.697 135.502 C 213.044 135.696,213.177 136.127,213.067 136.702 C 212.966 137.229,213.059 137.600,213.292 137.600 C 213.518 137.600,213.689 138.212,213.689 139.022 C 213.689 139.804,213.849 140.444,214.044 140.444 C 214.270 140.444,214.400 143.230,214.400 148.089 L 214.400 155.733 184.889 155.733 L 155.378 155.733 155.378 149.016 C 155.378 143.228,155.455 142.269,155.938 142.083 C 156.337 141.930,156.472 141.482,156.407 140.534 C 156.356 139.800,156.503 138.851,156.735 138.423 C 156.966 137.996,157.156 137.236,157.156 136.734 C 157.156 136.233,157.325 135.822,157.532 135.822 C 157.752 135.822,157.839 135.375,157.741 134.754 C 157.647 134.157,157.716 133.774,157.897 133.886 C 158.076 133.996,158.222 133.757,158.222 133.354 C 158.222 132.952,158.382 132.622,158.578 132.622 C 158.773 132.622,158.933 132.361,158.933 132.042 C 158.933 131.722,159.228 131.202,159.588 130.886 C 159.947 130.570,160.350 129.871,160.483 129.333 C 160.616 128.796,160.962 128.356,161.251 128.356 C 161.541 128.356,161.778 128.037,161.778 127.647 C 161.778 127.258,162.098 126.740,162.489 126.495 C 162.880 126.251,163.200 125.850,163.200 125.603 C 163.200 125.357,163.347 125.156,163.527 125.156 C 163.706 125.156,164.487 124.556,165.261 123.822 C 166.036 123.089,167.035 122.249,167.482 121.956 C 167.929 121.662,168.589 121.142,168.948 120.800 C 169.306 120.458,169.840 120.178,170.133 120.178 C 170.427 120.178,170.667 120.042,170.667 119.876 C 170.667 119.710,171.387 119.277,172.267 118.914 C 173.989 118.204,174.798 116.279,173.156 116.800 C 172.676 116.952,172.444 116.864,172.444 116.528 C 172.444 116.255,172.045 115.817,171.556 115.556 C 171.067 115.294,170.739 115.009,170.827 114.921 C 170.914 114.834,170.194 113.991,169.226 113.049 C 168.258 112.106,167.466 111.205,167.466 111.045 C 167.466 110.886,167.069 110.295,166.585 109.731 C 166.101 109.168,165.790 108.568,165.895 108.398 C 166.000 108.228,165.917 108.089,165.710 108.089 C 165.503 108.089,165.333 107.769,165.333 107.378 C 165.333 106.987,165.173 106.667,164.978 106.667 C 164.782 106.667,164.622 106.347,164.622 105.956 C 164.622 105.564,164.462 105.244,164.267 105.244 C 164.071 105.244,163.911 104.524,163.911 103.644 C 163.911 102.764,163.751 102.044,163.556 102.044 C 163.346 102.044,163.200 100.800,163.200 99.022 C 163.200 97.360,163.334 96.000,163.498 96.000 C 163.662 96.000,163.824 95.244,163.859 94.319 C 163.924 92.623,164.569 90.667,165.065 90.667 C 165.212 90.667,165.333 90.347,165.333 89.956 C 165.333 89.564,165.493 89.244,165.689 89.244 C 165.884 89.244,166.044 88.926,166.044 88.536 C 166.044 88.147,166.364 87.628,166.756 87.384 C 167.147 87.140,167.467 86.723,167.467 86.457 C 167.467 86.192,167.941 85.531,168.521 84.989 C 169.101 84.448,169.474 83.904,169.350 83.780 C 169.227 83.657,169.324 83.556,169.566 83.556 C 170.053 83.556,171.247 82.496,170.781 82.477 C 170.620 82.471,170.857 82.159,171.306 81.784 C 171.768 81.399,172.374 81.198,172.698 81.323 C 173.081 81.470,173.186 81.404,173.015 81.127 C 172.863 80.881,172.974 80.711,173.288 80.711 C 173.580 80.711,173.927 80.370,174.059 79.953 C 174.249 79.355,174.367 79.299,174.617 79.686 C 174.817 79.998,175.031 80.048,175.200 79.822 C 175.625 79.256,178.490 77.867,179.234 77.867 C 179.606 77.867,179.911 77.747,179.911 77.600 C 179.911 77.286,188.422 77.385,190.541 77.724 M106.667 305.609 L 106.667 333.459 111.378 333.396 L 116.089 333.333 116.180 305.498 L 116.271 277.662 111.469 277.710 L 106.667 277.758 106.667 305.609 M122.133 305.600 L 122.133 333.511 126.933 333.511 L 131.733 333.511 131.733 305.600 L 131.733 277.689 126.933 277.689 L 122.133 277.689 122.133 305.600 M157.096 280.162 C 157.031 280.349,156.367 280.543,155.619 280.592 C 154.872 280.642,154.192 280.794,154.108 280.930 C 154.024 281.066,153.619 281.090,153.208 280.982 C 152.797 280.875,152.357 280.930,152.230 281.105 C 152.104 281.279,151.400 281.700,150.667 282.039 C 149.933 282.378,149.333 282.818,149.333 283.016 C 149.333 283.215,149.164 283.378,148.957 283.378 C 148.750 283.378,148.700 283.178,148.847 282.933 C 149.031 282.628,148.928 282.640,148.517 282.974 C 148.188 283.240,148.013 283.611,148.128 283.797 C 148.244 283.984,148.122 284.094,147.858 284.043 C 146.583 283.795,145.222 284.841,146.222 285.300 C 146.467 285.413,146.303 285.414,145.858 285.303 C 145.300 285.164,145.079 285.248,145.147 285.573 C 145.208 285.869,144.980 285.999,144.533 285.922 C 144.142 285.854,143.937 285.915,144.076 286.057 C 144.216 286.200,143.862 286.754,143.289 287.289 C 142.716 287.824,142.348 288.363,142.472 288.487 C 142.595 288.610,142.430 288.711,142.104 288.711 C 141.778 288.711,141.511 288.841,141.511 289.000 C 141.511 289.158,141.183 289.640,140.782 290.071 C 140.381 290.501,140.150 291.012,140.270 291.205 C 140.389 291.398,140.233 291.556,139.923 291.556 C 139.582 291.556,139.276 291.976,139.147 292.622 C 139.029 293.209,138.793 293.689,138.622 293.689 C 138.451 293.689,138.311 294.169,138.311 294.756 C 138.311 295.342,138.151 295.822,137.956 295.822 C 137.760 295.822,137.600 296.142,137.600 296.533 C 137.600 296.924,137.440 297.244,137.244 297.244 C 137.049 297.244,136.889 297.884,136.889 298.667 C 136.889 299.449,136.729 300.089,136.533 300.089 C 136.308 300.089,136.178 302.763,136.178 307.399 C 136.178 312.181,136.301 314.633,136.533 314.489 C 136.745 314.358,136.889 314.781,136.889 315.535 C 136.889 316.231,137.049 316.800,137.244 316.800 C 137.440 316.800,137.600 317.280,137.600 317.867 C 137.600 318.453,137.760 318.933,137.956 318.933 C 138.151 318.933,138.311 319.201,138.311 319.528 C 138.311 320.494,139.516 322.825,140.021 322.835 C 140.277 322.840,140.392 322.998,140.276 323.186 C 139.991 323.647,140.855 324.978,141.440 324.978 C 141.698 324.978,141.810 325.138,141.689 325.333 C 141.568 325.529,141.728 325.689,142.044 325.689 C 142.393 325.689,142.518 325.853,142.363 326.105 C 142.187 326.390,142.304 326.445,142.737 326.279 C 143.220 326.093,143.316 326.172,143.147 326.613 C 142.983 327.040,143.076 327.133,143.502 326.969 C 143.929 326.805,144.022 326.898,143.858 327.324 C 143.694 327.751,143.787 327.844,144.213 327.680 C 144.626 327.522,144.732 327.610,144.586 327.992 C 144.473 328.285,144.495 328.488,144.635 328.443 C 144.775 328.398,145.284 328.640,145.768 328.981 C 146.252 329.321,146.440 329.600,146.187 329.600 C 145.852 329.600,145.878 329.751,146.283 330.156 C 146.589 330.462,147.001 330.612,147.200 330.489 C 147.398 330.366,147.657 330.516,147.774 330.822 C 147.891 331.128,148.290 331.378,148.660 331.378 C 149.030 331.378,149.333 331.547,149.333 331.754 C 149.333 331.961,149.480 332.040,149.660 331.929 C 149.840 331.818,150.229 331.968,150.524 332.263 C 150.819 332.559,151.312 332.800,151.619 332.800 C 151.926 332.800,152.178 332.960,152.178 333.156 C 152.178 333.351,152.648 333.511,153.223 333.511 C 153.799 333.511,154.368 333.671,154.489 333.867 C 154.610 334.062,155.419 334.222,156.288 334.222 C 157.156 334.222,157.867 334.382,157.867 334.578 C 157.867 335.111,167.368 335.052,167.546 334.518 C 167.630 334.266,168.344 334.127,169.353 334.165 C 170.280 334.200,171.022 334.068,171.022 333.870 C 171.022 333.672,171.413 333.511,171.890 333.511 C 172.367 333.511,172.857 333.351,172.978 333.156 C 173.099 332.960,173.508 332.800,173.888 332.800 C 174.276 332.800,174.578 332.557,174.578 332.246 C 174.578 331.941,174.739 331.791,174.936 331.913 C 175.133 332.034,175.757 331.804,176.324 331.400 C 176.891 330.997,177.570 330.664,177.833 330.661 C 178.197 330.657,178.184 330.573,177.778 330.311 C 177.347 330.032,177.398 329.965,178.044 329.961 C 178.484 329.958,178.844 329.799,178.844 329.608 C 178.844 329.416,179.688 328.416,180.718 327.386 C 182.578 325.525,183.250 323.911,182.165 323.911 C 181.865 323.911,181.170 323.431,180.622 322.844 C 180.074 322.258,179.402 321.778,179.128 321.778 C 178.855 321.778,178.451 321.598,178.232 321.379 C 177.803 320.950,176.000 322.429,176.000 323.209 C 176.000 323.726,175.098 324.622,174.578 324.622 C 173.875 324.622,173.090 325.599,173.603 325.835 C 173.846 325.947,173.684 325.949,173.244 325.839 C 172.687 325.701,172.444 325.800,172.444 326.165 C 172.444 326.514,172.207 326.627,171.733 326.503 C 171.336 326.399,171.022 326.492,171.022 326.714 C 171.022 326.932,170.719 327.111,170.349 327.111 C 169.979 327.111,169.580 327.361,169.463 327.667 C 169.345 327.973,169.092 328.125,168.899 328.006 C 168.706 327.887,168.205 327.973,167.787 328.197 C 167.368 328.421,166.484 328.604,165.824 328.604 C 165.163 328.604,164.622 328.748,164.622 328.924 C 164.622 329.383,161.285 329.321,160.818 328.854 C 160.594 328.630,159.577 328.516,158.432 328.587 C 157.002 328.676,156.481 328.592,156.597 328.291 C 156.696 328.034,156.493 327.922,156.076 328.003 C 155.700 328.075,155.306 327.994,155.200 327.823 C 154.973 327.455,152.928 326.400,152.441 326.400 C 151.566 326.400,145.787 321.078,145.782 320.267 C 145.780 319.924,145.658 319.643,145.511 319.642 C 145.192 319.638,144.356 317.917,144.356 317.262 C 144.356 317.008,144.131 316.800,143.856 316.800 C 143.531 316.800,143.421 316.551,143.541 316.089 C 143.645 315.691,143.552 315.378,143.330 315.378 C 143.112 315.378,142.933 314.911,142.933 314.341 C 142.933 313.770,142.779 313.250,142.591 313.185 C 142.403 313.120,142.220 311.991,142.184 310.677 C 142.149 309.363,141.983 308.373,141.815 308.476 C 141.648 308.580,141.511 308.095,141.511 307.399 C 141.511 306.703,141.671 306.133,141.867 306.133 C 142.070 306.133,142.222 305.067,142.222 303.644 C 142.222 302.222,142.375 301.156,142.578 301.156 C 142.773 301.156,142.933 300.596,142.933 299.911 C 142.933 299.227,143.093 298.667,143.289 298.667 C 143.484 298.667,143.644 298.257,143.644 297.757 C 143.644 297.241,143.798 296.942,144.000 297.067 C 144.202 297.192,144.356 296.886,144.356 296.356 C 144.356 295.833,144.510 295.520,144.707 295.642 C 144.909 295.766,144.968 295.624,144.847 295.307 C 144.710 294.950,144.836 294.756,145.206 294.756 C 145.521 294.756,145.778 294.516,145.778 294.222 C 145.778 293.929,145.933 293.689,146.122 293.689 C 146.312 293.689,146.372 293.442,146.256 293.141 C 146.126 292.802,146.221 292.633,146.505 292.697 C 146.758 292.753,147.138 292.467,147.351 292.060 C 147.565 291.653,147.963 291.395,148.237 291.486 C 148.584 291.602,148.665 291.470,148.505 291.052 C 148.370 290.700,148.419 290.541,148.623 290.667 C 149.010 290.906,150.487 289.568,150.833 288.666 C 150.964 288.325,151.460 288.089,152.046 288.089 C 152.591 288.089,153.097 287.909,153.170 287.689 C 153.244 287.469,153.610 287.289,153.985 287.289 C 154.360 287.289,154.667 287.129,154.667 286.933 C 154.667 286.738,155.057 286.578,155.535 286.578 C 156.012 286.578,156.501 286.418,156.622 286.222 C 156.743 286.027,157.473 285.867,158.243 285.867 C 159.014 285.867,159.644 285.707,159.644 285.511 C 159.644 285.304,160.830 285.156,162.489 285.156 C 164.053 285.156,165.333 285.306,165.333 285.489 C 165.333 285.672,166.007 285.813,166.830 285.801 C 167.653 285.790,168.387 285.961,168.460 286.181 C 168.534 286.402,168.742 286.491,168.922 286.380 C 169.102 286.268,169.345 286.427,169.463 286.733 C 169.580 287.039,169.979 287.289,170.349 287.289 C 170.719 287.289,171.022 287.449,171.022 287.644 C 171.022 287.840,171.324 288.000,171.693 288.000 C 172.062 288.000,172.737 288.468,173.192 289.040 C 173.648 289.612,174.146 290.003,174.299 289.908 C 174.452 289.813,174.578 289.995,174.578 290.311 C 174.578 290.628,174.738 290.788,174.933 290.667 C 175.129 290.546,175.289 290.628,175.289 290.849 C 175.289 291.426,176.212 292.267,176.845 292.267 C 177.656 292.267,179.311 290.600,179.000 290.097 C 178.842 289.841,178.884 289.760,179.105 289.897 C 179.308 290.023,179.665 289.897,179.897 289.617 C 180.129 289.338,180.527 289.189,180.782 289.287 C 181.890 289.712,181.223 287.532,179.804 286.088 C 179.011 285.282,178.499 284.862,178.665 285.156 C 178.859 285.498,178.693 285.449,178.203 285.019 C 177.783 284.651,177.518 284.222,177.614 284.067 C 177.788 283.785,176.417 283.174,175.911 283.307 C 175.764 283.346,175.684 283.178,175.733 282.933 C 175.783 282.683,175.393 282.440,174.838 282.376 C 174.297 282.314,173.947 282.114,174.059 281.931 C 174.172 281.749,174.033 281.600,173.751 281.600 C 173.468 281.600,172.779 281.361,172.218 281.069 C 171.658 280.777,170.520 280.537,169.689 280.536 C 168.858 280.534,168.178 280.373,168.178 280.178 C 168.178 279.710,157.259 279.695,157.096 280.162 M32.087 307.200 L 32.178 333.333 37.244 333.432 L 42.311 333.531 42.311 323.032 L 42.311 312.533 53.511 312.533 L 64.711 312.533 64.711 307.733 C 64.711 305.093,64.591 302.952,64.444 302.975 C 64.298 302.999,59.258 302.999,53.244 302.975 L 42.311 302.933 42.311 296.889 L 42.311 290.844 54.023 290.844 C 62.493 290.844,65.806 290.731,65.990 290.434 C 66.160 290.159,66.079 290.117,65.744 290.308 C 65.340 290.539,65.329 290.502,65.689 290.114 C 66.303 289.453,66.303 282.281,65.689 281.619 C 65.333 281.236,65.333 281.190,65.689 281.391 C 65.933 281.529,66.133 281.513,66.133 281.354 C 66.133 281.196,58.452 281.067,49.065 281.067 L 31.996 281.067 32.087 307.200 M263.467 293.675 L 263.467 298.667 260.356 298.709 C 258.644 298.732,257.068 298.730,256.853 298.705 C 256.600 298.676,256.462 299.599,256.462 301.333 C 256.462 303.068,256.600 303.991,256.853 303.961 C 257.068 303.936,258.644 303.935,260.356 303.958 L 263.467 304.000 263.467 315.001 C 263.467 321.952,263.598 326.083,263.822 326.222 C 264.018 326.343,264.178 327.233,264.178 328.199 C 264.178 329.165,264.338 329.956,264.533 329.956 C 264.729 329.956,264.889 330.212,264.889 330.524 C 264.889 331.351,267.178 333.511,268.053 333.511 C 268.464 333.511,268.800 333.676,268.800 333.878 C 268.800 334.113,270.342 334.223,273.098 334.185 C 275.608 334.150,277.198 333.999,276.920 333.823 C 276.588 333.613,276.740 333.507,277.422 333.472 C 277.960 333.445,278.600 333.402,278.844 333.378 C 279.524 333.310,279.667 329.244,278.991 329.244 C 278.709 329.244,278.501 328.964,278.528 328.622 C 278.563 328.192,278.276 327.965,277.600 327.887 C 277.062 327.826,276.622 327.946,276.622 328.154 C 276.622 328.363,276.142 328.533,275.556 328.533 C 274.969 328.533,274.489 328.693,274.489 328.889 C 274.489 329.084,274.009 329.244,273.422 329.244 C 272.836 329.244,272.356 329.084,272.356 328.889 C 272.356 328.693,272.036 328.533,271.644 328.533 C 271.253 328.533,270.933 328.364,270.933 328.157 C 270.933 327.950,270.781 327.874,270.596 327.989 C 269.696 328.545,269.511 326.396,269.511 315.412 L 269.511 304.021 274.044 303.922 L 278.578 303.822 278.578 301.333 L 278.578 298.844 274.054 298.745 L 269.531 298.646 269.432 293.767 L 269.333 288.889 266.400 288.786 L 263.467 288.682 263.467 293.675 M352.711 293.676 L 352.711 298.640 349.422 298.742 L 346.133 298.844 346.133 301.333 L 346.133 303.822 349.422 303.924 L 352.711 304.027 352.711 315.770 C 352.711 324.257,352.830 327.729,353.139 328.290 C 353.375 328.717,353.590 329.227,353.618 329.422 C 353.646 329.618,353.694 329.953,353.724 330.168 C 353.801 330.728,355.039 332.089,355.470 332.089 C 355.671 332.089,355.920 332.311,356.025 332.583 C 356.473 333.752,358.422 334.233,362.555 334.196 C 364.769 334.176,366.503 334.033,366.407 333.878 C 366.312 333.724,366.685 333.507,367.237 333.397 C 368.225 333.199,368.239 333.162,368.209 330.721 C 368.192 329.360,368.071 328.311,367.941 328.392 C 367.812 328.472,367.632 328.337,367.543 328.091 C 367.414 327.733,367.232 327.733,366.629 328.089 C 366.215 328.333,365.606 328.533,365.275 328.533 C 364.944 328.533,364.133 328.729,363.472 328.967 C 362.495 329.321,362.217 329.312,361.976 328.922 C 361.813 328.658,361.532 328.534,361.351 328.645 C 360.895 328.927,359.363 327.495,358.836 326.294 C 358.523 325.581,358.400 322.288,358.400 314.650 L 358.400 304.000 362.815 304.000 C 368.519 304.000,368.356 304.079,368.356 301.333 C 368.356 298.588,368.519 298.667,362.815 298.667 L 358.400 298.667 358.400 293.689 L 358.400 288.711 355.556 288.711 L 352.711 288.711 352.711 293.676 M69.215 297.481 C 68.816 297.880,68.933 325.689,69.333 325.689 C 69.529 325.689,69.689 326.169,69.689 326.756 C 69.689 327.342,69.849 327.822,70.044 327.822 C 70.240 327.822,70.400 328.066,70.400 328.363 C 70.400 329.067,74.133 332.800,74.837 332.800 C 75.134 332.800,75.378 332.960,75.378 333.156 C 75.378 333.351,75.778 333.511,76.267 333.511 C 76.756 333.511,77.156 333.655,77.156 333.831 C 77.156 334.007,79.236 334.173,81.778 334.200 C 85.681 334.242,86.400 334.166,86.400 333.714 C 86.400 333.388,86.605 333.257,86.923 333.379 C 87.624 333.648,89.600 332.747,89.600 332.159 C 89.600 331.902,89.739 331.777,89.908 331.882 C 90.077 331.986,90.502 331.756,90.852 331.369 C 91.764 330.362,92.031 330.491,92.156 332.000 L 92.267 333.333 96.978 333.433 L 101.689 333.532 101.689 315.388 L 101.689 297.244 96.889 297.244 L 92.089 297.244 92.089 307.022 C 92.089 313.304,91.962 316.800,91.733 316.800 C 91.538 316.800,91.378 317.600,91.378 318.578 C 91.378 319.556,91.218 320.356,91.022 320.356 C 90.827 320.356,90.667 320.676,90.667 321.067 C 90.667 321.458,90.507 321.778,90.311 321.778 C 90.116 321.778,89.956 322.029,89.956 322.337 C 89.956 323.055,89.100 323.911,88.381 323.911 C 88.074 323.911,87.822 324.071,87.822 324.267 C 87.822 324.462,87.493 324.622,87.090 324.622 C 86.687 324.622,86.432 324.742,86.523 324.889 C 86.614 325.036,85.759 325.156,84.624 325.156 C 83.488 325.156,82.633 325.036,82.723 324.889 C 82.813 324.742,82.630 324.622,82.316 324.622 C 81.588 324.622,80.000 323.049,80.000 322.327 C 80.000 322.025,79.879 321.778,79.731 321.778 C 78.854 321.778,78.578 318.495,78.578 308.094 L 78.578 297.244 74.015 297.244 C 71.505 297.244,69.345 297.351,69.215 297.481 M196.978 298.311 C 196.978 298.507,196.498 298.667,195.911 298.667 C 195.324 298.667,194.844 298.827,194.844 299.022 C 194.844 299.218,194.364 299.378,193.778 299.378 C 193.191 299.378,192.711 299.538,192.711 299.733 C 192.711 299.929,192.426 300.089,192.078 300.089 C 191.731 300.089,191.215 300.409,190.933 300.800 C 190.651 301.191,190.228 301.511,189.992 301.511 C 189.756 301.511,189.252 301.906,188.873 302.388 C 188.494 302.870,188.082 303.164,187.958 303.040 C 187.835 302.916,187.733 302.961,187.732 303.141 C 187.732 303.320,187.252 304.027,186.667 304.711 C 185.505 306.069,185.364 306.477,186.044 306.511 C 186.289 306.524,186.129 306.679,185.689 306.856 C 185.249 307.032,184.889 307.422,184.889 307.722 C 184.889 308.022,184.717 308.267,184.506 308.267 C 184.286 308.267,184.168 308.789,184.229 309.492 C 184.287 310.166,184.194 310.846,184.021 311.003 C 183.843 311.166,183.833 311.060,184.000 310.756 C 184.173 310.439,184.160 310.343,183.968 310.518 C 183.445 310.997,183.501 321.125,184.031 321.907 C 184.278 322.272,184.395 322.792,184.291 323.063 C 184.187 323.334,184.259 323.556,184.451 323.556 C 184.643 323.556,184.888 323.998,184.997 324.538 C 185.105 325.079,185.525 325.903,185.930 326.370 C 186.335 326.838,186.667 327.355,186.667 327.521 C 186.667 327.687,186.947 327.825,187.289 327.828 C 187.821 327.832,187.834 327.883,187.378 328.178 C 186.910 328.480,186.913 328.523,187.405 328.528 C 187.713 328.531,188.341 328.933,188.800 329.422 C 189.259 329.911,189.516 330.311,189.370 330.311 C 189.224 330.311,189.355 330.561,189.661 330.867 C 189.967 331.173,190.379 331.323,190.578 331.200 C 190.776 331.077,191.034 331.226,191.151 331.531 C 191.268 331.836,191.494 332.004,191.653 331.906 C 191.812 331.807,192.184 331.968,192.479 332.263 C 192.774 332.559,193.267 332.800,193.575 332.800 C 193.882 332.800,194.133 332.971,194.133 333.180 C 194.133 333.390,194.433 333.464,194.807 333.345 C 195.182 333.226,195.705 333.356,195.987 333.637 C 196.597 334.248,206.578 334.462,206.578 333.864 C 206.578 333.670,207.218 333.511,208.000 333.511 C 208.782 333.511,209.422 333.351,209.422 333.156 C 209.422 332.960,209.752 332.800,210.154 332.800 C 210.557 332.800,210.788 332.640,210.667 332.444 C 210.542 332.243,210.841 332.089,211.357 332.089 C 211.944 332.089,212.267 331.892,212.267 331.535 C 212.267 331.230,212.387 331.053,212.533 331.142 C 212.881 331.352,213.712 330.453,213.430 330.171 C 213.312 330.053,213.641 329.956,214.163 329.956 C 214.953 329.956,215.111 329.798,215.111 329.007 C 215.111 328.486,215.215 328.163,215.342 328.290 C 215.627 328.576,217.243 326.744,217.244 326.133 C 217.244 325.889,217.404 325.689,217.600 325.689 C 217.796 325.689,217.956 325.369,217.956 324.978 C 217.956 324.587,218.116 324.267,218.311 324.267 C 218.507 324.267,218.667 323.947,218.667 323.556 C 218.667 323.164,218.843 322.844,219.060 322.844 C 219.302 322.844,219.402 322.311,219.319 321.450 C 219.241 320.629,219.336 320.080,219.549 320.116 C 219.970 320.188,220.253 313.780,219.867 312.916 C 219.730 312.608,219.601 312.276,219.581 312.178 C 219.561 312.080,219.448 311.840,219.329 311.644 C 219.211 311.449,219.159 311.009,219.215 310.667 C 219.270 310.324,219.204 310.044,219.068 310.044 C 218.933 310.044,218.787 309.604,218.743 309.067 C 218.700 308.529,218.460 307.929,218.208 307.733 C 217.957 307.538,217.809 307.098,217.880 306.756 C 217.950 306.413,217.836 306.133,217.626 306.133 C 217.416 306.133,217.244 305.893,217.244 305.600 C 217.244 305.307,217.111 305.067,216.949 305.067 C 216.786 305.067,216.436 304.661,216.171 304.165 C 215.860 303.584,215.495 303.338,215.144 303.473 C 214.845 303.588,214.704 303.578,214.832 303.450 C 215.158 303.124,212.763 300.800,212.101 300.800 C 211.801 300.800,211.556 300.640,211.556 300.444 C 211.556 300.249,211.236 300.089,210.844 300.089 C 210.453 300.089,210.133 299.912,210.133 299.695 C 210.133 299.479,209.887 299.396,209.587 299.512 C 209.275 299.631,208.953 299.494,208.837 299.194 C 208.702 298.840,208.128 298.667,207.094 298.667 C 206.247 298.667,205.454 298.507,205.333 298.311 C 205.208 298.108,203.374 297.956,201.046 297.956 C 198.571 297.956,196.978 298.095,196.978 298.311 M238.222 298.311 C 237.929 298.501,237.334 298.658,236.900 298.661 C 236.466 298.664,235.541 298.987,234.844 299.378 C 234.148 299.769,233.418 300.089,233.222 300.089 C 232.713 300.089,230.400 302.469,230.400 302.993 C 230.400 304.379,229.712 302.445,229.620 300.800 L 229.511 298.844 227.575 298.735 C 223.942 298.528,224.000 298.461,224.000 302.915 C 224.000 305.939,224.121 306.915,224.549 307.343 C 225.027 307.820,225.092 309.568,225.047 320.613 L 224.996 333.333 227.707 333.437 L 230.419 333.541 230.389 323.133 C 230.369 316.109,230.481 312.684,230.735 312.599 C 230.942 312.530,231.111 311.847,231.111 311.081 C 231.111 310.300,231.284 309.689,231.505 309.689 C 231.721 309.689,231.808 309.455,231.699 309.169 C 231.582 308.865,231.875 308.353,232.402 307.938 C 232.939 307.516,233.198 307.057,233.042 306.804 C 232.890 306.558,232.930 306.472,233.136 306.599 C 233.742 306.974,235.187 305.397,234.613 304.987 C 234.243 304.723,234.270 304.687,234.727 304.833 C 235.053 304.937,235.674 304.716,236.106 304.341 C 236.538 303.966,237.049 303.756,237.241 303.875 C 237.433 303.994,237.712 303.895,237.860 303.656 C 238.356 302.852,244.325 303.134,245.035 303.995 C 245.359 304.389,245.759 304.720,245.924 304.730 C 246.088 304.741,246.755 305.559,247.407 306.547 C 248.059 307.536,248.421 308.239,248.211 308.109 C 247.977 307.965,247.912 308.086,248.042 308.426 C 248.159 308.729,248.357 308.978,248.482 308.978 C 248.608 308.978,248.711 314.458,248.711 321.155 L 248.711 333.333 251.822 333.390 L 254.933 333.446 254.933 322.122 C 254.933 314.956,254.803 310.717,254.578 310.578 C 254.382 310.457,254.222 309.407,254.222 308.246 C 254.222 307.074,254.064 306.133,253.867 306.133 C 253.671 306.133,253.511 305.849,253.511 305.501 C 253.511 305.154,253.262 304.514,252.958 304.079 C 252.653 303.644,252.483 303.289,252.579 303.289 C 252.675 303.289,251.874 302.409,250.798 301.333 C 249.723 300.258,248.613 299.378,248.332 299.378 C 248.052 299.378,247.822 299.218,247.822 299.022 C 247.822 298.827,247.342 298.667,246.756 298.667 C 246.169 298.667,245.689 298.507,245.689 298.311 C 245.689 297.848,238.938 297.848,238.222 298.311 M290.667 298.311 C 290.546 298.507,289.896 298.667,289.223 298.667 C 288.551 298.667,288.000 298.827,288.000 299.022 C 288.000 299.218,287.680 299.378,287.289 299.378 C 286.898 299.378,286.578 299.538,286.578 299.733 C 286.578 299.929,286.258 300.089,285.867 300.089 C 285.476 300.089,285.156 300.249,285.156 300.444 C 285.156 300.640,284.871 300.800,284.523 300.800 C 284.175 300.800,283.660 301.120,283.378 301.511 C 283.096 301.902,282.581 302.222,282.233 302.222 C 281.231 302.222,281.470 303.593,282.667 304.711 C 283.253 305.259,283.733 305.963,283.733 306.276 C 283.733 306.645,284.045 306.844,284.622 306.844 C 285.111 306.844,285.511 306.684,285.511 306.489 C 285.511 306.293,285.796 306.133,286.144 306.133 C 286.492 306.133,287.007 305.813,287.289 305.422 C 287.571 305.031,288.086 304.711,288.434 304.711 C 288.782 304.711,289.067 304.551,289.067 304.356 C 289.067 304.160,289.533 304.000,290.104 304.000 C 290.674 304.000,291.197 303.832,291.265 303.626 C 291.341 303.399,292.798 303.244,294.974 303.233 C 298.621 303.214,299.608 303.478,300.838 304.800 C 301.156 305.142,301.620 305.422,301.869 305.422 C 302.508 305.422,303.264 306.520,303.278 307.467 C 303.284 307.907,303.420 308.267,303.581 308.267 C 303.742 308.267,303.909 309.067,303.954 310.044 L 304.035 311.822 298.684 311.822 C 295.354 311.822,293.333 311.956,293.333 312.178 C 293.333 312.373,292.453 312.533,291.378 312.533 C 290.302 312.533,289.422 312.693,289.422 312.889 C 289.422 313.084,288.942 313.244,288.356 313.244 C 287.769 313.244,287.289 313.404,287.289 313.600 C 287.289 313.796,286.969 313.956,286.578 313.956 C 286.187 313.956,285.867 314.116,285.867 314.311 C 285.867 314.507,285.608 314.667,285.292 314.667 C 284.562 314.667,282.264 317.148,282.557 317.621 C 282.685 317.829,282.596 317.865,282.342 317.708 C 282.066 317.537,281.837 317.711,281.712 318.186 C 281.605 318.597,281.366 318.933,281.182 318.933 C 280.998 318.933,280.938 319.080,281.049 319.260 C 281.160 319.440,281.005 319.833,280.704 320.134 C 280.097 320.741,279.979 327.111,280.574 327.111 C 280.747 327.111,280.889 327.431,280.889 327.822 C 280.889 328.213,281.049 328.533,281.244 328.533 C 281.440 328.533,281.600 328.853,281.600 329.244 C 281.600 329.640,281.837 329.956,282.133 329.956 C 282.427 329.956,282.667 330.099,282.667 330.274 C 282.667 330.837,284.711 332.800,285.298 332.800 C 285.611 332.800,285.867 332.942,285.867 333.115 C 285.867 333.641,287.940 333.918,292.889 334.054 C 295.701 334.131,297.600 334.048,297.600 333.847 C 297.600 333.662,298.063 333.511,298.629 333.511 C 299.233 333.511,299.745 333.282,299.871 332.955 C 299.988 332.650,300.240 332.496,300.431 332.614 C 300.825 332.857,303.158 330.745,303.022 330.268 C 302.973 330.096,303.173 329.956,303.467 329.956 C 303.833 329.956,304.000 330.323,304.000 331.129 C 304.000 331.774,304.200 332.518,304.444 332.781 C 304.800 333.164,304.800 333.210,304.444 333.009 C 304.200 332.871,304.000 332.934,304.000 333.150 C 304.000 333.409,304.873 333.507,306.578 333.438 L 309.156 333.333 309.216 328.714 C 309.249 326.174,309.134 324.007,308.960 323.900 C 308.786 323.792,308.629 319.591,308.610 314.563 C 308.591 309.139,308.442 305.422,308.244 305.422 C 308.061 305.422,307.911 304.953,307.911 304.380 C 307.911 303.649,307.698 303.269,307.200 303.111 C 306.809 302.987,306.489 302.645,306.489 302.351 C 306.489 301.732,305.649 300.800,305.092 300.800 C 304.883 300.800,304.711 300.640,304.711 300.444 C 304.711 300.249,304.377 300.089,303.968 300.089 C 303.559 300.089,302.907 299.729,302.519 299.289 C 302.130 298.849,301.928 298.729,302.070 299.022 C 302.278 299.455,302.236 299.472,301.848 299.111 C 301.584 298.867,301.010 298.667,300.572 298.667 C 300.134 298.667,299.688 298.525,299.581 298.352 C 299.296 297.890,291.556 297.834,291.556 298.294 C 291.556 298.499,291.386 298.667,291.179 298.667 C 290.972 298.667,290.901 298.507,291.022 298.311 C 291.143 298.116,291.162 297.956,291.064 297.956 C 290.966 297.956,290.788 298.116,290.667 298.311 M328.000 298.311 C 327.879 298.507,327.150 298.667,326.379 298.667 C 325.608 298.667,324.977 298.787,324.975 298.933 C 324.972 299.243,323.258 300.089,322.634 300.089 C 322.400 300.089,322.113 300.339,321.996 300.645 C 321.879 300.950,321.623 301.102,321.429 300.982 C 321.011 300.724,318.188 303.492,318.525 303.829 C 318.652 303.956,318.596 304.027,318.400 303.988 C 317.547 303.815,317.156 304.050,317.156 304.732 C 317.156 305.201,317.006 305.372,316.740 305.207 C 316.460 305.034,316.398 305.144,316.551 305.542 C 316.699 305.928,316.596 306.133,316.256 306.133 C 315.968 306.133,315.733 306.444,315.733 306.823 C 315.733 307.203,315.571 307.614,315.372 307.737 C 315.173 307.860,315.091 308.091,315.190 308.251 C 315.289 308.411,315.148 308.726,314.876 308.952 C 314.604 309.177,314.382 309.936,314.382 310.638 C 314.382 311.340,314.201 312.026,313.979 312.163 C 313.443 312.495,313.524 319.726,314.069 320.067 C 314.284 320.201,314.421 320.881,314.374 321.578 C 314.327 322.275,314.454 322.844,314.656 322.844 C 314.857 322.844,315.022 323.164,315.022 323.556 C 315.022 323.947,315.142 324.268,315.289 324.269 C 315.627 324.273,316.443 326.007,316.450 326.738 C 316.455 327.223,316.496 327.225,316.800 326.756 C 317.085 326.315,317.146 326.348,317.150 326.944 C 317.153 327.341,317.476 327.896,317.867 328.178 C 318.258 328.460,318.578 328.900,318.578 329.156 C 318.578 329.413,318.850 329.727,319.183 329.855 C 319.516 329.982,320.260 330.537,320.836 331.088 C 321.412 331.638,322.100 332.089,322.364 332.089 C 322.628 332.089,322.844 332.249,322.844 332.444 C 322.844 332.640,323.155 332.800,323.535 332.800 C 323.914 332.800,324.324 332.960,324.444 333.156 C 324.565 333.351,325.215 333.511,325.888 333.511 C 326.561 333.511,327.111 333.671,327.111 333.866 C 327.111 334.442,336.346 334.282,336.932 333.697 C 337.195 333.434,337.733 333.303,338.127 333.406 C 338.530 333.512,338.844 333.420,338.844 333.197 C 338.844 332.979,339.164 332.800,339.556 332.800 C 339.947 332.800,340.267 332.640,340.267 332.444 C 340.267 332.249,340.467 332.089,340.711 332.088 C 341.321 332.088,343.153 330.472,342.868 330.186 C 342.741 330.059,342.973 329.956,343.383 329.956 C 343.818 329.956,344.224 329.658,344.356 329.244 C 344.480 328.853,344.730 328.533,344.913 328.533 C 345.385 328.533,345.324 327.558,344.834 327.255 C 344.555 327.083,344.520 327.162,344.724 327.501 C 344.980 327.925,344.936 327.927,344.428 327.515 C 344.099 327.249,343.905 326.910,343.996 326.763 C 344.087 326.616,343.817 326.194,343.397 325.825 C 342.977 325.457,342.750 325.356,342.893 325.600 C 343.036 325.844,342.984 326.044,342.777 326.044 C 342.569 326.044,342.400 325.724,342.400 325.333 C 342.400 324.315,340.982 324.408,339.700 325.511 C 339.132 325.999,338.547 326.399,338.400 326.400 C 338.253 326.400,338.133 326.635,338.133 326.922 C 338.133 327.240,337.925 327.364,337.600 327.240 C 337.307 327.127,337.067 327.196,337.067 327.394 C 337.067 327.866,334.972 328.648,333.956 328.555 C 333.516 328.515,333.156 328.654,333.156 328.863 C 333.156 329.355,330.426 329.363,330.123 328.872 C 329.997 328.668,329.417 328.575,328.836 328.667 C 328.129 328.778,327.714 328.666,327.585 328.328 C 327.478 328.050,327.097 327.822,326.738 327.822 C 326.380 327.822,325.981 327.651,325.852 327.442 C 325.723 327.234,325.401 327.145,325.138 327.247 C 324.872 327.349,324.565 327.137,324.449 326.770 C 324.334 326.406,323.975 325.894,323.651 325.632 C 323.235 325.294,323.141 325.285,323.331 325.600 C 323.477 325.844,323.428 326.044,323.221 326.044 C 323.014 326.044,322.844 325.724,322.844 325.333 C 322.844 324.942,322.609 324.622,322.322 324.622 C 322.011 324.622,321.880 324.413,321.999 324.105 C 322.109 323.818,321.796 323.185,321.296 322.686 C 320.756 322.146,320.450 321.498,320.533 321.070 C 320.608 320.677,320.519 320.356,320.335 320.356 C 320.151 320.356,320.000 319.716,320.000 318.933 C 320.000 318.151,319.840 317.511,319.644 317.511 C 319.194 317.511,319.174 314.780,319.623 314.502 C 319.806 314.389,319.895 313.976,319.819 313.584 C 319.692 312.926,321.208 309.383,321.789 308.978 C 321.929 308.880,322.155 308.289,322.290 307.665 C 322.474 306.818,322.681 306.585,323.104 306.747 C 323.481 306.892,323.586 306.826,323.415 306.549 C 323.257 306.293,323.394 306.133,323.772 306.133 C 324.109 306.133,324.281 306.029,324.154 305.902 C 323.803 305.551,325.049 304.735,325.956 304.722 C 326.396 304.716,326.757 304.591,326.758 304.444 C 326.760 304.298,327.192 303.978,327.718 303.733 C 328.878 303.194,335.082 303.116,334.756 303.644 C 334.630 303.848,334.945 304.000,335.493 304.000 C 336.030 304.000,336.741 304.336,337.114 304.766 C 337.479 305.187,337.778 305.337,337.778 305.100 C 337.778 304.863,337.940 304.770,338.139 304.892 C 338.338 305.015,338.408 305.265,338.296 305.447 C 338.183 305.630,338.504 305.936,339.010 306.129 C 339.516 306.321,340.021 306.718,340.133 307.010 C 340.378 307.647,342.051 307.595,342.302 306.943 C 342.397 306.696,342.606 306.574,342.767 306.674 C 342.928 306.773,343.162 306.532,343.287 306.138 C 343.496 305.479,343.897 305.258,344.649 305.389 C 344.810 305.417,344.840 305.276,344.717 305.075 C 344.593 304.875,344.661 304.711,344.868 304.711 C 345.651 304.711,345.190 303.826,343.627 302.329 C 342.738 301.476,341.857 300.874,341.669 300.990 C 341.482 301.106,341.232 300.950,341.115 300.645 C 340.998 300.339,340.669 300.089,340.385 300.089 C 340.101 300.089,339.968 299.929,340.089 299.733 C 340.216 299.528,339.879 299.378,339.292 299.378 C 338.733 299.378,338.121 299.223,337.932 299.034 C 337.743 298.845,337.071 298.651,336.439 298.603 C 335.806 298.555,335.289 298.389,335.289 298.235 C 335.289 297.821,328.258 297.894,328.000 298.311 M205.407 303.706 C 205.643 303.901,205.993 303.964,206.185 303.845 C 206.377 303.727,206.675 303.881,206.846 304.187 C 207.018 304.494,207.497 304.771,207.910 304.802 C 208.324 304.833,208.583 304.986,208.488 305.140 C 208.392 305.295,208.639 305.422,209.037 305.422 C 209.438 305.422,210.041 305.858,210.387 306.400 C 210.731 306.938,211.217 307.591,211.465 307.851 C 211.714 308.111,211.827 308.471,211.716 308.651 C 211.605 308.831,211.683 308.978,211.890 308.978 C 212.097 308.978,212.267 309.298,212.267 309.689 C 212.267 310.080,212.427 310.400,212.622 310.400 C 212.818 310.400,212.978 310.729,212.978 311.132 C 212.978 311.535,213.138 311.765,213.333 311.644 C 213.668 311.437,213.853 312.619,213.707 314.044 C 213.673 314.387,213.814 314.667,214.022 314.667 C 214.230 314.667,214.400 315.307,214.400 316.089 C 214.400 316.871,214.240 317.511,214.044 317.511 C 213.849 317.511,213.689 318.142,213.689 318.912 C 213.689 319.683,213.521 320.417,213.316 320.544 C 213.111 320.670,212.991 321.066,213.050 321.423 C 213.108 321.779,212.776 322.401,212.312 322.804 C 211.768 323.276,211.532 323.784,211.649 324.231 C 211.765 324.674,211.678 324.866,211.408 324.763 C 211.176 324.673,210.515 325.165,209.940 325.856 C 209.364 326.546,208.692 327.111,208.446 327.111 C 208.201 327.111,208.000 327.271,208.000 327.467 C 208.000 327.662,207.880 327.803,207.733 327.780 C 206.777 327.629,205.867 327.899,205.867 328.333 C 205.867 328.723,205.558 328.794,204.567 328.633 C 203.632 328.482,203.339 328.538,203.521 328.833 C 203.701 329.124,203.247 329.244,201.977 329.244 C 200.876 329.244,200.178 329.088,200.178 328.843 C 200.178 328.577,199.635 328.502,198.572 328.622 C 197.649 328.726,196.870 328.647,196.739 328.435 C 196.608 328.223,196.686 328.175,196.923 328.322 C 197.149 328.461,197.333 328.396,197.333 328.177 C 197.333 327.938,196.922 327.844,196.299 327.943 C 195.481 328.071,195.224 327.954,195.075 327.384 C 194.948 326.898,194.701 326.735,194.314 326.883 C 193.981 327.011,193.832 326.956,193.958 326.751 C 194.078 326.558,194.030 326.400,193.853 326.400 C 193.316 326.400,192.000 325.105,192.000 324.576 C 192.000 324.303,191.611 323.787,191.135 323.430 C 190.650 323.066,190.354 322.559,190.462 322.279 C 190.567 322.003,190.477 321.778,190.260 321.778 C 190.044 321.778,189.855 321.258,189.842 320.622 C 189.821 319.654,189.767 319.582,189.511 320.178 C 189.316 320.631,189.196 319.376,189.181 316.711 C 189.164 313.879,189.282 312.533,189.549 312.533 C 189.766 312.533,189.848 312.287,189.733 311.987 C 189.614 311.675,189.750 311.353,190.050 311.237 C 190.340 311.126,190.578 310.732,190.578 310.362 C 190.578 309.992,190.738 309.689,190.933 309.689 C 191.129 309.689,191.289 309.369,191.289 308.978 C 191.289 308.587,191.458 308.267,191.665 308.267 C 191.873 308.267,191.943 308.107,191.822 307.911 C 191.701 307.716,191.779 307.556,191.995 307.556 C 192.662 307.556,194.169 305.853,193.679 305.654 C 193.414 305.547,193.471 305.467,193.823 305.450 C 194.141 305.435,194.604 305.178,194.852 304.880 C 195.099 304.582,195.380 304.417,195.475 304.512 C 195.571 304.608,195.966 304.464,196.354 304.192 C 196.742 303.920,197.281 303.783,197.552 303.887 C 197.823 303.991,198.044 303.859,198.044 303.594 C 198.044 303.013,204.693 303.114,205.407 303.706 M304.000 318.578 C 304.000 319.556,303.840 320.356,303.644 320.356 C 303.449 320.356,303.289 320.918,303.289 321.605 C 303.289 322.940,302.784 324.080,301.778 325.016 C 301.436 325.334,301.156 325.856,301.156 326.175 C 301.156 326.494,301.036 326.738,300.889 326.717 C 300.352 326.640,299.022 327.203,299.022 327.508 C 299.022 327.681,298.716 327.822,298.341 327.822 C 297.966 327.822,297.594 328.017,297.515 328.255 C 297.429 328.513,296.844 328.652,296.063 328.599 C 295.309 328.548,294.756 328.674,294.756 328.895 C 294.756 329.130,294.069 329.248,292.996 329.199 C 291.955 329.152,291.324 328.977,291.451 328.771 C 291.585 328.554,291.235 328.509,290.526 328.650 C 289.806 328.794,289.467 328.748,289.606 328.524 C 289.726 328.329,289.334 328.071,288.735 327.951 C 288.135 327.831,287.644 327.587,287.644 327.407 C 287.644 327.228,287.324 326.738,286.933 326.318 C 286.542 325.898,286.222 325.345,286.222 325.089 C 286.222 324.832,286.062 324.622,285.867 324.622 C 285.671 324.622,285.511 324.222,285.511 323.733 C 285.511 323.244,285.671 322.844,285.867 322.844 C 286.062 322.844,286.222 322.513,286.222 322.108 C 286.222 321.703,286.471 321.122,286.776 320.818 C 287.081 320.513,287.239 320.027,287.128 319.737 C 286.988 319.372,287.092 319.274,287.467 319.418 C 288.070 319.649,289.778 318.986,289.778 318.521 C 289.778 318.357,290.027 318.222,290.332 318.222 C 290.672 318.222,290.790 318.051,290.635 317.778 C 290.435 317.422,290.480 317.422,290.863 317.778 C 291.494 318.364,291.911 318.341,291.911 317.721 C 291.911 317.337,292.326 317.255,293.689 317.369 C 294.745 317.457,295.467 317.372,295.467 317.159 C 295.467 316.937,297.102 316.800,299.733 316.800 L 304.000 316.800 304.000 318.578 " stroke="none" fill="#c4141c" fill-rule="evenodd"></path><path id="path1" d="M299.911 36.622 C 299.463 36.815,299.397 36.928,299.733 36.928 C 300.027 36.928,300.587 36.790,300.978 36.622 C 301.426 36.430,301.492 36.317,301.156 36.317 C 300.862 36.317,300.302 36.454,299.911 36.622 M281.956 37.896 C 281.402 38.204,281.276 38.391,281.621 38.395 C 281.926 38.398,282.486 38.165,282.865 37.878 C 283.728 37.225,283.144 37.237,281.956 37.896 M269.244 39.001 C 269.587 39.090,270.147 39.090,270.489 39.001 C 270.831 38.911,270.551 38.838,269.867 38.838 C 269.182 38.838,268.902 38.911,269.244 39.001 M248.575 78.870 C 248.552 79.324,248.773 79.935,249.067 80.229 C 249.629 80.791,249.831 80.386,249.279 79.804 C 249.102 79.619,248.881 79.147,248.787 78.756 C 248.636 78.130,248.611 78.144,248.575 78.870 M155.822 142.102 C 155.484 142.238,155.397 143.916,155.458 149.096 L 155.538 155.911 155.644 149.360 C 155.710 145.275,155.897 142.631,156.141 142.338 C 156.555 141.839,156.527 141.818,155.822 142.102 M240.237 180.504 C 240.107 180.634,240.018 181.314,240.041 182.015 L 240.082 183.289 240.359 181.867 C 240.650 180.373,240.627 180.114,240.237 180.504 M178.760 206.118 C 179.202 206.203,179.842 206.200,180.182 206.111 C 180.522 206.022,180.160 205.952,179.378 205.956 C 178.596 205.960,178.317 206.033,178.760 206.118 M120.690 210.655 C 119.792 211.335,120.181 211.341,121.470 210.669 C 122.031 210.377,122.239 210.137,121.935 210.136 C 121.630 210.134,121.070 210.368,120.690 210.655 M122.125 305.067 C 122.125 320.027,122.168 326.147,122.222 318.667 C 122.276 311.187,122.276 298.947,122.222 291.467 C 122.168 283.987,122.125 290.107,122.125 305.067 M131.725 305.067 C 131.725 320.027,131.768 326.147,131.822 318.667 C 131.876 311.187,131.876 298.947,131.822 291.467 C 131.768 283.987,131.725 290.107,131.725 305.067 M40.444 281.155 C 44.991 281.212,52.431 281.212,56.978 281.155 C 61.524 281.099,57.804 281.053,48.711 281.053 C 39.618 281.053,35.898 281.099,40.444 281.155 M177.956 284.800 C 178.310 285.191,178.660 285.511,178.734 285.511 C 178.809 285.511,178.698 285.191,178.489 284.800 C 178.280 284.409,177.929 284.089,177.710 284.089 C 177.491 284.089,177.602 284.409,177.956 284.800 M142.933 287.111 C 142.474 287.600,142.213 288.000,142.354 288.000 C 142.495 288.000,143.010 287.600,143.499 287.111 C 143.988 286.622,144.248 286.222,144.078 286.222 C 143.908 286.222,143.393 286.622,142.933 287.111 M150.933 288.356 C 150.812 288.551,151.052 288.711,151.467 288.711 C 151.881 288.711,152.121 288.551,152.000 288.356 C 151.879 288.160,151.639 288.000,151.467 288.000 C 151.294 288.000,151.054 288.160,150.933 288.356 M302.305 306.133 C 302.549 306.524,302.872 306.844,303.022 306.844 C 303.172 306.844,303.095 306.524,302.851 306.133 C 302.607 305.742,302.284 305.422,302.134 305.422 C 301.984 305.422,302.060 305.742,302.305 306.133 M224.871 319.822 C 224.871 326.667,224.919 329.416,224.977 325.933 C 225.036 322.449,225.035 316.849,224.977 313.488 C 224.919 310.127,224.871 312.978,224.871 319.822 M183.577 316.267 C 183.579 317.440,183.645 317.877,183.724 317.238 C 183.803 316.599,183.802 315.639,183.721 315.105 C 183.640 314.570,183.575 315.093,183.577 316.267 M144.366 327.666 C 144.351 328.187,145.711 329.600,146.226 329.600 C 146.458 329.600,146.296 329.354,145.867 329.054 C 145.439 328.753,144.928 328.233,144.732 327.898 C 144.537 327.563,144.372 327.459,144.366 327.666 M187.733 328.758 C 187.733 329.014,189.167 330.311,189.450 330.311 C 189.552 330.311,189.259 329.911,188.800 329.422 C 187.935 328.501,187.733 328.376,187.733 328.758 " stroke="none" fill="#c8141c" fill-rule="evenodd"></path><path id="path2" d="M299.911 36.622 C 299.463 36.815,299.397 36.928,299.733 36.928 C 300.027 36.928,300.587 36.790,300.978 36.622 C 301.426 36.430,301.492 36.317,301.156 36.317 C 300.862 36.317,300.302 36.454,299.911 36.622 M281.956 37.896 C 281.402 38.204,281.276 38.391,281.621 38.395 C 281.926 38.398,282.486 38.165,282.865 37.878 C 283.728 37.225,283.144 37.237,281.956 37.896 M269.244 39.001 C 269.587 39.090,270.147 39.090,270.489 39.001 C 270.831 38.911,270.551 38.838,269.867 38.838 C 269.182 38.838,268.902 38.911,269.244 39.001 M248.575 78.870 C 248.552 79.324,248.773 79.935,249.067 80.229 C 249.629 80.791,249.831 80.386,249.279 79.804 C 249.102 79.619,248.881 79.147,248.787 78.756 C 248.636 78.130,248.611 78.144,248.575 78.870 M155.822 142.102 C 155.484 142.238,155.397 143.916,155.458 149.096 L 155.538 155.911 155.644 149.360 C 155.710 145.275,155.897 142.631,156.141 142.338 C 156.555 141.839,156.527 141.818,155.822 142.102 M240.237 180.504 C 240.107 180.634,240.018 181.314,240.041 182.015 L 240.082 183.289 240.359 181.867 C 240.650 180.373,240.627 180.114,240.237 180.504 M178.760 206.118 C 179.202 206.203,179.842 206.200,180.182 206.111 C 180.522 206.022,180.160 205.952,179.378 205.956 C 178.596 205.960,178.317 206.033,178.760 206.118 M120.690 210.655 C 119.792 211.335,120.181 211.341,121.470 210.669 C 122.031 210.377,122.239 210.137,121.935 210.136 C 121.630 210.134,121.070 210.368,120.690 210.655 M122.125 305.067 C 122.125 320.027,122.168 326.147,122.222 318.667 C 122.276 311.187,122.276 298.947,122.222 291.467 C 122.168 283.987,122.125 290.107,122.125 305.067 M131.725 305.067 C 131.725 320.027,131.768 326.147,131.822 318.667 C 131.876 311.187,131.876 298.947,131.822 291.467 C 131.768 283.987,131.725 290.107,131.725 305.067 M40.444 281.155 C 44.991 281.212,52.431 281.212,56.978 281.155 C 61.524 281.099,57.804 281.053,48.711 281.053 C 39.618 281.053,35.898 281.099,40.444 281.155 M177.956 284.800 C 178.310 285.191,178.660 285.511,178.734 285.511 C 178.809 285.511,178.698 285.191,178.489 284.800 C 178.280 284.409,177.929 284.089,177.710 284.089 C 177.491 284.089,177.602 284.409,177.956 284.800 M142.933 287.111 C 142.474 287.600,142.213 288.000,142.354 288.000 C 142.495 288.000,143.010 287.600,143.499 287.111 C 143.988 286.622,144.248 286.222,144.078 286.222 C 143.908 286.222,143.393 286.622,142.933 287.111 M150.933 288.356 C 150.812 288.551,151.052 288.711,151.467 288.711 C 151.881 288.711,152.121 288.551,152.000 288.356 C 151.879 288.160,151.639 288.000,151.467 288.000 C 151.294 288.000,151.054 288.160,150.933 288.356 M302.305 306.133 C 302.549 306.524,302.872 306.844,303.022 306.844 C 303.172 306.844,303.095 306.524,302.851 306.133 C 302.607 305.742,302.284 305.422,302.134 305.422 C 301.984 305.422,302.060 305.742,302.305 306.133 M224.871 319.822 C 224.871 326.667,224.919 329.416,224.977 325.933 C 225.036 322.449,225.035 316.849,224.977 313.488 C 224.919 310.127,224.871 312.978,224.871 319.822 M183.577 316.267 C 183.579 317.440,183.645 317.877,183.724 317.238 C 183.803 316.599,183.802 315.639,183.721 315.105 C 183.640 314.570,183.575 315.093,183.577 316.267 M144.366 327.666 C 144.351 328.187,145.711 329.600,146.226 329.600 C 146.458 329.600,146.296 329.354,145.867 329.054 C 145.439 328.753,144.928 328.233,144.732 327.898 C 144.537 327.563,144.372 327.459,144.366 327.666 M187.733 328.758 C 187.733 329.014,189.167 330.311,189.450 330.311 C 189.552 330.311,189.259 329.911,188.800 329.422 C 187.935 328.501,187.733 328.376,187.733 328.758 " stroke="none" fill="#c8141c" fill-rule="evenodd"></path><path id="path3" d="M299.911 36.622 C 299.463 36.815,299.397 36.928,299.733 36.928 C 300.027 36.928,300.587 36.790,300.978 36.622 C 301.426 36.430,301.492 36.317,301.156 36.317 C 300.862 36.317,300.302 36.454,299.911 36.622 M281.956 37.896 C 281.402 38.204,281.276 38.391,281.621 38.395 C 281.926 38.398,282.486 38.165,282.865 37.878 C 283.728 37.225,283.144 37.237,281.956 37.896 M269.244 39.001 C 269.587 39.090,270.147 39.090,270.489 39.001 C 270.831 38.911,270.551 38.838,269.867 38.838 C 269.182 38.838,268.902 38.911,269.244 39.001 M248.575 78.870 C 248.552 79.324,248.773 79.935,249.067 80.229 C 249.629 80.791,249.831 80.386,249.279 79.804 C 249.102 79.619,248.881 79.147,248.787 78.756 C 248.636 78.130,248.611 78.144,248.575 78.870 M155.822 142.102 C 155.484 142.238,155.397 143.916,155.458 149.096 L 155.538 155.911 155.644 149.360 C 155.710 145.275,155.897 142.631,156.141 142.338 C 156.555 141.839,156.527 141.818,155.822 142.102 M240.237 180.504 C 240.107 180.634,240.018 181.314,240.041 182.015 L 240.082 183.289 240.359 181.867 C 240.650 180.373,240.627 180.114,240.237 180.504 M178.760 206.118 C 179.202 206.203,179.842 206.200,180.182 206.111 C 180.522 206.022,180.160 205.952,179.378 205.956 C 178.596 205.960,178.317 206.033,178.760 206.118 M120.690 210.655 C 119.792 211.335,120.181 211.341,121.470 210.669 C 122.031 210.377,122.239 210.137,121.935 210.136 C 121.630 210.134,121.070 210.368,120.690 210.655 M122.125 305.067 C 122.125 320.027,122.168 326.147,122.222 318.667 C 122.276 311.187,122.276 298.947,122.222 291.467 C 122.168 283.987,122.125 290.107,122.125 305.067 M131.725 305.067 C 131.725 320.027,131.768 326.147,131.822 318.667 C 131.876 311.187,131.876 298.947,131.822 291.467 C 131.768 283.987,131.725 290.107,131.725 305.067 M40.444 281.155 C 44.991 281.212,52.431 281.212,56.978 281.155 C 61.524 281.099,57.804 281.053,48.711 281.053 C 39.618 281.053,35.898 281.099,40.444 281.155 M177.956 284.800 C 178.310 285.191,178.660 285.511,178.734 285.511 C 178.809 285.511,178.698 285.191,178.489 284.800 C 178.280 284.409,177.929 284.089,177.710 284.089 C 177.491 284.089,177.602 284.409,177.956 284.800 M142.933 287.111 C 142.474 287.600,142.213 288.000,142.354 288.000 C 142.495 288.000,143.010 287.600,143.499 287.111 C 143.988 286.622,144.248 286.222,144.078 286.222 C 143.908 286.222,143.393 286.622,142.933 287.111 M150.933 288.356 C 150.812 288.551,151.052 288.711,151.467 288.711 C 151.881 288.711,152.121 288.551,152.000 288.356 C 151.879 288.160,151.639 288.000,151.467 288.000 C 151.294 288.000,151.054 288.160,150.933 288.356 M302.305 306.133 C 302.549 306.524,302.872 306.844,303.022 306.844 C 303.172 306.844,303.095 306.524,302.851 306.133 C 302.607 305.742,302.284 305.422,302.134 305.422 C 301.984 305.422,302.060 305.742,302.305 306.133 M224.871 319.822 C 224.871 326.667,224.919 329.416,224.977 325.933 C 225.036 322.449,225.035 316.849,224.977 313.488 C 224.919 310.127,224.871 312.978,224.871 319.822 M183.577 316.267 C 183.579 317.440,183.645 317.877,183.724 317.238 C 183.803 316.599,183.802 315.639,183.721 315.105 C 183.640 314.570,183.575 315.093,183.577 316.267 M144.366 327.666 C 144.351 328.187,145.711 329.600,146.226 329.600 C 146.458 329.600,146.296 329.354,145.867 329.054 C 145.439 328.753,144.928 328.233,144.732 327.898 C 144.537 327.563,144.372 327.459,144.366 327.666 M187.733 328.758 C 187.733 329.014,189.167 330.311,189.450 330.311 C 189.552 330.311,189.259 329.911,188.800 329.422 C 187.935 328.501,187.733 328.376,187.733 328.758 " stroke="none" fill="#c8141c" fill-rule="evenodd"></path><path id="path4" d="M299.911 36.622 C 299.463 36.815,299.397 36.928,299.733 36.928 C 300.027 36.928,300.587 36.790,300.978 36.622 C 301.426 36.430,301.492 36.317,301.156 36.317 C 300.862 36.317,300.302 36.454,299.911 36.622 M281.956 37.896 C 281.402 38.204,281.276 38.391,281.621 38.395 C 281.926 38.398,282.486 38.165,282.865 37.878 C 283.728 37.225,283.144 37.237,281.956 37.896 M269.244 39.001 C 269.587 39.090,270.147 39.090,270.489 39.001 C 270.831 38.911,270.551 38.838,269.867 38.838 C 269.182 38.838,268.902 38.911,269.244 39.001 M248.575 78.870 C 248.552 79.324,248.773 79.935,249.067 80.229 C 249.629 80.791,249.831 80.386,249.279 79.804 C 249.102 79.619,248.881 79.147,248.787 78.756 C 248.636 78.130,248.611 78.144,248.575 78.870 M155.822 142.102 C 155.484 142.238,155.397 143.916,155.458 149.096 L 155.538 155.911 155.644 149.360 C 155.710 145.275,155.897 142.631,156.141 142.338 C 156.555 141.839,156.527 141.818,155.822 142.102 M240.237 180.504 C 240.107 180.634,240.018 181.314,240.041 182.015 L 240.082 183.289 240.359 181.867 C 240.650 180.373,240.627 180.114,240.237 180.504 M178.760 206.118 C 179.202 206.203,179.842 206.200,180.182 206.111 C 180.522 206.022,180.160 205.952,179.378 205.956 C 178.596 205.960,178.317 206.033,178.760 206.118 M120.690 210.655 C 119.792 211.335,120.181 211.341,121.470 210.669 C 122.031 210.377,122.239 210.137,121.935 210.136 C 121.630 210.134,121.070 210.368,120.690 210.655 M122.125 305.067 C 122.125 320.027,122.168 326.147,122.222 318.667 C 122.276 311.187,122.276 298.947,122.222 291.467 C 122.168 283.987,122.125 290.107,122.125 305.067 M131.725 305.067 C 131.725 320.027,131.768 326.147,131.822 318.667 C 131.876 311.187,131.876 298.947,131.822 291.467 C 131.768 283.987,131.725 290.107,131.725 305.067 M40.444 281.155 C 44.991 281.212,52.431 281.212,56.978 281.155 C 61.524 281.099,57.804 281.053,48.711 281.053 C 39.618 281.053,35.898 281.099,40.444 281.155 M177.956 284.800 C 178.310 285.191,178.660 285.511,178.734 285.511 C 178.809 285.511,178.698 285.191,178.489 284.800 C 178.280 284.409,177.929 284.089,177.710 284.089 C 177.491 284.089,177.602 284.409,177.956 284.800 M142.933 287.111 C 142.474 287.600,142.213 288.000,142.354 288.000 C 142.495 288.000,143.010 287.600,143.499 287.111 C 143.988 286.622,144.248 286.222,144.078 286.222 C 143.908 286.222,143.393 286.622,142.933 287.111 M150.933 288.356 C 150.812 288.551,151.052 288.711,151.467 288.711 C 151.881 288.711,152.121 288.551,152.000 288.356 C 151.879 288.160,151.639 288.000,151.467 288.000 C 151.294 288.000,151.054 288.160,150.933 288.356 M302.305 306.133 C 302.549 306.524,302.872 306.844,303.022 306.844 C 303.172 306.844,303.095 306.524,302.851 306.133 C 302.607 305.742,302.284 305.422,302.134 305.422 C 301.984 305.422,302.060 305.742,302.305 306.133 M224.871 319.822 C 224.871 326.667,224.919 329.416,224.977 325.933 C 225.036 322.449,225.035 316.849,224.977 313.488 C 224.919 310.127,224.871 312.978,224.871 319.822 M183.577 316.267 C 183.579 317.440,183.645 317.877,183.724 317.238 C 183.803 316.599,183.802 315.639,183.721 315.105 C 183.640 314.570,183.575 315.093,183.577 316.267 M144.366 327.666 C 144.351 328.187,145.711 329.600,146.226 329.600 C 146.458 329.600,146.296 329.354,145.867 329.054 C 145.439 328.753,144.928 328.233,144.732 327.898 C 144.537 327.563,144.372 327.459,144.366 327.666 M187.733 328.758 C 187.733 329.014,189.167 330.311,189.450 330.311 C 189.552 330.311,189.259 329.911,188.800 329.422 C 187.935 328.501,187.733 328.376,187.733 328.758 " stroke="none" fill="#c8141c" fill-rule="evenodd"></path></g></svg>