<?xml version="1.0" encoding="utf-8"?>
<!-- Generator: Adobe Illustrator 19.0.0, SVG Export Plug-In . SVG Version: 6.00 Build 0)  -->
<svg version="1.1" id="Layer_1" xmlns="http://www.w3.org/2000/svg" xmlns:xlink="http://www.w3.org/1999/xlink" x="0px" y="0px"
	 viewBox="-351 192.4 256.4 188.6" style="enable-background:new -351 192.4 256.4 188.6;" xml:space="preserve">
<style type="text/css">
	.st0{opacity:0.19;fill:#9E8B8A;enable-background:new    ;}
	.st1{fill:#FFFFFF;}
	.st2{fill:#C7B299;}
</style>
<path id="XMLID_40_" class="st0" d="M-114.9,381h-215.8c-11.2,0-20.3-9.1-20.3-20.3v-148c0-11.2,9.1-20.3,20.3-20.3h215.8
	c11.2,0,20.3,9.1,20.3,20.3v148C-94.6,371.9-103.7,381-114.9,381z"/>
<g>
	<path class="st1" d="M-293.3,215.8c0.1-0.3,0.3-0.5,0.5-0.8s0.5-0.4,0.8-0.5s0.6-0.2,1-0.2h4.1c0.3,0,0.6,0.1,0.9,0.2
		c0.3,0.1,0.5,0.3,0.8,0.5s0.4,0.5,0.5,0.8c0.1,0.3,0.2,0.6,0.2,0.9v1.3l-2.6,0.5v-1.1c0-0.2-0.1-0.3-0.2-0.4
		c-0.1-0.1-0.3-0.2-0.4-0.2h-2.4c-0.2,0-0.3,0.1-0.4,0.2c-0.1,0.1-0.2,0.3-0.2,0.4v4.2c0.6-0.2,1.3-0.4,2-0.5
		c0.7-0.1,1.4-0.2,1.9-0.2c0.8,0,1.4,0.2,1.8,0.7c0.4,0.5,0.6,1,0.6,1.7v3.9c0,0.3-0.1,0.6-0.2,0.9s-0.3,0.5-0.5,0.8
		c-0.2,0.2-0.5,0.4-0.8,0.5c-0.3,0.1-0.6,0.2-1,0.2h-4.2c-0.3,0-0.6-0.1-0.9-0.2c-0.3-0.1-0.5-0.3-0.8-0.5s-0.4-0.5-0.5-0.8
		c-0.1-0.3-0.2-0.6-0.2-0.9v-10.5C-293.5,216.5-293.4,216.1-293.3,215.8z M-290.8,226.6c0,0.2,0.1,0.3,0.2,0.4
		c0.1,0.1,0.3,0.2,0.4,0.2h2.5c0.2,0,0.3-0.1,0.4-0.2c0.1-0.1,0.2-0.3,0.2-0.4V224c0-0.2-0.1-0.3-0.2-0.4c-0.1-0.1-0.3-0.2-0.5-0.2
		c-0.1,0-0.3,0-0.6,0c-0.2,0-0.5,0.1-0.7,0.1s-0.5,0.1-0.7,0.1c-0.2,0.1-0.4,0.1-0.5,0.1c-0.4,0.1-0.6,0.4-0.6,0.8V226.6z"/>
	<path class="st1" d="M-270.2,214.4h2.4l2.8,10.4l1.6-10.4h2.7l-2.7,15.3h-2.8l-2.9-11l-2.9,11h-2.8l-2.7-15.3h2.7l1.6,10.4
		L-270.2,214.4z"/>
	<path class="st1" d="M-257,229.5c-0.3-0.1-0.6-0.3-0.8-0.5c-0.2-0.2-0.4-0.5-0.5-0.8s-0.2-0.6-0.2-1v-10.2c0-0.4,0.1-0.7,0.2-1
		c0.1-0.3,0.3-0.6,0.5-0.8c0.2-0.2,0.5-0.4,0.8-0.5s0.6-0.2,1-0.2h5.4c0.4,0,0.7,0.1,1,0.2s0.6,0.3,0.8,0.5c0.2,0.2,0.4,0.5,0.5,0.8
		c0.1,0.3,0.2,0.6,0.2,1v10.2c0,0.4-0.1,0.7-0.2,1s-0.3,0.6-0.5,0.8c-0.2,0.2-0.5,0.4-0.8,0.5s-0.6,0.2-1,0.2h-5.4
		C-256.4,229.6-256.7,229.6-257,229.5z M-250.9,217.5c0-0.2-0.1-0.3-0.2-0.4c-0.1-0.1-0.3-0.2-0.4-0.2h-3.7c-0.2,0-0.3,0.1-0.4,0.2
		c-0.1,0.1-0.2,0.3-0.2,0.4v9c0,0.2,0.1,0.3,0.2,0.4s0.3,0.2,0.4,0.2h3.7c0.2,0,0.3-0.1,0.4-0.2s0.2-0.3,0.2-0.4V217.5z"/>
	<path class="st1" d="M-239.1,223.8h-2.9v5.9h-2.8v-15.3h8c0.4,0,0.7,0.1,1,0.2s0.6,0.3,0.8,0.5c0.2,0.2,0.4,0.5,0.5,0.8
		c0.1,0.3,0.2,0.6,0.2,1v4.3c0,0.6-0.2,1.1-0.5,1.6c-0.4,0.5-0.8,0.7-1.4,0.9l2.9,6h-3L-239.1,223.8z M-237,217.5
		c0-0.2-0.1-0.3-0.2-0.4c-0.1-0.1-0.3-0.2-0.4-0.2h-4.4v4.3h4.4c0.2,0,0.3-0.1,0.4-0.2c0.1-0.1,0.2-0.3,0.2-0.4V217.5z"/>
	<path class="st1" d="M-230.7,214.4h7.5c0.4,0,0.7,0.1,1,0.2c0.3,0.1,0.6,0.3,0.8,0.5c0.2,0.2,0.4,0.5,0.5,0.8
		c0.1,0.3,0.2,0.6,0.2,1v10.2c0,0.4-0.1,0.7-0.2,1s-0.3,0.6-0.5,0.8c-0.2,0.2-0.5,0.4-0.8,0.5c-0.3,0.1-0.6,0.2-1,0.2h-7.5V214.4z
		 M-223.5,217.5c0-0.2-0.1-0.3-0.2-0.4c-0.1-0.1-0.3-0.2-0.4-0.2h-3.9v10.2h3.9c0.2,0,0.3-0.1,0.4-0.2s0.2-0.3,0.2-0.4V217.5z"/>
	<path class="st1" d="M-206,223.7c-0.4-0.1-0.8-0.2-1.1-0.3s-0.6-0.2-0.9-0.3s-0.6-0.2-0.9-0.3c-0.3-0.1-0.7-0.2-1.1-0.3
		c-0.3-0.1-0.7-0.2-1-0.4c-0.3-0.1-0.6-0.3-0.8-0.5c-0.2-0.2-0.4-0.4-0.5-0.7c-0.1-0.3-0.2-0.6-0.2-0.9v-3.1c0-0.4,0.1-0.7,0.2-1
		c0.1-0.3,0.3-0.6,0.5-0.8c0.2-0.2,0.5-0.4,0.8-0.5s0.6-0.2,1-0.2h4.9c0.4,0,0.7,0.1,1,0.2s0.6,0.3,0.8,0.5c0.2,0.2,0.4,0.5,0.5,0.8
		c0.1,0.3,0.2,0.6,0.2,1v1.8l-2.8,0.5v-1.7c0-0.2-0.1-0.3-0.2-0.4c-0.1-0.1-0.3-0.2-0.4-0.2h-3.1c-0.2,0-0.3,0.1-0.4,0.2
		c-0.1,0.1-0.2,0.3-0.2,0.4v1.9c0,0.2,0.1,0.3,0.2,0.4c0.1,0.1,0.3,0.2,0.4,0.2c0.7,0.2,1.3,0.4,2,0.6c0.6,0.2,1.4,0.4,2.2,0.6
		c0.7,0.2,1.2,0.5,1.7,0.8c0.5,0.4,0.7,0.9,0.7,1.6v3.4c0,0.4-0.1,0.7-0.2,1s-0.3,0.6-0.5,0.8c-0.2,0.2-0.5,0.4-0.8,0.5
		c-0.3,0.1-0.6,0.2-1,0.2h-5c-0.4,0-0.7-0.1-1-0.2c-0.3-0.1-0.6-0.3-0.8-0.5c-0.2-0.2-0.4-0.5-0.5-0.8s-0.2-0.6-0.2-1v-1.7l2.8-0.5
		v1.6c0,0.2,0.1,0.3,0.2,0.4s0.3,0.2,0.4,0.2h3.2c0.2,0,0.3-0.1,0.4-0.2c0.1-0.1,0.2-0.3,0.2-0.4v-2.2c0-0.2-0.1-0.3-0.2-0.4
		C-205.6,223.8-205.8,223.7-206,223.7z"/>
	<path class="st1" d="M-200.8,214.4h11.1v2.5h-4.2v12.7h-2.8v-12.7h-4.1V214.4z"/>
	<path class="st1" d="M-186.4,229.5c-0.3-0.1-0.6-0.3-0.8-0.5c-0.2-0.2-0.4-0.5-0.5-0.8s-0.2-0.6-0.2-1v-10.2c0-0.4,0.1-0.7,0.2-1
		c0.1-0.3,0.3-0.6,0.5-0.8c0.2-0.2,0.5-0.4,0.8-0.5s0.6-0.2,1-0.2h5.4c0.4,0,0.7,0.1,1,0.2s0.6,0.3,0.8,0.5c0.2,0.2,0.4,0.5,0.5,0.8
		c0.1,0.3,0.2,0.6,0.2,1v10.2c0,0.4-0.1,0.7-0.2,1s-0.3,0.6-0.5,0.8c-0.2,0.2-0.5,0.4-0.8,0.5s-0.6,0.2-1,0.2h-5.4
		C-185.7,229.6-186.1,229.6-186.4,229.5z M-180.2,217.5c0-0.2-0.1-0.3-0.2-0.4c-0.1-0.1-0.3-0.2-0.4-0.2h-3.7
		c-0.2,0-0.3,0.1-0.4,0.2c-0.1,0.1-0.2,0.3-0.2,0.4v9c0,0.2,0.1,0.3,0.2,0.4s0.3,0.2,0.4,0.2h3.7c0.2,0,0.3-0.1,0.4-0.2
		s0.2-0.3,0.2-0.4V217.5z"/>
	<path class="st1" d="M-168.5,223.8h-2.9v5.9h-2.8v-15.3h8c0.4,0,0.7,0.1,1,0.2s0.6,0.3,0.8,0.5c0.2,0.2,0.4,0.5,0.5,0.8
		c0.1,0.3,0.2,0.6,0.2,1v4.3c0,0.6-0.2,1.1-0.5,1.6c-0.4,0.5-0.8,0.7-1.4,0.9l2.9,6h-3L-168.5,223.8z M-166.4,217.5
		c0-0.2-0.1-0.3-0.2-0.4c-0.1-0.1-0.3-0.2-0.4-0.2h-4.4v4.3h4.4c0.2,0,0.3-0.1,0.4-0.2c0.1-0.1,0.2-0.3,0.2-0.4V217.5z"/>
	<path class="st1" d="M-156.5,220.5l3-6.1h2.9l-4.5,9.1v6.1h-2.8v-6.1l-4.5-9.1h2.9L-156.5,220.5z"/>
</g>
<g>
	<path class="st2" d="M-209.1,334.9h-27.5c-0.7,0-1.3,0.6-1.3,1.3s0.6,1.3,1.3,1.3h27.5c0.7,0,1.3-0.6,1.3-1.3
		S-208.4,334.9-209.1,334.9z"/>
	<path class="st2" d="M-224.2,329.4c-0.7,0-1.3,0.6-1.3,1.3s0.6,1.3,1.3,1.3h2.7c0.7,0,1.3-0.6,1.3-1.3s-0.6-1.3-1.3-1.3H-224.2z"/>
	<path class="st2" d="M-215.9,329.4c-0.7,0-1.3,0.6-1.3,1.3s0.6,1.3,1.3,1.3h2.7c0.7,0,1.3-0.6,1.3-1.3s-0.6-1.3-1.3-1.3H-215.9z"/>
	<path class="st2" d="M-203.7,330.7c0-0.7-0.6-1.3-1.3-1.3h-2.7c-0.7,0-1.3,0.6-1.3,1.3s0.6,1.3,1.3,1.3h2.7
		C-204.2,331.9-203.7,331.4-203.7,330.7z"/>
	<path class="st2" d="M-196.7,329.4h-2.7c-0.7,0-1.3,0.6-1.3,1.3s0.6,1.3,1.3,1.3h2.7c0.7,0,1.3-0.6,1.3-1.3S-196,329.4-196.7,329.4
		z"/>
	<path class="st2" d="M-244.9,330.7c0-0.7-0.6-1.3-1.3-1.3h-2.7c-0.7,0-1.3,0.6-1.3,1.3s0.6,1.3,1.3,1.3h2.7
		C-245.4,331.9-244.9,331.4-244.9,330.7z"/>
	<path class="st2" d="M-236.6,330.7c0-0.7-0.6-1.3-1.3-1.3h-2.7c-0.7,0-1.3,0.6-1.3,1.3s0.6,1.3,1.3,1.3h2.7
		C-237.2,331.9-236.6,331.4-236.6,330.7z"/>
	<path class="st2" d="M-232.4,329.4c-0.7,0-1.3,0.6-1.3,1.3s0.6,1.3,1.3,1.3h2.7c0.7,0,1.3-0.6,1.3-1.3s-0.6-1.3-1.3-1.3H-232.4z"/>
	<path class="st2" d="M-224.2,320.9h2.7c0.7,0,1.3-0.6,1.3-1.3s-0.6-1.3-1.3-1.3h-2.7c-0.7,0-1.3,0.6-1.3,1.3
		S-224.9,320.9-224.2,320.9z"/>
	<path class="st2" d="M-215.9,320.9h2.7c0.7,0,1.3-0.6,1.3-1.3s-0.6-1.3-1.3-1.3h-2.7c-0.7,0-1.3,0.6-1.3,1.3
		S-216.6,320.9-215.9,320.9z"/>
	<path class="st2" d="M-207.7,320.9h2.7c0.7,0,1.3-0.6,1.3-1.3s-0.6-1.3-1.3-1.3h-2.7c-0.7,0-1.3,0.6-1.3,1.3
		S-208.4,320.9-207.7,320.9z"/>
	<path class="st2" d="M-199.4,320.9h2.7c0.7,0,1.3-0.6,1.3-1.3s-0.6-1.3-1.3-1.3h-2.7c-0.7,0-1.3,0.6-1.3,1.3
		S-200.2,320.9-199.4,320.9z"/>
	<path class="st2" d="M-248.9,320.9h2.7c0.7,0,1.3-0.6,1.3-1.3s-0.6-1.3-1.3-1.3h-2.7c-0.7,0-1.3,0.6-1.3,1.3
		S-249.6,320.9-248.9,320.9z"/>
	<path class="st2" d="M-240.7,320.9h2.7c0.7,0,1.3-0.6,1.3-1.3s-0.6-1.3-1.3-1.3h-2.7c-0.7,0-1.3,0.6-1.3,1.3
		S-241.4,320.9-240.7,320.9z"/>
	<path class="st2" d="M-232.4,320.9h2.7c0.7,0,1.3-0.6,1.3-1.3s-0.6-1.3-1.3-1.3h-2.7c-0.7,0-1.3,0.6-1.3,1.3
		S-233.1,320.9-232.4,320.9z"/>
	<path class="st2" d="M-221.3,325.2c0,0.7,0.6,1.3,1.3,1.3h2.7c0.7,0,1.3-0.6,1.3-1.3s-0.6-1.3-1.3-1.3h-2.7
		C-220.8,323.9-221.3,324.4-221.3,325.2z"/>
	<path class="st2" d="M-213.1,325.2c0,0.7,0.6,1.3,1.3,1.3h2.7c0.7,0,1.3-0.6,1.3-1.3s-0.6-1.3-1.3-1.3h-2.7
		C-212.5,323.9-213.1,324.4-213.1,325.2z"/>
	<path class="st2" d="M-204.9,325.2c0,0.7,0.6,1.3,1.3,1.3h2.7c0.7,0,1.3-0.6,1.3-1.3s-0.6-1.3-1.3-1.3h-2.7
		C-204.3,323.9-204.9,324.4-204.9,325.2z"/>
	<path class="st2" d="M-246.1,325.2c0,0.7,0.6,1.3,1.3,1.3h2.7c0.7,0,1.3-0.6,1.3-1.3s-0.6-1.3-1.3-1.3h-2.7
		C-245.5,323.9-246.1,324.4-246.1,325.2z"/>
	<path class="st2" d="M-249,325.2c0-0.7-0.6-1.3-1.3-1.3h-2.7c-0.7,0-1.3,0.6-1.3,1.3s0.6,1.3,1.3,1.3h2.7
		C-249.6,326.4-249,325.9-249,325.2z"/>
	<path class="st2" d="M-192.6,323.9h-2.7c-0.7,0-1.3,0.6-1.3,1.3s0.6,1.3,1.3,1.3h2.7c0.7,0,1.3-0.6,1.3-1.3
		S-191.9,323.9-192.6,323.9z"/>
	<path class="st2" d="M-200.8,334.9h-2.7c-0.7,0-1.3,0.6-1.3,1.3s0.6,1.3,1.3,1.3h2.7c0.7,0,1.3-0.6,1.3-1.3
		S-200.1,334.9-200.8,334.9z"/>
	<path class="st2" d="M-242,334.9h-2.7c-0.7,0-1.3,0.6-1.3,1.3s0.6,1.3,1.3,1.3h2.7c0.7,0,1.3-0.6,1.3-1.3S-241.3,334.9-242,334.9z"
		/>
	<path class="st2" d="M-237.8,325.2c0,0.7,0.6,1.3,1.3,1.3h2.7c0.7,0,1.3-0.6,1.3-1.3s-0.6-1.3-1.3-1.3h-2.7
		C-237.2,323.9-237.8,324.4-237.8,325.2z"/>
	<path class="st2" d="M-229.6,325.2c0,0.7,0.6,1.3,1.3,1.3h2.7c0.7,0,1.3-0.6,1.3-1.3s-0.6-1.3-1.3-1.3h-2.7
		C-229,323.9-229.6,324.4-229.6,325.2z"/>
	<path class="st2" d="M-188.5,310.1h-7v-5.7h1.8c0.5,1.6,2,2.7,3.8,2.7c2.2,0,4-1.8,4-4v-5.5c0-2.2-1.8-4-4-4
		c-1.8,0-3.3,1.2-3.8,2.7h-5.9v-27.6c0-2.2-1.8-4-4-4H-242c-2.2,0-4,1.8-4,4v27.6h-5.9c-0.5-1.6-2-2.7-3.8-2.7c-2.2,0-4,1.8-4,4v5.5
		c0,2.2,1.8,4,4,4c1.8,0,3.3-1.2,3.8-2.7h1.8v5.7h-7c-3,0-5.4,2.4-5.4,5.4v23.4c0,3,2.4,5.4,5.4,5.4h68.7c3,0,5.4-2.4,5.4-5.4v-23.4
		C-183.1,312.6-185.5,310.1-188.5,310.1z M-251.7,301.9V299h57.9v2.9H-251.7z M-209.2,304.5c-0.4,1.6-1.7,3.2-3.7,4.4
		c-2.6,1.7-6.2,2.6-10,2.6c-3.8,0-7.3-0.9-10-2.6c-2-1.2-3.2-2.8-3.7-4.4H-209.2z M-189.8,296.2c0.8,0,1.5,0.7,1.5,1.5v5.5
		c0,0.8-0.7,1.5-1.5,1.5s-1.5-0.7-1.5-1.5v-5.5C-191.3,296.9-190.6,296.2-189.8,296.2z M-243.5,268.8c0-0.8,0.7-1.5,1.5-1.5h38.5
		c0.8,0,1.5,0.7,1.5,1.5v27.6h-41.4V268.8z M-255.8,304.6c-0.8,0-1.5-0.7-1.5-1.5v-5.5c0-0.8,0.7-1.5,1.5-1.5c0.8,0,1.5,0.7,1.5,1.5
		v5.5C-254.3,304-255,304.6-255.8,304.6z M-185.6,338.9c0,1.6-1.3,2.8-2.8,2.8h-68.7c-1.6,0-2.8-1.3-2.8-2.8v-23.4
		c0-1.6,1.3-2.8,2.8-2.8h8.2c0.7,0,1.3-0.6,1.3-1.3v-7h8.5c0.4,2.5,2.1,4.8,4.9,6.6c3.1,1.9,7.1,3,11.4,3c4.3,0,8.3-1.1,11.4-3
		c2.8-1.8,4.5-4.1,4.9-6.6h8.5v7c0,0.7,0.6,1.3,1.3,1.3h8.2c1.6,0,2.8,1.3,2.8,2.8V338.9z"/>
	<path class="st2" d="M-209.1,289.5h-27.5c-0.7,0-1.3,0.6-1.3,1.3s0.6,1.3,1.3,1.3h27.5c0.7,0,1.3-0.6,1.3-1.3
		S-208.4,289.5-209.1,289.5z"/>
	<path class="st2" d="M-209.1,282.7h-27.5c-0.7,0-1.3,0.6-1.3,1.3s0.6,1.3,1.3,1.3h27.5c0.7,0,1.3-0.6,1.3-1.3
		S-208.4,282.7-209.1,282.7z"/>
	<path class="st2" d="M-209.1,275.8h-27.5c-0.7,0-1.3,0.6-1.3,1.3s0.6,1.3,1.3,1.3h27.5c0.7,0,1.3-0.6,1.3-1.3
		S-208.4,275.8-209.1,275.8z"/>
</g>
</svg>
