<?xml version="1.0" encoding="utf-8"?>
<!-- Generator: Adobe Illustrator 19.0.0, SVG Export Plug-In . SVG Version: 6.00 Build 0)  -->
<svg version="1.1" id="Capa_1" xmlns="http://www.w3.org/2000/svg" xmlns:xlink="http://www.w3.org/1999/xlink" x="0px" y="0px"
	 viewBox="-95.2 186.7 256.4 188.6" style="enable-background:new -95.2 186.7 256.4 188.6;" xml:space="preserve">
<style type="text/css">
	.st0{opacity:0.19;fill:#9E8B8A;enable-background:new    ;}
	.st1{fill:#C7B299;}
	.st2{fill:#FFFFFF;}
</style>
<path id="XMLID_40_" class="st0" d="M140.9,375.3H-74.9c-11.2,0-20.3-9.1-20.3-20.3V207c0-11.2,9.1-20.3,20.3-20.3h215.8
	c11.2,0,20.3,9.1,20.3,20.3v148C161.2,366.2,152.1,375.3,140.9,375.3z"/>
<g>
	<g>
		<g>
			<path class="st1" d="M67.3,290.2c-0.9,0-1.7,0.7-1.7,1.7c0,1,0.8,1.8,1.8,1.7c0.9-0.1,1.5-0.8,1.5-1.7
				C68.9,290.9,68.2,290.2,67.3,290.2z"/>
		</g>
	</g>
	<g>
		<g>
			<path class="st1" d="M33,283.5c-0.9,0-1.7,0.7-1.7,1.7c0,0.9,0.6,1.6,1.5,1.7c1,0.1,1.8-0.7,1.8-1.7
				C34.7,284.2,33.9,283.5,33,283.5z"/>
		</g>
	</g>
	<g>
		<g>
			<path class="st1" d="M33,276.8c-11.9,0-21.6,9.7-21.6,21.6c0,11.9,9.7,21.6,21.6,21.6s21.6-9.7,21.6-21.6
				C54.6,286.5,44.9,276.8,33,276.8z M33,316.8c-10.1,0-18.3-8.2-18.3-18.3s8.2-18.3,18.3-18.3s18.3,8.2,18.3,18.3
				S43.1,316.8,33,316.8z"/>
		</g>
	</g>
	<g>
		<g>
			<path class="st1" d="M40.3,285.4c-0.8-0.4-1.8-0.2-2.3,0.6c-0.4,0.8-0.2,1.8,0.6,2.3c3.7,2.1,6,6,6,10.2c0,0.9,0.7,1.7,1.7,1.7
				s1.7-0.7,1.7-1.7C48,293,45,288,40.3,285.4z"/>
		</g>
	</g>
	<g>
		<g>
			<path class="st1" d="M70.6,273.5h-1.7v-5c0-0.9-0.7-1.7-1.7-1.7h-6.7c-0.9,0-1.7,0.7-1.7,1.7v5H46.3c-1.6-0.9-3.3-1.6-5-2.1v-4.6
				h5c2.8,0,5-2.2,5-5v-10c0-2.8-2.2-5-5-5H19.7c-2.8,0-5,2.2-5,5v10c0,2.8,2.2,5,5,5h5v4.6c-1.7,0.5-3.4,1.2-5,2.1
				c-4,0-8.9,0-12.6,0v-5c0-0.9-0.7-1.7-1.7-1.7h-6.7c-0.9,0-1.7,0.7-1.7,1.7v5h-1.7c-2.8,0-5,2.2-5,5c0,1.6,0,38.2,0,39.9
				c0,2.8,2.2,5,5,5h24.3c4.1,2.2,8.7,3.3,13.3,3.3s9.2-1.2,13.3-3.3h24.3c2.8,0,5-2.2,5-5c0-1.6,0-38.2,0-39.9
				C75.6,275.8,73.4,273.5,70.6,273.5z M62.3,270.2h3.3v3.3h-3.3V270.2z M19.7,263.5c-0.9,0-1.7-0.7-1.7-1.7v-10
				c0-0.9,0.7-1.7,1.7-1.7h26.6c0.9,0,1.7,0.7,1.7,1.7v10c0,0.9-0.7,1.7-1.7,1.7H19.7z M38,266.9v3.8c-1.6-0.3-3.3-0.4-5-0.4
				c-1.7,0-3.4,0.2-5,0.4v-3.8H38z M0.4,270.2h3.3v3.3H0.4V270.2z M-6.3,278.5c0-0.9,0.7-1.7,1.7-1.7h19.4c-2.3,1.9-4.2,4.2-5.8,6.7
				H-6.3V278.5z M-6.3,286.8H7.2c-1.6,3.6-2.5,7.6-2.5,11.7c0,4,0.9,8,2.5,11.6H-6.3V286.8z M-4.6,320.1c-0.9,0-1.7-0.7-1.7-1.7v-5
				H9c1.6,2.5,3.5,4.8,5.8,6.7H-4.6z M33,323.4c-13.8,0-25-11.2-25-25c0-13.7,11.1-25,25-25c13.8,0,25,11.2,25,25
				C58,312.3,46.7,323.4,33,323.4z M72.3,318.4c0,0.9-0.7,1.7-1.7,1.7H51.2c2.3-1.9,4.2-4.1,5.8-6.7h15.3V318.4z M72.3,310.1H58.8
				c1.6-3.6,2.5-7.6,2.5-11.6c0-4-0.9-8-2.5-11.6h13.5V310.1z M72.3,283.5H57c-1.6-2.5-3.5-4.8-5.8-6.7h19.4c0.9,0,1.7,0.7,1.7,1.7
				V283.5z"/>
		</g>
	</g>
	<g>
		<g>
			<path class="st1" d="M43,253.5c-0.9,0-1.7,0.7-1.7,1.7v3.3c0,0.9,0.7,1.7,1.7,1.7s1.7-0.7,1.7-1.7v-3.3
				C44.6,254.3,43.9,253.5,43,253.5z"/>
		</g>
	</g>
</g>
<g>
	<path class="st2" d="M-14.3,206h7.9c0.4,0,0.7,0.1,1,0.2s0.6,0.3,0.8,0.5s0.4,0.5,0.5,0.8s0.2,0.6,0.2,1v4.4c0,0.4-0.1,0.7-0.2,1
		c-0.1,0.3-0.3,0.6-0.5,0.8s-0.5,0.4-0.8,0.5s-0.6,0.2-1,0.2h-5.1v6h-2.8V206z M-6.7,209.2c0-0.2-0.1-0.3-0.2-0.4
		c-0.1-0.1-0.3-0.2-0.4-0.2h-4.2v4.4h4.2c0.2,0,0.3-0.1,0.4-0.2c0.1-0.1,0.2-0.3,0.2-0.4V209.2z"/>
	<path class="st2" d="M1.4,221.6h-2.8V206h2.8V221.6z"/>
	<path class="st2" d="M9.7,211.1l2.9-5.1h2.9l-4.3,7.6l4.4,7.9h-2.9l-3-5.3l-3,5.3H3.8l4.4-7.9L3.9,206h2.9L9.7,211.1z"/>
	<path class="st2" d="M18.1,206h9.4v2.6h-6.6v3.8h6v2.6h-6v4h6.6v2.6h-9.4V206z"/>
	<path class="st2" d="M30.5,206h2.8v13h6.3v2.6h-9.1V206z"/>
	<path class="st2" d="M54.7,221.6h-2.8l-1.1-3.4h-5.2l-1.1,3.4h-2.8l5.2-15.5h2.6L54.7,221.6z M46.3,215.7h3.6l-1.8-5.9L46.3,215.7z
		"/>
	<path class="st2" d="M54.2,206h11.2v2.6h-4.2v13h-2.8v-13h-4.2V206z"/>
	<path class="st2" d="M67.6,206H77v2.6h-6.6v3.8h6v2.6h-6v4H77v2.6h-9.4V206z"/>
</g>
</svg>
