<?xml version="1.0" encoding="utf-8"?>
<!-- Generator: Adobe Illustrator 19.0.0, SVG Export Plug-In . SVG Version: 6.00 Build 0)  -->
<svg version="1.1" id="Layer_1" xmlns="http://www.w3.org/2000/svg" xmlns:xlink="http://www.w3.org/1999/xlink" x="0px" y="0px"
	 viewBox="-351 186.4 256.4 188.6" style="enable-background:new -351 186.4 256.4 188.6;" xml:space="preserve">
<style type="text/css">
	.st0{opacity:0.19;fill:#9E8B8A;enable-background:new    ;}
	.st1{fill:#FFFFFF;}
	.st2{fill:#C7B299;}
</style>
<path id="XMLID_40_" class="st0" d="M-114.9,375h-215.8c-11.2,0-20.3-9.1-20.3-20.3v-148c0-11.2,9.1-20.3,20.3-20.3h215.8
	c11.2,0,20.3,9.1,20.3,20.3v148C-94.6,365.9-103.7,375-114.9,375z"/>
<g>
	<g>
		<path class="st1" d="M-249.5,351.9h1.3l1.6,5.8l0.9-5.8h1.5l-1.5,8.5h-1.5l-1.6-6.1l-1.6,6.1h-1.5l-1.5-8.5h1.5l0.9,5.8
			L-249.5,351.9z"/>
		<path class="st1" d="M-242.1,360.2c-0.2-0.1-0.3-0.2-0.4-0.3c-0.1-0.1-0.2-0.3-0.3-0.4s-0.1-0.4-0.1-0.5v-5.7c0-0.2,0-0.4,0.1-0.5
			s0.2-0.3,0.3-0.4c0.1-0.1,0.3-0.2,0.4-0.3c0.2-0.1,0.4-0.1,0.5-0.1h3c0.2,0,0.4,0,0.5,0.1c0.2,0.1,0.3,0.2,0.4,0.3
			c0.1,0.1,0.2,0.3,0.3,0.4s0.1,0.4,0.1,0.5v5.7c0,0.2,0,0.4-0.1,0.5s-0.2,0.3-0.3,0.4c-0.1,0.1-0.3,0.2-0.4,0.3s-0.4,0.1-0.5,0.1
			h-3C-241.8,360.3-242,360.3-242.1,360.2z M-238.7,353.6c0-0.1,0-0.2-0.1-0.2c-0.1-0.1-0.1-0.1-0.2-0.1h-2c-0.1,0-0.2,0-0.2,0.1
			c-0.1,0.1-0.1,0.1-0.1,0.2v5c0,0.1,0,0.2,0.1,0.2s0.1,0.1,0.2,0.1h2c0.1,0,0.2,0,0.2-0.1s0.1-0.1,0.1-0.2V353.6z"/>
		<path class="st1" d="M-232.2,357.1h-1.6v3.3h-1.5v-8.5h4.4c0.2,0,0.4,0,0.5,0.1c0.2,0.1,0.3,0.2,0.4,0.3c0.1,0.1,0.2,0.3,0.3,0.4
			s0.1,0.4,0.1,0.5v2.4c0,0.3-0.1,0.6-0.3,0.9c-0.2,0.3-0.5,0.4-0.8,0.5l1.6,3.3h-1.7L-232.2,357.1z M-231,353.6
			c0-0.1,0-0.2-0.1-0.2c-0.1-0.1-0.1-0.1-0.2-0.1h-2.4v2.4h2.4c0.1,0,0.2,0,0.2-0.1c0.1-0.1,0.1-0.1,0.1-0.2V353.6z"/>
		<path class="st1" d="M-227.5,351.9h1.5v4l2.6-4h1.8l-2.9,4.2l3,4.3h-1.8l-2.8-4v4h-1.5V351.9z"/>
		<path class="st1" d="M-216.9,357c-0.2-0.1-0.5-0.1-0.6-0.2c-0.2-0.1-0.4-0.1-0.5-0.1c-0.2,0-0.3-0.1-0.5-0.1
			c-0.2-0.1-0.4-0.1-0.6-0.2c-0.2-0.1-0.4-0.1-0.5-0.2c-0.2-0.1-0.3-0.2-0.4-0.3s-0.2-0.2-0.3-0.4s-0.1-0.3-0.1-0.5v-1.7
			c0-0.2,0-0.4,0.1-0.5s0.2-0.3,0.3-0.4c0.1-0.1,0.3-0.2,0.4-0.3c0.2-0.1,0.4-0.1,0.5-0.1h2.7c0.2,0,0.4,0,0.5,0.1
			c0.2,0.1,0.3,0.2,0.4,0.3c0.1,0.1,0.2,0.3,0.3,0.4s0.1,0.4,0.1,0.5v1l-1.5,0.3v-0.9c0-0.1,0-0.2-0.1-0.2c-0.1-0.1-0.1-0.1-0.2-0.1
			h-1.7c-0.1,0-0.2,0-0.2,0.1c-0.1,0.1-0.1,0.1-0.1,0.2v1.1c0,0.1,0,0.2,0.1,0.2s0.1,0.1,0.2,0.1c0.4,0.1,0.7,0.2,1.1,0.3
			s0.8,0.2,1.2,0.3c0.4,0.1,0.7,0.3,0.9,0.5s0.4,0.5,0.4,0.9v1.9c0,0.2,0,0.4-0.1,0.5s-0.2,0.3-0.3,0.4c-0.1,0.1-0.3,0.2-0.4,0.3
			s-0.4,0.1-0.5,0.1h-2.8c-0.2,0-0.4,0-0.5-0.1s-0.3-0.2-0.4-0.3c-0.1-0.1-0.2-0.3-0.3-0.4s-0.1-0.4-0.1-0.5v-1l1.5-0.3v0.9
			c0,0.1,0,0.2,0.1,0.2s0.1,0.1,0.2,0.1h1.8c0.1,0,0.2,0,0.2-0.1c0.1-0.1,0.1-0.1,0.1-0.2v-1.2c0-0.1,0-0.2-0.1-0.2
			C-216.7,357.1-216.8,357.1-216.9,357z"/>
		<path class="st1" d="M-208.9,356.7h-2.9v3.6h-1.5v-8.5h1.5v3.5h2.9v-3.5h1.5v8.5h-1.5V356.7z"/>
		<path class="st1" d="M-204.7,360.2c-0.2-0.1-0.3-0.2-0.4-0.3c-0.1-0.1-0.2-0.3-0.3-0.4s-0.1-0.4-0.1-0.5v-5.7c0-0.2,0-0.4,0.1-0.5
			s0.2-0.3,0.3-0.4c0.1-0.1,0.3-0.2,0.4-0.3c0.2-0.1,0.4-0.1,0.5-0.1h3c0.2,0,0.4,0,0.5,0.1c0.2,0.1,0.3,0.2,0.4,0.3
			c0.1,0.1,0.2,0.3,0.3,0.4s0.1,0.4,0.1,0.5v5.7c0,0.2,0,0.4-0.1,0.5s-0.2,0.3-0.3,0.4c-0.1,0.1-0.3,0.2-0.4,0.3s-0.4,0.1-0.5,0.1
			h-3C-204.3,360.3-204.5,360.3-204.7,360.2z M-201.3,353.6c0-0.1,0-0.2-0.1-0.2c-0.1-0.1-0.1-0.1-0.2-0.1h-2c-0.1,0-0.2,0-0.2,0.1
			c-0.1,0.1-0.1,0.1-0.1,0.2v5c0,0.1,0,0.2,0.1,0.2s0.1,0.1,0.2,0.1h2c0.1,0,0.2,0,0.2-0.1s0.1-0.1,0.1-0.2V353.6z"/>
		<path class="st1" d="M-197.9,351.9h4.3c0.2,0,0.4,0,0.5,0.1c0.2,0.1,0.3,0.2,0.4,0.3c0.1,0.1,0.2,0.3,0.3,0.4s0.1,0.4,0.1,0.5v2.4
			c0,0.2,0,0.4-0.1,0.5s-0.2,0.3-0.3,0.4c-0.1,0.1-0.3,0.2-0.4,0.3c-0.2,0.1-0.4,0.1-0.5,0.1h-2.8v3.3h-1.5V351.9z M-193.7,353.6
			c0-0.1,0-0.2-0.1-0.2c-0.1-0.1-0.1-0.1-0.2-0.1h-2.3v2.4h2.3c0.1,0,0.2,0,0.2-0.1c0.1-0.1,0.1-0.1,0.1-0.2V353.6z"/>
	</g>
</g>
<g>
	<path class="st2" d="M-261.5,270.2h6.2v3.1h-6.2V270.2z"/>
	<path class="st2" d="M-179.4,264c2.6,0,4.6-2.1,4.6-4.6v-15.5c0-2.6-2.1-4.6-4.6-4.6h-21.7c-2.6,0-4.6,2.1-4.6,4.6v15.5
		c0,2.6,2.1,4.6,4.6,4.6h4.6v3.1h-3.1v3.1h7.7v15.5h-6.4c-1.2-1.2-2.8-2.1-4.5-2.6c0-0.2,0-0.3,0-0.5c0-6.8-5.6-12.4-12.4-12.4
		c-4.2,0-8.2,2.2-10.4,5.7c-1.6-0.7-3.3-1.1-5.1-1.1c-5.1,0-9.8,3.2-11.6,8c-1.2,0.3-2.3,0.7-3.3,1.3h-11.5v-4.6h6.2
		c2.6,0,4.6-2.1,4.6-4.6v-31c0-2.6-2.1-4.6-4.6-4.6h-15.5c-2.6,0-4.6,2.1-4.6,4.6v31c0,2.6,2.1,4.6,4.6,4.6h6.2v7.7h11.3
		c-0.7,0.9-1.2,2-1.5,3.1h-6.7v17h-6.2c-2.6,0-4.6,2.1-4.6,4.6v13.9h-3.1v4.6c0,2.6,2.1,4.6,4.6,4.6h24.8c2.6,0,4.6-2.1,4.6-4.6
		v-4.6h-3.1V312c0-2.6-2.1-4.6-4.6-4.6h-9.3v-13.9h3.1c0,6,4.9,10.8,10.8,10.8h34.1c5.4,0,10-4,10.7-9.3h6.3v12.4h-10.8v27.9h24.8
		v-27.9h-10.8v-15.5h-9.4c-0.2-1.1-0.5-2.1-1-3.1h7.3v-18.6h7.7v-3.1h-3.1V264H-179.4z M-249.1,264h-18.6v-15.5h18.6V264z
		 M-266.2,242.3h15.5c0.9,0,1.5,0.7,1.5,1.5v1.5h-18.6v-1.5C-267.7,243-267,242.3-266.2,242.3z M-267.7,274.8v-7.7h18.6v7.7
		c0,0.9-0.7,1.5-1.5,1.5h-15.5C-267,276.4-267.7,275.7-267.7,274.8z M-239.8,330.6c0,0.9-0.7,1.5-1.5,1.5h-24.8
		c-0.9,0-1.5-0.7-1.5-1.5V329h27.9V330.6z M-242.9,312v13.9h-21.7V312c0-0.9,0.7-1.5,1.5-1.5h18.6
		C-243.6,310.4-242.9,311.1-242.9,312z M-196.5,332.1v-9.3h18.6v9.3H-196.5z M-177.9,319.7h-18.6v-9.3h18.6V319.7z M-205.8,301.1
		h-34.1c-4.3,0-7.7-3.5-7.7-7.7c0-3.9,2.9-7.2,6.8-7.7l1-0.1l0.3-1c1.1-3.9,4.8-6.7,8.9-6.7c1.7,0,3.4,0.5,4.9,1.4l1.5,0.9l0.7-1.6
		c1.5-3.3,4.8-5.4,8.4-5.4c5.1,0,9.3,4.2,9.3,9.3c0,0.4,0,0.9-0.1,1.4l-0.2,1.5l1.5,0.2c3.7,0.6,6.6,3.9,6.6,7.6
		C-198,297.7-201.5,301.1-205.8,301.1z M-201.1,242.3h21.7c0.9,0,1.5,0.7,1.5,1.5v10.8h-24.8v-10.8
		C-202.7,243-202,242.3-201.1,242.3z M-202.7,259.3v-1.5h24.8v1.5c0,0.9-0.7,1.5-1.5,1.5h-21.7C-202,260.9-202.7,260.2-202.7,259.3z
		 M-187.2,267.1h-6.2V264h6.2V267.1z"/>
	<path class="st2" d="M-193.4,313.5h3.1v3.1h-3.1V313.5z"/>
	<path class="st2" d="M-184.1,325.9h3.1v3.1h-3.1V325.9z"/>
	<path class="st2" d="M-187.2,313.5h6.2v3.1h-6.2V313.5z"/>
	<path class="st2" d="M-193.4,325.9h6.2v3.1h-6.2V325.9z"/>
</g>
<g>
	<path class="st1" d="M-302.7,206.3l2.6,0.4v2.2c0,0.3-0.1,0.6-0.2,0.9c-0.1,0.3-0.3,0.5-0.5,0.8s-0.5,0.4-0.8,0.5
		c-0.3,0.1-0.6,0.2-0.9,0.2h-4.9c-0.3,0-0.6-0.1-0.9-0.2c-0.3-0.1-0.5-0.3-0.8-0.5c-0.2-0.2-0.4-0.5-0.5-0.8
		c-0.1-0.3-0.2-0.6-0.2-0.9v-9.8c0-0.3,0.1-0.6,0.2-0.9c0.1-0.3,0.3-0.5,0.5-0.8c0.2-0.2,0.5-0.4,0.8-0.5c0.3-0.1,0.6-0.2,0.9-0.2
		h4.9c0.3,0,0.6,0.1,0.9,0.2c0.3,0.1,0.5,0.3,0.8,0.5c0.2,0.2,0.4,0.5,0.5,0.8c0.1,0.3,0.2,0.6,0.2,0.9v2.1l-2.6,0.4v-1.9
		c0-0.2-0.1-0.3-0.2-0.4c-0.1-0.1-0.3-0.2-0.4-0.2h-3.3c-0.2,0-0.3,0.1-0.4,0.2c-0.1,0.1-0.2,0.2-0.2,0.4v8.6c0,0.2,0.1,0.3,0.2,0.4
		c0.1,0.1,0.3,0.2,0.4,0.2h3.3c0.2,0,0.3-0.1,0.4-0.2c0.1-0.1,0.2-0.2,0.2-0.4V206.3z"/>
	<path class="st1" d="M-297,196.8h2.6V209h5.9v2.4h-8.6V196.8z"/>
	<path class="st1" d="M-284.9,211.2c-0.3-0.1-0.5-0.3-0.8-0.5c-0.2-0.2-0.4-0.5-0.5-0.8c-0.1-0.3-0.2-0.6-0.2-0.9v-9.8
		c0-0.3,0.1-0.6,0.2-0.9c0.1-0.3,0.3-0.5,0.5-0.8c0.2-0.2,0.5-0.4,0.8-0.5c0.3-0.1,0.6-0.2,0.9-0.2h5.1c0.3,0,0.6,0.1,0.9,0.2
		c0.3,0.1,0.5,0.3,0.8,0.5c0.2,0.2,0.4,0.5,0.5,0.8c0.1,0.3,0.2,0.6,0.2,0.9v9.8c0,0.3-0.1,0.6-0.2,0.9c-0.1,0.3-0.3,0.5-0.5,0.8
		s-0.5,0.4-0.8,0.5c-0.3,0.1-0.6,0.2-0.9,0.2h-5.1C-284.3,211.4-284.6,211.3-284.9,211.2z M-279,199.8c0-0.2-0.1-0.3-0.2-0.4
		c-0.1-0.1-0.3-0.2-0.4-0.2h-3.5c-0.2,0-0.3,0.1-0.4,0.2c-0.1,0.1-0.2,0.2-0.2,0.4v8.6c0,0.2,0.1,0.3,0.2,0.4
		c0.1,0.1,0.3,0.2,0.4,0.2h3.5c0.2,0,0.3-0.1,0.4-0.2c0.1-0.1,0.2-0.2,0.2-0.4V199.8z"/>
	<path class="st1" d="M-266.3,196.8h2.6V209c0,0.3-0.1,0.6-0.2,0.9c-0.1,0.3-0.3,0.5-0.5,0.8s-0.5,0.4-0.8,0.5
		c-0.3,0.1-0.6,0.2-0.9,0.2h-4.9c-0.3,0-0.6-0.1-0.9-0.2c-0.3-0.1-0.5-0.3-0.8-0.5c-0.2-0.2-0.4-0.5-0.5-0.8
		c-0.1-0.3-0.2-0.6-0.2-0.9v-12.2h2.6v11.6c0,0.2,0.1,0.3,0.2,0.4c0.1,0.1,0.3,0.2,0.4,0.2h3.3c0.2,0,0.3-0.1,0.4-0.2
		c0.1-0.1,0.2-0.2,0.2-0.4V196.8z"/>
	<path class="st1" d="M-260.5,196.8h7.1c0.3,0,0.6,0.1,0.9,0.2c0.3,0.1,0.5,0.3,0.8,0.5c0.2,0.2,0.4,0.5,0.5,0.8
		c0.1,0.3,0.2,0.6,0.2,0.9v9.8c0,0.3-0.1,0.6-0.2,0.9c-0.1,0.3-0.3,0.5-0.5,0.8s-0.5,0.4-0.8,0.5c-0.3,0.1-0.6,0.2-0.9,0.2h-7.1
		V196.8z M-253.6,199.8c0-0.2-0.1-0.3-0.2-0.4c-0.1-0.1-0.3-0.2-0.4-0.2h-3.7v9.8h3.7c0.2,0,0.3-0.1,0.4-0.2
		c0.1-0.1,0.2-0.2,0.2-0.4V199.8z"/>
	<path class="st1" d="M-236.1,206.3l2.6,0.4v2.2c0,0.3-0.1,0.6-0.2,0.9c-0.1,0.3-0.3,0.5-0.5,0.8s-0.5,0.4-0.8,0.5
		c-0.3,0.1-0.6,0.2-0.9,0.2h-4.9c-0.3,0-0.6-0.1-0.9-0.2c-0.3-0.1-0.5-0.3-0.8-0.5c-0.2-0.2-0.4-0.5-0.5-0.8
		c-0.1-0.3-0.2-0.6-0.2-0.9v-9.8c0-0.3,0.1-0.6,0.2-0.9c0.1-0.3,0.3-0.5,0.5-0.8c0.2-0.2,0.5-0.4,0.8-0.5c0.3-0.1,0.6-0.2,0.9-0.2
		h4.9c0.3,0,0.6,0.1,0.9,0.2c0.3,0.1,0.5,0.3,0.8,0.5c0.2,0.2,0.4,0.5,0.5,0.8c0.1,0.3,0.2,0.6,0.2,0.9v2.1l-2.6,0.4v-1.9
		c0-0.2-0.1-0.3-0.2-0.4c-0.1-0.1-0.3-0.2-0.4-0.2h-3.3c-0.2,0-0.3,0.1-0.4,0.2c-0.1,0.1-0.2,0.2-0.2,0.4v8.6c0,0.2,0.1,0.3,0.2,0.4
		c0.1,0.1,0.3,0.2,0.4,0.2h3.3c0.2,0,0.3-0.1,0.4-0.2c0.1-0.1,0.2-0.2,0.2-0.4V206.3z"/>
	<path class="st1" d="M-229.1,211.2c-0.3-0.1-0.5-0.3-0.8-0.5c-0.2-0.2-0.4-0.5-0.5-0.8c-0.1-0.3-0.2-0.6-0.2-0.9v-9.8
		c0-0.3,0.1-0.6,0.2-0.9c0.1-0.3,0.3-0.5,0.5-0.8c0.2-0.2,0.5-0.4,0.8-0.5c0.3-0.1,0.6-0.2,0.9-0.2h5.1c0.3,0,0.6,0.1,0.9,0.2
		c0.3,0.1,0.5,0.3,0.8,0.5c0.2,0.2,0.4,0.5,0.5,0.8c0.1,0.3,0.2,0.6,0.2,0.9v9.8c0,0.3-0.1,0.6-0.2,0.9c-0.1,0.3-0.3,0.5-0.5,0.8
		s-0.5,0.4-0.8,0.5c-0.3,0.1-0.6,0.2-0.9,0.2h-5.1C-228.5,211.4-228.8,211.3-229.1,211.2z M-223.2,199.8c0-0.2-0.1-0.3-0.2-0.4
		c-0.1-0.1-0.3-0.2-0.4-0.2h-3.5c-0.2,0-0.3,0.1-0.4,0.2c-0.1,0.1-0.2,0.2-0.2,0.4v8.6c0,0.2,0.1,0.3,0.2,0.4
		c0.1,0.1,0.3,0.2,0.4,0.2h3.5c0.2,0,0.3-0.1,0.4-0.2c0.1-0.1,0.2-0.2,0.2-0.4V199.8z"/>
	<path class="st1" d="M-214.9,202.7v8.7h-2.5v-14.6h2.5l3.9,8.9l3.9-8.9h2.5v14.6h-2.5l0-8.7l-2.8,6.2h-2.2L-214.9,202.7z"/>
	<path class="st1" d="M-201.3,196.8h7.4c0.3,0,0.6,0.1,0.9,0.2c0.3,0.1,0.5,0.3,0.8,0.5c0.2,0.2,0.4,0.5,0.5,0.8
		c0.1,0.3,0.2,0.6,0.2,0.9v4.1c0,0.3-0.1,0.6-0.2,0.9c-0.1,0.3-0.3,0.5-0.5,0.8s-0.5,0.4-0.8,0.5c-0.3,0.1-0.6,0.2-0.9,0.2h-4.8v5.6
		h-2.6V196.8z M-194.1,199.8c0-0.2-0.1-0.3-0.2-0.4c-0.1-0.1-0.3-0.2-0.4-0.2h-4v4.1h4c0.2,0,0.3-0.1,0.4-0.2
		c0.1-0.1,0.2-0.2,0.2-0.4V199.8z"/>
	<path class="st1" d="M-182.2,196.8h2.6V209c0,0.3-0.1,0.6-0.2,0.9c-0.1,0.3-0.3,0.5-0.5,0.8s-0.5,0.4-0.8,0.5
		c-0.3,0.1-0.6,0.2-0.9,0.2h-4.9c-0.3,0-0.6-0.1-0.9-0.2c-0.3-0.1-0.5-0.3-0.8-0.5c-0.2-0.2-0.4-0.5-0.5-0.8
		c-0.1-0.3-0.2-0.6-0.2-0.9v-12.2h2.6v11.6c0,0.2,0.1,0.3,0.2,0.4c0.1,0.1,0.3,0.2,0.4,0.2h3.3c0.2,0,0.3-0.1,0.4-0.2
		c0.1-0.1,0.2-0.2,0.2-0.4V196.8z"/>
	<path class="st1" d="M-177.6,196.8h10.5v2.4h-4v12.2h-2.6v-12.2h-4V196.8z"/>
	<path class="st1" d="M-162.4,211.4h-2.6v-14.6h2.6V211.4z"/>
	<path class="st1" d="M-148.5,211.4h-2.5l-5.6-9.4v9.4h-2.5v-14.6h2.5l5.6,9.5v-9.5h2.5V211.4z"/>
	<path class="st1" d="M-140.8,203.7h5.2v5.3c0,0.3-0.1,0.6-0.2,0.9c-0.1,0.3-0.3,0.5-0.5,0.8c-0.2,0.2-0.5,0.4-0.8,0.5
		c-0.3,0.1-0.6,0.2-0.9,0.2h-4.9c-0.3,0-0.6-0.1-0.9-0.2c-0.3-0.1-0.5-0.3-0.8-0.5c-0.2-0.2-0.4-0.5-0.5-0.8
		c-0.1-0.3-0.2-0.6-0.2-0.9v-9.8c0-0.3,0.1-0.6,0.2-0.9c0.1-0.3,0.3-0.5,0.5-0.8c0.2-0.2,0.5-0.4,0.8-0.5c0.3-0.1,0.6-0.2,0.9-0.2
		h4.9c0.3,0,0.6,0.1,0.9,0.2c0.3,0.1,0.5,0.3,0.8,0.5c0.2,0.2,0.4,0.5,0.5,0.8c0.1,0.3,0.2,0.6,0.2,0.9v1.6l-2.6,0.4v-1.5
		c0-0.2-0.1-0.3-0.2-0.4c-0.1-0.1-0.3-0.2-0.4-0.2h-3.3c-0.2,0-0.3,0.1-0.4,0.2c-0.1,0.1-0.2,0.2-0.2,0.4v8.6c0,0.2,0.1,0.3,0.2,0.4
		c0.1,0.1,0.3,0.2,0.4,0.2h3.3c0.2,0,0.3-0.1,0.4-0.2c0.1-0.1,0.2-0.2,0.2-0.4V206h-2.5V203.7z"/>
</g>
</svg>
