<?xml version="1.0" encoding="utf-8"?>
<!-- Generator: Adobe Illustrator 19.0.0, SVG Export Plug-In . SVG Version: 6.00 Build 0)  -->
<svg version="1.1" id="Layer_1" xmlns="http://www.w3.org/2000/svg" xmlns:xlink="http://www.w3.org/1999/xlink" x="0px" y="0px"
	 viewBox="0 0 177 31.5" style="enable-background:new 0 0 177 31.5;" xml:space="preserve">
<style type="text/css">
	.st0{opacity:0.79;}
	.st1{fill:#808285;}
	.st2{fill:none;stroke:#FFFFFF;stroke-width:0.9231;stroke-linecap:round;stroke-linejoin:round;}
	.st3{fill:#FFFFFF;}
	.st4{font-family:'StratumNo1-Black';}
	.st5{font-size:24px;}
	.st6{fill:#F1664F;}
</style>
<g id="XMLID_2654_" class="st0">
	<path id="XMLID_159_" class="st1" d="M1.9,6.6l10.7-6.1c1-0.6,2.2-0.6,3.1,0l10.9,6.1c1,0.6,1.8,1.6,1.8,2.7v12.2
		c0,1.1-0.8,2.2-1.8,2.7l-10.8,6.1c-1,0.6-2.2,0.6-3.2,0L1.9,24.3c-1-0.6-1.6-1.6-1.6-2.7V9.3C0.4,8.2,0.9,7.1,1.9,6.6z"/>
	<g id="XMLID_157_">
		<path id="XMLID_158_" class="st2" d="M1.2,7.3c0,0,5.4-4.4,5.8-3.6c0,0-6.5,7.6-6.5,7.6c1.3,2,15.6-10.8,16-10
			c0.5,0.9-16.1,13.9-16,13.9c0.7,1.2,19.3-12,19.3-12c1.5,2.4-21,12.8-19.3,15.6C1.6,20.3,21.9,3.5,22.8,4.7
			C24.4,7.4-1,18.6,0.6,21.2C1.3,22.3,24.9,6,24.9,6c1,1.5-23,17.8-22.9,18C3.9,27,26.2,6.1,27.4,8.1c1.5,2.3-22.6,17.5-22.6,17.5
			c1.3,2,21.8-16.2,23-14.4c0.5,0.8-22.4,13.1-20.9,15.6c1.5,2.4,19.9-14.6,20.9-13.1c0.3,0.6-19.7,13.1-19,14.1
			c0,0.1,18.7-12.4,19-11.9c0,0-17.7,11.4-16.6,13.3L27.8,19c0,0-13.7,10.3-12.9,11.6c0,0,11.9-9.1,12.7-7.9"/>
	</g>
</g>
<text id="XMLID_2656_" transform="matrix(1 0 0 1 19.7542 26.4124)"><tspan x="0" y="0" class="st3 st4 st5">DHISHNA   </tspan><tspan x="110" y="0" class="st6 st4 st5">2018</tspan></text>
</svg>
