<?xml version="1.0" encoding="utf-8"?>
<!-- Generator: Adobe Illustrator 19.0.0, SVG Export Plug-In . SVG Version: 6.00 Build 0)  -->
<svg version="1.1" id="Layer_1" xmlns="http://www.w3.org/2000/svg" xmlns:xlink="http://www.w3.org/1999/xlink" x="0px" y="0px"
	 viewBox="-351 192.4 256.4 188.6" style="enable-background:new -351 192.4 256.4 188.6;" xml:space="preserve">
<style type="text/css">
	.st0{opacity:0.19;fill:#9E8B8A;enable-background:new    ;}
	.st1{fill:#FFFFFF;}
	.st2{fill:#C7B299;}
	.st3{fill:none;}
</style>
<path id="XMLID_40_" class="st0" d="M-114.9,381h-215.8c-11.2,0-20.3-9.1-20.3-20.3v-148c0-11.2,9.1-20.3,20.3-20.3h215.8
	c11.2,0,20.3,9.1,20.3,20.3v148C-94.6,371.9-103.7,381-114.9,381z"/>
<g>
	<path class="st1" d="M-243.3,216.5h-5.2v6.5h-2.8v-15.3h2.8v6.2h5.2v-6.2h2.8v15.3h-2.8V216.5z"/>
	<path class="st1" d="M-225.6,223.1h-2.8l-1.1-3.3h-5.2l-1.1,3.3h-2.8l5.2-15.3h2.5L-225.6,223.1z M-233.8,217.3h3.5l-1.8-5.8
		L-233.8,217.3z"/>
	<path class="st1" d="M-220.7,223.1h-2.8v-15.3h2.8V223.1z"/>
	<path class="st1" d="M-217.3,207.8h2.8v7.2l4.8-7.2h3.2l-5.1,7.6l5.3,7.7h-3.2l-5-7.2v7.2h-2.8V207.8z"/>
	<path class="st1" d="M-197.1,207.8h2.8v12.7c0,0.4-0.1,0.7-0.2,1s-0.3,0.6-0.5,0.8c-0.2,0.2-0.5,0.4-0.8,0.5s-0.6,0.2-1,0.2h-5.2
		c-0.4,0-0.7-0.1-1-0.2s-0.6-0.3-0.8-0.5c-0.2-0.2-0.4-0.5-0.5-0.8s-0.2-0.6-0.2-1v-12.7h2.8V220c0,0.2,0.1,0.3,0.2,0.4
		s0.3,0.2,0.4,0.2h3.4c0.2,0,0.3-0.1,0.4-0.2s0.2-0.3,0.2-0.4V207.8z"/>
</g>
<g>
	<path class="st2" d="M-216.5,288.2c-0.8,0.8-0.8,2.1,0,2.9c0.8,0.8,2.1,0.8,2.9,0c0.8-0.8,0.8-2.1,0-2.9
		C-214.4,287.4-215.7,287.4-216.5,288.2z"/>
	<path class="st2" d="M-179.8,246c-2.9,1.1-6.6,3.2-10.8,6c-8.4,5.7-18.4,14.1-27.4,23.1c-9.6,9.6-21.8,23.6-27.6,32.9
		c-2.7-0.6-5.5,0.2-7.5,2.2c-1.8,1.8-2.6,4.3-2.3,6.8l-11.4,4.3c-0.6,0.2-1.1,0.7-1.2,1.3l-7,24.3c0,0,0,0,0,0l0,0c0,0,0,0,0,0
		c-0.4,1.5,1,3,2.6,2.5l24.3-7c0.6-0.2,1.2-0.7,1.4-1.3l3.8-11.4c2.6,0.5,5.3-0.3,7.3-2.3c2-2,2.8-4.8,2.2-7.5
		c9.3-5.8,23.3-18.1,32.9-27.6c9-9,17.4-19,23.1-27.4c2.9-4.3,4.9-7.9,6-10.8c0.5-1.4,2.2-5.7-0.2-8.1
		C-174.1,243.8-178.4,245.5-179.8,246z M-250.3,338.9l-15.7,4.5l10.1-10.1c0.8-0.8,0.8-2.1,0-2.9c-0.8-0.8-2.1-0.8-2.9,0l-10.1,10.1
		l4.5-15.8l10.4-4c7.4,7.4-0.2-0.2,7.3,7.3L-250.3,338.9z M-238.6,324.7c-1.6,1.6-4.2,1.6-5.8,0l-5.8-5.8c-1.6-1.6-1.6-4.2,0-5.8
		c1.3-1.3,3.1-1.5,4.6-0.8c1.1,0.5,1.1,0.9,7,6.6C-237,320.5-237.1,323.1-238.6,324.7z M-181.4,263.5c-5.5,8-13.6,17.6-22.2,26.2
		c-10.6,10.6-23.8,21.7-31.8,26.8c-0.4-0.4-0.1-0.1-6.2-6.2c-0.1-0.1-0.3-0.3-0.4-0.4c5.1-8,16.3-21.2,26.8-31.8
		c8.6-8.6,18.1-16.7,26.2-22.2c9.7-6.6,13.7-7.1,14.3-6.7C-174.3,249.8-174.7,253.8-181.4,263.5z"/>
	<path class="st2" d="M-196.3,267.9l-14.5,14.5c-0.8,0.8-0.8,2.1,0,2.9c0.8,0.8,2.1,0.8,2.9,0l14.5-14.5c0.8-0.8,0.8-2.1,0-2.9
		C-194.2,267.1-195.5,267.1-196.3,267.9z"/>
</g>
<rect x="-564" y="172.4" class="st3" width="572" height="402"/>
</svg>
