<?xml version="1.0" encoding="utf-8"?>
<!-- Generator: Adobe Illustrator 19.0.0, SVG Export Plug-In . SVG Version: 6.00 Build 0)  -->
<svg version="1.1" id="Layer_1" xmlns="http://www.w3.org/2000/svg" xmlns:xlink="http://www.w3.org/1999/xlink" x="0px" y="0px"
	 viewBox="0 0 119.7 19" style="enable-background:new 0 0 119.7 19;" xml:space="preserve">
<style type="text/css">
	.st0{fill:#FFFFFF;}
</style>
<g id="XMLID_2_">
	<g id="XMLID_231_">
		<path id="XMLID_254_" class="st0" d="M3.4,15.5H0V0h3.4V15.5z"/>
		<path id="XMLID_252_" class="st0" d="M18.3,15.5H15l-5.2-9v9H6.6V0h3.3L15,9.1V0h3.3V15.5z"/>
		<path id="XMLID_249_" class="st0" d="M25.2,15.5H24c-0.4,0-0.7-0.1-1-0.2c-0.3-0.1-0.6-0.3-0.8-0.5c-0.2-0.2-0.4-0.5-0.5-0.8
			s-0.2-0.6-0.2-1V2.6c0-0.4,0.1-0.7,0.2-1c0.1-0.3,0.3-0.6,0.5-0.8c0.2-0.2,0.5-0.4,0.8-0.5C23.3,0.1,23.6,0,24,0h5.7
			c0.4,0,0.7,0.1,1,0.2c0.3,0.1,0.6,0.3,0.8,0.5C31.7,1,31.9,1.2,32,1.6c0.1,0.3,0.2,0.6,0.2,1v10.4c0,0.4-0.1,0.7-0.2,1
			c-0.1,0.3-0.3,0.6-0.5,0.8c-0.2,0.2-0.5,0.4-0.8,0.5c-0.3,0.1-0.6,0.2-1,0.2h-1.2V19h-3.2V15.5z M28.6,3.1H25
			c-0.2,0-0.2,0.1-0.2,0.2v8.9c0,0.2,0.1,0.2,0.2,0.2h3.6c0.2,0,0.2-0.1,0.2-0.2V3.3C28.9,3.1,28.8,3.1,28.6,3.1z"/>
		<path id="XMLID_247_" class="st0" d="M45.8,0v12.9c0,0.4-0.1,0.7-0.2,1c-0.1,0.3-0.3,0.6-0.5,0.8c-0.2,0.2-0.5,0.4-0.8,0.5
			c-0.3,0.1-0.6,0.2-1,0.2h-5.5c-0.4,0-0.7-0.1-1-0.2c-0.3-0.1-0.6-0.3-0.8-0.5c-0.2-0.2-0.4-0.5-0.5-0.8s-0.2-0.6-0.2-1V0h3.4v12.2
			c0,0.2,0.1,0.2,0.2,0.2h3.4c0.2,0,0.2-0.1,0.2-0.2V0H45.8z"/>
		<path id="XMLID_245_" class="st0" d="M52.3,15.5H49V0h3.4V15.5z"/>
		<path id="XMLID_243_" class="st0" d="M65.7,15.5H55.2v-3l6.3-9.4h-6.2V0h10.2v3l-6.4,9.4h6.5V15.5z"/>
		<path id="XMLID_241_" class="st0" d="M71.8,15.5h-3.4V0h3.4V15.5z"/>
		<path id="XMLID_239_" class="st0" d="M74,0h11.4v3.1h-4v12.4H78V3.1h-4V0z"/>
		<path id="XMLID_237_" class="st0" d="M90.9,15.5h-3.4V0h3.4V15.5z"/>
		<path id="XMLID_234_" class="st0" d="M104.7,13.9c-0.1,0.3-0.3,0.6-0.5,0.8c-0.2,0.2-0.5,0.4-0.8,0.5c-0.3,0.1-0.6,0.2-1,0.2h-5.7
			c-0.4,0-0.7-0.1-1-0.2c-0.3-0.1-0.6-0.3-0.8-0.5c-0.2-0.2-0.4-0.5-0.5-0.8c-0.1-0.3-0.2-0.6-0.2-1V2.6c0-0.4,0.1-0.7,0.2-1
			c0.1-0.3,0.3-0.6,0.5-0.8c0.2-0.2,0.5-0.4,0.8-0.5c0.3-0.1,0.6-0.2,1-0.2h5.7c0.4,0,0.7,0.1,1,0.2c0.3,0.1,0.6,0.3,0.8,0.5
			c0.2,0.2,0.4,0.5,0.5,0.8c0.1,0.3,0.2,0.6,0.2,1v10.4C104.9,13.3,104.8,13.6,104.7,13.9z M101.3,3.1h-3.6c-0.2,0-0.2,0.1-0.2,0.2
			v8.9c0,0.2,0.1,0.2,0.2,0.2h3.6c0.2,0,0.2-0.1,0.2-0.2V3.3C101.5,3.1,101.5,3.1,101.3,3.1z"/>
		<path id="XMLID_232_" class="st0" d="M119.7,15.5h-3.3l-5.2-9v9H108V0h3.3l5.2,9.1V0h3.3V15.5z"/>
	</g>
</g>
</svg>
