<?xml version="1.0" encoding="utf-8"?>
<!-- Generator: Adobe Illustrator 19.0.0, SVG Export Plug-In . SVG Version: 6.00 Build 0)  -->
<svg version="1.1" id="Layer_1" xmlns="http://www.w3.org/2000/svg" xmlns:xlink="http://www.w3.org/1999/xlink" x="0px" y="0px"
	 viewBox="-169.4 882.4 256.4 188.6" style="enable-background:new -169.4 882.4 256.4 188.6;" xml:space="preserve">
<style type="text/css">
	.st0{opacity:0.19;fill:#9E8B8A;}
	.st1{fill:#C7B299;}
	.st2{fill:#FFFFFF;}
	.st3{font-family:'StratumNo1-Black';}
	.st4{font-size:23.2138px;}
</style>
<path id="XMLID_3138_" class="st0" d="M65.3,1071.1h-212.9c-12,0-21.7-9.7-21.7-21.7V904.1c0-12,9.7-21.7,21.7-21.7H65.3
	c12,0,21.7,9.7,21.7,21.7v145.2C87,1061.4,77.2,1071.1,65.3,1071.1z"/>
<g id="XMLID_2455_">
	<g id="XMLID_2458_">
		<g id="XMLID_2461_">
			<path id="XMLID_2449_" class="st1" d="M-29.4,1003.3L-29.4,1003.3c-0.8,0-1.5,0.7-1.5,1.5c0,0.8,0.7,1.5,1.5,1.5h0
				c0.8,0,1.5,0.7,1.5,1.5c0,0.8,0.7,1.5,1.5,1.5h0c0.8,0,1.5-0.7,1.5-1.5C-25,1005.3-26.9,1003.3-29.4,1003.3z"/>
			<path id="XMLID_2446_" class="st1" d="M-47.1,1009.2l3,0c0.8,0,1.5-0.7,1.5-1.5c0-0.8-0.7-1.5-1.5-1.5h0l-3,0
				c-0.8,0-1.5,0.7-1.5,1.5C-48.6,1008.6-47.9,1009.2-47.1,1009.2L-47.1,1009.2z"/>
			<path id="XMLID_2443_" class="st1" d="M-46.5,1003.1l2.8,1c0.5,0.2,1.1,0.1,1.5-0.3c0.4-0.3,0.6-0.9,0.5-1.4
				c-0.1-0.5-0.5-1-1-1.1l-2.8-1c-0.8-0.3-1.6,0.1-1.9,0.9C-47.7,1002-47.3,1002.8-46.5,1003.1z"/>
			<path id="XMLID_2440_" class="st1" d="M-42.3,1011.7c-0.4-0.3-1-0.4-1.5-0.3l-2.8,1c-0.5,0.2-0.9,0.6-0.9,1.1
				c-0.1,0.5,0.1,1,0.5,1.4c0.4,0.3,1,0.4,1.5,0.3l2.8-1c0.5-0.2,0.9-0.6,0.9-1.1C-41.7,1012.6-41.9,1012-42.3,1011.7z"/>
			<path id="XMLID_2437_" class="st1" d="M-11.7,1006.3L-11.7,1006.3L-11.7,1006.3l-3,0c-0.8,0-1.5,0.7-1.5,1.5
				c0,0.8,0.7,1.5,1.5,1.5h0l3,0c0.8,0,1.5-0.7,1.5-1.5C-10.2,1006.9-10.9,1006.3-11.7,1006.3z"/>
			<path id="XMLID_2434_" class="st1" d="M-15.5,1004.2L-15.5,1004.2c0.2,0,0.3,0,0.5-0.1l2.8-1c0.5-0.2,0.9-0.6,0.9-1.1
				s-0.1-1-0.5-1.4c-0.4-0.3-1-0.4-1.5-0.3l-2.8,1c-0.7,0.2-1.1,0.9-0.9,1.6C-16.8,1003.7-16.2,1004.2-15.5,1004.2z"/>
			<path id="XMLID_2431_" class="st1" d="M-12.2,1012.4l-2.8-1c-0.8-0.3-1.6,0.1-1.9,0.9c-0.3,0.8,0.1,1.6,0.9,1.9l2.8,1
				c0.8,0.3,1.6-0.1,1.9-0.9C-11.1,1013.5-11.5,1012.7-12.2,1012.4z"/>
			<path id="XMLID_2428_" class="st1" d="M-55,950.2c-5.5,0.3-9.8,4.8-9.8,10.3c0,0.8,0.7,1.5,1.5,1.5c0.8,0,1.5-0.7,1.5-1.5
				c0-2.2,1-4.3,2.7-5.7c1.8-1.4,4.1-2,6.3-1.5c2.8,0.6,5,2.8,5.6,5.6c0.4,2,0,4.1-1.1,5.8c-1.2,1.7-3,2.8-5,3.1
				c-1.4,0.2-2.5,1.4-2.5,2.9v1.6c0,0.8,0.7,1.5,1.5,1.5s1.5-0.7,1.5-1.5l0-1.6c5.5-0.8,9.3-5.7,8.8-11.2
				C-44.7,954-49.5,949.9-55,950.2z"/>
			<path id="XMLID_2425_" class="st1" d="M-53.5,977.2c-0.1-0.1-0.3-0.2-0.5-0.3c-0.4-0.1-0.8-0.1-1.1,0c-0.2,0.1-0.3,0.2-0.5,0.3
				c-0.1,0.1-0.2,0.3-0.3,0.5c-0.1,0.2-0.1,0.4-0.1,0.6c0,0.1,0,0.2,0,0.3c0,0.1,0,0.2,0.1,0.3c0,0.1,0.1,0.2,0.1,0.3
				c0.1,0.1,0.1,0.1,0.2,0.2c0.3,0.3,0.7,0.4,1,0.4c0.2,0,0.4,0,0.6-0.1c0.2-0.1,0.3-0.2,0.5-0.3c0.1-0.1,0.1-0.1,0.2-0.2
				c0.1-0.1,0.1-0.2,0.1-0.3c0-0.1,0.1-0.2,0.1-0.3c0-0.1,0-0.2,0-0.3c0-0.2,0-0.4-0.1-0.6C-53.2,977.5-53.3,977.3-53.5,977.2z"/>
			<path id="XMLID_2485_" class="st1" d="M-20.5,979.7v-29.5c0-3.3-2.6-5.9-5.9-5.9h-53.2c-3.3,0-5.9,2.6-5.9,5.9v29.5
				c0,3.3,2.6,5.9,5.9,5.9h1.5v8.9c0,1.2,0.7,2.3,1.8,2.7c1.1,0.5,2.4,0.2,3.2-0.6c0,0,0.1-0.1,0.1-0.1l8.8-10.8h37.7
				C-23.2,985.6-20.5,983-20.5,979.7z M-64.8,982.7C-64.9,982.7-64.9,982.7-64.8,982.7c-0.3,0-0.4,0.1-0.6,0.2
				c-0.1,0-0.1,0.1-0.2,0.1c-0.1,0.1-0.2,0.1-0.2,0.2c0,0,0,0-0.1,0l-9.2,11.3v-10.3c0-0.8-0.7-1.5-1.5-1.5h-3c-1.6,0-3-1.3-3-3
				v-29.5c0-1.6,1.3-3,3-3h53.2c1.6,0,3,1.3,3,3v29.5c0,1.6-1.3,3-3,3H-64.8z"/>
			<path id="XMLID_2476_" class="st1" d="M-2.8,991.5h-1.5v-8.9c0-1.2-0.7-2.3-1.8-2.7s-2.4-0.2-3.2,0.6c0,0-0.1,0.1-0.1,0.1
				l-8.8,10.8H-56c-3.3,0-5.9,2.6-5.9,5.9v29.5c0,3.3,2.6,5.9,5.9,5.9h53.2c3.3,0,5.9-2.6,5.9-5.9v-29.5
				C3.1,994.2,0.4,991.5-2.8,991.5z M0.1,1027c0,1.6-1.3,3-3,3H-56c-1.6,0-3-1.3-3-3v-29.5c0-1.6,1.3-3,3-3h38.4
				c0.2,0,0.4,0,0.6-0.1c0,0,0.1-0.1,0.1-0.1c0.1-0.1,0.3-0.2,0.4-0.3c0,0,0,0,0.1,0l9.2-11.3V993c0,0.8,0.7,1.5,1.5,1.5h3
				c1.6,0,3,1.3,3,3L0.1,1027L0.1,1027z"/>
			<path id="XMLID_2464_" class="st1" d="M-28.2,997.5c-4.6-0.6-9,2-10.8,6.3c-1.8,4.3-0.5,9.2,3.1,12.1c0.3,0.3,0.6,0.7,0.6,1.1
				v1.1c0,1,0.6,2,1.5,2.5l0,1.9c0,1.4,0.7,2.8,1.8,3.6c0.8,0.5,1.7,0.8,2.6,0.8c0.5,0,1-0.1,1.5-0.2c1.8-0.7,3-2.4,3-4.3l0-1.7
				c0.9-0.5,1.5-1.5,1.5-2.5v-1.1c0-0.5,0.2-0.9,0.6-1.2c2.9-2.3,4.3-6,3.7-9.7C-20,1001.6-23.6,998.1-28.2,997.5z M-28.9,1023.9
				c-0.5,0.2-1,0.1-1.4-0.2c-0.4-0.3-0.6-0.7-0.6-1.2l0-1.5h3l0,1.3C-27.9,1023-28.3,1023.6-28.9,1023.9z M-24.8,1013.5
				c-1.1,0.8-1.7,2.1-1.7,3.5v1.1h0l-5.9,0v-1.1c0-1.3-0.6-2.6-1.7-3.4c-2.4-2-3.4-5.2-2.3-8.2s3.8-4.9,7-4.9c0.3,0,0.6,0,0.9,0.1
				c3.2,0.4,5.8,2.9,6.4,6.1C-21.7,1009.2-22.7,1011.8-24.8,1013.5z"/>
		</g>
	</g>
</g>
<g id="XMLID_2452_">
	<text transform="matrix(1 0 0 1 -105.9218 924.0478)" class="st2 st3 st4">INQUIZATION</text>
</g>
</svg>
