<?xml version="1.0" encoding="utf-8"?>
<!-- Generator: Adobe Illustrator 19.0.0, SVG Export Plug-In . SVG Version: 6.00 Build 0)  -->
<svg version="1.1" id="Layer_1" xmlns="http://www.w3.org/2000/svg" xmlns:xlink="http://www.w3.org/1999/xlink" x="0px" y="0px"
	 viewBox="-419 363 256.4 188.6" style="enable-background:new -419 363 256.4 188.6;" xml:space="preserve">
<style type="text/css">
	.st0{opacity:0.19;fill:#9E8B8A;enable-background:new    ;}
	.st1{enable-background:new    ;}
	.st2{fill:#FFFFFF;}
	.st3{fill:#C7B299;}
</style>
<path id="XMLID_40_" class="st0" d="M-182.9,551.6h-215.8c-11.2,0-20.3-9.1-20.3-20.3v-148c0-11.2,9.1-20.3,20.3-20.3h215.8
	c11.2,0,20.3,9.1,20.3,20.3v148C-162.6,542.5-171.7,551.6-182.9,551.6z"/>
<g class="st1">
	<path class="st2" d="M-348.3,397.7h-3.4v-15.5h3.4V397.7z"/>
	<path class="st2" d="M-333.4,397.7h-3.3l-5.2-9v9h-3.3v-15.5h3.3l5.2,9.1v-9.1h3.3V397.7z"/>
	<path class="st2" d="M-326.5,397.7h-1.2c-0.4,0-0.7-0.1-1-0.2s-0.6-0.3-0.8-0.5c-0.2-0.2-0.4-0.5-0.5-0.8c-0.1-0.3-0.2-0.6-0.2-1
		v-10.4c0-0.4,0.1-0.7,0.2-1c0.1-0.3,0.3-0.6,0.5-0.8c0.2-0.2,0.5-0.4,0.8-0.5c0.3-0.1,0.6-0.2,1-0.2h5.7c0.4,0,0.7,0.1,1,0.2
		c0.3,0.1,0.6,0.3,0.8,0.5c0.2,0.2,0.4,0.5,0.5,0.8c0.1,0.3,0.2,0.6,0.2,1v10.4c0,0.4-0.1,0.7-0.2,1c-0.1,0.3-0.3,0.6-0.5,0.8
		c-0.2,0.2-0.5,0.4-0.8,0.5s-0.6,0.2-1,0.2h-1.2v3.6h-3.3V397.7z M-323.1,385.3h-3.6c-0.2,0-0.2,0.1-0.2,0.2v8.9
		c0,0.2,0.1,0.2,0.2,0.2h3.6c0.2,0,0.2-0.1,0.2-0.2v-8.9C-322.8,385.4-322.9,385.3-323.1,385.3z"/>
	<path class="st2" d="M-305.9,382.2v12.9c0,0.4-0.1,0.7-0.2,1c-0.1,0.3-0.3,0.6-0.5,0.8c-0.2,0.2-0.5,0.4-0.8,0.5s-0.6,0.2-1,0.2
		h-5.5c-0.4,0-0.7-0.1-1-0.2s-0.6-0.3-0.8-0.5c-0.2-0.2-0.4-0.5-0.5-0.8c-0.1-0.3-0.2-0.6-0.2-1v-12.9h3.4v12.2
		c0,0.2,0.1,0.2,0.2,0.2h3.4c0.2,0,0.2-0.1,0.2-0.2v-12.2H-305.9z"/>
	<path class="st2" d="M-299.4,397.7h-3.4v-15.5h3.4V397.7z"/>
	<path class="st2" d="M-286,397.7h-10.4v-3l6.3-9.4h-6.2v-3.1h10.2v3l-6.4,9.4h6.5V397.7z"/>
	<path class="st2" d="M-279.9,397.7h-3.4v-15.5h3.4V397.7z"/>
	<path class="st2" d="M-277.7,382.2h11.4v3.1h-4v12.4h-3.4v-12.4h-4V382.2z"/>
	<path class="st2" d="M-260.8,397.7h-3.4v-15.5h3.4V397.7z"/>
	<path class="st2" d="M-247,396.1c-0.1,0.3-0.3,0.6-0.5,0.8c-0.2,0.2-0.5,0.4-0.8,0.5s-0.6,0.2-1,0.2h-5.7c-0.4,0-0.7-0.1-1-0.2
		c-0.3-0.1-0.6-0.3-0.8-0.5c-0.2-0.2-0.4-0.5-0.5-0.8c-0.1-0.3-0.2-0.6-0.2-1v-10.4c0-0.4,0.1-0.7,0.2-1c0.1-0.3,0.3-0.6,0.5-0.8
		c0.2-0.2,0.5-0.4,0.8-0.5c0.3-0.1,0.6-0.2,1-0.2h5.7c0.4,0,0.7,0.1,1,0.2c0.3,0.1,0.6,0.3,0.8,0.5c0.2,0.2,0.4,0.5,0.5,0.8
		s0.2,0.6,0.2,1v10.4C-246.8,395.5-246.9,395.8-247,396.1z M-250.4,385.3h-3.6c-0.2,0-0.2,0.1-0.2,0.2v8.9c0,0.2,0.1,0.2,0.2,0.2
		h3.6c0.2,0,0.2-0.1,0.2-0.2v-8.9C-250.2,385.4-250.2,385.3-250.4,385.3z"/>
	<path class="st2" d="M-232,397.7h-3.3l-5.2-9v9h-3.3v-15.5h3.3l5.2,9.1v-9.1h3.3V397.7z"/>
</g>
<g>
	<g>
		<g>
			<path class="st3" d="M-277.2,488.6L-277.2,488.6c-0.9,0-1.7,0.8-1.7,1.7c0,0.9,0.8,1.7,1.7,1.7h0c0.9,0,1.7,0.8,1.7,1.7
				c0,0.9,0.8,1.7,1.7,1.7h0c0.9,0,1.7-0.8,1.7-1.7C-272.1,490.9-274.4,488.6-277.2,488.6z"/>
			<path class="st3" d="M-297.5,495.4l3.4,0c0.9,0,1.7-0.8,1.7-1.7c0-0.9-0.8-1.7-1.7-1.7h0l-3.4,0c-0.9,0-1.7,0.8-1.7,1.7
				C-299.2,494.6-298.5,495.4-297.5,495.4L-297.5,495.4z"/>
			<path class="st3" d="M-296.9,488.4l3.2,1.2c0.6,0.2,1.2,0.1,1.7-0.3s0.7-1,0.6-1.6c-0.1-0.6-0.5-1.1-1.1-1.3l-3.2-1.2
				c-0.9-0.3-1.8,0.1-2.2,1C-298.2,487.1-297.8,488-296.9,488.4z"/>
			<path class="st3" d="M-292,498.2c-0.5-0.4-1.1-0.5-1.7-0.3l-3.2,1.2c-0.6,0.2-1,0.7-1.1,1.3c-0.1,0.6,0.1,1.2,0.6,1.6
				c0.5,0.4,1.1,0.5,1.7,0.3l3.2-1.2c0.6-0.2,1-0.7,1.1-1.3C-291.3,499.2-291.6,498.6-292,498.2z"/>
			<path class="st3" d="M-256.9,492L-256.9,492L-256.9,492l-3.4,0c-0.9,0-1.7,0.8-1.7,1.7c0,0.9,0.8,1.7,1.7,1.7h0l3.4,0
				c0.9,0,1.7-0.8,1.7-1.7C-255.2,492.8-256,492-256.9,492z"/>
			<path class="st3" d="M-261.3,489.6L-261.3,489.6c0.2,0,0.4,0,0.6-0.1l3.2-1.2c0.6-0.2,1-0.7,1.1-1.3c0.1-0.6-0.1-1.2-0.6-1.6
				c-0.5-0.4-1.1-0.5-1.7-0.3l-3.2,1.2c-0.8,0.3-1.2,1.1-1.1,1.9C-262.8,489-262.1,489.6-261.3,489.6z"/>
			<path class="st3" d="M-257.5,499l-3.2-1.2c-0.9-0.3-1.8,0.1-2.2,1s0.1,1.8,1,2.2l3.2,1.2c0.9,0.3,1.8-0.1,2.2-1
				C-256.2,500.3-256.7,499.4-257.5,499z"/>
			<path class="st3" d="M-306.6,427.7c-6.3,0.3-11.3,5.5-11.3,11.8c0,0.9,0.8,1.7,1.7,1.7s1.7-0.8,1.7-1.7c0-2.6,1.1-5,3.1-6.6
				c2-1.6,4.7-2.2,7.2-1.7c3.2,0.7,5.7,3.2,6.4,6.4c0.5,2.3,0,4.7-1.3,6.6c-1.3,1.9-3.4,3.2-5.8,3.6c-1.7,0.2-2.9,1.7-2.9,3.3v1.8
				c0,0.9,0.8,1.7,1.7,1.7c0.9,0,1.7-0.8,1.7-1.7l0-1.8c6.3-0.9,10.7-6.6,10.1-12.9C-294.8,432.1-300.3,427.4-306.6,427.7z"/>
			<path class="st3" d="M-304.8,458.6c-0.2-0.1-0.4-0.3-0.6-0.4c-0.4-0.2-0.9-0.2-1.3,0c-0.2,0.1-0.4,0.2-0.6,0.4
				c-0.1,0.2-0.3,0.4-0.4,0.6c-0.1,0.2-0.1,0.4-0.1,0.6c0,0.1,0,0.2,0,0.3c0,0.1,0.1,0.2,0.1,0.3c0,0.1,0.1,0.2,0.2,0.3
				c0.1,0.1,0.1,0.2,0.2,0.3c0.3,0.3,0.8,0.5,1.2,0.5c0.2,0,0.4,0,0.6-0.1c0.2-0.1,0.4-0.2,0.6-0.4c0.1-0.1,0.1-0.2,0.2-0.3
				c0.1-0.1,0.1-0.2,0.2-0.3c0-0.1,0.1-0.2,0.1-0.3c0-0.1,0-0.2,0-0.3c0-0.2,0-0.4-0.1-0.6C-304.5,459-304.7,458.8-304.8,458.6z"/>
			<path class="st3" d="M-267.1,461.5v-33.9c0-3.7-3-6.8-6.8-6.8h-61c-3.7,0-6.8,3-6.8,6.8v33.9c0,3.7,3,6.8,6.8,6.8h1.7v10.2
				c0,1.4,0.8,2.6,2.1,3.1s2.7,0.2,3.7-0.7c0,0,0.1-0.1,0.1-0.1l10.1-12.4h43.2C-270.1,468.3-267.1,465.3-267.1,461.5z
				 M-317.9,464.9C-317.9,464.9-317.9,464.9-317.9,464.9c-0.3,0-0.5,0.1-0.7,0.2c-0.1,0-0.2,0.1-0.2,0.2c-0.1,0.1-0.2,0.1-0.3,0.2
				c0,0,0,0-0.1,0.1l-10.5,12.9v-11.8c0-0.9-0.8-1.7-1.7-1.7h-3.4c-1.9,0-3.4-1.5-3.4-3.4v-33.9c0-1.9,1.5-3.4,3.4-3.4h61
				c1.9,0,3.4,1.5,3.4,3.4v33.9c0,1.9-1.5,3.4-3.4,3.4H-317.9z"/>
			<path class="st3" d="M-246.8,475.1h-1.7v-10.2c0-1.4-0.8-2.6-2.1-3.1c-1.3-0.5-2.7-0.2-3.7,0.7c0,0-0.1,0.1-0.1,0.1l-10.1,12.4
				h-43.2c-3.7,0-6.8,3-6.8,6.8v33.9c0,3.7,3,6.8,6.8,6.8h61c3.7,0,6.8-3,6.8-6.8v-33.9C-240,478.1-243,475.1-246.8,475.1z
				 M-243.4,515.7c0,1.9-1.5,3.4-3.4,3.4h-61c-1.9,0-3.4-1.5-3.4-3.4v-33.9c0-1.9,1.5-3.4,3.4-3.4h44c0.2,0,0.5-0.1,0.7-0.2
				c0.1,0,0.1-0.1,0.1-0.1c0.2-0.1,0.3-0.2,0.4-0.3c0,0,0,0,0.1,0l10.5-12.9v11.8c0,0.9,0.8,1.7,1.7,1.7h3.4c1.9,0,3.4,1.5,3.4,3.4
				L-243.4,515.7L-243.4,515.7z"/>
			<path class="st3" d="M-275.8,481.9c-5.3-0.6-10.3,2.3-12.4,7.2c-2.1,4.9-0.6,10.5,3.5,13.8c0.4,0.3,0.6,0.8,0.6,1.3v1.3
				c0,1.2,0.6,2.3,1.7,2.9l0,2.2c0,1.6,0.8,3.2,2.1,4.1c0.9,0.6,1.9,1,3,1c0.6,0,1.1-0.1,1.7-0.3c2.1-0.7,3.5-2.8,3.4-5l0-2
				c1-0.6,1.7-1.7,1.7-2.9v-1.3c0-0.5,0.3-1,0.7-1.3c3.3-2.7,4.9-6.9,4.3-11.1C-266.4,486.6-270.6,482.6-275.8,481.9z M-276.6,512.2
				c-0.5,0.2-1.1,0.1-1.6-0.2c-0.4-0.3-0.7-0.8-0.7-1.4l0-1.7h3.4l0,1.5C-275.5,511.2-275.9,511.9-276.6,512.2z M-271.9,500.3
				c-1.2,1-1.9,2.4-1.9,4v1.3h0l-6.8,0v-1.3c0-1.5-0.7-3-1.9-3.9c-2.8-2.2-3.9-6-2.7-9.4s4.4-5.7,8-5.7c0.3,0,0.7,0,1,0.1
				c3.7,0.5,6.7,3.3,7.3,7C-268.4,495.3-269.5,498.4-271.9,500.3z"/>
		</g>
	</g>
</g>
</svg>
