<?xml version="1.0" encoding="utf-8"?>
<!-- Generator: Adobe Illustrator 19.0.0, SVG Export Plug-In . SVG Version: 6.00 Build 0)  -->
<svg version="1.1" id="Layer_1" xmlns="http://www.w3.org/2000/svg" xmlns:xlink="http://www.w3.org/1999/xlink" x="0px" y="0px"
	 viewBox="-351 192.4 256.4 188.6" style="enable-background:new -351 192.4 256.4 188.6;" xml:space="preserve">
<style type="text/css">
	.st0{opacity:0.19;fill:#9E8B8A;enable-background:new    ;}
	.st1{fill:#FFFFFF;}
	.st2{fill:#C7B299;}
</style>
<path id="XMLID_40_" class="st0" d="M-114.9,381h-215.8c-11.2,0-20.3-9.1-20.3-20.3v-148c0-11.2,9.1-20.3,20.3-20.3h215.8
	c11.2,0,20.3,9.1,20.3,20.3v148C-94.6,371.9-103.7,381-114.9,381z"/>
<g>
	<path class="st1" d="M-279,220.5v9.1h-2.6v-15.3h2.6l4.1,9.4l4.1-9.4h2.6v15.3h-2.6l0-9.1l-2.9,6.5h-2.3L-279,220.5z"/>
	<path class="st1" d="M-253.1,229.6h-2.8l-1.1-3.3h-5.2l-1.1,3.3h-2.8l5.2-15.3h2.5L-253.1,229.6z M-261.3,223.9h3.5l-1.8-5.8
		L-261.3,223.9z"/>
	<path class="st1" d="M-251,214.4h2.8v7.2l4.8-7.2h3.2l-5.1,7.6l5.3,7.7h-3.2l-5-7.2v7.2h-2.8V214.4z"/>
	<path class="st1" d="M-238.1,214.4h9.3v2.5h-6.5v3.8h5.9v2.5h-5.9v3.9h6.5v2.5h-9.3V214.4z"/>
	<path class="st1" d="M-226.3,224.2v-2.3h5.7v2.3H-226.3z"/>
	<path class="st1" d="M-207.3,229.6h-2.8l-1.1-3.3h-5.2l-1.1,3.3h-2.8l5.2-15.3h2.5L-207.3,229.6z M-215.5,223.9h3.5l-1.8-5.8
		L-215.5,223.9z"/>
	<path class="st1" d="M-206.7,224.2v-2.3h5.7v2.3H-206.7z"/>
	<path class="st1" d="M-201.7,214.4h11.1v2.5h-4.2v12.7h-2.8v-12.7h-4.1V214.4z"/>
	<path class="st1" d="M-187.3,229.5c-0.3-0.1-0.6-0.3-0.8-0.5c-0.2-0.2-0.4-0.5-0.5-0.8s-0.2-0.6-0.2-1v-10.2c0-0.4,0.1-0.7,0.2-1
		c0.1-0.3,0.3-0.6,0.5-0.8c0.2-0.2,0.5-0.4,0.8-0.5s0.6-0.2,1-0.2h5.4c0.4,0,0.7,0.1,1,0.2s0.6,0.3,0.8,0.5c0.2,0.2,0.4,0.5,0.5,0.8
		c0.1,0.3,0.2,0.6,0.2,1v10.2c0,0.4-0.1,0.7-0.2,1s-0.3,0.6-0.5,0.8c-0.2,0.2-0.5,0.4-0.8,0.5s-0.6,0.2-1,0.2h-5.4
		C-186.7,229.6-187,229.6-187.3,229.5z M-181.2,217.5c0-0.2-0.1-0.3-0.2-0.4c-0.1-0.1-0.3-0.2-0.4-0.2h-3.7c-0.2,0-0.3,0.1-0.4,0.2
		c-0.1,0.1-0.2,0.3-0.2,0.4v9c0,0.2,0.1,0.3,0.2,0.4s0.3,0.2,0.4,0.2h3.7c0.2,0,0.3-0.1,0.4-0.2s0.2-0.3,0.2-0.4V217.5z"/>
	<path class="st1" d="M-164,229.6h-2.6l-5.8-9.9v9.9h-2.6v-15.3h2.6l5.8,9.9v-9.9h2.6V229.6z"/>
</g>
<g>
	<g>
		<path class="st2" d="M-187.1,293.5c-0.7-2-2.5-3.3-4.6-3.3c-2.1,0-3.9,1.3-4.6,3.3h-10.1v-6.5h6.5c0.9,0,1.6-0.7,1.6-1.6
			c0,0,0,0,0,0v-6.8c2.6-0.9,3.9-3.7,3-6.3c-0.9-2.6-3.7-3.9-6.3-3c-2.6,0.9-3.9,3.7-3,6.3c0.5,1.4,1.6,2.5,3,3v5.2h-4.9v-3.3
			c0-0.9-0.7-1.6-1.6-1.6c0,0,0,0,0,0h-3.3v-8.5c2.6-0.9,3.9-3.7,3-6.3c-0.9-2.6-3.7-3.9-6.3-3c-2.6,0.9-3.9,3.7-3,6.3
			c0.5,1.4,1.6,2.5,3,3v8.5h-6.5v-26.1c0-0.9-0.7-1.6-1.6-1.6c0,0,0,0,0,0c-20.2,0-36,14.6-36,33.3c0,8.9,3.5,20.6,9.2,30.6
			c1,1.8,2.3,3.7,3.7,5.7c3,4.2,6.3,9,6.6,13.1c-1.3,0.9-2,2.3-2,3.9c0,1.1,0.4,2.2,1.1,3c-1,1-1.5,2.3-1.5,3.6
			c0,2.7,2.2,4.9,4.9,4.9h27.8c2.7,0,4.9-2.2,4.9-5c0,0,0,0,0-0.1c0-1.3-0.5-2.6-1.5-3.5c0.7-0.9,1.1-2,1.1-3.1
			c0-2.6-2.1-4.7-4.7-4.7c-0.1,0-0.1,0-0.2,0h-11.9v-31.2h3.3v4.9c0,0.9,0.7,1.6,1.6,1.6c0,0,0,0,0,0h4.9v1.9
			c-2.6,0.9-3.9,3.7-3,6.3s3.7,3.9,6.3,3c2.6-0.9,3.9-3.7,3-6.3c-0.5-1.4-1.6-2.5-3-3v-3.6c0-0.9-0.7-1.6-1.6-1.6c0,0,0,0,0,0h-4.9
			v-3.3h6.5c0.9,0,1.6-0.7,1.6-1.6c0,0,0,0,0,0v-3.3h10.1c0.9,2.5,3.7,3.9,6.3,3C-187.5,298.8-186.2,296-187.1,293.5z M-199.9,272.2
			c0.9,0,1.6,0.7,1.6,1.6s-0.7,1.6-1.6,1.6s-1.6-0.7-1.6-1.6C-201.5,272.9-200.8,272.2-199.9,272.2z M-243.2,318.7
			c-1.4-1.9-2.6-3.8-3.6-5.4c-5.3-9.4-8.8-20.8-8.8-29c0-16.3,13.5-29.2,31.1-30v11.4c-0.4,0-0.9,0.1-1.4,0.1
			c-0.7,0.1-1.3,0.6-1.4,1.3l-0.5,2.4c-0.4,0.1-0.8,0.2-1.2,0.3l-1.6-1.8c-0.5-0.5-1.2-0.7-1.9-0.4c-1.8,0.8-3.6,1.8-5.1,3
			c-0.6,0.4-0.8,1.2-0.6,1.8l0.8,2.3c-0.3,0.3-0.6,0.6-0.9,0.9l-2.3-0.8c-0.7-0.2-1.4,0-1.8,0.6c-1.2,1.6-2.2,3.3-3,5.2
			c-0.3,0.6-0.1,1.4,0.4,1.9l1.8,1.6c-0.1,0.4-0.2,0.8-0.3,1.2l-2.5,0.5c-0.8,0.2-1.3,0.8-1.3,1.6v5.6c0,0.8,0.6,1.5,1.3,1.6
			l2.5,0.5c0.1,0.4,0.2,0.8,0.3,1.2l-1.8,1.6c-0.5,0.5-0.7,1.2-0.4,1.9c0.8,1.8,1.8,3.6,3,5.2c0.4,0.6,1.2,0.8,1.8,0.6l2.3-0.8
			c0.3,0.3,0.6,0.6,0.9,0.9l-0.8,2.3c-0.2,0.7,0,1.4,0.6,1.8c1.6,1.2,3.3,2.2,5.1,3c0.6,0.3,1.4,0.1,1.9-0.4l1.6-1.8
			c0.4,0.1,0.8,0.2,1.2,0.3l0.5,2.4c0.1,0.7,0.7,1.2,1.4,1.3c0.5,0.1,0.9,0.1,1.4,0.1v18.1H-236C-236.7,328-240.1,323.1-243.2,318.7
			z M-237.5,290.2c0,7.5,5.6,13.8,13.1,14.6v5.6l-0.3-1.3c-0.1-0.7-0.7-1.2-1.3-1.3c-1-0.2-1.9-0.4-2.9-0.8
			c-0.2-0.1-0.4-0.1-0.6-0.1c-0.5,0-0.9,0.2-1.2,0.5l-1.5,1.7c-0.9-0.4-1.7-0.9-2.5-1.4l0.7-2.2c0.2-0.6,0-1.3-0.5-1.8
			c-0.8-0.6-1.5-1.3-2.1-2.1c-0.4-0.5-1.1-0.7-1.8-0.5l-2.2,0.7c-0.5-0.8-1-1.6-1.4-2.5l1.7-1.5c0.5-0.4,0.7-1.1,0.4-1.8
			c-0.3-0.9-0.6-1.9-0.8-2.9c-0.1-0.7-0.6-1.2-1.3-1.3l-2.3-0.5v-2.9l2.3-0.5c0.7-0.1,1.2-0.7,1.3-1.3c0.2-1,0.4-1.9,0.8-2.9
			c0.2-0.6,0-1.3-0.4-1.8l-1.7-1.5c0.4-0.9,0.9-1.7,1.4-2.5l2.2,0.7c0.6,0.2,1.3,0,1.8-0.5c0.6-0.8,1.3-1.5,2.1-2.1
			c0.5-0.4,0.7-1.1,0.5-1.8l-0.7-2.2c0.8-0.5,1.6-1,2.5-1.4l1.5,1.7c0.4,0.5,1.1,0.7,1.8,0.4c0.9-0.3,1.9-0.6,2.9-0.8
			c0.7-0.1,1.2-0.6,1.3-1.3l0.3-1.3v5.6C-231.9,276.4-237.5,282.7-237.5,290.2z M-224.4,278.9v22.6c-6.3-0.9-10.6-6.7-9.7-12.9
			C-233.4,283.6-229.5,279.6-224.4,278.9z M-207.3,344.3c0,0.9-0.7,1.6-1.6,1.6h-27.8c-0.9,0-1.7-0.8-1.6-1.7c0,0,0,0,0-0.1
			c0-0.9,0.7-1.6,1.6-1.6h27.8C-208,342.5-207.2,343.3-207.3,344.3C-207.3,344.2-207.3,344.3-207.3,344.3z M-209.3,336.1
			c0.8-0.1,1.6,0.5,1.6,1.4c0,0.1,0,0.1,0,0.2c0,0.9-0.7,1.6-1.6,1.6h-27c-0.9,0-1.7-0.8-1.6-1.7c0,0,0,0,0-0.1
			c0-0.8,0.7-1.4,1.5-1.4c0,0,0.1,0,0.1,0L-209.3,336.1L-209.3,336.1z M-209.7,313.1c0.9,0,1.6,0.7,1.6,1.6s-0.7,1.6-1.6,1.6
			s-1.6-0.7-1.6-1.6C-211.3,313.9-210.6,313.1-209.7,313.1z M-213,264c0.9,0,1.6,0.7,1.6,1.6s-0.7,1.6-1.6,1.6s-1.6-0.7-1.6-1.6
			C-214.6,264.8-213.9,264-213,264z M-209.7,298.4h-11.5V282h11.5V298.4z M-191.7,296.8c-0.9,0-1.6-0.7-1.6-1.6s0.7-1.6,1.6-1.6
			s1.6,0.7,1.6,1.6C-190.1,296-190.8,296.8-191.7,296.8z"/>
	</g>
</g>
<g>
	<g>
		<path class="st2" d="M-223.5,325.8c-0.6,1-1.1,2.1-1.5,3.2l3,1.2c0.4-1,0.8-1.9,1.4-2.8L-223.5,325.8z"/>
	</g>
</g>
<g>
	<g>
		<path class="st2" d="M-223.2,320c-0.6,0.9-1.3,1.9-1.9,2.8l2.7,1.8c0.6-0.9,1.2-1.8,1.8-2.7L-223.2,320z"/>
	</g>
</g>
<g>
	<g>
		<path class="st2" d="M-223.3,314.6c-0.6,0.9-1.2,1.8-1.8,2.7l2.7,1.9c0.7-1,1.3-1.9,1.9-2.8L-223.3,314.6z"/>
	</g>
</g>
<g>
	<g>
		<path class="st2" d="M-223.5,308.9c-0.5,1-1,2-1.5,2.9l2.9,1.5c0.5-1,1-2,1.5-3L-223.5,308.9z"/>
	</g>
</g>
<g>
	<g>
		<path class="st2" d="M-223.7,302.9c-0.4,1-0.8,2-1.2,3l3,1.3c0.4-1,0.9-2.1,1.3-3.2L-223.7,302.9z"/>
	</g>
</g>
<g>
	<g>
		<path class="st2" d="M-221.1,283.9l-3.3,0l0,0.3c0,0.9,0,1.9-0.1,2.9l3.3,0.3c0.1-1.1,0.1-2.1,0.1-3.2L-221.1,283.9z"/>
	</g>
</g>
<g>
	<g>
		<path class="st2" d="M-221.5,277l-3.2,0.7c0.2,1,0.4,2.1,0.5,3.1l3.3-0.4C-221,279.3-221.2,278.1-221.5,277z"/>
	</g>
</g>
<g>
	<g>
		<path class="st2" d="M-222,270.4l-2.9,1.4c0.5,0.9,0.9,1.9,1.2,2.9l3.1-1.1C-221,272.5-221.5,271.4-222,270.4z"/>
	</g>
</g>
<g>
	<g>
		<path class="st2" d="M-222.5,264.4l-2.6,2c0.7,0.8,1.3,1.7,1.8,2.6l2.8-1.7C-221.1,266.3-221.8,265.4-222.5,264.4z"/>
	</g>
</g>
<g>
	<g>
		<path class="st2" d="M-223,259.4l-2.1,2.5c0.8,0.7,1.6,1.4,2.3,2.1l2.3-2.3C-221.3,261-222.1,260.2-223,259.4z"/>
	</g>
</g>
</svg>
