<?xml version="1.0" encoding="utf-8"?>
<!-- Generator: Adobe Illustrator 19.0.0, SVG Export Plug-In . SVG Version: 6.00 Build 0)  -->
<svg version="1.1" id="Layer_1" xmlns="http://www.w3.org/2000/svg" xmlns:xlink="http://www.w3.org/1999/xlink" x="0px" y="0px"
	 viewBox="-351 186.4 256.4 188.6" style="enable-background:new -351 186.4 256.4 188.6;" xml:space="preserve">
<style type="text/css">
	.st0{opacity:0.19;fill:#9E8B8A;enable-background:new    ;}
	.st1{fill:#FFFFFF;}
	.st2{fill:#C7B299;}
	.st3{font-family:'StratumNo1-Bold';}
	.st4{font-size:21.8698px;}
</style>
<path id="XMLID_40_" class="st0" d="M-114.9,375h-215.8c-11.2,0-20.3-9.1-20.3-20.3v-148c0-11.2,9.1-20.3,20.3-20.3h215.8
	c11.2,0,20.3,9.1,20.3,20.3v148C-94.6,365.9-103.7,375-114.9,375z"/>
<g>
	<g>
		<path class="st1" d="M-249.5,351.9h1.3l1.6,5.8l0.9-5.8h1.5l-1.5,8.5h-1.5l-1.6-6.1l-1.6,6.1h-1.5l-1.5-8.5h1.5l0.9,5.8
			L-249.5,351.9z"/>
		<path class="st1" d="M-242.1,360.2c-0.2-0.1-0.3-0.2-0.4-0.3c-0.1-0.1-0.2-0.3-0.3-0.4s-0.1-0.4-0.1-0.5v-5.7c0-0.2,0-0.4,0.1-0.5
			s0.2-0.3,0.3-0.4c0.1-0.1,0.3-0.2,0.4-0.3c0.2-0.1,0.4-0.1,0.5-0.1h3c0.2,0,0.4,0,0.5,0.1c0.2,0.1,0.3,0.2,0.4,0.3
			c0.1,0.1,0.2,0.3,0.3,0.4s0.1,0.4,0.1,0.5v5.7c0,0.2,0,0.4-0.1,0.5s-0.2,0.3-0.3,0.4c-0.1,0.1-0.3,0.2-0.4,0.3s-0.4,0.1-0.5,0.1
			h-3C-241.8,360.3-242,360.3-242.1,360.2z M-238.7,353.6c0-0.1,0-0.2-0.1-0.2c-0.1-0.1-0.1-0.1-0.2-0.1h-2c-0.1,0-0.2,0-0.2,0.1
			c-0.1,0.1-0.1,0.1-0.1,0.2v5c0,0.1,0,0.2,0.1,0.2s0.1,0.1,0.2,0.1h2c0.1,0,0.2,0,0.2-0.1s0.1-0.1,0.1-0.2V353.6z"/>
		<path class="st1" d="M-232.2,357.1h-1.6v3.3h-1.5v-8.5h4.4c0.2,0,0.4,0,0.5,0.1c0.2,0.1,0.3,0.2,0.4,0.3c0.1,0.1,0.2,0.3,0.3,0.4
			s0.1,0.4,0.1,0.5v2.4c0,0.3-0.1,0.6-0.3,0.9c-0.2,0.3-0.5,0.4-0.8,0.5l1.6,3.3h-1.7L-232.2,357.1z M-231,353.6
			c0-0.1,0-0.2-0.1-0.2c-0.1-0.1-0.1-0.1-0.2-0.1h-2.4v2.4h2.4c0.1,0,0.2,0,0.2-0.1c0.1-0.1,0.1-0.1,0.1-0.2V353.6z"/>
		<path class="st1" d="M-227.5,351.9h1.5v4l2.6-4h1.8l-2.9,4.2l3,4.3h-1.8l-2.8-4v4h-1.5V351.9z"/>
		<path class="st1" d="M-216.9,357c-0.2-0.1-0.5-0.1-0.6-0.2c-0.2-0.1-0.4-0.1-0.5-0.1c-0.2,0-0.3-0.1-0.5-0.1
			c-0.2-0.1-0.4-0.1-0.6-0.2c-0.2-0.1-0.4-0.1-0.5-0.2c-0.2-0.1-0.3-0.2-0.4-0.3s-0.2-0.2-0.3-0.4s-0.1-0.3-0.1-0.5v-1.7
			c0-0.2,0-0.4,0.1-0.5s0.2-0.3,0.3-0.4c0.1-0.1,0.3-0.2,0.4-0.3c0.2-0.1,0.4-0.1,0.5-0.1h2.7c0.2,0,0.4,0,0.5,0.1
			c0.2,0.1,0.3,0.2,0.4,0.3c0.1,0.1,0.2,0.3,0.3,0.4s0.1,0.4,0.1,0.5v1l-1.5,0.3v-0.9c0-0.1,0-0.2-0.1-0.2c-0.1-0.1-0.1-0.1-0.2-0.1
			h-1.7c-0.1,0-0.2,0-0.2,0.1c-0.1,0.1-0.1,0.1-0.1,0.2v1.1c0,0.1,0,0.2,0.1,0.2s0.1,0.1,0.2,0.1c0.4,0.1,0.7,0.2,1.1,0.3
			s0.8,0.2,1.2,0.3c0.4,0.1,0.7,0.3,0.9,0.5s0.4,0.5,0.4,0.9v1.9c0,0.2,0,0.4-0.1,0.5s-0.2,0.3-0.3,0.4c-0.1,0.1-0.3,0.2-0.4,0.3
			s-0.4,0.1-0.5,0.1h-2.8c-0.2,0-0.4,0-0.5-0.1s-0.3-0.2-0.4-0.3c-0.1-0.1-0.2-0.3-0.3-0.4s-0.1-0.4-0.1-0.5v-1l1.5-0.3v0.9
			c0,0.1,0,0.2,0.1,0.2s0.1,0.1,0.2,0.1h1.8c0.1,0,0.2,0,0.2-0.1c0.1-0.1,0.1-0.1,0.1-0.2v-1.2c0-0.1,0-0.2-0.1-0.2
			C-216.7,357.1-216.8,357.1-216.9,357z"/>
		<path class="st1" d="M-208.9,356.7h-2.9v3.6h-1.5v-8.5h1.5v3.5h2.9v-3.5h1.5v8.5h-1.5V356.7z"/>
		<path class="st1" d="M-204.7,360.2c-0.2-0.1-0.3-0.2-0.4-0.3c-0.1-0.1-0.2-0.3-0.3-0.4s-0.1-0.4-0.1-0.5v-5.7c0-0.2,0-0.4,0.1-0.5
			s0.2-0.3,0.3-0.4c0.1-0.1,0.3-0.2,0.4-0.3c0.2-0.1,0.4-0.1,0.5-0.1h3c0.2,0,0.4,0,0.5,0.1c0.2,0.1,0.3,0.2,0.4,0.3
			c0.1,0.1,0.2,0.3,0.3,0.4s0.1,0.4,0.1,0.5v5.7c0,0.2,0,0.4-0.1,0.5s-0.2,0.3-0.3,0.4c-0.1,0.1-0.3,0.2-0.4,0.3s-0.4,0.1-0.5,0.1
			h-3C-204.3,360.3-204.5,360.3-204.7,360.2z M-201.3,353.6c0-0.1,0-0.2-0.1-0.2c-0.1-0.1-0.1-0.1-0.2-0.1h-2c-0.1,0-0.2,0-0.2,0.1
			c-0.1,0.1-0.1,0.1-0.1,0.2v5c0,0.1,0,0.2,0.1,0.2s0.1,0.1,0.2,0.1h2c0.1,0,0.2,0,0.2-0.1s0.1-0.1,0.1-0.2V353.6z"/>
		<path class="st1" d="M-197.9,351.9h4.3c0.2,0,0.4,0,0.5,0.1c0.2,0.1,0.3,0.2,0.4,0.3c0.1,0.1,0.2,0.3,0.3,0.4s0.1,0.4,0.1,0.5v2.4
			c0,0.2,0,0.4-0.1,0.5s-0.2,0.3-0.3,0.4c-0.1,0.1-0.3,0.2-0.4,0.3c-0.2,0.1-0.4,0.1-0.5,0.1h-2.8v3.3h-1.5V351.9z M-193.7,353.6
			c0-0.1,0-0.2-0.1-0.2c-0.1-0.1-0.1-0.1-0.2-0.1h-2.3v2.4h2.3c0.1,0,0.2,0,0.2-0.1c0.1-0.1,0.1-0.1,0.1-0.2V353.6z"/>
	</g>
</g>
<path class="st2" d="M-253.7,270.2h6.2v3.1h-6.2V270.2z"/>
<path class="st2" d="M-185.6,313.5h3.1v3.1h-3.1V313.5z"/>
<path class="st2" d="M-176.3,325.9h3.1v3.1h-3.1V325.9z"/>
<path class="st2" d="M-179.4,313.5h6.2v3.1h-6.2V313.5z"/>
<path class="st2" d="M-185.6,325.9h6.2v3.1h-6.2V325.9z"/>
<text transform="matrix(1 0 0 1 -271.1494 211.4)"><tspan x="0" y="0" class="st1 st3 st4">RACE CAR </tspan><tspan x="15.2" y="26.2" class="st1 st3 st4">DESIGN</tspan></text>
<path class="st2" d="M-150.2,305c-7.9-6-17-10.1-27.8-12.5c-9.3-2.1-19.8-2.9-32.9-2.5c-1.2,0-2.2,0.7-2.7,1.7l-2.3,4.6H-244v-22.9
	c0-1.7-1.4-3.2-3.2-3.2c-13.3,0-17.2,5.8-25,19.6c-0.1-1.7-1.5-3-3.2-3c-1.7,0-3.2,1.4-3.2,3.2v8.6h-13.9l-3.2-5.9
	c1-0.5,1.6-1.6,1.6-2.7c0-1.7-1.4-3.2-3.2-3.2h-3.5c-1.1,0-2.1,0.6-2.7,1.5c-0.6,1-0.6,2.1-0.1,3.1l6.3,11.8c0.6,1,1.6,1.7,2.8,1.7
	h6.3c-2,2.6-3.2,5.9-3.2,9.5c0,8.7,7.1,15.8,15.8,15.8c5.2,0,9.7-2.5,12.6-6.3h60.7c2.9,3.8,7.5,6.3,12.6,6.3
	c5.2,0,9.8-2.5,12.6-6.3h0h31.6c1.7,0,3.2-1.4,3.2-3.2v-6.3C-141.9,309.5-145.5,305.5-150.2,305z M-250.3,276.6v20.8l-13.4,6.2
	c-1.8-1.9-4-3.4-6.6-4.2c0.9-1.6,1.7-3.1,2.5-4.4C-260.2,281.4-257.9,277.4-250.3,276.6z M-275.3,323.9c-5.2,0-9.5-4.3-9.5-9.5
	c0-5.2,4.2-9.5,9.5-9.5c0,0,0,0,0,0c0,0,0,0,0,0c5.2,0,9.5,4.3,9.5,9.5C-265.8,319.6-270,323.9-275.3,323.9z M-259.8,317.5
	c0.2-1,0.3-2.1,0.3-3.2c0-1.9-0.3-3.7-0.9-5.3l13.9-6.5h32.5c1.2,0,2.3-0.7,2.8-1.7l2.3-4.6c20.3-0.4,35,2.3,46.9,8.7h-14.7
	c0,0,0,0,0,0c-2.9-3.8-7.5-6.3-12.6-6.3c-5.2,0-9.8,2.5-12.6,6.3h-12c-1.7,0-3.2,1.4-3.2,3.2c0,1.7,1.4,3.2,3.2,3.2h9.2
	c-0.2,1-0.3,2.1-0.3,3.2c0,1.1,0.1,2.1,0.3,3.2L-259.8,317.5z M-189.3,323.9c-5.2,0-9.5-4.3-9.5-9.5c0-5.2,4.3-9.5,9.5-9.5
	c5.2,0,9.5,4.2,9.5,9.5v0C-179.8,319.6-184.1,323.9-189.3,323.9z M-148.2,317.5h-25.3v-3.1c0,0,0,0,0,0c0,0,0,0,0,0v-3.1h22.1
	c0,0,0,0,0,0c0,0,0,0,0,0c1.7,0,3.2,1.4,3.2,3.2V317.5z"/>
<path class="st2" d="M-222.8,304.9L-222.8,304.9c-1.8,0-3.2,1.4-3.2,3.2c0,1.7,1.4,3.2,3.2,3.2h0.1c1.7,0,3.2-1.4,3.2-3.2
	C-219.6,306.3-221,304.9-222.8,304.9z"/>
<path class="st2" d="M-222.8,293.1L-222.8,293.1c1.8,0,3.2-1.4,3.2-3.2c0-1.7-1.4-3.2-3.2-3.2h-0.1c-1.7,0-3.2,1.4-3.2,3.2
	C-226,291.7-224.6,293.1-222.8,293.1z"/>
</svg>
