<?xml version="1.0" encoding="utf-8"?>
<!-- Generator: Adobe Illustrator 19.0.0, SVG Export Plug-In . SVG Version: 6.00 Build 0)  -->
<svg version="1.1" id="Layer_1" xmlns="http://www.w3.org/2000/svg" xmlns:xlink="http://www.w3.org/1999/xlink" x="0px" y="0px"
	 viewBox="-351 192.4 256.4 188.6" style="enable-background:new -351 192.4 256.4 188.6;" xml:space="preserve">
<style type="text/css">
	.st0{opacity:0.19;fill:#9E8B8A;enable-background:new    ;}
	.st1{fill:#FFFFFF;}
	.st2{fill:#C7B299;}
</style>
<path id="XMLID_40_" class="st0" d="M-114.9,381h-215.8c-11.2,0-20.3-9.1-20.3-20.3v-148c0-11.2,9.1-20.3,20.3-20.3h215.8
	c11.2,0,20.3,9.1,20.3,20.3v148C-94.6,371.9-103.7,381-114.9,381z"/>
<g>
	<path class="st1" d="M-261.3,214.4h7.5c0.3,0,0.7,0.1,1,0.2c0.3,0.1,0.6,0.3,0.8,0.5c0.2,0.2,0.4,0.5,0.5,0.8
		c0.1,0.3,0.2,0.6,0.2,0.9v3.3c0,0.4-0.1,0.7-0.3,1c-0.2,0.3-0.5,0.5-0.9,0.7c0.3,0.1,0.6,0.2,0.9,0.5c0.3,0.3,0.4,0.7,0.4,1.1v3.9
		c0,0.3-0.1,0.6-0.2,0.9c-0.1,0.3-0.3,0.5-0.5,0.8s-0.5,0.4-0.8,0.5c-0.3,0.1-0.6,0.2-1,0.2h-7.7V214.4z M-254.7,220.6
		c0.2,0,0.3-0.1,0.4-0.2c0.1-0.1,0.1-0.2,0.1-0.4v-2.5c0-0.2-0.1-0.3-0.2-0.4c-0.1-0.1-0.3-0.2-0.4-0.2h-3.9v3.7H-254.7z
		 M-258.6,227.1h4c0.2,0,0.3-0.1,0.4-0.2c0.1-0.1,0.2-0.3,0.2-0.4v-2.9c0-0.2-0.1-0.3-0.2-0.4c-0.1-0.1-0.3-0.2-0.4-0.2h-4V227.1z"
		/>
	<path class="st1" d="M-245.3,229.6h-2.8v-15.3h2.8V229.6z"/>
	<path class="st1" d="M-239.2,220.5v9.1h-2.6v-15.3h2.6l4.1,9.4l4.1-9.4h2.6v15.3h-2.6l0-9.1l-2.9,6.5h-2.3L-239.2,220.5z"/>
	<path class="st1" d="M-220,214.4h2.8v12.7h6.2v2.5h-9V214.4z"/>
	<path class="st1" d="M-196.2,229.6h-2.8l-1.1-3.3h-5.2l-1.1,3.3h-2.8l5.2-15.3h2.5L-196.2,229.6z M-204.5,223.9h3.5l-1.8-5.8
		L-204.5,223.9z"/>
	<path class="st1" d="M-194.1,214.4h7.5c0.3,0,0.7,0.1,1,0.2c0.3,0.1,0.6,0.3,0.8,0.5c0.2,0.2,0.4,0.5,0.5,0.8
		c0.1,0.3,0.2,0.6,0.2,0.9v3.3c0,0.4-0.1,0.7-0.3,1c-0.2,0.3-0.5,0.5-0.9,0.7c0.3,0.1,0.6,0.2,0.9,0.5c0.3,0.3,0.4,0.7,0.4,1.1v3.9
		c0,0.3-0.1,0.6-0.2,0.9c-0.1,0.3-0.3,0.5-0.5,0.8s-0.5,0.4-0.8,0.5c-0.3,0.1-0.6,0.2-1,0.2h-7.7V214.4z M-187.4,220.6
		c0.2,0,0.3-0.1,0.4-0.2c0.1-0.1,0.1-0.2,0.1-0.4v-2.5c0-0.2-0.1-0.3-0.2-0.4c-0.1-0.1-0.3-0.2-0.4-0.2h-3.9v3.7H-187.4z
		 M-191.4,227.1h4c0.2,0,0.3-0.1,0.4-0.2c0.1-0.1,0.2-0.3,0.2-0.4v-2.9c0-0.2-0.1-0.3-0.2-0.4c-0.1-0.1-0.3-0.2-0.4-0.2h-4V227.1z"
		/>
</g>
<path class="st2" d="M-177.6,316h-0.7v-54.2c0-3.1-2.5-5.6-5.6-5.6h-78c-3.1,0-5.6,2.5-5.6,5.6V316h-0.7c-1,0-1.8,0.8-1.8,1.8v6.3
	c0,4.6,3.7,8.3,8.3,8.3h77.5c4.6,0,8.3-3.7,8.3-8.3v-6.3C-175.8,316.8-176.6,316-177.6,316z M-263.7,261.8c0-1,0.8-1.9,1.9-1.9h78
	c1,0,1.9,0.8,1.9,1.9V316h-4.2v-50c0-1-0.8-1.8-1.8-1.8h-44.9c-1,0-1.8,0.8-1.8,1.8s0.8,1.8,1.8,1.8h43.1V316h-65.9v-48.2h6.3
	c1,0,1.8-0.8,1.8-1.8s-0.8-1.8-1.8-1.8h-8.2c-1,0-1.8,0.8-1.8,1.8v50h-4.2V261.8z M-179.4,324.1c0,2.5-2.1,4.6-4.6,4.6h-77.5
	c-2.5,0-4.6-2.1-4.6-4.6v-4.4h86.7V324.1z"/>
<path class="st2" d="M-199.1,276.3h-47.5c-1,0-1.8,0.8-1.8,1.8v30.1c0,1,0.8,1.8,1.8,1.8h27.1c1,0,1.8-0.8,1.8-1.8
	c0-0.1,0-0.2,0-0.3c0-0.1,0-0.2,0-0.3v-15.2c0-1-0.8-1.8-1.8-1.8s-1.8,0.8-1.8,1.8v13.9h-7.1v-5.4c0-1-0.8-1.8-1.8-1.8
	c-4.3,0-7.9,3.1-8.6,7.2h-5.9V280h12.7v9.2h-7.6c-1,0-1.8,0.8-1.8,1.8s0.8,1.8,1.8,1.8h9.4c1,0,1.8-0.8,1.8-1.8v-11h20.4
	c0.7,3.4,3.5,6.1,7,6.7v5.6h-9.6c-1,0-1.8,0.8-1.8,1.8s0.8,1.8,1.8,1.8h9.6v10.5h-8.7c-1,0-1.8,0.8-1.8,1.8s0.8,1.8,1.8,1.8h10.5
	c1,0,1.8-0.8,1.8-1.8v-30.1C-197.2,277.2-198,276.3-199.1,276.3z M-232,303.2v3.2h-3C-234.6,305-233.5,303.8-232,303.2z M-204.1,280
	h3.2v3C-202.4,282.5-203.6,281.4-204.1,280z"/>
</svg>
