<?xml version="1.0" encoding="utf-8"?>
<!-- Generator: Adobe Illustrator 19.0.0, SVG Export Plug-In . SVG Version: 6.00 Build 0)  -->
<svg version="1.1" id="Layer_1" xmlns="http://www.w3.org/2000/svg" xmlns:xlink="http://www.w3.org/1999/xlink" x="0px" y="0px"
	 viewBox="-351 192.4 256.4 188.6" style="enable-background:new -351 192.4 256.4 188.6;" xml:space="preserve">
<style type="text/css">
	.st0{opacity:0.19;fill:#9E8B8A;enable-background:new    ;}
	.st1{fill:#FFFFFF;}
	.st2{fill-rule:evenodd;clip-rule:evenodd;fill:#C7B299;}
	.st3{fill-rule:evenodd;clip-rule:evenodd;fill:#B2A18D;}
</style>
<path id="XMLID_40_" class="st0" d="M-114.9,381h-215.8c-11.2,0-20.3-9.1-20.3-20.3v-148c0-11.2,9.1-20.3,20.3-20.3h215.8
	c11.2,0,20.3,9.1,20.3,20.3v148C-94.6,371.9-103.7,381-114.9,381z"/>
<g>
	<path class="st1" d="M-263.2,207.8h11.1v2.5h-4.2v12.7h-2.8v-12.7h-4.1V207.8z"/>
	<path class="st1" d="M-247.2,223.1h-2.8v-15.3h2.8V223.1z"/>
	<path class="st1" d="M-243.8,207.8h2.8v7.2l4.8-7.2h3.2l-5.1,7.6l5.3,7.7h-3.2l-5-7.2v7.2h-2.8V207.8z"/>
	<path class="st1" d="M-227.3,207.8h11.1v2.5h-4.2v12.7h-2.8v-12.7h-4.1V207.8z"/>
	<path class="st1" d="M-212.9,222.9c-0.3-0.1-0.6-0.3-0.8-0.5c-0.2-0.2-0.4-0.5-0.5-0.8s-0.2-0.6-0.2-1v-10.2c0-0.4,0.1-0.7,0.2-1
		c0.1-0.3,0.3-0.6,0.5-0.8c0.2-0.2,0.5-0.4,0.8-0.5s0.6-0.2,1-0.2h5.4c0.4,0,0.7,0.1,1,0.2s0.6,0.3,0.8,0.5c0.2,0.2,0.4,0.5,0.5,0.8
		c0.1,0.3,0.2,0.6,0.2,1v10.2c0,0.4-0.1,0.7-0.2,1s-0.3,0.6-0.5,0.8c-0.2,0.2-0.5,0.4-0.8,0.5s-0.6,0.2-1,0.2h-5.4
		C-212.2,223.1-212.5,223-212.9,222.9z M-206.7,210.9c0-0.2-0.1-0.3-0.2-0.4c-0.1-0.1-0.3-0.2-0.4-0.2h-3.7c-0.2,0-0.3,0.1-0.4,0.2
		c-0.1,0.1-0.2,0.3-0.2,0.4v9c0,0.2,0.1,0.3,0.2,0.4s0.3,0.2,0.4,0.2h3.7c0.2,0,0.3-0.1,0.4-0.2s0.2-0.3,0.2-0.4V210.9z"/>
	<path class="st1" d="M-200.6,207.8h2.8v7.2l4.8-7.2h3.2l-5.1,7.6l5.3,7.7h-3.2l-5-7.2v7.2h-2.8V207.8z"/>
</g>
<g>
	<path class="st2" d="M-254.2,331c-19.7-17.1-7-55.2,23.3-50.4v3.5C-256.5,282.9-267.7,313.4-254.2,331z M-199,264.9
		c3.1,2.5,7.4,4.3,13.3,4.7v3.5C-192.2,271.8-196.3,268.6-199,264.9z M-207.2,246.7c0,1.3,0.2,2.6,0.4,3.9h-12.1v60.1
		c0,2.8-0.3,5.2-0.9,7.4c-4.9,10.8-18.8,9.4-22.7,2c5.7,3.6,15.2,2.6,19-5.9c0.6-2.2,0.8-4.6,0.8-7.4v-60.1H-207.2z"/>
	<g>
		<path class="st2" d="M-203.5,250.6L-203.5,250.6c0,1.5,0.4,21.6,21.5,22.9c0,18.7,0,0,0,15.6c-1.6,0.1-13.9-0.8-21.6-7.6l0,30.3
			c0.2,13.7-7.4,27.2-21.7,29.9c-4,0.8-7.6,0.8-13.7-0.5c-34.9-10.4-23.3-62.1,11.7-56.6c0,16.7,0,0,0,16.7
			c-14.5-2.1-19.3,9.9-15.5,18.5c3.5,7.8,17.9,9.5,22.9-1.5c0.6-2.2,0.9-4.6,0.9-7.4v-60.1H-203.5z"/>
		<path class="st3" d="M-230.9,284.1c1.2,0.1,2.4,0.2,3.7,0.4c0,16.7,0,0,0,16.7c-14.5-2.1-19.3,9.9-15.5,18.5
			c0.1,0.2,0.1,0.3,0.2,0.5c-1.7-1.1-3.1-2.6-3.9-4.4c-3.8-8.6,1-20.6,15.5-18.5C-230.9,282-230.9,294.7-230.9,284.1z M-185.6,273
			c1.2,0.2,2.4,0.4,3.7,0.4c0,18.7,0,0,0,15.6c-1.6,0.1-13.9-0.8-21.6-7.6l0,30.3c0.2,13.7-7.4,27.2-21.7,29.9
			c-4,0.8-7.6,0.8-13.7-0.5c-6.8-2-11.8-5.7-15.3-10.1c3.1,2.7,6.9,4.8,11.6,6.2c6,1.3,9.7,1.2,13.7,0.5
			c14.3-2.7,21.9-16.2,21.7-29.9l0-30.3c7.7,6.8,20,7.7,21.6,7.6C-185.6,270.7-185.6,285.8-185.6,273z M-203.5,250.6L-203.5,250.6
			c0,0.9,0.1,8.2,4.5,14.3c-5.3-4.2-7.2-10.3-7.8-14.3H-203.5z"/>
	</g>
</g>
</svg>
