<?xml version="1.0" encoding="utf-8"?>
<!-- Generator: Adobe Illustrator 19.0.0, SVG Export Plug-In . SVG Version: 6.00 Build 0)  -->
<svg version="1.1" id="Layer_1" xmlns="http://www.w3.org/2000/svg" xmlns:xlink="http://www.w3.org/1999/xlink" x="0px" y="0px"
	 viewBox="-351 192.4 256.4 188.6" style="enable-background:new -351 192.4 256.4 188.6;" xml:space="preserve">
<style type="text/css">
	.st0{opacity:0.19;fill:#9E8B8A;enable-background:new    ;}
	.st1{fill:#FFFFFF;}
	.st2{fill:#C7B299;}
</style>
<path id="XMLID_40_" class="st0" d="M-114.9,383.8h-215.8c-11.2,0-20.3-9.1-20.3-20.3v-148c0-11.2,9.1-20.3,20.3-20.3h215.8
	c11.2,0,20.3,9.1,20.3,20.3v148C-94.6,374.7-103.7,383.8-114.9,383.8z"/>
<g>
	<path class="st1" d="M-322.8,214.4h11.1v2.5h-4.2v12.7h-2.8v-12.7h-4.1V214.4z"/>
	<path class="st1" d="M-303.9,223.8h-2.9v5.9h-2.8v-15.3h8c0.4,0,0.7,0.1,1,0.2s0.6,0.3,0.8,0.5c0.2,0.2,0.4,0.5,0.5,0.8
		c0.1,0.3,0.2,0.6,0.2,1v4.3c0,0.6-0.2,1.1-0.5,1.6c-0.4,0.5-0.8,0.7-1.4,0.9l2.9,6h-3L-303.9,223.8z M-301.8,217.5
		c0-0.2-0.1-0.3-0.2-0.4c-0.1-0.1-0.3-0.2-0.4-0.2h-4.4v4.3h4.4c0.2,0,0.3-0.1,0.4-0.2c0.1-0.1,0.2-0.3,0.2-0.4V217.5z"/>
	<path class="st1" d="M-294.1,229.5c-0.3-0.1-0.6-0.3-0.8-0.5c-0.2-0.2-0.4-0.5-0.5-0.8s-0.2-0.6-0.2-1v-10.2c0-0.4,0.1-0.7,0.2-1
		c0.1-0.3,0.3-0.6,0.5-0.8c0.2-0.2,0.5-0.4,0.8-0.5s0.6-0.2,1-0.2h5.4c0.4,0,0.7,0.1,1,0.2s0.6,0.3,0.8,0.5c0.2,0.2,0.4,0.5,0.5,0.8
		c0.1,0.3,0.2,0.6,0.2,1v10.2c0,0.4-0.1,0.7-0.2,1s-0.3,0.6-0.5,0.8c-0.2,0.2-0.5,0.4-0.8,0.5s-0.6,0.2-1,0.2h-5.4
		C-293.4,229.6-293.8,229.6-294.1,229.5z M-287.9,217.5c0-0.2-0.1-0.3-0.2-0.4c-0.1-0.1-0.3-0.2-0.4-0.2h-3.7
		c-0.2,0-0.3,0.1-0.4,0.2c-0.1,0.1-0.2,0.3-0.2,0.4v9c0,0.2,0.1,0.3,0.2,0.4s0.3,0.2,0.4,0.2h3.7c0.2,0,0.3-0.1,0.4-0.2
		s0.2-0.3,0.2-0.4V217.5z"/>
	<path class="st1" d="M-281.8,214.4h2.8v12.7h6.2v2.5h-9V214.4z"/>
	<path class="st1" d="M-270.3,214.4h2.8v12.7h6.2v2.5h-9V214.4z"/>
	<path class="st1" d="M-246.6,224.4l2.8,0.5v2.3c0,0.4-0.1,0.7-0.2,1s-0.3,0.6-0.5,0.8c-0.2,0.2-0.5,0.4-0.8,0.5s-0.6,0.2-1,0.2
		h-5.2c-0.4,0-0.7-0.1-1-0.2s-0.6-0.3-0.8-0.5c-0.2-0.2-0.4-0.5-0.5-0.8s-0.2-0.6-0.2-1v-10.2c0-0.4,0.1-0.7,0.2-1
		c0.1-0.3,0.3-0.6,0.5-0.8c0.2-0.2,0.5-0.4,0.8-0.5s0.6-0.2,1-0.2h5.2c0.4,0,0.7,0.1,1,0.2s0.6,0.3,0.8,0.5c0.2,0.2,0.4,0.5,0.5,0.8
		c0.1,0.3,0.2,0.6,0.2,1v2.2l-2.8,0.5v-2c0-0.2-0.1-0.3-0.2-0.4c-0.1-0.1-0.3-0.2-0.4-0.2h-3.4c-0.2,0-0.3,0.1-0.4,0.2
		c-0.1,0.1-0.2,0.3-0.2,0.4v9c0,0.2,0.1,0.3,0.2,0.4s0.3,0.2,0.4,0.2h3.4c0.2,0,0.3-0.1,0.4-0.2s0.2-0.3,0.2-0.4V224.4z"/>
	<path class="st1" d="M-239.2,229.5c-0.3-0.1-0.6-0.3-0.8-0.5c-0.2-0.2-0.4-0.5-0.5-0.8s-0.2-0.6-0.2-1v-10.2c0-0.4,0.1-0.7,0.2-1
		c0.1-0.3,0.3-0.6,0.5-0.8c0.2-0.2,0.5-0.4,0.8-0.5s0.6-0.2,1-0.2h5.4c0.4,0,0.7,0.1,1,0.2s0.6,0.3,0.8,0.5c0.2,0.2,0.4,0.5,0.5,0.8
		c0.1,0.3,0.2,0.6,0.2,1v10.2c0,0.4-0.1,0.7-0.2,1s-0.3,0.6-0.5,0.8c-0.2,0.2-0.5,0.4-0.8,0.5s-0.6,0.2-1,0.2h-5.4
		C-238.6,229.6-238.9,229.6-239.2,229.5z M-233.1,217.5c0-0.2-0.1-0.3-0.2-0.4c-0.1-0.1-0.3-0.2-0.4-0.2h-3.7
		c-0.2,0-0.3,0.1-0.4,0.2c-0.1,0.1-0.2,0.3-0.2,0.4v9c0,0.2,0.1,0.3,0.2,0.4s0.3,0.2,0.4,0.2h3.7c0.2,0,0.3-0.1,0.4-0.2
		s0.2-0.3,0.2-0.4V217.5z"/>
	<path class="st1" d="M-224.4,220.5v9.1h-2.6v-15.3h2.6l4.1,9.4l4.1-9.4h2.6v15.3h-2.6l0-9.1l-2.9,6.5h-2.3L-224.4,220.5z"/>
	<path class="st1" d="M-210.1,214.4h7.8c0.4,0,0.7,0.1,1,0.2s0.6,0.3,0.8,0.5c0.2,0.2,0.4,0.5,0.5,0.8c0.1,0.3,0.2,0.6,0.2,1v4.3
		c0,0.4-0.1,0.7-0.2,1c-0.1,0.3-0.3,0.6-0.5,0.8c-0.2,0.2-0.5,0.4-0.8,0.5c-0.3,0.1-0.6,0.2-1,0.2h-5v5.9h-2.8V214.4z M-202.5,217.5
		c0-0.2-0.1-0.3-0.2-0.4c-0.1-0.1-0.3-0.2-0.4-0.2h-4.2v4.3h4.2c0.2,0,0.3-0.1,0.4-0.2c0.1-0.1,0.2-0.3,0.2-0.4V217.5z"/>
	<path class="st1" d="M-197.4,214.4h9.3v2.5h-6.5v3.8h5.9v2.5h-5.9v3.9h6.5v2.5h-9.3V214.4z"/>
	<path class="st1" d="M-186.4,214.4h11.1v2.5h-4.2v12.7h-2.8v-12.7h-4.1V214.4z"/>
	<path class="st1" d="M-170.4,229.6h-2.8v-15.3h2.8V229.6z"/>
	<path class="st1" d="M-168.2,214.4h11.1v2.5h-4.2v12.7h-2.8v-12.7h-4.1V214.4z"/>
	<path class="st1" d="M-152.2,229.6h-2.8v-15.3h2.8V229.6z"/>
	<path class="st1" d="M-147.4,229.5c-0.3-0.1-0.6-0.3-0.8-0.5c-0.2-0.2-0.4-0.5-0.5-0.8s-0.2-0.6-0.2-1v-10.2c0-0.4,0.1-0.7,0.2-1
		c0.1-0.3,0.3-0.6,0.5-0.8c0.2-0.2,0.5-0.4,0.8-0.5s0.6-0.2,1-0.2h5.4c0.4,0,0.7,0.1,1,0.2s0.6,0.3,0.8,0.5c0.2,0.2,0.4,0.5,0.5,0.8
		c0.1,0.3,0.2,0.6,0.2,1v10.2c0,0.4-0.1,0.7-0.2,1s-0.3,0.6-0.5,0.8c-0.2,0.2-0.5,0.4-0.8,0.5s-0.6,0.2-1,0.2h-5.4
		C-146.8,229.6-147.1,229.6-147.4,229.5z M-141.3,217.5c0-0.2-0.1-0.3-0.2-0.4c-0.1-0.1-0.3-0.2-0.4-0.2h-3.7
		c-0.2,0-0.3,0.1-0.4,0.2c-0.1,0.1-0.2,0.3-0.2,0.4v9c0,0.2,0.1,0.3,0.2,0.4s0.3,0.2,0.4,0.2h3.7c0.2,0,0.3-0.1,0.4-0.2
		s0.2-0.3,0.2-0.4V217.5z"/>
	<path class="st1" d="M-124.1,229.6h-2.6l-5.8-9.9v9.9h-2.6v-15.3h2.6l5.8,9.9v-9.9h2.6V229.6z"/>
</g>
<g>
	<path class="st2" d="M-187,324.4c-1.7-2.4-4-4.1-6.7-4.9c-0.1,0-0.1,0-0.2,0l-10.3-1.5l-3-4.5c-0.3-0.4-0.8-0.7-1.2-0.7
		c-0.1-1-0.1-2.1-0.1-3.2c2.2-2.3,4-5.1,5.1-8.3c0.5,0.1,0.9,0.1,1.4,0.1c4.3,0,7.9-3.5,7.9-7.9c0-0.2,0-0.5,0-0.7
		c2.9-1.2,4.8-4.1,4.8-7.2c0-2.1-0.9-4.1-2.4-5.6c1.5-1.5,2.4-3.5,2.4-5.6c0-3.6-2.4-6.6-5.7-7.6c0.6-1.1,0.9-2.3,0.9-3.6
		c0-4.3-3.5-7.9-7.9-7.9c-0.6,0-1.2,0.1-1.8,0.2c-0.6-3.7-3.9-6.6-7.8-6.6c-1.8,0-3.4,0.6-4.8,1.7c-1.5-2-3.8-3.3-6.3-3.3
		s-4.9,1.2-6.3,3.3c-1.4-1.1-3.1-1.7-4.8-1.7c-3.9,0-7.1,2.9-7.8,6.6c-0.6-0.1-1.2-0.2-1.8-0.2c-4.3,0-7.9,3.5-7.9,7.9
		c0,1.3,0.3,2.5,0.9,3.6c-3.3,1-5.7,4-5.7,7.6c0,2.1,0.9,4.1,2.4,5.6c-1.5,1.5-2.4,3.5-2.4,5.6c0,3.2,2,6,4.8,7.2c0,0.2,0,0.5,0,0.7
		c0,4.3,3.5,7.9,7.9,7.9c0.5,0,0.9,0,1.4-0.1c1.1,3.2,2.9,6,5.1,8.3c0,1,0,2.1-0.1,3.2c-0.5,0-1,0.2-1.2,0.7l-3,4.5l-10.3,1.5
		c-0.1,0-0.1,0-0.2,0c-2.7,0.8-5.1,2.5-6.7,4.9c-1.5,2.2-2.4,4.9-2.4,7.6v3c0,2.6,2.3,4.7,5.1,4.7h21.9c0,0,0,0,0,0s0,0,0,0h22.3
		c0,0,0,0,0,0c0,0,0,0,0,0h21.9c2.8,0,5.1-2.1,5.1-4.7v-3C-184.7,329.3-185.5,326.6-187,324.4z M-218.1,336.6
		C-218.1,336.6-218.1,336.5-218.1,336.6c0-2.7-2.1-4.8-4.7-4.8s-4.7,2.1-4.7,4.7c0,0,0,0.1,0,0.1h-5.3l-2.2-11l4.8,4.1
		c0.3,0.2,0.6,0.4,1,0.4c0,0,0.1,0,0.1,0c0.4,0,0.8-0.2,1-0.6l5.2-6.5l5.2,6.5c0.3,0.3,0.6,0.5,1,0.6c0,0,0.1,0,0.1,0
		c0.4,0,0.7-0.1,1-0.4l4.8-4.1l-2.2,11H-218.1z M-221.1,336.6h-3.4c0,0,0-0.1,0-0.1c0-0.9,0.8-1.7,1.7-1.7S-221.1,335.6-221.1,336.6
		C-221.1,336.5-221.1,336.6-221.1,336.6z M-240.4,293.5v-9.6c0-2.7,2.2-4.9,4.9-4.9h25.5c2.7,0,4.9,2.2,4.9,4.9v9.6
		c0,10.6-7.9,19.2-17.6,19.2S-240.4,304.1-240.4,293.5z M-222.8,315.7c4.2,0,8.1-1.3,11.3-3.6c0,0.6,0.1,1.2,0.2,1.8l-11.5,5.1
		l-11.5-5.1c0.1-0.6,0.1-1.2,0.2-1.8C-230.9,314.4-227,315.7-222.8,315.7z M-207.3,318.7l-9,7.7l-4.2-5.2l11.4-5.1L-207.3,318.7z
		 M-243.5,298.4c-2.7,0-4.9-2.2-4.9-4.9c0-0.4,0.1-0.8,0.2-1.3c0.1-0.4,0.1-0.8-0.2-1.2c-0.2-0.4-0.6-0.6-1-0.7
		c-2.2-0.5-3.9-2.5-3.9-4.8c0-1.8,1-3.4,2.6-4.3c0.5-0.3,0.8-0.8,0.8-1.3c0-0.5-0.3-1-0.8-1.3c-1.6-0.9-2.6-2.5-2.6-4.3
		c0-2.7,2.2-4.9,4.9-4.9c0.1,0,0.2,0,0.3,0c0.1,0,0.2,0,0.2,0c0.7,0.1,1.3-0.3,1.5-0.9c0.3-0.6,0.1-1.3-0.4-1.7
		c-1.1-0.9-1.8-2.3-1.8-3.7c0-2.7,2.2-4.9,4.9-4.9c0.9,0,1.7,0.2,2.5,0.7c0.5,0.3,1.1,0.3,1.6,0c0.5-0.3,0.7-0.9,0.6-1.5l0-0.1
		c0-0.3-0.1-0.5-0.1-0.7c0-2.7,2.2-4.9,4.9-4.9c1.6,0,3,0.7,4,2c0.3,0.5,0.9,0.7,1.4,0.6c0.6-0.1,1-0.5,1.2-1c0.7-2,2.5-3.3,4.6-3.3
		s3.9,1.3,4.6,3.3c0.2,0.5,0.6,0.9,1.2,1c0.6,0.1,1.1-0.2,1.4-0.6c0.9-1.3,2.4-2,4-2c2.7,0,4.9,2.2,4.9,4.9c0,0.2,0,0.4-0.1,0.7
		l0,0.1c-0.1,0.6,0.2,1.1,0.7,1.5c0.5,0.3,1.1,0.3,1.6,0c0.8-0.5,1.6-0.7,2.5-0.7c2.7,0,4.9,2.2,4.9,4.9c0,1.4-0.6,2.8-1.8,3.7
		c-0.5,0.4-0.7,1.1-0.4,1.7c0.3,0.6,0.9,1,1.5,0.9c0.1,0,0.2,0,0.2,0c0.1,0,0.2,0,0.3,0c2.7,0,4.9,2.2,4.9,4.9c0,1.8-1,3.4-2.6,4.3
		c-0.5,0.3-0.8,0.8-0.8,1.3c0,0.5,0.3,1,0.8,1.3c1.6,0.9,2.6,2.5,2.6,4.3c0,2.3-1.6,4.3-3.9,4.8c-0.4,0.1-0.8,0.3-1,0.7
		c-0.2,0.4-0.3,0.8-0.2,1.2c0.1,0.5,0.2,0.9,0.2,1.3c0,2.7-2.2,4.9-4.9,4.9c-0.2,0-0.4,0-0.6,0c0.3-1.6,0.5-3.2,0.5-4.8v-9.6
		c0-4.3-3.5-7.9-7.9-7.9h-25.5c-4.3,0-7.9,3.5-7.9,7.9v9.6c0,1.7,0.2,3.3,0.5,4.8C-243.1,298.4-243.3,298.4-243.5,298.4z
		 M-236.6,316.1l11.4,5.1l-4.2,5.2l-9-7.7L-236.6,316.1z M-257.9,334.9v-3c0-3.8,2.3-8.3,6.8-9.6l10.6-1.6l1.9,1.6c0,0,0,0,0,0
		l2.8,14.1h-20C-257,336.6-257.9,335.8-257.9,334.9z M-187.7,334.9c0,0.9-1,1.7-2.1,1.7h-20l2.8-14.1c0,0,0,0,0,0l1.9-1.6l10.6,1.6
		c4.5,1.3,6.8,5.8,6.8,9.6V334.9z"/>
	<path class="st2" d="M-222.8,306.1c4.3,0,7.9-3.5,7.9-7.9s-3.5-7.9-7.9-7.9s-7.9,3.5-7.9,7.9S-227.1,306.1-222.8,306.1z
		 M-222.8,293.4c2.7,0,4.9,2.2,4.9,4.9c0,2.7-2.2,4.9-4.9,4.9s-4.9-2.2-4.9-4.9S-225.5,293.4-222.8,293.4z"/>
	<path class="st2" d="M-232.4,291.8c0.8,0,1.5-0.7,1.5-1.5v-1.6c0-0.8-0.7-1.5-1.5-1.5s-1.5,0.7-1.5,1.5v1.6
		C-233.8,291.1-233.2,291.8-232.4,291.8z"/>
	<path class="st2" d="M-213.2,291.8c0.8,0,1.5-0.7,1.5-1.5v-1.6c0-0.8-0.7-1.5-1.5-1.5s-1.5,0.7-1.5,1.5v1.6
		C-214.7,291.1-214.1,291.8-213.2,291.8z"/>
</g>
</svg>
