<svg id="svg" version="1.1" width="400" height="151.66666666666666" viewBox="0 0 400 151.66666666666666" xmlns="http://www.w3.org/2000/svg" xmlns:xlink="http://www.w3.org/1999/xlink" ><g id="svgg"><path id="path0" d="M136.732 52.863 C 136.655 52.986,136.691 53.005,136.833 52.917 C 136.981 52.826,137.011 52.847,136.928 52.982 C 136.841 53.123,136.741 53.131,136.595 53.009 C 136.440 52.881,136.332 52.953,136.179 53.289 C 136.037 53.600,136.029 53.760,136.152 53.801 C 137.036 54.095,135.629 54.326,132.849 54.341 C 129.582 54.359,129.222 54.455,129.377 55.266 C 129.498 55.899,129.305 55.981,127.621 56.012 L 126.000 56.042 126.000 56.855 L 126.000 57.667 124.542 57.686 C 123.740 57.697,122.998 57.696,122.893 57.683 C 122.788 57.671,122.706 57.755,122.711 57.872 C 122.715 57.988,122.707 58.365,122.693 58.708 L 122.667 59.333 121.750 59.333 L 120.833 59.333 120.833 57.033 C 120.833 55.467,120.770 54.670,120.633 54.533 C 120.481 54.381,117.426 54.333,107.902 54.333 L 95.371 54.333 95.284 54.875 C 95.153 55.679,95.142 147.941,95.271 149.947 L 95.382 151.667 108.108 151.667 L 120.833 151.667 120.833 117.917 L 120.833 84.167 121.583 84.146 C 121.996 84.134,122.408 84.106,122.500 84.083 C 122.592 84.060,122.821 84.032,123.010 84.021 C 123.237 84.007,123.311 83.930,123.228 83.792 C 123.129 83.628,123.158 83.628,123.363 83.794 C 123.721 84.084,124.101 83.676,123.788 83.338 C 123.624 83.162,123.630 83.145,123.820 83.253 C 123.992 83.351,124.030 83.317,123.958 83.131 C 123.820 82.773,124.146 82.500,124.711 82.500 C 125.533 82.500,125.833 82.231,125.833 81.494 L 125.833 80.833 127.167 80.813 C 128.939 80.785,129.119 80.770,129.252 80.636 C 129.315 80.574,129.483 80.568,129.627 80.623 C 129.792 80.686,129.846 80.656,129.775 80.540 C 129.712 80.439,129.739 80.308,129.835 80.249 C 129.930 80.190,129.988 80.204,129.962 80.279 C 129.914 80.423,130.047 80.500,130.343 80.500 C 130.440 80.500,130.473 80.425,130.417 80.333 C 130.360 80.242,130.412 80.161,130.532 80.155 C 130.652 80.149,130.600 80.079,130.417 80.000 C 130.109 79.868,130.108 79.856,130.393 79.845 C 130.601 79.837,130.670 79.749,130.604 79.577 C 130.465 79.214,130.595 79.194,133.750 79.109 C 136.560 79.032,137.250 78.937,137.073 78.649 C 137.022 78.567,137.060 78.500,137.157 78.500 C 137.254 78.500,137.333 78.275,137.333 78.000 L 137.333 77.500 141.042 77.503 C 143.176 77.504,144.654 77.566,144.524 77.648 C 144.243 77.826,144.391 78.350,144.834 78.751 C 145.116 79.006,145.199 79.014,145.446 78.815 C 145.690 78.616,145.710 78.617,145.588 78.820 C 145.482 78.997,145.514 79.030,145.717 78.952 C 145.867 78.895,146.032 78.917,146.085 79.003 C 146.137 79.088,146.496 79.148,146.882 79.138 C 147.268 79.127,148.352 79.129,149.292 79.142 L 151.000 79.167 151.000 79.657 C 151.000 79.926,151.083 80.198,151.184 80.261 C 151.313 80.340,151.300 80.418,151.143 80.518 C 150.965 80.631,150.979 80.667,151.208 80.685 C 151.369 80.698,151.575 80.727,151.667 80.750 C 151.758 80.773,152.392 80.801,153.074 80.813 L 154.315 80.833 154.366 81.625 L 154.417 82.417 155.200 82.467 L 155.982 82.518 156.033 83.300 C 156.086 84.123,156.069 84.110,157.119 84.147 L 157.654 84.167 157.702 85.708 C 157.737 86.833,157.806 87.239,157.958 87.208 C 158.073 87.185,158.167 87.236,158.167 87.322 C 158.167 87.407,158.410 87.463,158.708 87.447 L 159.250 87.417 159.297 89.573 C 159.327 90.953,159.417 91.819,159.547 91.980 C 159.712 92.184,159.706 92.204,159.516 92.089 C 159.325 91.975,159.302 92.054,159.394 92.516 C 159.457 92.828,159.577 93.107,159.661 93.136 C 159.746 93.165,159.779 93.282,159.735 93.396 C 159.602 93.743,160.432 94.097,160.754 93.830 C 160.900 93.709,161.006 93.679,160.990 93.763 C 160.974 93.848,160.969 106.910,160.980 122.792 L 161.000 151.667 174.741 151.667 L 188.482 151.667 188.544 150.875 L 188.607 150.083 188.637 150.875 C 188.653 151.310,188.742 151.667,188.834 151.667 C 188.993 151.667,188.966 96.986,188.807 95.750 C 188.693 94.867,188.498 94.532,187.993 94.356 L 187.500 94.184 187.481 88.134 C 187.470 84.806,187.450 82.008,187.436 81.917 C 187.336 81.275,187.143 81.083,186.584 81.068 C 185.812 81.049,185.874 81.263,185.785 78.333 C 185.704 75.672,185.676 75.414,185.428 75.016 C 185.328 74.856,185.343 74.819,185.472 74.900 C 185.594 74.975,185.628 74.927,185.568 74.769 C 185.515 74.633,185.365 74.562,185.234 74.613 C 185.103 74.663,184.887 74.614,184.755 74.504 C 184.623 74.394,184.436 74.353,184.341 74.412 C 184.169 74.519,184.074 73.393,184.155 72.208 C 184.176 71.910,184.120 71.667,184.032 71.667 C 183.943 71.667,183.881 71.535,183.894 71.375 C 183.916 71.087,183.839 71.057,182.980 71.019 C 182.561 71.001,182.540 70.953,182.448 69.792 C 182.318 68.147,182.254 67.913,181.941 67.940 C 181.792 67.952,181.711 67.897,181.760 67.817 C 181.810 67.737,181.621 67.698,181.342 67.730 C 180.883 67.784,180.831 67.743,180.813 67.311 C 180.756 66.007,180.809 66.087,179.958 66.033 C 179.182 65.983,179.166 65.971,179.146 65.408 C 179.134 65.092,179.116 64.740,179.104 64.625 C 179.092 64.499,178.772 64.397,178.292 64.366 L 177.500 64.315 177.500 63.491 L 177.500 62.667 176.667 62.667 L 175.833 62.667 175.813 62.083 C 175.801 61.762,175.782 61.406,175.771 61.292 C 175.758 61.165,175.439 61.063,174.958 61.033 C 174.227 60.986,174.165 60.947,174.149 60.533 C 174.104 59.390,174.124 59.420,173.352 59.364 C 172.486 59.302,172.221 59.082,172.257 58.450 C 172.275 58.123,172.216 58.009,172.060 58.069 C 171.938 58.116,171.855 58.064,171.877 57.952 C 171.905 57.810,171.510 57.736,170.542 57.702 C 169.618 57.669,169.160 57.587,169.147 57.452 C 169.128 57.251,169.092 57.070,169.006 56.750 C 168.982 56.658,168.951 56.471,168.939 56.333 C 168.914 56.052,168.780 56.038,166.042 56.015 L 164.167 56.000 164.167 55.489 C 164.167 54.356,164.179 54.360,160.632 54.341 C 157.314 54.322,157.065 54.269,157.265 53.625 C 157.315 53.465,157.271 53.333,157.168 53.333 C 157.065 53.333,157.023 53.264,157.076 53.178 C 157.221 52.943,156.848 52.780,156.612 52.976 C 156.470 53.094,156.329 53.093,156.161 52.975 C 155.962 52.834,155.972 52.820,156.217 52.899 C 156.383 52.953,156.474 52.927,156.421 52.841 C 156.273 52.602,136.880 52.624,136.732 52.863 M188.667 95.500 C 188.667 95.709,188.468 95.810,188.235 95.721 C 188.107 95.672,188.036 95.577,188.077 95.510 C 188.171 95.358,188.667 95.350,188.667 95.500 M188.667 97.083 C 188.667 97.313,188.592 97.500,188.500 97.500 C 188.408 97.500,188.333 97.313,188.333 97.083 C 188.333 96.854,188.408 96.667,188.500 96.667 C 188.592 96.667,188.667 96.854,188.667 97.083 M188.782 149.292 C 188.740 149.452,188.705 149.321,188.705 149.000 C 188.705 148.679,188.740 148.548,188.782 148.708 C 188.823 148.869,188.823 149.131,188.782 149.292 " stroke="none" fill="#7cbce4" fill-rule="evenodd"></path><path id="path1" d="M76.000 16.831 L 76.000 17.667 74.533 17.667 C 72.867 17.667,72.667 17.777,72.667 18.691 L 72.667 19.315 71.875 19.366 L 71.083 19.417 71.033 20.208 C 70.984 20.962,70.958 21.000,70.491 21.000 C 69.615 21.000,69.333 21.484,69.333 22.991 L 69.333 24.315 68.542 24.366 L 67.750 24.417 67.707 31.481 C 67.659 39.166,67.625 38.897,68.661 39.063 C 69.306 39.166,69.316 39.179,69.366 39.959 L 69.417 40.750 70.208 40.801 L 71.000 40.852 71.000 41.676 L 71.000 42.500 71.833 42.500 L 72.667 42.500 72.667 43.333 L 72.667 44.167 73.500 44.167 L 74.333 44.167 74.333 44.899 C 74.333 45.794,74.414 45.833,76.264 45.833 L 77.667 45.833 77.667 46.494 C 77.667 47.481,77.762 47.500,82.735 47.500 L 87.159 47.500 87.454 47.044 C 88.083 46.076,88.355 45.921,89.583 45.833 L 90.750 45.750 90.801 44.958 L 90.852 44.167 91.967 44.150 C 93.693 44.124,93.892 44.030,94.063 43.156 C 94.186 42.522,94.301 42.363,94.816 42.112 C 95.494 41.783,95.833 41.023,95.833 39.836 C 95.833 39.167,95.834 39.167,96.494 39.167 C 97.363 39.167,97.500 38.886,97.500 37.108 L 97.500 35.694 98.124 35.389 C 99.001 34.960,99.203 34.027,99.109 30.833 C 99.026 27.975,98.992 27.863,98.168 27.731 L 97.540 27.630 97.470 25.670 C 97.391 23.469,97.173 22.894,96.379 22.803 C 95.956 22.754,95.910 22.679,95.833 21.917 L 95.750 21.083 94.967 21.033 L 94.184 20.982 94.134 20.200 L 94.083 19.417 93.300 19.366 L 92.518 19.316 92.467 18.533 L 92.417 17.750 90.833 17.667 L 89.250 17.583 89.167 16.833 L 89.083 16.083 82.542 16.040 L 76.000 15.996 76.000 16.831 M136.525 52.825 C 136.597 53.040,136.825 53.078,136.846 52.879 C 136.853 52.813,136.768 52.728,136.658 52.692 C 136.548 52.655,136.488 52.715,136.525 52.825 M156.194 52.813 C 156.013 52.928,156.018 52.971,156.220 53.049 C 156.477 53.148,156.667 53.045,156.667 52.806 C 156.667 52.629,156.479 52.632,156.194 52.813 M69.333 103.000 L 69.333 151.667 82.292 151.667 L 95.250 151.667 95.250 103.000 L 95.250 54.333 82.292 54.333 L 69.333 54.333 69.333 103.000 M144.430 78.107 C 144.372 78.261,144.447 78.516,144.602 78.687 C 144.886 79.001,145.169 78.965,145.164 78.615 C 145.162 78.476,145.121 78.481,145.024 78.633 C 144.831 78.938,144.457 78.473,144.598 78.104 C 144.656 77.955,144.665 77.833,144.619 77.833 C 144.573 77.833,144.488 77.957,144.430 78.107 M123.513 83.635 C 123.506 83.756,123.414 83.800,123.308 83.734 C 123.194 83.664,123.160 83.688,123.225 83.793 C 123.348 83.993,123.757 83.972,123.954 83.756 C 124.025 83.677,123.996 83.663,123.889 83.724 C 123.782 83.785,123.657 83.741,123.611 83.626 C 123.545 83.464,123.523 83.466,123.513 83.635 M159.355 92.833 C 159.330 93.211,159.600 93.576,159.739 93.351 C 159.802 93.250,159.779 93.167,159.689 93.167 C 159.598 93.167,159.490 93.035,159.448 92.875 C 159.394 92.668,159.367 92.656,159.355 92.833 M187.500 93.759 C 187.500 94.055,187.627 94.223,187.940 94.342 C 188.510 94.559,188.590 94.459,188.253 93.945 C 187.854 93.336,187.500 93.249,187.500 93.759 M188.500 94.677 C 188.500 94.774,188.413 94.799,188.308 94.734 C 188.187 94.660,188.160 94.688,188.236 94.810 C 188.302 94.918,188.420 94.966,188.497 94.918 C 188.575 94.870,188.676 94.925,188.723 95.041 C 188.769 95.156,188.813 95.081,188.820 94.875 C 188.827 94.669,188.758 94.500,188.667 94.500 C 188.575 94.500,188.500 94.579,188.500 94.677 M188.077 95.510 C 188.036 95.577,188.107 95.672,188.235 95.721 C 188.468 95.810,188.667 95.709,188.667 95.500 C 188.667 95.350,188.171 95.358,188.077 95.510 M188.751 95.663 C 188.693 95.845,188.724 96.126,188.818 96.288 C 188.958 96.529,188.991 96.468,188.995 95.958 C 189.001 95.268,188.911 95.159,188.751 95.663 M188.333 97.083 C 188.333 97.313,188.408 97.500,188.500 97.500 C 188.592 97.500,188.667 97.313,188.667 97.083 C 188.667 96.854,188.592 96.667,188.500 96.667 C 188.408 96.667,188.333 96.854,188.333 97.083 M188.705 149.000 C 188.705 149.321,188.740 149.452,188.782 149.292 C 188.823 149.131,188.823 148.869,188.782 148.708 C 188.740 148.548,188.705 148.679,188.705 149.000 M188.548 150.917 C 188.549 151.375,188.581 151.543,188.620 151.289 C 188.658 151.036,188.657 150.661,188.617 150.456 C 188.578 150.251,188.546 150.458,188.548 150.917 " stroke="none" fill="#344474" fill-rule="evenodd"></path><path id="path2" d="M274.136 17.299 C 274.083 17.663,274.122 17.776,274.281 17.715 C 274.532 17.619,274.559 17.351,274.352 17.025 C 274.250 16.864,274.188 16.943,274.136 17.299 M240.350 20.380 C 240.341 20.544,240.171 20.737,239.973 20.811 C 239.713 20.907,239.678 20.968,239.848 21.032 C 240.304 21.204,240.613 20.946,240.485 20.500 C 240.407 20.224,240.361 20.184,240.350 20.380 M197.349 68.731 C 197.202 68.908,197.216 68.983,197.412 69.059 C 197.587 69.126,197.667 69.054,197.667 68.828 C 197.667 68.440,197.606 68.421,197.349 68.731 M290.836 102.125 C 290.834 102.464,290.665 102.583,290.279 102.516 C 290.204 102.502,290.190 102.569,290.248 102.663 C 290.319 102.779,290.455 102.780,290.667 102.666 C 291.095 102.437,291.172 102.277,290.992 101.992 C 290.872 101.803,290.838 101.832,290.836 102.125 M330.123 125.517 C 330.197 125.801,330.165 125.855,329.985 125.752 C 329.796 125.644,329.790 125.661,329.956 125.839 C 330.192 126.095,330.279 126.043,330.359 125.601 C 330.391 125.427,330.329 125.254,330.221 125.216 C 330.094 125.171,330.059 125.275,330.123 125.517 M329.375 149.110 C 329.260 149.157,329.167 149.306,329.167 149.442 C 329.167 149.654,329.206 149.651,329.434 149.423 C 329.656 149.201,329.749 149.192,329.976 149.369 C 330.220 149.560,330.225 149.552,330.021 149.292 C 329.783 148.988,329.721 148.971,329.375 149.110 M254.205 151.167 C 254.205 151.487,254.240 151.619,254.282 151.458 C 254.323 151.298,254.323 151.035,254.282 150.875 C 254.240 150.715,254.205 150.846,254.205 151.167 M255.372 151.167 C 255.372 151.487,255.406 151.619,255.448 151.458 C 255.490 151.298,255.490 151.035,255.448 150.875 C 255.406 150.715,255.372 150.846,255.372 151.167 M256.372 151.167 C 256.372 151.487,256.406 151.619,256.448 151.458 C 256.490 151.298,256.490 151.035,256.448 150.875 C 256.406 150.715,256.372 150.846,256.372 151.167 M256.731 150.907 C 256.680 151.039,256.668 151.283,256.704 151.449 C 256.745 151.637,256.802 151.547,256.856 151.208 C 256.946 150.641,256.887 150.498,256.731 150.907 M257.564 150.907 C 257.513 151.039,257.501 151.283,257.537 151.449 C 257.578 151.637,257.635 151.547,257.689 151.208 C 257.780 150.641,257.721 150.498,257.564 150.907 M267.542 150.777 C 267.307 150.872,267.253 151.667,267.481 151.667 C 267.562 151.667,267.662 151.442,267.702 151.167 C 267.743 150.892,267.770 150.673,267.763 150.680 C 267.756 150.687,267.656 150.731,267.542 150.777 M270.814 151.203 C 270.890 151.666,270.914 151.689,270.966 151.356 C 271.000 151.139,270.960 150.893,270.876 150.809 C 270.783 150.716,270.759 150.872,270.814 151.203 " stroke="none" fill="#ec343c" fill-rule="evenodd"></path><path id="path3" d="M249.534 16.199 C 249.424 16.310,249.333 16.685,249.333 17.033 L 249.333 17.667 246.200 17.667 C 242.730 17.667,242.667 17.685,242.667 18.695 L 242.667 19.324 240.375 19.370 C 238.650 19.405,238.094 19.468,238.125 19.625 C 238.148 19.740,238.073 19.815,237.958 19.792 C 237.844 19.769,237.739 19.900,237.726 20.083 C 237.713 20.267,237.694 20.545,237.684 20.702 C 237.669 20.948,237.438 20.995,236.042 21.036 L 234.417 21.083 234.366 21.875 L 234.315 22.667 232.658 22.667 L 231.000 22.667 231.000 23.500 L 231.000 24.333 229.500 24.333 C 228.555 24.333,228.000 24.399,228.000 24.510 C 228.000 24.607,227.925 24.640,227.833 24.583 C 227.732 24.520,227.667 24.773,227.667 25.231 L 227.667 25.982 226.875 26.033 L 226.083 26.083 226.033 26.869 L 225.982 27.655 224.366 27.702 L 222.750 27.750 222.699 28.542 L 222.648 29.333 221.824 29.333 L 221.000 29.333 221.000 30.167 L 221.000 31.000 220.167 31.000 L 219.333 31.000 219.333 31.833 L 219.333 32.667 218.417 32.667 C 217.912 32.667,217.500 32.735,217.500 32.818 C 217.500 32.901,217.350 32.929,217.166 32.881 C 216.733 32.768,216.288 33.141,216.390 33.530 C 216.433 33.697,216.409 33.797,216.337 33.752 C 216.264 33.707,216.166 33.820,216.118 34.002 C 216.055 34.241,215.890 34.333,215.522 34.333 C 214.889 34.333,214.333 34.893,214.333 35.531 C 214.333 35.941,214.270 36.000,213.833 36.000 C 213.558 36.000,213.333 36.079,213.333 36.177 C 213.333 36.274,213.262 36.309,213.175 36.255 C 212.928 36.103,212.667 36.741,212.667 37.495 C 212.667 38.221,211.813 39.333,211.256 39.333 C 211.060 39.333,211.000 39.529,211.000 40.167 L 211.000 41.000 210.167 41.000 L 209.333 41.000 209.333 41.833 L 209.333 42.667 208.500 42.667 L 207.667 42.667 207.667 43.500 C 207.667 44.315,207.656 44.333,207.167 44.333 C 206.892 44.333,206.667 44.413,206.667 44.510 C 206.667 44.607,206.595 44.642,206.508 44.589 C 206.208 44.403,206.000 45.148,206.000 46.406 L 206.000 47.667 205.292 47.686 C 204.902 47.697,204.527 47.697,204.458 47.686 C 204.390 47.676,204.333 47.998,204.333 48.403 C 204.333 49.386,204.216 49.648,203.822 49.545 C 203.399 49.435,202.955 49.812,203.056 50.197 C 203.100 50.364,203.076 50.464,203.003 50.419 C 202.818 50.304,202.672 50.942,202.669 51.875 C 202.667 52.661,202.663 52.667,202.109 52.667 C 201.528 52.667,200.953 53.116,201.009 53.525 C 201.026 53.649,201.031 54.256,201.020 54.875 L 201.000 56.000 200.506 56.000 C 199.522 56.000,199.333 56.460,199.333 58.865 L 199.333 61.000 198.833 61.021 C 198.558 61.032,198.258 61.060,198.167 61.083 C 198.075 61.106,197.922 61.134,197.826 61.146 C 197.730 61.157,197.664 61.260,197.679 61.375 C 197.694 61.490,197.697 62.567,197.686 63.770 L 197.667 65.957 197.028 66.060 C 196.051 66.216,196.000 66.456,196.000 70.925 C 196.000 74.059,195.956 74.833,195.779 74.833 C 195.521 74.833,194.833 75.523,194.833 75.782 C 194.833 75.879,194.722 76.051,194.587 76.164 C 194.376 76.339,194.340 77.459,194.340 83.916 C 194.340 92.368,194.335 92.333,195.512 92.333 L 196.000 92.333 196.000 96.500 C 196.000 100.347,196.022 100.669,196.292 100.692 C 196.452 100.706,196.658 100.735,196.750 100.756 C 196.842 100.777,197.085 100.804,197.292 100.814 C 197.662 100.833,197.667 100.861,197.667 103.252 C 197.667 104.583,197.736 105.801,197.821 105.961 C 197.906 106.120,198.016 106.381,198.066 106.542 C 198.116 106.702,198.421 106.960,198.745 107.114 L 199.333 107.395 199.353 108.906 C 199.364 109.737,199.364 110.473,199.353 110.542 C 199.342 110.610,199.427 110.678,199.542 110.692 C 199.656 110.706,199.825 110.735,199.917 110.756 C 200.008 110.777,200.290 110.804,200.542 110.814 L 201.000 110.833 201.000 112.399 C 201.000 114.123,201.027 114.167,202.097 114.167 L 202.667 114.167 202.686 115.625 C 202.697 116.427,202.697 117.140,202.686 117.208 C 202.676 117.277,202.760 117.345,202.875 117.359 C 202.990 117.373,203.158 117.402,203.250 117.423 C 203.342 117.444,203.623 117.470,203.875 117.481 L 204.333 117.500 204.333 118.896 C 204.333 120.443,204.405 120.572,205.367 120.752 C 205.963 120.863,205.985 120.893,206.033 121.642 L 206.083 122.417 206.875 122.467 L 207.667 122.518 207.667 123.431 C 207.667 124.965,208.415 126.048,209.157 125.589 C 209.273 125.518,209.333 125.793,209.333 126.389 C 209.333 127.389,209.442 127.500,210.421 127.500 C 210.972 127.500,210.983 127.514,211.033 128.292 L 211.083 129.083 211.866 129.134 L 212.649 129.184 212.700 129.967 L 212.750 130.750 213.533 130.800 L 214.316 130.851 214.366 131.634 L 214.417 132.417 215.200 132.467 L 215.982 132.518 216.033 133.300 L 216.083 134.083 216.866 134.134 L 217.649 134.184 217.700 134.967 L 217.750 135.750 218.542 135.801 C 219.341 135.852,219.519 136.160,219.353 137.208 C 219.342 137.277,219.352 137.338,219.375 137.344 C 219.398 137.349,219.753 137.392,220.164 137.439 C 220.898 137.523,221.235 137.754,221.053 138.050 C 220.910 138.280,221.345 138.974,221.647 138.997 C 221.795 139.008,222.457 139.057,223.116 139.105 L 224.316 139.193 224.366 139.972 C 224.397 140.442,224.499 140.758,224.625 140.771 C 224.740 140.782,225.096 140.801,225.417 140.813 C 225.939 140.831,226.000 140.882,226.000 141.300 C 226.000 141.557,226.094 141.868,226.208 141.991 C 226.377 142.173,226.370 142.193,226.167 142.095 C 226.029 142.029,226.062 142.093,226.240 142.238 C 226.477 142.429,226.937 142.500,227.949 142.500 L 229.333 142.500 229.333 143.232 C 229.333 144.127,229.415 144.167,231.254 144.167 L 232.648 144.167 232.699 144.958 L 232.750 145.750 234.375 145.798 L 236.000 145.845 236.000 146.599 C 236.000 147.059,236.065 147.313,236.167 147.250 C 236.258 147.193,236.333 147.226,236.333 147.323 C 236.333 147.435,236.889 147.500,237.833 147.500 C 239.077 147.500,239.333 147.544,239.333 147.758 C 239.333 148.350,239.838 149.004,240.297 149.009 C 243.583 149.038,244.624 149.199,244.695 149.690 C 244.822 150.561,245.593 150.745,249.375 150.804 L 252.833 150.857 252.833 151.262 C 252.833 151.983,254.122 151.855,254.213 151.125 L 254.280 150.583 254.307 151.125 C 254.342 151.851,254.989 151.926,255.020 151.208 L 255.039 150.750 255.160 151.250 L 255.280 151.750 255.363 151.167 L 255.447 150.583 255.473 151.125 C 255.496 151.585,255.563 151.667,255.917 151.667 C 256.271 151.667,256.337 151.586,256.355 151.125 L 256.377 150.583 256.500 151.167 C 256.608 151.677,256.626 151.694,256.645 151.302 C 256.657 151.055,256.728 150.815,256.803 150.769 C 256.878 150.722,256.907 150.905,256.868 151.175 C 256.807 151.587,256.853 151.667,257.148 151.667 C 257.410 151.667,257.500 151.563,257.500 151.260 C 257.500 151.036,257.561 150.815,257.637 150.769 C 257.712 150.722,257.741 150.905,257.701 151.175 L 257.629 151.667 262.481 151.667 L 267.333 151.667 267.333 151.268 C 267.333 151.048,267.432 150.831,267.552 150.785 C 267.710 150.724,267.751 150.835,267.700 151.184 C 267.660 151.454,267.706 151.667,267.803 151.667 C 267.899 151.667,268.009 151.460,268.047 151.208 L 268.117 150.750 268.142 151.208 L 268.167 151.667 269.519 151.667 L 270.871 151.667 270.799 151.175 C 270.759 150.905,270.788 150.722,270.863 150.769 C 270.939 150.815,271.000 151.036,271.000 151.260 C 271.000 151.663,271.016 151.667,272.583 151.667 C 274.161 151.667,274.167 151.665,274.167 151.250 L 274.167 150.833 277.327 150.833 C 280.832 150.833,280.833 150.833,280.833 149.687 C 280.833 149.206,280.867 149.183,281.625 149.134 L 282.417 149.083 282.467 148.300 L 282.518 147.518 283.300 147.467 L 284.083 147.417 284.134 146.634 L 284.184 145.851 284.967 145.800 L 285.750 145.750 285.800 144.967 L 285.851 144.184 286.634 144.134 L 287.417 144.083 287.467 143.300 L 287.518 142.518 288.300 142.467 C 288.774 142.437,289.092 142.334,289.104 142.208 C 289.116 142.094,289.134 141.742,289.146 141.426 C 289.166 140.862,289.182 140.851,289.958 140.801 C 290.439 140.770,290.758 140.668,290.771 140.542 C 290.782 140.427,290.801 140.075,290.813 139.759 C 290.833 139.196,290.848 139.184,291.625 139.134 C 292.105 139.103,292.425 139.001,292.438 138.875 C 292.449 138.760,292.468 138.408,292.479 138.092 C 292.500 137.529,292.515 137.517,293.292 137.467 L 294.083 137.417 294.134 136.634 L 294.184 135.851 294.967 135.800 L 295.750 135.750 295.800 134.967 L 295.851 134.184 296.634 134.134 L 297.417 134.083 297.467 133.300 L 297.518 132.518 298.300 132.467 L 299.083 132.417 299.134 131.634 L 299.184 130.851 299.967 130.800 L 300.750 130.750 300.800 129.967 L 300.851 129.184 301.634 129.134 L 302.417 129.083 302.467 128.300 L 302.518 127.518 303.300 127.467 L 304.083 127.417 304.134 126.634 L 304.184 125.851 304.967 125.800 L 305.750 125.750 305.800 124.967 L 305.851 124.184 306.634 124.134 L 307.417 124.083 307.467 123.300 L 307.518 122.518 308.300 122.467 L 309.083 122.417 309.134 121.634 L 309.184 120.851 309.967 120.800 L 310.750 120.750 310.800 119.967 L 310.851 119.184 311.634 119.134 L 312.417 119.083 312.467 118.300 L 312.518 117.518 313.300 117.467 L 314.083 117.417 314.134 116.634 L 314.184 115.851 314.967 115.800 L 315.750 115.750 315.801 114.958 L 315.852 114.167 316.476 114.167 C 317.265 114.167,317.500 113.929,317.500 113.133 C 317.500 112.511,317.511 112.500,318.133 112.500 C 318.932 112.500,319.167 112.265,319.167 111.467 C 319.167 110.844,319.178 110.833,319.800 110.833 C 320.598 110.833,320.833 110.598,320.833 109.800 C 320.833 109.178,320.844 109.167,321.467 109.167 C 322.263 109.167,322.500 108.932,322.500 108.142 L 322.500 107.518 323.292 107.467 L 324.083 107.417 324.134 106.634 L 324.184 105.851 324.967 105.800 L 325.750 105.750 325.800 104.967 L 325.851 104.184 326.634 104.134 L 327.417 104.083 327.467 103.292 L 327.518 102.500 328.217 102.499 C 330.461 102.496,330.732 102.088,330.810 98.591 C 330.873 95.759,330.899 95.674,331.705 95.669 C 332.410 95.665,332.417 95.555,332.417 83.833 C 332.417 71.746,332.447 72.101,331.342 71.448 L 330.856 71.161 330.774 68.372 C 330.729 66.838,330.686 65.410,330.678 65.199 C 330.671 64.988,330.591 64.861,330.501 64.916 C 330.404 64.976,330.382 64.900,330.447 64.732 C 330.535 64.503,330.485 64.465,330.195 64.541 C 329.996 64.593,329.833 64.567,329.833 64.484 C 329.833 64.401,329.683 64.333,329.500 64.333 C 329.194 64.333,329.166 64.219,329.158 62.958 C 329.141 60.179,328.956 59.569,328.081 59.405 L 327.500 59.296 327.500 57.912 C 327.500 56.083,327.460 56.000,326.566 56.000 L 325.833 56.000 325.814 54.708 C 325.804 53.998,325.777 53.342,325.756 53.250 C 325.735 53.158,325.706 52.990,325.692 52.875 C 325.676 52.743,325.392 52.667,324.917 52.667 L 324.167 52.667 324.167 51.264 C 324.167 49.423,324.124 49.333,323.255 49.333 L 322.546 49.333 322.430 48.055 C 322.287 46.477,322.150 46.210,321.415 46.072 C 320.903 45.976,320.831 45.900,320.814 45.440 C 320.776 44.403,320.789 44.419,319.958 44.366 L 319.167 44.315 319.167 43.491 L 319.167 42.667 318.357 42.667 L 317.548 42.667 317.437 41.338 C 317.307 39.780,317.206 39.449,316.895 39.569 C 316.769 39.617,316.667 39.575,316.667 39.475 C 316.667 39.372,316.487 39.329,316.250 39.374 C 315.828 39.455,315.754 39.326,315.824 38.632 C 315.885 38.021,315.518 37.667,314.827 37.667 C 314.186 37.667,314.167 37.650,314.167 37.097 C 314.167 36.147,314.041 36.000,313.232 36.000 C 312.510 36.000,312.500 35.992,312.500 35.430 C 312.500 34.480,312.375 34.333,311.566 34.333 C 310.878 34.333,310.833 34.305,310.831 33.875 C 310.826 32.854,310.683 32.667,309.907 32.667 L 309.187 32.667 309.075 31.922 C 308.947 31.067,308.897 31.041,307.260 31.006 C 305.829 30.974,305.833 30.977,305.833 30.073 L 305.833 29.333 305.000 29.333 L 304.167 29.333 304.167 28.601 C 304.167 27.797,304.018 27.667,303.098 27.667 C 302.584 27.667,302.548 27.626,302.403 26.875 L 302.250 26.083 300.754 26.031 C 298.995 25.971,299.195 26.078,299.132 25.161 L 299.080 24.417 297.457 24.369 L 295.833 24.321 295.813 23.744 C 295.801 23.426,295.782 23.073,295.771 22.958 C 295.756 22.811,295.276 22.736,294.134 22.702 L 292.518 22.655 292.467 21.869 L 292.417 21.083 290.792 21.036 C 289.140 20.987,289.090 20.964,289.157 20.298 C 289.244 19.429,288.981 19.333,286.494 19.333 C 284.060 19.333,284.017 19.320,284.158 18.593 C 284.313 17.794,283.938 17.694,280.703 17.674 C 277.446 17.653,277.293 17.633,277.442 17.245 C 277.493 17.110,277.478 16.869,277.407 16.708 C 277.337 16.548,277.272 16.342,277.264 16.250 C 277.242 15.989,249.795 15.938,249.534 16.199 M274.497 17.441 C 274.499 17.545,274.402 17.669,274.281 17.715 C 274.122 17.776,274.083 17.663,274.136 17.299 C 274.206 16.823,274.491 16.935,274.497 17.441 M240.344 21.019 C 240.201 21.075,239.978 21.081,239.848 21.032 C 239.678 20.968,239.713 20.907,239.973 20.811 C 240.171 20.737,240.341 20.544,240.350 20.380 C 240.361 20.184,240.407 20.224,240.485 20.500 C 240.572 20.802,240.533 20.945,240.344 21.019 M269.339 52.958 C 269.350 53.954,269.616 54.067,272.108 54.140 C 274.151 54.200,274.383 54.237,274.456 54.518 C 274.501 54.689,274.597 54.793,274.670 54.748 C 274.743 54.703,274.769 54.798,274.727 54.958 C 274.607 55.426,275.276 55.700,276.764 55.793 C 278.004 55.870,278.151 55.916,278.314 56.275 C 278.414 56.493,278.684 56.758,278.914 56.863 C 279.145 56.968,279.333 57.154,279.333 57.277 C 279.333 57.434,279.581 57.500,280.167 57.500 C 280.968 57.500,281.000 57.518,281.000 57.967 C 281.000 58.223,281.094 58.534,281.208 58.658 C 281.377 58.840,281.370 58.860,281.167 58.762 C 281.029 58.696,281.062 58.760,281.240 58.904 C 281.477 59.096,281.937 59.167,282.949 59.167 L 284.333 59.167 284.333 60.000 C 284.333 60.458,284.390 60.824,284.458 60.814 C 284.527 60.803,284.902 60.803,285.292 60.814 L 286.000 60.833 286.000 61.667 L 286.000 62.500 286.833 62.500 L 287.667 62.500 287.667 63.333 C 287.667 63.792,287.723 64.158,287.792 64.147 C 287.860 64.136,288.235 64.136,288.625 64.147 L 289.333 64.167 289.333 65.731 C 289.333 67.448,289.364 67.492,290.542 67.498 C 290.977 67.500,291.000 67.540,291.002 68.292 C 291.005 69.249,291.152 69.862,291.350 69.739 C 291.431 69.690,291.450 69.769,291.394 69.916 C 291.269 70.241,291.766 70.654,292.292 70.661 C 292.654 70.666,292.667 70.721,292.667 72.244 C 292.667 73.926,292.879 74.324,293.665 74.119 C 293.829 74.076,294.037 74.088,294.128 74.145 C 294.254 74.225,294.550 82.263,294.498 84.167 C 294.494 84.304,294.448 86.629,294.397 89.333 C 294.345 92.037,294.289 94.264,294.272 94.282 C 294.255 94.300,293.887 94.332,293.454 94.355 L 292.667 94.396 292.667 96.022 L 292.667 97.648 291.875 97.699 L 291.083 97.750 291.036 99.375 L 290.988 101.000 290.161 101.000 L 289.333 101.000 289.333 102.917 C 289.333 104.397,289.283 104.833,289.112 104.833 C 287.843 104.833,287.610 108.215,288.849 108.647 L 289.333 108.816 289.333 110.557 C 289.333 112.472,289.349 112.500,290.421 112.500 C 290.972 112.500,290.983 112.514,291.033 113.292 L 291.083 114.083 291.917 114.182 C 292.375 114.236,290.069 114.293,286.792 114.307 C 280.361 114.335,280.711 114.380,280.821 113.539 C 280.851 113.311,280.378 112.557,280.247 112.625 C 280.203 112.648,279.575 112.667,278.851 112.667 C 277.452 112.667,277.331 112.578,277.265 111.500 C 277.257 111.362,277.156 111.269,277.042 111.292 C 276.927 111.315,276.833 111.258,276.833 111.167 C 276.833 111.069,276.278 111.000,275.500 111.000 L 274.167 111.000 274.147 110.458 C 274.110 109.401,274.124 109.419,273.292 109.366 C 272.510 109.316,272.500 109.308,272.395 108.652 C 272.248 107.732,271.979 107.639,269.659 107.699 C 268.440 107.730,267.637 107.685,267.591 107.583 C 267.550 107.492,267.561 108.504,267.616 109.833 C 267.724 112.450,267.741 112.493,268.699 112.497 L 269.315 112.500 269.366 113.292 L 269.417 114.083 270.250 114.180 C 271.443 114.317,262.104 114.432,257.750 114.333 C 254.297 114.255,254.086 114.232,254.136 113.941 C 254.165 113.771,254.134 113.509,254.067 113.358 C 254.000 113.207,253.939 113.008,253.931 112.917 C 253.923 112.822,253.219 112.730,252.292 112.702 C 250.734 112.657,250.667 112.639,250.667 112.281 C 250.667 111.807,250.225 111.167,249.897 111.167 C 249.760 111.167,249.693 111.241,249.749 111.331 C 249.807 111.426,249.740 111.454,249.592 111.397 C 249.450 111.342,249.333 111.231,249.333 111.149 C 249.333 111.067,249.277 111.009,249.208 111.020 C 249.140 111.031,248.740 111.031,248.320 111.020 L 247.556 111.000 247.403 110.208 C 247.233 109.328,247.355 109.380,245.384 109.351 L 244.185 109.333 244.134 108.542 L 244.083 107.750 243.300 107.700 L 242.518 107.649 242.467 106.866 L 242.417 106.083 241.634 106.033 L 240.851 105.982 240.800 105.200 L 240.750 104.417 239.958 104.366 C 239.181 104.316,239.167 104.305,239.167 103.754 C 239.167 102.818,239.039 102.667,238.246 102.667 L 237.527 102.667 237.446 101.542 C 237.328 99.899,237.260 99.579,237.035 99.625 C 236.924 99.648,236.833 99.592,236.833 99.500 C 236.833 99.408,236.608 99.333,236.333 99.333 C 235.858 99.333,235.833 99.298,235.821 98.625 C 235.814 98.235,235.776 97.767,235.737 97.583 C 235.699 97.400,235.638 97.035,235.603 96.772 C 235.529 96.215,235.263 96.006,234.625 96.003 L 234.167 96.000 234.147 94.708 C 234.136 93.998,234.143 93.308,234.162 93.175 C 234.181 93.043,234.095 92.855,233.971 92.759 C 233.847 92.662,233.617 92.383,233.460 92.138 C 233.304 91.893,233.024 91.644,232.838 91.585 C 232.505 91.479,232.500 91.366,232.501 83.614 L 232.502 75.750 233.179 75.724 C 234.135 75.688,234.142 75.667,234.158 72.458 L 234.167 70.833 234.800 70.833 C 235.723 70.833,235.833 70.635,235.833 68.976 L 235.833 67.518 236.625 67.467 L 237.417 67.417 237.467 66.625 C 237.517 65.857,237.534 65.833,238.051 65.831 C 238.821 65.827,239.045 65.619,239.154 64.806 C 239.243 64.136,239.292 64.077,239.816 64.000 C 240.441 63.908,240.604 63.702,240.742 62.827 C 240.823 62.316,240.896 62.238,241.290 62.244 C 241.541 62.247,241.747 62.162,241.748 62.056 C 241.749 61.949,241.818 61.799,241.902 61.722 C 241.990 61.642,242.003 61.671,241.934 61.792 C 241.868 61.906,241.892 62.000,241.987 62.000 C 242.201 62.000,242.405 61.250,242.256 61.009 C 242.191 60.904,242.310 60.833,242.553 60.833 C 243.704 60.833,243.980 60.666,244.095 59.897 C 244.202 59.186,244.221 59.167,244.819 59.167 C 245.598 59.167,245.833 58.927,245.833 58.133 C 245.833 57.501,245.834 57.500,246.542 57.492 C 248.725 57.466,248.934 57.385,249.081 56.512 L 249.192 55.859 250.387 55.786 C 251.790 55.700,252.243 55.608,252.268 55.401 C 252.278 55.318,252.344 55.006,252.414 54.708 L 252.542 54.167 254.417 54.167 C 257.147 54.167,257.295 54.121,257.428 53.231 L 257.538 52.500 263.436 52.500 L 269.333 52.500 269.339 52.958 M197.667 68.828 C 197.667 69.054,197.587 69.126,197.412 69.059 C 197.216 68.983,197.202 68.908,197.349 68.731 C 197.606 68.421,197.667 68.440,197.667 68.828 M291.063 102.366 C 290.893 102.642,290.356 102.837,290.248 102.663 C 290.190 102.569,290.204 102.502,290.279 102.516 C 290.665 102.583,290.834 102.464,290.836 102.125 C 290.838 101.832,290.872 101.803,290.992 101.992 C 291.076 102.125,291.108 102.294,291.063 102.366 M315.000 121.177 C 315.000 121.274,314.929 121.309,314.842 121.255 C 314.632 121.125,314.333 121.703,314.333 122.239 C 314.333 122.651,314.295 122.667,313.292 122.680 C 311.132 122.708,311.007 122.769,311.003 123.792 C 311.000 124.330,310.995 124.333,310.167 124.333 L 309.333 124.333 309.333 125.167 L 309.333 126.000 308.509 126.000 L 307.684 126.000 307.634 126.875 C 307.585 127.713,307.565 127.748,307.141 127.698 C 306.617 127.637,305.973 128.235,306.012 128.747 C 306.026 128.932,306.029 129.515,306.018 130.042 L 306.000 131.000 305.442 131.000 C 304.350 131.000,304.352 130.988,304.338 136.958 L 304.326 142.325 304.704 142.408 C 304.913 142.453,305.271 142.511,305.500 142.537 C 305.905 142.582,305.919 142.627,306.000 144.167 L 306.083 145.750 306.875 145.801 L 307.667 145.852 307.667 146.676 L 307.667 147.500 308.500 147.500 L 309.333 147.500 309.333 148.333 L 309.333 149.167 310.158 149.167 L 310.982 149.167 311.033 149.958 L 311.083 150.750 311.875 150.801 C 312.590 150.847,312.667 150.891,312.667 151.259 L 312.667 151.667 320.083 151.667 L 327.500 151.667 327.500 151.250 C 327.500 150.837,327.513 150.833,328.967 150.833 C 330.633 150.833,330.833 150.723,330.833 149.809 L 330.833 149.185 331.625 149.134 L 332.417 149.083 332.467 148.292 L 332.518 147.500 333.142 147.500 C 333.949 147.500,334.167 147.263,334.167 146.383 C 334.167 145.679,334.236 145.602,334.833 145.647 C 335.747 145.715,335.816 145.105,335.811 136.917 C 335.807 130.382,335.755 129.289,335.452 129.321 C 335.387 129.328,335.071 129.333,334.750 129.333 L 334.167 129.333 334.167 128.500 L 334.167 127.667 333.333 127.667 L 332.500 127.667 332.500 126.833 C 332.500 126.278,332.430 126.000,332.292 125.999 C 332.177 125.998,331.951 125.766,331.790 125.483 C 331.629 125.200,331.348 124.929,331.165 124.881 C 330.983 124.834,330.833 124.691,330.833 124.564 C 330.833 124.398,330.598 124.333,330.000 124.333 L 329.167 124.333 329.167 123.601 C 329.167 122.706,329.086 122.667,327.236 122.667 L 325.833 122.667 325.831 122.208 C 325.830 121.956,325.784 121.581,325.728 121.375 L 325.628 121.000 320.314 121.000 C 316.685 121.000,315.000 121.056,315.000 121.177 M330.359 125.601 C 330.279 126.043,330.192 126.095,329.956 125.839 C 329.790 125.661,329.796 125.644,329.985 125.752 C 330.165 125.855,330.197 125.801,330.123 125.517 C 330.059 125.275,330.094 125.171,330.221 125.216 C 330.329 125.254,330.391 125.427,330.359 125.601 M330.021 149.292 C 330.225 149.552,330.220 149.560,329.976 149.369 C 329.749 149.192,329.656 149.201,329.434 149.423 C 329.206 149.651,329.167 149.654,329.167 149.442 C 329.167 149.223,329.374 149.053,329.688 149.013 C 329.745 149.006,329.895 149.131,330.021 149.292 " stroke="none" fill="#ec3434" fill-rule="evenodd"></path><path id="path4" d="" stroke="none" fill="#bc7c34" fill-rule="evenodd"></path></g></svg>