<svg id="svg" version="1.1" width="400" height="217.39130434782606" viewBox="0 0 400 217.39130434782606" xmlns="http://www.w3.org/2000/svg" xmlns:xlink="http://www.w3.org/1999/xlink" ><g id="svgg"><path id="path0" d="M182.935 22.271 C 180.858 23.036,180.585 23.172,179.558 23.955 C 179.024 24.363,174.005 27.773,168.404 31.533 C 142.994 48.592,135.844 53.395,130.904 56.721 C 125.326 60.477,123.811 61.746,122.582 63.696 C 116.932 72.656,120.654 82.527,131.196 86.536 C 131.913 86.809,132.989 87.251,133.587 87.518 C 134.185 87.786,135.897 88.498,137.391 89.102 C 138.886 89.705,141.772 90.892,143.804 91.739 C 145.837 92.585,148.625 93.725,150.000 94.271 C 151.375 94.817,152.989 95.486,153.587 95.758 C 154.185 96.029,155.212 96.423,155.870 96.633 C 156.527 96.843,157.421 97.198,157.856 97.421 C 158.290 97.644,158.780 97.826,158.943 97.827 C 159.184 97.827,161.444 98.732,163.804 99.772 C 164.842 100.230,165.685 100.423,165.605 100.186 C 165.493 99.847,163.767 98.913,163.255 98.913 C 162.724 98.913,162.661 98.017,163.163 97.600 C 163.348 97.446,163.693 96.896,163.929 96.377 C 164.690 94.707,165.609 94.978,165.708 96.902 C 165.750 97.709,165.804 93.660,165.827 87.903 L 165.870 77.436 165.155 76.816 C 164.762 76.475,164.063 75.902,163.602 75.543 C 160.461 73.104,158.246 71.245,158.303 71.099 C 158.339 71.005,159.103 70.264,160.000 69.453 C 160.897 68.642,162.071 67.577,162.609 67.087 C 163.148 66.597,164.517 65.364,165.653 64.348 C 166.788 63.332,167.766 62.449,167.826 62.386 C 167.886 62.323,170.918 59.590,174.565 56.312 C 184.002 47.829,185.534 46.434,185.616 46.250 C 185.713 46.031,186.467 46.041,186.558 46.263 C 186.617 46.406,193.996 52.755,214.088 69.948 C 216.417 71.941,215.166 71.739,225.197 71.739 L 234.130 71.739 234.130 79.338 L 234.130 86.937 234.643 87.436 C 234.925 87.710,236.020 88.668,237.077 89.565 C 238.133 90.462,239.443 91.593,239.988 92.078 C 240.533 92.564,241.251 93.168,241.585 93.421 C 242.257 93.930,244.277 95.664,245.967 97.181 C 246.571 97.724,247.553 98.555,248.150 99.029 C 248.746 99.503,249.428 100.084,249.664 100.319 C 249.901 100.554,250.992 101.483,252.089 102.384 C 256.147 105.717,258.169 107.420,258.815 108.050 C 259.180 108.405,259.544 108.696,259.623 108.696 C 259.761 108.696,260.381 109.242,261.859 110.666 C 262.224 111.017,262.634 111.304,262.770 111.304 C 262.907 111.304,263.169 111.519,263.352 111.780 C 263.536 112.042,263.745 112.197,263.817 112.125 C 263.889 112.053,263.588 111.619,263.148 111.160 C 262.709 110.701,262.199 110.103,262.015 109.831 C 261.803 109.517,261.545 109.380,261.306 109.456 C 260.896 109.586,260.322 109.054,260.522 108.730 C 260.591 108.619,260.502 108.407,260.324 108.259 C 260.146 108.111,259.999 108.076,259.997 108.180 C 259.995 108.284,259.873 108.136,259.725 107.850 C 259.577 107.565,259.359 107.330,259.239 107.329 C 258.402 107.318,258.538 106.595,259.578 105.537 C 260.169 104.935,260.652 104.345,260.652 104.226 C 260.652 104.107,261.337 103.331,262.174 102.500 C 263.011 101.669,263.696 100.886,263.696 100.759 C 263.696 100.356,265.757 98.478,266.203 98.475 C 267.669 98.464,267.503 98.270,257.163 87.993 C 247.228 78.119,228.325 59.487,202.721 34.331 C 198.897 30.574,194.919 26.650,193.881 25.611 C 190.417 22.143,186.517 20.953,182.935 22.271 M278.696 110.116 C 278.696 110.291,278.787 110.435,278.898 110.435 C 279.009 110.435,279.143 110.655,279.194 110.924 C 279.265 111.290,279.296 111.242,279.318 110.730 C 279.337 110.302,279.226 110.000,279.022 109.921 C 278.823 109.845,278.696 109.921,278.696 110.116 M234.002 139.563 C 233.867 139.698,229.799 139.800,223.143 139.837 L 212.500 139.896 223.180 139.948 C 232.451 139.993,233.895 139.957,234.130 139.674 C 234.432 139.310,234.337 139.228,234.002 139.563 " stroke="none" fill="#e9556f" fill-rule="evenodd"></path><path id="path1" d="M0.000 108.696 L 0.000 217.391 200.000 217.391 L 400.000 217.391 400.000 108.696 L 400.000 0.000 200.000 0.000 L 0.000 0.000 0.000 108.696 M188.492 22.195 C 190.847 22.968,191.922 23.650,193.881 25.611 C 194.919 26.650,198.897 30.574,202.721 34.331 C 206.545 38.088,212.266 43.714,215.435 46.833 C 233.227 64.347,243.761 74.687,243.910 74.783 C 244.004 74.842,249.728 80.467,256.630 87.283 C 263.532 94.098,269.271 99.731,269.382 99.801 C 270.541 100.531,279.227 109.611,279.710 110.598 C 281.445 114.144,280.312 116.366,274.758 120.309 C 272.918 121.615,270.924 123.042,270.326 123.480 C 269.728 123.918,268.554 124.750,267.717 125.329 C 265.535 126.839,262.365 129.056,260.163 130.612 C 259.117 131.352,257.405 132.561,256.359 133.301 C 255.313 134.040,253.478 135.330,252.283 136.167 C 247.947 139.202,246.280 140.374,242.505 143.043 C 240.391 144.538,237.748 146.397,236.630 147.174 C 235.513 147.951,232.866 149.810,230.749 151.304 C 228.631 152.799,225.957 154.684,224.808 155.493 C 222.850 156.871,222.006 157.464,216.848 161.087 C 215.741 161.864,213.968 163.106,212.907 163.848 C 211.846 164.589,210.147 165.790,209.130 166.516 C 208.114 167.242,206.304 168.517,205.109 169.349 C 203.913 170.181,201.957 171.552,200.761 172.396 C 199.565 173.240,197.853 174.432,196.957 175.046 C 196.060 175.659,195.277 176.223,195.217 176.298 C 195.158 176.374,194.326 176.976,193.370 177.636 C 191.164 179.157,187.542 181.693,185.435 183.192 C 184.538 183.830,182.924 184.967,181.848 185.719 C 175.683 190.026,173.034 191.894,172.065 192.618 C 160.489 201.266,145.276 188.962,151.525 176.004 C 153.151 172.634,154.454 171.574,161.957 167.521 C 164.886 165.938,167.845 164.332,168.533 163.952 C 169.220 163.572,170.321 162.967,170.978 162.609 C 174.132 160.889,174.742 160.554,175.652 160.046 C 176.190 159.746,177.364 159.112,178.261 158.637 C 179.158 158.161,179.989 157.701,180.109 157.614 C 180.228 157.526,181.011 157.085,181.848 156.633 C 182.685 156.182,183.859 155.545,184.457 155.219 C 185.054 154.893,186.106 154.319,186.793 153.943 C 187.481 153.568,188.606 152.954,189.293 152.579 C 189.981 152.204,190.935 151.678,191.413 151.410 C 191.891 151.142,192.845 150.617,193.533 150.244 C 194.220 149.871,195.345 149.260,196.033 148.887 C 196.720 148.513,197.674 147.989,198.152 147.721 C 198.630 147.453,199.584 146.927,200.272 146.552 C 200.959 146.176,202.084 145.562,202.772 145.187 C 203.459 144.812,204.560 144.211,205.217 143.853 C 206.661 143.066,207.873 142.393,208.968 141.773 C 209.417 141.519,210.298 141.040,210.925 140.710 L 212.065 140.109 189.130 140.000 L 166.196 139.891 166.084 120.435 C 166.023 109.734,165.949 100.965,165.921 100.949 C 165.893 100.933,165.307 100.696,164.620 100.422 C 163.932 100.149,162.880 99.705,162.283 99.438 C 161.685 99.170,160.413 98.640,159.457 98.260 C 158.500 97.881,157.326 97.392,156.848 97.174 C 156.370 96.956,155.196 96.467,154.239 96.087 C 153.283 95.707,152.109 95.218,151.630 95.000 C 151.152 94.782,149.978 94.293,149.022 93.913 C 148.065 93.533,146.891 93.045,146.413 92.828 C 145.572 92.446,143.783 91.708,137.609 89.196 C 135.995 88.540,134.185 87.784,133.587 87.517 C 132.989 87.250,131.913 86.809,131.196 86.536 C 120.654 82.527,116.932 72.656,122.582 63.696 C 123.811 61.746,125.326 60.477,130.904 56.721 C 135.844 53.395,142.994 48.592,168.404 31.533 C 174.005 27.773,179.024 24.363,179.558 23.955 C 180.585 23.172,180.858 23.036,182.935 22.271 C 184.679 21.630,186.685 21.602,188.492 22.195 M185.616 46.250 C 185.534 46.434,184.002 47.829,174.565 56.312 C 170.918 59.590,167.886 62.323,167.826 62.386 C 167.766 62.449,166.788 63.332,165.653 64.348 C 164.517 65.364,163.148 66.597,162.609 67.087 C 162.071 67.577,160.897 68.642,160.000 69.453 C 159.103 70.264,158.340 71.002,158.304 71.094 C 158.244 71.248,159.351 72.169,163.992 75.823 C 166.104 77.485,166.087 77.497,166.087 74.358 C 166.087 72.213,166.144 71.764,166.431 71.654 C 166.620 71.581,177.845 71.519,191.376 71.515 C 210.760 71.509,215.905 71.452,215.633 71.243 C 215.443 71.097,214.758 70.524,214.111 69.969 C 213.464 69.415,207.016 63.893,199.783 57.700 C 192.549 51.506,186.598 46.360,186.558 46.263 C 186.467 46.041,185.713 46.031,185.616 46.250 M177.101 80.580 C 177.022 80.659,176.957 82.280,176.957 84.181 C 176.957 88.795,176.210 89.989,174.276 88.468 L 173.711 88.024 172.888 88.783 C 171.009 90.516,175.533 92.367,177.843 90.810 C 179.461 89.720,179.565 89.347,179.565 84.642 L 179.565 80.435 178.406 80.435 C 177.768 80.435,177.181 80.500,177.101 80.580 M180.652 85.733 C 180.652 90.372,180.695 91.057,180.996 91.172 C 181.444 91.344,188.556 91.344,189.004 91.172 C 189.252 91.077,189.348 90.747,189.348 89.983 L 189.348 88.926 186.467 88.865 L 183.587 88.804 183.518 87.957 C 183.425 86.823,183.604 86.746,186.371 86.742 L 188.721 86.739 188.654 85.815 L 188.587 84.891 186.087 84.783 L 183.587 84.674 183.587 83.696 L 183.587 82.717 186.413 82.609 L 189.239 82.500 189.239 81.522 L 189.239 80.543 184.946 80.485 L 180.652 80.426 180.652 85.733 M190.306 80.734 C 190.242 80.903,190.219 81.418,190.257 81.879 L 190.326 82.717 191.902 82.781 L 193.478 82.845 193.478 86.733 C 193.478 91.105,193.544 91.307,194.961 91.301 C 196.301 91.295,196.289 91.334,196.354 86.947 L 196.413 82.935 197.989 82.871 C 198.856 82.836,199.573 82.713,199.582 82.599 C 199.591 82.485,199.606 81.976,199.616 81.467 L 199.632 80.543 195.028 80.485 C 191.221 80.436,190.404 80.479,190.306 80.734 M234.348 107.699 C 234.348 118.769,234.426 127.826,234.522 127.826 C 234.617 127.826,234.789 127.741,234.902 127.638 C 235.107 127.451,236.298 126.785,239.267 125.197 C 240.119 124.741,241.322 124.070,241.940 123.706 C 242.557 123.341,243.095 123.043,243.135 123.043 C 243.175 123.043,244.027 122.592,245.028 122.039 C 247.677 120.577,249.023 119.840,252.826 117.766 C 253.484 117.407,254.437 116.883,254.946 116.600 C 256.747 115.599,260.684 113.436,262.056 112.693 C 262.530 112.437,262.939 112.142,262.966 112.038 C 263.015 111.849,235.016 87.795,234.578 87.649 C 234.417 87.596,234.348 93.651,234.348 107.699 M195.938 94.185 C 195.843 94.334,194.916 96.462,193.878 98.913 C 191.801 103.822,191.706 103.929,190.699 102.501 C 189.832 101.271,189.830 101.064,190.676 100.564 C 192.645 99.401,192.539 96.020,190.494 94.749 C 189.737 94.279,189.401 94.233,186.137 94.166 L 182.601 94.093 182.659 99.383 L 182.717 104.674 184.010 104.674 L 185.302 104.674 185.243 103.412 C 185.125 100.850,186.412 100.734,188.048 103.159 L 189.153 104.796 191.695 104.735 L 194.236 104.674 194.687 103.804 L 195.138 102.935 197.297 102.935 L 199.457 102.935 199.886 103.859 L 200.315 104.783 201.679 104.783 C 202.560 104.783,203.043 104.694,203.043 104.533 C 203.043 104.202,199.185 95.028,198.783 94.402 C 198.420 93.838,196.266 93.674,195.938 94.185 M220.929 94.357 C 217.849 95.920,218.525 99.268,222.138 100.337 C 224.510 101.039,225.000 101.283,225.000 101.760 C 225.000 102.920,223.159 103.124,221.211 102.181 C 219.998 101.594,219.903 101.610,219.204 102.527 L 218.603 103.315 219.235 103.819 C 222.226 106.204,227.826 104.821,227.826 101.696 C 227.826 99.888,226.980 99.156,223.837 98.242 C 221.907 97.682,221.467 97.229,222.169 96.527 C 222.729 95.966,223.372 95.972,224.919 96.551 L 226.159 97.015 226.769 96.279 C 227.604 95.273,227.560 95.128,226.250 94.549 C 224.597 93.817,222.165 93.730,220.929 94.357 M172.224 99.402 L 172.283 104.674 175.761 104.733 C 180.520 104.814,181.727 104.226,181.736 101.823 C 181.739 100.851,181.165 99.906,180.429 99.672 C 179.890 99.501,179.877 99.025,180.400 98.654 C 181.393 97.949,181.606 96.312,180.833 95.329 C 180.028 94.305,179.257 94.130,175.547 94.130 L 172.166 94.130 172.224 99.402 M204.130 99.457 L 204.130 104.783 205.435 104.783 L 206.739 104.783 206.739 99.457 L 206.739 94.130 205.435 94.130 L 204.130 94.130 204.130 99.457 M207.877 99.402 L 207.935 104.674 209.239 104.674 L 210.543 104.674 210.583 102.174 C 210.633 98.968,210.618 99.130,210.860 99.130 C 210.974 99.130,212.062 100.407,213.277 101.967 L 215.487 104.803 216.711 104.738 L 217.935 104.674 217.993 99.402 L 218.051 94.130 216.634 94.130 L 215.217 94.130 215.217 96.866 C 215.217 100.214,215.293 100.216,212.609 96.777 L 210.544 94.130 209.181 94.130 L 207.818 94.130 207.877 99.402 M178.261 96.739 C 179.183 97.661,178.385 98.478,176.565 98.478 C 175.174 98.478,174.783 98.239,174.783 97.391 C 174.783 96.235,177.287 95.766,178.261 96.739 M188.913 96.957 C 190.032 98.075,189.052 99.348,187.071 99.348 C 185.337 99.348,184.732 98.475,185.349 96.866 C 185.562 96.310,188.338 96.381,188.913 96.957 M198.087 99.087 C 198.649 100.595,198.525 100.870,197.283 100.870 C 196.018 100.870,195.895 100.567,196.527 99.009 C 197.133 97.516,197.509 97.535,198.087 99.087 M178.824 100.978 C 179.527 102.051,178.820 102.609,176.757 102.609 C 174.909 102.609,174.783 102.527,174.783 101.323 C 174.783 100.476,174.876 100.435,176.770 100.435 C 178.342 100.435,178.495 100.475,178.824 100.978 M172.266 127.466 C 172.204 127.627,172.183 128.483,172.218 129.368 L 172.283 130.978 184.837 131.034 L 197.391 131.090 197.391 129.132 L 197.391 127.174 184.884 127.174 C 174.615 127.174,172.358 127.226,172.266 127.466 " stroke="none" fill="#fbfbfb" fill-rule="evenodd"></path><path id="path2" d="M191.033 71.901 L 166.304 71.958 166.304 105.726 L 166.304 139.494 199.930 139.632 C 219.441 139.713,233.654 139.690,233.789 139.578 C 233.953 139.442,234.022 129.343,234.021 105.616 L 234.021 71.848 224.891 71.846 C 219.869 71.845,204.633 71.869,191.033 71.901 M179.769 80.310 C 180.209 80.840,179.991 88.605,179.508 89.573 C 178.226 92.145,172.759 92.345,171.803 89.854 C 171.444 88.918,173.656 87.593,174.487 88.246 C 176.121 89.531,176.522 88.743,176.522 84.249 C 176.522 81.640,176.600 80.443,176.783 80.261 C 177.158 79.886,179.449 79.924,179.769 80.310 M189.457 81.522 L 189.457 82.935 186.576 82.995 L 183.696 83.056 183.696 83.702 L 183.696 84.348 186.152 84.348 C 188.977 84.348,189.130 84.427,189.130 85.888 C 189.130 87.133,189.046 87.167,185.924 87.171 L 183.696 87.174 183.696 87.803 C 183.696 88.636,183.914 88.696,186.985 88.696 L 189.586 88.696 189.521 90.054 L 189.457 91.413 185.000 91.413 L 180.543 91.413 180.485 85.982 C 180.453 82.995,180.475 80.425,180.534 80.271 C 180.618 80.053,181.610 80.004,185.049 80.050 L 189.457 80.109 189.457 81.522 M199.656 80.132 C 199.920 80.233,200.000 80.587,200.000 81.654 L 200.000 83.043 198.370 83.043 C 196.400 83.043,196.677 82.405,196.534 87.283 L 196.413 91.413 194.891 91.413 L 193.370 91.413 193.261 87.283 L 193.152 83.152 191.576 83.088 L 190.000 83.024 190.000 81.657 C 190.000 80.905,190.065 80.225,190.145 80.145 C 190.326 79.964,199.186 79.952,199.656 80.132 M225.802 94.047 C 226.422 94.241,227.130 94.586,227.375 94.814 L 227.821 95.230 227.117 96.307 C 226.313 97.537,226.276 97.548,225.027 96.945 C 223.918 96.409,222.324 96.429,222.220 96.980 C 222.147 97.366,222.612 97.588,224.674 98.157 C 228.149 99.115,229.330 101.989,227.105 104.068 C 225.362 105.696,220.840 105.634,218.863 103.956 C 218.458 103.612,218.371 103.709,218.217 104.674 C 218.158 105.046,217.953 105.118,216.804 105.173 L 215.460 105.237 214.131 103.543 C 213.400 102.611,212.539 101.517,212.216 101.112 C 211.894 100.707,211.552 100.242,211.457 100.079 C 211.037 99.364,210.879 99.955,210.822 102.446 L 210.761 105.109 209.353 105.175 C 207.330 105.270,207.391 105.454,207.391 99.314 C 207.391 93.503,207.335 93.692,209.062 93.699 C 210.545 93.704,210.806 93.899,212.721 96.436 C 215.020 99.482,215.000 99.482,215.000 96.436 C 215.000 93.694,215.000 93.693,216.485 93.699 C 218.376 93.706,218.261 93.402,218.261 98.395 C 218.261 103.204,218.262 103.209,219.277 102.011 L 219.967 101.196 220.908 101.673 C 222.372 102.416,223.558 102.662,224.221 102.360 C 225.268 101.883,224.640 101.337,222.398 100.773 C 219.045 99.930,217.838 97.914,219.248 95.509 C 220.350 93.628,222.742 93.094,225.802 94.047 M178.647 93.891 C 181.358 94.277,182.520 96.606,180.939 98.485 L 180.374 99.157 181.036 99.741 C 181.400 100.063,181.802 100.522,181.929 100.761 C 182.101 101.084,182.162 100.293,182.167 97.671 C 182.175 93.304,181.875 93.585,186.356 93.757 C 189.293 93.870,189.665 93.930,190.520 94.432 C 192.726 95.724,193.087 98.680,191.256 100.457 C 190.308 101.376,190.306 101.492,191.209 102.706 C 191.630 103.272,191.753 103.108,192.834 100.543 C 193.338 99.348,193.929 97.970,194.146 97.482 C 194.364 96.995,194.751 96.065,195.007 95.418 C 195.657 93.769,195.749 93.696,197.183 93.696 C 198.515 93.696,199.130 93.838,199.130 94.147 C 199.130 94.250,199.364 94.851,199.649 95.483 C 200.307 96.941,202.240 101.542,202.733 102.826 C 202.940 103.364,203.192 103.897,203.294 104.011 C 204.003 104.804,203.507 105.217,201.846 105.217 L 200.213 105.217 199.724 104.185 L 199.234 103.152 197.336 103.089 L 195.439 103.027 194.945 104.068 L 194.451 105.109 191.876 105.170 C 188.912 105.241,189.053 105.307,187.680 103.203 C 186.311 101.107,185.806 101.175,185.652 103.478 L 185.543 105.109 184.166 105.174 C 182.494 105.253,182.218 105.058,182.125 103.733 C 182.057 102.760,182.044 102.741,181.803 103.290 C 181.148 104.782,179.481 105.258,175.217 105.172 L 172.065 105.109 172.007 99.580 C 171.962 95.303,172.011 94.013,172.224 93.877 C 172.567 93.660,177.094 93.670,178.647 93.891 M206.613 93.828 C 206.914 93.943,206.957 94.656,206.957 99.588 L 206.957 105.217 205.458 105.217 C 204.417 105.217,203.926 105.130,203.849 104.930 C 203.602 104.286,203.676 94.308,203.930 94.002 C 204.189 93.689,205.954 93.575,206.613 93.828 M175.302 96.832 C 174.990 97.645,175.305 98.150,176.169 98.221 C 177.802 98.355,178.951 97.341,177.840 96.747 C 177.198 96.403,175.444 96.462,175.302 96.832 M185.695 97.880 L 185.761 99.022 186.964 99.086 C 188.006 99.141,188.234 99.078,188.669 98.615 C 189.659 97.562,188.801 96.739,186.714 96.739 L 185.629 96.739 185.695 97.880 M196.863 99.020 C 196.359 100.226,196.415 100.435,197.246 100.435 C 198.211 100.435,198.281 100.322,197.896 99.384 C 197.402 98.183,197.237 98.125,196.863 99.020 M175.302 100.962 C 174.940 101.906,175.282 102.280,176.570 102.348 C 178.418 102.444,179.485 101.525,178.275 100.877 C 177.622 100.527,175.445 100.590,175.302 100.962 M197.782 128.693 C 197.818 129.588,197.792 130.542,197.724 130.813 L 197.600 131.304 184.778 131.304 L 171.957 131.304 171.957 129.129 L 171.957 126.953 184.837 127.009 L 197.717 127.065 197.782 128.693 " stroke="none" fill="#040404" fill-rule="evenodd"></path><path id="path3" d="M243.913 74.842 C 243.913 74.875,244.671 75.633,245.598 76.527 L 247.283 78.152 245.658 76.467 C 244.148 74.903,243.913 74.683,243.913 74.842 M250.870 81.848 C 251.519 82.505,252.099 83.043,252.159 83.043 C 252.219 83.043,251.736 82.505,251.087 81.848 C 250.438 81.190,249.857 80.652,249.797 80.652 C 249.738 80.652,250.220 81.190,250.870 81.848 M254.022 85.000 C 254.489 85.478,254.920 85.870,254.980 85.870 C 255.039 85.870,254.706 85.478,254.239 85.000 C 253.772 84.522,253.341 84.130,253.281 84.130 C 253.222 84.130,253.555 84.522,254.022 85.000 M262.603 93.328 C 267.349 98.153,267.565 98.465,266.187 98.475 C 265.744 98.478,263.696 100.368,263.696 100.774 C 263.696 100.893,263.011 101.669,262.174 102.500 C 261.337 103.331,260.652 104.107,260.652 104.226 C 260.652 104.345,260.169 104.935,259.578 105.537 C 258.566 106.567,258.397 107.589,259.274 107.376 C 259.374 107.351,259.577 107.565,259.725 107.850 C 259.873 108.136,259.995 108.284,259.997 108.180 C 259.999 108.076,260.146 108.111,260.324 108.259 C 260.502 108.407,260.591 108.619,260.522 108.730 C 260.322 109.054,260.896 109.586,261.306 109.456 C 261.545 109.380,261.803 109.517,262.015 109.831 C 262.199 110.103,262.709 110.701,263.148 111.160 C 263.588 111.619,263.889 112.053,263.817 112.125 C 263.745 112.197,263.536 112.042,263.352 111.780 C 263.169 111.519,262.907 111.304,262.770 111.304 C 262.634 111.304,262.224 111.017,261.859 110.666 C 260.329 109.192,259.758 108.696,259.594 108.696 C 259.498 108.696,259.169 108.427,258.863 108.098 C 258.220 107.407,255.199 104.962,255.581 105.441 C 255.721 105.617,257.451 107.130,259.426 108.804 C 263.360 112.139,263.285 112.028,262.056 112.693 C 260.679 113.439,256.784 115.579,254.891 116.631 C 254.413 116.896,253.459 117.421,252.772 117.796 C 248.227 120.277,247.517 120.665,245.028 122.039 C 244.027 122.592,243.175 123.043,243.135 123.043 C 243.095 123.043,242.557 123.341,241.940 123.706 C 241.322 124.070,240.119 124.740,239.267 125.195 C 238.415 125.649,237.326 126.242,236.848 126.511 C 236.370 126.780,235.611 127.204,235.163 127.453 L 234.348 127.906 234.348 133.692 C 234.348 137.903,234.277 139.549,234.087 139.739 C 233.891 139.935,231.116 140.000,222.935 140.000 C 216.945 140.000,211.951 140.084,211.837 140.187 C 211.723 140.290,210.897 140.764,210.000 141.239 C 209.103 141.715,207.929 142.351,207.391 142.653 C 206.853 142.954,205.875 143.494,205.217 143.853 C 204.560 144.211,203.459 144.812,202.772 145.187 C 202.084 145.562,200.959 146.176,200.272 146.552 C 199.584 146.927,198.630 147.453,198.152 147.721 C 197.674 147.989,196.720 148.513,196.033 148.887 C 195.345 149.260,194.220 149.871,193.533 150.244 C 192.845 150.617,191.891 151.142,191.413 151.410 C 190.604 151.863,189.815 152.296,186.739 153.974 C 186.082 154.332,185.054 154.893,184.457 155.219 C 183.859 155.545,182.685 156.182,181.848 156.633 C 181.011 157.085,180.228 157.526,180.109 157.614 C 179.989 157.701,179.158 158.161,178.261 158.637 C 177.364 159.112,176.190 159.746,175.652 160.046 C 175.114 160.346,174.111 160.899,173.424 161.274 C 172.736 161.650,171.611 162.264,170.924 162.639 C 170.236 163.014,169.136 163.619,168.478 163.982 C 167.821 164.346,164.886 165.938,161.957 167.521 C 154.454 171.574,153.151 172.634,151.525 176.004 C 145.276 188.962,160.489 201.266,172.065 192.618 C 173.034 191.894,175.683 190.026,181.848 185.719 C 182.924 184.967,184.538 183.830,185.435 183.192 C 187.542 181.693,191.164 179.157,193.370 177.636 C 194.326 176.976,195.158 176.374,195.217 176.298 C 195.277 176.223,196.060 175.659,196.957 175.046 C 197.853 174.432,199.565 173.240,200.761 172.396 C 201.957 171.552,203.913 170.181,205.109 169.349 C 206.304 168.517,208.114 167.242,209.130 166.516 C 210.147 165.790,211.846 164.589,212.907 163.848 C 213.968 163.106,215.741 161.864,216.848 161.087 C 222.006 157.464,222.850 156.871,224.808 155.493 C 225.957 154.684,228.631 152.799,230.749 151.304 C 232.866 149.810,235.513 147.951,236.630 147.174 C 237.748 146.397,240.391 144.538,242.505 143.043 C 246.280 140.374,247.947 139.202,252.283 136.167 C 253.478 135.330,255.313 134.040,256.359 133.301 C 257.405 132.561,259.117 131.352,260.163 130.612 C 262.365 129.056,265.535 126.839,267.717 125.329 C 268.554 124.750,269.728 123.918,270.326 123.480 C 270.924 123.042,272.918 121.615,274.758 120.309 C 279.360 117.042,280.620 115.356,280.380 112.788 C 280.145 110.281,280.928 111.151,263.698 94.239 L 257.940 88.587 262.603 93.328 M252.391 102.671 C 252.391 102.727,253.052 103.344,253.859 104.042 C 254.666 104.740,255.130 105.084,254.891 104.805 C 254.393 104.226,252.391 102.516,252.391 102.671 M279.318 110.730 C 279.296 111.242,279.265 111.290,279.194 110.924 C 279.143 110.655,279.009 110.435,278.898 110.435 C 278.787 110.435,278.696 110.291,278.696 110.116 C 278.696 109.921,278.823 109.845,279.022 109.921 C 279.226 110.000,279.337 110.302,279.318 110.730 " stroke="none" fill="#f5b83f" fill-rule="evenodd"></path><path id="path4" d="M166.366 71.696 C 166.189 71.809,166.081 72.720,166.040 74.465 C 165.988 76.642,165.925 77.054,165.652 76.995 C 165.391 76.939,165.380 76.980,165.598 77.202 C 165.809 77.416,165.860 79.813,165.827 87.924 C 165.804 93.669,165.750 97.709,165.708 96.902 C 165.609 94.978,164.690 94.707,163.929 96.377 C 163.693 96.896,163.348 97.446,163.163 97.600 C 162.661 98.017,162.724 98.913,163.255 98.913 C 163.767 98.913,165.493 99.847,165.605 100.186 C 165.689 100.437,164.896 100.237,163.587 99.679 C 159.954 98.129,159.099 97.800,158.880 97.873 C 158.741 97.920,159.107 98.139,159.694 98.360 C 160.281 98.581,161.348 99.024,162.065 99.344 C 162.783 99.663,163.932 100.149,164.620 100.422 C 165.307 100.696,165.893 100.933,165.921 100.949 C 165.949 100.965,166.023 109.734,166.084 120.435 L 166.196 139.891 189.336 139.947 C 204.617 139.983,212.550 139.928,212.695 139.784 C 212.841 139.637,205.216 139.565,189.609 139.565 L 166.304 139.565 166.304 105.761 L 166.304 71.957 190.924 71.953 C 206.443 71.951,215.664 71.872,215.870 71.739 C 216.081 71.602,207.492 71.528,191.413 71.528 C 177.783 71.528,166.511 71.604,166.366 71.696 M176.783 80.261 C 176.600 80.443,176.522 81.640,176.522 84.249 C 176.522 88.743,176.121 89.531,174.487 88.246 C 173.656 87.593,171.444 88.918,171.803 89.854 C 172.759 92.345,178.226 92.145,179.508 89.573 C 179.991 88.605,180.209 80.840,179.769 80.310 C 179.449 79.924,177.158 79.886,176.783 80.261 M180.534 80.271 C 180.475 80.425,180.453 82.995,180.485 85.982 L 180.543 91.413 185.000 91.413 L 189.457 91.413 189.521 90.054 L 189.586 88.696 186.985 88.696 C 183.914 88.696,183.696 88.636,183.696 87.803 L 183.696 87.174 185.924 87.171 C 189.046 87.167,189.130 87.133,189.130 85.888 C 189.130 84.427,188.977 84.348,186.152 84.348 L 183.696 84.348 183.696 83.702 L 183.696 83.056 186.576 82.995 L 189.457 82.935 189.457 81.522 L 189.457 80.109 185.049 80.050 C 181.610 80.004,180.618 80.053,180.534 80.271 M190.145 80.145 C 190.065 80.225,190.000 80.905,190.000 81.657 L 190.000 83.024 191.576 83.088 L 193.152 83.152 193.261 87.283 L 193.370 91.413 194.891 91.413 L 196.413 91.413 196.534 87.283 C 196.677 82.405,196.400 83.043,198.370 83.043 L 200.000 83.043 200.000 81.654 C 200.000 80.587,199.920 80.233,199.656 80.132 C 199.186 79.952,190.326 79.964,190.145 80.145 M179.565 84.642 C 179.565 89.347,179.461 89.720,177.843 90.810 C 175.533 92.367,171.009 90.516,172.888 88.783 L 173.711 88.024 174.276 88.468 C 176.210 89.989,176.957 88.795,176.957 84.181 C 176.957 80.233,176.878 80.435,178.406 80.435 L 179.565 80.435 179.565 84.642 M189.239 81.522 L 189.239 82.500 186.413 82.609 L 183.587 82.717 183.587 83.696 L 183.587 84.674 186.087 84.783 L 188.587 84.891 188.654 85.815 L 188.721 86.739 186.371 86.742 C 183.604 86.746,183.425 86.823,183.518 87.957 L 183.587 88.804 186.467 88.865 L 189.348 88.926 189.348 89.983 C 189.348 90.747,189.252 91.077,189.004 91.172 C 188.556 91.344,181.444 91.344,180.996 91.172 C 180.695 91.057,180.652 90.372,180.652 85.733 L 180.652 80.426 184.946 80.485 L 189.239 80.543 189.239 81.522 M199.616 81.467 C 199.606 81.976,199.591 82.485,199.582 82.599 C 199.573 82.713,198.856 82.836,197.989 82.871 L 196.413 82.935 196.354 86.947 C 196.289 91.334,196.301 91.295,194.961 91.301 C 193.544 91.307,193.478 91.105,193.478 86.733 L 193.478 82.845 191.902 82.781 L 190.326 82.717 190.257 81.879 C 190.132 80.360,189.927 80.420,195.028 80.485 L 199.632 80.543 199.616 81.467 M233.995 87.273 C 233.915 87.482,233.900 99.278,233.961 113.486 C 234.022 127.819,233.989 139.423,233.885 139.552 C 233.782 139.680,233.843 139.659,234.021 139.506 C 234.337 139.233,234.561 87.315,234.248 87.001 C 234.189 86.942,234.075 87.065,233.995 87.273 M221.895 93.705 C 217.301 94.848,217.638 99.576,222.398 100.773 C 224.640 101.337,225.268 101.883,224.221 102.360 C 223.558 102.662,222.372 102.416,220.908 101.673 L 219.967 101.196 219.277 102.011 C 218.262 103.209,218.261 103.204,218.261 98.395 C 218.261 93.402,218.376 93.706,216.485 93.699 C 215.000 93.693,215.000 93.694,215.000 96.436 C 215.000 99.482,215.020 99.482,212.721 96.436 C 210.806 93.899,210.545 93.704,209.062 93.699 C 207.335 93.692,207.391 93.503,207.391 99.314 C 207.391 105.454,207.330 105.270,209.353 105.175 L 210.761 105.109 210.822 102.446 C 210.879 99.955,211.037 99.364,211.457 100.079 C 211.552 100.242,211.894 100.707,212.216 101.112 C 212.539 101.517,213.400 102.611,214.131 103.543 L 215.460 105.237 216.804 105.173 C 217.953 105.118,218.158 105.046,218.217 104.674 C 218.371 103.709,218.458 103.612,218.863 103.956 C 220.840 105.634,225.362 105.696,227.105 104.068 C 229.330 101.989,228.149 99.115,224.674 98.157 C 222.612 97.588,222.147 97.366,222.220 96.980 C 222.324 96.429,223.918 96.409,225.027 96.945 C 226.276 97.548,226.313 97.537,227.117 96.307 L 227.821 95.230 227.375 94.814 C 226.446 93.949,223.396 93.331,221.895 93.705 M172.224 93.877 C 172.011 94.013,171.962 95.303,172.007 99.580 L 172.065 105.109 175.217 105.172 C 179.481 105.258,181.148 104.782,181.803 103.290 C 182.044 102.741,182.057 102.760,182.125 103.733 C 182.218 105.058,182.494 105.253,184.166 105.174 L 185.543 105.109 185.652 103.478 C 185.806 101.175,186.311 101.107,187.680 103.203 C 189.053 105.307,188.912 105.241,191.876 105.170 L 194.451 105.109 194.945 104.068 L 195.439 103.027 197.336 103.089 L 199.234 103.152 199.724 104.185 L 200.213 105.217 201.846 105.217 C 203.507 105.217,204.003 104.804,203.294 104.011 C 203.192 103.897,202.940 103.364,202.733 102.826 C 202.240 101.542,200.307 96.941,199.649 95.483 C 199.364 94.851,199.130 94.250,199.130 94.147 C 199.130 93.838,198.515 93.696,197.183 93.696 C 195.749 93.696,195.657 93.769,195.007 95.418 C 194.751 96.065,194.364 96.995,194.146 97.482 C 193.929 97.970,193.338 99.348,192.834 100.543 C 191.753 103.108,191.630 103.272,191.209 102.706 C 190.306 101.492,190.308 101.376,191.256 100.457 C 193.087 98.680,192.726 95.724,190.520 94.432 C 189.665 93.930,189.293 93.870,186.356 93.757 C 181.875 93.585,182.175 93.304,182.167 97.671 C 182.162 100.293,182.101 101.084,181.929 100.761 C 181.802 100.522,181.400 100.063,181.036 99.741 L 180.374 99.157 180.939 98.485 C 182.520 96.606,181.358 94.277,178.647 93.891 C 177.094 93.670,172.567 93.660,172.224 93.877 M203.930 94.002 C 203.676 94.308,203.602 104.286,203.849 104.930 C 203.926 105.130,204.417 105.217,205.458 105.217 L 206.957 105.217 206.957 99.588 C 206.957 93.263,207.084 93.696,205.226 93.696 C 204.595 93.696,204.083 93.816,203.930 94.002 M198.783 94.402 C 199.185 95.028,203.043 104.202,203.043 104.533 C 203.043 104.694,202.560 104.783,201.679 104.783 L 200.315 104.783 199.886 103.859 L 199.457 102.935 197.297 102.935 L 195.138 102.935 194.687 103.804 L 194.236 104.674 191.695 104.735 L 189.153 104.796 188.048 103.159 C 186.412 100.734,185.125 100.850,185.243 103.412 L 185.302 104.674 184.010 104.674 L 182.717 104.674 182.659 99.383 L 182.601 94.093 186.137 94.166 C 189.401 94.233,189.737 94.279,190.494 94.749 C 192.539 96.020,192.645 99.401,190.676 100.564 C 189.830 101.064,189.832 101.271,190.699 102.501 C 191.706 103.929,191.801 103.822,193.878 98.913 C 196.192 93.447,195.874 93.913,197.290 93.913 C 198.274 93.913,198.520 93.994,198.783 94.402 M226.250 94.549 C 227.560 95.128,227.604 95.273,226.769 96.279 L 226.159 97.015 224.919 96.551 C 223.372 95.972,222.729 95.966,222.169 96.527 C 221.467 97.229,221.907 97.682,223.837 98.242 C 226.980 99.156,227.826 99.888,227.826 101.696 C 227.826 104.821,222.226 106.204,219.235 103.819 L 218.603 103.315 219.204 102.527 C 219.903 101.610,219.998 101.594,221.211 102.181 C 223.159 103.124,225.000 102.920,225.000 101.760 C 225.000 101.283,224.510 101.039,222.138 100.337 C 219.764 99.635,219.130 99.005,219.130 97.346 C 219.130 94.334,222.645 92.953,226.250 94.549 M179.644 94.430 C 181.472 95.194,181.901 97.589,180.400 98.654 C 179.877 99.025,179.890 99.501,180.429 99.672 C 181.165 99.906,181.739 100.851,181.736 101.823 C 181.727 104.226,180.520 104.814,175.761 104.733 L 172.283 104.674 172.224 99.402 L 172.166 94.130 175.547 94.130 C 177.928 94.130,179.139 94.219,179.644 94.430 M206.739 99.457 L 206.739 104.783 205.435 104.783 L 204.130 104.783 204.130 99.457 L 204.130 94.130 205.435 94.130 L 206.739 94.130 206.739 99.457 M212.609 96.777 C 215.293 100.216,215.217 100.214,215.217 96.866 L 215.217 94.130 216.634 94.130 L 218.051 94.130 217.993 99.402 L 217.935 104.674 216.711 104.738 L 215.487 104.803 213.277 101.967 C 212.062 100.407,210.974 99.130,210.860 99.130 C 210.618 99.130,210.633 98.968,210.583 102.174 L 210.543 104.674 209.239 104.674 L 207.935 104.674 207.877 99.402 L 207.818 94.130 209.181 94.130 L 210.544 94.130 212.609 96.777 M175.043 96.565 C 174.135 97.474,174.934 98.478,176.565 98.478 C 177.803 98.478,178.696 98.023,178.696 97.391 C 178.696 96.484,175.784 95.825,175.043 96.565 M177.840 96.747 C 178.951 97.341,177.802 98.355,176.169 98.221 C 175.305 98.150,174.990 97.645,175.302 96.832 C 175.444 96.462,177.198 96.403,177.840 96.747 M185.349 96.866 C 184.732 98.475,185.337 99.348,187.071 99.348 C 189.052 99.348,190.032 98.075,188.913 96.957 C 188.338 96.381,185.562 96.310,185.349 96.866 M188.337 96.944 C 189.941 97.554,188.894 99.188,186.964 99.086 L 185.761 99.022 185.695 97.880 L 185.629 96.739 186.714 96.739 C 187.310 96.739,188.040 96.831,188.337 96.944 M156.739 97.062 C 156.739 97.172,158.208 97.827,158.450 97.825 C 158.526 97.825,158.267 97.629,157.875 97.390 C 157.188 96.972,156.739 96.842,156.739 97.062 M196.527 99.009 C 195.895 100.567,196.018 100.870,197.283 100.870 C 198.525 100.870,198.649 100.595,198.087 99.087 C 197.509 97.535,197.133 97.516,196.527 99.009 M197.896 99.384 C 198.281 100.322,198.211 100.435,197.246 100.435 C 196.415 100.435,196.359 100.226,196.863 99.020 C 197.237 98.125,197.402 98.183,197.896 99.384 M174.928 100.580 C 174.746 100.761,174.738 101.806,174.915 102.265 C 175.163 102.912,178.377 102.747,178.824 102.065 C 179.525 100.995,178.819 100.435,176.770 100.435 C 175.837 100.435,175.007 100.500,174.928 100.580 M178.275 100.877 C 179.485 101.525,178.418 102.444,176.570 102.348 C 175.282 102.280,174.940 101.906,175.302 100.962 C 175.445 100.590,177.622 100.527,178.275 100.877 M171.957 129.129 L 171.957 131.304 184.778 131.304 L 197.600 131.304 197.724 130.813 C 197.792 130.542,197.818 129.588,197.782 128.693 L 197.717 127.065 184.837 127.009 L 171.957 126.953 171.957 129.129 M197.391 129.132 L 197.391 131.090 184.837 131.034 L 172.283 130.978 172.218 129.368 C 172.183 128.483,172.204 127.627,172.266 127.466 C 172.358 127.226,174.615 127.174,184.884 127.174 L 197.391 127.174 197.391 129.132 " stroke="none" fill="#9a9a9a" fill-rule="evenodd"></path></g></svg>