<svg id="svg" version="1.1" width="400" height="317.5055679287305" viewBox="0 0 400 317.5055679287305" xmlns="http://www.w3.org/2000/svg" xmlns:xlink="http://www.w3.org/1999/xlink" ><g id="svgg"><path id="path0" d="M217.162 3.064 C 209.558 9.196,196.190 20.250,188.241 26.979 C 185.882 28.975,185.575 29.297,185.625 29.721 C 185.656 29.984,187.445 40.416,189.599 52.901 C 192.806 71.483,193.474 75.642,193.284 75.820 C 193.156 75.940,189.523 78.241,185.212 80.933 C 180.900 83.624,173.278 88.392,168.274 91.527 L 159.176 97.227 155.682 78.441 C 153.760 68.110,152.146 59.615,152.095 59.564 C 152.044 59.513,148.971 61.989,145.266 65.067 C 136.763 72.132,129.414 78.143,122.138 83.987 C 117.383 87.806,116.447 88.631,116.497 88.960 C 116.530 89.177,117.955 96.128,119.663 104.407 C 121.371 112.686,122.732 119.554,122.688 119.669 C 122.474 120.227,101.768 131.653,90.601 137.376 C 88.249 138.581,86.298 139.588,86.264 139.614 C 86.231 139.640,87.502 145.088,89.088 151.720 C 90.674 158.352,91.904 163.841,91.821 163.917 C 91.026 164.651,68.227 170.406,57.882 172.486 C 55.887 172.887,54.222 173.247,54.183 173.286 C 54.102 173.366,59.140 190.336,59.340 190.660 C 59.691 191.227,84.986 190.084,94.997 189.049 C 95.908 188.954,96.706 188.934,96.769 189.004 C 96.832 189.074,98.128 194.327,99.647 200.678 C 101.167 207.029,102.441 212.255,102.477 212.291 C 103.155 212.969,141.292 214.566,141.292 213.917 C 141.292 213.781,139.889 206.905,138.175 198.639 C 136.460 190.372,135.058 183.528,135.058 183.430 C 135.057 183.332,137.883 182.743,141.337 182.122 C 149.207 180.705,155.628 179.466,164.683 177.615 C 168.581 176.818,171.815 176.210,171.869 176.264 C 171.923 176.318,173.573 184.968,175.537 195.486 C 177.500 206.004,179.117 214.624,179.130 214.640 C 179.153 214.668,185.309 214.564,207.206 214.164 C 212.835 214.061,217.474 213.944,217.514 213.904 C 217.554 213.864,215.818 203.584,213.655 191.061 C 211.492 178.537,209.780 168.239,209.850 168.176 C 210.236 167.831,245.946 160.943,246.462 161.115 C 246.575 161.152,248.431 172.098,250.875 187.141 C 253.194 201.419,255.124 213.130,255.163 213.164 C 255.202 213.199,258.601 213.320,262.717 213.433 C 273.413 213.729,282.825 214.192,290.492 214.800 C 292.343 214.946,293.897 215.027,293.945 214.978 C 293.994 214.930,291.925 201.257,289.348 184.594 C 286.771 167.932,284.696 154.266,284.736 154.227 C 285.247 153.733,307.907 152.211,317.786 152.007 L 323.322 151.893 318.249 117.684 C 315.459 98.869,313.147 83.440,313.112 83.399 C 312.705 82.915,289.814 88.542,278.405 91.930 C 276.743 92.423,275.334 92.767,275.273 92.694 C 275.212 92.621,274.860 90.637,274.491 88.285 C 274.122 85.933,272.904 78.637,271.784 72.071 C 270.116 62.298,266.635 41.426,265.816 36.297 L 265.623 35.088 260.428 37.744 C 252.325 41.885,242.775 47.082,233.411 52.446 C 231.600 53.484,230.069 54.275,230.008 54.204 C 229.948 54.133,228.878 47.661,227.631 39.822 C 221.083 -1.347,221.304 0.000,221.107 0.000 C 221.027 0.000,219.252 1.379,217.162 3.064 M228.953 55.638 C 228.953 55.762,230.799 67.208,233.055 81.072 C 235.312 94.937,237.176 106.508,237.198 106.785 C 237.238 107.289,237.227 107.295,231.715 109.419 C 225.036 111.993,214.152 116.329,207.840 118.931 C 205.292 119.981,203.095 120.852,202.959 120.866 C 202.739 120.888,194.940 76.800,194.926 75.456 C 194.921 75.010,202.137 70.663,217.817 61.666 C 229.121 55.180,228.953 55.271,228.953 55.638 M280.020 125.033 C 282.443 140.737,284.375 153.635,284.315 153.695 C 284.254 153.756,282.257 154.035,279.875 154.315 C 273.497 155.067,261.331 156.830,253.765 158.100 L 247.129 159.213 247.033 158.671 C 246.750 157.083,238.931 108.769,238.931 108.608 C 238.931 108.036,275.403 95.868,275.580 96.381 C 275.599 96.436,277.597 109.330,280.020 125.033 M162.264 118.055 C 164.147 128.140,165.690 136.527,165.694 136.691 C 165.706 137.157,157.020 140.545,130.286 150.503 C 129.867 150.659,129.497 150.755,129.464 150.716 C 129.152 150.356,123.277 120.708,123.491 120.579 C 123.629 120.496,126.027 119.099,128.820 117.476 C 134.355 114.258,150.612 104.510,155.457 101.504 C 157.122 100.471,158.566 99.646,158.664 99.671 C 158.762 99.697,160.382 107.969,162.264 118.055 M205.422 144.544 C 207.523 156.720,209.246 166.839,209.253 167.031 C 209.265 167.388,207.733 167.732,174.593 174.821 L 172.526 175.263 172.138 173.111 C 171.924 171.926,170.748 164.944,169.524 157.595 C 168.300 150.245,167.010 142.643,166.659 140.702 C 166.307 138.761,166.050 137.142,166.089 137.104 C 166.127 137.066,169.643 135.595,173.903 133.836 C 192.254 126.258,200.736 122.748,201.069 122.594 C 201.265 122.504,201.465 122.424,201.514 122.418 C 201.563 122.412,203.322 132.369,205.422 144.544 M131.494 167.367 C 133.172 175.486,134.507 182.167,134.460 182.214 C 134.016 182.658,112.578 185.827,98.575 187.519 C 98.158 187.569,97.817 187.551,97.817 187.479 C 97.817 187.407,96.621 182.337,95.159 176.213 C 93.697 170.089,92.475 164.927,92.442 164.743 C 92.391 164.451,92.967 164.231,97.016 163.000 C 102.771 161.251,116.945 156.509,123.474 154.148 C 126.169 153.174,128.390 152.429,128.409 152.492 C 128.428 152.554,129.816 159.249,131.494 167.367 " stroke="none" fill="#04acec" fill-rule="evenodd"></path><path id="path1" d="M162.851 242.495 C 162.116 242.566,161.174 242.682,160.757 242.753 L 160.000 242.882 160.000 255.517 L 160.000 268.151 163.207 268.151 L 166.414 268.151 166.414 263.231 L 166.414 258.310 167.617 258.434 C 170.104 258.688,170.476 259.153,171.567 263.373 C 171.965 264.910,172.457 266.614,172.661 267.159 L 173.032 268.151 176.405 268.151 C 178.260 268.151,179.777 268.091,179.777 268.018 C 179.777 267.944,179.622 267.477,179.433 266.980 C 179.244 266.483,178.682 264.574,178.184 262.738 C 177.179 259.035,176.693 257.900,175.649 256.818 L 174.942 256.087 175.825 255.453 C 180.262 252.265,179.369 245.161,174.288 243.217 C 172.115 242.385,167.198 242.075,162.851 242.495 M78.040 255.323 L 78.040 268.151 81.336 268.151 L 84.633 268.151 84.636 263.920 L 84.640 259.688 85.410 258.807 L 86.181 257.927 89.080 263.039 L 91.979 268.151 95.789 268.151 C 97.885 268.151,99.599 268.115,99.599 268.070 C 99.599 268.025,97.671 264.815,95.315 260.938 C 92.959 257.060,90.994 253.789,90.949 253.669 C 90.904 253.550,92.751 251.030,95.055 248.070 C 97.358 245.110,99.243 242.643,99.243 242.588 C 99.243 242.533,97.426 242.509,95.205 242.536 L 91.167 242.584 87.900 247.376 L 84.633 252.169 84.633 247.332 L 84.633 242.494 81.336 242.494 L 78.040 242.494 78.040 255.323 M120.445 255.323 L 120.445 268.151 128.820 268.151 L 137.194 268.151 137.194 265.390 L 137.194 262.628 132.116 262.628 L 127.038 262.628 127.038 260.134 L 127.038 257.639 131.581 257.639 L 136.125 257.639 136.125 254.967 L 136.125 252.294 131.581 252.294 L 127.038 252.294 127.038 250.156 L 127.038 248.018 131.849 248.018 L 136.659 248.018 136.659 245.256 L 136.659 242.494 128.552 242.494 L 120.445 242.494 120.445 255.323 M203.954 255.189 C 201.824 262.171,200.084 267.944,200.086 268.018 C 200.087 268.091,201.603 268.151,203.452 268.151 L 206.816 268.151 207.699 264.989 L 208.581 261.826 211.760 261.826 L 214.939 261.826 215.366 263.252 C 215.601 264.036,216.032 265.459,216.323 266.414 L 216.853 268.151 220.319 268.151 C 222.289 268.151,223.786 268.081,223.786 267.989 C 223.786 267.853,217.048 245.984,216.192 243.341 L 215.918 242.494 211.872 242.494 L 207.826 242.494 203.954 255.189 M245.880 255.323 L 245.880 268.151 254.076 268.151 L 262.272 268.151 262.272 265.390 L 262.272 262.628 257.372 262.628 L 252.472 262.628 252.472 252.561 L 252.472 242.494 249.176 242.494 L 245.880 242.494 245.880 255.323 M290.534 242.806 C 290.483 242.978,288.754 248.652,286.691 255.416 C 284.628 262.181,282.940 267.813,282.940 267.933 C 282.940 268.098,283.766 268.151,286.297 268.151 L 289.655 268.151 290.529 264.945 L 291.403 261.739 294.558 261.738 L 297.713 261.737 298.243 263.474 C 298.534 264.430,298.964 265.853,299.199 266.637 L 299.626 268.062 303.132 268.111 C 305.060 268.137,306.637 268.108,306.637 268.046 C 306.637 267.984,304.873 262.247,302.717 255.299 C 300.561 248.350,298.797 242.627,298.797 242.580 C 298.797 242.286,290.621 242.510,290.534 242.806 M170.641 247.840 C 171.651 248.285,172.114 249.069,172.114 250.334 C 172.114 252.448,170.465 253.541,167.272 253.541 L 166.414 253.541 166.414 250.523 L 166.414 247.505 167.082 247.426 C 168.189 247.296,169.842 247.488,170.641 247.840 M294.699 249.698 C 294.699 249.886,296.133 255.016,296.575 256.406 C 296.677 256.730,296.574 256.748,294.622 256.748 C 293.091 256.748,292.562 256.691,292.563 256.526 C 292.564 256.403,292.927 255.020,293.370 253.452 C 293.812 251.884,294.223 250.302,294.281 249.937 C 294.378 249.329,294.699 249.146,294.699 249.698 M212.743 252.860 C 213.280 254.740,213.745 256.383,213.777 256.513 C 213.822 256.698,213.392 256.748,211.773 256.748 C 210.638 256.748,209.710 256.696,209.710 256.633 C 209.710 256.570,210.065 255.227,210.498 253.649 C 210.930 252.071,211.340 250.479,211.408 250.111 C 211.607 249.039,211.715 249.261,212.743 252.860 M9.532 284.733 C 4.116 285.628,0.678 288.978,0.402 293.630 C 0.133 298.169,2.616 301.147,8.641 303.515 C 12.674 305.099,13.838 305.890,14.272 307.341 C 15.397 311.095,9.659 312.659,3.502 310.276 C 2.605 309.929,1.757 309.630,1.619 309.611 C 1.374 309.578,0.017 314.360,0.005 315.301 C -0.016 316.968,9.630 318.134,13.965 316.989 C 22.766 314.662,24.948 304.755,17.716 299.955 C 16.723 299.296,15.781 298.857,11.803 297.201 C 7.968 295.605,6.815 293.730,8.560 291.930 C 10.175 290.263,15.302 290.268,18.534 291.940 C 19.124 292.245,18.998 292.517,20.053 288.669 C 20.797 285.954,20.847 286.115,19.063 285.511 C 16.518 284.650,12.178 284.295,9.532 284.733 M264.499 284.894 C 258.879 286.118,255.451 290.483,256.204 295.457 C 256.754 299.096,259.257 301.513,264.656 303.620 C 269.092 305.351,270.111 306.208,270.111 308.205 C 270.111 311.593,264.465 312.470,258.497 310.009 C 257.802 309.722,257.214 309.488,257.190 309.488 C 256.951 309.488,255.666 315.606,255.876 315.742 C 258.266 317.286,266.076 317.988,269.755 316.990 C 275.314 315.483,278.386 311.290,277.654 306.208 C 277.087 302.272,274.721 300.048,268.483 297.585 C 265.502 296.408,264.314 295.643,263.855 294.605 C 262.312 291.117,267.948 289.404,273.569 291.653 L 274.833 292.158 275.673 289.197 C 276.135 287.569,276.516 286.217,276.519 286.194 C 276.538 286.071,274.984 285.527,273.497 285.135 C 271.093 284.502,266.823 284.388,264.499 284.894 M290.512 284.799 C 284.620 285.970,281.460 289.583,281.735 294.838 C 281.934 298.642,284.405 301.332,289.564 303.360 C 293.976 305.094,295.203 305.911,295.598 307.378 C 296.625 311.191,290.473 312.679,284.322 310.106 C 283.709 309.849,283.083 309.600,282.931 309.552 C 282.490 309.413,281.082 315.362,281.480 315.679 C 283.420 317.221,291.665 318.010,295.313 317.003 C 300.446 315.585,303.252 312.215,303.252 307.467 C 303.252 303.063,300.930 300.406,294.967 297.986 C 290.247 296.070,289.176 295.277,289.176 293.695 C 289.176 290.648,293.965 289.668,299.108 291.665 L 300.398 292.166 300.593 291.428 C 300.701 291.022,301.065 289.705,301.402 288.500 C 302.114 285.962,302.148 286.104,300.711 285.631 C 297.704 284.641,293.169 284.271,290.512 284.799 M332.383 284.796 C 324.767 286.284,320.152 292.418,320.106 301.114 C 320.050 311.580,325.956 317.742,335.768 317.454 C 344.310 317.203,349.623 312.123,350.659 303.217 C 352.048 291.272,343.472 282.629,332.383 284.796 M86.147 284.909 C 84.579 284.981,82.669 285.129,81.902 285.237 C 81.136 285.346,80.434 285.434,80.343 285.434 C 80.243 285.434,80.178 291.664,80.178 301.292 L 80.178 317.149 83.831 317.149 L 87.483 317.149 87.483 310.798 L 87.483 304.447 89.243 304.544 C 92.754 304.737,93.743 305.735,94.779 310.125 C 95.335 312.479,96.204 315.494,96.582 316.375 L 96.914 317.149 100.662 317.149 C 102.723 317.149,104.410 317.082,104.410 316.999 C 104.410 316.916,104.246 316.375,104.047 315.796 C 103.847 315.217,103.199 312.940,102.606 310.735 C 101.158 305.347,100.167 303.367,98.460 302.448 C 97.639 302.005,97.637 302.010,98.803 301.401 C 104.839 298.247,104.620 289.065,98.441 286.226 C 96.504 285.336,92.281 284.638,89.532 284.755 C 89.238 284.767,87.715 284.836,86.147 284.909 M172.294 284.908 C 170.677 284.980,168.727 285.128,167.960 285.237 C 167.194 285.345,166.532 285.434,166.490 285.434 C 166.449 285.434,166.414 292.570,166.414 301.292 L 166.414 317.149 170.067 317.149 L 173.719 317.149 173.719 311.448 L 173.719 305.746 176.194 305.746 C 184.697 305.746,189.405 301.876,189.397 294.894 C 189.388 288.333,184.051 284.361,175.768 284.752 C 175.474 284.766,173.911 284.836,172.294 284.908 M24.232 288.196 L 24.232 291.314 28.508 291.314 L 32.784 291.314 32.784 304.232 L 32.784 317.149 36.526 317.149 L 40.267 317.149 40.267 304.232 L 40.267 291.314 44.633 291.314 L 48.998 291.314 48.998 288.196 L 48.998 285.078 36.615 285.078 L 24.232 285.078 24.232 288.196 M51.776 300.804 C 49.139 309.451,46.945 316.666,46.900 316.837 C 46.824 317.127,47.089 317.149,50.661 317.149 L 54.504 317.149 54.687 316.481 C 54.787 316.114,55.292 314.270,55.809 312.385 L 56.748 308.956 61.241 308.955 L 65.735 308.953 66.183 310.423 C 66.429 311.232,66.978 313.056,67.403 314.477 L 68.174 317.060 72.127 317.108 C 74.906 317.142,76.080 317.098,76.080 316.961 C 76.080 316.817,67.822 290.008,66.437 285.657 L 66.253 285.078 61.412 285.080 L 56.570 285.082 51.776 300.804 M105.835 288.196 L 105.835 291.314 110.111 291.314 L 114.388 291.314 114.388 304.232 L 114.388 317.149 118.129 317.149 L 121.871 317.149 121.871 304.232 L 121.871 291.314 126.147 291.314 L 130.423 291.314 130.423 288.196 L 130.423 285.078 118.129 285.078 L 105.835 285.078 105.835 288.196 M134.166 295.278 C 134.166 308.158,134.398 309.797,136.677 313.042 C 141.152 319.414,153.842 319.074,157.997 312.471 C 160.125 309.089,160.224 308.370,160.308 295.724 L 160.379 285.078 156.715 285.078 L 153.051 285.078 153.045 294.031 C 153.037 305.973,152.845 307.772,151.371 309.702 C 149.247 312.484,144.543 312.201,142.776 309.185 C 141.595 307.169,141.587 307.083,141.513 295.546 L 141.447 285.078 137.806 285.078 L 134.165 285.078 134.166 295.278 M204.722 285.322 C 204.722 285.459,204.281 292.456,203.742 300.871 C 203.203 309.285,202.762 316.390,202.762 316.659 L 202.762 317.149 206.147 317.149 C 208.009 317.149,209.535 317.129,209.538 317.105 C 209.584 316.769,210.436 298.452,210.531 295.768 L 210.660 292.116 211.236 294.878 C 212.048 298.773,212.593 300.917,214.889 309.265 L 216.910 316.615 219.800 316.615 L 222.690 316.615 222.872 316.036 C 226.908 303.223,229.420 294.912,229.788 293.149 C 229.982 292.216,230.149 294.037,230.174 297.372 C 230.198 300.489,230.722 315.406,230.842 316.392 L 230.935 317.149 234.488 317.149 C 237.208 317.149,238.041 317.097,238.046 316.927 C 238.061 316.311,236.397 285.823,236.330 285.479 L 236.252 285.078 231.480 285.078 L 226.709 285.078 225.067 290.217 C 223.076 296.448,222.806 297.368,221.373 302.806 C 220.753 305.158,220.241 306.908,220.234 306.694 C 220.195 305.374,218.068 297.036,215.880 289.621 L 214.566 285.167 209.644 285.120 C 205.518 285.080,204.722 285.113,204.722 285.322 M243.385 301.114 L 243.385 317.149 247.127 317.149 L 250.869 317.149 250.869 301.114 L 250.869 285.078 247.127 285.078 L 243.385 285.078 243.385 301.114 M308.062 301.114 L 308.062 317.149 311.715 317.149 L 315.367 317.149 315.367 301.114 L 315.367 285.078 311.715 285.078 L 308.062 285.078 308.062 301.114 M355.278 301.114 L 355.278 317.149 358.782 317.149 L 362.285 317.149 362.165 306.949 C 362.099 301.339,362.004 296.067,361.954 295.234 L 361.862 293.719 362.348 294.788 C 363.841 298.072,366.640 303.461,370.194 309.889 L 374.207 317.149 378.017 317.149 L 381.826 317.149 381.826 301.114 L 381.826 285.078 378.441 285.078 L 375.056 285.078 375.061 290.557 C 375.065 295.776,375.273 302.868,375.505 305.746 L 375.612 307.082 374.742 305.116 C 373.152 301.526,371.432 298.239,367.684 291.626 L 363.972 285.078 359.625 285.078 L 355.278 285.078 355.278 301.114 M383.073 285.969 C 383.073 286.491,383.093 286.503,383.964 286.503 L 384.855 286.503 384.855 288.998 L 384.855 291.492 385.390 291.492 L 385.924 291.492 385.924 288.998 L 385.924 286.503 386.904 286.503 C 387.874 286.503,387.884 286.498,387.884 285.969 L 387.884 285.434 385.479 285.434 L 383.073 285.434 383.073 285.969 M389.310 288.453 L 389.310 291.492 389.956 291.492 L 390.603 291.492 390.492 289.488 L 390.382 287.483 391.005 289.087 C 391.989 291.617,391.931 291.522,392.448 291.459 C 392.859 291.409,392.991 291.193,393.620 289.532 C 394.011 288.503,394.362 287.629,394.401 287.590 C 394.440 287.550,394.420 288.412,394.358 289.505 L 394.244 291.492 394.895 291.492 L 395.546 291.492 395.546 288.453 L 395.546 285.414 394.793 285.469 L 394.039 285.523 393.227 287.697 L 392.416 289.871 391.604 287.697 L 390.793 285.523 390.051 285.469 L 389.310 285.414 389.310 288.453 M92.965 290.711 C 95.908 291.521,96.876 295.421,94.680 297.621 C 93.622 298.682,92.459 299.043,89.844 299.123 L 87.483 299.195 87.483 294.902 L 87.483 290.608 87.884 290.517 C 89.183 290.223,91.513 290.312,92.965 290.711 M178.626 290.695 C 180.987 291.299,182.185 292.887,182.051 295.234 C 181.865 298.483,179.961 299.955,175.947 299.955 L 173.808 299.955 173.761 295.290 L 173.714 290.624 174.296 290.552 C 175.691 290.379,177.645 290.444,178.626 290.695 M338.078 291.021 C 341.801 292.725,343.843 298.667,342.662 304.359 C 340.629 314.155,330.033 314.139,328.092 304.337 C 326.352 295.542,331.873 288.180,338.078 291.021 M63.660 300.000 L 64.624 303.252 61.253 303.252 C 58.126 303.252,57.889 303.229,57.976 302.940 C 58.565 300.987,59.828 296.293,60.325 294.209 C 60.670 292.764,61.001 291.421,61.060 291.225 C 61.127 290.999,61.446 291.944,61.931 293.808 C 62.351 295.425,63.129 298.212,63.660 300.000 " stroke="none" fill="#1e382b" fill-rule="evenodd"></path><path id="path2" d="" stroke="none" fill="#14b0bc" fill-rule="evenodd"></path><path id="path3" d="" stroke="none" fill="#14b0bc" fill-rule="evenodd"></path><path id="path4" d="" stroke="none" fill="#14b0bc" fill-rule="evenodd"></path></g></svg>