<?xml version="1.0" encoding="utf-8"?>
<!-- Generator: Adobe Illustrator 19.0.0, SVG Export Plug-In . SVG Version: 6.00 Build 0)  -->
<svg version="1.1" id="Capa_1" xmlns="http://www.w3.org/2000/svg" xmlns:xlink="http://www.w3.org/1999/xlink" x="0px" y="0px"
	 viewBox="-272.6 64.9 328.6 56.8" style="enable-background:new -272.6 64.9 328.6 56.8;" xml:space="preserve">
<style type="text/css">
	.st0{fill:none;}
	.st1{fill:none;stroke:#0B040C;stroke-width:2.2677;}
	.st2{fill:#FFFFFF;}
	.st3{clip-path:url(#XMLID_2_);fill:#FFFFFF;}
	.st4{clip-path:url(#XMLID_2_);fill:url(#XMLID_3_);}
	.st5{clip-path:url(#XMLID_4_);fill:#FFFFFF;}
	.st6{clip-path:url(#XMLID_4_);fill:url(#XMLID_5_);}
	.st7{clip-path:url(#XMLID_6_);fill:#FFFFFF;}
	.st8{clip-path:url(#XMLID_6_);fill:url(#XMLID_7_);}
	.st9{clip-path:url(#XMLID_8_);fill:#FFFFFF;}
	.st10{clip-path:url(#XMLID_8_);fill:url(#XMLID_9_);}
	.st11{clip-path:url(#XMLID_10_);fill:#FFFFFF;}
	.st12{clip-path:url(#XMLID_10_);fill:url(#XMLID_11_);}
	.st13{clip-path:url(#XMLID_10_);fill:url(#XMLID_12_);}
	.st14{clip-path:url(#XMLID_14_);fill:#FFFFFF;}
	.st15{clip-path:url(#XMLID_14_);fill:url(#XMLID_15_);}
	.st16{clip-path:url(#XMLID_16_);fill:#FFFFFF;}
	.st17{clip-path:url(#XMLID_16_);fill:url(#XMLID_17_);}
</style>
<pattern  x="-231" y="529" width="72" height="72" patternUnits="userSpaceOnUse" id="_x31_0_lpi_10_x25__2" viewBox="72.5 -142.4 72 72" style="overflow:visible;">
	<g id="XMLID_13_">
		<polygon id="XMLID_662_" class="st0" points="72.5,-142.4 144.5,-142.4 144.5,-70.4 72.5,-70.4 		"/>
		<g id="XMLID_659_">
			<line id="XMLID_661_" class="st1" x1="139.7" y1="-73.5" x2="212.4" y2="-0.8"/>
			<line id="XMLID_660_" class="st1" x1="144.8" y1="-78.6" x2="217.5" y2="-5.9"/>
		</g>
		<g id="XMLID_652_">
			<line id="XMLID_658_" class="st1" x1="67.7" y1="-73.5" x2="140.4" y2="-0.8"/>
			<line id="XMLID_657_" class="st1" x1="77.9" y1="-83.7" x2="150.6" y2="-11"/>
			<line id="XMLID_656_" class="st1" x1="88.1" y1="-93.9" x2="160.4" y2="-21.2"/>
			<line id="XMLID_655_" class="st1" x1="72.8" y1="-78.6" x2="145.5" y2="-5.9"/>
			<line id="XMLID_654_" class="st1" x1="83" y1="-88.8" x2="155.7" y2="-16.1"/>
			<line id="XMLID_653_" class="st1" x1="92.8" y1="-99" x2="165.2" y2="-26.3"/>
		</g>
		<g id="XMLID_646_">
			<line id="XMLID_651_" class="st1" x1="5.9" y1="-83.7" x2="78.6" y2="-11"/>
			<line id="XMLID_650_" class="st1" x1="16.1" y1="-93.9" x2="88.4" y2="-21.2"/>
			<line id="XMLID_649_" class="st1" x1="0.8" y1="-78.6" x2="73.5" y2="-5.9"/>
			<line id="XMLID_648_" class="st1" x1="11" y1="-88.8" x2="83.7" y2="-16.1"/>
			<line id="XMLID_647_" class="st1" x1="20.8" y1="-99" x2="93.2" y2="-26.3"/>
		</g>
		<g id="XMLID_639_">
			<line id="XMLID_645_" class="st1" x1="118.7" y1="-125.1" x2="191.4" y2="-52.4"/>
			<line id="XMLID_644_" class="st1" x1="128.6" y1="-135.3" x2="201.3" y2="-62.6"/>
			<line id="XMLID_643_" class="st1" x1="139.7" y1="-145.5" x2="212.4" y2="-72.8"/>
			<line id="XMLID_642_" class="st1" x1="123.5" y1="-130.2" x2="196.2" y2="-57.5"/>
			<line id="XMLID_641_" class="st1" x1="134.6" y1="-140.4" x2="207.3" y2="-67.7"/>
			<line id="XMLID_640_" class="st1" x1="144.8" y1="-150.6" x2="217.5" y2="-77.9"/>
		</g>
		<g id="XMLID_628_">
			<line id="XMLID_638_" class="st1" x1="46.7" y1="-125.1" x2="119.4" y2="-52.4"/>
			<line id="XMLID_637_" class="st1" x1="56.6" y1="-135.3" x2="129.3" y2="-62.6"/>
			<line id="XMLID_636_" class="st1" x1="67.7" y1="-145.5" x2="140.4" y2="-72.8"/>
			<line id="XMLID_635_" class="st1" x1="77.9" y1="-155.7" x2="150.6" y2="-83"/>
			<line id="XMLID_634_" class="st1" x1="88.1" y1="-165.9" x2="160.4" y2="-93.2"/>
			<line id="XMLID_633_" class="st1" x1="51.5" y1="-130.2" x2="124.2" y2="-57.5"/>
			<line id="XMLID_632_" class="st1" x1="62.6" y1="-140.4" x2="135.3" y2="-67.7"/>
			<line id="XMLID_631_" class="st1" x1="72.8" y1="-150.6" x2="145.5" y2="-77.9"/>
			<line id="XMLID_630_" class="st1" x1="83" y1="-160.8" x2="155.7" y2="-88.1"/>
			<line id="XMLID_629_" class="st1" x1="92.8" y1="-171" x2="165.2" y2="-98.3"/>
		</g>
		<g id="XMLID_622_">
			<line id="XMLID_627_" class="st1" x1="5.9" y1="-155.7" x2="78.6" y2="-83"/>
			<line id="XMLID_626_" class="st1" x1="16.1" y1="-165.9" x2="88.4" y2="-93.2"/>
			<line id="XMLID_625_" class="st1" x1="0.8" y1="-150.6" x2="73.5" y2="-77.9"/>
			<line id="XMLID_624_" class="st1" x1="11" y1="-160.8" x2="83.7" y2="-88.1"/>
			<line id="XMLID_623_" class="st1" x1="20.8" y1="-171" x2="93.2" y2="-98.3"/>
		</g>
		<g id="XMLID_617_">
			<line id="XMLID_621_" class="st1" x1="118.7" y1="-197.1" x2="191.4" y2="-124.4"/>
			<line id="XMLID_620_" class="st1" x1="128.6" y1="-207.3" x2="201.3" y2="-134.6"/>
			<line id="XMLID_619_" class="st1" x1="123.5" y1="-202.2" x2="196.2" y2="-129.5"/>
			<line id="XMLID_618_" class="st1" x1="134.6" y1="-212.4" x2="207.3" y2="-139.7"/>
		</g>
		<g id="XMLID_612_">
			<line id="XMLID_616_" class="st1" x1="46.7" y1="-197.1" x2="119.4" y2="-124.4"/>
			<line id="XMLID_615_" class="st1" x1="56.6" y1="-207.3" x2="129.3" y2="-134.6"/>
			<line id="XMLID_614_" class="st1" x1="51.5" y1="-202.2" x2="124.2" y2="-129.5"/>
			<line id="XMLID_613_" class="st1" x1="62.6" y1="-212.4" x2="135.3" y2="-139.7"/>
		</g>
	</g>
</pattern>
<path id="XMLID_393_" class="st2" d="M-234.6,70.6c-0.5-1.1-1.2-2.1-2-3c-0.9-0.9-1.8-1.5-3-2c-1.1-0.5-2.4-0.7-3.7-0.7h-3v56.8h3
	c1.3,0,2.5-0.2,3.7-0.7c1.1-0.5,2.1-1.2,3-2c0.9-0.9,1.5-1.8,2-3c0.5-1.1,0.7-2.4,0.7-3.7v-38C-233.9,73-234.1,71.8-234.6,70.6z
	 M-272.6,121.7h12.4V64.9h-12.4V121.7z"/>
<g id="XMLID_480_">
	<defs>
		<path id="XMLID_399_" d="M-246.3,109.6v12.1h-14v-11.3h13.1C-246.5,110.5-246.3,110.2-246.3,109.6z"/>
	</defs>
	<clipPath id="XMLID_2_">
		<use xlink:href="#XMLID_399_"  style="overflow:visible;"/>
	</clipPath>
	<rect id="XMLID_397_" x="-278.8" y="96.7" class="st3" width="61.1" height="50.1"/>
	<pattern  id="XMLID_3_" xlink:href="#_x31_0_lpi_10_x25__2" patternTransform="matrix(0.1197 0 0 0.1197 -6989.4922 -7917.5347)">
	</pattern>
	<rect id="XMLID_398_" x="-270.2" y="91.7" class="st4" width="47.9" height="47.9"/>
</g>
<g id="XMLID_400_">
	<defs>
		<path id="XMLID_403_" d="M-246.3,64.9V77c0-0.6-0.3-0.9-0.9-0.9h-13.1V64.9H-246.3z"/>
	</defs>
	<clipPath id="XMLID_4_">
		<use xlink:href="#XMLID_403_"  style="overflow:visible;"/>
	</clipPath>
	<rect id="XMLID_401_" x="-276.8" y="43.2" class="st5" width="61.1" height="50.1"/>
	<pattern  id="XMLID_5_" xlink:href="#_x31_0_lpi_10_x25__2" patternTransform="matrix(0.1197 0 0 0.1197 -6965.6787 -7916.6592)">
	</pattern>
	<rect id="XMLID_402_" x="-272.3" y="49.5" class="st6" width="47.9" height="47.9"/>
</g>
<path id="XMLID_404_" class="st2" d="M-193.6,64.9v56.8h12.4V64.9H-193.6z M-222.4,121.7h12.4V64.9h-12.4V121.7z"/>
<g id="XMLID_407_">
	<defs>
		<rect id="XMLID_410_" x="-210" y="87.7" width="16.4" height="11.3"/>
	</defs>
	<clipPath id="XMLID_6_">
		<use xlink:href="#XMLID_410_"  style="overflow:visible;"/>
	</clipPath>
	<rect id="XMLID_408_" x="-214" y="59" class="st7" width="26.6" height="65.7"/>
	<pattern  id="XMLID_7_" xlink:href="#_x31_0_lpi_10_x25__2" patternTransform="matrix(0.1197 0 0 0.1197 -7029.8198 -7952.2622)">
	</pattern>
	<rect id="XMLID_409_" x="-224.4" y="74.2" class="st8" width="47.9" height="47.9"/>
</g>
<path id="XMLID_411_" class="st2" d="M-157,121.7h-12.4V64.9h12.4V121.7z"/>
<path id="XMLID_413_" class="st2" d="M-120.1,101.7v7.9c0,0.6-0.3,0.9-0.8,0.9h-11.8c-0.6,0-0.9-0.3-0.9-0.9v-5.7l-12.2,2v6.4
	c0,1.3,0.2,2.5,0.7,3.7c0.5,1.1,1.2,2.1,2,3c0.9,0.9,1.8,1.5,3,2c1.1,0.5,2.4,0.7,3.7,0.7h19.3c1.3,0,2.5-0.2,3.7-0.7
	c1.1-0.5,2.1-1.2,3-2c0.9-0.9,1.5-1.8,2-3c0.5-1.1,0.7-2.4,0.7-3.7v-10.7H-120.1z M-121.1,76.2c0.6,0,0.8,0.3,0.8,0.9v5.3l12.2-2v-6
	c0-1.3-0.2-2.5-0.7-3.7c-0.5-1.1-1.2-2.1-2-3c-0.9-0.9-1.8-1.5-3-2c-1.1-0.5-2.4-0.7-3.7-0.7h-18.8c-1.3,0-2.5,0.2-3.7,0.7
	c-1.1,0.5-2.1,1.2-3,2c-0.9,0.9-1.5,1.8-2,3c-0.5,1.1-0.7,2.4-0.7,3.7v1.9H-121.1z"/>
<g id="XMLID_416_">
	<defs>
		<path id="XMLID_419_" d="M-107.8,99.1v2.6h-12.4c0-0.6-0.4-0.9-1.1-1.1c-0.7-0.2-2.3-0.7-4.8-1.4c-2.5-0.7-6.4-1.8-11.6-3.3
			c-2.6-0.7-4.5-1.7-5.9-3c-1.4-1.3-2-3.2-2-5.8V76.2h13.2c-0.6,0-0.8,0.3-0.8,0.9v7.3c0,0.3,0.1,0.6,0.3,0.7
			c0.2,0.1,0.4,0.3,0.7,0.4c0.4,0.1,1.9,0.5,4.5,1.3c2.6,0.7,6.8,1.9,12.4,3.5c2.4,0.7,4.3,1.7,5.7,3
			C-108.4,94.5-107.8,96.5-107.8,99.1z"/>
	</defs>
	<clipPath id="XMLID_8_">
		<use xlink:href="#XMLID_419_"  style="overflow:visible;"/>
	</clipPath>
	<rect id="XMLID_417_" x="-155.1" y="53.1" class="st9" width="55.5" height="62.6"/>
	<pattern  id="XMLID_9_" xlink:href="#_x31_0_lpi_10_x25__2" patternTransform="matrix(0.1197 0 0 0.1197 -6973.3384 -7920.4072)">
	</pattern>
	<rect id="XMLID_418_" x="-150.7" y="63" class="st10" width="47.9" height="47.9"/>
</g>
<path id="XMLID_420_" class="st2" d="M-13.1,64.9v56.8h11.9V64.9H-13.1z M-44,121.7h11.9V64.9H-44V121.7z"/>
<g id="XMLID_423_">
	<defs>
		<polygon id="XMLID_427_" points="-13.1,98.2 -13.1,121.7 -32.1,88.6 -32.1,64.9 		"/>
	</defs>
	<clipPath id="XMLID_10_">
		<use xlink:href="#XMLID_427_"  style="overflow:visible;"/>
	</clipPath>
	<rect id="XMLID_424_" x="-43.1" y="56.9" class="st11" width="45.8" height="70.4"/>
	<pattern  id="XMLID_11_" xlink:href="#_x31_0_lpi_10_x25__2" patternTransform="matrix(0.1197 0 0 0.1197 -6972.6162 -7944.313)">
	</pattern>
	<rect id="XMLID_425_" x="-46.5" y="64.9" class="st12" width="47.9" height="47.9"/>
	<pattern  id="XMLID_12_" xlink:href="#_x31_0_lpi_10_x25__2" patternTransform="matrix(0.1197 0 0 0.1197 -6938.1504 -7973.9346)">
	</pattern>
	<rect id="XMLID_426_" x="-46.5" y="112.8" class="st13" width="47.9" height="47.9"/>
</g>
<path id="XMLID_428_" class="st2" d="M37.4,64.9H24.9L6.3,121.7h12.6l3.4-11.3L26,99.5l5.1-18.9l5.1,18.9l3.6,10.9l3.6,11.3H56
	L37.4,64.9z"/>
<g id="XMLID_430_">
	<defs>
		<polygon id="XMLID_433_" points="39.9,109.9 22.4,109.9 26.1,98.9 36.3,98.9 		"/>
	</defs>
	<clipPath id="XMLID_14_">
		<use xlink:href="#XMLID_433_"  style="overflow:visible;"/>
	</clipPath>
	<rect id="XMLID_431_" x="9.8" y="80.8" class="st14" width="36.7" height="44.8"/>
	<pattern  id="XMLID_15_" xlink:href="#_x31_0_lpi_10_x25__2" patternTransform="matrix(0.1197 0 0 0.1197 -6982.2036 -7948.811)">
	</pattern>
	<rect id="XMLID_432_" x="4.2" y="77.7" class="st15" width="47.9" height="47.9"/>
</g>
<line id="XMLID_438_" class="st0" x1="-246.3" y1="109.6" x2="-246.3" y2="108.6"/>
<path id="XMLID_440_" class="st2" d="M-68.3,64.9v56.8h12.4V64.9H-68.3z M-97,121.7h12.4V64.9H-97V121.7z"/>
<g id="XMLID_443_">
	<defs>
		<rect id="XMLID_446_" x="-84.7" y="87.7" width="16.4" height="11.3"/>
	</defs>
	<clipPath id="XMLID_16_">
		<use xlink:href="#XMLID_446_"  style="overflow:visible;"/>
	</clipPath>
	<rect id="XMLID_444_" x="-93.4" y="73.6" class="st16" width="36.7" height="44.8"/>
	<pattern  id="XMLID_17_" xlink:href="#_x31_0_lpi_10_x25__2" patternTransform="matrix(0.1197 0 0 0.1197 -7016.4824 -7952.2622)">
	</pattern>
	<rect id="XMLID_445_" x="-99" y="74.2" class="st17" width="47.9" height="47.9"/>
</g>
</svg>
