<?xml version="1.0" encoding="utf-8"?>
<!-- Generator: Adobe Illustrator 19.0.0, SVG Export Plug-In . SVG Version: 6.00 Build 0)  -->
<svg version="1.1" id="Capa_1" xmlns="http://www.w3.org/2000/svg" xmlns:xlink="http://www.w3.org/1999/xlink" x="0px" y="0px"
	 viewBox="-172.9 70.2 205.5 90.2" style="enable-background:new -172.9 70.2 205.5 90.2;" xml:space="preserve">
<style type="text/css">
	.st0{opacity:0.53;fill:#F1664F;}
	.st1{fill:none;stroke:#333335;stroke-width:1.4919;stroke-miterlimit:10;}
	.st2{opacity:0.64;}
	.st3{fill:#FFFFFF;}
</style>
<path id="XMLID_51_" class="st0" d="M-164.2,150l13.7,8c5.5,3.2,12.3,3.2,17.9,0l14-8c5.5-3.2,9.1-9.1,9.1-15.5v-16
	c0-6.4-3.6-12.3-9.1-15.5l-13.9-8c-5.5-3.2-12.4-3.2-18,0l-13.6,8c-5.5,3.2-8.8,9.1-8.8,15.5v16C-172.9,140.9-169.7,146.8-164.2,150
	z M-168.5,119.7c0-5.4,2.9-10.4,7.6-13.1l11.7-6.8c4.7-2.7,10.5-2.7,15.2,0l11.7,6.8c4.7,2.7,7.6,7.7,7.6,13.1v13.6
	c0,5.4-2.9,10.4-7.6,13.1l-11.7,6.8c-4.7,2.7-10.5,2.7-15.2,0l-11.7-6.8c-4.7-2.7-7.6-7.7-7.6-13.1V119.7z"/>
<line id="XMLID_30_" class="st1" x1="-111.8" y1="108.4" x2="-75.1" y2="81.6"/>
<circle id="XMLID_33_" class="st0" cx="-72.3" cy="79.5" r="6.6"/>
<g class="st2">
	<g>
		<path class="st3" d="M-52.2,70.2c0.3,0,0.5,0,0.7,0.1c0.2,0.1,0.4,0.2,0.6,0.4c0.2,0.2,0.3,0.4,0.4,0.6s0.1,0.5,0.1,0.7v3.5
			c0,0.3,0,0.5-0.1,0.7s-0.2,0.4-0.4,0.6c-0.2,0.2-0.4,0.3-0.6,0.4c-0.2,0.1-0.5,0.1-0.7,0.1h-3.6v4.2h-2.5V70.2H-52.2z M-55.9,72.4
			v2.7h2.9c0.1,0,0.2-0.1,0.2-0.2v-2.4c0-0.1-0.1-0.2-0.2-0.2H-55.9z"/>
		<path class="st3" d="M-44.6,77.4h-1.7v4.2h-2.5V70.2h6.3c0.3,0,0.5,0,0.7,0.1c0.2,0.1,0.4,0.2,0.6,0.4c0.2,0.2,0.3,0.4,0.4,0.6
			s0.1,0.5,0.1,0.7v3.4c0,0.4-0.1,0.8-0.4,1.1s-0.6,0.6-1,0.7l2,4.3h-2.7L-44.6,77.4z M-46.3,72.4v2.7h3.1c0.1,0,0.2-0.1,0.2-0.2
			v-2.3c0-0.1-0.1-0.2-0.2-0.2H-46.3z"/>
		<path class="st3" d="M-38.1,70.2h7.1v2.3h-4.6v2.2h4.2v2.3h-4.2v2.4h4.6v2.3h-7.1V70.2z"/>
		<path class="st3" d="M-29.3,77.7v-2h4.3v2H-29.3z"/>
		<path class="st3" d="M-23.2,70.2h7.1v2.3h-4.6v2.2h4.2v2.3h-4.2v2.4h4.6v2.3h-7.1V70.2z"/>
		<path class="st3" d="M-9.1,81.6h-2.5L-15,70.2h2.5l2.2,7.8l2.2-7.8h2.5L-9.1,81.6z"/>
		<path class="st3" d="M-4.3,70.2h7.1v2.3h-4.6v2.2h4.2v2.3h-4.2v2.4h4.6v2.3h-7.1V70.2z"/>
		<path class="st3" d="M13.4,81.6H11l-3.8-6.6v6.6H4.8V70.2h2.4l3.8,6.7v-6.7h2.4V81.6z"/>
		<path class="st3" d="M15.1,70.2h8.4v2.3h-2.9v9.1H18v-9.1h-2.9V70.2z"/>
		<path class="st3" d="M32.6,79.7c0,0.3,0,0.5-0.1,0.7c-0.1,0.2-0.2,0.4-0.4,0.6s-0.4,0.3-0.6,0.4s-0.5,0.1-0.7,0.1h-3.9
			c-0.3,0-0.5,0-0.7-0.1c-0.2-0.1-0.4-0.2-0.6-0.4s-0.3-0.4-0.4-0.6c-0.1-0.2-0.1-0.5-0.1-0.7v-1.3l2.4-0.4v1.1
			c0,0.1,0.1,0.2,0.2,0.2h2.4c0.1,0,0.2-0.1,0.2-0.2v-1.6c0-0.1-0.1-0.2-0.2-0.2c-0.1,0-0.5-0.1-1-0.3c-0.5-0.1-1.3-0.4-2.3-0.7
			c-0.5-0.1-0.9-0.4-1.2-0.6c-0.3-0.3-0.4-0.6-0.4-1.2v-2.6c0-0.3,0-0.5,0.1-0.7s0.2-0.4,0.4-0.6c0.2-0.2,0.4-0.3,0.6-0.4
			c0.2-0.1,0.5-0.1,0.7-0.1h3.8c0.3,0,0.5,0,0.7,0.1c0.2,0.1,0.4,0.2,0.6,0.4c0.2,0.2,0.3,0.4,0.4,0.6c0.1,0.2,0.1,0.5,0.1,0.7v1.2
			L30,73.7v-1.1c0-0.1-0.1-0.2-0.2-0.2h-2.3c-0.1,0-0.2,0.1-0.2,0.2v1.5c0,0.1,0,0.1,0.1,0.1c0,0,0.1,0.1,0.1,0.1
			c0.1,0,0.4,0.1,0.9,0.3c0.5,0.1,1.4,0.4,2.5,0.7c0.5,0.1,0.9,0.3,1.1,0.6s0.4,0.7,0.4,1.2V79.7z"/>
	</g>
</g>
</svg>
