<?xml version="1.0" encoding="utf-8"?>
<!-- Generator: Adobe Illustrator 19.0.0, SVG Export Plug-In . SVG Version: 6.00 Build 0)  -->
<svg version="1.1" id="Layer_1" xmlns="http://www.w3.org/2000/svg" xmlns:xlink="http://www.w3.org/1999/xlink" x="0px" y="0px"
	 viewBox="-351 186.4 256.4 188.6" style="enable-background:new -351 186.4 256.4 188.6;" xml:space="preserve">
<style type="text/css">
	.st0{opacity:0.19;fill:#9E8B8A;enable-background:new    ;}
	.st1{enable-background:new    ;}
	.st2{fill:#FFFFFF;}
	.st3{fill:#C7B299;}
</style>
<path id="XMLID_40_" class="st0" d="M-114.9,375h-215.8c-11.2,0-20.3-9.1-20.3-20.3v-148c0-11.2,9.1-20.3,20.3-20.3h215.8
	c11.2,0,20.3,9.1,20.3,20.3v148C-94.6,365.9-103.7,375-114.9,375z"/>
<g class="st1">
	<path class="st2" d="M-287.1,213.4v-13.8h8.4v2.3h-6v3.4h5.5v2.3h-5.5v5.8H-287.1z"/>
	<path class="st2" d="M-274.2,213.4h-2.5v-13.8h2.5V213.4z"/>
	<path class="st2" d="M-261.1,213.4h-2.4l-5.2-8.9v8.9h-2.4v-13.8h2.4l5.2,8.9v-8.9h2.4V213.4z"/>
	<path class="st2" d="M-258,199.6h6.7c0.3,0,0.6,0.1,0.9,0.2c0.3,0.1,0.5,0.3,0.7,0.5c0.2,0.2,0.4,0.4,0.5,0.7
		c0.1,0.3,0.2,0.6,0.2,0.9v9.2c0,0.3-0.1,0.6-0.2,0.9c-0.1,0.3-0.3,0.5-0.5,0.7c-0.2,0.2-0.4,0.4-0.7,0.5c-0.3,0.1-0.6,0.2-0.9,0.2
		h-6.7V199.6z M-251.5,202.5c0-0.2-0.1-0.3-0.2-0.4c-0.1-0.1-0.2-0.2-0.4-0.2h-3.5v9.2h3.5c0.2,0,0.3-0.1,0.4-0.2
		c0.1-0.1,0.2-0.2,0.2-0.4V202.5z"/>
	<path class="st2" d="M-242.8,199.6h10v2.3h-3.7v11.5h-2.5v-11.5h-3.7V199.6z"/>
	<path class="st2" d="M-223.7,207.5h-4.7v5.9h-2.5v-13.8h2.5v5.6h4.7v-5.6h2.5v13.8h-2.5V207.5z"/>
	<path class="st2" d="M-218.1,199.6h8.3v2.3h-5.9v3.4h5.3v2.3h-5.3v3.5h5.9v2.3h-8.3V199.6z"/>
	<path class="st2" d="M-196.1,208.6l2.5,0.4v2.1c0,0.3-0.1,0.6-0.2,0.9s-0.3,0.5-0.5,0.7c-0.2,0.2-0.4,0.4-0.7,0.5
		c-0.3,0.1-0.6,0.2-0.9,0.2h-4.6c-0.3,0-0.6-0.1-0.9-0.2c-0.3-0.1-0.5-0.3-0.7-0.5c-0.2-0.2-0.4-0.4-0.5-0.7
		c-0.1-0.3-0.2-0.6-0.2-0.9v-9.2c0-0.3,0.1-0.6,0.2-0.9c0.1-0.3,0.3-0.5,0.5-0.7c0.2-0.2,0.4-0.4,0.7-0.5c0.3-0.1,0.6-0.2,0.9-0.2
		h4.6c0.3,0,0.6,0.1,0.9,0.2c0.3,0.1,0.5,0.3,0.7,0.5c0.2,0.2,0.4,0.4,0.5,0.7s0.2,0.6,0.2,0.9v2l-2.5,0.4v-1.8
		c0-0.2-0.1-0.3-0.2-0.4c-0.1-0.1-0.2-0.2-0.4-0.2h-3.1c-0.2,0-0.3,0.1-0.4,0.2c-0.1,0.1-0.2,0.2-0.2,0.4v8.1c0,0.2,0.1,0.3,0.2,0.4
		c0.1,0.1,0.2,0.2,0.4,0.2h3.1c0.2,0,0.3-0.1,0.4-0.2c0.1-0.1,0.2-0.2,0.2-0.4V208.6z"/>
	<path class="st2" d="M-189.4,213.2c-0.3-0.1-0.5-0.3-0.7-0.5c-0.2-0.2-0.4-0.4-0.5-0.7c-0.1-0.3-0.2-0.6-0.2-0.9v-9.2
		c0-0.3,0.1-0.6,0.2-0.9c0.1-0.3,0.3-0.5,0.5-0.7c0.2-0.2,0.4-0.4,0.7-0.5c0.3-0.1,0.6-0.2,0.9-0.2h4.9c0.3,0,0.6,0.1,0.9,0.2
		c0.3,0.1,0.5,0.3,0.7,0.5c0.2,0.2,0.4,0.4,0.5,0.7s0.2,0.6,0.2,0.9v9.2c0,0.3-0.1,0.6-0.2,0.9s-0.3,0.5-0.5,0.7
		c-0.2,0.2-0.4,0.4-0.7,0.5c-0.3,0.1-0.6,0.2-0.9,0.2h-4.9C-188.9,213.4-189.2,213.3-189.4,213.2z M-183.9,202.5
		c0-0.2-0.1-0.3-0.2-0.4s-0.2-0.2-0.4-0.2h-3.3c-0.2,0-0.3,0.1-0.4,0.2c-0.1,0.1-0.2,0.2-0.2,0.4v8.1c0,0.2,0.1,0.3,0.2,0.4
		c0.1,0.1,0.2,0.2,0.4,0.2h3.3c0.2,0,0.3-0.1,0.4-0.2c0.1-0.1,0.2-0.2,0.2-0.4V202.5z"/>
	<path class="st2" d="M-178.4,199.6h6.7c0.3,0,0.6,0.1,0.9,0.2c0.3,0.1,0.5,0.3,0.7,0.5c0.2,0.2,0.4,0.4,0.5,0.7s0.2,0.6,0.2,0.9
		v9.2c0,0.3-0.1,0.6-0.2,0.9s-0.3,0.5-0.5,0.7c-0.2,0.2-0.4,0.4-0.7,0.5c-0.3,0.1-0.6,0.2-0.9,0.2h-6.7V199.6z M-171.9,202.5
		c0-0.2-0.1-0.3-0.2-0.4c-0.1-0.1-0.2-0.2-0.4-0.2h-3.5v9.2h3.5c0.2,0,0.3-0.1,0.4-0.2c0.1-0.1,0.2-0.2,0.2-0.4V202.5z"/>
	<path class="st2" d="M-166.5,199.6h8.3v2.3h-5.9v3.4h5.3v2.3h-5.3v3.5h5.9v2.3h-8.3V199.6z"/>
</g>
<g>
	<path class="st3" d="M-244.9,286.8h44.2v2.8h-44.2V286.8z"/>
	<path class="st3" d="M-218.7,292.3h17.9v2.8h-17.9V292.3z"/>
	<path class="st3" d="M-244.9,292.3h17.9v2.8h-17.9V292.3z"/>
	<path class="st3" d="M-218.7,281.3h17.9v2.8h-17.9V281.3z"/>
	<path class="st3" d="M-244.9,281.3h17.9v2.8h-17.9V281.3z"/>
	<path class="st3" d="M-244.9,275.8h44.2v2.8h-44.2V275.8z"/>
	<path class="st3" d="M-192.4,282.9v-7.1c0-4.6-3.7-8.3-8.3-8.3v2.8c3,0,5.5,2.5,5.5,5.5v7.1c0,2.4,0.8,4.8,2.3,6.7
		c-1.5,1.9-2.3,4.2-2.3,6.7v7.1c0,3-2.5,5.5-5.5,5.5v2.8c4.6,0,8.3-3.7,8.3-8.3v-7.1c0-2.1,0.8-4.2,2.4-5.7l1-1l-1-1
		C-191.6,287.1-192.4,285.1-192.4,282.9z"/>
	<path class="st3" d="M-250.4,303.4v-7.1c0-2.4-0.8-4.8-2.3-6.7c1.5-1.9,2.3-4.2,2.3-6.7v-7.1c0-3,2.5-5.5,5.5-5.5v-2.8
		c-4.6,0-8.3,3.7-8.3,8.3v7.1c0,2.1-0.8,4.2-2.4,5.7l-1,1l1,1c1.5,1.5,2.4,3.5,2.4,5.7v7.1c0,4.6,3.7,8.3,8.3,8.3v-2.8
		C-247.9,308.9-250.4,306.4-250.4,303.4z"/>
	<path class="st3" d="M-222.8,311.7c-3,0-5.5,2.5-5.5,5.5s2.5,5.5,5.5,5.5s5.5-2.5,5.5-5.5S-219.8,311.7-222.8,311.7z M-222.8,319.9
		c-1.5,0-2.8-1.2-2.8-2.8s1.2-2.8,2.8-2.8s2.8,1.2,2.8,2.8S-221.3,319.9-222.8,319.9z"/>
	<path class="st3" d="M-222.8,306.1c-1.8,0-3.7,0.5-5.3,1.3l1.3,2.4c1.2-0.7,2.6-1,3.9-1c4.6,0,8.3,3.7,8.3,8.3c0,1.4-0.3,2.7-1,3.9
		l2.4,1.3c0.9-1.6,1.3-3.4,1.3-5.3C-211.8,311.1-216.7,306.1-222.8,306.1z"/>
	<path class="st3" d="M-222.8,325.5c-4.6,0-8.3-3.7-8.3-8.3c0-1.4,0.3-2.7,1-3.9l-2.4-1.3c-0.9,1.6-1.3,3.4-1.3,5.3
		c0,6.1,5,11,11,11c1.8,0,3.7-0.5,5.3-1.3l-1.3-2.4C-220.1,325.1-221.4,325.5-222.8,325.5z"/>
	<path class="st3" d="M-180,255.1c0-2.3-1.9-4.1-4.1-4.1h-77.3c-2.3,0-4.1,1.9-4.1,4.1v63.5h23.5v2.5l3.5,0.9
		c0.3,1.1,0.8,2.2,1.3,3.2l-1.8,3.1l5.4,5.4l3.1-1.8c1,0.6,2.1,1,3.2,1.3l0.9,3.5h7.7l0.9-3.5c1.1-0.3,2.2-0.8,3.2-1.3l3.1,1.8
		l5.4-5.4l-1.8-3.1c0.6-1,1-2.1,1.3-3.2l3.5-0.9v-2.5h23.5V255.1z M-261.5,253.7h77.3c0.8,0,1.4,0.6,1.4,1.4v6.9h-80.1v-6.9
		C-262.8,254.3-262.2,253.7-261.5,253.7z M-206.2,318.9l-3,0.7l-0.2,0.8c-0.3,1.4-0.9,2.7-1.6,4l-0.4,0.7l1.6,2.6l-2.4,2.4l-2.6-1.6
		l-0.7,0.4c-1.2,0.8-2.6,1.3-4,1.6l-0.8,0.2l-0.7,3h-3.4l-0.7-3l-0.8-0.2c-1.4-0.3-2.7-0.9-4-1.6l-0.7-0.4l-2.6,1.6l-2.4-2.4
		l1.6-2.6l-0.4-0.7c-0.8-1.2-1.3-2.6-1.6-4l-0.2-0.8l-3-0.7v-3.4l3-0.7l0.2-0.8c0.3-1.4,0.9-2.7,1.6-4l0.4-0.7l-1.6-2.6l2.4-2.4
		l2.6,1.6l0.7-0.4c1.2-0.8,2.6-1.3,4-1.6l0.8-0.2l0.7-3h3.4l0.7,3l0.8,0.2c1.4,0.3,2.7,0.9,4,1.6l0.7,0.4l2.6-1.6l2.4,2.4l-1.6,2.6
		l0.4,0.7c0.8,1.2,1.3,2.6,1.6,4l0.2,0.8l3,0.7V318.9z M-203.5,315.8v-2.5l-3.5-0.9c-0.3-1.1-0.8-2.2-1.3-3.2l1.8-3.1l-5.4-5.4
		l-3.1,1.8c-1-0.6-2.1-1-3.2-1.3l-0.9-3.5h-7.7l-0.9,3.5c-1.1,0.3-2.2,0.8-3.2,1.3l-3.1-1.8l-5.4,5.4l1.8,3.1c-0.6,1-1,2.1-1.3,3.2
		l-3.5,0.9v2.5h-20.7v-51.1h80.1v51.1H-203.5z"/>
	<path class="st3" d="M-260.1,256.4h2.8v2.8h-2.8V256.4z"/>
	<path class="st3" d="M-254.6,256.4h2.8v2.8h-2.8V256.4z"/>
	<path class="st3" d="M-249,256.4h2.8v2.8h-2.8V256.4z"/>
</g>
</svg>
