<?xml version="1.0" encoding="utf-8"?>
<!-- Generator: Adobe Illustrator 19.0.0, SVG Export Plug-In . SVG Version: 6.00 Build 0)  -->
<svg version="1.1" id="Layer_1" xmlns="http://www.w3.org/2000/svg" xmlns:xlink="http://www.w3.org/1999/xlink" x="0px" y="0px"
	 viewBox="-351 186.4 256.4 188.6" style="enable-background:new -351 186.4 256.4 188.6;" xml:space="preserve">
<style type="text/css">
	.st0{opacity:0.19;fill:#9E8B8A;enable-background:new    ;}
	.st1{enable-background:new    ;}
	.st2{fill:#FFFFFF;}
	.st3{fill:#C7B299;}
</style>
<path id="XMLID_40_" class="st0" d="M-114.9,375h-215.8c-11.2,0-20.3-9.1-20.3-20.3v-148c0-11.2,9.1-20.3,20.3-20.3h215.8
	c11.2,0,20.3,9.1,20.3,20.3v148C-94.6,365.9-103.7,375-114.9,375z"/>
<g class="st1">
	<path class="st2" d="M-294.6,199.6h2.5v11.5c0,0.3-0.1,0.6-0.2,0.9c-0.1,0.3-0.3,0.5-0.5,0.7c-0.2,0.2-0.4,0.4-0.7,0.5
		c-0.3,0.1-0.6,0.2-0.9,0.2h-4.6c-0.3,0-0.6-0.1-0.9-0.2c-0.3-0.1-0.5-0.3-0.7-0.5c-0.2-0.2-0.4-0.4-0.5-0.7
		c-0.1-0.3-0.2-0.6-0.2-0.9v-11.5h2.5v10.9c0,0.2,0.1,0.3,0.2,0.4c0.1,0.1,0.2,0.2,0.4,0.2h3.1c0.2,0,0.3-0.1,0.4-0.2
		c0.1-0.1,0.2-0.2,0.2-0.4V199.6z"/>
	<path class="st2" d="M-286.7,213.4h-2.5v-13.8h2.5V213.4z"/>
	<path class="st2" d="M-282.5,215.8h-2l6-16.4h2L-282.5,215.8z"/>
	<path class="st2" d="M-267.7,199.6h2.5v11.5c0,0.3-0.1,0.6-0.2,0.9c-0.1,0.3-0.3,0.5-0.5,0.7c-0.2,0.2-0.4,0.4-0.7,0.5
		c-0.3,0.1-0.6,0.2-0.9,0.2h-4.6c-0.3,0-0.6-0.1-0.9-0.2c-0.3-0.1-0.5-0.3-0.7-0.5c-0.2-0.2-0.4-0.4-0.5-0.7
		c-0.1-0.3-0.2-0.6-0.2-0.9v-11.5h2.5v10.9c0,0.2,0.1,0.3,0.2,0.4c0.1,0.1,0.2,0.2,0.4,0.2h3.1c0.2,0,0.3-0.1,0.4-0.2
		c0.1-0.1,0.2-0.2,0.2-0.4V199.6z"/>
	<path class="st2" d="M-257.9,204.2l2.6-4.5h2.6l-3.8,6.8l3.9,7h-2.6l-2.7-4.7l-2.6,4.7h-2.6l3.9-7l-3.8-6.8h2.6L-257.9,204.2z"/>
	<path class="st2" d="M-239.5,208.6l2.5,0.4v2.1c0,0.3-0.1,0.6-0.2,0.9c-0.1,0.3-0.3,0.5-0.5,0.7c-0.2,0.2-0.4,0.4-0.7,0.5
		c-0.3,0.1-0.6,0.2-0.9,0.2h-4.6c-0.3,0-0.6-0.1-0.9-0.2c-0.3-0.1-0.5-0.3-0.7-0.5c-0.2-0.2-0.4-0.4-0.5-0.7
		c-0.1-0.3-0.2-0.6-0.2-0.9v-9.2c0-0.3,0.1-0.6,0.2-0.9c0.1-0.3,0.3-0.5,0.5-0.7c0.2-0.2,0.4-0.4,0.7-0.5c0.3-0.1,0.6-0.2,0.9-0.2
		h4.6c0.3,0,0.6,0.1,0.9,0.2c0.3,0.1,0.5,0.3,0.7,0.5c0.2,0.2,0.4,0.4,0.5,0.7c0.1,0.3,0.2,0.6,0.2,0.9v2l-2.5,0.4v-1.8
		c0-0.2-0.1-0.3-0.2-0.4c-0.1-0.1-0.2-0.2-0.4-0.2h-3.1c-0.2,0-0.3,0.1-0.4,0.2c-0.1,0.1-0.2,0.2-0.2,0.4v8.1c0,0.2,0.1,0.3,0.2,0.4
		c0.1,0.1,0.2,0.2,0.4,0.2h3.1c0.2,0,0.3-0.1,0.4-0.2c0.1-0.1,0.2-0.2,0.2-0.4V208.6z"/>
	<path class="st2" d="M-226.9,207.5h-4.7v5.9h-2.5v-13.8h2.5v5.6h4.7v-5.6h2.5v13.8h-2.5V207.5z"/>
	<path class="st2" d="M-211,213.4h-2.5l-1-3h-4.6l-1,3h-2.5l4.6-13.8h2.3L-211,213.4z M-218.3,208.2h3.2l-1.6-5.2L-218.3,208.2z"/>
	<path class="st2" d="M-209,199.6h2.5v11.5h5.6v2.3h-8.1V199.6z"/>
	<path class="st2" d="M-198.7,199.6h2.5v11.5h5.6v2.3h-8.1V199.6z"/>
	<path class="st2" d="M-188.3,199.6h8.3v2.3h-5.9v3.4h5.3v2.3h-5.3v3.5h5.9v2.3h-8.3V199.6z"/>
	<path class="st2" d="M-167.3,213.4h-2.4l-5.2-8.9v8.9h-2.4v-13.8h2.4l5.2,8.9v-8.9h2.4V213.4z"/>
	<path class="st2" d="M-160,206.1h4.9v5c0,0.3-0.1,0.6-0.2,0.9s-0.3,0.5-0.5,0.7c-0.2,0.2-0.4,0.4-0.7,0.5s-0.6,0.2-0.9,0.2h-4.6
		c-0.3,0-0.6-0.1-0.9-0.2c-0.3-0.1-0.5-0.3-0.7-0.5c-0.2-0.2-0.4-0.4-0.5-0.7c-0.1-0.3-0.2-0.6-0.2-0.9v-9.2c0-0.3,0.1-0.6,0.2-0.9
		c0.1-0.3,0.3-0.5,0.5-0.7c0.2-0.2,0.4-0.4,0.7-0.5c0.3-0.1,0.6-0.2,0.9-0.2h4.6c0.3,0,0.6,0.1,0.9,0.2c0.3,0.1,0.5,0.3,0.7,0.5
		c0.2,0.2,0.4,0.4,0.5,0.7s0.2,0.6,0.2,0.9v1.5l-2.5,0.4v-1.4c0-0.2-0.1-0.3-0.2-0.4c-0.1-0.1-0.2-0.2-0.4-0.2h-3.1
		c-0.2,0-0.3,0.1-0.4,0.2c-0.1,0.1-0.2,0.2-0.2,0.4v8.1c0,0.2,0.1,0.3,0.2,0.4c0.1,0.1,0.2,0.2,0.4,0.2h3.1c0.2,0,0.3-0.1,0.4-0.2
		c0.1-0.1,0.2-0.2,0.2-0.4v-2.3h-2.4V206.1z"/>
	<path class="st2" d="M-152.3,199.6h8.3v2.3h-5.9v3.4h5.3v2.3h-5.3v3.5h5.9v2.3h-8.3V199.6z"/>
</g>
<g>
	<path class="st3" d="M-211.9,309.4c-1,0-1.8,0.8-1.8,1.8s0.8,1.8,1.8,1.8s1.8-0.8,1.8-1.8S-210.9,309.4-211.9,309.4z"/>
	<path class="st3" d="M-185.3,246.4h-75c-5,0-9.1,4.1-9.1,9.1v55.7c0,5,4.1,9.1,9.1,9.1h28.4v8.4h-1.8c-2.4,0-4.7,0.9-6.4,2.7
		c-1.7,1.7-2.7,4-2.7,6.4c0,1,0.8,1.8,1.8,1.8h36.4c1,0,1.8-0.8,1.8-1.8c0-5-4.1-9.1-9.1-9.1h-1.8v-8.4h28.4c5,0,9.1-4.1,9.1-9.1
		v-55.7C-176.2,250.5-180.3,246.4-185.3,246.4z M-260.3,250h75c3,0,5.5,2.4,5.5,5.5v46.6h-8.4v-41.9c0-1-0.8-1.8-1.8-1.8h-14.6
		c-1,0-1.8,0.8-1.8,1.8v41.9h-9.1c0-1.9-0.1-3.7-0.1-5.5c-0.3-7.4-1-12.4-1.4-14.6c3.8-2.8,4.8-7.9,2.5-11.9l-6.3-10.9
		c-0.3-0.6-0.9-0.9-1.6-0.9c-0.7,0-1.3,0.3-1.6,0.9l-6.3,10.9c-2.2,3.8-1.4,8.6,2,11.5c-0.4,2.2-1.2,7.3-1.5,14.9
		c-0.1,1.8-0.1,3.7-0.2,5.5h-9.1v-27.3c0-0.3-0.1-0.6-0.2-0.8c0,0,0,0,0,0l-7.3-14.6c-0.3-0.6-0.9-1-1.6-1s-1.3,0.4-1.6,1l-7.3,14.6
		c0,0,0,0,0,0c-0.1,0.2-0.2,0.5-0.2,0.8v27.3h-8.4v-46.6C-265.8,252.5-263.3,250-260.3,250z M-202.8,302.1v-40h10.9v3.6h-1.8
		c-1,0-1.8,0.8-1.8,1.8s0.8,1.8,1.8,1.8h1.8v5.5h-1.8c-1,0-1.8,0.8-1.8,1.8c0,1,0.8,1.8,1.8,1.8h1.8v5.5h-1.8c-1,0-1.8,0.8-1.8,1.8
		s0.8,1.8,1.8,1.8h1.8v7.3h-1.8c-1,0-1.8,0.8-1.8,1.8s0.8,1.8,1.8,1.8h1.8v3.6H-202.8z M-222.5,283.8c0.7,0,1.3-0.1,2-0.2
		c0.3,2.2,0.8,6,1.1,11.3h-6.8c0.3-5.3,0.8-9.2,1.2-11.4C-224.2,283.7-223.3,283.8-222.5,283.8z M-222.5,280.1
		c-4.2,0-6.8-4.5-4.7-8.2l4.7-8.2l4.7,8.2C-215.7,275.6-218.3,280.1-222.5,280.1z M-226.3,298.5h7.1c0,1.2,0.1,2.4,0.1,3.6h-7.3
		C-226.4,300.9-226.4,299.7-226.3,298.5z M-246.5,302.1v-25.5h3.6v25.5H-246.5z M-253.7,302.1v-25.5h3.6v25.5H-253.7z M-252.6,273
		l4.3-8.7l4.3,8.7H-252.6z M-206.7,336h-32.1c0.3-0.8,0.7-1.5,1.3-2c1-1,2.4-1.6,3.9-1.6h21.8C-209.5,332.3-207.5,333.8-206.7,336z
		 M-217.3,328.7h-10.9v-8.4h10.9V328.7z M-185.3,316.7h-75c-3,0-5.5-2.4-5.5-5.5v-5.5h85.9v5.5
		C-179.8,314.2-182.3,316.7-185.3,316.7z"/>
	<path class="st3" d="M-219.2,309.4h-10.9c-1,0-1.8,0.8-1.8,1.8s0.8,1.8,1.8,1.8h10.9c1,0,1.8-0.8,1.8-1.8S-218.2,309.4-219.2,309.4
		z"/>
</g>
</svg>
