<?xml version="1.0" encoding="utf-8"?>
<!-- Generator: Adobe Illustrator 19.0.0, SVG Export Plug-In . SVG Version: 6.00 Build 0)  -->
<svg version="1.1" id="Layer_1" xmlns="http://www.w3.org/2000/svg" xmlns:xlink="http://www.w3.org/1999/xlink" x="0px" y="0px"
	 viewBox="0 0 438.6 374.3" style="enable-background:new 0 0 438.6 374.3;" xml:space="preserve">
<style type="text/css">
	.st0{fill:#333335;}
</style>
<circle id="XMLID_2533_" class="st0" cx="402.5" cy="80.4" r="7.4"/>
<circle id="XMLID_2534_" class="st0" cx="399.1" cy="103.2" r="7.4"/>
<circle id="XMLID_2535_" class="st0" cx="408.1" cy="131.7" r="7.4"/>
<circle id="XMLID_2536_" class="st0" cx="417.9" cy="106.7" r="7.4"/>
<circle id="XMLID_2537_" class="st0" cx="381.9" cy="68" r="3.3"/>
<circle id="XMLID_2538_" class="st0" cx="397.8" cy="75.2" r="3.3"/>
<circle id="XMLID_2539_" class="st0" cx="396.3" cy="60.9" r="3.3"/>
<circle id="XMLID_2540_" class="st0" cx="389.7" cy="83.7" r="3.3"/>
<circle id="XMLID_2541_" class="st0" cx="389" cy="291.7" r="7.4"/>
<circle id="XMLID_2542_" class="st0" cx="330.8" cy="332.6" r="7.4"/>
<circle id="XMLID_2543_" class="st0" cx="423.8" cy="301.2" r="7.4"/>
<circle id="XMLID_2544_" class="st0" cx="348.6" cy="325.7" r="7.4"/>
<circle id="XMLID_2545_" class="st0" cx="387.2" cy="324.4" r="3.3"/>
<circle id="XMLID_2546_" class="st0" cx="378.4" cy="313" r="3.3"/>
<circle id="XMLID_2547_" class="st0" cx="386.6" cy="316" r="3.3"/>
<circle id="XMLID_2548_" class="st0" cx="383.5" cy="315.4" r="7.4"/>
<circle id="XMLID_2549_" class="st0" cx="378.1" cy="354.2" r="7.4"/>
<circle id="XMLID_2550_" class="st0" cx="334.1" cy="346.7" r="7.4"/>
<circle id="XMLID_2551_" class="st0" cx="396.9" cy="337.7" r="7.4"/>
<circle id="XMLID_2552_" class="st0" cx="356.8" cy="356.2" r="3.3"/>
<circle id="XMLID_2553_" class="st0" cx="363.3" cy="327.9" r="3.3"/>
<circle id="XMLID_2554_" class="st0" cx="360.7" cy="348.7" r="3.3"/>
<circle id="XMLID_2556_" class="st0" cx="31.5" cy="211.4" r="7.4"/>
<circle id="XMLID_2557_" class="st0" cx="26.1" cy="250.2" r="7.4"/>
<circle id="XMLID_2558_" class="st0" cx="56.1" cy="237.7" r="7.4"/>
<circle id="XMLID_2559_" class="st0" cx="44.9" cy="253.7" r="7.4"/>
<circle id="XMLID_2560_" class="st0" cx="12.8" cy="238.2" r="3.3"/>
<circle id="XMLID_2561_" class="st0" cx="11.3" cy="223.9" r="3.3"/>
<circle id="XMLID_2562_" class="st0" cx="16.7" cy="230.7" r="3.3"/>
<circle id="XMLID_2563_" class="st0" cx="74.5" cy="7.4" r="7.4"/>
<circle id="XMLID_2564_" class="st0" cx="69.1" cy="46.2" r="7.4"/>
<circle id="XMLID_2565_" class="st0" cx="99.1" cy="33.7" r="7.4"/>
<circle id="XMLID_2566_" class="st0" cx="87.9" cy="49.7" r="7.4"/>
<circle id="XMLID_2567_" class="st0" cx="55.8" cy="34.2" r="3.3"/>
<circle id="XMLID_2568_" class="st0" cx="54.3" cy="19.9" r="3.3"/>
<circle id="XMLID_2569_" class="st0" cx="59.7" cy="26.7" r="3.3"/>
<circle id="XMLID_2570_" class="st0" cx="116.5" cy="320.4" r="7.4"/>
<circle id="XMLID_2571_" class="st0" cx="113.1" cy="345.2" r="7.4"/>
<circle id="XMLID_2572_" class="st0" cx="141.1" cy="346.7" r="7.4"/>
<circle id="XMLID_2573_" class="st0" cx="129.9" cy="362.7" r="7.4"/>
<circle id="XMLID_2574_" class="st0" cx="274.8" cy="366.2" r="3.3"/>
<circle id="XMLID_2575_" class="st0" cx="273.3" cy="351.9" r="3.3"/>
<circle id="XMLID_2576_" class="st0" cx="278.7" cy="358.7" r="3.3"/>
<circle id="XMLID_2577_" class="st0" cx="398.8" cy="201.2" r="3.3"/>
<circle id="XMLID_2579_" class="st0" cx="402.7" cy="193.7" r="3.3"/>
<circle id="XMLID_2580_" class="st0" cx="319.8" cy="361.2" r="3.3"/>
<circle id="XMLID_2581_" class="st0" cx="318.3" cy="346.9" r="3.3"/>
<circle id="XMLID_2582_" class="st0" cx="323.7" cy="353.7" r="3.3"/>
<circle id="XMLID_2583_" class="st0" cx="367.8" cy="63.2" r="3.3"/>
<circle id="XMLID_2584_" class="st0" cx="385.3" cy="64.9" r="3.3"/>
<circle id="XMLID_2585_" class="st0" cx="371.7" cy="55.7" r="3.3"/>
<circle id="XMLID_2586_" class="st0" cx="406.8" cy="115.2" r="3.3"/>
<circle id="XMLID_2587_" class="st0" cx="393.3" cy="116.9" r="3.3"/>
<circle id="XMLID_2588_" class="st0" cx="398.7" cy="123.7" r="3.3"/>
<circle id="XMLID_2589_" class="st0" cx="118.8" cy="27.2" r="3.3"/>
<circle id="XMLID_2590_" class="st0" cx="117.3" cy="12.9" r="3.3"/>
<circle id="XMLID_2591_" class="st0" cx="122.7" cy="19.7" r="3.3"/>
<circle id="XMLID_2592_" class="st0" cx="426.9" cy="96" r="3.3"/>
<circle id="XMLID_2593_" class="st0" cx="417.8" cy="85.2" r="3.3"/>
<circle id="XMLID_2594_" class="st0" cx="435.3" cy="86.9" r="3.3"/>
<circle id="XMLID_2595_" class="st0" cx="421.7" cy="77.7" r="3.3"/>
<circle id="XMLID_2596_" class="st0" cx="408.8" cy="331.2" r="3.3"/>
<circle id="XMLID_2597_" class="st0" cx="407.3" cy="316.9" r="3.3"/>
<circle id="XMLID_2598_" class="st0" cx="412.7" cy="323.7" r="3.3"/>
<circle id="XMLID_2599_" class="st0" cx="347.8" cy="356.2" r="3.3"/>
<circle id="XMLID_2600_" class="st0" cx="359.3" cy="325.9" r="3.3"/>
<circle id="XMLID_2601_" class="st0" cx="356.7" cy="346.7" r="3.3"/>
<circle id="XMLID_2602_" class="st0" cx="355.8" cy="371" r="3.3"/>
<circle id="XMLID_2603_" class="st0" cx="366.3" cy="361.1" r="3.3"/>
<circle id="XMLID_2604_" class="st0" cx="364.2" cy="369.5" r="3.3"/>
<circle id="XMLID_2605_" class="st0" cx="38.9" cy="59.7" r="7.4"/>
<circle id="XMLID_2606_" class="st0" cx="7.4" cy="83" r="7.4"/>
<circle id="XMLID_2607_" class="st0" cx="37.3" cy="95.7" r="7.4"/>
<circle id="XMLID_2608_" class="st0" cx="18" cy="98.8" r="7.4"/>
<circle id="XMLID_2610_" class="st0" cx="15.8" cy="54" r="3.3"/>
<circle id="XMLID_2611_" class="st0" cx="14.7" cy="62.6" r="3.3"/>
</svg>
