<?xml version="1.0" encoding="utf-8"?>
<!-- Generator: Adobe Illustrator 19.0.0, SVG Export Plug-In . SVG Version: 6.00 Build 0)  -->
<svg version="1.1" id="Layer_1" xmlns="http://www.w3.org/2000/svg" xmlns:xlink="http://www.w3.org/1999/xlink" x="0px" y="0px"
	 viewBox="0 0 272 39" style="enable-background:new 0 0 272 39;" xml:space="preserve">
<style type="text/css">
	.st0{fill:none;}
	.st1{fill:none;stroke:#0B040C;stroke-width:2.2677;}
	.st2{fill:#F1664F;}
	.st3{fill:url(#XMLID_87_);stroke:url(#XMLID_88_);stroke-width:2;stroke-miterlimit:10;}
</style>
<pattern  x="-404" y="-941" width="72" height="72" patternUnits="userSpaceOnUse" id="XMLID_155_" viewBox="72.5 -142.8 72 72" style="overflow:visible;">
	<g id="XMLID_29_">
		<polygon id="XMLID_30_" class="st0" points="72.5,-70.8 144.5,-70.8 144.5,-142.8 72.5,-142.8 		"/>
		<g id="XMLID_1741_">
			<polygon id="XMLID_1792_" class="st0" points="72.5,-70.8 144.5,-70.8 144.5,-142.8 72.5,-142.8 			"/>
			<g id="XMLID_1789_">
				<line id="XMLID_1791_" class="st1" x1="139.7" y1="-139.7" x2="212.4" y2="-212.4"/>
				<line id="XMLID_1790_" class="st1" x1="144.8" y1="-134.6" x2="217.5" y2="-207.3"/>
			</g>
			<g id="XMLID_1782_">
				<line id="XMLID_1788_" class="st1" x1="67.7" y1="-139.7" x2="140.4" y2="-212.4"/>
				<line id="XMLID_1787_" class="st1" x1="77.9" y1="-129.5" x2="150.6" y2="-202.2"/>
				<line id="XMLID_1786_" class="st1" x1="88.1" y1="-119.3" x2="160.4" y2="-192"/>
				<line id="XMLID_1785_" class="st1" x1="72.8" y1="-134.6" x2="145.5" y2="-207.3"/>
				<line id="XMLID_1784_" class="st1" x1="83" y1="-124.4" x2="155.7" y2="-197.1"/>
				<line id="XMLID_1783_" class="st1" x1="92.8" y1="-114.2" x2="165.2" y2="-186.9"/>
			</g>
			<g id="XMLID_1776_">
				<line id="XMLID_1781_" class="st1" x1="5.9" y1="-129.5" x2="78.6" y2="-202.2"/>
				<line id="XMLID_1780_" class="st1" x1="16.1" y1="-119.3" x2="88.4" y2="-192"/>
				<line id="XMLID_1779_" class="st1" x1="0.8" y1="-134.6" x2="73.5" y2="-207.3"/>
				<line id="XMLID_1778_" class="st1" x1="11" y1="-124.4" x2="83.7" y2="-197.1"/>
				<line id="XMLID_1777_" class="st1" x1="20.8" y1="-114.2" x2="93.2" y2="-186.9"/>
			</g>
			<g id="XMLID_1769_">
				<line id="XMLID_1775_" class="st1" x1="118.7" y1="-88.1" x2="191.4" y2="-160.8"/>
				<line id="XMLID_1774_" class="st1" x1="128.6" y1="-77.9" x2="201.3" y2="-150.6"/>
				<line id="XMLID_1773_" class="st1" x1="139.7" y1="-67.7" x2="212.4" y2="-140.4"/>
				<line id="XMLID_1772_" class="st1" x1="123.5" y1="-83" x2="196.2" y2="-155.7"/>
				<line id="XMLID_1771_" class="st1" x1="134.6" y1="-72.8" x2="207.3" y2="-145.5"/>
				<line id="XMLID_1770_" class="st1" x1="144.8" y1="-62.6" x2="217.5" y2="-135.3"/>
			</g>
			<g id="XMLID_1758_">
				<line id="XMLID_1768_" class="st1" x1="46.7" y1="-88.1" x2="119.4" y2="-160.8"/>
				<line id="XMLID_1767_" class="st1" x1="56.6" y1="-77.9" x2="129.3" y2="-150.6"/>
				<line id="XMLID_1766_" class="st1" x1="67.7" y1="-67.7" x2="140.4" y2="-140.4"/>
				<line id="XMLID_1765_" class="st1" x1="77.9" y1="-57.5" x2="150.6" y2="-130.2"/>
				<line id="XMLID_1764_" class="st1" x1="88.1" y1="-47.3" x2="160.4" y2="-120"/>
				<line id="XMLID_1763_" class="st1" x1="51.5" y1="-83" x2="124.2" y2="-155.7"/>
				<line id="XMLID_1762_" class="st1" x1="62.6" y1="-72.8" x2="135.3" y2="-145.5"/>
				<line id="XMLID_1761_" class="st1" x1="72.8" y1="-62.6" x2="145.5" y2="-135.3"/>
				<line id="XMLID_1760_" class="st1" x1="83" y1="-52.4" x2="155.7" y2="-125.1"/>
				<line id="XMLID_1759_" class="st1" x1="92.8" y1="-42.2" x2="165.2" y2="-114.9"/>
			</g>
			<g id="XMLID_1752_">
				<line id="XMLID_1757_" class="st1" x1="5.9" y1="-57.5" x2="78.6" y2="-130.2"/>
				<line id="XMLID_1756_" class="st1" x1="16.1" y1="-47.3" x2="88.4" y2="-120"/>
				<line id="XMLID_1755_" class="st1" x1="0.8" y1="-62.6" x2="73.5" y2="-135.3"/>
				<line id="XMLID_1754_" class="st1" x1="11" y1="-52.4" x2="83.7" y2="-125.1"/>
				<line id="XMLID_1753_" class="st1" x1="20.8" y1="-42.2" x2="93.2" y2="-114.9"/>
			</g>
			<g id="XMLID_1747_">
				<line id="XMLID_1751_" class="st1" x1="118.7" y1="-16.1" x2="191.4" y2="-88.8"/>
				<line id="XMLID_1750_" class="st1" x1="128.6" y1="-5.9" x2="201.3" y2="-78.6"/>
				<line id="XMLID_1749_" class="st1" x1="123.5" y1="-11" x2="196.2" y2="-83.7"/>
				<line id="XMLID_1748_" class="st1" x1="134.6" y1="-0.8" x2="207.3" y2="-73.5"/>
			</g>
			<g id="XMLID_1742_">
				<line id="XMLID_1746_" class="st1" x1="46.7" y1="-16.1" x2="119.4" y2="-88.8"/>
				<line id="XMLID_1745_" class="st1" x1="56.6" y1="-5.9" x2="129.3" y2="-78.6"/>
				<line id="XMLID_1744_" class="st1" x1="51.5" y1="-11" x2="124.2" y2="-83.7"/>
				<line id="XMLID_1743_" class="st1" x1="62.6" y1="-0.8" x2="135.3" y2="-73.5"/>
			</g>
		</g>
	</g>
</pattern>
<pattern  x="-404" y="-941" width="72" height="72" patternUnits="userSpaceOnUse" id="XMLID_157_" viewBox="72.5 -142.8 72 72" style="overflow:visible;">
	<g id="XMLID_31_">
		<polygon id="XMLID_32_" class="st0" points="72.5,-70.8 144.5,-70.8 144.5,-142.8 72.5,-142.8 		"/>
		<g id="XMLID_1855_">
			<polygon id="XMLID_1906_" class="st0" points="72.5,-70.8 144.5,-70.8 144.5,-142.8 72.5,-142.8 			"/>
			<g id="XMLID_1903_">
				<line id="XMLID_1905_" class="st1" x1="139.7" y1="-139.7" x2="212.4" y2="-212.4"/>
				<line id="XMLID_1904_" class="st1" x1="144.8" y1="-134.6" x2="217.5" y2="-207.3"/>
			</g>
			<g id="XMLID_1896_">
				<line id="XMLID_1902_" class="st1" x1="67.7" y1="-139.7" x2="140.4" y2="-212.4"/>
				<line id="XMLID_1901_" class="st1" x1="77.9" y1="-129.5" x2="150.6" y2="-202.2"/>
				<line id="XMLID_1900_" class="st1" x1="88.1" y1="-119.3" x2="160.4" y2="-192"/>
				<line id="XMLID_1899_" class="st1" x1="72.8" y1="-134.6" x2="145.5" y2="-207.3"/>
				<line id="XMLID_1898_" class="st1" x1="83" y1="-124.4" x2="155.7" y2="-197.1"/>
				<line id="XMLID_1897_" class="st1" x1="92.8" y1="-114.2" x2="165.2" y2="-186.9"/>
			</g>
			<g id="XMLID_1890_">
				<line id="XMLID_1895_" class="st1" x1="5.9" y1="-129.5" x2="78.6" y2="-202.2"/>
				<line id="XMLID_1894_" class="st1" x1="16.1" y1="-119.3" x2="88.4" y2="-192"/>
				<line id="XMLID_1893_" class="st1" x1="0.8" y1="-134.6" x2="73.5" y2="-207.3"/>
				<line id="XMLID_1892_" class="st1" x1="11" y1="-124.4" x2="83.7" y2="-197.1"/>
				<line id="XMLID_1891_" class="st1" x1="20.8" y1="-114.2" x2="93.2" y2="-186.9"/>
			</g>
			<g id="XMLID_1883_">
				<line id="XMLID_1889_" class="st1" x1="118.7" y1="-88.1" x2="191.4" y2="-160.8"/>
				<line id="XMLID_1888_" class="st1" x1="128.6" y1="-77.9" x2="201.3" y2="-150.6"/>
				<line id="XMLID_1887_" class="st1" x1="139.7" y1="-67.7" x2="212.4" y2="-140.4"/>
				<line id="XMLID_1886_" class="st1" x1="123.5" y1="-83" x2="196.2" y2="-155.7"/>
				<line id="XMLID_1885_" class="st1" x1="134.6" y1="-72.8" x2="207.3" y2="-145.5"/>
				<line id="XMLID_1884_" class="st1" x1="144.8" y1="-62.6" x2="217.5" y2="-135.3"/>
			</g>
			<g id="XMLID_1872_">
				<line id="XMLID_1882_" class="st1" x1="46.7" y1="-88.1" x2="119.4" y2="-160.8"/>
				<line id="XMLID_1881_" class="st1" x1="56.6" y1="-77.9" x2="129.3" y2="-150.6"/>
				<line id="XMLID_1880_" class="st1" x1="67.7" y1="-67.7" x2="140.4" y2="-140.4"/>
				<line id="XMLID_1879_" class="st1" x1="77.9" y1="-57.5" x2="150.6" y2="-130.2"/>
				<line id="XMLID_1878_" class="st1" x1="88.1" y1="-47.3" x2="160.4" y2="-120"/>
				<line id="XMLID_1877_" class="st1" x1="51.5" y1="-83" x2="124.2" y2="-155.7"/>
				<line id="XMLID_1876_" class="st1" x1="62.6" y1="-72.8" x2="135.3" y2="-145.5"/>
				<line id="XMLID_1875_" class="st1" x1="72.8" y1="-62.6" x2="145.5" y2="-135.3"/>
				<line id="XMLID_1874_" class="st1" x1="83" y1="-52.4" x2="155.7" y2="-125.1"/>
				<line id="XMLID_1873_" class="st1" x1="92.8" y1="-42.2" x2="165.2" y2="-114.9"/>
			</g>
			<g id="XMLID_1866_">
				<line id="XMLID_1871_" class="st1" x1="5.9" y1="-57.5" x2="78.6" y2="-130.2"/>
				<line id="XMLID_1870_" class="st1" x1="16.1" y1="-47.3" x2="88.4" y2="-120"/>
				<line id="XMLID_1869_" class="st1" x1="0.8" y1="-62.6" x2="73.5" y2="-135.3"/>
				<line id="XMLID_1868_" class="st1" x1="11" y1="-52.4" x2="83.7" y2="-125.1"/>
				<line id="XMLID_1867_" class="st1" x1="20.8" y1="-42.2" x2="93.2" y2="-114.9"/>
			</g>
			<g id="XMLID_1861_">
				<line id="XMLID_1865_" class="st1" x1="118.7" y1="-16.1" x2="191.4" y2="-88.8"/>
				<line id="XMLID_1864_" class="st1" x1="128.6" y1="-5.9" x2="201.3" y2="-78.6"/>
				<line id="XMLID_1863_" class="st1" x1="123.5" y1="-11" x2="196.2" y2="-83.7"/>
				<line id="XMLID_1862_" class="st1" x1="134.6" y1="-0.8" x2="207.3" y2="-73.5"/>
			</g>
			<g id="XMLID_1856_">
				<line id="XMLID_1860_" class="st1" x1="46.7" y1="-16.1" x2="119.4" y2="-88.8"/>
				<line id="XMLID_1859_" class="st1" x1="56.6" y1="-5.9" x2="129.3" y2="-78.6"/>
				<line id="XMLID_1858_" class="st1" x1="51.5" y1="-11" x2="124.2" y2="-83.7"/>
				<line id="XMLID_1857_" class="st1" x1="62.6" y1="-0.8" x2="135.3" y2="-73.5"/>
			</g>
		</g>
	</g>
</pattern>
<g id="XMLID_28_">
	<rect id="XMLID_59_" x="3" y="1" class="st2" width="269" height="37"/>
	<pattern  id="XMLID_87_" xlink:href="#XMLID_155_" patternTransform="matrix(0.9669 0 0 1 -359.4388 153)">
	</pattern>
	<pattern  id="XMLID_88_" xlink:href="#XMLID_157_" patternTransform="matrix(0.9669 0 0 1 -359.4388 153)">
	</pattern>
	<rect id="XMLID_58_" x="1" y="1" class="st3" width="270" height="37"/>
</g>
</svg>
