<?xml version="1.0" encoding="utf-8"?>
<!-- Generator: Adobe Illustrator 19.0.0, SVG Export Plug-In . SVG Version: 6.00 Build 0)  -->
<svg version="1.1" id="Layer_1" xmlns="http://www.w3.org/2000/svg" xmlns:xlink="http://www.w3.org/1999/xlink" x="0px" y="0px"
	 viewBox="0 0 50.9 62.9" style="enable-background:new 0 0 50.9 62.9;" xml:space="preserve">
<style type="text/css">
	.st0{fill:#CB5441;}
	.st1{fill:none;stroke:#FFFFFF;stroke-width:0.9;stroke-linecap:round;stroke-linejoin:round;}
</style>
<g id="XMLID_2661_">
	<g id="XMLID_53_">
		<path id="XMLID_54_" class="st0" d="M32.1,62.5H18.7L0,0.4h13.4l12,42.2l12-42.2h13.4L32.1,62.5z"/>
	</g>
	<g id="XMLID_50_">
		<path id="XMLID_52_" class="st1" d="M37.6,0.6C37.6,0.7,37.6,0.5,37.6,0.6c0.3,0.2-1.2,3.8-1.1,4c0.4,0.6,6.1-4.6,6.5-4
			c0.4,0.6-8,7.3-7.6,8c1,1.7,12.8-8,12.8-8c0.4,0.6-14.2,10-13.6,10.9c0.8,1.2,15-11.3,15.8-9.9c1.3,2.2-17,13.9-17,13.9
			S47.9,3.8,49.1,5.6C50,7.1,31,17.5,32.2,19.4c0.4,0.7,15.7-9.8,15.7-9.8L31.4,22.4c0.9,1.4,15.4-10,15.6-9.7
			c0.8,1.2-16.4,12.2-16.3,12.3c0.2,0.4,14.4-11.6,15.5-9.7C46.6,16,28.6,27,29.6,28.7c0.9,1.5,15.5-9.7,15.5-9.7
			c0.4,0.6-17.7,10.6-16.3,12.7c1,1.7,15-10.3,15.4-9.6c0.6,0.9-16.2,12.5-16.2,12.5c0.7,1.1,15.2-9.8,15.3-9.6
			c0.4,0.7-16.6,14.2-16.6,14.2S41.4,29,41.8,29.7c0.4,0.6-16.1,12.5-16.1,12.5c1.2,2,13.9-11.5,15.2-9.5"/>
		<path id="XMLID_51_" class="st1" d="M1.3,3.8C1.5,4,6.2,0.2,6.5,0.5c0.2,0.4-4.6,5.5-4.4,5.8c0.4,0.6,8.8-6.8,9.4-5.8
			C12,1.4,3,9.4,3,9.4l10.8-6.7c0,0-11,7.3-10.3,8.4c0.9,1.4,10.7-6.8,10.8-6.7c0,0-10.6,7.9-10.2,8.6c0,0,10-7.9,10.7-6.7
			c0.7,1.1-10,9.5-9.8,9.8c0,0,10.6-6.9,10.7-6.7C15.9,9.8,4.9,17,5.6,18.2c0.7,1.1,10.7-6.7,10.7-6.7c0,0-9.9,9.3-9.9,9.3
			C6.6,21.1,17,14,17.1,14.2c0,0-10.1,8.9-9.7,9.6c0.7,1.1,9.8-7.9,10.6-6.6c0.9,1.4-9.9,8.7-9.9,8.7c0.1,0.1,10.3-7,10.5-6.6
			c0.8,1.3-10.2,8.6-9.6,9.6c0.9,1.4,9.9-7.5,10.5-6.6c0,0-10.3,8.4-9.6,9.5c0.3,0.4,10.3-6.8,10.5-6.5c0.8,1.2-9.9,8.6-9.8,8.6
			c0,0,10.2-6.8,10.4-6.5c0.1,0.2-10,8.1-9.9,8.2c0.7,1.2,10.4-6.5,10.4-6.5s-9.9,8.4-9.8,8.6c0.1,0.2,10.4-6.5,10.4-6.5
			c0.1,0.2-9.6,9.2-9.5,9.3c0.7,1.1,9.7-7.4,10.3-6.5c0.8,1.3-10.4,7.6-9.7,8.7c0.3,0.4,10.3-6.5,10.3-6.4c0.2,0.3-9.8,8.6-9.5,9
			c0.6,0.9,10.1-6.6,10.3-6.4c0.2,0.4-9.7,8.2-9.7,8.2c0.6,1,9.7-7.3,10.2-6.4c0.3,0.4-10.2,7.5-9.6,8.4c0.5,0.9,9.5-7.5,10.2-6.4
			c0.5,0.8-9.6,8.3-9.6,8.3C16,51.7,38.9,33.9,40,35.7c0,0-25.2,15.5-23.7,18c0.3,0.5,21.5-15.6,22.5-14.1c1.7,2.8-22,15.9-22,15.9
			c0.2,0.4,21.2-13.2,21.2-13.2L17.5,57.3c1.6,2.5,18.4-14.6,19.8-12.4c1.5,2.4-20.2,13.1-19,15c0,0,17.4-11.9,17.9-11.2
			c0,0-17.4,12.9-17.3,12.9c0.9,1.4,16-11.2,16.6-10.3c1.1,1.7-13.8,11-13.8,11c0.8,1.2,12.8-8.2,12.9-8.1c0,0-8.4,8.1-8.4,8.1
			c0.1,0.2,6.9-5.3,7.4-4.6l-4.1,4.6c0.2,0.3,3.2-2.3,3.3-2.1"/>
	</g>
</g>
</svg>
