<?xml version="1.0" encoding="utf-8"?>
<!-- Generator: Adobe Illustrator 19.0.0, SVG Export Plug-In . SVG Version: 6.00 Build 0)  -->
<svg version="1.1" id="Layer_1" xmlns="http://www.w3.org/2000/svg" xmlns:xlink="http://www.w3.org/1999/xlink" x="0px" y="0px"
	 viewBox="0 0 46.2 62.9" style="enable-background:new 0 0 46.2 62.9;" xml:space="preserve">
<style type="text/css">
	.st0{fill:#E55F48;}
	.st1{fill:none;stroke:#FFFFFF;stroke-width:0.9;stroke-linecap:round;stroke-linejoin:round;}
</style>
<g id="XMLID_2668_">
	<g id="XMLID_131_">
		<path id="XMLID_132_" class="st0" d="M0.3,0.5h45.6v12.3h-16v49.8H16.3V12.8h-16V0.5z"/>
	</g>
	<g id="XMLID_128_">
		<path id="XMLID_130_" class="st1" d="M30.4,12.6c0.8,1.3,14.8-10.1,15.2-9.5c0,0-11.4,8.5-10.8,9.5c0,0,10.6-7.1,10.8-6.8
			c0.1,0.1-5.9,6.2-5.6,6.7c0.1,0.2,5.2-4,5.6-3.5c0.2,0.2-2.3,3.3-2.2,3.5c0.2,0.3,2.2-1.5,2.2-1.4"/>
		<path id="XMLID_129_" class="st1" d="M0.5,0.6C0.5,0.7,0.5,0.6,0.5,0.6c0.1,0.1-0.1,2.1,0,2.3C0.6,3.1,4,0.2,4.2,0.6
			c0,0-4.1,4.8-3.7,5.5C0.8,6.6,9,0.2,9.3,0.6C9.5,1-0.2,8.6,0.5,9.7C1,10.6,14.2-0.7,15,0.6c0.6,1-13.4,11.5-13,12
			C2.9,14,21.2,0.6,21.2,0.6c0.5,0.8-15,11.1-14.4,12c0.5,0.8,18-13.9,19.2-12c0.8,1.3-15.7,11.4-15.3,12c0.5,0.8,19-12.3,19.2-12
			c0.9,1.5-15.6,10.5-14.7,12c0.8,1.3,18.8-12.7,19.2-12C35.2,1.7,15.9,14,16.5,15c0,0,22.8-14.6,22.9-14.3
			c1.9,3-23.2,16.5-22.9,16.9c0.3,0.5,25.9-18.6,27-16.9c0.7,1.2-27,19-27,19C18,22.1,43.9-1.2,45.6,1.5
			c2.3,3.7-29.2,20.7-29.1,20.8c0.6,1,12.6-8.9,13.1-8.2c0.4,0.6-13.5,9.5-13.1,10.2c0,0,12.7-8.8,13.1-8.2
			c0.6,1-13.9,9.9-13.1,11.3c0.5,0.7,12.7-8.8,13.1-8.2c0.6,1-14,9.7-13.1,11.3c0.6,1,12.2-9.5,13.1-8.2c0.5,0.9-14.2,9.5-13.1,11.3
			c0.5,0.8,13.1-8.2,13.1-8.2c1.1,1.7-13.4,11.1-13.1,11.7c0.1,0.1,12.4-9.3,13.1-8.2C30,29.9,15.6,39,16.5,40.4
			c0.7,1.1,12.5-9.1,13.1-8.2c0.7,1.1-14,9-13.1,10.5c0.7,1.1,12.6-8.8,13.1-8.2C30.3,35.8,15.9,45,16.5,46
			c0.8,1.3,12.2-9.5,13.1-8.2c0.1,0.2-13.5,11-13.1,11.7c0.1,0.1,13.1-8.2,13.1-8.2c0.5,0.7-13.8,10.6-13.1,11.7
			c0.8,1.3,13.1-8.2,13.1-8.2c0.5,0.9-13.3,10.6-13.1,10.9c1.1,1.7,13.1-8.2,13.1-8.2c0.1,0.1-14,9.8-13.1,11.3
			c0.6,1,12-9.9,13.1-8.2c0.8,1.3-13.1,11.4-13.1,11.4s12.4-9.2,13.1-8.2c0,0.1-8.6,7-7.9,8.3c0.3,0.4,7.9-4.9,7.9-4.9
			c0,0-2.7,4.6-2.5,4.9c0.2,0.3,2.5-1.7,2.5-1.6"/>
	</g>
</g>
</svg>
