<?xml version="1.0" encoding="utf-8"?>
<!-- Generator: Adobe Illustrator 19.0.0, SVG Export Plug-In . SVG Version: 6.00 Build 0)  -->
<svg version="1.1" id="Layer_1" xmlns="http://www.w3.org/2000/svg" xmlns:xlink="http://www.w3.org/1999/xlink" x="0px" y="0px"
	 viewBox="0 0 41.6 62.1" style="enable-background:new 0 0 41.6 62.1;" xml:space="preserve">
<style type="text/css">
	.st0{opacity:0.97;fill:#FFFFFF;}
</style>
<path id="XMLID_2672_" class="st0" d="M41.6,51.8c0,1.4-0.3,2.8-0.8,4c-0.5,1.2-1.3,2.3-2.2,3.3c-0.9,0.9-2,1.7-3.3,2.2
	c-1.2,0.5-2.6,0.8-4,0.8H10.3c-1.4,0-2.8-0.3-4-0.8C5,60.7,3.9,60,3,59.1c-0.9-0.9-1.7-2-2.2-3.3c-0.5-1.2-0.8-2.6-0.8-4v-7
	l13.3-2.2v6.2c0,0.6,0.3,0.9,0.9,0.9h12.9c0.6,0,0.9-0.3,0.9-0.9v-8.7c0-0.6-0.4-1-1.2-1.2c-0.8-0.2-2.6-0.8-5.3-1.5
	c-2.7-0.8-7-2-12.7-3.6C6,33,3.9,31.9,2.4,30.5c-1.5-1.4-2.2-3.5-2.2-6.4V10.3c0-1.4,0.3-2.8,0.8-4C1.5,5,2.2,3.9,3.2,3
	c0.9-0.9,2-1.7,3.3-2.2C7.7,0.3,9,0,10.4,0h20.5c1.4,0,2.8,0.3,4,0.8c1.2,0.5,2.3,1.3,3.3,2.2c0.9,0.9,1.7,2,2.2,3.3
	c0.5,1.2,0.8,2.6,0.8,4v6.5L27.9,19v-5.8c0-0.6-0.3-0.9-0.9-0.9H14.6c-0.6,0-0.9,0.3-0.9,0.9v8c0,0.4,0.1,0.6,0.3,0.8
	c0.2,0.2,0.4,0.3,0.7,0.4c0.4,0.1,2.1,0.6,5,1.4c2.9,0.8,7.4,2.1,13.5,3.8c2.7,0.7,4.7,1.8,6.2,3.3c1.5,1.4,2.2,3.6,2.2,6.4V51.8z"
	/>
</svg>
