<?xml version="1.0" encoding="utf-8"?>
<!-- Generator: Adobe Illustrator 19.0.0, SVG Export Plug-In . SVG Version: 6.00 Build 0)  -->
<svg version="1.1" id="Layer_1" xmlns="http://www.w3.org/2000/svg" xmlns:xlink="http://www.w3.org/1999/xlink" x="0px" y="0px"
	 viewBox="0 0 176.8 31.5" style="enable-background:new 0 0 176.8 31.5;" xml:space="preserve">
<style type="text/css">
	.st0{opacity:0.79;}
	.st1{fill:#808285;}
	.st2{fill:none;stroke:#FFFFFF;stroke-width:0.9231;stroke-linecap:round;stroke-linejoin:round;}
	.st3{fill:#FFFFFF;}
	.st4{fill:#F1664F;}
</style>
<g id="XMLID_2654_" class="st0">
	<path id="XMLID_341_" class="st1" d="M2,6.6l10.6-6.1c1-0.6,2.1-0.6,3.1,0l10.4,6.1c1,0.6,1.3,1.6,1.3,2.7v12.2
		c0,1.1-0.4,2.2-1.3,2.7l-10.6,6.1c-1,0.6-2.1,0.6-3.1,0L2,24.3c-1-0.6-1.4-1.6-1.4-2.7V9.3C0.5,8.2,1,7.1,2,6.6z"/>
	<g id="XMLID_339_">
		<path id="XMLID_340_" class="st2" d="M1.2,7.3c0,0,5.4-4.4,5.8-3.6c0,0-6.5,7.6-6.5,7.6c1.3,2,15.6-10.8,16-10
			c0.5,0.9-16.1,13.9-16,13.9c0.7,1.2,19.3-12,19.3-12c1.5,2.4-21,12.8-19.3,15.6C1.6,20.3,21.9,3.5,22.8,4.7
			C24.4,7.4-1,18.6,0.6,21.2C1.3,22.3,24.9,6,24.9,6c1,1.5-23,17.8-22.9,18C3.9,27,26.2,6.1,27.4,8.1c1.5,2.3-22.6,17.5-22.6,17.5
			c1.3,2,21.8-16.2,23-14.4c0.5,0.8-22.4,13.1-20.9,15.6c1.5,2.4,19.9-14.6,20.9-13.1c0.3,0.6-19.7,13.1-19,14.1
			c0,0.1,18.7-12.4,19-11.9c0,0-17.7,11.4-16.6,13.3L27.8,19c0,0-13.7,10.3-12.9,11.6c0,0,11.9-9.1,12.7-7.9"/>
	</g>
</g>
<g id="XMLID_357_">
	<path id="XMLID_358_" class="st3" d="M29.7,10.4c0.4,0,0.7,0.1,1,0.2c0.3,0.1,0.6,0.3,0.8,0.6c0.2,0.2,0.4,0.5,0.6,0.8
		s0.2,0.7,0.2,1v10.7c0,0.4-0.1,0.7-0.2,1c-0.1,0.3-0.3,0.6-0.6,0.8c-0.2,0.2-0.5,0.4-0.8,0.6s-0.7,0.2-1,0.2h-8.3v-16H29.7z
		 M24.9,13.6v9.6h3.7c0.2,0,0.2-0.1,0.2-0.2v-9.2c0-0.2-0.1-0.2-0.2-0.2H24.9z"/>
	<path id="XMLID_361_" class="st3" d="M43.7,19.9H39v6.5h-3.5v-16H39v6.3h4.6v-6.3h3.5v16h-3.5V19.9z"/>
	<path id="XMLID_363_" class="st3" d="M54,26.4h-3.5v-16H54V26.4z"/>
	<path id="XMLID_365_" class="st3" d="M67.8,23.8c0,0.4-0.1,0.7-0.2,1c-0.1,0.3-0.3,0.6-0.6,0.8c-0.2,0.2-0.5,0.4-0.8,0.6
		s-0.7,0.2-1,0.2h-5.4c-0.4,0-0.7-0.1-1-0.2s-0.6-0.3-0.8-0.6c-0.2-0.2-0.4-0.5-0.6-0.8c-0.1-0.3-0.2-0.7-0.2-1V22l3.4-0.6V23
		c0,0.2,0.1,0.2,0.2,0.2h3.3c0.2,0,0.2-0.1,0.2-0.2v-2.2c0-0.2-0.1-0.3-0.3-0.3c-0.2-0.1-0.7-0.2-1.4-0.4c-0.7-0.2-1.8-0.5-3.3-0.9
		c-0.7-0.2-1.3-0.5-1.7-0.9c-0.4-0.4-0.6-0.9-0.6-1.6v-3.6c0-0.4,0.1-0.7,0.2-1c0.1-0.3,0.3-0.6,0.6-0.8c0.2-0.2,0.5-0.4,0.8-0.6
		c0.3-0.1,0.7-0.2,1-0.2h5.3c0.4,0,0.7,0.1,1,0.2c0.3,0.1,0.6,0.3,0.8,0.6s0.4,0.5,0.6,0.8s0.2,0.7,0.2,1v1.7l-3.4,0.6v-1.5
		c0-0.2-0.1-0.2-0.2-0.2h-3.2c-0.2,0-0.2,0.1-0.2,0.2v2.1c0,0.1,0,0.2,0.1,0.2s0.1,0.1,0.2,0.1c0.1,0,0.5,0.2,1.3,0.4s1.9,0.5,3.5,1
		c0.7,0.2,1.2,0.5,1.6,0.8s0.6,0.9,0.6,1.7V23.8z"/>
	<path id="XMLID_367_" class="st3" d="M78.9,19.9h-4.6v6.5h-3.5v-16h3.5v6.3h4.6v-6.3h3.5v16h-3.5V19.9z"/>
	<path id="XMLID_369_" class="st3" d="M97.8,26.4h-3.4l-5.3-9.3v9.3h-3.4v-16h3.4l5.3,9.4v-9.4h3.4V26.4z"/>
	<path id="XMLID_371_" class="st3" d="M113.9,26.4h-3.6l-1-3.2h-4.9l-1,3.2h-3.6l5.2-16h3.5L113.9,26.4z M105.5,20.2h2.9l-1.4-5.3
		L105.5,20.2z"/>
	<path id="XMLID_374_" class="st4" d="M137,13.5h-2.4c-0.2,0-0.2,0.1-0.2,0.2v1.6l-3.3-0.6v-1.8c0-0.3,0.1-0.7,0.2-1
		c0.1-0.3,0.3-0.6,0.5-0.8c0.2-0.2,0.5-0.4,0.8-0.5c0.3-0.1,0.6-0.2,1-0.2h4.5c0.3,0,0.7,0.1,1,0.2s0.6,0.3,0.8,0.5
		c0.2,0.2,0.4,0.5,0.5,0.8c0.1,0.3,0.2,0.6,0.2,1v4.3c0,0.5-0.1,0.9-0.3,1.2c-0.2,0.3-0.6,0.6-1.1,0.8c-1.3,0.6-2.3,1.1-3.1,1.4
		c-0.8,0.4-1.3,0.6-1.4,0.6c-0.1,0.1-0.2,0.2-0.2,0.3v1.8h6.2v3h-9.6v-5.6c0-0.3,0-0.6,0.1-0.9c0.1-0.2,0.2-0.4,0.4-0.6
		s0.4-0.3,0.6-0.4c0.2-0.1,0.5-0.3,0.8-0.4c0.5-0.2,0.9-0.4,1.4-0.6c0.4-0.2,0.9-0.4,1.2-0.5c0.4-0.2,0.7-0.3,0.9-0.4
		c0.2-0.1,0.4-0.2,0.4-0.2c0.1-0.1,0.2-0.2,0.2-0.3v-2.8C137.3,13.5,137.2,13.5,137,13.5z"/>
	<path id="XMLID_376_" class="st4" d="M153.5,23.9c0,0.3-0.1,0.7-0.2,1c-0.1,0.3-0.3,0.6-0.5,0.8c-0.2,0.2-0.5,0.4-0.8,0.5
		c-0.3,0.1-0.6,0.2-1,0.2h-4.9c-0.3,0-0.7-0.1-1-0.2c-0.3-0.1-0.6-0.3-0.8-0.5c-0.2-0.2-0.4-0.5-0.5-0.8c-0.1-0.3-0.2-0.6-0.2-1v-11
		c0-0.3,0.1-0.7,0.2-1c0.1-0.3,0.3-0.6,0.5-0.8c0.2-0.2,0.5-0.4,0.8-0.5s0.6-0.2,1-0.2h4.9c0.3,0,0.7,0.1,1,0.2s0.6,0.3,0.8,0.5
		c0.2,0.2,0.4,0.5,0.5,0.8c0.1,0.3,0.2,0.6,0.2,1V23.9z M150,13.5h-2.8c-0.2,0-0.2,0.1-0.2,0.2v9.5c0,0.2,0.1,0.2,0.2,0.2h2.8
		c0.2,0,0.2-0.1,0.2-0.2v-9.5C150.2,13.5,150.1,13.5,150,13.5z"/>
	<path id="XMLID_379_" class="st4" d="M162.6,10.4v16h-3.3V13.7l-3.9,1.2v-3.3l3.9-1.2H162.6z"/>
	<path id="XMLID_381_" class="st4" d="M168.8,21.8v1.4c0,0.2,0.1,0.2,0.2,0.2h2.6c0.2,0,0.2-0.1,0.2-0.2V19
		c-0.3,0.1-0.6,0.2-0.9,0.2c-0.4,0.1-0.7,0.2-1.1,0.2c-0.4,0.1-0.7,0.1-1,0.2s-0.6,0.1-0.8,0.1c-0.8,0-1.4-0.2-1.8-0.7
		c-0.4-0.5-0.6-1.1-0.6-1.8v-4.3c0-0.3,0.1-0.7,0.2-1c0.1-0.3,0.3-0.6,0.5-0.8c0.2-0.2,0.5-0.4,0.8-0.5c0.3-0.1,0.6-0.2,1-0.2h4.7
		c0.3,0,0.7,0.1,1,0.2s0.6,0.3,0.8,0.5c0.2,0.2,0.4,0.5,0.5,0.8c0.1,0.3,0.2,0.6,0.2,1v11c0,0.3-0.1,0.7-0.2,1
		c-0.1,0.3-0.3,0.6-0.5,0.8c-0.2,0.2-0.5,0.4-0.8,0.5c-0.3,0.1-0.6,0.2-1,0.2H168c-0.3,0-0.7-0.1-1-0.2c-0.3-0.1-0.6-0.3-0.8-0.5
		c-0.2-0.2-0.4-0.5-0.5-0.8c-0.1-0.3-0.2-0.6-0.2-1v-1.5L168.8,21.8z M169.1,16.6c0.1,0,0.2,0,0.5-0.1s0.5-0.1,0.8-0.1
		s0.6-0.1,0.8-0.2c0.2-0.1,0.4-0.1,0.5-0.2c0.2-0.1,0.2-0.2,0.2-0.4v-2.2c0-0.2-0.1-0.2-0.2-0.2h-2.6c-0.2,0-0.2,0.1-0.2,0.2v2.8
		C168.9,16.6,168.9,16.6,169.1,16.6z"/>
</g>
</svg>
