<?xml version="1.0" encoding="utf-8"?>
<!-- Generator: Adobe Illustrator 19.0.0, SVG Export Plug-In . SVG Version: 6.00 Build 0)  -->
<svg version="1.1" id="Layer_1" xmlns="http://www.w3.org/2000/svg" xmlns:xlink="http://www.w3.org/1999/xlink" x="0px" y="0px"
	 viewBox="0 0 351 394.8" style="enable-background:new 0 0 351 394.8;" xml:space="preserve">
<style type="text/css">
	.st0{opacity:0.49;fill:none;}
	.st1{fill:#333335;}
	.st2{opacity:0.5;fill:#333335;}
	.st3{opacity:0.49;fill:#333335;}
</style>
<path id="XMLID_2398_" class="st0" d="M217.2,166.9l-34.6-20c-3.8-2.2-8.3-2.2-12.1,0l-35.5,20c-3.8,2.2-7,6.2-7,10.5v40
	c0,4.3,3.3,8.4,7.1,10.5l35.2,20c3.8,2.2,8.7,2.2,12.4,0l34.4-20c3.8-2.2,5.9-6.2,5.9-10.5v-40C223,173,220.9,169,217.2,166.9z
	 M219,215.5c0,4.3-1.7,8.3-5.5,10.5l-31,18.1c-3.8,2.2-8.3,2.2-12,0L138.7,226c-3.7-2.2-6.7-6.2-6.7-10.5v-36.2
	c0-4.3,3-8.3,6.7-10.5l31.6-18.1c3.8-2.2,8.6-2.2,12.3,0l30.8,18.1c3.7,2.2,5.6,6.2,5.6,10.5V215.5z"/>
<path id="XMLID_2386_" class="st1" d="M227.4,160.8l-44.9-26.1c-3.8-2.2-8.3-2.2-12,0l-45.7,26.1c-3.8,2.2-6.7,6.2-6.7,10.5v52.1
	c0,4.3,3.1,8.3,6.8,10.5l45.6,26.1c3.8,2.2,8.6,2.2,12.3,0l44.6-26.1c3.8-2.2,5.7-6.2,5.7-10.5v-52.1C233,167,231.2,163,227.4,160.8
	z M232,223.3c0,1.4,0.6,2.7,0.1,3.9c-0.2,0.5,0,1-0.2,1.5c-0.1,0.3-0.1,0.6-0.3,0.9c-0.2,0.3-0.2,0.6-0.4,0.8
	c-0.4,0.5-0.8,1-1.2,1.5c-0.2,0.2-0.3,0.4-0.6,0.5c-0.4,0.4-0.8,0.7-1.3,1c-0.2,0.2-0.4,0.3-0.7,0.4l-9.7,5.6l-35.1,20.3
	c-0.4,0.2-0.9,0.5-1.3,0.7c-0.2,0.1-0.4,0.2-0.6,0.2c-0.4,0.2-0.9,0.3-1.3,0.4c-0.7,0.2-1.4,0.3-2,0.3c-0.5,0-1,0-1.5,0
	c-1.9-0.1-3.7-0.7-5.3-1.7l-44.7-26h0c-0.7,0-1.4-0.8-1.9-1.3c-0.4-0.4-0.9-0.8-1.2-1.3c-0.6-0.7-1.2-1.6-1.6-2.4
	c-0.2-0.5-0.4-0.9-0.6-1.4c-0.1-0.3-0.7-0.6-0.8-0.9c-0.2-1-0.9-2-0.9-3v-51.8c0-1.4,0.7-2.7,1.1-3.9c0.2-0.5,0.6-1,0.8-1.5
	c0.6-1.2,1.5-2.4,2.5-3.3c0.1-0.1,0.3-0.3,0.5-0.4c0.1-0.1,0.3-0.3,0.5-0.4c0.5-0.4,1-0.7,1.5-1l9.7-5.6l35.1-20.3
	c0.6-0.4,1.2-0.6,1.9-0.9c0.2-0.1,0.4-0.1,0.7-0.2c0.2-0.1,0.5-0.1,0.7-0.2c0.7-0.2,1.4-0.3,2-0.3c0.5,0,1,0,1.5,0
	c1.8,0.1,3.7,1,5.3,1.9l44.7,26.2h0c0.9,1,1.8,0.9,2.5,1.6c0.3,0.4,0.7,0.6,1,1c0.5,0.6,0.9,1.3,1.3,2c0.1,0.2,0.2,0.4,0.3,0.7
	c0.1,0.1,0.1,0.2,0.1,0.3c0,0.1,0.1,0.2,0.1,0.4c0.1,0.1,0.1,0.3,0.1,0.4c0,0.2-0.7,0.3-0.6,0.5c0.2,1-0.4,2-0.4,3V223.3z"/>
<path id="XMLID_2352_" class="st1" d="M227.4,160.8l-44.9-26.1c-3.8-2.2-8.3-2.2-12,0l-45.7,26.1c-3.8,2.2-6.7,6.2-6.7,10.5v52.1
	c0,4.3,3.1,8.3,6.8,10.5l45.6,26.1c3.8,2.2,8.6,2.2,12.3,0l44.6-26.1c3.8-2.2,5.7-6.2,5.7-10.5v-52.1C233,167,231.2,163,227.4,160.8
	z M232,223.3c0,1.4,0.6,2.7,0.1,3.9c-0.2,0.5,0,1-0.2,1.5c-0.1,0.3-0.1,0.6-0.3,0.9c-0.2,0.3-0.2,0.6-0.4,0.8
	c-0.4,0.5-0.8,1-1.2,1.5c-0.2,0.2-0.3,0.4-0.6,0.5c-0.4,0.4-0.8,0.7-1.3,1c-0.2,0.2-0.4,0.3-0.7,0.4l-9.7,5.6l-35.1,20.3
	c-0.4,0.2-0.9,0.5-1.3,0.7c-0.2,0.1-0.4,0.2-0.6,0.2c-0.4,0.2-0.9,0.3-1.3,0.4c-0.7,0.2-1.4,0.3-2,0.3c-0.5,0-1,0-1.5,0
	c-1.9-0.1-3.7-0.7-5.3-1.7l-44.7-26h0c-0.7,0-1.4-0.8-1.9-1.3c-0.4-0.4-0.9-0.8-1.2-1.3c-0.6-0.7-1.2-1.6-1.6-2.4
	c-0.2-0.5-0.4-0.9-0.6-1.4c-0.1-0.3-0.7-0.6-0.8-0.9c-0.2-1-0.9-2-0.9-3v-51.8c0-1.4,0.7-2.7,1.1-3.9c0.2-0.5,0.6-1,0.8-1.5
	c0.6-1.2,1.5-2.4,2.5-3.3c0.1-0.1,0.3-0.3,0.5-0.4c0.1-0.1,0.3-0.3,0.5-0.4c0.5-0.4,1-0.7,1.5-1l9.7-5.6l35.1-20.3
	c0.6-0.4,1.2-0.6,1.9-0.9c0.2-0.1,0.4-0.1,0.7-0.2c0.2-0.1,0.5-0.1,0.7-0.2c0.7-0.2,1.4-0.3,2-0.3c0.5,0,1,0,1.5,0
	c1.8,0.1,3.7,1,5.3,1.9l44.7,26.2h0c0.9,1,1.8,0.9,2.5,1.6c0.3,0.4,0.7,0.6,1,1c0.5,0.6,0.9,1.3,1.3,2c0.1,0.2,0.2,0.4,0.3,0.7
	c0.1,0.1,0.1,0.2,0.1,0.3c0,0.1,0.1,0.2,0.1,0.4c0.1,0.1,0.1,0.3,0.1,0.4c0,0.2-0.7,0.3-0.6,0.5c0.2,1-0.4,2-0.4,3V223.3z"/>
<path id="XMLID_2319_" class="st1" d="M227.4,160.8l-44.9-26.1c-3.8-2.2-8.3-2.2-12,0l-45.7,26.1c-3.8,2.2-6.7,6.2-6.7,10.5v52.1
	c0,4.3,3.1,8.3,6.8,10.5l45.6,26.1c3.8,2.2,8.6,2.2,12.3,0l44.6-26.1c3.8-2.2,5.7-6.2,5.7-10.5v-52.1C233,167,231.2,163,227.4,160.8
	z M232,223.3c0,1.4,0.6,2.7,0.1,3.9c-0.2,0.5,0,1-0.2,1.5c-0.1,0.3-0.1,0.6-0.3,0.9c-0.2,0.3-0.2,0.6-0.4,0.8
	c-0.4,0.5-0.8,1-1.2,1.5c-0.2,0.2-0.3,0.4-0.6,0.5c-0.4,0.4-0.8,0.7-1.3,1c-0.2,0.2-0.4,0.3-0.7,0.4l-9.7,5.6l-35.1,20.3
	c-0.4,0.2-0.9,0.5-1.3,0.7c-0.2,0.1-0.4,0.2-0.6,0.2c-0.4,0.2-0.9,0.3-1.3,0.4c-0.7,0.2-1.4,0.3-2,0.3c-0.5,0-1,0-1.5,0
	c-1.9-0.1-3.7-0.7-5.3-1.7l-44.7-26h0c-0.7,0-1.4-0.8-1.9-1.3c-0.4-0.4-0.9-0.8-1.2-1.3c-0.6-0.7-1.2-1.6-1.6-2.4
	c-0.2-0.5-0.4-0.9-0.6-1.4c-0.1-0.3-0.7-0.6-0.8-0.9c-0.2-1-0.9-2-0.9-3v-51.8c0-1.4,0.7-2.7,1.1-3.9c0.2-0.5,0.6-1,0.8-1.5
	c0.6-1.2,1.5-2.4,2.5-3.3c0.1-0.1,0.3-0.3,0.5-0.4c0.1-0.1,0.3-0.3,0.5-0.4c0.5-0.4,1-0.7,1.5-1l9.7-5.6l35.1-20.3
	c0.6-0.4,1.2-0.6,1.9-0.9c0.2-0.1,0.4-0.1,0.7-0.2c0.2-0.1,0.5-0.1,0.7-0.2c0.7-0.2,1.4-0.3,2-0.3c0.5,0,1,0,1.5,0
	c1.8,0.1,3.7,1,5.3,1.9l44.7,26.2h0c0.9,1,1.8,0.9,2.5,1.6c0.3,0.4,0.7,0.6,1,1c0.5,0.6,0.9,1.3,1.3,2c0.1,0.2,0.2,0.4,0.3,0.7
	c0.1,0.1,0.1,0.2,0.1,0.3c0,0.1,0.1,0.2,0.1,0.4c0.1,0.1,0.1,0.3,0.1,0.4c0,0.2-0.7,0.3-0.6,0.5c0.2,1-0.4,2-0.4,3V223.3z"/>
<path id="XMLID_2308_" class="st1" d="M227.4,160.8l-44.9-26.1c-3.8-2.2-8.3-2.2-12,0l-45.7,26.1c-3.8,2.2-6.7,6.2-6.7,10.5v52.1
	c0,4.3,3.1,8.3,6.8,10.5l45.6,26.1c3.8,2.2,8.6,2.2,12.3,0l44.6-26.1c3.8-2.2,5.7-6.2,5.7-10.5v-52.1C233,167,231.2,163,227.4,160.8
	z M232,223.3c0,1.4,0.6,2.7,0.1,3.9c-0.2,0.5,0,1-0.2,1.5c-0.1,0.3-0.1,0.6-0.3,0.9c-0.2,0.3-0.2,0.6-0.4,0.8
	c-0.4,0.5-0.8,1-1.2,1.5c-0.2,0.2-0.3,0.4-0.6,0.5c-0.4,0.4-0.8,0.7-1.3,1c-0.2,0.2-0.4,0.3-0.7,0.4l-9.7,5.6l-35.1,20.3
	c-0.4,0.2-0.9,0.5-1.3,0.7c-0.2,0.1-0.4,0.2-0.6,0.2c-0.4,0.2-0.9,0.3-1.3,0.4c-0.7,0.2-1.4,0.3-2,0.3c-0.5,0-1,0-1.5,0
	c-1.9-0.1-3.7-0.7-5.3-1.7l-44.7-26h0c-0.7,0-1.4-0.8-1.9-1.3c-0.4-0.4-0.9-0.8-1.2-1.3c-0.6-0.7-1.2-1.6-1.6-2.4
	c-0.2-0.5-0.4-0.9-0.6-1.4c-0.1-0.3-0.7-0.6-0.8-0.9c-0.2-1-0.9-2-0.9-3v-51.8c0-1.4,0.7-2.7,1.1-3.9c0.2-0.5,0.6-1,0.8-1.5
	c0.6-1.2,1.5-2.4,2.5-3.3c0.1-0.1,0.3-0.3,0.5-0.4c0.1-0.1,0.3-0.3,0.5-0.4c0.5-0.4,1-0.7,1.5-1l9.7-5.6l35.1-20.3
	c0.6-0.4,1.2-0.6,1.9-0.9c0.2-0.1,0.4-0.1,0.7-0.2c0.2-0.1,0.5-0.1,0.7-0.2c0.7-0.2,1.4-0.3,2-0.3c0.5,0,1,0,1.5,0
	c1.8,0.1,3.7,1,5.3,1.9l44.7,26.2h0c0.9,1,1.8,0.9,2.5,1.6c0.3,0.4,0.7,0.6,1,1c0.5,0.6,0.9,1.3,1.3,2c0.1,0.2,0.2,0.4,0.3,0.7
	c0.1,0.1,0.1,0.2,0.1,0.3c0,0.1,0.1,0.2,0.1,0.4c0.1,0.1,0.1,0.3,0.1,0.4c0,0.2-0.7,0.3-0.6,0.5c0.2,1-0.4,2-0.4,3V223.3z"/>
<path id="XMLID_2312_" class="st1" d="M333.1,85L195,5c-11.6-6.7-25.6-6.7-37.1,0L19,85C7.5,91.7,0,104,0,117.3v160.1
	c0,13.3,7.6,25.7,19.1,32.3l138.8,80c11.6,6.7,25.9,6.7,37.4,0l137.8-80c11.5-6.7,17.9-19,17.9-32.3V117.3
	C351,104,344.7,91.7,333.1,85z M350,276.9c0,2.1,0.6,4.1,0.3,6.2c-0.1,0.8,0.1,1.6-0.1,2.4c-0.2,0.8-0.2,1.6-0.4,2.4
	c-0.1,0.3-0.1,0.6-0.2,0.9c-0.2,0.6-0.3,1.1-0.6,1.7c-0.1,0.3-0.2,0.6-0.3,0.8c-1.9,4.5-4.6,8.6-8,12c-2.3,2.3-4.9,4.3-7.8,6
	l-137.5,79.5c-1.1,0.6-2.2,1.2-3.3,1.7c0,0,0,0,0,0c-0.6,0.3-1.1,0.5-1.7,0.7c-0.3,0.1-0.6,0.2-0.9,0.3c-0.3,0.1-0.6,0.2-1,0.3
	c-2.3,0.8-4.6,1.3-7,1.6c-3.2,0.4-6.4,0.4-9.6,0c-4.8-0.6-9.5-2-13.8-4.5L20.6,309.6h0c-2.9-2-5.5-3.9-7.8-6.2
	c-0.1-0.1-0.2-0.3-0.3-0.4c-0.2-0.2-0.4-0.4-0.6-0.6c-0.2-0.2-0.4-0.5-0.6-0.7c-0.2-0.2-0.3-0.4-0.4-0.5c-0.1-0.1-0.2-0.2-0.3-0.3
	c-0.1-0.1-0.2-0.2-0.3-0.3l-0.1-0.2c0-0.1-0.1-0.1-0.1-0.2c-0.1-0.1-0.2-0.2-0.3-0.4c-0.6-0.7-1.6-1.5-2.1-2.2
	c-4-6-6.7-13.2-6.7-20.7V117.9c0-7.5,2.7-14.7,6.7-20.7c0.7-1,1.6-2,2.4-2.9c0.5-0.6,1.2-1.2,1.7-1.8c0.3-0.3,0.6-0.6,0.9-0.9
	c2.3-2.3,4.9-4.3,7.8-6L158.1,6.1c0.4-0.2,0.8-0.4,1.2-0.7c0.4-0.2,0.8-0.4,1.2-0.6c0.3-0.1,0.5-0.3,0.8-0.4
	c0.4-0.2,0.7-0.3,1.1-0.5c0.3-0.1,0.6-0.2,0.9-0.4c0.6-0.2,1.2-0.4,1.8-0.6c1.3-0.4,2.7-0.8,4-1.1c0.5-0.1,1.1-0.2,1.6-0.3
	c0.4-0.1,0.8-0.1,1.2-0.2c3.2-0.4,6.4-0.4,9.6,0c4.8,0.6,9.5,2.7,13.9,5.2l137.5,79.9h0c0.7,0,1.4,0.3,2.1,0.8
	c0.3,0.2,0.5,0.1,0.8,0.3c1.8,1.2,3.4,2.6,4.9,4.1c1.7,1.7,3.1,3.5,4.4,5.5c0.2,0.3-0.3,0.5-0.1,0.8c0.3,0.4,0,0.9,0,1.3v0
	c1,0.3,1,0.7,1.2,1c0.6,1.1,1.5,2.1,2,3.2c0.2,0.6,0.7,1.1,0.9,1.7c0,0,0.1,0,0.1,0c0.1,0.3,0.3,0.6,0.4,0.9
	c0.1,0.3,0.2,0.6,0.3,0.9c0.2,0.8,0.5,1.6,0.6,2.3c0,0.1,0,0.1,0.1,0.2c0.2,0.7-0.5,1.4-0.3,2.2c0.3,2-0.3,4.1-0.3,6.2V276.9z"/>
<path id="XMLID_2316_" class="st1" d="M350.2,111.8c-0.1-0.7,0.1-1.5-0.1-2.2c0-0.1,0.1-0.1,0.1-0.2c-0.2-0.8-0.3-1.6-0.5-2.3
	c-0.1-0.3-0.1-0.6-0.2-0.9c-0.1-0.3-0.2-0.6-0.3-0.9c0,0,0,0,0,0c-0.2-0.6-0.5-1.1-0.7-1.7c-0.5-1.1-1.7-2.2-2.3-3.2
	c-0.2-0.4-0.2-0.7-1.2-1v0c0-0.5,0.2-0.9,0-1.3c-0.2-0.3,0-0.6-0.2-0.9c-1.3-2-2.6-3.8-4.3-5.5c-1.5-1.5-3-3-4.8-4.2
	c-0.2-0.2-0.5,0.1-0.7-0.1c-0.7-0.4-1.3-0.8-2.1-0.8h0L195.3,6.6c-4.3-2.5-9-4.3-13.8-4.9c-3.2-0.4-6.4-0.5-9.6-0.1
	c-0.4,0.1-0.8,0-1.2,0.1c-0.6,0.1-1.1,0.2-1.6,0.3c-1.4,0.3-2.7,0.6-4,1.1c-0.6,0.2-1.2,0.4-1.8,0.6c-0.3,0.1-0.6,0.2-0.9,0.4
	c-0.4,0.2-0.7,0.3-1.1,0.5c-0.3,0.1-0.5,0.3-0.8,0.4c-0.4,0.2-0.8,0.4-1.2,0.6c-0.4,0.2-0.8,0.4-1.2,0.7L20.5,85.6
	c-2.9,1.7-5.5,3.7-7.8,6c-0.3,0.3-0.6,0.6-0.8,0.9c-0.6,0.6-1.1,1.2-1.6,1.8c-0.8,0.9-1.9,1.9-2.6,2.9c-4,6-6.7,13.2-6.7,20.7v158.9
	c0,7.5,2.7,14.7,6.7,20.7c0.5,0.8,1.3,1.5,1.8,2.2c0.1,0.1,0.3,0.3,0.4,0.4c0,0.1,0.1,0.1,0.2,0.2l0.2,0.2c0.1,0.1,0.2,0.2,0.3,0.3
	c0.1,0.1,0.2,0.2,0.3,0.3c0.1,0.2,0.3,0.3,0.5,0.5c0.2,0.2,0.4,0.5,0.6,0.7c0.2,0.2,0.4,0.4,0.6,0.6c0.1,0.1,0.2,0.4,0.3,0.5
	c2.3,2.3,4.9,4.2,7.8,6.2h0L158,388.8c4.3,2.5,9,4,13.8,4.6c3.2,0.4,6.4,0.4,9.6-0.1c2.4-0.3,4.7-0.9,7-1.6c0.3-0.1,0.7-0.2,1-0.4
	c0.3-0.1,0.6-0.2,0.9-0.3c0.6-0.2,1.1-0.5,1.7-0.7c0,0,0,0,0,0c1.1-0.5,2.2-1.1,3.3-1.7l137.5-79.5c2.9-1.7,5.5-3.7,7.8-6
	c3.4-3.5,6.1-7.5,8-12c0.1-0.3,0.2-0.6,0.3-0.8c0.2-0.6,0.4-1.1,0.6-1.7c0.1-0.3,0.2-0.6,0.3-0.9c0.2-0.8,0.4-1.6,0.6-2.4
	c0.2-0.8-0.4-1.6-0.3-2.4c0.3-2-0.2-4.1-0.2-6.2V117.9C350,115.8,350.6,113.8,350.2,111.8z M319,258.9c0,13.3-6.5,25.6-18,32.3
	l-106,61.4c-11.6,6.7-25.6,6.7-37.2,0L51.1,291.2c-11.5-6.7-19.1-19-19.1-32.3V135.9c0-13.3,7.6-25.6,19.2-32.3l106.6-61.4
	c11.5-6.7,25.9-6.7,37.5,0l105.7,61.4c11.5,6.7,18.1,19,18.1,32.3V258.9z"/>
<path id="XMLID_2324_" class="st2" d="M301,103.6L195.1,42.2c-11.5-6.7-25.6-6.7-37.2,0L51.1,103.6c-11.5,6.7-19.1,19-19.1,32.3
	v122.9c0,13.3,7.7,25.6,19.2,32.3l106.5,61.4c11.5,6.7,25.9,6.7,37.5,0L301,291.2c11.5-6.7,18-19,18-32.3V135.9
	C319,122.6,312.6,110.3,301,103.6z M309,253c0,13.3-6.5,25.6-18.1,32.3l-95.8,55.6c-11.6,6.7-25.7,6.7-37.3,0l-96.7-55.6
	C49.7,278.7,42,266.4,42,253V141.7c0-13.3,7.8-25.6,19.3-32.3l96.4-55.6c11.6-6.7,26-6.7,37.6,0l95.6,55.6
	c11.5,6.7,18.2,19,18.2,32.3V253z"/>
<path id="XMLID_2328_" class="st1" d="M290.8,109.4l-95.7-55.6c-11.6-6.7-25.8-6.7-37.3,0l-96,55.6c-11.5,6.7-18.7,19-18.7,32.3V253
	c0,13.3,7.2,25.6,18.7,32.3l96.2,55.6c11.6,6.7,25.8,6.7,37.3,0l95.6-55.6c11.5-6.7,18.1-19,18.1-32.3V141.7
	C309,128.4,302.4,116.1,290.8,109.4z M290,249.2c0,0.1,0.1,0.2,0.1,0.2c0,0.8,0,1.6-0.1,2.3c0,0.1,0,0.1,0,0.2c0,0.2,0,0.4-0.1,0.7
	c0,0.3-0.1,0.5-0.1,0.8c-0.1,0.5-0.2,0.9-0.3,1.4c-0.1,0.2-0.1,0.5-0.2,0.7c0,0.1-0.1,0.2-0.1,0.4c-0.1,0.2-0.1,0.4-0.2,0.6
	c-0.3,0.9-0.6,1.9-1,2.8c-0.1,0.2-0.2,0.5-0.3,0.7c-0.1,0.2-0.2,0.5-0.4,0.7c-0.1,0.2-0.2,0.5-0.4,0.7c-0.1,0.3-0.3,0.5-0.4,0.8
	c-0.2,0.4-0.5,0.8-0.8,1.2c-1.9,2.8-4.5,5.1-7.5,6.9l-89.6,51.8c-7.5,4.3-16.7,4.3-24.1,0l-89.6-51.8c-7.5-4.3-11.9-12.3-11.9-20.9
	V145.6c0-8.6,4.5-16.6,12-20.9l89.6-51.8c7.5-4.3,16.7-4.3,24.1,0l89.5,51.8c2.8,1.6,5.1,3.7,7,6.2c0.1,0.2,0.3,0.4,0.4,0.5
	c0.3,0.4,0.6,0.9,0.9,1.4c0.1,0.2,0.3,0.4,0.4,0.7c0.1,0.2,0.2,0.4,0.3,0.6c0.4,0.7,0.7,1.4,1,2.2c0.1,0.2,0.2,0.4,0.2,0.6
	c0.3,0.8,0.6,1.5,0.8,2.3c0.1,0.2,0.1,0.5,0.2,0.8c0.1,0.5,0.2,1,0.3,1.5c0.2,1.3,0.3,2.6,0.3,3.9c0,0.1-0.1,0.2-0.1,0.2V249.2z"/>
<path id="XMLID_2332_" class="st1" d="M227.4,160.8l-44.9-26.1c-3.8-2.2-8.3-2.2-12,0l-45.7,26.1c-3.8,2.2-6.7,6.2-6.7,10.5v52.1
	c0,4.3,3.1,8.3,6.8,10.5l45.6,26.1c3.8,2.2,8.6,2.2,12.3,0l44.6-26.1c3.8-2.2,5.7-6.2,5.7-10.5v-52.1C233,167,231.2,163,227.4,160.8
	z M232,223.3c0,1.4,0.6,2.7,0.1,3.9c-0.2,0.5,0,1-0.2,1.5c-0.1,0.3-0.1,0.6-0.3,0.9c-0.2,0.3-0.2,0.6-0.4,0.8
	c-0.4,0.5-0.8,1-1.2,1.5c-0.2,0.2-0.3,0.4-0.6,0.5c-0.4,0.4-0.8,0.7-1.3,1c-0.2,0.2-0.4,0.3-0.7,0.4l-9.7,5.6l-35.1,20.3
	c-0.4,0.2-0.9,0.5-1.3,0.7c-0.2,0.1-0.4,0.2-0.6,0.2c-0.4,0.2-0.9,0.3-1.3,0.4c-0.7,0.2-1.4,0.3-2,0.3c-0.5,0-1,0-1.5,0
	c-1.9-0.1-3.7-0.7-5.3-1.7l-44.7-26h0c-0.7,0-1.4-0.8-1.9-1.3c-0.4-0.4-0.9-0.8-1.2-1.3c-0.6-0.7-1.2-1.6-1.6-2.4
	c-0.2-0.5-0.4-0.9-0.6-1.4c-0.1-0.3-0.7-0.6-0.8-0.9c-0.2-1-0.9-2-0.9-3v-51.8c0-1.4,0.7-2.7,1.1-3.9c0.2-0.5,0.6-1,0.8-1.5
	c0.6-1.2,1.5-2.4,2.5-3.3c0.1-0.1,0.3-0.3,0.5-0.4c0.1-0.1,0.3-0.3,0.5-0.4c0.5-0.4,1-0.7,1.5-1l9.7-5.6l35.1-20.3
	c0.6-0.4,1.2-0.6,1.9-0.9c0.2-0.1,0.4-0.1,0.7-0.2c0.2-0.1,0.5-0.1,0.7-0.2c0.7-0.2,1.4-0.3,2-0.3c0.5,0,1,0,1.5,0
	c1.8,0.1,3.7,1,5.3,1.9l44.7,26.2h0c0.9,1,1.8,0.9,2.5,1.6c0.3,0.4,0.7,0.6,1,1c0.5,0.6,0.9,1.3,1.3,2c0.1,0.2,0.2,0.4,0.3,0.7
	c0.1,0.1,0.1,0.2,0.1,0.3c0,0.1,0.1,0.2,0.1,0.4c0.1,0.1,0.1,0.3,0.1,0.4c0,0.2-0.7,0.3-0.6,0.5c0.2,1-0.4,2-0.4,3V223.3z"/>
<path id="XMLID_2336_" class="st1" d="M227.4,160.8l-44.9-26.1c-3.8-2.2-8.3-2.2-12,0l-45.7,26.1c-3.8,2.2-6.7,6.2-6.7,10.5v52.1
	c0,4.3,3.1,8.3,6.8,10.5l45.6,26.1c3.8,2.2,8.6,2.2,12.3,0l44.6-26.1c3.8-2.2,5.7-6.2,5.7-10.5v-52.1C233,167,231.2,163,227.4,160.8
	z M232,223.3c0,1.4,0.6,2.7,0.1,3.9c-0.2,0.5,0,1-0.2,1.5c-0.1,0.3-0.1,0.6-0.3,0.9c-0.2,0.3-0.2,0.6-0.4,0.8
	c-0.4,0.5-0.8,1-1.2,1.5c-0.2,0.2-0.3,0.4-0.6,0.5c-0.4,0.4-0.8,0.7-1.3,1c-0.2,0.2-0.4,0.3-0.7,0.4l-9.7,5.6l-35.1,20.3
	c-0.4,0.2-0.9,0.5-1.3,0.7c-0.2,0.1-0.4,0.2-0.6,0.2c-0.4,0.2-0.9,0.3-1.3,0.4c-0.7,0.2-1.4,0.3-2,0.3c-0.5,0-1,0-1.5,0
	c-1.9-0.1-3.7-0.7-5.3-1.7l-44.7-26h0c-0.7,0-1.4-0.8-1.9-1.3c-0.4-0.4-0.9-0.8-1.2-1.3c-0.6-0.7-1.2-1.6-1.6-2.4
	c-0.2-0.5-0.4-0.9-0.6-1.4c-0.1-0.3-0.7-0.6-0.8-0.9c-0.2-1-0.9-2-0.9-3v-51.8c0-1.4,0.7-2.7,1.1-3.9c0.2-0.5,0.6-1,0.8-1.5
	c0.6-1.2,1.5-2.4,2.5-3.3c0.1-0.1,0.3-0.3,0.5-0.4c0.1-0.1,0.3-0.3,0.5-0.4c0.5-0.4,1-0.7,1.5-1l9.7-5.6l35.1-20.3
	c0.6-0.4,1.2-0.6,1.9-0.9c0.2-0.1,0.4-0.1,0.7-0.2c0.2-0.1,0.5-0.1,0.7-0.2c0.7-0.2,1.4-0.3,2-0.3c0.5,0,1,0,1.5,0
	c1.8,0.1,3.7,1,5.3,1.9l44.7,26.2h0c0.9,1,1.8,0.9,2.5,1.6c0.3,0.4,0.7,0.6,1,1c0.5,0.6,0.9,1.3,1.3,2c0.1,0.2,0.2,0.4,0.3,0.7
	c0.1,0.1,0.1,0.2,0.1,0.3c0,0.1,0.1,0.2,0.1,0.4c0.1,0.1,0.1,0.3,0.1,0.4c0,0.2-0.7,0.3-0.6,0.5c0.2,1-0.4,2-0.4,3V223.3z"/>
<path id="XMLID_2340_" class="st1" d="M227.4,160.8l-44.9-26.1c-3.8-2.2-8.3-2.2-12,0l-45.7,26.1c-3.8,2.2-6.7,6.2-6.7,10.5v52.1
	c0,4.3,3.1,8.3,6.8,10.5l45.6,26.1c3.8,2.2,8.6,2.2,12.3,0l44.6-26.1c3.8-2.2,5.7-6.2,5.7-10.5v-52.1C233,167,231.2,163,227.4,160.8
	z M232,223.3c0,1.4,0.6,2.7,0.1,3.9c-0.2,0.5,0,1-0.2,1.5c-0.1,0.3-0.1,0.6-0.3,0.9c-0.2,0.3-0.2,0.6-0.4,0.8
	c-0.4,0.5-0.8,1-1.2,1.5c-0.2,0.2-0.3,0.4-0.6,0.5c-0.4,0.4-0.8,0.7-1.3,1c-0.2,0.2-0.4,0.3-0.7,0.4l-9.7,5.6l-35.1,20.3
	c-0.4,0.2-0.9,0.5-1.3,0.7c-0.2,0.1-0.4,0.2-0.6,0.2c-0.4,0.2-0.9,0.3-1.3,0.4c-0.7,0.2-1.4,0.3-2,0.3c-0.5,0-1,0-1.5,0
	c-1.9-0.1-3.7-0.7-5.3-1.7l-44.7-26h0c-0.7,0-1.4-0.8-1.9-1.3c-0.4-0.4-0.9-0.8-1.2-1.3c-0.6-0.7-1.2-1.6-1.6-2.4
	c-0.2-0.5-0.4-0.9-0.6-1.4c-0.1-0.3-0.7-0.6-0.8-0.9c-0.2-1-0.9-2-0.9-3v-51.8c0-1.4,0.7-2.7,1.1-3.9c0.2-0.5,0.6-1,0.8-1.5
	c0.6-1.2,1.5-2.4,2.5-3.3c0.1-0.1,0.3-0.3,0.5-0.4c0.1-0.1,0.3-0.3,0.5-0.4c0.5-0.4,1-0.7,1.5-1l9.7-5.6l35.1-20.3
	c0.6-0.4,1.2-0.6,1.9-0.9c0.2-0.1,0.4-0.1,0.7-0.2c0.2-0.1,0.5-0.1,0.7-0.2c0.7-0.2,1.4-0.3,2-0.3c0.5,0,1,0,1.5,0
	c1.8,0.1,3.7,1,5.3,1.9l44.7,26.2h0c0.9,1,1.8,0.9,2.5,1.6c0.3,0.4,0.7,0.6,1,1c0.5,0.6,0.9,1.3,1.3,2c0.1,0.2,0.2,0.4,0.3,0.7
	c0.1,0.1,0.1,0.2,0.1,0.3c0,0.1,0.1,0.2,0.1,0.4c0.1,0.1,0.1,0.3,0.1,0.4c0,0.2-0.7,0.3-0.6,0.5c0.2,1-0.4,2-0.4,3V223.3z"/>
<path id="XMLID_2344_" class="st3" d="M289.5,145.3c0-0.3,0.2-0.6,0.2-0.9c0-0.3,0.1-0.6,0-0.9c-0.1-0.5-0.1-1.1-0.2-1.6
	c-0.2-1-0.4-2.1-0.7-3.1c-0.2-0.5-0.3-1-0.5-1.5c-0.1-0.3-0.2-0.6-0.4-0.9c-0.1-0.2-0.2-0.4-0.3-0.6c-0.1-0.2-0.2-0.4-0.3-0.6
	c-0.1-0.2-0.2-0.5-0.4-0.7c-0.2-0.3-0.3-0.6-0.5-0.9c-0.2-0.3-0.4-0.6-0.6-0.9c-0.2-0.3-0.4-0.6-0.6-0.9c-0.4-0.6-0.8-1.1-1.3-1.6
	c-1.8-2.1-4-3.9-6.4-5.3l-89.2-51.4c-3.5-2-7.4-3.1-11.3-3.2c-0.5,0-1,0-1.4,0c-3.9,0.1-7.8,1.2-11.3,3.2L75.1,125
	c-3.9,2.3-7,5.5-9.2,9.3c-0.1,0.2-0.2,0.4-0.3,0.6c-0.1,0.1-0.1,0.3-0.2,0.4c-0.1,0.2-0.2,0.4-0.3,0.6c-0.1,0.3-0.3,0.6-0.4,0.9
	c0,0.1-0.1,0.1-0.1,0.2c-0.1,0.3-0.2,0.6-0.4,0.9c-0.1,0.4-0.3,0.8-0.4,1.2c-0.1,0.4-0.2,0.8-0.3,1.2c-0.1,0.5-0.7,1-0.8,1.6
	c-0.2,1.3-0.8,2.6-0.8,4v102.9c0,1.3,0.6,2.7,0.8,4c0.1,0.5,0.4,1,0.5,1.6c0.1,0.4,0.3,0.8,0.4,1.2c0.2,0.6,0.5,1.2,0.7,1.9
	c0.1,0.3,0.3,0.7,0.4,1c0,0,0,0,0,0c0.3,0.6,0.5,1.1,0.8,1.6c0.4,0.7,0.8,1.4,1.3,2.1c0.1,0.2,0.2,0.3,0.4,0.5
	c0.6,0.8,1.2,1.6,1.9,2.4c0.3,0.3,0.6,0.6,0.9,0.9c0.6,0.6,1.2,1.1,1.9,1.7c1,0.8,2,1.5,3.1,2.1l89.2,51.4c3.5,2,7.4,3.1,11.3,3.2
	c0.5,0,1,0,1.4,0c3.9-0.1,7.8-1.2,11.3-3.2l89.2-51.4c0.2-0.1,0.5-0.3,0.7-0.4c0.3-0.2,0.5-0.3,0.8-0.5c0,0,0.1,0,0.1-0.1
	c0.2-0.2,0.5-0.3,0.7-0.5c0.2-0.2,0.5-0.4,0.7-0.5c0.3-0.2,0.5-0.4,0.8-0.6c0.3-0.3,0.6-0.6,0.9-0.9c0.3-0.2,0.5-0.5,0.7-0.7
	c0.5-0.5,0.9-1,1.4-1.6c0.2-0.3,0.4-0.6,0.6-0.8c0.1-0.2,0.3-0.4,0.4-0.6c0,0,0.1-0.1,0.1-0.1c0.1-0.2,0.3-0.4,0.4-0.6
	c0.5-0.7,0.9-1.4,1.2-2.2c0.1-0.2,0.2-0.4,0.3-0.6c0.1-0.2,0.2-0.4,0.3-0.6c0.1-0.3,0.2-0.6,0.4-0.9c0.2-0.5,0.4-1,0.5-1.5
	c0.3-1,0.6-2,0.7-3.1c0.1-0.5,0.2-1,0.2-1.6c0-0.3,0.1-0.6,0.1-0.9c0-0.3-0.5-0.6-0.4-0.9c0-0.2-0.5-0.4-0.5-0.6V145.9
	C289,145.7,289.5,145.5,289.5,145.3z M268,237.2c0,8.6-3.9,16.6-11.4,20.9l-68.5,39.8c-7.5,4.3-16.5,4.3-24,0l-68.9-39.8
	c-7.5-4.3-12.2-12.3-12.2-20.9v-79.6c0-8.6,4.8-16.6,12.3-20.9l68.9-39.8c7.5-4.3,16.8-4.3,24.2,0l68.1,39.8
	c7.5,4.3,11.4,12.3,11.4,20.9V237.2z"/>
<path id="XMLID_2348_" class="st1" d="M227.4,160.8l-44.9-26.1c-3.8-2.2-8.3-2.2-12,0l-45.7,26.1c-3.8,2.2-6.7,6.2-6.7,10.5v52.1
	c0,4.3,3.1,8.3,6.8,10.5l45.6,26.1c3.8,2.2,8.6,2.2,12.3,0l44.6-26.1c3.8-2.2,5.7-6.2,5.7-10.5v-52.1C233,167,231.2,163,227.4,160.8
	z M232,223.3c0,1.4,0.6,2.7,0.1,3.9c-0.2,0.5,0,1-0.2,1.5c-0.1,0.3-0.1,0.6-0.3,0.9c-0.2,0.3-0.2,0.6-0.4,0.8
	c-0.4,0.5-0.8,1-1.2,1.5c-0.2,0.2-0.3,0.4-0.6,0.5c-0.4,0.4-0.8,0.7-1.3,1c-0.2,0.2-0.4,0.3-0.7,0.4l-9.7,5.6l-35.1,20.3
	c-0.4,0.2-0.9,0.5-1.3,0.7c-0.2,0.1-0.4,0.2-0.6,0.2c-0.4,0.2-0.9,0.3-1.3,0.4c-0.7,0.2-1.4,0.3-2,0.3c-0.5,0-1,0-1.5,0
	c-1.9-0.1-3.7-0.7-5.3-1.7l-44.7-26h0c-0.7,0-1.4-0.8-1.9-1.3c-0.4-0.4-0.9-0.8-1.2-1.3c-0.6-0.7-1.2-1.6-1.6-2.4
	c-0.2-0.5-0.4-0.9-0.6-1.4c-0.1-0.3-0.7-0.6-0.8-0.9c-0.2-1-0.9-2-0.9-3v-51.8c0-1.4,0.7-2.7,1.1-3.9c0.2-0.5,0.6-1,0.8-1.5
	c0.6-1.2,1.5-2.4,2.5-3.3c0.1-0.1,0.3-0.3,0.5-0.4c0.1-0.1,0.3-0.3,0.5-0.4c0.5-0.4,1-0.7,1.5-1l9.7-5.6l35.1-20.3
	c0.6-0.4,1.2-0.6,1.9-0.9c0.2-0.1,0.4-0.1,0.7-0.2c0.2-0.1,0.5-0.1,0.7-0.2c0.7-0.2,1.4-0.3,2-0.3c0.5,0,1,0,1.5,0
	c1.8,0.1,3.7,1,5.3,1.9l44.7,26.2h0c0.9,1,1.8,0.9,2.5,1.6c0.3,0.4,0.7,0.6,1,1c0.5,0.6,0.9,1.3,1.3,2c0.1,0.2,0.2,0.4,0.3,0.7
	c0.1,0.1,0.1,0.2,0.1,0.3c0,0.1,0.1,0.2,0.1,0.4c0.1,0.1,0.1,0.3,0.1,0.4c0,0.2-0.7,0.3-0.6,0.5c0.2,1-0.4,2-0.4,3V223.3z"/>
<path id="XMLID_2356_" class="st1" d="M261.9,153c0,0.1,0,0.1,0.1,0.2c0,0,0,0.1,0.1,0.1C261.9,153.3,261.9,153.1,261.9,153z
	 M261.7,152.6c-0.1-0.3-0.3-0.6-0.4-0.9C261.4,152,261.5,152.2,261.7,152.6c0,0.1,0.1,0.3,0.2,0.5c0-0.1-0.1-0.1-0.1-0.2
	C261.7,152.7,261.7,152.7,261.7,152.6z M260.8,150.9C260.8,150.9,260.8,150.9,260.8,150.9C260.8,150.9,260.8,150.9,260.8,150.9
	L260.8,150.9z M260.8,150.7C260.8,150.7,260.8,150.7,260.8,150.7c0,0,0,0.1,0.1,0.1C260.8,150.8,260.8,150.7,260.8,150.7
	L260.8,150.7z M260.6,150.3C260.6,150.3,260.5,150.3,260.6,150.3c0,0.1,0,0.1,0.1,0.2C260.6,150.5,260.6,150.4,260.6,150.3
	C260.6,150.3,260.6,150.3,260.6,150.3z M259.2,147.9C259.2,147.9,259.2,147.9,259.2,147.9C259.2,147.9,259.2,147.9,259.2,147.9
	C259.2,147.9,259.2,147.9,259.2,147.9z M258.3,146.6c0.1,0.1,0.2,0.2,0.2,0.3l0,0c0,0,0,0,0-0.1
	C258.4,146.8,258.3,146.7,258.3,146.6z M257.9,146.2C257.9,146.2,257.9,146.2,257.9,146.2c-0.1-0.1-0.1-0.1-0.1-0.1c0,0-0.1,0-0.1,0
	c0,0,0,0,0,0C257.8,146.2,257.8,146.2,257.9,146.2C257.9,146.2,257.9,146.2,257.9,146.2L257.9,146.2
	C257.9,146.2,257.9,146.2,257.9,146.2c0.1,0.2,0.2,0.3,0.3,0.4C258.2,146.5,258.1,146.4,257.9,146.2L257.9,146.2z M256.8,136.7
	l-68.3-39.8c-7.5-4.3-16.5-4.3-24,0l-69.2,39.8C87.9,141,83,149,83,157.6v79.6c0,8.6,5,16.6,12.4,20.9l68.9,39.8
	c7.5,4.3,16.8,4.3,24.3,0l68.1-39.8c7.5-4.3,11.3-12.3,11.3-20.9v-79.6C268,149,264.3,141,256.8,136.7z M262,233.4
	c0,1.4,0.6,2.7,0.4,4c-0.1,0.5,0.2,1,0,1.5c-0.1,0.4,0,0.8-0.1,1.2c-0.1,0.4-0.2,0.8-0.3,1.2c-0.1,0.3-0.2,0.7-0.3,1
	c-0.3,0.6-0.5,1.2-0.8,1.8c-0.1,0.3-0.3,0.6-0.5,0.9c-0.3,0.6-0.7,1.1-1,1.7c-0.4,0.5-0.8,1.1-1.2,1.6c0,0,0,0,0,0
	c0,0-0.1,0.1-0.1,0.1c-0.6,0.7-1.2,1.5-1.9,2.2c-0.1,0.1-0.2,0.1-0.3,0.2c0,0-0.1,0-0.1,0.1c-0.1,0.1-0.1,0.1-0.2,0.1c0,0,0,0,0,0
	c-0.1,0.1-0.2,0.5-0.2,0.5h0c-0.5,0-1,0.6-1.5,1c-0.8,0.6-1.7,1.3-2.7,1.9l-62.3,35.9c-3.5,2.1-7.5,3.1-11.5,3.2c-0.5,0-1,0-1.4,0
	c-4-0.1-7.9-1.2-11.5-3.2l-62.2-36c-0.1-0.1-0.2-0.1-0.4-0.2c-0.9-0.5-1.7-1.1-2.5-1.7c-0.2-0.2-0.4-0.3-0.6-0.5c0,0,0,0.1,0,0.1
	c-0.2-0.2-0.4-0.3-0.5-0.3h0c-0.1,0-0.3-0.4-0.4-0.5c-0.1-0.1-0.3-0.3-0.4-0.4c-0.2-0.1-0.3-0.3-0.5-0.5c0,0-0.1-0.1-0.1-0.1l0,0
	c-0.1-0.1-0.2-0.2-0.4-0.3c0,0-0.1-0.1-0.1-0.1c0,0-0.1-0.1-0.1-0.1c0,0-0.7,0-0.7-0.1c0,0-0.6,0-0.6,0v0c0,0,0-0.1,0-0.1v0l0.5,0
	c-0.1-0.1,0.1-0.3,0-0.4c0-0.1,0.1-0.1,0-0.1c0,0,0,0,0-0.1c-0.1-0.1-0.2-0.2-0.3-0.3c-0.1-0.1-0.1-0.1-0.1-0.1c0,0,0,0.4,0,0.3
	c-0.1-0.2-0.2,0-0.4,0h0c0,0,0-0.4,0-0.4c0,0-0.1-0.4-0.1-0.4c-0.1-0.1-0.1-0.3-0.2-0.4c0-0.1-0.1-0.2-0.2-0.2c0,0-0.1-0.1-0.1-0.1
	c0,0-0.5-0.1-0.5-0.1c0,0-0.7-0.1-0.7-0.2v0c0-0.1,0.8-0.1,0.8-0.1H93c0,0,0-0.3,0-0.3v0c0,0,0.4,0.1,0.4,0.1c0,0,0.4,0.2,0.4,0.2
	c0,0,0,0,0,0s-0.7-0.3-0.7-0.3v0.3h0.7l-0.7-0.3v0l0.3-0.1c0-0.1,0.1-0.1,0.1-0.2c0,0,0.1-0.1,0-0.1c0-0.1,0-0.1-0.1-0.2
	c0-0.1,0-0.1-0.1-0.1H92v0c0,0,0,0,0,0c0,0,0.5,0,0.6,0c0,0,0.3-0.1,0.3-0.1c0,0,0.2,0,0.2,0c0,0,0.1,0,0.2,0c0,0-0.1-0.1-0.1-0.1
	c0,0-0.1,0-0.1,0c0,0,0,0,0,0c0-0.3-0.2-0.6-0.3-0.9c-0.1-0.1-0.1-0.3-0.1-0.4c-0.1-0.1-0.1-0.3-0.2-0.4c-0.5-1-0.9-2.1-1.2-3.2
	c-0.3-1-0.5-2-0.7-3.1c-0.1-0.6-0.2-1.1-0.2-1.7c0-0.2-0.6-0.4-0.6-0.6c-0.1-0.6-0.6-1.2-0.6-1.8v-72c0-1.4,0.7-2.7,0.9-4
	c0.2-1,0.7-2.1,1-3.1c0.3-1.1,0.9-2.1,1.4-3.2c0.1-0.3,0.3-0.6,0.5-0.8c0.3-0.5,0.6-1,0.9-1.5c2.1-3.4,5.1-6.3,8.6-8.4l62.3-36
	c3.5-2.1,7.5-3.1,11.5-3.2c0.5,0,1,0,1.5,0c4,0.1,7.9,1.2,11.5,3.2l62.3,36c0.1,0.1,0.2,0.1,0.3,0.2c0.1,0,0.1,0.1,0.2,0.1
	c0,0,0,0,0.1,0c0.1,0,0.1,0.1,0.2,0.1c0.1,0.1,0.3,0.2,0.4,0.3c0.2,0.1,0.4,0.3,0.6,0.4c0,0,0.1,0,0.1,0.1c0.2,0.2,0.5,0.3,0.7,0.5
	c0.1,0.1,0.2,0.2,0.4,0.3c0.2,0.2,0.4,0.3,0.6,0.5c0,0,0,0,0,0c0,0,0.1,0.1,0.1,0.1c0.2,0.2,0.4,0.4,0.6,0.6c0,0,0,0,0,0
	c0,0,0.1,0,0.1,0.1c0,0,0,0,0,0c0,0,0,0.1,0.1,0.1c0,0,0.1,0.1,0.1,0.1c0.1,0.1,0.2,0.2,0.3,0.3c0,0,0.1,0.1,0.1,0.1c0,0,0,0,0,0
	c0,0,0,0,0,0.1c0.1,0.1,0.2,0.2,0.3,0.3c0,0,0,0,0,0c0.1,0.1,0.1,0.1,0.2,0.2c0,0,0,0,0,0c0,0,0.1,0.1,0.1,0.1c0,0,0.1,0.1,0.1,0.1
	c0,0-0.6,0-0.6,0c0,0-0.5,0-0.5,0.1v0c0,0,0.7,0.1,0.7,0.1l0.3,0c0.1,0.1,0.3,0.2,0.4,0.3c0,0,0.1,0,0.1,0c0,0,0.1,0.1,0.1,0.2
	c0,0,0,0.2,0,0.2c0,0,0.1,0.4,0.1,0.4c0,0,0,0,0,0c0,0,0-0.3,0-0.3c0,0,0.1,0.1,0.1,0.1c0,0,0,0.1,0,0.1h0c0,0,0-0.2,0-0.2
	c0.1,0.1,0.2,0.2,0.3,0.3c0.1,0.1,0.2,0.2,0.2,0.3l0,0c0,0,0,0.3,0,0.3c0,0,0,0.3,0,0.3h0c0,0-0.3-0.2-0.3-0.2c0,0-0.3-0.3-0.3-0.3
	V147l0,0v0.1c0,0,0,0.1,0,0.1c0,0,0,0,0,0c0,0,0.4,0,0.4,0c0,0,0.2,0.1,0.3,0.1c0,0,0.2,0.1,0.2,0.1c0,0,0.1,0.1,0.1,0.1
	c0,0,0,0,0,0c0,0,0,0.5,0.1,0.5c0,0,0,0.5,0,0.5h0c0,0,0-0.4,0-0.4c0,0,0-0.2,0-0.2c0,0,0-0.1,0-0.1c0,0,0,0,0,0c0,0,0,0,0,0
	c0,0,0,0,0,0c0,0,0,0,0.1,0.1c0,0,0,0,0,0c0.1,0.1,0.1,0.2,0.2,0.2c0,0,0,0,0,0.1c0,0,0.1,0.1,0.1,0.2c0,0,0.1,0.2,0.1,0.2
	c0,0,0,0,0,0h0c0,0,0,0,0.1,0.1l0-0.1h0c0,0,0.1,0.1,0.1,0.2c0,0,0,0,0,0c0,0,0,0,0,0c0.1,0.1,0.1,0.1,0.2,0.2c0,0,0,0,0,0
	c0,0,0,0,0.1,0c0,0,0,0,0,0.1c0,0.1,0.1,0.3,0.1,0.3c0,0,0.1,0.2,0.1,0.2H259v-0.4c0,0,0.6,0.1,0.7,0.1c0,0.1,0.3,0.1,0.3,0.1
	c0,0.1,0.2,0.1,0.2,0.2c0,0,0.1,0.1,0.1,0.1c0,0,0.1,0,0.1,0c0,0.1-0.7,0.1-0.7,0.1c0,0-0.7,0.1-0.7,0.1c0,0,0,0.6,0,0.6h1.4
	c0,0,0-0.2,0-0.2c0,0-0.7-0.1-0.7,0c0,0-0.7-0.1-0.7-0.1v0c0,0,0.8,0,0.8,0c0,0.1,0.4,0.1,0.5,0.2c0,0,0.2,0,0.2,0
	c0,0,0.1,0.1,0.1,0.1c0,0,0.1,0,0.1,0c0,0,0,0,0,0c0,0,0,0,0,0c0,0,0,0.1,0.1,0.1c0,0,0,0,0,0c0,0,0,0,0,0c0.1,0.3,0.3,0.5,0.4,0.8
	c0,0,0,0,0,0c0.1,0.3,0.2,0.5,0.3,0.8c0.1,0.2,0.2,0.4,0.2,0.6c0,0.1,0,0.1,0.1,0.2c0,0,0,0.1,0.1,0.1c0,0,0,0.1,0.1,0.1
	c0.1,0.4,0.3,0.8,0.4,1.2c0,0.1,0.1,0.2,0.1,0.3c0,0.1,0.1,0.2,0.1,0.3c0.1,0.2,0.1,0.4,0.1,0.6c0.1,0.5-0.5,1-0.4,1.5
	c0.2,1.3-0.4,2.6-0.4,4V233.4z"/>
<path id="XMLID_2368_" class="st1" d="M227.4,160.8l-44.9-26.1c-3.8-2.2-8.3-2.2-12,0l-45.7,26.1c-3.8,2.2-6.7,6.2-6.7,10.5v52.1
	c0,4.3,3.1,8.3,6.8,10.5l45.6,26.1c3.8,2.2,8.6,2.2,12.3,0l44.6-26.1c3.8-2.2,5.7-6.2,5.7-10.5v-52.1C233,167,231.2,163,227.4,160.8
	z M232,223.3c0,1.4,0.6,2.7,0.1,3.9c-0.2,0.5,0,1-0.2,1.5c-0.1,0.3-0.1,0.6-0.3,0.9c-0.2,0.3-0.2,0.6-0.4,0.8
	c-0.4,0.5-0.8,1-1.2,1.5c-0.2,0.2-0.3,0.4-0.6,0.5c-0.4,0.4-0.8,0.7-1.3,1c-0.2,0.2-0.4,0.3-0.7,0.4l-9.7,5.6l-35.1,20.3
	c-0.4,0.2-0.9,0.5-1.3,0.7c-0.2,0.1-0.4,0.2-0.6,0.2c-0.4,0.2-0.9,0.3-1.3,0.4c-0.7,0.2-1.4,0.3-2,0.3c-0.5,0-1,0-1.5,0
	c-1.9-0.1-3.7-0.7-5.3-1.7l-44.7-26h0c-0.7,0-1.4-0.8-1.9-1.3c-0.4-0.4-0.9-0.8-1.2-1.3c-0.6-0.7-1.2-1.6-1.6-2.4
	c-0.2-0.5-0.4-0.9-0.6-1.4c-0.1-0.3-0.7-0.6-0.8-0.9c-0.2-1-0.9-2-0.9-3v-51.8c0-1.4,0.7-2.7,1.1-3.9c0.2-0.5,0.6-1,0.8-1.5
	c0.6-1.2,1.5-2.4,2.5-3.3c0.1-0.1,0.3-0.3,0.5-0.4c0.1-0.1,0.3-0.3,0.5-0.4c0.5-0.4,1-0.7,1.5-1l9.7-5.6l35.1-20.3
	c0.6-0.4,1.2-0.6,1.9-0.9c0.2-0.1,0.4-0.1,0.7-0.2c0.2-0.1,0.5-0.1,0.7-0.2c0.7-0.2,1.4-0.3,2-0.3c0.5,0,1,0,1.5,0
	c1.8,0.1,3.7,1,5.3,1.9l44.7,26.2h0c0.9,1,1.8,0.9,2.5,1.6c0.3,0.4,0.7,0.6,1,1c0.5,0.6,0.9,1.3,1.3,2c0.1,0.2,0.2,0.4,0.3,0.7
	c0.1,0.1,0.1,0.2,0.1,0.3c0,0.1,0.1,0.2,0.1,0.4c0.1,0.1,0.1,0.3,0.1,0.4c0,0.2-0.7,0.3-0.6,0.5c0.2,1-0.4,2-0.4,3V223.3z"/>
<path id="XMLID_2372_" class="st1" d="M232.4,168.5c0-0.2,0.3-0.3,0.2-0.5c-0.1-0.1,0.1-0.3,0-0.4c0-0.1,0-0.3,0-0.4
	c0-0.1,0-0.2-0.1-0.4c-0.1-0.2-0.2-0.5-0.3-0.7c-0.4-0.7-0.8-1.4-1.3-2.1c-0.3-0.4-0.6-0.5-1-0.9c-0.7-0.8-1.6-0.6-2.5-1.6h0
	l-44.7-26.2c-1.6-0.9-3.5-1.6-5.3-1.8c-0.5,0-1-0.1-1.5-0.1c-0.7,0-1.4,0.1-2,0.3c-0.2,0.1-0.5,0.1-0.7,0.2
	c-0.2,0.1-0.4,0.1-0.6,0.2c-0.6,0.2-1.3,0.5-1.9,0.9l-35.1,20.3l-9.7,5.6c-0.5,0.3-1,0.6-1.5,1c-0.2,0.1-0.3,0.2-0.5,0.4
	c-0.1,0.1-0.3,0.3-0.4,0.4c-1,1-1.8,2.1-2.4,3.3c-0.2,0.5-0.9,1-1,1.5c-0.4,1.2-1.1,2.6-1.1,3.9v51.8c0,1,0.6,2,0.8,3
	c0.1,0.3,0.4,0.6,0.5,0.9c0.2,0.5,0.5,1,0.7,1.4c0.4,0.9,1,1.7,1.6,2.4c0.4,0.4,0.8,0.9,1.3,1.3c0.6,0.5,1.3,1.3,2,1.3h0l44.7,26
	c1.6,0.9,3.5,1.5,5.3,1.7c0.5,0,1,0,1.5,0c0.7,0,1.4-0.1,2-0.3c0.4-0.1,0.9-0.2,1.3-0.4c0.2-0.1,0.4-0.2,0.6-0.2
	c0.4-0.2,0.9-0.4,1.3-0.7l35.1-20.3l9.7-5.6c0.2-0.1,0.5-0.3,0.7-0.4c0.4-0.3,0.9-0.6,1.3-1c0.2-0.2,0.4-0.4,0.6-0.5
	c0.5-0.5,0.9-1,1.3-1.5c0.2-0.3,0.4-0.5,0.5-0.8c0.2-0.3,0.3-0.6,0.5-0.9c0.2-0.5-0.3-1-0.1-1.5c0.4-1.2-0.1-2.6-0.1-3.9v-51.8
	C232,170.5,232.6,169.5,232.4,168.5z M223,217.4c0,4.3-2.1,8.4-5.9,10.5l-34.5,20c-3.8,2.2-8.4,2.2-12.1,0l-35.5-20
	c-3.8-2.2-7-6.2-7-10.5v-40c0-4.3,3.3-8.4,7-10.5l35.1-20c3.7-2.2,8.6-2.2,12.4,0l34.5,20c3.8,2.2,6,6.2,6,10.5V217.4z"/>
<path id="XMLID_2510_" class="st0" d="M184.7,191.3l-7.7-4.5c-0.8-0.5-1.9-0.5-2.7,0l-7.8,4.5c-0.8,0.5-1.4,1.4-1.4,2.4v9
	c0,1,0.6,1.9,1.5,2.4l7.9,4.5c0.8,0.5,1.9,0.5,2.8,0l7.7-4.5c0.8-0.5,1.3-1.4,1.3-2.4v-9C186,192.7,185.6,191.8,184.7,191.3z
	 M185,202.2c0,1-0.3,1.9-1.1,2.4l-6.9,4.1c-0.8,0.5-1.8,0.5-2.7,0l-7-4.1c-0.8-0.5-1.3-1.4-1.3-2.4v-8.1c0-1,0.5-1.9,1.3-2.4l7-4.1
	c0.8-0.5,1.9-0.5,2.7,0l6.8,4.1c0.8,0.5,1.1,1.4,1.1,2.4V202.2z"/>
<path id="XMLID_2506_" class="st1" d="M186.9,189.9l-10-5.9c-0.8-0.5-1.8-0.5-2.7,0l-10,5.9c-0.8,0.5-1.2,1.4-1.2,2.4V204
	c0,1,0.4,1.9,1.3,2.4l10.1,5.9c0.8,0.5,1.9,0.5,2.7,0l9.8-5.9c0.8-0.5,1.1-1.4,1.1-2.4v-11.7C188,191.3,187.8,190.4,186.9,189.9z
	 M188,204c0,0.3,0.2,0.6,0.1,0.9c0,0.1,0,0.2,0,0.3c0,0.1,0,0.1,0,0.2c0,0.1,0,0.1-0.1,0.2c-0.1,0.1-0.2,0.2-0.3,0.3
	c0,0-0.1,0.1-0.1,0.1c-0.1,0.1-0.2,0.2-0.3,0.2c-0.1,0-0.1,0.1-0.2,0.1l-2.2,1.3l-7.9,4.6c-0.1,0.1-0.2,0.1-0.3,0.1
	c0,0-0.1,0-0.1,0.1c-0.1,0-0.2,0.1-0.3,0.1c-0.2,0-0.3,0.1-0.5,0.1c-0.1,0-0.2,0-0.3,0c-0.4,0-0.8,0-1.2-0.2l-10-5.7h0
	c-0.2,0-0.3-0.3-0.4-0.5c-0.1-0.1-0.2-0.3-0.3-0.4c-0.1-0.2-0.3-0.4-0.4-0.6c-0.1-0.1-0.1-0.2-0.1-0.3c0-0.1,0-0.1,0-0.2
	c-0.1-0.2-0.1-0.4-0.1-0.7v-11.6c0-0.3,0-0.6,0.1-0.9c0-0.1,0.1-0.2,0.1-0.3c0.1-0.3,0.3-0.5,0.5-0.7c0,0,0.1-0.1,0.1-0.1
	s0.1-0.1,0.1-0.1c0.1-0.1,0.2-0.2,0.3-0.2l2.2-1.3l7.9-4.6c0.1-0.1,0.3-0.1,0.4-0.2c0,0,0.1,0,0.1,0c0.1,0,0.1,0,0.2,0
	c0.2,0,0.3-0.1,0.5-0.1c0.1,0,0.2,0,0.3,0c0.4,0,0.8,0.5,1.2,0.7l10,6.1h0c0.2,0,0.4-0.1,0.6,0.1c0.1,0.1,0.2,0,0.2,0.1
	c0.1,0.1,0.2,0.2,0.3,0.4c0,0.1,0.1,0.1,0.1,0.1c0,0,0,0,0,0.1c0,0,0,0,0,0.1c0,0,0,0.1,0,0.1c0,0-0.2,0.1-0.2,0.1
	c0.1,0.2-0.2,0.4-0.2,0.7V204z"/>
<path id="XMLID_2502_" class="st1" d="M186.9,189.9l-10-5.9c-0.8-0.5-1.8-0.5-2.7,0l-10,5.9c-0.8,0.5-1.2,1.4-1.2,2.4V204
	c0,1,0.4,1.9,1.3,2.4l10.1,5.9c0.8,0.5,1.9,0.5,2.7,0l9.8-5.9c0.8-0.5,1.1-1.4,1.1-2.4v-11.7C188,191.3,187.8,190.4,186.9,189.9z
	 M188,204c0,0.3,0.2,0.6,0.1,0.9c0,0.1,0,0.2,0,0.3c0,0.1,0,0.1,0,0.2c0,0.1,0,0.1-0.1,0.2c-0.1,0.1-0.2,0.2-0.3,0.3
	c0,0-0.1,0.1-0.1,0.1c-0.1,0.1-0.2,0.2-0.3,0.2c-0.1,0-0.1,0.1-0.2,0.1l-2.2,1.3l-7.9,4.6c-0.1,0.1-0.2,0.1-0.3,0.1
	c0,0-0.1,0-0.1,0.1c-0.1,0-0.2,0.1-0.3,0.1c-0.2,0-0.3,0.1-0.5,0.1c-0.1,0-0.2,0-0.3,0c-0.4,0-0.8,0-1.2-0.2l-10-5.7h0
	c-0.2,0-0.3-0.3-0.4-0.5c-0.1-0.1-0.2-0.3-0.3-0.4c-0.1-0.2-0.3-0.4-0.4-0.6c-0.1-0.1-0.1-0.2-0.1-0.3c0-0.1,0-0.1,0-0.2
	c-0.1-0.2-0.1-0.4-0.1-0.7v-11.6c0-0.3,0-0.6,0.1-0.9c0-0.1,0.1-0.2,0.1-0.3c0.1-0.3,0.3-0.5,0.5-0.7c0,0,0.1-0.1,0.1-0.1
	s0.1-0.1,0.1-0.1c0.1-0.1,0.2-0.2,0.3-0.2l2.2-1.3l7.9-4.6c0.1-0.1,0.3-0.1,0.4-0.2c0,0,0.1,0,0.1,0c0.1,0,0.1,0,0.2,0
	c0.2,0,0.3-0.1,0.5-0.1c0.1,0,0.2,0,0.3,0c0.4,0,0.8,0.5,1.2,0.7l10,6.1h0c0.2,0,0.4-0.1,0.6,0.1c0.1,0.1,0.2,0,0.2,0.1
	c0.1,0.1,0.2,0.2,0.3,0.4c0,0.1,0.1,0.1,0.1,0.1c0,0,0,0,0,0.1c0,0,0,0,0,0.1c0,0,0,0.1,0,0.1c0,0-0.2,0.1-0.2,0.1
	c0.1,0.2-0.2,0.4-0.2,0.7V204z"/>
<path id="XMLID_2498_" class="st1" d="M186.9,189.9l-10-5.9c-0.8-0.5-1.8-0.5-2.7,0l-10,5.9c-0.8,0.5-1.2,1.4-1.2,2.4V204
	c0,1,0.4,1.9,1.3,2.4l10.1,5.9c0.8,0.5,1.9,0.5,2.7,0l9.8-5.9c0.8-0.5,1.1-1.4,1.1-2.4v-11.7C188,191.3,187.8,190.4,186.9,189.9z
	 M188,204c0,0.3,0.2,0.6,0.1,0.9c0,0.1,0,0.2,0,0.3c0,0.1,0,0.1,0,0.2c0,0.1,0,0.1-0.1,0.2c-0.1,0.1-0.2,0.2-0.3,0.3
	c0,0-0.1,0.1-0.1,0.1c-0.1,0.1-0.2,0.2-0.3,0.2c-0.1,0-0.1,0.1-0.2,0.1l-2.2,1.3l-7.9,4.6c-0.1,0.1-0.2,0.1-0.3,0.1
	c0,0-0.1,0-0.1,0.1c-0.1,0-0.2,0.1-0.3,0.1c-0.2,0-0.3,0.1-0.5,0.1c-0.1,0-0.2,0-0.3,0c-0.4,0-0.8,0-1.2-0.2l-10-5.7h0
	c-0.2,0-0.3-0.3-0.4-0.5c-0.1-0.1-0.2-0.3-0.3-0.4c-0.1-0.2-0.3-0.4-0.4-0.6c-0.1-0.1-0.1-0.2-0.1-0.3c0-0.1,0-0.1,0-0.2
	c-0.1-0.2-0.1-0.4-0.1-0.7v-11.6c0-0.3,0-0.6,0.1-0.9c0-0.1,0.1-0.2,0.1-0.3c0.1-0.3,0.3-0.5,0.5-0.7c0,0,0.1-0.1,0.1-0.1
	s0.1-0.1,0.1-0.1c0.1-0.1,0.2-0.2,0.3-0.2l2.2-1.3l7.9-4.6c0.1-0.1,0.3-0.1,0.4-0.2c0,0,0.1,0,0.1,0c0.1,0,0.1,0,0.2,0
	c0.2,0,0.3-0.1,0.5-0.1c0.1,0,0.2,0,0.3,0c0.4,0,0.8,0.5,1.2,0.7l10,6.1h0c0.2,0,0.4-0.1,0.6,0.1c0.1,0.1,0.2,0,0.2,0.1
	c0.1,0.1,0.2,0.2,0.3,0.4c0,0.1,0.1,0.1,0.1,0.1c0,0,0,0,0,0.1c0,0,0,0,0,0.1c0,0,0,0.1,0,0.1c0,0-0.2,0.1-0.2,0.1
	c0.1,0.2-0.2,0.4-0.2,0.7V204z"/>
<path id="XMLID_2494_" class="st1" d="M186.9,189.9l-10-5.9c-0.8-0.5-1.8-0.5-2.7,0l-10,5.9c-0.8,0.5-1.2,1.4-1.2,2.4V204
	c0,1,0.4,1.9,1.3,2.4l10.1,5.9c0.8,0.5,1.9,0.5,2.7,0l9.8-5.9c0.8-0.5,1.1-1.4,1.1-2.4v-11.7C188,191.3,187.8,190.4,186.9,189.9z
	 M188,204c0,0.3,0.2,0.6,0.1,0.9c0,0.1,0,0.2,0,0.3c0,0.1,0,0.1,0,0.2c0,0.1,0,0.1-0.1,0.2c-0.1,0.1-0.2,0.2-0.3,0.3
	c0,0-0.1,0.1-0.1,0.1c-0.1,0.1-0.2,0.2-0.3,0.2c-0.1,0-0.1,0.1-0.2,0.1l-2.2,1.3l-7.9,4.6c-0.1,0.1-0.2,0.1-0.3,0.1
	c0,0-0.1,0-0.1,0.1c-0.1,0-0.2,0.1-0.3,0.1c-0.2,0-0.3,0.1-0.5,0.1c-0.1,0-0.2,0-0.3,0c-0.4,0-0.8,0-1.2-0.2l-10-5.7h0
	c-0.2,0-0.3-0.3-0.4-0.5c-0.1-0.1-0.2-0.3-0.3-0.4c-0.1-0.2-0.3-0.4-0.4-0.6c-0.1-0.1-0.1-0.2-0.1-0.3c0-0.1,0-0.1,0-0.2
	c-0.1-0.2-0.1-0.4-0.1-0.7v-11.6c0-0.3,0-0.6,0.1-0.9c0-0.1,0.1-0.2,0.1-0.3c0.1-0.3,0.3-0.5,0.5-0.7c0,0,0.1-0.1,0.1-0.1
	s0.1-0.1,0.1-0.1c0.1-0.1,0.2-0.2,0.3-0.2l2.2-1.3l7.9-4.6c0.1-0.1,0.3-0.1,0.4-0.2c0,0,0.1,0,0.1,0c0.1,0,0.1,0,0.2,0
	c0.2,0,0.3-0.1,0.5-0.1c0.1,0,0.2,0,0.3,0c0.4,0,0.8,0.5,1.2,0.7l10,6.1h0c0.2,0,0.4-0.1,0.6,0.1c0.1,0.1,0.2,0,0.2,0.1
	c0.1,0.1,0.2,0.2,0.3,0.4c0,0.1,0.1,0.1,0.1,0.1c0,0,0,0,0,0.1c0,0,0,0,0,0.1c0,0,0,0.1,0,0.1c0,0-0.2,0.1-0.2,0.1
	c0.1,0.2-0.2,0.4-0.2,0.7V204z"/>
<path id="XMLID_2482_" class="st1" d="M210.9,172.9l-31.1-18c-2.6-1.5-5.8-1.5-8.4,0l-31.2,18c-2.6,1.5-4.3,4.3-4.3,7.3v36
	c0,3,1.7,5.8,4.3,7.3l31.2,18c2.6,1.5,5.8,1.5,8.4,0l31-18c2.6-1.5,4.1-4.3,4.1-7.3v-36C215,177.1,213.5,174.4,210.9,172.9z
	 M215,216c0,0.5,0,0.9-0.1,1.4c0,0.2-0.1,0.4-0.1,0.5c0,0.2-0.1,0.4-0.1,0.5c0,0.1,0,0.1-0.1,0.2c0,0.1-0.1,0.3-0.1,0.4
	c0,0.1,0,0.1-0.1,0.2c-0.4,1-1,1.9-1.8,2.7c-0.5,0.5-1.1,1-1.8,1.3l-30.9,17.9c-0.2,0.1-0.5,0.3-0.7,0.4c0,0,0,0,0,0
	c-0.1,0.1-0.3,0.1-0.4,0.2c-0.1,0-0.1,0.1-0.2,0.1c-0.1,0-0.1,0.1-0.2,0.1c-0.5,0.2-1,0.3-1.6,0.4c-0.7,0.1-1.4,0.1-2.2,0
	c-1.1-0.1-2.1-0.3-3.1-0.9l-30.9-17.7h0c-0.6,0-1.2-1-1.7-1.5c0,0,0-0.1-0.1-0.1c0,0-0.1-0.1-0.1-0.2c0-0.1-0.1-0.1-0.1-0.2
	c0,0-0.1-0.1-0.1-0.1c0,0,0,0-0.1-0.1c0,0,0,0-0.1-0.1l0,0c0,0,0,0,0,0c0,0,0-0.1-0.1-0.1c-0.1-0.2-0.5-0.3-0.6-0.5
	c-0.9-1.4-1.6-3-1.6-4.7v-35.7c0-1.7,0.7-3.3,1.6-4.7c0.2-0.2,0.4-0.4,0.6-0.7c0.1-0.1,0.3-0.3,0.4-0.4c0.1-0.1,0.2-0.1,0.2-0.2
	c0.5-0.5,1.1-1,1.8-1.3l30.9-17.9c0.1-0.1,0.2-0.1,0.3-0.1c0.1,0,0.2-0.1,0.3-0.1c0.1,0,0.1-0.1,0.2-0.1c0.1,0,0.2-0.1,0.2-0.1
	c0.1,0,0.1-0.1,0.2-0.1c0.1-0.1,0.3-0.1,0.4-0.1c0.3-0.1,0.6-0.2,0.9-0.2c0.1,0,0.2,0,0.4-0.1c0.1,0,0.2,0,0.3,0
	c0.7-0.1,1.4-0.1,2.2,0c1.1,0.1,2.1,0.8,3.1,1.4l30.9,18.2h0c0.2,0,0.3-0.1,0.5,0c0.1,0,0.1-0.1,0.2,0c0.4,0.3,0.8,0.5,1.1,0.9
	c0.4,0.4,0.7,0.8,1,1.2c0,0.1,0.2,0.1,0.2,0.2c0.1,0.1,0.2,0.2,0.2,0.3v0c0,0.1,0,0.2,0.1,0.2c0.1,0.2,0.2,0.5,0.3,0.7
	c0.1,0.1,0.1,0.2,0.1,0.4c0,0,0,0,0,0c0,0.1,0,0.1,0.1,0.2c0,0.1,0,0.1,0.1,0.2c0.1,0.2,0.1,0.3,0.1,0.5c0,0,0,0,0,0
	c0,0.2,0.1,0.3,0.1,0.5c0.1,0.5,0.1,0.9,0.1,1.4V216z"/>
<path id="XMLID_2470_" class="st1" d="M214.9,178.9c0-0.2-0.1-0.3-0.1-0.5c0,0,0,0,0,0c0-0.2-0.1-0.4-0.1-0.5c0-0.1,0-0.1-0.1-0.2
	c0-0.1,0-0.1-0.1-0.2c0,0,0,0,0,0c0-0.1-0.1-0.3-0.2-0.4c-0.1-0.2-0.2-0.5-0.3-0.7c0-0.1-0.1-0.2-0.1-0.2v0c0-0.1-0.2-0.2-0.2-0.3
	c0-0.1-0.1-0.1-0.2-0.2c-0.3-0.4-0.6-0.9-1-1.2c-0.3-0.3-0.7-0.7-1.1-0.9c-0.1,0-0.1,0.2-0.2,0.2c-0.2-0.1-0.3,0-0.5,0h0l-30.9-18.2
	c-1-0.6-2-1.1-3.1-1.2c-0.7-0.1-1.4-0.2-2.2-0.1c-0.1,0-0.2,0-0.3,0c-0.1,0-0.2,0-0.4,0c-0.3,0.1-0.6,0.1-0.9,0.2
	c-0.1,0-0.3,0.1-0.4,0.1c-0.1,0-0.1,0.1-0.2,0.1c-0.1,0-0.2,0.1-0.2,0.1c-0.1,0-0.1,0.1-0.2,0.1c-0.1,0-0.2,0.1-0.3,0.1
	c-0.1,0-0.2,0.1-0.3,0.1L140.6,173c-0.6,0.4-1.2,0.8-1.7,1.3c-0.1,0.1-0.1,0.1-0.2,0.2c-0.1,0.1-0.2,0.3-0.4,0.4
	c-0.2,0.2-0.5,0.4-0.7,0.7c-0.9,1.4-1.6,3-1.6,4.7V216c0,1.7,0.7,3.3,1.6,4.7c0.1,0.2,0.3,0.3,0.5,0.5c0,0,0.1,0.1,0.1,0.1
	c0,0,0,0,0.1,0l0,0c0,0,0,0,0.1,0.1c0,0,0,0,0.1,0.1c0,0,0.1,0.1,0.1,0.1c0,0.1,0.1,0.1,0.1,0.2c0,0,0.1,0.1,0.1,0.1
	c0,0,0,0.2,0.1,0.2c0.5,0.5,1.1,1.5,1.7,1.5h0l30.9,17.7c1,0.6,2,0.8,3.1,1c0.7,0.1,1.4,0.1,2.2,0c0.5-0.1,1.1-0.2,1.6-0.4
	c0.1,0,0.1-0.1,0.2-0.1c0.1,0,0.1-0.1,0.2-0.1c0.1-0.1,0.3-0.1,0.4-0.2c0,0,0,0,0,0c0.3-0.1,0.5-0.2,0.7-0.4l30.9-17.9
	c0.7-0.4,1.2-0.8,1.8-1.3c0.8-0.8,1.4-1.7,1.8-2.7c0-0.1,0.1-0.1,0.1-0.2c0-0.1,0.1-0.3,0.1-0.4c0-0.1,0-0.1,0.1-0.2
	c0.1-0.2,0.1-0.4,0.1-0.5c0-0.2,0.1-0.4,0.1-0.5c0.1-0.5,0.1-0.9,0.1-1.4v-35.7C215,179.8,215,179.3,214.9,178.9z M208,212
	c0,3-1.6,5.8-4.2,7.3L179.9,233c-2.6,1.5-5.8,1.5-8.4,0l-24.1-13.8c-2.6-1.5-4.4-4.3-4.4-7.3v-27.6c0-3,1.8-5.8,4.4-7.3l24-13.8
	c2.6-1.5,5.9-1.5,8.5,0l23.9,13.8c2.6,1.5,4.2,4.3,4.2,7.3V212z"/>
<path id="XMLID_2458_" class="st2" d="M203.8,177.1l-23.9-13.8c-2.6-1.5-5.8-1.5-8.4,0l-24.1,13.8c-2.6,1.5-4.4,4.3-4.4,7.3V212
	c0,3,1.8,5.8,4.4,7.3l24,13.8c2.6,1.5,5.9,1.5,8.5,0l23.9-13.8c2.6-1.5,4.2-4.3,4.2-7.3v-27.6C208,181.3,206.4,178.6,203.8,177.1z
	 M205,210.7c0,3-1.2,5.8-3.8,7.3l-21.4,12.5c-2.6,1.5-5.7,1.5-8.3,0l-21.9-12.5c-2.6-1.5-4.5-4.3-4.5-7.3v-25c0-3,2-5.8,4.6-7.3
	l21.8-12.5c2.6-1.5,5.9-1.5,8.5,0l21.3,12.5c2.6,1.5,3.9,4.3,3.9,7.3V210.7z"/>
<path id="XMLID_2446_" class="st1" d="M201.2,178.4l-21.4-12.5c-2.6-1.5-5.7-1.5-8.3,0l-21.4,12.5c-2.6,1.5-4.1,4.3-4.1,7.3v25
	c0,3,1.5,5.8,4.1,7.3l21.6,12.5c2.6,1.5,5.8,1.5,8.4,0l21.2-12.5c2.6-1.5,3.8-4.3,3.8-7.3v-25C205,182.6,203.8,179.9,201.2,178.4z
	 M201,209.8c0,0,0.2,0,0.2,0.1c0,0.2,0.1,0.4,0.1,0.5c0,0,0,0,0,0c0,0.1,0,0.1,0,0.1c0,0.1,0,0.1,0,0.2c0,0.1,0,0.2-0.1,0.3
	c0,0.1,0,0.1,0,0.2c0,0,0,0.1,0,0.1c0,0,0,0.1,0,0.1c-0.1,0.2-0.1,0.4-0.2,0.6c0,0.1,0,0.1-0.1,0.2c0,0.1-0.1,0.1-0.1,0.2
	c0,0.1-0.1,0.1-0.1,0.2c0,0.1-0.1,0.1-0.1,0.2c-0.1,0.1-0.1,0.2-0.2,0.3c-0.4,0.6-1,1.2-1.7,1.6l-20.2,11.6c-1.7,1-3.7,1-5.4,0
	l-20.3-11.6c-1.7-1-2.8-2.8-2.8-4.7v-23.3c0-1.9,1.1-3.7,2.8-4.7l20.2-11.6c1.7-1,3.8-1,5.5,0l20.1,11.6c0.6,0.4,1.2,0.8,1.6,1.4
	c0,0,0.1,0.1,0.1,0.1c0.1,0.1,0.1,0.2,0.2,0.3c0,0,0.1,0.1,0.1,0.1c0,0,0,0.1,0.1,0.1c0.1,0.2,0.2,0.3,0.2,0.5c0,0,0,0.1,0.1,0.1
	c0.1,0.2,0.1,0.3,0.2,0.5c0,0.1,0,0.1,0,0.2c0,0.1,0.1,0.2,0.1,0.3c0.1,0.3-0.1,0.6-0.1,0.9c0,0-0.2,0-0.2,0.1V209.8z"/>
<path id="XMLID_2434_" class="st1" d="M186.9,189.9l-10-5.9c-0.8-0.5-1.8-0.5-2.7,0l-10,5.9c-0.8,0.5-1.2,1.4-1.2,2.4V204
	c0,1,0.4,1.9,1.3,2.4l10.1,5.9c0.8,0.5,1.9,0.5,2.7,0l9.8-5.9c0.8-0.5,1.1-1.4,1.1-2.4v-11.7C188,191.3,187.8,190.4,186.9,189.9z
	 M188,204c0,0.3,0.2,0.6,0.1,0.9c0,0.1,0,0.2,0,0.3c0,0.1,0,0.1,0,0.2c0,0.1,0,0.1-0.1,0.2c-0.1,0.1-0.2,0.2-0.3,0.3
	c0,0-0.1,0.1-0.1,0.1c-0.1,0.1-0.2,0.2-0.3,0.2c-0.1,0-0.1,0.1-0.2,0.1l-2.2,1.3l-7.9,4.6c-0.1,0.1-0.2,0.1-0.3,0.1
	c0,0-0.1,0-0.1,0.1c-0.1,0-0.2,0.1-0.3,0.1c-0.2,0-0.3,0.1-0.5,0.1c-0.1,0-0.2,0-0.3,0c-0.4,0-0.8,0-1.2-0.2l-10-5.7h0
	c-0.2,0-0.3-0.3-0.4-0.5c-0.1-0.1-0.2-0.3-0.3-0.4c-0.1-0.2-0.3-0.4-0.4-0.6c-0.1-0.1-0.1-0.2-0.1-0.3c0-0.1,0-0.1,0-0.2
	c-0.1-0.2-0.1-0.4-0.1-0.7v-11.6c0-0.3,0-0.6,0.1-0.9c0-0.1,0.1-0.2,0.1-0.3c0.1-0.3,0.3-0.5,0.5-0.7c0,0,0.1-0.1,0.1-0.1
	s0.1-0.1,0.1-0.1c0.1-0.1,0.2-0.2,0.3-0.2l2.2-1.3l7.9-4.6c0.1-0.1,0.3-0.1,0.4-0.2c0,0,0.1,0,0.1,0c0.1,0,0.1,0,0.2,0
	c0.2,0,0.3-0.1,0.5-0.1c0.1,0,0.2,0,0.3,0c0.4,0,0.8,0.5,1.2,0.7l10,6.1h0c0.2,0,0.4-0.1,0.6,0.1c0.1,0.1,0.2,0,0.2,0.1
	c0.1,0.1,0.2,0.2,0.3,0.4c0,0.1,0.1,0.1,0.1,0.1c0,0,0,0,0,0.1c0,0,0,0,0,0.1c0,0,0,0.1,0,0.1c0,0-0.2,0.1-0.2,0.1
	c0.1,0.2-0.2,0.4-0.2,0.7V204z"/>
<path id="XMLID_2422_" class="st1" d="M186.9,189.9l-10-5.9c-0.8-0.5-1.8-0.5-2.7,0l-10,5.9c-0.8,0.5-1.2,1.4-1.2,2.4V204
	c0,1,0.4,1.9,1.3,2.4l10.1,5.9c0.8,0.5,1.9,0.5,2.7,0l9.8-5.9c0.8-0.5,1.1-1.4,1.1-2.4v-11.7C188,191.3,187.8,190.4,186.9,189.9z
	 M188,204c0,0.3,0.2,0.6,0.1,0.9c0,0.1,0,0.2,0,0.3c0,0.1,0,0.1,0,0.2c0,0.1,0,0.1-0.1,0.2c-0.1,0.1-0.2,0.2-0.3,0.3
	c0,0-0.1,0.1-0.1,0.1c-0.1,0.1-0.2,0.2-0.3,0.2c-0.1,0-0.1,0.1-0.2,0.1l-2.2,1.3l-7.9,4.6c-0.1,0.1-0.2,0.1-0.3,0.1
	c0,0-0.1,0-0.1,0.1c-0.1,0-0.2,0.1-0.3,0.1c-0.2,0-0.3,0.1-0.5,0.1c-0.1,0-0.2,0-0.3,0c-0.4,0-0.8,0-1.2-0.2l-10-5.7h0
	c-0.2,0-0.3-0.3-0.4-0.5c-0.1-0.1-0.2-0.3-0.3-0.4c-0.1-0.2-0.3-0.4-0.4-0.6c-0.1-0.1-0.1-0.2-0.1-0.3c0-0.1,0-0.1,0-0.2
	c-0.1-0.2-0.1-0.4-0.1-0.7v-11.6c0-0.3,0-0.6,0.1-0.9c0-0.1,0.1-0.2,0.1-0.3c0.1-0.3,0.3-0.5,0.5-0.7c0,0,0.1-0.1,0.1-0.1
	s0.1-0.1,0.1-0.1c0.1-0.1,0.2-0.2,0.3-0.2l2.2-1.3l7.9-4.6c0.1-0.1,0.3-0.1,0.4-0.2c0,0,0.1,0,0.1,0c0.1,0,0.1,0,0.2,0
	c0.2,0,0.3-0.1,0.5-0.1c0.1,0,0.2,0,0.3,0c0.4,0,0.8,0.5,1.2,0.7l10,6.1h0c0.2,0,0.4-0.1,0.6,0.1c0.1,0.1,0.2,0,0.2,0.1
	c0.1,0.1,0.2,0.2,0.3,0.4c0,0.1,0.1,0.1,0.1,0.1c0,0,0,0,0,0.1c0,0,0,0,0,0.1c0,0,0,0.1,0,0.1c0,0-0.2,0.1-0.2,0.1
	c0.1,0.2-0.2,0.4-0.2,0.7V204z"/>
<path id="XMLID_2410_" class="st1" d="M186.9,189.9l-10-5.9c-0.8-0.5-1.8-0.5-2.7,0l-10,5.9c-0.8,0.5-1.2,1.4-1.2,2.4V204
	c0,1,0.4,1.9,1.3,2.4l10.1,5.9c0.8,0.5,1.9,0.5,2.7,0l9.8-5.9c0.8-0.5,1.1-1.4,1.1-2.4v-11.7C188,191.3,187.8,190.4,186.9,189.9z
	 M188,204c0,0.3,0.2,0.6,0.1,0.9c0,0.1,0,0.2,0,0.3c0,0.1,0,0.1,0,0.2c0,0.1,0,0.1-0.1,0.2c-0.1,0.1-0.2,0.2-0.3,0.3
	c0,0-0.1,0.1-0.1,0.1c-0.1,0.1-0.2,0.2-0.3,0.2c-0.1,0-0.1,0.1-0.2,0.1l-2.2,1.3l-7.9,4.6c-0.1,0.1-0.2,0.1-0.3,0.1
	c0,0-0.1,0-0.1,0.1c-0.1,0-0.2,0.1-0.3,0.1c-0.2,0-0.3,0.1-0.5,0.1c-0.1,0-0.2,0-0.3,0c-0.4,0-0.8,0-1.2-0.2l-10-5.7h0
	c-0.2,0-0.3-0.3-0.4-0.5c-0.1-0.1-0.2-0.3-0.3-0.4c-0.1-0.2-0.3-0.4-0.4-0.6c-0.1-0.1-0.1-0.2-0.1-0.3c0-0.1,0-0.1,0-0.2
	c-0.1-0.2-0.1-0.4-0.1-0.7v-11.6c0-0.3,0-0.6,0.1-0.9c0-0.1,0.1-0.2,0.1-0.3c0.1-0.3,0.3-0.5,0.5-0.7c0,0,0.1-0.1,0.1-0.1
	s0.1-0.1,0.1-0.1c0.1-0.1,0.2-0.2,0.3-0.2l2.2-1.3l7.9-4.6c0.1-0.1,0.3-0.1,0.4-0.2c0,0,0.1,0,0.1,0c0.1,0,0.1,0,0.2,0
	c0.2,0,0.3-0.1,0.5-0.1c0.1,0,0.2,0,0.3,0c0.4,0,0.8,0.5,1.2,0.7l10,6.1h0c0.2,0,0.4-0.1,0.6,0.1c0.1,0.1,0.2,0,0.2,0.1
	c0.1,0.1,0.2,0.2,0.3,0.4c0,0.1,0.1,0.1,0.1,0.1c0,0,0,0,0,0.1c0,0,0,0,0,0.1c0,0,0,0.1,0,0.1c0,0-0.2,0.1-0.2,0.1
	c0.1,0.2-0.2,0.4-0.2,0.7V204z"/>
<path id="XMLID_2375_" class="st3" d="M201.1,186.4c0-0.1,0.1-0.1,0.1-0.2c0-0.1,0-0.1,0-0.2c0-0.1,0-0.2,0-0.4
	c0-0.2-0.1-0.5-0.2-0.7c0-0.1-0.1-0.2-0.1-0.3c0-0.1-0.1-0.1-0.1-0.2c0,0,0-0.1-0.1-0.1c0,0,0-0.1-0.1-0.1c0-0.1-0.1-0.1-0.1-0.2
	c0-0.1-0.1-0.1-0.1-0.2c0-0.1-0.1-0.1-0.1-0.2c0-0.1-0.1-0.1-0.1-0.2c-0.1-0.1-0.2-0.2-0.3-0.4c-0.4-0.5-0.9-0.9-1.4-1.2l-20.1-11.6
	c-0.8-0.5-1.7-0.7-2.5-0.7c-0.1,0-0.2,0-0.3,0c-0.9,0-1.8,0.3-2.5,0.7l-20.1,11.6c-0.9,0.5-1.6,1.2-2.1,2.1c0,0-0.1,0.1-0.1,0.1
	c0,0,0,0.1,0,0.1c0,0,0,0.1-0.1,0.1c0,0.1-0.1,0.1-0.1,0.2c0,0,0,0,0,0c0,0.1-0.1,0.1-0.1,0.2c0,0.1-0.1,0.2-0.1,0.3
	c0,0.1-0.1,0.2-0.1,0.3c0,0.1-0.1,0.2-0.2,0.3c-0.1,0.3-0.2,0.6-0.2,0.9v23.1c0,0.3,0.1,0.6,0.2,0.9c0,0.1,0.1,0.2,0.1,0.3
	c0,0.1,0.1,0.2,0.1,0.3c0,0.1,0.1,0.3,0.2,0.4c0,0.1,0.1,0.2,0.1,0.2c0,0,0,0,0,0c0.1,0.1,0.1,0.2,0.2,0.4c0.1,0.2,0.2,0.3,0.3,0.5
	c0,0,0.1,0.1,0.1,0.1c0.1,0.2,0.3,0.4,0.4,0.5c0.1,0.1,0.1,0.1,0.2,0.2c0.1,0.1,0.3,0.3,0.4,0.4c0.2,0.2,0.5,0.3,0.7,0.5L173,226
	c0.8,0.5,1.7,0.7,2.5,0.7c0.1,0,0.2,0,0.3,0c0.9,0,1.8-0.3,2.5-0.7l20.1-11.6c0.1,0,0.1-0.1,0.2-0.1c0.1,0,0.1-0.1,0.2-0.1
	c0,0,0,0,0,0c0.1,0,0.1-0.1,0.2-0.1s0.1-0.1,0.2-0.1c0.1,0,0.1-0.1,0.2-0.1c0.1-0.1,0.1-0.1,0.2-0.2c0.1-0.1,0.1-0.1,0.2-0.2
	c0.1-0.1,0.2-0.2,0.3-0.4c0.1-0.1,0.1-0.1,0.1-0.2c0,0,0.1-0.1,0.1-0.1c0,0,0,0,0,0c0,0,0.1-0.1,0.1-0.1c0.1-0.2,0.2-0.3,0.3-0.5
	c0,0,0-0.1,0.1-0.1c0,0,0-0.1,0.1-0.1c0-0.1,0.1-0.1,0.1-0.2c0-0.1,0.1-0.2,0.1-0.3c0.1-0.2,0.1-0.5,0.2-0.7c0-0.1,0-0.2,0-0.4
	c0-0.1,0-0.1,0-0.2c0-0.1-0.1-0.1-0.1-0.2c0,0-0.1-0.1-0.1-0.1v-23.1C201,186.5,201.1,186.5,201.1,186.4z M196,207.1
	c0,1.9-0.7,3.7-2.4,4.7l-15.3,8.9c-1.7,1-3.7,1-5.4,0l-15.3-8.9c-1.7-1-2.6-2.8-2.6-4.7v-17.9c0-1.9,0.9-3.7,2.6-4.7l15.4-8.9
	c1.7-1,3.7-1,5.4,0l15.1,8.9c1.7,1,2.4,2.8,2.4,4.7V207.1z"/>
<path id="XMLID_2379_" class="st1" d="M186.9,189.9l-10-5.9c-0.8-0.5-1.8-0.5-2.7,0l-10,5.9c-0.8,0.5-1.2,1.4-1.2,2.4V204
	c0,1,0.4,1.9,1.3,2.4l10.1,5.9c0.8,0.5,1.9,0.5,2.7,0l9.8-5.9c0.8-0.5,1.1-1.4,1.1-2.4v-11.7C188,191.3,187.8,190.4,186.9,189.9z
	 M188,204c0,0.3,0.2,0.6,0.1,0.9c0,0.1,0,0.2,0,0.3c0,0.1,0,0.1,0,0.2c0,0.1,0,0.1-0.1,0.2c-0.1,0.1-0.2,0.2-0.3,0.3
	c0,0-0.1,0.1-0.1,0.1c-0.1,0.1-0.2,0.2-0.3,0.2c-0.1,0-0.1,0.1-0.2,0.1l-2.2,1.3l-7.9,4.6c-0.1,0.1-0.2,0.1-0.3,0.1
	c0,0-0.1,0-0.1,0.1c-0.1,0-0.2,0.1-0.3,0.1c-0.2,0-0.3,0.1-0.5,0.1c-0.1,0-0.2,0-0.3,0c-0.4,0-0.8,0-1.2-0.2l-10-5.7h0
	c-0.2,0-0.3-0.3-0.4-0.5c-0.1-0.1-0.2-0.3-0.3-0.4c-0.1-0.2-0.3-0.4-0.4-0.6c-0.1-0.1-0.1-0.2-0.1-0.3c0-0.1,0-0.1,0-0.2
	c-0.1-0.2-0.1-0.4-0.1-0.7v-11.6c0-0.3,0-0.6,0.1-0.9c0-0.1,0.1-0.2,0.1-0.3c0.1-0.3,0.3-0.5,0.5-0.7c0,0,0.1-0.1,0.1-0.1
	s0.1-0.1,0.1-0.1c0.1-0.1,0.2-0.2,0.3-0.2l2.2-1.3l7.9-4.6c0.1-0.1,0.3-0.1,0.4-0.2c0,0,0.1,0,0.1,0c0.1,0,0.1,0,0.2,0
	c0.2,0,0.3-0.1,0.5-0.1c0.1,0,0.2,0,0.3,0c0.4,0,0.8,0.5,1.2,0.7l10,6.1h0c0.2,0,0.4-0.1,0.6,0.1c0.1,0.1,0.2,0,0.2,0.1
	c0.1,0.1,0.2,0.2,0.3,0.4c0,0.1,0.1,0.1,0.1,0.1c0,0,0,0,0,0.1c0,0,0,0,0,0.1c0,0,0,0.1,0,0.1c0,0-0.2,0.1-0.2,0.1
	c0.1,0.2-0.2,0.4-0.2,0.7V204z"/>
<path id="XMLID_2383_" class="st1" d="M194.9,188.2C194.9,188.2,194.9,188.2,194.9,188.2C194.9,188.2,194.9,188.2,194.9,188.2
	C194.9,188.2,194.9,188.2,194.9,188.2z M194.8,188.1c0-0.1-0.1-0.1-0.1-0.2C194.8,187.9,194.8,188,194.8,188.1c0,0,0,0.1,0,0.1
	C194.9,188.2,194.8,188.1,194.8,188.1C194.8,188.1,194.8,188.1,194.8,188.1z M194.6,187.7C194.6,187.7,194.6,187.7,194.6,187.7
	C194.6,187.7,194.6,187.7,194.6,187.7L194.6,187.7z M194.6,187.6C194.6,187.6,194.6,187.6,194.6,187.6
	C194.6,187.7,194.6,187.7,194.6,187.6C194.6,187.7,194.6,187.7,194.6,187.6L194.6,187.6z M194.6,187.6
	C194.6,187.6,194.6,187.6,194.6,187.6C194.6,187.6,194.6,187.6,194.6,187.6C194.6,187.6,194.6,187.6,194.6,187.6
	C194.6,187.6,194.6,187.6,194.6,187.6z M194.3,187C194.3,187,194.3,187,194.3,187C194.3,187,194.3,187,194.3,187
	C194.3,187,194.3,187,194.3,187z M194,186.7C194.1,186.8,194.1,186.8,194,186.7L194,186.7C194.1,186.8,194.1,186.8,194,186.7
	C194.1,186.8,194.1,186.7,194,186.7z M194,186.6C194,186.6,194,186.6,194,186.6C194,186.6,194,186.6,194,186.6
	C193.9,186.6,193.9,186.6,194,186.6C193.9,186.6,193.9,186.6,194,186.6C193.9,186.6,194,186.6,194,186.6
	C194,186.6,194,186.6,194,186.6L194,186.6C194,186.6,194,186.6,194,186.6C194,186.7,194,186.7,194,186.6
	C194,186.7,194,186.7,194,186.6L194,186.6z M193.6,184.5l-15.3-8.9c-1.7-1-3.7-1-5.4,0l-15.4,8.9c-1.7,1-2.6,2.8-2.6,4.7v17.9
	c0,1.9,0.9,3.7,2.6,4.7l15.4,8.9c1.7,1,3.7,1,5.4,0l15.2-8.9c1.7-1,2.4-2.8,2.4-4.7v-17.9C196,187.3,195.3,185.5,193.6,184.5z
	 M195,206.2c0,0.3,0.1,0.6,0,0.9c0,0.1,0,0.2,0,0.3c0,0.1,0,0.2,0,0.3c0,0.1,0,0.2-0.1,0.3c0,0.1,0,0.2-0.1,0.2
	c-0.1,0.1-0.1,0.3-0.2,0.4c0,0.1-0.1,0.1-0.1,0.2c-0.1,0.1-0.1,0.3-0.2,0.4c-0.1,0.1-0.2,0.2-0.3,0.4c0,0,0,0,0,0c0,0,0,0,0,0
	c-0.1,0.2-0.3,0.3-0.4,0.5c0,0,0,0-0.1,0c0,0,0,0,0,0c0,0,0,0,0,0c0,0,0,0.1,0,0.1c0,0,0,0.2-0.1,0.2h0c-0.1,0-0.2,0-0.3,0.1
	c-0.2,0.1-0.4,0.2-0.6,0.4l-14,8c-0.8,0.5-1.7,0.7-2.6,0.7c-0.1,0-0.2,0-0.3,0c-0.9,0-1.8-0.3-2.6-0.7l-14-8.1c0,0-0.1,0-0.1-0.1
	c-0.2-0.1-0.4-0.3-0.6-0.4c-0.1,0-0.1-0.1-0.1-0.1c0,0,0,0.2,0,0.2c0,0-0.1,0.1-0.1,0.1h0c0,0-0.1-0.2-0.1-0.2c0,0-0.1-0.1-0.1-0.2
	c0,0-0.1-0.1-0.1-0.1c0,0,0,0,0,0l0,0c0,0-0.1-0.1-0.1-0.1c0,0,0,0,0,0c0,0,0,0,0,0c0,0-0.3,0-0.3,0c0,0-0.3,0-0.3,0v0c0,0,0,0,0,0
	v0l0.3,0c0,0,0.1-0.1,0.1-0.1c0,0,0.1,0,0,0c0,0,0,0,0,0c0,0,0,0,0-0.1c0,0,0,0,0,0c0,0,0,0.1,0,0c0,0-0.1,0-0.1,0h0
	c0,0,0-0.1,0-0.1c0,0,0-0.1,0-0.1c0,0,0-0.1,0-0.1c0,0,0,0,0-0.1c0,0,0,0,0,0c0,0-0.1,0-0.1,0c0,0-0.1,0-0.1,0v0
	c0,0,0.1,0.4,0.1,0.4H157c0,0,0-0.5,0-0.5v0c0,0,0,0.2,0,0.2c0,0,0,0.2,0,0.2c0,0,0,0,0,0s0-0.5,0-0.5v0.5h0l0-0.5v0l0,0
	c0,0,0,0,0-0.1c0,0,0,0,0,0c0,0,0,0.3,0,0.3c0,0,0,0.3,0,0.3h0V209c0,0,0,0,0,0c0,0,0,0,0,0c0,0,0,0,0,0c0,0,0,0,0,0c0,0,0,0,0,0
	c0,0,0,0,0,0s0,0,0,0c0,0,0,0,0,0c0-0.1-0.1-0.1-0.1-0.2c0,0,0-0.1-0.1-0.1c0,0,0-0.1-0.1-0.1c-0.1-0.2-0.2-0.5-0.3-0.7
	c-0.1-0.2-0.1-0.5-0.2-0.7c0-0.1,0-0.2,0-0.4c0,0-0.1-0.1-0.1-0.1c0-0.1-0.1-0.3-0.1-0.4V190c0-0.3,0.1-0.6,0.2-0.9
	c0-0.2,0.2-0.5,0.2-0.7c0.1-0.2,0.2-0.5,0.3-0.7c0-0.1,0.1-0.1,0.1-0.2c0.1-0.1,0.1-0.2,0.2-0.3c0.5-0.8,1.1-1.4,1.9-1.9l14-8.1
	c0.8-0.5,1.7-0.7,2.6-0.7c0.1,0,0.2,0,0.3,0c0.9,0,1.8,0.3,2.6,0.7l14,8.1c0,0,0,0,0.1,0c0,0,0,0,0,0c0,0,0,0,0,0c0,0,0,0,0,0
	c0,0,0.1,0,0.1,0.1c0,0,0.1,0.1,0.1,0.1c0,0,0,0,0,0c0.1,0,0.1,0.1,0.2,0.1c0,0,0.1,0,0.1,0.1c0,0,0.1,0.1,0.1,0.1c0,0,0,0,0,0
	c0,0,0,0,0,0c0,0,0.1,0.1,0.1,0.1c0,0,0,0,0,0c0,0,0,0,0,0c0,0,0,0,0,0c0,0,0,0,0,0c0,0,0,0,0,0c0,0,0.1,0,0.1,0.1c0,0,0,0,0,0
	c0,0,0,0,0,0c0,0,0,0,0,0c0,0,0,0,0.1,0.1c0,0,0,0,0,0c0,0,0,0,0,0c0,0,0,0,0,0c0,0,0,0,0,0c0,0,0,0,0,0c0,0,0.1,0,0.1,0
	c0,0,0.1,0,0.1,0v0c0,0-0.1,0-0.1,0l0,0c0,0,0,0,0,0.1c0,0,0,0,0,0c0,0,0,0,0,0c0,0,0,0,0,0c0,0,0,0,0,0c0,0,0,0,0,0c0,0,0,0,0,0
	c0,0,0,0,0,0c0,0,0,0,0,0h0c0,0,0,0,0,0c0,0,0,0.1,0.1,0.1c0,0,0,0.1,0.1,0.1l0,0c0,0,0,0.4,0,0.4c0,0,0,0.4,0,0.4h0
	c0,0-0.1-0.4-0.1-0.4c0,0-0.1-0.4-0.1-0.4v0l0,0v0c0,0,0,0,0,0c0,0,0,0,0,0c0,0,0.1,0,0.1,0c0,0,0.1,0,0.1,0c0,0,0,0,0,0
	c0,0,0,0,0,0c0,0,0,0,0,0c0,0,0,0.3,0,0.3c0,0,0,0.3,0,0.3h0c0,0,0-0.3,0-0.3c0,0,0-0.2,0-0.2c0,0,0,0.2,0,0.2c0,0,0,0.2,0,0.2h0
	c0,0,0-0.3,0-0.3c0,0,0-0.1,0-0.1c0,0,0-0.1,0-0.1c0,0,0,0,0,0c0,0,0,0,0,0c0,0,0,0.2,0,0.2c0,0,0,0.2,0,0.2c0,0,0,0,0,0h0
	c0,0,0,0,0,0l0,0h0c0,0,0-0.2,0-0.2c0,0,0-0.1,0-0.1c0,0,0-0.1,0-0.1c0,0,0,0,0,0c0,0,0,0,0,0c0,0,0,0,0,0c0,0,0,0,0,0
	c0,0,0,0.2,0,0.2c0,0,0,0.2,0,0.2H194v-0.3c0,0,0.3,0,0.3,0c0,0,0.1,0,0.1,0c0,0,0.1,0,0.1,0c0,0,0,0,0,0c0,0,0,0,0,0
	c0,0-0.3,0-0.3,0c0,0-0.3,0-0.3,0c0,0,0,0.1,0,0.1h0.5c0,0,0,0,0,0c0,0-0.3,0-0.3,0c0,0-0.3,0-0.3,0v0c0,0,0.3,0,0.3,0
	c0,0,0.2,0,0.2,0c0,0,0.1,0,0.1,0c0,0,0,0,0,0c0,0,0,0,0,0c0,0,0,0,0,0c0,0,0,0,0,0c0,0,0,0,0,0c0,0,0,0,0,0c0,0,0,0,0,0
	c0,0.1,0.1,0.1,0.1,0.2c0,0,0,0,0,0c0,0.1,0.1,0.1,0.1,0.2c0,0,0,0.1,0.1,0.1c0,0,0,0,0,0c0,0,0,0,0,0c0,0,0,0,0,0
	c0,0.1,0.1,0.2,0.1,0.3c0,0,0,0,0,0.1c0,0,0,0,0,0.1c0,0,0,0.1,0,0.1c0,0.1-0.1,0.2,0,0.3c0.1,0.3,0,0.6,0,0.9V206.2z"/>
<path id="XMLID_2524_" class="st1" d="M186.9,189.9l-10-5.9c-0.8-0.5-1.8-0.5-2.7,0l-10,5.9c-0.8,0.5-1.2,1.4-1.2,2.4V204
	c0,1,0.4,1.9,1.3,2.4l10.1,5.9c0.8,0.5,1.9,0.5,2.7,0l9.8-5.9c0.8-0.5,1.1-1.4,1.1-2.4v-11.7C188,191.3,187.8,190.4,186.9,189.9z
	 M188,204c0,0.3,0.2,0.6,0.1,0.9c0,0.1,0,0.2,0,0.3c0,0.1,0,0.1,0,0.2c0,0.1,0,0.1-0.1,0.2c-0.1,0.1-0.2,0.2-0.3,0.3
	c0,0-0.1,0.1-0.1,0.1c-0.1,0.1-0.2,0.2-0.3,0.2c-0.1,0-0.1,0.1-0.2,0.1l-2.2,1.3l-7.9,4.6c-0.1,0.1-0.2,0.1-0.3,0.1
	c0,0-0.1,0-0.1,0.1c-0.1,0-0.2,0.1-0.3,0.1c-0.2,0-0.3,0.1-0.5,0.1c-0.1,0-0.2,0-0.3,0c-0.4,0-0.8,0-1.2-0.2l-10-5.7h0
	c-0.2,0-0.3-0.3-0.4-0.5c-0.1-0.1-0.2-0.3-0.3-0.4c-0.1-0.2-0.3-0.4-0.4-0.6c-0.1-0.1-0.1-0.2-0.1-0.3c0-0.1,0-0.1,0-0.2
	c-0.1-0.2-0.1-0.4-0.1-0.7v-11.6c0-0.3,0-0.6,0.1-0.9c0-0.1,0.1-0.2,0.1-0.3c0.1-0.3,0.3-0.5,0.5-0.7c0,0,0.1-0.1,0.1-0.1
	s0.1-0.1,0.1-0.1c0.1-0.1,0.2-0.2,0.3-0.2l2.2-1.3l7.9-4.6c0.1-0.1,0.3-0.1,0.4-0.2c0,0,0.1,0,0.1,0c0.1,0,0.1,0,0.2,0
	c0.2,0,0.3-0.1,0.5-0.1c0.1,0,0.2,0,0.3,0c0.4,0,0.8,0.5,1.2,0.7l10,6.1h0c0.2,0,0.4-0.1,0.6,0.1c0.1,0.1,0.2,0,0.2,0.1
	c0.1,0.1,0.2,0.2,0.3,0.4c0,0.1,0.1,0.1,0.1,0.1c0,0,0,0,0,0.1c0,0,0,0,0,0.1c0,0,0,0.1,0,0.1c0,0-0.2,0.1-0.2,0.1
	c0.1,0.2-0.2,0.4-0.2,0.7V204z"/>
<path id="XMLID_2528_" class="st1" d="M188.2,191.7c0,0,0.1-0.1,0.1-0.1c0,0,0-0.1,0-0.1c0,0,0-0.1,0-0.1c0,0,0-0.1,0-0.1
	c0-0.1,0-0.1-0.1-0.2c-0.1-0.2-0.2-0.3-0.3-0.5c-0.1-0.1-0.1,0.1-0.2,0.1c-0.2-0.2-0.4-0.1-0.6-0.1h0l-10.1-6.1
	c-0.4-0.2-0.8-0.5-1.2-0.5c-0.1,0-0.2-0.1-0.3-0.1c-0.2,0-0.3,0-0.5,0c-0.1,0-0.1,0-0.2,0c0,0-0.1,0-0.1,0c-0.1,0.1-0.3,0.1-0.4,0.2
	l-7.9,4.6l-2.2,1.3c-0.1,0.1-0.2,0.1-0.3,0.2c0,0-0.1,0.1-0.1,0.1c0,0-0.1,0.1-0.1,0.1c-0.2,0.2-0.4,0.5-0.5,0.7
	c-0.1,0.1-0.1,0.2-0.1,0.3c-0.1,0.3-0.1,0.6-0.1,0.9V204c0,0.2,0,0.5,0.1,0.7c0,0.1,0,0.1,0,0.2c0,0.1,0.1,0.2,0.1,0.3
	c0.1,0.2,0.2,0.4,0.4,0.5c0.1,0.1,0.2,0.3,0.3,0.4c0.1,0.1,0.3,0.5,0.4,0.5h0l10.1,5.7c0.4,0.2,0.8,0.3,1.2,0.3c0.1,0,0.2,0,0.3,0
	c0.2,0,0.3-0.1,0.5-0.1c0.1,0,0.2-0.1,0.3-0.1c0,0,0.1,0,0.1-0.1c0.1,0,0.2-0.1,0.3-0.2l7.9-4.6l2.2-1.3c0.1,0,0.1-0.1,0.2-0.1
	c0.1-0.1,0.2-0.1,0.3-0.2c0,0,0.1-0.1,0.1-0.1c0.1-0.1,0.2-0.2,0.3-0.3c0-0.1,0.1-0.1,0.1-0.2c0-0.1,0.1-0.1,0.1-0.2
	c0.1-0.1-0.1-0.2-0.1-0.3c0.1-0.3-0.1-0.6-0.1-0.9v-11.6C188,192.1,188.2,191.9,188.2,191.7z M186,202.6c0,1-0.4,1.9-1.3,2.4
	l-7.7,4.5c-0.8,0.5-1.9,0.5-2.7,0l-7.9-4.5c-0.8-0.5-1.5-1.4-1.5-2.4v-9c0-1,0.6-1.9,1.5-2.4l7.8-4.5c0.8-0.5,1.9-0.5,2.8,0l7.7,4.5
	c0.8,0.5,1.3,1.4,1.3,2.4V202.6z"/>
<path id="XMLID_2531_" class="st0" d="M185,194.1v8.1c0,1-0.3,1.9-1.1,2.4l-6.9,4.1c-0.8,0.5-1.8,0.5-2.7,0l-7-4.1
	c-0.8-0.5-1.3-1.4-1.3-2.4v-8.1c0-1,0.5-1.9,1.3-2.4l7-4.1c0.8-0.5,1.9-0.5,2.7,0l6.8,4.1C184.7,192.2,185,193.1,185,194.1z"/>
</svg>
