<?xml version="1.0" encoding="utf-8"?>
<!-- Generator: Adobe Illustrator 19.0.0, SVG Export Plug-In . SVG Version: 6.00 Build 0)  -->
<svg version="1.1" id="Layer_1" xmlns="http://www.w3.org/2000/svg" xmlns:xlink="http://www.w3.org/1999/xlink" x="0px" y="0px"
	 viewBox="0 0 29.8 40.8" style="enable-background:new 0 0 29.8 40.8;" xml:space="preserve">
<style type="text/css">
	.Scribble_x0020_5{fill:#818285;}
	.st0{fill:none;stroke:#FFFFFF;stroke-width:0.9;stroke-linecap:round;stroke-linejoin:round;}
</style>
<g id="XMLID_2631_">
	<path id="XMLID_141_" class="Scribble_x0020_5" d="M0.2,0.5h29.3v7.9H19.3v32h-8.7v-32H0.2V0.5z"/>
	<g id="XMLID_138_">
		<path id="XMLID_140_" class="st0" d="M19.9,8.3c0.3,0.4,9-6.7,9.5-5.9c0,0-6,5.6-5.8,5.9c0.1,0.1,5.4-4.4,5.9-3.7
			c0.1,0.1-0.3,3.3-0.1,3.6c0,0,0.1-0.1,0.1,0"/>
		<path id="XMLID_139_" class="st0" d="M0.5,0.7C0.5,0.7,0.5,0.6,0.5,0.7c0.1,0.2-0.1,3.5,0,3.7c0.3,0.4,5.9-3.9,6-3.7
			c0.1,0.2-6,7.2-6,7.2c0.8,1.3,11.6-7.2,11.6-7.2c0.2,0.3-7.8,7.6-7.8,7.6s11.3-9,12.2-7.6c0.8,1.2-8.1,7.6-8.1,7.6
			S19.6-1,20.6,0.6C21,1.4,10,7.9,10.8,9.1c0.9,1.4,12.4-10.2,13.5-8.4c0.2,0.3-13.9,10.6-13.5,11.2c1.1,1.7,17.8-11.3,17.9-11.2
			c0.7,1.2-17.9,13.9-17.9,13.9s7.8-5.9,8.2-5.1c0.5,0.8-9,6.6-8.2,7.8c0.3,0.4,8.2-5.2,8.2-5.1c0.8,1.2-9,6.7-8.2,7.9l8.2-5.1
			c0.4,0.7-8.2,8.1-8.2,8.1c0.2,0.3,7.8-5.8,8.2-5.1c0.7,1.1-8.5,7.7-8.2,8.1c0.7,1.1,8-5.5,8.2-5.1c0,0-8.4,8.1-8.2,8.3
			c0.3,0.6,8-5.6,8.2-5.1c0,0-9,7.5-8.2,8.7c0.6,0.9,7.9-5.7,8.2-5.1c0.8,1.3-8.3,8.1-8.2,8.2c0.1,0.2,8.1-5.4,8.2-5.1
			c0.6,1-8.9,6.8-8.2,7.9c0,0,7.9-5.6,8.2-5.1c0,0-8.2,6-7.6,7.1c0.1,0.2,7.1-5.5,7.6-4.7l-3.9,4.7c0,0,3.9-2.5,3.9-2.4
			c0.1,0.1,0,2.4,0,2.4c0,0.1,0,0,0,0"/>
	</g>
</g>
</svg>
