<?xml version="1.0" encoding="utf-8"?>
<!-- Generator: Adobe Illustrator 19.0.0, SVG Export Plug-In . SVG Version: 6.00 Build 0)  -->
<svg version="1.1" id="Layer_1" xmlns="http://www.w3.org/2000/svg" xmlns:xlink="http://www.w3.org/1999/xlink" x="0px" y="0px"
	 viewBox="0 0 27.5 40.9" style="enable-background:new 0 0 27.5 40.9;" xml:space="preserve">
<style type="text/css">
	.Scribble_x0020_5{fill:#818285;}
	.st0{fill:none;stroke:#FFFFFF;stroke-width:0.9;stroke-linecap:round;stroke-linejoin:round;}
</style>
<g id="XMLID_2622_">
	<path id="XMLID_79_" class="Scribble_x0020_5" d="M0.2,0.4h20.5c0.9,0,1.7,0.2,2.5,0.5c0.8,0.3,1.4,0.8,2,1.4c0.6,0.6,1,1.3,1.3,2
		C26.9,5,27,5.8,27,6.6v9.2c0,0.8-0.3,1.6-0.8,2.3c-0.6,0.8-1.3,1.3-2.3,1.6c0.8,0.1,1.6,0.5,2.3,1.2c0.7,0.7,1.1,1.6,1.1,2.7v10.4
		c0,0.8-0.2,1.6-0.5,2.4c-0.3,0.8-0.8,1.4-1.4,2c-0.6,0.6-1.2,1-2,1.4c-0.8,0.3-1.6,0.5-2.5,0.5H0.2V0.4z M17.8,16.4
		c0.4,0,0.5-0.2,0.5-0.5V8.8c0-0.4-0.2-0.7-0.7-0.7H8.9v8.3H17.8z M8.9,32.6H18c0.4,0,0.6-0.2,0.6-0.6v-7.7c0-0.4-0.2-0.6-0.7-0.6
		h-9V32.6z"/>
	<g id="XMLID_75_">
		<path id="XMLID_78_" class="st0" d="M9.6,23.5c1.3,2.1,15.8-12.8,17.1-10.7c0.7,1.1-12.6,10.7-12.6,10.7c0,0,12.3-8.3,12.6-7.9
			c0.5,0.8-8.9,7.4-8.6,7.9c0.1,0.2,5.4-4,5.7-3.5c0,0-5,5.8-5,5.9c0.4,0.7,6.7-5.4,7.2-4.5c0.6,1-7.8,6.6-7.2,7.6
			c0.3,0.5,8-5.3,8.2-5.1c0,0-8.3,7.2-8.2,7.5c0,0,7.8-5.7,8.2-5.1"/>
		<path id="XMLID_77_" class="st0" d="M9.6,7.9l11.7-7.3c0,0-7.9,7.2-7.8,7.3c0.3,0.5,9.6-7.6,10.3-6.4C24.1,2,17,7.3,17.4,7.9
			c0.3,0.4,7.8-5.3,8-5c0.6,0.9-7.1,6-6.8,6.6c0.2,0.3,7.7-5,7.8-4.8c0.6,1-8.5,7.3-7.8,8.5c0.2,0.4,7.9-5.6,8.2-5.1
			c0,0-8.4,7.4-8.2,7.8c0,0,8-5.5,8.2-5.1"/>
		<path id="XMLID_76_" class="st0" d="M0.5,0.5C0.5,0.6,0.5,0.5,0.5,0.5c0,0,0,2,0,2c0.2,0.3,3.2-2.1,3.2-2c0.1,0.2-3.6,3.7-3.2,4.3
			c0.3,0.6,6.8-4.3,6.8-4.3c0.4,0.6-6.8,6.3-6.8,6.3S10-0.3,10.6,0.5c0.6,1-10.1,8.6-10.1,8.6c0.3,0.4,13-9.8,13.8-8.6
			C15.4,2.4,0.1,10.8,0.5,11.5c0,0,17.3-11.1,17.5-10.9C18.1,0.8,0.5,13.9,0.5,13.9c0.3,0.4,8.1-5.2,8.2-5.1
			c0.3,0.4-8.9,6.2-8.2,7.4c0.7,1.1,7.6-6,8.2-5.1c0.8,1.2-8.2,7.6-8.2,7.6c0.3,0.5,7.8-5.8,8.2-5.1c0.5,0.7-8.4,6.8-8.2,7.1
			c0.5,0.8,7.7-5.9,8.2-5.1c0,0-8.9,6.3-8.2,7.4c0,0,10.3-6.8,10.5-6.6c0.6,1-10.5,9.9-10.5,9.9c0.5,0.9,14.8-11.6,15.9-9.9
			c1.2,1.9-16.2,12.9-15.9,13.4c0.4,0.6,7.9-5.6,8.2-5.1c0,0-8.2,8.1-8.2,8.2c0.7,1,7.5-6.1,8.2-5.1c0.1,0.1-8.3,7.7-8.2,7.9
			c0.3,0.5,8-5.4,8.2-5.1c0.6,1-8.8,7.3-8.2,8.2c0.6,1,9-7.4,9.8-6.1c0,0-8,7.2-7.9,7.4c0.3,0.4,11.2-8.4,11.9-7.4
			c0,0.1-8.1,6.3-7.5,7.4C8.3,42.5,26.4,26.5,27,27.5c0,0-15.9,11.4-15.2,12.6c0,0,14-11.3,15.2-9.5c0,0-10.1,9.3-10,9.5
			c0.5,0.8,9.5-7.2,10-6.3c0.3,0.5-6.7,6.3-6.7,6.3c0.2,0.2,6.3-4,6.3-3.9"/>
	</g>
</g>
</svg>
