<?xml version="1.0" encoding="utf-8"?>
<!-- Generator: Adobe Illustrator 19.0.0, SVG Export Plug-In . SVG Version: 6.00 Build 0)  -->
<svg version="1.1" id="Layer_1" xmlns="http://www.w3.org/2000/svg" xmlns:xlink="http://www.w3.org/1999/xlink" x="0px" y="0px"
	 viewBox="0 0 35 40.6" style="enable-background:new 0 0 35 40.6;" xml:space="preserve">
<style type="text/css">
	.Scribble_x0020_5{fill:#818285;}
	.st0{fill:none;stroke:#FFFFFF;stroke-width:0.9;stroke-linecap:round;stroke-linejoin:round;}
</style>
<g id="XMLID_2619_">
	<path id="XMLID_33_" class="Scribble_x0020_5" d="M35,40.3h-8.9l-2.5-7.9H11.3l-2.4,7.9H0l13.1-40h8.8L35,40.3z M13.9,24.7h7.2
		l-3.6-13.3L13.9,24.7z"/>
	<g id="XMLID_29_">
		<path id="XMLID_32_" class="st0" d="M11.9,32.2c0.7,1.1,16.7-10.5,16.7-10.5s-13.6,9-12.7,10.4c0,0,12.6-9.7,13.4-8.4
			c0.5,0.9-7.5,8.1-7.4,8.4c0.6,1,7.8-6.2,8.4-5.3c0,0-6.3,6.3-6,6.8c0.5,0.8,6.8-4.3,6.9-4.3l-6.2,6.2c0,0,6.8-4.4,6.9-4.3
			c0.2,0.3-6.5,5.8-6.2,6.2c0.2,0.3,6.7-4.5,6.9-4.3c0,0-6.5,5.7-6.3,6c0.2,0.4,6.6-4.8,6.9-4.3c0.4,0.6-3,5.1-3,5.1
			c0.3,0.4,3.5-2.9,3.9-2.4c0.1,0.2-0.6,2.4-0.6,2.4c0,0,1.1-0.8,1.1-0.7"/>
		<path id="XMLID_31_" class="st0" d="M17.7,11.3c0.4,0.6,6.1-3.8,6.1-3.8c0.1,0.2-6.2,4.8-5.7,5.6c0.1,0.2,6.2-3.9,6.2-3.9
			c0.3,0.6-5.7,6.5-5.4,7c0,0,6.1-4.4,6.4-4c0.5,0.8-5.8,6.3-5.8,6.3c0.2,0.3,6.2-4.6,6.5-4.1c0,0-5.9,6.5-5.8,6.5
			c0,0,6.4-4.5,6.6-4.1c0.1,0.2-6.2,6.4-5.9,6.9c0.2,0.3,6.8-4.2,6.8-4.2"/>
		<path id="XMLID_30_" class="st0" d="M13.2,0.6c0,0.1,0.1-0.1,0.1-0.1c0.2,0.4-1.6,4.6-1.6,4.6c0.4,0.6,7-5.2,7.4-4.6
			c0.4,0.6-9.4,8-8.8,9c0,0,11.7-7.5,11.8-7.4C22.7,3,9,11.9,9.4,12.4L22.8,4c1.3,2.1-15,12.3-14.8,12.7c1.3,2.1,15-11.1,15.8-9.9
			C23.8,7.1,6.2,18.3,7,19.6c0.2,0.3,9.6-6,9.6-6c0.8,1.2-11.8,8.9-11,10.2c0.8,1.3,9.7-6.6,10-6.2c0.3,0.4-11.7,7.9-10.9,9.2
			c0.7,1.1,9.6-7.2,10.2-6.4c0.1,0.1-11.6,10.1-11.5,10.3c0.3,0.5,10.3-6.8,10.5-6.5c0.9,1.4-12,11.4-12,11.4
			c1.3,2,16.1-12.3,17.1-10.7c0.2,0.3-19.2,11.4-18,13.4C3,41.7,28.4,21.1,28.4,21.1c0.6,1-27.6,18.7-27.3,19.1
			c0.3,0.4,9.3-6.1,9.4-5.9c0.4,0.6-4.5,5.8-4.5,5.8c0.1,0.2,3.4-2.2,3.4-2.1"/>
	</g>
</g>
</svg>
