<?xml version="1.0" encoding="utf-8"?>
<!-- Generator: Adobe Illustrator 19.0.0, SVG Export Plug-In . SVG Version: 6.00 Build 0)  -->
<svg version="1.1" id="Layer_1" xmlns="http://www.w3.org/2000/svg" xmlns:xlink="http://www.w3.org/1999/xlink" x="0px" y="0px"
	 viewBox="0 0 27 40" style="enable-background:new 0 0 27 40;" xml:space="preserve">
<style type="text/css">
	.st0{fill:#EF664F;}
</style>
<path id="XMLID_2635_" class="st0" d="M27,33.4c0,0.9-0.2,1.8-0.6,2.6c-0.3,0.8-0.8,1.5-1.4,2.1c-0.6,0.6-1.3,1.1-2.1,1.4
	c-0.8,0.3-1.7,0.5-2.6,0.5H6.7c-0.9,0-1.8-0.2-2.6-0.5c-0.8-0.3-1.5-0.8-2.1-1.4c-0.6-0.6-1.1-1.3-1.5-2.1C0.2,35.2,0,34.3,0,33.4
	v-4.5l9-1.4v4C9,31.9,8.9,32,9.3,32h8.3c0.4,0,0.4-0.1,0.4-0.5v-5.6c0-0.4-0.2-0.7-0.7-0.8c-0.5-0.2-1.6-0.5-3.4-1
	c-1.8-0.5-4.5-1.3-8.2-2.3c-1.8-0.5-3.3-1.2-4.2-2.1c-1-0.9-1.5-2.3-1.5-4.1V6.6c0-0.9,0.3-1.8,0.6-2.6C1,3.3,1.5,2.6,2.1,2
	c0.6-0.6,1.3-1.1,2.1-1.4C5,0.2,5.9,0,6.8,0H20c0.9,0,1.8,0.2,2.6,0.5c0.8,0.3,1.5,0.8,2.1,1.4c0.6,0.6,1.3,1.3,1.6,2.1
	C26.6,4.9,27,5.7,27,6.6v4.2l-9,1.4V8.6C18,8.2,17.8,8,17.4,8H9.5C9.1,8,9,8.2,9,8.6v5.2c0,0.2,0,0.4,0.1,0.5
	c0.1,0.1,0.3,0.2,0.5,0.3c0.3,0.1,1.3,0.4,3.2,0.9c1.9,0.5,4.7,1.3,8.7,2.5c1.7,0.5,3.1,1.2,4,2.1c0.9,0.9,1.5,2.3,1.5,4.1V33.4z"/>
</svg>
