<?xml version="1.0" encoding="utf-8"?>
<!-- Generator: Adobe Illustrator 19.0.0, SVG Export Plug-In . SVG Version: 6.00 Build 0)  -->
<svg version="1.1" id="Layer_1" xmlns="http://www.w3.org/2000/svg" xmlns:xlink="http://www.w3.org/1999/xlink" x="0px" y="0px"
	 viewBox="0 0 59.4 88.8" style="enable-background:new 0 0 59.4 88.8;" xml:space="preserve">
<style type="text/css">
	.st0{fill:none;}
	.st1{fill:none;stroke:#0B040C;stroke-width:2.2677;}
	.st2{fill:#FFFFFF;}
	.st3{clip-path:url(#XMLID_94_);fill:#FFFFFF;}
	.st4{clip-path:url(#XMLID_94_);fill:url(#XMLID_95_);}
</style>
<pattern  x="-452.8" y="-149.7" width="72" height="72" patternUnits="userSpaceOnUse" id="_x31_0_lpi_10_x25__2" viewBox="72.5 -142.4 72 72" style="overflow:visible;">
	<g id="XMLID_66_">
		<polygon id="XMLID_609_" class="st0" points="72.5,-142.4 144.5,-142.4 144.5,-70.4 72.5,-70.4 		"/>
		<g id="XMLID_606_">
			<line id="XMLID_608_" class="st1" x1="139.7" y1="-73.5" x2="212.4" y2="-0.8"/>
			<line id="XMLID_607_" class="st1" x1="144.8" y1="-78.6" x2="217.5" y2="-5.9"/>
		</g>
		<g id="XMLID_599_">
			<line id="XMLID_605_" class="st1" x1="67.7" y1="-73.5" x2="140.4" y2="-0.8"/>
			<line id="XMLID_604_" class="st1" x1="77.9" y1="-83.7" x2="150.6" y2="-11"/>
			<line id="XMLID_603_" class="st1" x1="88.1" y1="-93.9" x2="160.4" y2="-21.2"/>
			<line id="XMLID_602_" class="st1" x1="72.8" y1="-78.6" x2="145.5" y2="-5.9"/>
			<line id="XMLID_601_" class="st1" x1="83" y1="-88.8" x2="155.7" y2="-16.1"/>
			<line id="XMLID_600_" class="st1" x1="92.8" y1="-99" x2="165.2" y2="-26.3"/>
		</g>
		<g id="XMLID_593_">
			<line id="XMLID_598_" class="st1" x1="5.9" y1="-83.7" x2="78.6" y2="-11"/>
			<line id="XMLID_597_" class="st1" x1="16.1" y1="-93.9" x2="88.4" y2="-21.2"/>
			<line id="XMLID_596_" class="st1" x1="0.8" y1="-78.6" x2="73.5" y2="-5.9"/>
			<line id="XMLID_595_" class="st1" x1="11" y1="-88.8" x2="83.7" y2="-16.1"/>
			<line id="XMLID_594_" class="st1" x1="20.8" y1="-99" x2="93.2" y2="-26.3"/>
		</g>
		<g id="XMLID_586_">
			<line id="XMLID_592_" class="st1" x1="118.7" y1="-125.1" x2="191.4" y2="-52.4"/>
			<line id="XMLID_591_" class="st1" x1="128.6" y1="-135.3" x2="201.3" y2="-62.6"/>
			<line id="XMLID_590_" class="st1" x1="139.7" y1="-145.5" x2="212.4" y2="-72.8"/>
			<line id="XMLID_589_" class="st1" x1="123.5" y1="-130.2" x2="196.2" y2="-57.5"/>
			<line id="XMLID_588_" class="st1" x1="134.6" y1="-140.4" x2="207.3" y2="-67.7"/>
			<line id="XMLID_587_" class="st1" x1="144.8" y1="-150.6" x2="217.5" y2="-77.9"/>
		</g>
		<g id="XMLID_575_">
			<line id="XMLID_585_" class="st1" x1="46.7" y1="-125.1" x2="119.4" y2="-52.4"/>
			<line id="XMLID_584_" class="st1" x1="56.6" y1="-135.3" x2="129.3" y2="-62.6"/>
			<line id="XMLID_583_" class="st1" x1="67.7" y1="-145.5" x2="140.4" y2="-72.8"/>
			<line id="XMLID_582_" class="st1" x1="77.9" y1="-155.7" x2="150.6" y2="-83"/>
			<line id="XMLID_581_" class="st1" x1="88.1" y1="-165.9" x2="160.4" y2="-93.2"/>
			<line id="XMLID_580_" class="st1" x1="51.5" y1="-130.2" x2="124.2" y2="-57.5"/>
			<line id="XMLID_579_" class="st1" x1="62.6" y1="-140.4" x2="135.3" y2="-67.7"/>
			<line id="XMLID_578_" class="st1" x1="72.8" y1="-150.6" x2="145.5" y2="-77.9"/>
			<line id="XMLID_577_" class="st1" x1="83" y1="-160.8" x2="155.7" y2="-88.1"/>
			<line id="XMLID_576_" class="st1" x1="92.8" y1="-171" x2="165.2" y2="-98.3"/>
		</g>
		<g id="XMLID_569_">
			<line id="XMLID_574_" class="st1" x1="5.9" y1="-155.7" x2="78.6" y2="-83"/>
			<line id="XMLID_573_" class="st1" x1="16.1" y1="-165.9" x2="88.4" y2="-93.2"/>
			<line id="XMLID_572_" class="st1" x1="0.8" y1="-150.6" x2="73.5" y2="-77.9"/>
			<line id="XMLID_571_" class="st1" x1="11" y1="-160.8" x2="83.7" y2="-88.1"/>
			<line id="XMLID_570_" class="st1" x1="20.8" y1="-171" x2="93.2" y2="-98.3"/>
		</g>
		<g id="XMLID_564_">
			<line id="XMLID_568_" class="st1" x1="118.7" y1="-197.1" x2="191.4" y2="-124.4"/>
			<line id="XMLID_567_" class="st1" x1="128.6" y1="-207.3" x2="201.3" y2="-134.6"/>
			<line id="XMLID_566_" class="st1" x1="123.5" y1="-202.2" x2="196.2" y2="-129.5"/>
			<line id="XMLID_565_" class="st1" x1="134.6" y1="-212.4" x2="207.3" y2="-139.7"/>
		</g>
		<g id="XMLID_559_">
			<line id="XMLID_563_" class="st1" x1="46.7" y1="-197.1" x2="119.4" y2="-124.4"/>
			<line id="XMLID_562_" class="st1" x1="56.6" y1="-207.3" x2="129.3" y2="-134.6"/>
			<line id="XMLID_561_" class="st1" x1="51.5" y1="-202.2" x2="124.2" y2="-129.5"/>
			<line id="XMLID_560_" class="st1" x1="62.6" y1="-212.4" x2="135.3" y2="-139.7"/>
		</g>
	</g>
</pattern>
<path id="XMLID_413_" class="st2" d="M40.1,57.4v12.4c0,0.9-0.4,1.3-1.3,1.3H20.4c-0.9,0-1.3-0.5-1.3-1.3v-8.9L0,64.1v10
	c0,2,0.4,4,1.1,5.7c0.8,1.8,1.8,3.3,3.1,4.7c1.3,1.3,2.9,2.4,4.7,3.1c1.8,0.8,3.7,1.1,5.7,1.1h30.1c2,0,4-0.4,5.7-1.1
	c1.8-0.8,3.3-1.8,4.7-3.1c1.3-1.3,2.4-2.9,3.1-4.7c0.8-1.8,1.1-3.7,1.1-5.7V57.4H40.1z M38.5,17.6c0.9,0,1.3,0.5,1.3,1.3v8.3
	L58.9,24v-9.3c0-2-0.4-4-1.1-5.7C57,7.2,56,5.6,54.6,4.3c-1.3-1.3-2.9-2.4-4.7-3.1C48.2,0.4,46.3,0,44.2,0H14.9c-2,0-4,0.4-5.7,1.1
	C7.4,1.9,5.9,2.9,4.5,4.3S2.2,7.2,1.4,8.9c-0.8,1.8-1.1,3.7-1.1,5.7v2.9H38.5z"/>
<g id="XMLID_416_">
	<defs>
		<path id="XMLID_419_" d="M59.3,53.4v4H40c0-0.9-0.6-1.5-1.7-1.7c-1.1-0.4-3.7-1.1-7.6-2.2c-3.9-1.1-10-2.8-18.2-5.1
			c-4-1.2-7-2.7-9.2-4.7c-2.1-2-3.2-5-3.2-9.1V17.6h20.6c-0.9,0-1.3,0.5-1.3,1.3v11.5c0,0.5,0.1,0.9,0.4,1.1
			c0.3,0.2,0.6,0.4,1.1,0.6c0.6,0.2,3,0.8,7.1,2c4.1,1.1,10.6,3,19.3,5.5c3.8,1.1,6.8,2.6,8.8,4.7C58.3,46.3,59.3,49.4,59.3,53.4z"
			/>
	</defs>
	<clipPath id="XMLID_94_">
		<use xlink:href="#XMLID_419_"  style="overflow:visible;"/>
	</clipPath>
	<rect id="XMLID_417_" x="-14.7" y="-18.5" class="st3" width="86.7" height="97.8"/>
	<pattern  id="XMLID_95_" xlink:href="#_x31_0_lpi_10_x25__2" patternTransform="matrix(0.187 0 0 0.187 -5834.5776 -6319.7515)">
	</pattern>
	<rect id="XMLID_418_" x="-7.7" y="-3" class="st4" width="74.9" height="74.9"/>
</g>
</svg>
