<?xml version="1.0" encoding="utf-8"?>
<!-- Generator: Adobe Illustrator 19.0.0, SVG Export Plug-In . SVG Version: 6.00 Build 0)  -->
<svg version="1.1" id="Layer_1" xmlns="http://www.w3.org/2000/svg" xmlns:xlink="http://www.w3.org/1999/xlink" x="0px" y="0px"
	 viewBox="0 0 52.3 88.5" style="enable-background:new 0 0 52.3 88.5;" xml:space="preserve">
<style type="text/css">
	.st0{fill:none;}
	.st1{fill:none;stroke:#0B040C;stroke-width:2.2677;}
	.st2{clip-path:url(#XMLID_34_);fill:#FFFFFF;}
	.st3{clip-path:url(#XMLID_34_);fill:url(#XMLID_35_);}
	.st4{clip-path:url(#XMLID_34_);fill:url(#XMLID_36_);}
	.st5{clip-path:url(#XMLID_34_);fill:none;}
</style>
<pattern  x="-421.8" y="-241.7" width="72" height="72" patternUnits="userSpaceOnUse" id="_x31_0_lpi_10_x25__2" viewBox="72.5 -142.4 72 72" style="overflow:visible;">
	<g id="XMLID_1_">
		<polygon id="XMLID_618_" class="st0" points="72.5,-142.4 144.5,-142.4 144.5,-70.4 72.5,-70.4 		"/>
		<g id="XMLID_615_">
			<line id="XMLID_617_" class="st1" x1="139.7" y1="-73.5" x2="212.4" y2="-0.8"/>
			<line id="XMLID_616_" class="st1" x1="144.8" y1="-78.6" x2="217.5" y2="-5.9"/>
		</g>
		<g id="XMLID_608_">
			<line id="XMLID_614_" class="st1" x1="67.7" y1="-73.5" x2="140.4" y2="-0.8"/>
			<line id="XMLID_613_" class="st1" x1="77.9" y1="-83.7" x2="150.6" y2="-11"/>
			<line id="XMLID_612_" class="st1" x1="88.1" y1="-93.9" x2="160.4" y2="-21.2"/>
			<line id="XMLID_611_" class="st1" x1="72.8" y1="-78.6" x2="145.5" y2="-5.9"/>
			<line id="XMLID_610_" class="st1" x1="83" y1="-88.8" x2="155.7" y2="-16.1"/>
			<line id="XMLID_609_" class="st1" x1="92.8" y1="-99" x2="165.2" y2="-26.3"/>
		</g>
		<g id="XMLID_602_">
			<line id="XMLID_607_" class="st1" x1="5.9" y1="-83.7" x2="78.6" y2="-11"/>
			<line id="XMLID_606_" class="st1" x1="16.1" y1="-93.9" x2="88.4" y2="-21.2"/>
			<line id="XMLID_605_" class="st1" x1="0.8" y1="-78.6" x2="73.5" y2="-5.9"/>
			<line id="XMLID_604_" class="st1" x1="11" y1="-88.8" x2="83.7" y2="-16.1"/>
			<line id="XMLID_603_" class="st1" x1="20.8" y1="-99" x2="93.2" y2="-26.3"/>
		</g>
		<g id="XMLID_595_">
			<line id="XMLID_601_" class="st1" x1="118.7" y1="-125.1" x2="191.4" y2="-52.4"/>
			<line id="XMLID_600_" class="st1" x1="128.6" y1="-135.3" x2="201.3" y2="-62.6"/>
			<line id="XMLID_599_" class="st1" x1="139.7" y1="-145.5" x2="212.4" y2="-72.8"/>
			<line id="XMLID_598_" class="st1" x1="123.5" y1="-130.2" x2="196.2" y2="-57.5"/>
			<line id="XMLID_597_" class="st1" x1="134.6" y1="-140.4" x2="207.3" y2="-67.7"/>
			<line id="XMLID_596_" class="st1" x1="144.8" y1="-150.6" x2="217.5" y2="-77.9"/>
		</g>
		<g id="XMLID_584_">
			<line id="XMLID_594_" class="st1" x1="46.7" y1="-125.1" x2="119.4" y2="-52.4"/>
			<line id="XMLID_593_" class="st1" x1="56.6" y1="-135.3" x2="129.3" y2="-62.6"/>
			<line id="XMLID_592_" class="st1" x1="67.7" y1="-145.5" x2="140.4" y2="-72.8"/>
			<line id="XMLID_591_" class="st1" x1="77.9" y1="-155.7" x2="150.6" y2="-83"/>
			<line id="XMLID_590_" class="st1" x1="88.1" y1="-165.9" x2="160.4" y2="-93.2"/>
			<line id="XMLID_589_" class="st1" x1="51.5" y1="-130.2" x2="124.2" y2="-57.5"/>
			<line id="XMLID_588_" class="st1" x1="62.6" y1="-140.4" x2="135.3" y2="-67.7"/>
			<line id="XMLID_587_" class="st1" x1="72.8" y1="-150.6" x2="145.5" y2="-77.9"/>
			<line id="XMLID_586_" class="st1" x1="83" y1="-160.8" x2="155.7" y2="-88.1"/>
			<line id="XMLID_585_" class="st1" x1="92.8" y1="-171" x2="165.2" y2="-98.3"/>
		</g>
		<g id="XMLID_569_">
			<line id="XMLID_583_" class="st1" x1="5.9" y1="-155.7" x2="78.6" y2="-83"/>
			<line id="XMLID_582_" class="st1" x1="16.1" y1="-165.9" x2="88.4" y2="-93.2"/>
			<line id="XMLID_581_" class="st1" x1="0.8" y1="-150.6" x2="73.5" y2="-77.9"/>
			<line id="XMLID_580_" class="st1" x1="11" y1="-160.8" x2="83.7" y2="-88.1"/>
			<line id="XMLID_570_" class="st1" x1="20.8" y1="-171" x2="93.2" y2="-98.3"/>
		</g>
		<g id="XMLID_564_">
			<line id="XMLID_568_" class="st1" x1="118.7" y1="-197.1" x2="191.4" y2="-124.4"/>
			<line id="XMLID_567_" class="st1" x1="128.6" y1="-207.3" x2="201.3" y2="-134.6"/>
			<line id="XMLID_566_" class="st1" x1="123.5" y1="-202.2" x2="196.2" y2="-129.5"/>
			<line id="XMLID_565_" class="st1" x1="134.6" y1="-212.4" x2="207.3" y2="-139.7"/>
		</g>
		<g id="XMLID_550_">
			<line id="XMLID_563_" class="st1" x1="46.7" y1="-197.1" x2="119.4" y2="-124.4"/>
			<line id="XMLID_562_" class="st1" x1="56.6" y1="-207.3" x2="129.3" y2="-134.6"/>
			<line id="XMLID_552_" class="st1" x1="51.5" y1="-202.2" x2="124.2" y2="-129.5"/>
			<line id="XMLID_551_" class="st1" x1="62.6" y1="-212.4" x2="135.3" y2="-139.7"/>
		</g>
	</g>
</pattern>
<g id="XMLID_6_">
	<defs>
		<path id="XMLID_3_" d="M51.2,80c-0.8,1.7-1.8,3.2-3,4.5c-1.2,1.3-2.7,2.3-4.5,3c-1.7,0.7-3.6,1.1-5.5,1.1H14
			c-1.9,0-3.8-0.4-5.4-1.1c-1.7-0.7-3.1-1.7-4.4-3c-1.2-1.3-2.2-2.8-2.9-4.5c-0.7-1.7-1.1-3.5-1.1-5.4v-7.3l15.3-2.7v6.5
			c0,1,0.4,1.8,1.1,2.5c0.7,0.7,1.5,1,2.5,1h14.5c1,0,1.8-0.3,2.5-1c0.7-0.7,1.1-1.5,1.1-2.5V47c-3.6,1.2-7.6,2.1-11.8,2.8
			c-4.2,0.7-8,1.1-11.2,1.1c-4.5,0-8-1.3-10.4-4.1c-2.4-2.7-3.7-6-3.7-9.9V14c0-1.9,0.4-3.8,1.1-5.4c0.8-1.7,1.7-3.1,3-4.4
			c1.2-1.2,2.7-2.2,4.5-3C10.3,0.4,12.1,0,14.1,0h24.4c1.9,0,3.8,0.4,5.4,1.1c1.7,0.8,3.1,1.8,4.4,3c1.2,1.2,2.2,2.7,2.9,4.4
			c0.7,1.7,1.1,3.5,1.1,5.4v60.6C52.3,76.5,52,78.3,51.2,80z M37.1,17.4c0-1-0.4-1.8-1.1-2.5c-0.7-0.7-1.6-1-2.5-1H18.9
			c-1,0-1.8,0.3-2.5,1c-0.7,0.7-1.1,1.5-1.1,2.5v15.5c0,1,0.3,1.8,0.9,2.5c0.6,0.7,1.5,1,2.7,1c0.8,0,1.9-0.1,3.2-0.3
			c1.3-0.2,2.7-0.4,4.1-0.7c1.4-0.3,2.8-0.6,4.1-0.9c1.3-0.3,2.4-0.6,3.2-0.9c2.4-0.8,3.6-2.3,3.6-4.4V17.4z"/>
	</defs>
	<clipPath id="XMLID_34_">
		<use xlink:href="#XMLID_3_"  style="overflow:visible;"/>
	</clipPath>
	<rect id="XMLID_537_" x="-21.3" y="-40.7" class="st2" width="82.1" height="155.3"/>
	<pattern  id="XMLID_35_" xlink:href="#_x31_0_lpi_10_x25__2" patternTransform="matrix(0.187 0 0 0.187 -5780.4541 -6303.4102)">
	</pattern>
	<rect id="XMLID_536_" x="-5.2" y="-45.7" class="st3" width="74.9" height="74.9"/>
	<pattern  id="XMLID_36_" xlink:href="#_x31_0_lpi_10_x25__2" patternTransform="matrix(0.187 0 0 0.187 -5780.4541 -6295.8398)">
	</pattern>
	<rect id="XMLID_495_" x="-5.2" y="29.2" class="st4" width="74.9" height="74.9"/>
	<rect id="XMLID_541_" x="-8.6" y="-27.9" class="st5" width="74.9" height="74.9"/>
	<rect id="XMLID_540_" x="-8.6" y="47" class="st5" width="74.9" height="74.9"/>
</g>
</svg>
