<?xml version="1.0" encoding="utf-8"?>
<!-- Generator: Adobe Illustrator 19.0.0, SVG Export Plug-In . SVG Version: 6.00 Build 0)  -->
<svg version="1.1" id="Layer_1" xmlns="http://www.w3.org/2000/svg" xmlns:xlink="http://www.w3.org/1999/xlink" x="0px" y="0px"
	 viewBox="0 0 27.9 40.7" style="enable-background:new 0 0 27.9 40.7;" xml:space="preserve">
<style type="text/css">
	.Scribble_x0020_5{fill:#818285;}
	.st0{fill:none;stroke:#FFFFFF;stroke-width:0.9;stroke-linecap:round;stroke-linejoin:round;}
</style>
<g id="XMLID_2629_">
	<path id="XMLID_122_" class="Scribble_x0020_5" d="M27.7,0.4v33.4c0,0.9-0.2,1.8-0.5,2.6c-0.3,0.8-0.8,1.5-1.4,2.1
		s-1.3,1.1-2.1,1.4c-0.8,0.3-1.7,0.5-2.6,0.5H6.9c-0.9,0-1.8-0.2-2.6-0.5c-0.8-0.3-1.5-0.8-2.1-1.4c-0.6-0.6-1.1-1.3-1.4-2.1
		c-0.3-0.8-0.5-1.7-0.5-2.6V0.4H9v31.4c0,0.4,0.2,0.6,0.6,0.6h8.8c0.4,0,0.6-0.2,0.6-0.6V0.4H27.7z"/>
	<g id="XMLID_119_">
		<path id="XMLID_121_" class="st0" d="M19.2,0.5C19.2,0.5,19.2,0.5,19.2,0.5c0,0.1-0.1,2.5,0,2.8c0.2,0.4,4.1-3.4,4.5-2.8
			c0.5,0.7-4.6,6.1-4.4,6.3c0.3,0.4,7.8-5.9,8.2-5.1c0.3,0.5-8.5,8.5-8.2,9c0.5,0.8,8.2-5.1,8.2-5.1c0.3,0.6-8.6,8.3-8.2,9
			c0.4,0.7,8-5.6,8.2-5.1c0,0-8.9,7.3-8.2,8.3c0.2,0.3,8.2-5.2,8.2-5.1c0,0-8.4,7.3-8.2,7.5c0.4,0.6,8.2-5.2,8.2-5.1
			c0.4,0.7-8.7,8.1-8.2,8.9c0.5,0.9,8.2-5.1,8.2-5.1c0,0-8.7,8.2-8.2,8.9c0,0.1,8.2-5.2,8.2-5.1c0.2,0.3-8.6,8.4-8.2,9
			c0.4,0.6,7.7-6,8.2-5.1"/>
		<path id="XMLID_120_" class="st0" d="M0.5,0.5C0.5,0.5,0.5,0.5,0.5,0.5c0.1,0.2-0.1,2.1,0,2.4c0.3,0.5,3.7-2.5,3.8-2.4
			c0.3,0.6-4.1,5.4-3.8,5.8c0.4,0.7,8-5.5,8.2-5.1c0.1,0.1-8.9,7.5-8.2,8.6c0.2,0.3,8-5.5,8.2-5.1C9,5,0,11.5,0.5,12.2
			c0.3,0.5,7.8-5.8,8.2-5.1c0,0-8.8,6.3-8.2,7.3c0.2,0.3,8.2-5.1,8.2-5.1C9,9.7,0.2,16,0.5,16.5c0.2,0.3,7.8-5.7,8.2-5.1
			c0.6,1-8.2,8.4-8.2,8.4c0.1,0.2,8.2-5.1,8.2-5.1c0.7,1.1-8.7,7.7-8.2,8.5c0.1,0.2,7.9-5.7,8.2-5.1C9,18.5-0.2,25,0.5,26
			c0.4,0.6,7.5-6.2,8.2-5.1c0.6,0.9-8.2,8-8.2,8c0.3,0.4,7.8-5.7,8.2-5.1c0.4,0.6-8.5,7.6-8.2,8.1c0,0,8.2-5.1,8.2-5.1
			c0.3,0.5-8.5,6.9-8.1,7.6c0.4,0.7,7.8-5.7,8.1-5.1c0.1,0.2-7.9,6.7-7.5,7.2l7.5-4.7c0.4,0.7-6,6.7-6,6.7c0.6,1,9.1-6.4,9.5-5.9
			c0,0-6,7.5-6,7.5s11.1-9.1,12.1-7.5c0.5,0.7-9.1,7.3-8.8,7.6c0,0,17.4-12.2,18-11.3c0,0-12.1,11-11.9,11.3
			c0.4,0.7,11.5-8.1,11.9-7.5c0.4,0.6-6.3,7.5-6.3,7.5c0.5,0.8,5.5-4,5.8-3.6"/>
	</g>
</g>
</svg>
