<?xml version="1.0" encoding="utf-8"?>
<!-- Generator: Adobe Illustrator 19.0.0, SVG Export Plug-In . SVG Version: 6.00 Build 0)  -->
<svg version="1.1" id="Layer_1" xmlns="http://www.w3.org/2000/svg" xmlns:xlink="http://www.w3.org/1999/xlink" x="0px" y="0px"
	 viewBox="0 0 60.5 89.5" style="enable-background:new 0 0 60.5 89.5;" xml:space="preserve">
<style type="text/css">
	.st0{fill:none;}
	.st1{fill:none;stroke:#0B050C;stroke-width:2.2677;}
	.st2{fill:#FFFFFF;}
	.st3{clip-path:url(#XMLID_56_);fill:#FFFFFF;}
	.st4{clip-path:url(#XMLID_56_);fill:url(#XMLID_57_);}
	.st5{clip-path:url(#XMLID_58_);fill:#FFFFFF;}
	.st6{clip-path:url(#XMLID_58_);fill:url(#XMLID_59_);}
</style>
<pattern  x="-266.4" y="-347.8" width="72" height="72" patternUnits="userSpaceOnUse" id="_x31_0_lpi_10_x25__2" viewBox="72.5 -142.4 72 72" style="overflow:visible;">
	<g id="XMLID_1_">
		<polygon id="XMLID_159_" class="st0" points="72.5,-142.4 144.5,-142.4 144.5,-70.4 72.5,-70.4 		"/>
		<g id="XMLID_156_">
			<line id="XMLID_158_" class="st1" x1="139.7" y1="-73.5" x2="212.4" y2="-0.8"/>
			<line id="XMLID_157_" class="st1" x1="144.8" y1="-78.6" x2="217.5" y2="-5.9"/>
		</g>
		<g id="XMLID_149_">
			<line id="XMLID_155_" class="st1" x1="67.7" y1="-73.5" x2="140.4" y2="-0.8"/>
			<line id="XMLID_154_" class="st1" x1="77.9" y1="-83.7" x2="150.6" y2="-11"/>
			<line id="XMLID_153_" class="st1" x1="88.1" y1="-93.9" x2="160.4" y2="-21.2"/>
			<line id="XMLID_152_" class="st1" x1="72.8" y1="-78.6" x2="145.5" y2="-5.9"/>
			<line id="XMLID_151_" class="st1" x1="83" y1="-88.8" x2="155.7" y2="-16.1"/>
			<line id="XMLID_150_" class="st1" x1="92.8" y1="-99" x2="165.2" y2="-26.3"/>
		</g>
		<g id="XMLID_143_">
			<line id="XMLID_148_" class="st1" x1="5.9" y1="-83.7" x2="78.6" y2="-11"/>
			<line id="XMLID_147_" class="st1" x1="16.1" y1="-93.9" x2="88.4" y2="-21.2"/>
			<line id="XMLID_146_" class="st1" x1="0.8" y1="-78.6" x2="73.5" y2="-5.9"/>
			<line id="XMLID_145_" class="st1" x1="11" y1="-88.8" x2="83.7" y2="-16.1"/>
			<line id="XMLID_144_" class="st1" x1="20.8" y1="-99" x2="93.2" y2="-26.3"/>
		</g>
		<g id="XMLID_136_">
			<line id="XMLID_142_" class="st1" x1="118.7" y1="-125.1" x2="191.4" y2="-52.4"/>
			<line id="XMLID_141_" class="st1" x1="128.6" y1="-135.3" x2="201.3" y2="-62.6"/>
			<line id="XMLID_140_" class="st1" x1="139.7" y1="-145.5" x2="212.4" y2="-72.8"/>
			<line id="XMLID_139_" class="st1" x1="123.5" y1="-130.2" x2="196.2" y2="-57.5"/>
			<line id="XMLID_138_" class="st1" x1="134.6" y1="-140.4" x2="207.3" y2="-67.7"/>
			<line id="XMLID_137_" class="st1" x1="144.8" y1="-150.6" x2="217.5" y2="-77.9"/>
		</g>
		<g id="XMLID_125_">
			<line id="XMLID_135_" class="st1" x1="46.7" y1="-125.1" x2="119.4" y2="-52.4"/>
			<line id="XMLID_134_" class="st1" x1="56.6" y1="-135.3" x2="129.3" y2="-62.6"/>
			<line id="XMLID_133_" class="st1" x1="67.7" y1="-145.5" x2="140.4" y2="-72.8"/>
			<line id="XMLID_132_" class="st1" x1="77.9" y1="-155.7" x2="150.6" y2="-83"/>
			<line id="XMLID_131_" class="st1" x1="88.1" y1="-165.9" x2="160.4" y2="-93.2"/>
			<line id="XMLID_130_" class="st1" x1="51.5" y1="-130.2" x2="124.2" y2="-57.5"/>
			<line id="XMLID_129_" class="st1" x1="62.6" y1="-140.4" x2="135.3" y2="-67.7"/>
			<line id="XMLID_128_" class="st1" x1="72.8" y1="-150.6" x2="145.5" y2="-77.9"/>
			<line id="XMLID_127_" class="st1" x1="83" y1="-160.8" x2="155.7" y2="-88.1"/>
			<line id="XMLID_126_" class="st1" x1="92.8" y1="-171" x2="165.2" y2="-98.3"/>
		</g>
		<g id="XMLID_119_">
			<line id="XMLID_124_" class="st1" x1="5.9" y1="-155.7" x2="78.6" y2="-83"/>
			<line id="XMLID_123_" class="st1" x1="16.1" y1="-165.9" x2="88.4" y2="-93.2"/>
			<line id="XMLID_122_" class="st1" x1="0.8" y1="-150.6" x2="73.5" y2="-77.9"/>
			<line id="XMLID_121_" class="st1" x1="11" y1="-160.8" x2="83.7" y2="-88.1"/>
			<line id="XMLID_120_" class="st1" x1="20.8" y1="-171" x2="93.2" y2="-98.3"/>
		</g>
		<g id="XMLID_114_">
			<line id="XMLID_118_" class="st1" x1="118.7" y1="-197.1" x2="191.4" y2="-124.4"/>
			<line id="XMLID_117_" class="st1" x1="128.6" y1="-207.3" x2="201.3" y2="-134.6"/>
			<line id="XMLID_116_" class="st1" x1="123.5" y1="-202.2" x2="196.2" y2="-129.5"/>
			<line id="XMLID_115_" class="st1" x1="134.6" y1="-212.4" x2="207.3" y2="-139.7"/>
		</g>
		<g id="XMLID_109_">
			<line id="XMLID_113_" class="st1" x1="46.7" y1="-197.1" x2="119.4" y2="-124.4"/>
			<line id="XMLID_112_" class="st1" x1="56.6" y1="-207.3" x2="129.3" y2="-134.6"/>
			<line id="XMLID_111_" class="st1" x1="51.5" y1="-202.2" x2="124.2" y2="-129.5"/>
			<line id="XMLID_110_" class="st1" x1="62.6" y1="-212.4" x2="135.3" y2="-139.7"/>
		</g>
	</g>
</pattern>
<g id="XMLID_90_">
	<path id="XMLID_3_" class="st2" d="M59.4,9.7c-0.8-1.8-1.8-3.3-3.1-4.7s-2.9-2.4-4.7-3.1c-1.8-0.8-3.7-1.1-5.7-1.1h-4.7v88.8h4.7
		c2,0,4-0.4,5.7-1.1c1.8-0.8,3.3-1.8,4.7-3.1c1.3-1.3,2.4-2.9,3.1-4.7c0.8-1.8,1.1-3.7,1.1-5.7V15.4C60.5,13.4,60.1,11.5,59.4,9.7z
		 M0,89.5h19.3V0.7H0V89.5z"/>
	<g id="XMLID_79_">
		<defs>
			<path id="XMLID_28_" d="M41.2,70.6v18.9H19.3V71.9h20.5C40.7,71.9,41.2,71.5,41.2,70.6z"/>
		</defs>
		<clipPath id="XMLID_56_">
			<use xlink:href="#XMLID_28_"  style="overflow:visible;"/>
		</clipPath>
		<rect id="XMLID_78_" x="-9.7" y="50.3" class="st3" width="95.5" height="78.3"/>
		<pattern  id="XMLID_57_" xlink:href="#_x31_0_lpi_10_x25__2" patternTransform="matrix(0.187 0 0 0.187 -6140.8926 -6048.9458)">
		</pattern>
		<rect id="XMLID_20_" x="3.7" y="42.6" class="st4" width="74.9" height="74.9"/>
	</g>
	<g id="XMLID_5_">
		<defs>
			<path id="XMLID_30_" d="M41.2,0.8v18.9c0-0.9-0.5-1.3-1.3-1.3H19.3V0.8H41.2z"/>
		</defs>
		<clipPath id="XMLID_58_">
			<use xlink:href="#XMLID_30_"  style="overflow:visible;"/>
		</clipPath>
		<rect id="XMLID_2_" x="-6.6" y="-33.2" class="st5" width="95.5" height="78.3"/>
		<pattern  id="XMLID_59_" xlink:href="#_x31_0_lpi_10_x25__2" patternTransform="matrix(0.187 0 0 0.187 -6103.6792 -6047.5776)">
		</pattern>
		<rect id="XMLID_4_" x="0.6" y="-23.4" class="st6" width="74.9" height="74.9"/>
	</g>
	<line id="XMLID_27_" class="st0" x1="41.2" y1="21.2" x2="41.2" y2="19.7"/>
	<line id="XMLID_26_" class="st0" x1="19.3" y1="0.8" x2="19.3" y2="0"/>
	<line id="XMLID_25_" class="st0" x1="19.3" y1="20.5" x2="19.3" y2="18.3"/>
	<line id="XMLID_22_" class="st0" x1="19.3" y1="71.9" x2="19.3" y2="69"/>
	<line id="XMLID_19_" class="st0" x1="41.2" y1="70.6" x2="41.2" y2="69"/>
</g>
</svg>
