<?xml version="1.0" encoding="utf-8"?>
<!-- Generator: Adobe Illustrator 19.0.0, SVG Export Plug-In . SVG Version: 6.00 Build 0)  -->
<svg version="1.1" id="Layer_1" xmlns="http://www.w3.org/2000/svg" xmlns:xlink="http://www.w3.org/1999/xlink" x="0px" y="0px"
	 viewBox="0 0 28.4 40.7" style="enable-background:new 0 0 28.4 40.7;" xml:space="preserve">
<style type="text/css">
	.Scribble_x0020_5{fill:#818285;}
	.st0{fill:none;stroke:#FFFFFF;stroke-width:0.9;stroke-linecap:round;stroke-linejoin:round;}
</style>
<g id="XMLID_2626_">
	<path id="XMLID_105_" class="Scribble_x0020_5" d="M27.7,36.3c-0.3,0.8-0.8,1.5-1.4,2.1s-1.3,1.1-2.1,1.4c-0.8,0.3-1.7,0.5-2.6,0.5
		H6.8c-0.9,0-1.8-0.2-2.6-0.5c-0.8-0.3-1.5-0.8-2.1-1.4c-0.6-0.6-1.1-1.3-1.4-2.1c-0.3-0.8-0.5-1.7-0.5-2.6V6.9
		c0-0.9,0.2-1.8,0.5-2.6c0.3-0.8,0.8-1.5,1.4-2.1c0.6-0.6,1.3-1.1,2.1-1.4C5,0.5,5.9,0.3,6.8,0.3h14.8c0.9,0,1.8,0.2,2.6,0.5
		c0.8,0.3,1.5,0.8,2.1,1.4s1.1,1.3,1.4,2.1C28,5.1,28.2,6,28.2,6.9v26.8C28.2,34.6,28,35.5,27.7,36.3z M18.9,8.2H9.5
		c-0.4,0-0.6,0.2-0.6,0.6v22.9c0,0.4,0.2,0.6,0.6,0.6h9.4c0.4,0,0.6-0.2,0.6-0.6V8.8C19.5,8.4,19.3,8.2,18.9,8.2z"/>
	<g id="XMLID_102_">
		<path id="XMLID_104_" class="st0" d="M10,8C10.6,9,21.6-0.1,22,0.6c0.3,0.6-6.3,7.1-6,7.5c0,0,9.1-6.7,9.6-6
			c0.1,0.2-6.4,6.1-5.8,7.1c0.2,0.3,7.1-5.6,7.6-4.8c0,0-8.1,6.6-7.6,7.4c0.7,1.1,8.1-5.1,8.1-5.1c0.6,0.9-8.1,8.7-8.1,8.7
			c0.3,0.4,8.1-5.3,8.2-5.1c0.2,0.4-8.7,7-8.2,7.9c0.5,0.8,7.6-5.9,8.2-5.1c0.7,1.1-8.7,7.8-8.2,8.6c0,0,8.1-5.2,8.2-5.1
			c0.3,0.4-8.6,7.8-8.2,8.5c0.3,0.5,7.5-6.1,8.2-5.1c0.4,0.7-8.9,7.8-8.2,9c0.2,0.4,7.7-5.9,8.2-5.1c0.1,0.2-8.9,6.7-8.2,7.8
			c0.6,1,8.2-5.1,8.2-5.1"/>
		<path id="XMLID_103_" class="st0" d="M2.3,2.3c0.2,0.3,2.2-1.7,2.3-1.5c0.5,0.7-4.3,5.5-4.1,5.9c0.2,0.3,9.9-6.2,9.9-6.2
			c0.1,0.1-10,9.5-9.9,9.6c0.6,1,14.7-10.5,15.3-9.6c1,1.6-15.3,11.9-15.3,11.9c0.9,1.4,18.3-12.9,19-11.9c1,1.6-19,14.2-19,14.2
			C0.7,15,8.4,9.2,8.7,9.6c0.2,0.2-8.8,7.8-8.2,8.8c0.5,0.7,7.8-5.7,8.2-5.1c0,0-8.8,7.2-8.2,8.3c0.5,0.9,7.8-5.7,8.2-5.1
			c0.5,0.7-8.2,8.1-8.2,8.1s7.6-6,8.2-5.1c0.2,0.3-8.9,7.3-8.2,8.5C0.8,28.6,8.7,23,8.7,23c0.3,0.4-8.2,8-8.2,8
			c0.6,1,8.1-5.3,8.2-5.1c0,0-8.4,7.2-8.2,7.6c0.6,1,8.2-5.1,8.2-5.1c0.7,1.2-7.5,8.1-7.4,8.2c0.4,0.6,7.4-4.7,7.4-4.6
			c0.4,0.7-5.7,6.6-5.6,6.8c0.6,1,9.9-6.2,9.9-6.2S4.7,39.3,5,39.7c0.3,0.5,11.4-7.4,11.5-7.2c0.5,0.8-7.4,7.5-7.4,7.5
			c1.2,1.9,17.7-13.5,18.8-11.8c1,1.6-15.8,10.5-15,11.8c0.4,0.6,14.4-10.4,15-9.4c0.6,1-10.4,8.4-9.8,9.4c0.5,0.9,9.8-6.1,9.8-6.1
			c0.5,0.8-4.5,5.8-4.5,5.9c0.1,0.1,2.8-2,2.9-1.8"/>
	</g>
</g>
</svg>
