<?xml version="1.0" encoding="utf-8"?>
<!-- Generator: Adobe Illustrator 19.0.0, SVG Export Plug-In . SVG Version: 6.00 Build 0)  -->
<svg version="1.1" id="Layer_1" xmlns="http://www.w3.org/2000/svg" xmlns:xlink="http://www.w3.org/1999/xlink" x="0px" y="0px"
	 viewBox="0 0 27 40" style="enable-background:new 0 0 27 40;" xml:space="preserve">
<style type="text/css">
	.st0{fill:#EF664F;}
</style>
<path id="XMLID_2633_" class="st0" d="M27,0v33.9c0,0.9,0.1,1.8-0.2,2.6c-0.3,0.8-0.7,1.5-1.3,2.1c-0.6,0.6-1.2,0.8-2,1.2
	C22.7,40.1,21.9,40,21,40H6.7c-0.9,0-1.8,0.1-2.6-0.3c-0.8-0.3-1.5-0.7-2.1-1.3c-0.6-0.6-1.1-1.2-1.5-2C0.2,35.6,0,34.8,0,33.9V0h9
	v32c0,0.4,0,0,0.4,0h8.8c0.4,0,0.7,0.4,0.7,0V0H27z"/>
</svg>
