<?xml version="1.0" encoding="utf-8"?>
<!-- Generator: Adobe Illustrator 19.0.0, SVG Export Plug-In . SVG Version: 6.00 Build 0)  -->
<svg version="1.1" id="Layer_1" xmlns="http://www.w3.org/2000/svg" xmlns:xlink="http://www.w3.org/1999/xlink" x="0px" y="0px"
	 viewBox="0 0 51.3 59.3" style="enable-background:new 0 0 51.3 59.3;" xml:space="preserve">
<style type="text/css">
	.st0{fill:none;}
	.st1{fill:none;stroke:#0B040C;stroke-width:2.2677;}
	.st2{opacity:0.91;fill:#F1664F;}
	.st3{fill:#FFFFFF;}
	.st4{fill:url(#XMLID_28_);}
</style>
<pattern  x="-454.8" y="-250" width="72" height="72" patternUnits="userSpaceOnUse" id="_x31_0_lpi_10_x25__2" viewBox="72.5 -142.4 72 72" style="overflow:visible;">
	<g id="XMLID_39_">
		<polygon id="XMLID_665_" class="st0" points="72.5,-142.4 144.5,-142.4 144.5,-70.4 72.5,-70.4 		"/>
		<g id="XMLID_662_">
			<line id="XMLID_664_" class="st1" x1="139.7" y1="-73.5" x2="212.4" y2="-0.8"/>
			<line id="XMLID_663_" class="st1" x1="144.8" y1="-78.6" x2="217.5" y2="-5.9"/>
		</g>
		<g id="XMLID_655_">
			<line id="XMLID_661_" class="st1" x1="67.7" y1="-73.5" x2="140.4" y2="-0.8"/>
			<line id="XMLID_660_" class="st1" x1="77.9" y1="-83.7" x2="150.6" y2="-11"/>
			<line id="XMLID_659_" class="st1" x1="88.1" y1="-93.9" x2="160.4" y2="-21.2"/>
			<line id="XMLID_658_" class="st1" x1="72.8" y1="-78.6" x2="145.5" y2="-5.9"/>
			<line id="XMLID_657_" class="st1" x1="83" y1="-88.8" x2="155.7" y2="-16.1"/>
			<line id="XMLID_656_" class="st1" x1="92.8" y1="-99" x2="165.2" y2="-26.3"/>
		</g>
		<g id="XMLID_649_">
			<line id="XMLID_654_" class="st1" x1="5.9" y1="-83.7" x2="78.6" y2="-11"/>
			<line id="XMLID_653_" class="st1" x1="16.1" y1="-93.9" x2="88.4" y2="-21.2"/>
			<line id="XMLID_652_" class="st1" x1="0.8" y1="-78.6" x2="73.5" y2="-5.9"/>
			<line id="XMLID_651_" class="st1" x1="11" y1="-88.8" x2="83.7" y2="-16.1"/>
			<line id="XMLID_650_" class="st1" x1="20.8" y1="-99" x2="93.2" y2="-26.3"/>
		</g>
		<g id="XMLID_642_">
			<line id="XMLID_648_" class="st1" x1="118.7" y1="-125.1" x2="191.4" y2="-52.4"/>
			<line id="XMLID_647_" class="st1" x1="128.6" y1="-135.3" x2="201.3" y2="-62.6"/>
			<line id="XMLID_646_" class="st1" x1="139.7" y1="-145.5" x2="212.4" y2="-72.8"/>
			<line id="XMLID_645_" class="st1" x1="123.5" y1="-130.2" x2="196.2" y2="-57.5"/>
			<line id="XMLID_644_" class="st1" x1="134.6" y1="-140.4" x2="207.3" y2="-67.7"/>
			<line id="XMLID_643_" class="st1" x1="144.8" y1="-150.6" x2="217.5" y2="-77.9"/>
		</g>
		<g id="XMLID_631_">
			<line id="XMLID_641_" class="st1" x1="46.7" y1="-125.1" x2="119.4" y2="-52.4"/>
			<line id="XMLID_640_" class="st1" x1="56.6" y1="-135.3" x2="129.3" y2="-62.6"/>
			<line id="XMLID_639_" class="st1" x1="67.7" y1="-145.5" x2="140.4" y2="-72.8"/>
			<line id="XMLID_638_" class="st1" x1="77.9" y1="-155.7" x2="150.6" y2="-83"/>
			<line id="XMLID_637_" class="st1" x1="88.1" y1="-165.9" x2="160.4" y2="-93.2"/>
			<line id="XMLID_636_" class="st1" x1="51.5" y1="-130.2" x2="124.2" y2="-57.5"/>
			<line id="XMLID_635_" class="st1" x1="62.6" y1="-140.4" x2="135.3" y2="-67.7"/>
			<line id="XMLID_634_" class="st1" x1="72.8" y1="-150.6" x2="145.5" y2="-77.9"/>
			<line id="XMLID_633_" class="st1" x1="83" y1="-160.8" x2="155.7" y2="-88.1"/>
			<line id="XMLID_632_" class="st1" x1="92.8" y1="-171" x2="165.2" y2="-98.3"/>
		</g>
		<g id="XMLID_625_">
			<line id="XMLID_630_" class="st1" x1="5.9" y1="-155.7" x2="78.6" y2="-83"/>
			<line id="XMLID_629_" class="st1" x1="16.1" y1="-165.9" x2="88.4" y2="-93.2"/>
			<line id="XMLID_628_" class="st1" x1="0.8" y1="-150.6" x2="73.5" y2="-77.9"/>
			<line id="XMLID_627_" class="st1" x1="11" y1="-160.8" x2="83.7" y2="-88.1"/>
			<line id="XMLID_626_" class="st1" x1="20.8" y1="-171" x2="93.2" y2="-98.3"/>
		</g>
		<g id="XMLID_620_">
			<line id="XMLID_624_" class="st1" x1="118.7" y1="-197.1" x2="191.4" y2="-124.4"/>
			<line id="XMLID_623_" class="st1" x1="128.6" y1="-207.3" x2="201.3" y2="-134.6"/>
			<line id="XMLID_622_" class="st1" x1="123.5" y1="-202.2" x2="196.2" y2="-129.5"/>
			<line id="XMLID_621_" class="st1" x1="134.6" y1="-212.4" x2="207.3" y2="-139.7"/>
		</g>
		<g id="XMLID_615_">
			<line id="XMLID_619_" class="st1" x1="46.7" y1="-197.1" x2="119.4" y2="-124.4"/>
			<line id="XMLID_618_" class="st1" x1="56.6" y1="-207.3" x2="129.3" y2="-134.6"/>
			<line id="XMLID_617_" class="st1" x1="51.5" y1="-202.2" x2="124.2" y2="-129.5"/>
			<line id="XMLID_616_" class="st1" x1="62.6" y1="-212.4" x2="135.3" y2="-139.7"/>
		</g>
	</g>
</pattern>
<path id="XMLID_535_" class="st2" d="M51,15v29.2L25.7,58.8L0.4,44.2l18-10.4c0.3,0.4,0.6,0.8,0.8,1.1c0.3,0.4,0.5,0.6,0.6,0.7
	c0.2,0.2,0.4,0.5,0.5,0.7c0.4,0.6,0.8,1.2,1.2,1.8c1.4,2.3,2.4,4.5,3,6.4c1.7,5.6,0.6,9.1,0.4,9.7c3.5-5.2,5.7-10.2,7-15
	c0.4-1.4,0.7-2.9,0.9-4.2c0.2-1.2,0.4-2.5,0.5-3.7c0.2-1.7,0.2-3.3,0.2-4.9c0-0.4,0-0.9,0-1.3L51,15z"/>
<path id="XMLID_534_" class="st2" d="M33.4,25.2c0,0.4,0,0.8,0,1.3c0,1.6,0,3.2-0.2,4.9c-0.1,1.2-0.3,2.4-0.5,3.7
	c-0.2,1.4-0.5,2.8-0.9,4.2c-1.3,4.8-3.5,9.9-7,15c0.2-0.5,1.3-4.1-0.4-9.7c-0.6-1.9-1.5-4.1-3-6.4c-0.4-0.6-0.7-1.2-1.2-1.8
	c-0.2-0.2-0.3-0.5-0.5-0.7c-0.1-0.1-0.3-0.4-0.6-0.7c-0.2-0.3-0.5-0.7-0.8-1.1l-18,10.4V15L25.7,0.4L51,15L33.4,25.2z"/>
<path id="XMLID_533_" class="st3" d="M33.4,26.5c0,1.6,0,3.2-0.2,4.9c-0.1,1.2-0.3,2.4-0.5,3.7c-0.2,1.4-0.5,2.8-0.9,4.2
	c-1.3,4.8-3.5,9.9-7,15c0.2-0.5,1.3-4.1-0.4-9.7c-0.6-1.9-1.5-4.1-3-6.4c-0.4-0.6-0.7-1.2-1.2-1.8c-0.2-0.2-0.3-0.5-0.5-0.7
	c-0.1-0.1-0.3-0.4-0.6-0.7c-0.2-0.3-0.5-0.7-0.8-1.1c-0.3-0.3-0.5-0.7-0.9-1.1c-0.1-0.1-0.2-0.2-0.3-0.4c-0.6-0.8-1.2-1.7-1.8-2.7
	c-0.1-0.3-0.3-0.6-0.4-0.8c-0.7-1.6-1.2-3.2-1-4.8c0.1-0.7,0.2-1.3,0.5-1.9c0,0,1.4-3.5,5.8-3.3c1.1,0,2.4,0.3,3.9,0.9
	c1.4,0.6,3.1,1.5,4.9,2.8c-0.4-0.2-2.5-1.3-4.9-1.8c-1.3-0.3-2.8-0.5-4-0.2c-2,0.4-3.4,1.8-3.3,5.2c0,0.2,0,0.4,0,0.7
	c0,0,0,0.5,0.2,1.2c0.1,0.5,0.3,1.2,0.7,1.9c0.3,0.6,0.7,1.2,1.1,1.9c0.2,0.3,0.4,0.5,0.6,0.7c0.2,0.2,0.4,0.4,0.6,0.6
	c0.4,0.3,0.7,0.6,1.2,0.9c0.6,0.4,1.3,0.6,2,0.7c0.3,0,0.6,0.1,0.9,0c0.2,0,0.4,0,0.5,0c1.7-0.2,2.9-0.9,3.7-1.8
	c1.2-1.3,1.6-3.1,1.8-4.3c0-0.4,0.1-0.7,0.1-0.9c0-0.1,0-0.3,0-0.5c0-0.5,0-1.2,0-2.1c0-1.2-0.2-2.8-0.4-4.6
	c-0.4-2.9-1-6.5-2.2-10.3c-1.6-5.4-2.2-7.5-2.6-8.7c0,0,0.1,0,0.1,0c1.9,3,6.1,10.3,7.4,17.5c0,0.1,0,0.2,0,0.3
	c0.2,1.3,0.4,2.7,0.5,4.2c0.1,0.7,0.1,1.4,0.1,2C33.4,25.6,33.4,26,33.4,26.5z"/>
<path id="XMLID_527_" class="st3" d="M24.1,22.8c-2.5,0-4.6,2-4.6,4.6l6.9,4c1.4-0.8,2.3-2.3,2.3-4C28.7,24.8,26.6,22.8,24.1,22.8z
	 M26.4,26.5c-0.4,0-0.7-0.3-0.7-0.7c0-0.4,0.3-0.7,0.7-0.7c0.4,0,0.7,0.3,0.7,0.7C27.1,26.1,26.8,26.5,26.4,26.5z"/>
<path id="XMLID_525_" class="st3" d="M26.4,31.3c-0.7,0.4-1.5,0.6-2.3,0.6c-2.5,0-4.6-2.1-4.6-4.6c0,0,0,0,0-0.1L26.4,31.3z"/>
<polyline id="XMLID_513_" class="st0" points="18.3,33.9 20.2,32.8 22.3,31.6 24.6,30.3 28.6,27.9 30.5,26.9 33.4,25.2 "/>
<pattern  id="XMLID_28_" xlink:href="#_x31_0_lpi_10_x25__2" patternTransform="matrix(4.978078e-012 0.1109 -0.1109 4.978078e-012 -8201.2441 -7050.0981)">
</pattern>
<polygon id="XMLID_538_" class="st4" points="0,14.8 25.7,0 51.3,14.8 51.3,44.5 25.7,59.3 0,44.5 "/>
</svg>
