<?xml version="1.0" encoding="utf-8"?>
<!-- Generator: Adobe Illustrator 19.0.0, SVG Export Plug-In . SVG Version: 6.00 Build 0)  -->
<svg version="1.1" id="Layer_1" xmlns="http://www.w3.org/2000/svg" xmlns:xlink="http://www.w3.org/1999/xlink" x="0px" y="0px"
	 viewBox="0 0 54.8 88.8" style="enable-background:new 0 0 54.8 88.8;" xml:space="preserve">
<style type="text/css">
	.st0{fill:none;}
	.st1{fill:none;stroke:#0B050C;stroke-width:2.2677;}
	.st2{clip-path:url(#XMLID_29_);fill:#FFFFFF;}
	.st3{clip-path:url(#XMLID_29_);fill:url(#XMLID_30_);}
	.st4{clip-path:url(#XMLID_29_);fill:url(#XMLID_31_);}
	.st5{clip-path:url(#XMLID_29_);fill:url(#XMLID_32_);}
	.st6{clip-path:url(#XMLID_29_);fill:url(#XMLID_33_);}
</style>
<pattern  x="-277.8" y="-334.2" width="72" height="72" patternUnits="userSpaceOnUse" id="_x31_0_lpi_10_x25__2" viewBox="72.5 -142.4 72 72" style="overflow:visible;">
	<g id="XMLID_1_">
		<polygon id="XMLID_558_" class="st0" points="72.5,-142.4 144.5,-142.4 144.5,-70.4 72.5,-70.4 		"/>
		<g id="XMLID_555_">
			<line id="XMLID_557_" class="st1" x1="139.7" y1="-73.5" x2="212.4" y2="-0.8"/>
			<line id="XMLID_556_" class="st1" x1="144.8" y1="-78.6" x2="217.5" y2="-5.9"/>
		</g>
		<g id="XMLID_548_">
			<line id="XMLID_554_" class="st1" x1="67.7" y1="-73.5" x2="140.4" y2="-0.8"/>
			<line id="XMLID_553_" class="st1" x1="77.9" y1="-83.7" x2="150.6" y2="-11"/>
			<line id="XMLID_552_" class="st1" x1="88.1" y1="-93.9" x2="160.4" y2="-21.2"/>
			<line id="XMLID_551_" class="st1" x1="72.8" y1="-78.6" x2="145.5" y2="-5.9"/>
			<line id="XMLID_550_" class="st1" x1="83" y1="-88.8" x2="155.7" y2="-16.1"/>
			<line id="XMLID_549_" class="st1" x1="92.8" y1="-99" x2="165.2" y2="-26.3"/>
		</g>
		<g id="XMLID_542_">
			<line id="XMLID_547_" class="st1" x1="5.9" y1="-83.7" x2="78.6" y2="-11"/>
			<line id="XMLID_546_" class="st1" x1="16.1" y1="-93.9" x2="88.4" y2="-21.2"/>
			<line id="XMLID_545_" class="st1" x1="0.8" y1="-78.6" x2="73.5" y2="-5.9"/>
			<line id="XMLID_544_" class="st1" x1="11" y1="-88.8" x2="83.7" y2="-16.1"/>
			<line id="XMLID_543_" class="st1" x1="20.8" y1="-99" x2="93.2" y2="-26.3"/>
		</g>
		<g id="XMLID_535_">
			<line id="XMLID_541_" class="st1" x1="118.7" y1="-125.1" x2="191.4" y2="-52.4"/>
			<line id="XMLID_540_" class="st1" x1="128.6" y1="-135.3" x2="201.3" y2="-62.6"/>
			<line id="XMLID_539_" class="st1" x1="139.7" y1="-145.5" x2="212.4" y2="-72.8"/>
			<line id="XMLID_538_" class="st1" x1="123.5" y1="-130.2" x2="196.2" y2="-57.5"/>
			<line id="XMLID_537_" class="st1" x1="134.6" y1="-140.4" x2="207.3" y2="-67.7"/>
			<line id="XMLID_536_" class="st1" x1="144.8" y1="-150.6" x2="217.5" y2="-77.9"/>
		</g>
		<g id="XMLID_524_">
			<line id="XMLID_534_" class="st1" x1="46.7" y1="-125.1" x2="119.4" y2="-52.4"/>
			<line id="XMLID_533_" class="st1" x1="56.6" y1="-135.3" x2="129.3" y2="-62.6"/>
			<line id="XMLID_532_" class="st1" x1="67.7" y1="-145.5" x2="140.4" y2="-72.8"/>
			<line id="XMLID_531_" class="st1" x1="77.9" y1="-155.7" x2="150.6" y2="-83"/>
			<line id="XMLID_530_" class="st1" x1="88.1" y1="-165.9" x2="160.4" y2="-93.2"/>
			<line id="XMLID_529_" class="st1" x1="51.5" y1="-130.2" x2="124.2" y2="-57.5"/>
			<line id="XMLID_528_" class="st1" x1="62.6" y1="-140.4" x2="135.3" y2="-67.7"/>
			<line id="XMLID_527_" class="st1" x1="72.8" y1="-150.6" x2="145.5" y2="-77.9"/>
			<line id="XMLID_526_" class="st1" x1="83" y1="-160.8" x2="155.7" y2="-88.1"/>
			<line id="XMLID_525_" class="st1" x1="92.8" y1="-171" x2="165.2" y2="-98.3"/>
		</g>
		<g id="XMLID_509_">
			<line id="XMLID_514_" class="st1" x1="5.9" y1="-155.7" x2="78.6" y2="-83"/>
			<line id="XMLID_513_" class="st1" x1="16.1" y1="-165.9" x2="88.4" y2="-93.2"/>
			<line id="XMLID_512_" class="st1" x1="0.8" y1="-150.6" x2="73.5" y2="-77.9"/>
			<line id="XMLID_511_" class="st1" x1="11" y1="-160.8" x2="83.7" y2="-88.1"/>
			<line id="XMLID_510_" class="st1" x1="20.8" y1="-171" x2="93.2" y2="-98.3"/>
		</g>
		<g id="XMLID_495_">
			<line id="XMLID_508_" class="st1" x1="118.7" y1="-197.1" x2="191.4" y2="-124.4"/>
			<line id="XMLID_507_" class="st1" x1="128.6" y1="-207.3" x2="201.3" y2="-134.6"/>
			<line id="XMLID_506_" class="st1" x1="123.5" y1="-202.2" x2="196.2" y2="-129.5"/>
			<line id="XMLID_496_" class="st1" x1="134.6" y1="-212.4" x2="207.3" y2="-139.7"/>
		</g>
		<g id="XMLID_490_">
			<line id="XMLID_494_" class="st1" x1="46.7" y1="-197.1" x2="119.4" y2="-124.4"/>
			<line id="XMLID_493_" class="st1" x1="56.6" y1="-207.3" x2="129.3" y2="-134.6"/>
			<line id="XMLID_492_" class="st1" x1="51.5" y1="-202.2" x2="124.2" y2="-129.5"/>
			<line id="XMLID_491_" class="st1" x1="62.6" y1="-212.4" x2="135.3" y2="-139.7"/>
		</g>
	</g>
</pattern>
<g id="XMLID_455_">
	<defs>
		<path id="XMLID_461_" d="M54.8,74.9c0,1.9-0.4,3.6-1.1,5.3c-0.7,1.7-1.7,3.2-3,4.5c-1.3,1.3-2.8,2.3-4.5,3
			c-1.7,0.7-3.5,1.1-5.3,1.1H13.9c-1.9,0-3.6-0.4-5.3-1.1c-1.7-0.7-3.2-1.7-4.5-3c-1.3-1.3-2.3-2.8-3-4.5C0.4,78.5,0,76.8,0,74.9
			v-61c0-1.9,0.4-3.6,1.1-5.3c0.7-1.7,1.7-3.2,3-4.5c1.3-1.3,2.8-2.3,4.5-3C10.2,0.4,12,0,13.9,0h27.1c1.9,0,3.6,0.4,5.3,1.1
			c1.7,0.7,3.2,1.7,4.5,3c1.3,1.3,2.3,2.8,3,4.5c0.7,1.7,1.1,3.5,1.1,5.3V74.9z M35,16.8H19.7c-0.9,0-1.3,0.4-1.3,1.3v52.5
			c0,0.9,0.4,1.3,1.3,1.3H35c0.9,0,1.3-0.4,1.3-1.3V18.1C36.4,17.2,35.9,16.8,35,16.8z"/>
	</defs>
	<clipPath id="XMLID_29_">
		<use xlink:href="#XMLID_461_"  style="overflow:visible;"/>
	</clipPath>
	<rect id="XMLID_456_" x="-35.3" y="-29.8" class="st2" width="133.6" height="183.5"/>
	<pattern  id="XMLID_30_" xlink:href="#_x31_0_lpi_10_x25__2" patternTransform="matrix(0.187 0 0 0.187 -6069.2158 -6112.0356)">
	</pattern>
	<rect id="XMLID_457_" x="27.9" y="-8.8" class="st3" width="74.9" height="74.9"/>
	<pattern  id="XMLID_31_" xlink:href="#_x31_0_lpi_10_x25__2" patternTransform="matrix(0.187 0 0 0.187 -6069.2158 -6104.4653)">
	</pattern>
	<rect id="XMLID_458_" x="27.9" y="66.1" class="st4" width="74.9" height="74.9"/>
	<pattern  id="XMLID_32_" xlink:href="#_x31_0_lpi_10_x25__2" patternTransform="matrix(0.187 0 0 0.187 -6076.1196 -6112.0356)">
	</pattern>
	<rect id="XMLID_459_" x="-46.3" y="-8.8" class="st5" width="74.9" height="74.9"/>
	<pattern  id="XMLID_33_" xlink:href="#_x31_0_lpi_10_x25__2" patternTransform="matrix(0.187 0 0 0.187 -6076.1196 -6104.4653)">
	</pattern>
	<rect id="XMLID_460_" x="-46.3" y="66.1" class="st6" width="74.9" height="74.9"/>
</g>
</svg>
