<?xml version="1.0" encoding="utf-8"?>
<!-- Generator: Adobe Illustrator 19.0.0, SVG Export Plug-In . SVG Version: 6.00 Build 0)  -->
<svg version="1.1" id="Layer_1" xmlns="http://www.w3.org/2000/svg" xmlns:xlink="http://www.w3.org/1999/xlink" x="0px" y="0px"
	 viewBox="0 0 56.3 23" style="enable-background:new 0 0 56.3 23;" xml:space="preserve">
<style type="text/css">
	.st0{fill:none;}
	.st1{fill:none;stroke:#0B040C;stroke-width:2.2677;}
	.st2{opacity:0.89;fill:#FD664C;}
	.st3{opacity:0.47;fill:url(#XMLID_28_);}
</style>
<pattern  x="-452.3" y="-268.4" width="72" height="72" patternUnits="userSpaceOnUse" id="_x31_0_lpi_10_x25__2" viewBox="72.5 -142.4 72 72" style="overflow:visible;">
	<g id="XMLID_39_">
		<polygon id="XMLID_665_" class="st0" points="72.5,-142.4 144.5,-142.4 144.5,-70.4 72.5,-70.4 		"/>
		<g id="XMLID_662_">
			<line id="XMLID_664_" class="st1" x1="139.7" y1="-73.5" x2="212.4" y2="-0.8"/>
			<line id="XMLID_663_" class="st1" x1="144.8" y1="-78.6" x2="217.5" y2="-5.9"/>
		</g>
		<g id="XMLID_655_">
			<line id="XMLID_661_" class="st1" x1="67.7" y1="-73.5" x2="140.4" y2="-0.8"/>
			<line id="XMLID_660_" class="st1" x1="77.9" y1="-83.7" x2="150.6" y2="-11"/>
			<line id="XMLID_659_" class="st1" x1="88.1" y1="-93.9" x2="160.4" y2="-21.2"/>
			<line id="XMLID_658_" class="st1" x1="72.8" y1="-78.6" x2="145.5" y2="-5.9"/>
			<line id="XMLID_657_" class="st1" x1="83" y1="-88.8" x2="155.7" y2="-16.1"/>
			<line id="XMLID_656_" class="st1" x1="92.8" y1="-99" x2="165.2" y2="-26.3"/>
		</g>
		<g id="XMLID_649_">
			<line id="XMLID_654_" class="st1" x1="5.9" y1="-83.7" x2="78.6" y2="-11"/>
			<line id="XMLID_653_" class="st1" x1="16.1" y1="-93.9" x2="88.4" y2="-21.2"/>
			<line id="XMLID_652_" class="st1" x1="0.8" y1="-78.6" x2="73.5" y2="-5.9"/>
			<line id="XMLID_651_" class="st1" x1="11" y1="-88.8" x2="83.7" y2="-16.1"/>
			<line id="XMLID_650_" class="st1" x1="20.8" y1="-99" x2="93.2" y2="-26.3"/>
		</g>
		<g id="XMLID_642_">
			<line id="XMLID_648_" class="st1" x1="118.7" y1="-125.1" x2="191.4" y2="-52.4"/>
			<line id="XMLID_647_" class="st1" x1="128.6" y1="-135.3" x2="201.3" y2="-62.6"/>
			<line id="XMLID_646_" class="st1" x1="139.7" y1="-145.5" x2="212.4" y2="-72.8"/>
			<line id="XMLID_645_" class="st1" x1="123.5" y1="-130.2" x2="196.2" y2="-57.5"/>
			<line id="XMLID_644_" class="st1" x1="134.6" y1="-140.4" x2="207.3" y2="-67.7"/>
			<line id="XMLID_643_" class="st1" x1="144.8" y1="-150.6" x2="217.5" y2="-77.9"/>
		</g>
		<g id="XMLID_631_">
			<line id="XMLID_641_" class="st1" x1="46.7" y1="-125.1" x2="119.4" y2="-52.4"/>
			<line id="XMLID_640_" class="st1" x1="56.6" y1="-135.3" x2="129.3" y2="-62.6"/>
			<line id="XMLID_639_" class="st1" x1="67.7" y1="-145.5" x2="140.4" y2="-72.8"/>
			<line id="XMLID_638_" class="st1" x1="77.9" y1="-155.7" x2="150.6" y2="-83"/>
			<line id="XMLID_637_" class="st1" x1="88.1" y1="-165.9" x2="160.4" y2="-93.2"/>
			<line id="XMLID_636_" class="st1" x1="51.5" y1="-130.2" x2="124.2" y2="-57.5"/>
			<line id="XMLID_635_" class="st1" x1="62.6" y1="-140.4" x2="135.3" y2="-67.7"/>
			<line id="XMLID_634_" class="st1" x1="72.8" y1="-150.6" x2="145.5" y2="-77.9"/>
			<line id="XMLID_633_" class="st1" x1="83" y1="-160.8" x2="155.7" y2="-88.1"/>
			<line id="XMLID_632_" class="st1" x1="92.8" y1="-171" x2="165.2" y2="-98.3"/>
		</g>
		<g id="XMLID_625_">
			<line id="XMLID_630_" class="st1" x1="5.9" y1="-155.7" x2="78.6" y2="-83"/>
			<line id="XMLID_629_" class="st1" x1="16.1" y1="-165.9" x2="88.4" y2="-93.2"/>
			<line id="XMLID_628_" class="st1" x1="0.8" y1="-150.6" x2="73.5" y2="-77.9"/>
			<line id="XMLID_627_" class="st1" x1="11" y1="-160.8" x2="83.7" y2="-88.1"/>
			<line id="XMLID_626_" class="st1" x1="20.8" y1="-171" x2="93.2" y2="-98.3"/>
		</g>
		<g id="XMLID_620_">
			<line id="XMLID_624_" class="st1" x1="118.7" y1="-197.1" x2="191.4" y2="-124.4"/>
			<line id="XMLID_623_" class="st1" x1="128.6" y1="-207.3" x2="201.3" y2="-134.6"/>
			<line id="XMLID_622_" class="st1" x1="123.5" y1="-202.2" x2="196.2" y2="-129.5"/>
			<line id="XMLID_621_" class="st1" x1="134.6" y1="-212.4" x2="207.3" y2="-139.7"/>
		</g>
		<g id="XMLID_615_">
			<line id="XMLID_619_" class="st1" x1="46.7" y1="-197.1" x2="119.4" y2="-124.4"/>
			<line id="XMLID_618_" class="st1" x1="56.6" y1="-207.3" x2="129.3" y2="-134.6"/>
			<line id="XMLID_617_" class="st1" x1="51.5" y1="-202.2" x2="124.2" y2="-129.5"/>
			<line id="XMLID_616_" class="st1" x1="62.6" y1="-212.4" x2="135.3" y2="-139.7"/>
		</g>
	</g>
</pattern>
<g id="XMLID_67_">
	<rect id="XMLID_526_" y="0" class="st2" width="56.3" height="23"/>
	<pattern  id="XMLID_28_" xlink:href="#_x31_0_lpi_10_x25__2" patternTransform="matrix(0.187 0 0 0.187 -5727.3096 -6192.3193)">
	</pattern>
	<rect id="XMLID_79_" x="0" class="st3" width="56.3" height="23"/>
</g>
</svg>
