<?xml version="1.0" encoding="utf-8"?>
<!-- Generator: Adobe Illustrator 19.0.0, SVG Export Plug-In . SVG Version: 6.00 Build 0)  -->
<svg version="1.1" id="Layer_1" xmlns="http://www.w3.org/2000/svg" xmlns:xlink="http://www.w3.org/1999/xlink" x="0px" y="0px"
	 viewBox="-351 186.4 256.4 188.6" style="enable-background:new -351 186.4 256.4 188.6;" xml:space="preserve">
<style type="text/css">
	.st0{opacity:0.19;fill:#9E8B8A;enable-background:new    ;}
	.st1{fill:#C7B299;}
	.st2{fill:#FFFFFF;}
</style>
<path id="XMLID_20_" class="st0" d="M-114.9,376.1h-215.8c-11.2,0-20.3-9.1-20.3-20.3v-148c0-11.2,9.1-20.3,20.3-20.3h215.8
	c11.2,0,20.3,9.1,20.3,20.3v148C-94.6,367-103.7,376.1-114.9,376.1z"/>
<g>
	<g>
		<path class="st1" d="M-219.4,293.7c-0.8-0.8-2-0.8-2.8,0c-0.8,0.8-0.8,2,0,2.8c0.8,0.8,2,0.8,2.8,0
			C-218.6,295.7-218.6,294.5-219.4,293.7z"/>
	</g>
</g>
<g>
	<g>
		<path class="st1" d="M-194.4,268.7c-3.8-3.8-10.1-3.8-13.9,0c-3.8,3.8-3.8,10.1,0,13.9c3.8,3.8,10.1,3.8,13.9,0
			C-190.5,278.7-190.5,272.5-194.4,268.7z M-197.1,279.8c-2.3,2.3-6,2.3-8.3,0c-2.3-2.3-2.3-6,0-8.3c2.3-2.3,6-2.3,8.3,0
			C-194.8,273.8-194.8,277.5-197.1,279.8z"/>
	</g>
</g>
<g>
	<g>
		<path class="st1" d="M-172.1,246.4c-0.4-0.4-0.9-0.6-1.5-0.6c-0.4,0-11,0.4-23.6,4.9c-10.1,3.6-18.5,8.7-25,15.1
			c-1.5,1.5-2.9,3-4.2,4.6c-6.4-3.8-11.6-2.6-14.8-0.9c-7.5,4-12.1,14.9-12.1,22.7c0,0.8,0.5,1.5,1.2,1.8c0.2,0.1,0.5,0.1,0.8,0.1
			c0.5,0,1-0.2,1.4-0.6c3.9-3.9,8.8-3.7,10.4-3.5l0.7,0.7c-1.4,3.2-2.4,6.4-3.2,9.5c-0.3,1.1-0.2,2.3,0.2,3.4
			c-1.9,0.9-3.7,2.2-5.3,3.7c-5.1,5.1-6.1,17.4-6.1,17.9c0,0.6,0.2,1.1,0.6,1.5c0.4,0.4,0.9,0.6,1.4,0.6c0.1,0,0.1,0,0.2,0
			c0.5,0,12.9-1.1,17.9-6.1c1.6-1.6,2.9-3.4,3.7-5.3c1.2,0.5,2.3,0.5,3.4,0.2c3.1-0.8,6.3-1.9,9.5-3.2l0.7,0.7
			c0.2,1.6,0.5,6.5-3.5,10.4c-0.6,0.6-0.7,1.4-0.4,2.1c0.3,0.7,1,1.2,1.8,1.2c7.8,0,18.7-4.6,22.7-12.1c1.7-3.3,2.9-8.4-0.9-14.8
			c1.6-1.4,3.1-2.8,4.6-4.2c6.5-6.5,11.6-14.9,15.1-25c4.4-12.6,4.9-23.2,4.9-23.6C-171.5,247.3-171.7,246.8-172.1,246.4z
			 M-248.9,288.1c1.2-5.9,4.8-12.4,9.6-15c3.2-1.7,6.7-1.6,10.5,0.5c-3.2,4.2-6,8.7-8.3,13.5c0,0-0.4-0.5-1-0.6
			C-238.5,286.4-243.7,285.3-248.9,288.1z M-236.1,318.7c-2.7,2.7-9,4.1-13.1,4.7c0.6-4,2-10.3,4.7-13.1c1.5-1.5,3.3-2.7,5-3.3
			l6.6,6.6C-233.4,315.4-234.6,317.2-236.1,318.7z M-227.1,312.6c-0.6,0.1-1.2-0.1-1.7-0.6c-2.5-2.5-3.5-3.5-3.9-3.9
			c-0.6-0.6-2-2-5.1-5.1c-0.5-0.5-0.7-1.2-0.6-1.7c0.6-2.5,1.5-5,2.5-7.5l16.3,16.3C-222.1,311.2-224.7,312-227.1,312.6z
			 M-198.8,313.7c-2.6,4.8-9.1,8.4-15,9.6c1.9-3.5,2.3-8.1,1.6-10.8c-0.2-0.6-0.6-1-0.6-1c4.8-2.3,9.3-5.1,13.5-8.3
			C-197.2,306.9-197.1,310.4-198.8,313.7z M-194.4,293.7c-1.8,1.8-3.7,3.5-5.7,5.1c-4.8,3.9-10.1,7.1-15.7,9.7l-18.5-18.5
			c2.6-5.6,5.9-10.9,9.7-15.7c1.6-2,3.3-3.9,5.1-5.7c5.8-5.8,13.3-10.5,22.3-13.8l16.5,16.5C-183.9,280.3-188.5,287.9-194.4,293.7z
			 M-179.2,267.2l-13.7-13.7c7.5-2.3,14-3.2,17.2-3.5C-176,253.2-176.8,259.7-179.2,267.2z"/>
	</g>
</g>
<g>
	<g>
		<path class="st1" d="M-224.9,327.1c-0.8-0.8-2-0.8-2.8,0l-5.6,5.6c-0.8,0.8-0.8,2,0,2.8c0.8,0.8,2,0.8,2.8,0l5.6-5.6
			C-224.2,329.1-224.2,327.8-224.9,327.1z"/>
	</g>
</g>
<g>
	<g>
		<path class="st1" d="M-252.8,299.2c-0.8-0.8-2-0.8-2.8,0l-5.6,5.6c-0.8,0.8-0.8,2,0,2.8c0.8,0.8,2,0.8,2.8,0l5.6-5.6
			C-252,301.3-252,300-252.8,299.2z"/>
	</g>
</g>
<g>
	<g>
		<path class="st1" d="M-238.8,329.8c-0.8-0.8-2-0.8-2.8,0l-13.3,13.3c-0.8,0.8-0.8,2,0,2.8c0.8,0.8,2,0.8,2.8,0l13.3-13.3
			C-238.1,331.8-238.1,330.6-238.8,329.8z"/>
	</g>
</g>
<g>
	<g>
		<path class="st1" d="M-254.6,329.8c-0.8-0.8-2-0.8-2.8,0l-13.3,13.3c-0.8,0.8-0.8,2,0,2.8c0.8,0.8,2,0.8,2.8,0l13.3-13.3
			C-253.8,331.8-253.8,330.6-254.6,329.8z"/>
	</g>
</g>
<g>
	<g>
		<path class="st1" d="M-255.5,313.1c-0.8-0.8-2-0.8-2.8,0l-13.3,13.3c-0.8,0.8-0.8,2,0,2.8c0.8,0.8,2,0.8,2.8,0l13.3-13.3
			C-254.8,315.2-254.8,313.9-255.5,313.1z"/>
	</g>
</g>
<g>
	<g>
		<path class="st1" d="M-211,285.3c-0.8-0.8-2-0.8-2.8,0l-2.8,2.8c-0.8,0.8-0.8,2,0,2.8c0.8,0.8,2,0.8,2.8,0l2.8-2.8
			C-210.3,287.4-210.3,286.1-211,285.3z"/>
	</g>
</g>
<g>
	<path class="st2" d="M-311.8,206.1l2.7,0.4v2.3c0,0.3-0.1,0.7-0.2,1s-0.3,0.6-0.5,0.8c-0.2,0.2-0.5,0.4-0.8,0.5s-0.6,0.2-1,0.2
		h-5.1c-0.3,0-0.7-0.1-1-0.2s-0.6-0.3-0.8-0.5c-0.2-0.2-0.4-0.5-0.5-0.8c-0.1-0.3-0.2-0.6-0.2-1v-10c0-0.3,0.1-0.7,0.2-1
		c0.1-0.3,0.3-0.6,0.5-0.8c0.2-0.2,0.5-0.4,0.8-0.5c0.3-0.1,0.6-0.2,1-0.2h5.1c0.3,0,0.7,0.1,1,0.2c0.3,0.1,0.6,0.3,0.8,0.5
		c0.2,0.2,0.4,0.5,0.5,0.8s0.2,0.6,0.2,1v2.1l-2.7,0.4v-2c0-0.2-0.1-0.3-0.2-0.4c-0.1-0.1-0.3-0.2-0.4-0.2h-3.4
		c-0.2,0-0.3,0.1-0.4,0.2c-0.1,0.1-0.2,0.3-0.2,0.4v8.9c0,0.2,0.1,0.3,0.2,0.4c0.1,0.1,0.3,0.2,0.4,0.2h3.4c0.2,0,0.3-0.1,0.4-0.2
		c0.1-0.1,0.2-0.3,0.2-0.4V206.1z"/>
	<path class="st2" d="M-294.6,211.3h-2.7l-1.1-3.3h-5.1l-1,3.3h-2.7l5.1-15h2.5L-294.6,211.3z M-302.7,205.7h3.5l-1.7-5.7
		L-302.7,205.7z"/>
	<path class="st2" d="M-281.7,211.3h-2.6l-5.7-9.7v9.7h-2.6v-15h2.6l5.7,9.7v-9.7h2.6V211.3z"/>
	<path class="st2" d="M-271.9,205.5c-0.4-0.1-0.8-0.2-1.1-0.3c-0.3-0.1-0.6-0.2-0.9-0.3c-0.3-0.1-0.6-0.2-0.9-0.3
		c-0.3-0.1-0.7-0.2-1.1-0.3c-0.3-0.1-0.6-0.2-0.9-0.4c-0.3-0.1-0.5-0.3-0.8-0.5c-0.2-0.2-0.4-0.4-0.5-0.7c-0.1-0.3-0.2-0.6-0.2-0.9
		v-3.1c0-0.3,0.1-0.7,0.2-1c0.1-0.3,0.3-0.6,0.5-0.8c0.2-0.2,0.5-0.4,0.8-0.5c0.3-0.1,0.6-0.2,1-0.2h4.8c0.3,0,0.7,0.1,1,0.2
		c0.3,0.1,0.6,0.3,0.8,0.5c0.2,0.2,0.4,0.5,0.5,0.8c0.1,0.3,0.2,0.6,0.2,1v1.8l-2.7,0.4v-1.6c0-0.2-0.1-0.3-0.2-0.4
		c-0.1-0.1-0.3-0.2-0.4-0.2h-3.1c-0.2,0-0.3,0.1-0.4,0.2c-0.1,0.1-0.2,0.3-0.2,0.4v1.9c0,0.2,0.1,0.3,0.2,0.4
		c0.1,0.1,0.3,0.2,0.4,0.2c0.7,0.2,1.3,0.4,1.9,0.5c0.6,0.2,1.3,0.4,2.2,0.6c0.6,0.2,1.2,0.5,1.7,0.8c0.5,0.4,0.7,0.9,0.7,1.6v3.4
		c0,0.3-0.1,0.7-0.2,1c-0.1,0.3-0.3,0.6-0.5,0.8c-0.2,0.2-0.5,0.4-0.8,0.5s-0.6,0.2-1,0.2h-4.9c-0.3,0-0.7-0.1-1-0.2
		s-0.6-0.3-0.8-0.5c-0.2-0.2-0.4-0.5-0.5-0.8c-0.1-0.3-0.2-0.6-0.2-1v-1.7l2.7-0.4v1.6c0,0.2,0.1,0.3,0.2,0.4
		c0.1,0.1,0.3,0.2,0.4,0.2h3.2c0.2,0,0.3-0.1,0.4-0.2c0.1-0.1,0.2-0.3,0.2-0.4v-2.2c0-0.2-0.1-0.3-0.2-0.4S-271.7,205.5-271.9,205.5
		z"/>
	<path class="st2" d="M-254.3,211.3h-2.7l-1.1-3.3h-5.1l-1,3.3h-2.7l5.1-15h2.5L-254.3,211.3z M-262.3,205.7h3.5l-1.7-5.7
		L-262.3,205.7z"/>
	<path class="st2" d="M-254.7,196.4h10.8v2.5h-4.1v12.5h-2.7v-12.5h-4.1V196.4z"/>
	<path class="st2" d="M-234.5,201.9c0,0.2,0,0.3,0.1,0.4c0.1,0.1,0.2,0.2,0.4,0.2h9v2.4h-2.8v4.2c0,0.3-0.1,0.6-0.2,0.9
		c-0.1,0.3-0.3,0.5-0.5,0.8c-0.2,0.2-0.5,0.4-0.7,0.5s-0.6,0.2-0.9,0.2h-4.7c-0.3,0-0.6-0.1-0.9-0.2s-0.5-0.3-0.8-0.5
		s-0.4-0.5-0.5-0.8c-0.1-0.3-0.2-0.6-0.2-0.9v-3.8c0-0.4,0.1-0.8,0.3-1c0.2-0.3,0.5-0.4,0.8-0.6c-0.3-0.1-0.5-0.3-0.7-0.6
		c-0.2-0.2-0.3-0.5-0.3-0.9v-3.3c0-0.3,0.1-0.6,0.2-0.9c0.1-0.3,0.3-0.5,0.5-0.7c0.2-0.2,0.5-0.4,0.8-0.5c0.3-0.1,0.6-0.2,0.9-0.2
		h3.1c0.3,0,0.6,0.1,0.9,0.2c0.3,0.1,0.5,0.3,0.7,0.5c0.2,0.2,0.4,0.5,0.5,0.7c0.1,0.3,0.2,0.6,0.2,0.9v1.1l-2.5,0.4v-1
		c0-0.2-0.1-0.3-0.2-0.4c-0.1-0.1-0.3-0.2-0.4-0.2h-1.5c-0.2,0-0.3,0.1-0.4,0.2c-0.1,0.1-0.2,0.3-0.2,0.4V201.9z M-234.6,208.4
		c0,0.2,0.1,0.3,0.2,0.4c0.1,0.1,0.3,0.2,0.4,0.2h3.1c0.2,0,0.3-0.1,0.4-0.2c0.1-0.1,0.2-0.3,0.2-0.4v-3.6h-3.6
		c-0.2,0-0.3,0.1-0.5,0.2c-0.2,0.1-0.2,0.3-0.2,0.4V208.4z"/>
	<path class="st2" d="M-218.7,196.4h2.7v12.5h6.1v2.5h-8.8V196.4z"/>
	<path class="st2" d="M-204.7,211.3h-2.7v-15h2.7V211.3z"/>
	<path class="st2" d="M-195.4,211.3h-2.6l-4.6-15h2.7l3.2,10.9l3.2-10.9h2.7L-195.4,211.3z"/>
	<path class="st2" d="M-188.7,196.4h9.1v2.5h-6.4v3.7h5.8v2.5h-5.8v3.8h6.4v2.5h-9.1V196.4z"/>
	<path class="st2" d="M-171.8,196.4h7.3c0.3,0,0.7,0.1,1,0.2c0.3,0.1,0.6,0.3,0.8,0.5c0.2,0.2,0.4,0.5,0.5,0.8
		c0.1,0.3,0.2,0.6,0.2,1v10c0,0.3-0.1,0.7-0.2,1c-0.1,0.3-0.3,0.6-0.5,0.8c-0.2,0.2-0.5,0.4-0.8,0.5s-0.6,0.2-1,0.2h-7.3V196.4z
		 M-164.7,199.4c0-0.2-0.1-0.3-0.2-0.4c-0.1-0.1-0.3-0.2-0.4-0.2h-3.8v10h3.8c0.2,0,0.3-0.1,0.4-0.2c0.1-0.1,0.2-0.3,0.2-0.4V199.4z
		"/>
	<path class="st2" d="M-147.8,211.3h-2.7l-1.1-3.3h-5.1l-1,3.3h-2.7l5.1-15h2.5L-147.8,211.3z M-155.8,205.7h3.5l-1.7-5.7
		L-155.8,205.7z"/>
	<path class="st2" d="M-148.3,196.4h10.8v2.5h-4.1v12.5h-2.7v-12.5h-4.1V196.4z"/>
	<path class="st2" d="M-125.3,211.3h-2.7l-1.1-3.3h-5.1l-1,3.3h-2.7l5.1-15h2.5L-125.3,211.3z M-133.4,205.7h3.5l-1.7-5.7
		L-133.4,205.7z"/>
	<path class="st2" d="M-311.4,232.5h-2.8v5.8h-2.7v-15h7.8c0.3,0,0.7,0.1,1,0.2c0.3,0.1,0.6,0.3,0.8,0.5c0.2,0.2,0.4,0.5,0.5,0.8
		c0.1,0.3,0.2,0.6,0.2,1v4.2c0,0.6-0.2,1.1-0.5,1.5c-0.4,0.4-0.8,0.7-1.3,0.9l2.9,5.8h-3L-311.4,232.5z M-309.3,226.4
		c0-0.2-0.1-0.3-0.2-0.4c-0.1-0.1-0.3-0.2-0.4-0.2h-4.3v4.2h4.3c0.2,0,0.3-0.1,0.4-0.2c0.1-0.1,0.2-0.3,0.2-0.4V226.4z"/>
	<path class="st2" d="M-303.1,223.3h9.1v2.5h-6.4v3.7h5.8v2.5h-5.8v3.8h6.4v2.5h-9.1V223.3z"/>
	<path class="st2" d="M-292.3,223.3h10.8v2.5h-4.1v12.5h-2.7v-12.5h-4.1V223.3z"/>
	<path class="st2" d="M-273.8,232.5h-2.8v5.8h-2.7v-15h7.8c0.3,0,0.7,0.1,1,0.2c0.3,0.1,0.6,0.3,0.8,0.5c0.2,0.2,0.4,0.5,0.5,0.8
		c0.1,0.3,0.2,0.6,0.2,1v4.2c0,0.6-0.2,1.1-0.5,1.5c-0.4,0.4-0.8,0.7-1.3,0.9l2.9,5.8h-3L-273.8,232.5z M-271.7,226.4
		c0-0.2-0.1-0.3-0.2-0.4c-0.1-0.1-0.3-0.2-0.4-0.2h-4.3v4.2h4.3c0.2,0,0.3-0.1,0.4-0.2c0.1-0.1,0.2-0.3,0.2-0.4V226.4z"/>
	<path class="st2" d="M-262.9,238.3h-2.7v-15h2.7V238.3z"/>
	<path class="st2" d="M-259.5,223.3h9.1v2.5h-6.4v3.7h5.8v2.5h-5.8v3.8h6.4v2.5h-9.1V223.3z"/>
	<path class="st2" d="M-241.5,238.3h-2.6l-4.6-15h2.7l3.2,10.9l3.2-10.9h2.7L-241.5,238.3z"/>
	<path class="st2" d="M-225.1,238.3h-2.7l-1.1-3.3h-5.1l-1,3.3h-2.7l5.1-15h2.5L-225.1,238.3z M-233.2,232.7h3.5l-1.7-5.7
		L-233.2,232.7z"/>
	<path class="st2" d="M-223,223.3h2.7v12.5h6.1v2.5h-8.8V223.3z"/>
	<path class="st2" d="M-200.6,232.5c-0.4-0.1-0.8-0.2-1.1-0.3c-0.3-0.1-0.6-0.2-0.9-0.3c-0.3-0.1-0.6-0.2-0.9-0.3
		c-0.3-0.1-0.7-0.2-1.1-0.3c-0.3-0.1-0.6-0.2-0.9-0.4c-0.3-0.1-0.5-0.3-0.8-0.5c-0.2-0.2-0.4-0.4-0.5-0.7c-0.1-0.3-0.2-0.6-0.2-0.9
		v-3.1c0-0.3,0.1-0.7,0.2-1c0.1-0.3,0.3-0.6,0.5-0.8c0.2-0.2,0.5-0.4,0.8-0.5c0.3-0.1,0.6-0.2,1-0.2h4.8c0.3,0,0.7,0.1,1,0.2
		c0.3,0.1,0.6,0.3,0.8,0.5c0.2,0.2,0.4,0.5,0.5,0.8c0.1,0.3,0.2,0.6,0.2,1v1.8l-2.7,0.4v-1.6c0-0.2-0.1-0.3-0.2-0.4
		c-0.1-0.1-0.3-0.2-0.4-0.2h-3.1c-0.2,0-0.3,0.1-0.4,0.2c-0.1,0.1-0.2,0.3-0.2,0.4v1.9c0,0.2,0.1,0.3,0.2,0.4
		c0.1,0.1,0.3,0.2,0.4,0.2c0.7,0.2,1.3,0.4,1.9,0.5c0.6,0.2,1.3,0.4,2.2,0.6c0.6,0.2,1.2,0.5,1.7,0.8c0.5,0.4,0.7,0.9,0.7,1.6v3.4
		c0,0.3-0.1,0.7-0.2,1c-0.1,0.3-0.3,0.6-0.5,0.8c-0.2,0.2-0.5,0.4-0.8,0.5s-0.6,0.2-1,0.2h-4.9c-0.3,0-0.7-0.1-1-0.2
		s-0.6-0.3-0.8-0.5c-0.2-0.2-0.4-0.5-0.5-0.8c-0.1-0.3-0.2-0.6-0.2-1v-1.7l2.7-0.4v1.6c0,0.2,0.1,0.3,0.2,0.4
		c0.1,0.1,0.3,0.2,0.4,0.2h3.2c0.2,0,0.3-0.1,0.4-0.2c0.1-0.1,0.2-0.3,0.2-0.4v-2.2c0-0.2-0.1-0.3-0.2-0.4S-200.4,232.5-200.6,232.5
		z"/>
	<path class="st2" d="M-190.3,229.3l2.9-6h2.9l-4.5,8.9v6h-2.7v-6l-4.5-8.9h2.9L-190.3,229.3z"/>
	<path class="st2" d="M-176.8,232.5c-0.4-0.1-0.8-0.2-1.1-0.3c-0.3-0.1-0.6-0.2-0.9-0.3c-0.3-0.1-0.6-0.2-0.9-0.3
		c-0.3-0.1-0.7-0.2-1.1-0.3c-0.3-0.1-0.6-0.2-0.9-0.4c-0.3-0.1-0.5-0.3-0.8-0.5c-0.2-0.2-0.4-0.4-0.5-0.7c-0.1-0.3-0.2-0.6-0.2-0.9
		v-3.1c0-0.3,0.1-0.7,0.2-1c0.1-0.3,0.3-0.6,0.5-0.8c0.2-0.2,0.5-0.4,0.8-0.5c0.3-0.1,0.6-0.2,1-0.2h4.8c0.3,0,0.7,0.1,1,0.2
		c0.3,0.1,0.6,0.3,0.8,0.5c0.2,0.2,0.4,0.5,0.5,0.8c0.1,0.3,0.2,0.6,0.2,1v1.8l-2.7,0.4v-1.6c0-0.2-0.1-0.3-0.2-0.4
		c-0.1-0.1-0.3-0.2-0.4-0.2h-3.1c-0.2,0-0.3,0.1-0.4,0.2c-0.1,0.1-0.2,0.3-0.2,0.4v1.9c0,0.2,0.1,0.3,0.2,0.4
		c0.1,0.1,0.3,0.2,0.4,0.2c0.7,0.2,1.3,0.4,1.9,0.5c0.6,0.2,1.3,0.4,2.2,0.6c0.6,0.2,1.2,0.5,1.7,0.8c0.5,0.4,0.7,0.9,0.7,1.6v3.4
		c0,0.3-0.1,0.7-0.2,1c-0.1,0.3-0.3,0.6-0.5,0.8c-0.2,0.2-0.5,0.4-0.8,0.5s-0.6,0.2-1,0.2h-4.9c-0.3,0-0.7-0.1-1-0.2
		s-0.6-0.3-0.8-0.5c-0.2-0.2-0.4-0.5-0.5-0.8c-0.1-0.3-0.2-0.6-0.2-1v-1.7l2.7-0.4v1.6c0,0.2,0.1,0.3,0.2,0.4
		c0.1,0.1,0.3,0.2,0.4,0.2h3.2c0.2,0,0.3-0.1,0.4-0.2c0.1-0.1,0.2-0.3,0.2-0.4v-2.2c0-0.2-0.1-0.3-0.2-0.4S-176.6,232.5-176.8,232.5
		z"/>
	<path class="st2" d="M-171.7,223.3h10.8v2.5h-4.1v12.5h-2.7v-12.5h-4.1V223.3z"/>
	<path class="st2" d="M-158.7,223.3h9.1v2.5h-6.4v3.7h5.8v2.5h-5.8v3.8h6.4v2.5h-9.1V223.3z"/>
	<path class="st2" d="M-144.2,229.4v8.9h-2.6v-15h2.6l4,9.2l4-9.2h2.6v15h-2.6l0-8.9l-2.9,6.4h-2.3L-144.2,229.4z"/>
</g>
<g>
	<path class="st2" d="M-258.3,356.4h1.7l2,7.5l1.1-7.5h1.9l-1.9,10.9h-2l-2.1-7.9l-2.1,7.9h-2l-1.9-10.9h1.9l1.1,7.5L-258.3,356.4z"
		/>
	<path class="st2" d="M-248.8,367.2c-0.2-0.1-0.4-0.2-0.6-0.4c-0.2-0.2-0.3-0.4-0.4-0.6c-0.1-0.2-0.1-0.5-0.1-0.7v-7.3
		c0-0.3,0-0.5,0.1-0.7c0.1-0.2,0.2-0.4,0.4-0.6c0.2-0.2,0.3-0.3,0.6-0.4c0.2-0.1,0.5-0.1,0.7-0.1h3.9c0.3,0,0.5,0,0.7,0.1
		c0.2,0.1,0.4,0.2,0.6,0.4c0.2,0.2,0.3,0.4,0.4,0.6c0.1,0.2,0.1,0.5,0.1,0.7v7.3c0,0.3,0,0.5-0.1,0.7c-0.1,0.2-0.2,0.4-0.4,0.6
		c-0.2,0.2-0.4,0.3-0.6,0.4s-0.5,0.1-0.7,0.1h-3.9C-248.4,367.4-248.6,367.3-248.8,367.2z M-244.4,358.7c0-0.1,0-0.2-0.1-0.3
		c-0.1-0.1-0.2-0.1-0.3-0.1h-2.6c-0.1,0-0.2,0-0.3,0.1c-0.1,0.1-0.1,0.2-0.1,0.3v6.5c0,0.1,0,0.2,0.1,0.3c0.1,0.1,0.2,0.1,0.3,0.1
		h2.6c0.1,0,0.2,0,0.3-0.1c0.1-0.1,0.1-0.2,0.1-0.3V358.7z"/>
	<path class="st2" d="M-236,363.1h-2.1v4.2h-2v-10.9h5.7c0.3,0,0.5,0,0.7,0.1c0.2,0.1,0.4,0.2,0.6,0.4s0.3,0.4,0.4,0.6
		c0.1,0.2,0.1,0.5,0.1,0.7v3.1c0,0.4-0.1,0.8-0.4,1.1c-0.3,0.3-0.6,0.5-1,0.6l2.1,4.3h-2.2L-236,363.1z M-234.5,358.7
		c0-0.1,0-0.2-0.1-0.3c-0.1-0.1-0.2-0.1-0.3-0.1h-3.2v3.1h3.2c0.1,0,0.2,0,0.3-0.1c0.1-0.1,0.1-0.2,0.1-0.3V358.7z"/>
	<path class="st2" d="M-230,356.4h2v5.1l3.4-5.1h2.3l-3.7,5.4l3.8,5.5h-2.3l-3.6-5.2v5.2h-2V356.4z"/>
	<path class="st2" d="M-216.3,363.1c-0.3-0.1-0.6-0.2-0.8-0.2c-0.2-0.1-0.5-0.1-0.7-0.2c-0.2-0.1-0.4-0.1-0.7-0.2
		c-0.2-0.1-0.5-0.1-0.8-0.2c-0.2-0.1-0.5-0.2-0.7-0.3c-0.2-0.1-0.4-0.2-0.6-0.4s-0.3-0.3-0.4-0.5c-0.1-0.2-0.1-0.4-0.1-0.7v-2.2
		c0-0.3,0-0.5,0.1-0.7c0.1-0.2,0.2-0.4,0.4-0.6s0.3-0.3,0.6-0.4c0.2-0.1,0.5-0.1,0.7-0.1h3.5c0.3,0,0.5,0,0.7,0.1
		c0.2,0.1,0.4,0.2,0.6,0.4s0.3,0.4,0.4,0.6s0.1,0.5,0.1,0.7v1.3l-2,0.3v-1.2c0-0.1,0-0.2-0.1-0.3c-0.1-0.1-0.2-0.1-0.3-0.1h-2.2
		c-0.1,0-0.2,0-0.3,0.1c-0.1,0.1-0.1,0.2-0.1,0.3v1.4c0,0.1,0,0.2,0.1,0.3c0.1,0.1,0.2,0.1,0.3,0.2c0.5,0.1,0.9,0.3,1.4,0.4
		s1,0.3,1.6,0.4c0.5,0.1,0.9,0.3,1.2,0.6s0.5,0.7,0.5,1.2v2.4c0,0.3,0,0.5-0.1,0.7c-0.1,0.2-0.2,0.4-0.4,0.6s-0.3,0.3-0.6,0.4
		s-0.5,0.1-0.7,0.1h-3.5c-0.3,0-0.5,0-0.7-0.1s-0.4-0.2-0.6-0.4s-0.3-0.4-0.4-0.6s-0.1-0.5-0.1-0.7v-1.2l2-0.3v1.1
		c0,0.1,0,0.2,0.1,0.3s0.2,0.1,0.3,0.1h2.3c0.1,0,0.2,0,0.3-0.1c0.1-0.1,0.1-0.2,0.1-0.3v-1.6c0-0.1,0-0.2-0.1-0.3
		C-216.1,363.2-216.2,363.1-216.3,363.1z"/>
	<path class="st2" d="M-206,362.7h-3.7v4.7h-2v-10.9h2v4.4h3.7v-4.4h2v10.9h-2V362.7z"/>
	<path class="st2" d="M-200.6,367.2c-0.2-0.1-0.4-0.2-0.6-0.4c-0.2-0.2-0.3-0.4-0.4-0.6c-0.1-0.2-0.1-0.5-0.1-0.7v-7.3
		c0-0.3,0-0.5,0.1-0.7c0.1-0.2,0.2-0.4,0.4-0.6c0.2-0.2,0.3-0.3,0.6-0.4c0.2-0.1,0.5-0.1,0.7-0.1h3.9c0.3,0,0.5,0,0.7,0.1
		c0.2,0.1,0.4,0.2,0.6,0.4s0.3,0.4,0.4,0.6c0.1,0.2,0.1,0.5,0.1,0.7v7.3c0,0.3,0,0.5-0.1,0.7c-0.1,0.2-0.2,0.4-0.4,0.6
		s-0.4,0.3-0.6,0.4s-0.5,0.1-0.7,0.1h-3.9C-200.1,367.4-200.3,367.3-200.6,367.2z M-196.2,358.7c0-0.1,0-0.2-0.1-0.3
		s-0.2-0.1-0.3-0.1h-2.6c-0.1,0-0.2,0-0.3,0.1c-0.1,0.1-0.1,0.2-0.1,0.3v6.5c0,0.1,0,0.2,0.1,0.3c0.1,0.1,0.2,0.1,0.3,0.1h2.6
		c0.1,0,0.2,0,0.3-0.1s0.1-0.2,0.1-0.3V358.7z"/>
	<path class="st2" d="M-191.8,356.4h5.6c0.3,0,0.5,0,0.7,0.1c0.2,0.1,0.4,0.2,0.6,0.4s0.3,0.4,0.4,0.6s0.1,0.5,0.1,0.7v3.1
		c0,0.3,0,0.5-0.1,0.7s-0.2,0.4-0.4,0.6s-0.4,0.3-0.6,0.4s-0.5,0.1-0.7,0.1h-3.6v4.2h-2V356.4z M-186.4,358.7c0-0.1,0-0.2-0.1-0.3
		c-0.1-0.1-0.2-0.1-0.3-0.1h-3v3.1h3c0.1,0,0.2,0,0.3-0.1c0.1-0.1,0.1-0.2,0.1-0.3V358.7z"/>
</g>
</svg>
