<?xml version="1.0" encoding="utf-8"?>
<!-- Generator: Adobe Illustrator 19.0.0, SVG Export Plug-In . SVG Version: 6.00 Build 0)  -->
<svg version="1.1" id="Layer_1" xmlns="http://www.w3.org/2000/svg" xmlns:xlink="http://www.w3.org/1999/xlink" x="0px" y="0px"
	 viewBox="-351 186.4 256.4 188.6" style="enable-background:new -351 186.4 256.4 188.6;" xml:space="preserve">
<style type="text/css">
	.st0{opacity:0.19;fill:#9E8B8A;enable-background:new    ;}
	.st1{enable-background:new    ;}
	.st2{fill:#FFFFFF;}
	.st3{fill:#C7B299;}
</style>
<path id="XMLID_40_" class="st0" d="M-114.9,375h-215.8c-11.2,0-20.3-9.1-20.3-20.3v-148c0-11.2,9.1-20.3,20.3-20.3h215.8
	c11.2,0,20.3,9.1,20.3,20.3v148C-94.6,365.9-103.7,375-114.9,375z"/>
<g class="st1">
	<path class="st2" d="M-313.3,199.6h6.7c0.3,0,0.6,0.1,0.9,0.2c0.3,0.1,0.5,0.3,0.7,0.5c0.2,0.2,0.4,0.4,0.5,0.7
		c0.1,0.3,0.2,0.6,0.2,0.9v9.2c0,0.3-0.1,0.6-0.2,0.9c-0.1,0.3-0.3,0.5-0.5,0.7c-0.2,0.2-0.4,0.4-0.7,0.5c-0.3,0.1-0.6,0.2-0.9,0.2
		h-6.7V199.6z M-306.8,202.5c0-0.2-0.1-0.3-0.2-0.4c-0.1-0.1-0.2-0.2-0.4-0.2h-3.5v9.2h3.5c0.2,0,0.3-0.1,0.4-0.2
		c0.1-0.1,0.2-0.2,0.2-0.4V202.5z"/>
	<path class="st2" d="M-291.2,213.4h-2.5l-1-3h-4.6l-0.9,3h-2.5l4.6-13.8h2.3L-291.2,213.4z M-298.6,208.2h3.2l-1.6-5.2
		L-298.6,208.2z"/>
	<path class="st2" d="M-291.7,199.6h10v2.3h-3.7v11.5h-2.5v-11.5h-3.7V199.6z"/>
	<path class="st2" d="M-270.6,213.4h-2.5l-1-3h-4.6l-0.9,3h-2.5l4.6-13.8h2.3L-270.6,213.4z M-278,208.2h3.2l-1.6-5.2L-278,208.2z"
		/>
	<path class="st2" d="M-258.4,208c-0.4-0.1-0.7-0.2-1-0.3c-0.3-0.1-0.6-0.2-0.8-0.2c-0.3-0.1-0.5-0.2-0.8-0.2
		c-0.3-0.1-0.6-0.2-1-0.3c-0.3-0.1-0.6-0.2-0.9-0.3s-0.5-0.3-0.7-0.5s-0.4-0.4-0.5-0.6c-0.1-0.2-0.2-0.5-0.2-0.8v-2.8
		c0-0.3,0.1-0.6,0.2-0.9c0.1-0.3,0.3-0.5,0.5-0.7c0.2-0.2,0.4-0.4,0.7-0.5c0.3-0.1,0.6-0.2,0.9-0.2h4.4c0.3,0,0.6,0.1,0.9,0.2
		c0.3,0.1,0.5,0.3,0.7,0.5c0.2,0.2,0.4,0.4,0.5,0.7c0.1,0.3,0.2,0.6,0.2,0.9v1.6l-2.5,0.4v-1.5c0-0.2-0.1-0.3-0.2-0.4
		c-0.1-0.1-0.2-0.2-0.4-0.2h-2.8c-0.2,0-0.3,0.1-0.4,0.2c-0.1,0.1-0.2,0.2-0.2,0.4v1.7c0,0.2,0.1,0.3,0.2,0.4
		c0.1,0.1,0.2,0.2,0.4,0.2c0.6,0.2,1.2,0.3,1.8,0.5c0.6,0.2,1.2,0.3,2,0.6c0.6,0.2,1.1,0.4,1.5,0.8c0.4,0.3,0.6,0.8,0.6,1.5v3.1
		c0,0.3-0.1,0.6-0.2,0.9c-0.1,0.3-0.3,0.5-0.5,0.7c-0.2,0.2-0.4,0.4-0.7,0.5c-0.3,0.1-0.6,0.2-0.9,0.2h-4.5c-0.3,0-0.6-0.1-0.9-0.2
		c-0.3-0.1-0.5-0.3-0.7-0.5c-0.2-0.2-0.4-0.4-0.5-0.7c-0.1-0.3-0.2-0.6-0.2-0.9v-1.6l2.5-0.4v1.4c0,0.2,0.1,0.3,0.2,0.4
		c0.1,0.1,0.2,0.2,0.4,0.2h2.9c0.2,0,0.3-0.1,0.4-0.2c0.1-0.1,0.2-0.2,0.2-0.4v-2c0-0.2-0.1-0.3-0.2-0.4
		C-258.1,208.1-258.2,208.1-258.4,208z"/>
	<path class="st2" d="M-246,208.6l2.5,0.4v2.1c0,0.3-0.1,0.6-0.2,0.9c-0.1,0.3-0.3,0.5-0.5,0.7c-0.2,0.2-0.4,0.4-0.7,0.5
		c-0.3,0.1-0.6,0.2-0.9,0.2h-4.6c-0.3,0-0.6-0.1-0.9-0.2c-0.3-0.1-0.5-0.3-0.7-0.5c-0.2-0.2-0.4-0.4-0.5-0.7
		c-0.1-0.3-0.2-0.6-0.2-0.9v-9.2c0-0.3,0.1-0.6,0.2-0.9c0.1-0.3,0.3-0.5,0.5-0.7c0.2-0.2,0.4-0.4,0.7-0.5c0.3-0.1,0.6-0.2,0.9-0.2
		h4.6c0.3,0,0.6,0.1,0.9,0.2c0.3,0.1,0.5,0.3,0.7,0.5c0.2,0.2,0.4,0.4,0.5,0.7c0.1,0.3,0.2,0.6,0.2,0.9v2l-2.5,0.4v-1.8
		c0-0.2-0.1-0.3-0.2-0.4c-0.1-0.1-0.2-0.2-0.4-0.2h-3.1c-0.2,0-0.3,0.1-0.4,0.2c-0.1,0.1-0.2,0.2-0.2,0.4v8.1c0,0.2,0.1,0.3,0.2,0.4
		c0.1,0.1,0.2,0.2,0.4,0.2h3.1c0.2,0,0.3-0.1,0.4-0.2c0.1-0.1,0.2-0.2,0.2-0.4V208.6z"/>
	<path class="st2" d="M-238.1,213.4h-2.5v-13.8h2.5V213.4z"/>
	<path class="st2" d="M-235,199.6h8.3v2.3h-5.9v3.4h5.3v2.3h-5.3v3.5h5.9v2.3h-8.3V199.6z"/>
	<path class="st2" d="M-214,213.4h-2.4l-5.2-8.9v8.9h-2.4v-13.8h2.4l5.2,8.9v-8.9h2.4V213.4z"/>
	<path class="st2" d="M-204.3,208.6l2.5,0.4v2.1c0,0.3-0.1,0.6-0.2,0.9c-0.1,0.3-0.3,0.5-0.5,0.7c-0.2,0.2-0.4,0.4-0.7,0.5
		c-0.3,0.1-0.6,0.2-0.9,0.2h-4.6c-0.3,0-0.6-0.1-0.9-0.2c-0.3-0.1-0.5-0.3-0.7-0.5c-0.2-0.2-0.4-0.4-0.5-0.7s-0.2-0.6-0.2-0.9v-9.2
		c0-0.3,0.1-0.6,0.2-0.9s0.3-0.5,0.5-0.7c0.2-0.2,0.4-0.4,0.7-0.5c0.3-0.1,0.6-0.2,0.9-0.2h4.6c0.3,0,0.6,0.1,0.9,0.2
		c0.3,0.1,0.5,0.3,0.7,0.5c0.2,0.2,0.4,0.4,0.5,0.7c0.1,0.3,0.2,0.6,0.2,0.9v2l-2.5,0.4v-1.8c0-0.2-0.1-0.3-0.2-0.4
		c-0.1-0.1-0.2-0.2-0.4-0.2h-3.1c-0.2,0-0.3,0.1-0.4,0.2s-0.2,0.2-0.2,0.4v8.1c0,0.2,0.1,0.3,0.2,0.4c0.1,0.1,0.2,0.2,0.4,0.2h3.1
		c0.2,0,0.3-0.1,0.4-0.2c0.1-0.1,0.2-0.2,0.2-0.4V208.6z"/>
	<path class="st2" d="M-198.9,199.6h8.3v2.3h-5.9v3.4h5.3v2.3h-5.3v3.5h5.9v2.3h-8.3V199.6z"/>
	<path class="st2" d="M-176.9,199.6h2.5v11.5c0,0.3-0.1,0.6-0.2,0.9c-0.1,0.3-0.3,0.5-0.5,0.7c-0.2,0.2-0.4,0.4-0.7,0.5
		c-0.3,0.1-0.6,0.2-0.9,0.2h-4.6c-0.3,0-0.6-0.1-0.9-0.2c-0.3-0.1-0.5-0.3-0.7-0.5c-0.2-0.2-0.4-0.4-0.5-0.7s-0.2-0.6-0.2-0.9v-11.5
		h2.5v10.9c0,0.2,0.1,0.3,0.2,0.4c0.1,0.1,0.2,0.2,0.4,0.2h3.1c0.2,0,0.3-0.1,0.4-0.2c0.1-0.1,0.2-0.2,0.2-0.4V199.6z"/>
	<path class="st2" d="M-165.6,208c-0.4-0.1-0.7-0.2-1-0.3c-0.3-0.1-0.6-0.2-0.8-0.2c-0.3-0.1-0.5-0.2-0.8-0.2
		c-0.3-0.1-0.6-0.2-1-0.3c-0.3-0.1-0.6-0.2-0.9-0.3s-0.5-0.3-0.7-0.5c-0.2-0.2-0.4-0.4-0.5-0.6c-0.1-0.2-0.2-0.5-0.2-0.8v-2.8
		c0-0.3,0.1-0.6,0.2-0.9s0.3-0.5,0.5-0.7c0.2-0.2,0.4-0.4,0.7-0.5c0.3-0.1,0.6-0.2,0.9-0.2h4.4c0.3,0,0.6,0.1,0.9,0.2
		c0.3,0.1,0.5,0.3,0.7,0.5c0.2,0.2,0.4,0.4,0.5,0.7c0.1,0.3,0.2,0.6,0.2,0.9v1.6l-2.5,0.4v-1.5c0-0.2-0.1-0.3-0.2-0.4
		c-0.1-0.1-0.2-0.2-0.4-0.2h-2.8c-0.2,0-0.3,0.1-0.4,0.2s-0.2,0.2-0.2,0.4v1.7c0,0.2,0.1,0.3,0.2,0.4c0.1,0.1,0.2,0.2,0.4,0.2
		c0.6,0.2,1.2,0.3,1.8,0.5c0.6,0.2,1.2,0.3,2,0.6c0.6,0.2,1.1,0.4,1.5,0.8c0.4,0.3,0.6,0.8,0.6,1.5v3.1c0,0.3-0.1,0.6-0.2,0.9
		s-0.3,0.5-0.5,0.7c-0.2,0.2-0.4,0.4-0.7,0.5c-0.3,0.1-0.6,0.2-0.9,0.2h-4.5c-0.3,0-0.6-0.1-0.9-0.2c-0.3-0.1-0.5-0.3-0.7-0.5
		c-0.2-0.2-0.4-0.4-0.5-0.7c-0.1-0.3-0.2-0.6-0.2-0.9v-1.6l2.5-0.4v1.4c0,0.2,0.1,0.3,0.2,0.4c0.1,0.1,0.2,0.2,0.4,0.2h2.9
		c0.2,0,0.3-0.1,0.4-0.2c0.1-0.1,0.2-0.2,0.2-0.4v-2c0-0.2-0.1-0.3-0.2-0.4C-165.3,208.1-165.4,208.1-165.6,208z"/>
	<path class="st2" d="M-157.3,213.4h-2.5v-13.8h2.5V213.4z"/>
	<path class="st2" d="M-144.2,213.4h-2.4l-5.2-8.9v8.9h-2.4v-13.8h2.4l5.2,8.9v-8.9h2.4V213.4z"/>
	<path class="st2" d="M-136.9,206.1h4.9v5c0,0.3-0.1,0.6-0.2,0.9c-0.1,0.3-0.3,0.5-0.5,0.7c-0.2,0.2-0.4,0.4-0.7,0.5
		s-0.6,0.2-0.9,0.2h-4.6c-0.3,0-0.6-0.1-0.9-0.2c-0.3-0.1-0.5-0.3-0.7-0.5c-0.2-0.2-0.4-0.4-0.5-0.7s-0.2-0.6-0.2-0.9v-9.2
		c0-0.3,0.1-0.6,0.2-0.9s0.3-0.5,0.5-0.7c0.2-0.2,0.4-0.4,0.7-0.5c0.3-0.1,0.6-0.2,0.9-0.2h4.6c0.3,0,0.6,0.1,0.9,0.2
		c0.3,0.1,0.5,0.3,0.7,0.5c0.2,0.2,0.4,0.4,0.5,0.7c0.1,0.3,0.2,0.6,0.2,0.9v1.5l-2.5,0.4v-1.4c0-0.2-0.1-0.3-0.2-0.4
		c-0.1-0.1-0.2-0.2-0.4-0.2h-3.1c-0.2,0-0.3,0.1-0.4,0.2s-0.2,0.2-0.2,0.4v8.1c0,0.2,0.1,0.3,0.2,0.4c0.1,0.1,0.2,0.2,0.4,0.2h3.1
		c0.2,0,0.3-0.1,0.4-0.2c0.1-0.1,0.2-0.2,0.2-0.4v-2.3h-2.4V206.1z"/>
	<path class="st2" d="M-257.1,224.4h7c0.3,0,0.6,0.1,0.9,0.2c0.3,0.1,0.5,0.3,0.7,0.5c0.2,0.2,0.4,0.4,0.5,0.7
		c0.1,0.3,0.2,0.6,0.2,0.9v3.9c0,0.3-0.1,0.6-0.2,0.9c-0.1,0.3-0.3,0.5-0.5,0.7c-0.2,0.2-0.4,0.4-0.7,0.5s-0.6,0.2-0.9,0.2h-4.5v5.3
		h-2.5V224.4z M-250.3,227.2c0-0.2-0.1-0.3-0.2-0.4c-0.1-0.1-0.2-0.2-0.4-0.2h-3.8v3.9h3.8c0.2,0,0.3-0.1,0.4-0.2
		c0.1-0.1,0.2-0.2,0.2-0.4V227.2z"/>
	<path class="st2" d="M-241.6,229.9l2.7-5.5h2.6l-4.1,8.2v5.5h-2.5v-5.5l-4.1-8.2h2.6L-241.6,229.9z"/>
	<path class="st2" d="M-235.4,224.4h10v2.3h-3.7v11.5h-2.5v-11.5h-3.7V224.4z"/>
	<path class="st2" d="M-216.3,232.3h-4.7v5.9h-2.5v-13.8h2.5v5.6h4.7v-5.6h2.5v13.8h-2.5V232.3z"/>
	<path class="st2" d="M-209.5,238c-0.3-0.1-0.5-0.3-0.7-0.5c-0.2-0.2-0.4-0.4-0.5-0.7c-0.1-0.3-0.2-0.6-0.2-0.9v-9.2
		c0-0.3,0.1-0.6,0.2-0.9c0.1-0.3,0.3-0.5,0.5-0.7c0.2-0.2,0.4-0.4,0.7-0.5c0.3-0.1,0.6-0.2,0.9-0.2h4.9c0.3,0,0.6,0.1,0.9,0.2
		c0.3,0.1,0.5,0.3,0.7,0.5c0.2,0.2,0.4,0.4,0.5,0.7c0.1,0.3,0.2,0.6,0.2,0.9v9.2c0,0.3-0.1,0.6-0.2,0.9c-0.1,0.3-0.3,0.5-0.5,0.7
		c-0.2,0.2-0.4,0.4-0.7,0.5c-0.3,0.1-0.6,0.2-0.9,0.2h-4.9C-208.9,238.2-209.2,238.1-209.5,238z M-203.9,227.2
		c0-0.2-0.1-0.3-0.2-0.4c-0.1-0.1-0.2-0.2-0.4-0.2h-3.3c-0.2,0-0.3,0.1-0.4,0.2c-0.1,0.1-0.2,0.2-0.2,0.4v8.1c0,0.2,0.1,0.3,0.2,0.4
		c0.1,0.1,0.2,0.2,0.4,0.2h3.3c0.2,0,0.3-0.1,0.4-0.2c0.1-0.1,0.2-0.2,0.2-0.4V227.2z"/>
	<path class="st2" d="M-188.5,238.2h-2.4l-5.2-8.9v8.9h-2.4v-13.8h2.4l5.2,8.9v-8.9h2.4V238.2z"/>
</g>
<g>
	<g>
		<path class="st2" d="M-251.3,356.8h1.4l1.7,6.2l1-6.2h1.6l-1.6,9.1h-1.6l-1.7-6.5l-1.7,6.5h-1.6l-1.6-9.1h1.6l1,6.2L-251.3,356.8z
			"/>
		<path class="st2" d="M-243.5,365.7c-0.2-0.1-0.3-0.2-0.5-0.3s-0.2-0.3-0.3-0.5s-0.1-0.4-0.1-0.6v-6.1c0-0.2,0-0.4,0.1-0.6
			c0.1-0.2,0.2-0.3,0.3-0.5c0.1-0.1,0.3-0.2,0.5-0.3s0.4-0.1,0.6-0.1h3.2c0.2,0,0.4,0,0.6,0.1c0.2,0.1,0.3,0.2,0.5,0.3
			c0.1,0.1,0.2,0.3,0.3,0.5c0.1,0.2,0.1,0.4,0.1,0.6v6.1c0,0.2,0,0.4-0.1,0.6s-0.2,0.3-0.3,0.5c-0.1,0.1-0.3,0.2-0.5,0.3
			c-0.2,0.1-0.4,0.1-0.6,0.1h-3.2C-243.1,365.8-243.3,365.8-243.5,365.7z M-239.8,358.6c0-0.1,0-0.2-0.1-0.3
			c-0.1-0.1-0.2-0.1-0.3-0.1h-2.2c-0.1,0-0.2,0-0.3,0.1c-0.1,0.1-0.1,0.2-0.1,0.3v5.4c0,0.1,0,0.2,0.1,0.3c0.1,0.1,0.2,0.1,0.3,0.1
			h2.2c0.1,0,0.2,0,0.3-0.1c0.1-0.1,0.1-0.2,0.1-0.3V358.6z"/>
		<path class="st2" d="M-232.9,362.3h-1.7v3.5h-1.6v-9.1h4.8c0.2,0,0.4,0,0.6,0.1c0.2,0.1,0.3,0.2,0.5,0.3c0.1,0.1,0.2,0.3,0.3,0.5
			c0.1,0.2,0.1,0.4,0.1,0.6v2.6c0,0.4-0.1,0.7-0.3,0.9s-0.5,0.4-0.8,0.5l1.7,3.5h-1.8L-232.9,362.3z M-231.6,358.6
			c0-0.1,0-0.2-0.1-0.3c-0.1-0.1-0.2-0.1-0.3-0.1h-2.6v2.6h2.6c0.1,0,0.2,0,0.3-0.1c0.1-0.1,0.1-0.2,0.1-0.3V358.6z"/>
		<path class="st2" d="M-227.8,356.8h1.6v4.2l2.8-4.2h1.9l-3,4.5l3.2,4.6h-1.9l-3-4.3v4.3h-1.6V356.8z"/>
		<path class="st2" d="M-216.5,362.3c-0.3-0.1-0.5-0.1-0.7-0.2s-0.4-0.1-0.6-0.2s-0.4-0.1-0.5-0.2c-0.2-0.1-0.4-0.1-0.7-0.2
			c-0.2-0.1-0.4-0.1-0.6-0.2c-0.2-0.1-0.3-0.2-0.5-0.3c-0.1-0.1-0.2-0.3-0.3-0.4s-0.1-0.3-0.1-0.5v-1.9c0-0.2,0-0.4,0.1-0.6
			c0.1-0.2,0.2-0.3,0.3-0.5c0.1-0.1,0.3-0.2,0.5-0.3s0.4-0.1,0.6-0.1h2.9c0.2,0,0.4,0,0.6,0.1c0.2,0.1,0.3,0.2,0.5,0.3
			c0.1,0.1,0.2,0.3,0.3,0.5c0.1,0.2,0.1,0.4,0.1,0.6v1.1l-1.6,0.3v-1c0-0.1,0-0.2-0.1-0.3c-0.1-0.1-0.2-0.1-0.3-0.1h-1.9
			c-0.1,0-0.2,0-0.3,0.1c-0.1,0.1-0.1,0.2-0.1,0.3v1.1c0,0.1,0,0.2,0.1,0.3c0.1,0.1,0.2,0.1,0.3,0.1c0.4,0.1,0.8,0.2,1.2,0.3
			c0.4,0.1,0.8,0.2,1.3,0.4c0.4,0.1,0.7,0.3,1,0.5c0.3,0.2,0.4,0.5,0.4,1v2c0,0.2,0,0.4-0.1,0.6s-0.2,0.3-0.3,0.5
			c-0.1,0.1-0.3,0.2-0.5,0.3c-0.2,0.1-0.4,0.1-0.6,0.1h-2.9c-0.2,0-0.4,0-0.6-0.1s-0.3-0.2-0.5-0.3c-0.1-0.1-0.2-0.3-0.3-0.5
			s-0.1-0.4-0.1-0.6v-1l1.6-0.3v1c0,0.1,0,0.2,0.1,0.3c0.1,0.1,0.2,0.1,0.3,0.1h1.9c0.1,0,0.2,0,0.3-0.1c0.1-0.1,0.1-0.2,0.1-0.3
			v-1.3c0-0.1,0-0.2-0.1-0.2C-216.3,362.4-216.4,362.3-216.5,362.3z"/>
		<path class="st2" d="M-208,361.9h-3.1v3.9h-1.6v-9.1h1.6v3.7h3.1v-3.7h1.6v9.1h-1.6V361.9z"/>
		<path class="st2" d="M-203.4,365.7c-0.2-0.1-0.3-0.2-0.5-0.3c-0.1-0.1-0.2-0.3-0.3-0.5s-0.1-0.4-0.1-0.6v-6.1c0-0.2,0-0.4,0.1-0.6
			c0.1-0.2,0.2-0.3,0.3-0.5c0.1-0.1,0.3-0.2,0.5-0.3c0.2-0.1,0.4-0.1,0.6-0.1h3.2c0.2,0,0.4,0,0.6,0.1s0.3,0.2,0.5,0.3
			c0.1,0.1,0.2,0.3,0.3,0.5c0.1,0.2,0.1,0.4,0.1,0.6v6.1c0,0.2,0,0.4-0.1,0.6s-0.2,0.3-0.3,0.5c-0.1,0.1-0.3,0.2-0.5,0.3
			s-0.4,0.1-0.6,0.1h-3.2C-203.1,365.8-203.3,365.8-203.4,365.7z M-199.8,358.6c0-0.1,0-0.2-0.1-0.3c-0.1-0.1-0.2-0.1-0.3-0.1h-2.2
			c-0.1,0-0.2,0-0.3,0.1c-0.1,0.1-0.1,0.2-0.1,0.3v5.4c0,0.1,0,0.2,0.1,0.3c0.1,0.1,0.2,0.1,0.3,0.1h2.2c0.1,0,0.2,0,0.3-0.1
			c0.1-0.1,0.1-0.2,0.1-0.3V358.6z"/>
		<path class="st2" d="M-196.2,356.8h4.6c0.2,0,0.4,0,0.6,0.1s0.3,0.2,0.5,0.3c0.1,0.1,0.2,0.3,0.3,0.5c0.1,0.2,0.1,0.4,0.1,0.6v2.6
			c0,0.2,0,0.4-0.1,0.6c-0.1,0.2-0.2,0.3-0.3,0.5c-0.1,0.1-0.3,0.2-0.5,0.3s-0.4,0.1-0.6,0.1h-3v3.5h-1.6V356.8z M-191.7,358.6
			c0-0.1,0-0.2-0.1-0.3c-0.1-0.1-0.2-0.1-0.3-0.1h-2.5v2.6h2.5c0.1,0,0.2,0,0.3-0.1c0.1-0.1,0.1-0.2,0.1-0.3V358.6z"/>
	</g>
</g>
<g>
	<g>
		<g>
			<path class="st3" d="M-226.5,271.5l-4.3-2.2v-3.2h-2.7v3.2l-4,2l-4-2v-3.2h-2.7v3.2l-4.6,2.3c-0.5,0.2-0.7,0.7-0.7,1.2v5.3h-2.7
				v2.7h3.7l4.3,2.2v3.2h2.7v-3.2l4-2l4,2v3.2h2.7v-3.2l4.6-2.3c0.5-0.2,0.7-0.7,0.7-1.2v-5.3h2.7v-2.7
				C-222.8,271.5-226.5,271.5-226.5,271.5z M-238.7,278.6l-4,2l-4-2v-5l4-2l4,2V278.6z M-228.1,278.6l-4,2l-4-2v-5l4-2l4,2V278.6z"
				/>
		</g>
	</g>
	<g>
		<g>
			<rect x="-225.5" y="266.2" class="st3" width="2.7" height="2.7"/>
		</g>
	</g>
	<g>
		<g>
			<rect x="-252" y="283.4" class="st3" width="2.7" height="2.7"/>
		</g>
	</g>
	<g>
		<g>
			<rect x="-204.2" y="295.4" class="st3" width="2.7" height="2.7"/>
		</g>
	</g>
	<g>
		<g>
			<rect x="-209.5" y="295.4" class="st3" width="2.7" height="2.7"/>
		</g>
	</g>
	<g>
		<g>
			<rect x="-198.9" y="295.4" class="st3" width="2.7" height="2.7"/>
		</g>
	</g>
	<g>
		<g>
			<rect x="-204.2" y="284.8" class="st3" width="2.7" height="2.7"/>
		</g>
	</g>
	<g>
		<g>
			<rect x="-209.5" y="284.8" class="st3" width="2.7" height="2.7"/>
		</g>
	</g>
	<g>
		<g>
			<rect x="-198.9" y="284.8" class="st3" width="2.7" height="2.7"/>
		</g>
	</g>
	<g>
		<g>
			<rect x="-204.2" y="306" class="st3" width="2.7" height="2.7"/>
		</g>
	</g>
	<g>
		<g>
			<rect x="-209.5" y="306" class="st3" width="2.7" height="2.7"/>
		</g>
	</g>
	<g>
		<g>
			<rect x="-198.9" y="306" class="st3" width="2.7" height="2.7"/>
		</g>
	</g>
	<g>
		<g>
			<rect x="-204.2" y="316.7" class="st3" width="2.7" height="2.7"/>
		</g>
	</g>
	<g>
		<g>
			<rect x="-209.5" y="316.7" class="st3" width="2.7" height="2.7"/>
		</g>
	</g>
	<g>
		<g>
			<rect x="-198.9" y="316.7" class="st3" width="2.7" height="2.7"/>
		</g>
	</g>
	<g>
		<g>
			<path class="st3" d="M-202.9,266.2c-3.1,0-6.2,0.3-9.3,0.9v-6.2c0-0.7-0.6-1.3-1.3-1.3h-39.9c0,0,0,0-0.1,0c-0.1,0-0.2,0-0.4,0.1
				c0,0-0.1,0-0.1,0c-0.1,0.1-0.3,0.2-0.4,0.3l-8,8c-0.1,0.1-0.2,0.2-0.3,0.4c0,0,0,0.1,0,0.1c0,0.1-0.1,0.2-0.1,0.3
				c0,0,0,0.1,0,0.1v58.5c0,0.7,0.6,1.3,1.3,1.3h47.8c0.7,0,1.3-0.6,1.3-1.3v-3.5c3.1,0.6,6.2,0.9,9.3,0.9c2.3,0,4.6-0.2,6.9-0.5
				l2.6,3.9c0.2,0.4,0.7,0.6,1.1,0.6h5.3c0.7,0,1.3-0.6,1.3-1.3v-6.5c1.5-0.8,2.5-2.4,2.7-4.1v-42.5
				C-182.9,268.9-193.2,266.2-202.9,266.2z M-254.7,264v3.4h-3.4L-254.7,264z M-214.8,326H-260v-55.8h6.6c0.7,0,1.3-0.6,1.3-1.3
				v-6.6h37.2V326z M-212.2,269.7c3.1-0.6,6.2-0.9,9.3-0.9c10.5,0,17.3,3.1,17.3,5.3s-6.7,5.3-17.3,5.3c-0.9,0-1.8,0-2.6-0.1
				c-0.3,0-0.6,0-0.8-0.1c-0.6,0-1.1-0.1-1.7-0.1c-0.3,0-0.6-0.1-1-0.1c-0.5-0.1-1-0.1-1.5-0.2c-0.3-0.1-0.6-0.1-0.9-0.2
				c-0.3-0.1-0.5-0.1-0.8-0.2V269.7z M-212.2,281.2c0.2,0,0.3,0.1,0.5,0.1c0.3,0.1,0.6,0.1,0.9,0.2c0.5,0.1,1.1,0.2,1.6,0.2
				c0.3,0,0.6,0.1,0.9,0.1c0.6,0.1,1.2,0.1,1.8,0.2c0.3,0,0.6,0,0.8,0.1c0.9,0,1.8,0.1,2.7,0.1c0.5,0,1.1,0,1.6,0c0.1,0,0.3,0,0.4,0
				c0.5,0,0.9,0,1.4-0.1l0.2,0c0.5,0,1.1-0.1,1.6-0.1l0.4,0c0.4-0.1,0.9-0.1,1.3-0.2l0.3,0c0.5-0.1,1-0.2,1.5-0.3l0.3-0.1
				c0.4-0.1,0.8-0.2,1.2-0.3c0.1,0,0.2-0.1,0.3-0.1c0.5-0.1,0.9-0.2,1.4-0.4c0.1,0,0.2,0,0.2-0.1c0.4-0.1,0.7-0.2,1.1-0.4
				c0.1,0,0.2-0.1,0.3-0.1c0.4-0.1,0.8-0.3,1.2-0.5c0,0,0.1,0,0.1-0.1c0.3-0.2,0.7-0.3,1-0.5l0.3-0.2c0.3-0.2,0.6-0.4,0.9-0.5
				c0,0,0,0,0.1,0l0,0v6.5c0,2.2-6.7,5.3-17.3,5.3c-3.1,0-6.2-0.3-9.3-0.9V281.2z M-185.6,288.9v6.5c0,2.2-6.7,5.3-17.3,5.3
				c-0.9,0-1.8,0-2.6-0.1c-0.3,0-0.6,0-0.8-0.1c-0.6,0-1.1-0.1-1.7-0.1c-0.3,0-0.6-0.1-1-0.1c-0.5-0.1-1-0.1-1.5-0.2
				c-0.3-0.1-0.6-0.1-0.9-0.2c-0.3-0.1-0.5-0.1-0.8-0.2v-7.9c3.1,0.6,6.2,0.9,9.3,0.9C-196.2,292.7-189.3,291.4-185.6,288.9z
				 M-188.2,326h-3.3l-1.5-2.3c1.6-0.3,3.3-0.8,4.8-1.5V326z M-185.6,316.7c0,2.2-6.7,5.3-17.3,5.3c-3.1,0-6.2-0.3-9.3-0.9v-7.9
				c3.1,0.6,6.2,0.9,9.3,0.9c6.7,0,13.6-1.3,17.3-3.8V316.7z M-185.6,306c0,2.2-6.7,5.3-17.3,5.3c-3.1,0-6.2-0.3-9.3-0.9v-7.9
				c0.2,0,0.3,0.1,0.5,0.1c0.3,0.1,0.6,0.1,0.9,0.2c0.5,0.1,1.1,0.2,1.6,0.2c0.3,0,0.6,0.1,0.9,0.1c0.6,0.1,1.2,0.1,1.8,0.2
				c0.3,0,0.6,0,0.8,0.1c0.9,0,1.8,0.1,2.7,0.1c0.5,0,1.1,0,1.6,0c0.1,0,0.3,0,0.4,0c0.5,0,0.9,0,1.4-0.1l0.2,0
				c0.5,0,1.1-0.1,1.6-0.1l0.4,0c0.4-0.1,0.9-0.1,1.3-0.2l0.3,0c0.5-0.1,1-0.2,1.5-0.3l0.3-0.1c0.4-0.1,0.8-0.2,1.2-0.3
				c0.1,0,0.2-0.1,0.3-0.1c0.5-0.1,0.9-0.2,1.4-0.4c0.1,0,0.2,0,0.2-0.1c0.4-0.1,0.7-0.2,1.1-0.4c0.1,0,0.2-0.1,0.3-0.1
				c0.4-0.1,0.8-0.3,1.2-0.5c0,0,0.1,0,0.1-0.1c0.3-0.2,0.7-0.3,1-0.5l0.3-0.2c0.3-0.2,0.6-0.4,0.9-0.5c0,0,0,0,0.1,0h0L-185.6,306z
				"/>
		</g>
	</g>
	<g>
		<g>
			<rect x="-254.7" y="312.7" class="st3" width="34.6" height="2.7"/>
		</g>
	</g>
	<g>
		<g>
			<rect x="-254.7" y="318" class="st3" width="34.6" height="2.7"/>
		</g>
	</g>
	<g>
		<g>
			<rect x="-246.7" y="307.4" class="st3" width="26.6" height="2.7"/>
		</g>
	</g>
	<g>
		<g>
			<rect x="-252" y="307.4" class="st3" width="2.7" height="2.7"/>
		</g>
	</g>
	<g>
		<g>
			<path class="st3" d="M-221.5,290.1h-31.9c-0.7,0-1.3,0.6-1.3,1.3V302c0,0.7,0.6,1.3,1.3,1.3h31.9c0.7,0,1.3-0.6,1.3-1.3v-10.6
				C-220.1,290.7-220.7,290.1-221.5,290.1z M-222.8,300.7H-252v-8h29.2V300.7z"/>
		</g>
	</g>
	<g>
		<g>
			<rect x="-228.1" y="295.4" class="st3" width="2.7" height="2.7"/>
		</g>
	</g>
	<g>
		<g>
			<rect x="-233.4" y="295.4" class="st3" width="2.7" height="2.7"/>
		</g>
	</g>
	<g>
		<g>
			<rect x="-238.7" y="295.4" class="st3" width="2.7" height="2.7"/>
		</g>
	</g>
</g>
</svg>
