<?xml version="1.0" encoding="utf-8"?>
<!-- Generator: Adobe Illustrator 19.0.0, SVG Export Plug-In . SVG Version: 6.00 Build 0)  -->
<svg version="1.1" id="Layer_1" xmlns="http://www.w3.org/2000/svg" xmlns:xlink="http://www.w3.org/1999/xlink" x="0px" y="0px"
	 viewBox="-351 186.4 256.4 188.6" style="enable-background:new -351 186.4 256.4 188.6;" xml:space="preserve">
<style type="text/css">
	.st0{opacity:0.19;fill:#9E8B8A;enable-background:new    ;}
	.st1{fill:#FFFFFF;}
	.st2{fill:#C7B299;}
</style>
<path id="XMLID_40_" class="st0" d="M-114.9,375h-215.8c-11.2,0-20.3-9.1-20.3-20.3v-148c0-11.2,9.1-20.3,20.3-20.3h215.8
	c11.2,0,20.3,9.1,20.3,20.3v148C-94.6,365.9-103.7,375-114.9,375z"/>
<g>
	<path class="st1" d="M-306.9,217.4v-13.8h8.4v2.3h-6v3.4h5.5v2.3h-5.5v5.8H-306.9z"/>
	<path class="st1" d="M-294,217.4h-2.5v-13.8h2.5V217.4z"/>
	<path class="st1" d="M-285.8,212.1h-2.6v5.3h-2.5v-13.8h7.2c0.3,0,0.6,0.1,0.9,0.2c0.3,0.1,0.5,0.3,0.7,0.5
		c0.2,0.2,0.4,0.4,0.5,0.7c0.1,0.3,0.2,0.6,0.2,0.9v3.9c0,0.5-0.2,1-0.5,1.4c-0.3,0.4-0.7,0.7-1.2,0.8l2.6,5.4h-2.7L-285.8,212.1z
		 M-283.9,206.5c0-0.2-0.1-0.3-0.2-0.4c-0.1-0.1-0.2-0.2-0.4-0.2h-4v3.9h4c0.2,0,0.3-0.1,0.4-0.2c0.1-0.1,0.2-0.2,0.2-0.4V206.5z"/>
	<path class="st1" d="M-278.2,203.6h8.3v2.3h-5.9v3.4h5.3v2.3h-5.3v3.5h5.9v2.3h-8.3V203.6z"/>
	<path class="st1" d="M-263.9,203.6h10v2.3h-3.7v11.5h-2.5v-11.5h-3.7V203.6z"/>
	<path class="st1" d="M-246.9,212.1h-2.6v5.3h-2.5v-13.8h7.2c0.3,0,0.6,0.1,0.9,0.2c0.3,0.1,0.5,0.3,0.7,0.5
		c0.2,0.2,0.4,0.4,0.5,0.7c0.1,0.3,0.2,0.6,0.2,0.9v3.9c0,0.5-0.2,1-0.5,1.4c-0.3,0.4-0.7,0.7-1.2,0.8l2.6,5.4h-2.7L-246.9,212.1z
		 M-245,206.5c0-0.2-0.1-0.3-0.2-0.4c-0.1-0.1-0.2-0.2-0.4-0.2h-4v3.9h4c0.2,0,0.3-0.1,0.4-0.2c0.1-0.1,0.2-0.2,0.2-0.4V206.5z"/>
	<path class="st1" d="M-228.6,217.4h-2.5l-1-3h-4.6l-1,3h-2.5l4.6-13.8h2.3L-228.6,217.4z M-236,212.2h3.2l-1.6-5.2L-236,212.2z"/>
	<path class="st1" d="M-224.2,217.4h-2.5v-13.8h2.5V217.4z"/>
	<path class="st1" d="M-211.1,217.4h-2.4l-5.2-8.9v8.9h-2.4v-13.8h2.4l5.2,8.9v-8.9h2.4V217.4z"/>
	<path class="st1" d="M-205.5,217.4h-2.5v-13.8h2.5V217.4z"/>
	<path class="st1" d="M-192.4,217.4h-2.4l-5.2-8.9v8.9h-2.4v-13.8h2.4l5.2,8.9v-8.9h2.4V217.4z"/>
	<path class="st1" d="M-185.1,210.1h4.9v5c0,0.3-0.1,0.6-0.2,0.9c-0.1,0.3-0.3,0.5-0.5,0.7c-0.2,0.2-0.4,0.4-0.7,0.5
		c-0.3,0.1-0.6,0.2-0.9,0.2h-4.6c-0.3,0-0.6-0.1-0.9-0.2c-0.3-0.1-0.5-0.3-0.7-0.5c-0.2-0.2-0.4-0.4-0.5-0.7
		c-0.1-0.3-0.2-0.6-0.2-0.9v-9.2c0-0.3,0.1-0.6,0.2-0.9c0.1-0.3,0.3-0.5,0.5-0.7c0.2-0.2,0.4-0.4,0.7-0.5c0.3-0.1,0.6-0.2,0.9-0.2
		h4.6c0.3,0,0.6,0.1,0.9,0.2c0.3,0.1,0.5,0.3,0.7,0.5c0.2,0.2,0.4,0.4,0.5,0.7c0.1,0.3,0.2,0.6,0.2,0.9v1.5l-2.5,0.4v-1.4
		c0-0.2-0.1-0.3-0.2-0.4c-0.1-0.1-0.2-0.2-0.4-0.2h-3.1c-0.2,0-0.3,0.1-0.4,0.2c-0.1,0.1-0.2,0.2-0.2,0.4v8.1c0,0.2,0.1,0.3,0.2,0.4
		c0.1,0.1,0.2,0.2,0.4,0.2h3.1c0.2,0,0.3-0.1,0.4-0.2c0.1-0.1,0.2-0.2,0.2-0.4v-2.3h-2.4V210.1z"/>
	<path class="st1" d="M-162.6,217.4h-2.5l-1-3h-4.6l-1,3h-2.5l4.6-13.8h2.3L-162.6,217.4z M-170,212.2h3.2l-1.6-5.2L-170,212.2z"/>
	<path class="st1" d="M-150.7,217.4h-2.4l-5.2-8.9v8.9h-2.4v-13.8h2.4l5.2,8.9v-8.9h2.4V217.4z"/>
	<path class="st1" d="M-147.6,203.6h6.7c0.3,0,0.6,0.1,0.9,0.2c0.3,0.1,0.5,0.3,0.7,0.5c0.2,0.2,0.4,0.4,0.5,0.7
		c0.1,0.3,0.2,0.6,0.2,0.9v9.2c0,0.3-0.1,0.6-0.2,0.9c-0.1,0.3-0.3,0.5-0.5,0.7c-0.2,0.2-0.4,0.4-0.7,0.5c-0.3,0.1-0.6,0.2-0.9,0.2
		h-6.7V203.6z M-141.1,206.5c0-0.2-0.1-0.3-0.2-0.4c-0.1-0.1-0.2-0.2-0.4-0.2h-3.5v9.2h3.5c0.2,0,0.3-0.1,0.4-0.2
		c0.1-0.1,0.2-0.2,0.2-0.4V206.5z"/>
	<path class="st1" d="M-232.7,237.4l2.5,0.4v2.1c0,0.3-0.1,0.6-0.2,0.9c-0.1,0.3-0.3,0.5-0.5,0.7c-0.2,0.2-0.4,0.4-0.7,0.5
		c-0.3,0.1-0.6,0.2-0.9,0.2h-4.6c-0.3,0-0.6-0.1-0.9-0.2c-0.3-0.1-0.5-0.3-0.7-0.5c-0.2-0.2-0.4-0.4-0.5-0.7
		c-0.1-0.3-0.2-0.6-0.2-0.9v-9.2c0-0.3,0.1-0.6,0.2-0.9c0.1-0.3,0.3-0.5,0.5-0.7c0.2-0.2,0.4-0.4,0.7-0.5c0.3-0.1,0.6-0.2,0.9-0.2
		h4.6c0.3,0,0.6,0.1,0.9,0.2c0.3,0.1,0.5,0.3,0.7,0.5c0.2,0.2,0.4,0.4,0.5,0.7c0.1,0.3,0.2,0.6,0.2,0.9v2l-2.5,0.4v-1.8
		c0-0.2-0.1-0.3-0.2-0.4c-0.1-0.1-0.2-0.2-0.4-0.2h-3.1c-0.2,0-0.3,0.1-0.4,0.2c-0.1,0.1-0.2,0.2-0.2,0.4v8.1c0,0.2,0.1,0.3,0.2,0.4
		c0.1,0.1,0.2,0.2,0.4,0.2h3.1c0.2,0,0.3-0.1,0.4-0.2c0.1-0.1,0.2-0.2,0.2-0.4V237.4z"/>
	<path class="st1" d="M-227.3,228.4h7c0.3,0,0.6,0.1,0.9,0.2c0.3,0.1,0.5,0.3,0.7,0.5c0.2,0.2,0.4,0.4,0.5,0.7
		c0.1,0.3,0.2,0.6,0.2,0.9v3.9c0,0.3-0.1,0.6-0.2,0.9s-0.3,0.5-0.5,0.7c-0.2,0.2-0.4,0.4-0.7,0.5c-0.3,0.1-0.6,0.2-0.9,0.2h-4.5v5.3
		h-2.5V228.4z M-220.5,231.2c0-0.2-0.1-0.3-0.2-0.4c-0.1-0.1-0.2-0.2-0.4-0.2h-3.8v3.9h3.8c0.2,0,0.3-0.1,0.4-0.2
		c0.1-0.1,0.2-0.2,0.2-0.4V231.2z"/>
	<path class="st1" d="M-210.8,236.9h-2.6v5.3h-2.5v-13.8h7.2c0.3,0,0.6,0.1,0.9,0.2c0.3,0.1,0.5,0.3,0.7,0.5
		c0.2,0.2,0.4,0.4,0.5,0.7c0.1,0.3,0.2,0.6,0.2,0.9v3.9c0,0.5-0.2,1-0.5,1.4c-0.3,0.4-0.7,0.7-1.2,0.8l2.6,5.4h-2.7L-210.8,236.9z
		 M-208.9,231.2c0-0.2-0.1-0.3-0.2-0.4c-0.1-0.1-0.2-0.2-0.4-0.2h-4v3.9h4c0.2,0,0.3-0.1,0.4-0.2c0.1-0.1,0.2-0.2,0.2-0.4V231.2z"/>
</g>
<g>
	<g>
		<path class="st1" d="M-256.5,356.6h1.7l2,7.3l1.1-7.3h1.9l-1.9,10.7h-1.9l-2-7.7l-2,7.7h-1.9l-1.9-10.7h1.9l1.1,7.3L-256.5,356.6z
			"/>
		<path class="st1" d="M-247.2,367.2c-0.2-0.1-0.4-0.2-0.6-0.4c-0.2-0.2-0.3-0.3-0.4-0.6c-0.1-0.2-0.1-0.4-0.1-0.7v-7.2
			c0-0.2,0-0.5,0.1-0.7c0.1-0.2,0.2-0.4,0.4-0.6c0.2-0.2,0.3-0.3,0.6-0.4c0.2-0.1,0.4-0.1,0.7-0.1h3.8c0.2,0,0.5,0,0.7,0.1
			c0.2,0.1,0.4,0.2,0.6,0.4c0.2,0.2,0.3,0.3,0.4,0.6c0.1,0.2,0.1,0.4,0.1,0.7v7.2c0,0.2,0,0.5-0.1,0.7c-0.1,0.2-0.2,0.4-0.4,0.6
			c-0.2,0.2-0.3,0.3-0.6,0.4c-0.2,0.1-0.4,0.1-0.7,0.1h-3.8C-246.8,367.4-247,367.3-247.2,367.2z M-242.9,358.8c0-0.1,0-0.2-0.1-0.3
			c-0.1-0.1-0.2-0.1-0.3-0.1h-2.6c-0.1,0-0.2,0-0.3,0.1c-0.1,0.1-0.1,0.2-0.1,0.3v6.3c0,0.1,0,0.2,0.1,0.3c0.1,0.1,0.2,0.1,0.3,0.1
			h2.6c0.1,0,0.2,0,0.3-0.1c0.1-0.1,0.1-0.2,0.1-0.3V358.8z"/>
		<path class="st1" d="M-234.7,363.2h-2v4.1h-1.9v-10.7h5.6c0.2,0,0.5,0,0.7,0.1c0.2,0.1,0.4,0.2,0.6,0.4c0.2,0.2,0.3,0.3,0.4,0.6
			c0.1,0.2,0.1,0.4,0.1,0.7v3c0,0.4-0.1,0.8-0.4,1.1c-0.3,0.3-0.6,0.5-1,0.6l2.1,4.2h-2.1L-234.7,363.2z M-233.2,358.8
			c0-0.1,0-0.2-0.1-0.3c-0.1-0.1-0.2-0.1-0.3-0.1h-3.1v3h3.1c0.1,0,0.2,0,0.3-0.1c0.1-0.1,0.1-0.2,0.1-0.3V358.8z"/>
		<path class="st1" d="M-228.8,356.6h1.9v5l3.3-5h2.2l-3.6,5.3l3.8,5.4h-2.2l-3.5-5.1v5.1h-1.9V356.6z"/>
		<path class="st1" d="M-215.3,363.2c-0.3-0.1-0.6-0.2-0.8-0.2c-0.2-0.1-0.4-0.1-0.7-0.2s-0.4-0.1-0.6-0.2c-0.2-0.1-0.5-0.1-0.8-0.2
			c-0.2-0.1-0.5-0.2-0.7-0.3c-0.2-0.1-0.4-0.2-0.5-0.4c-0.2-0.1-0.3-0.3-0.4-0.5c-0.1-0.2-0.1-0.4-0.1-0.6v-2.2c0-0.2,0-0.5,0.1-0.7
			c0.1-0.2,0.2-0.4,0.4-0.6c0.2-0.2,0.3-0.3,0.6-0.4c0.2-0.1,0.4-0.1,0.7-0.1h3.4c0.2,0,0.5,0,0.7,0.1c0.2,0.1,0.4,0.2,0.6,0.4
			c0.2,0.2,0.3,0.3,0.4,0.6c0.1,0.2,0.1,0.4,0.1,0.7v1.3l-1.9,0.3v-1.2c0-0.1,0-0.2-0.1-0.3c-0.1-0.1-0.2-0.1-0.3-0.1h-2.2
			c-0.1,0-0.2,0-0.3,0.1c-0.1,0.1-0.1,0.2-0.1,0.3v1.3c0,0.1,0,0.2,0.1,0.3c0.1,0.1,0.2,0.1,0.3,0.2c0.5,0.1,0.9,0.3,1.4,0.4
			c0.4,0.1,1,0.3,1.6,0.4c0.5,0.1,0.9,0.3,1.2,0.6c0.3,0.3,0.5,0.6,0.5,1.1v2.4c0,0.2,0,0.5-0.1,0.7c-0.1,0.2-0.2,0.4-0.4,0.6
			c-0.2,0.2-0.3,0.3-0.6,0.4s-0.4,0.1-0.7,0.1h-3.5c-0.2,0-0.5,0-0.7-0.1s-0.4-0.2-0.6-0.4c-0.2-0.2-0.3-0.3-0.4-0.6
			c-0.1-0.2-0.1-0.4-0.1-0.7v-1.2l1.9-0.3v1.1c0,0.1,0,0.2,0.1,0.3c0.1,0.1,0.2,0.1,0.3,0.1h2.3c0.1,0,0.2,0,0.3-0.1
			c0.1-0.1,0.1-0.2,0.1-0.3v-1.5c0-0.1,0-0.2-0.1-0.3C-215.1,363.3-215.2,363.2-215.3,363.2z"/>
		<path class="st1" d="M-205.2,362.8h-3.6v4.6h-1.9v-10.7h1.9v4.4h3.6v-4.4h1.9v10.7h-1.9V362.8z"/>
		<path class="st1" d="M-199.9,367.2c-0.2-0.1-0.4-0.2-0.6-0.4c-0.2-0.2-0.3-0.3-0.4-0.6c-0.1-0.2-0.1-0.4-0.1-0.7v-7.2
			c0-0.2,0-0.5,0.1-0.7c0.1-0.2,0.2-0.4,0.4-0.6c0.2-0.2,0.3-0.3,0.6-0.4c0.2-0.1,0.4-0.1,0.7-0.1h3.8c0.2,0,0.5,0,0.7,0.1
			c0.2,0.1,0.4,0.2,0.6,0.4c0.2,0.2,0.3,0.3,0.4,0.6c0.1,0.2,0.1,0.4,0.1,0.7v7.2c0,0.2,0,0.5-0.1,0.7c-0.1,0.2-0.2,0.4-0.4,0.6
			c-0.2,0.2-0.3,0.3-0.6,0.4s-0.4,0.1-0.7,0.1h-3.8C-199.5,367.4-199.7,367.3-199.9,367.2z M-195.6,358.8c0-0.1,0-0.2-0.1-0.3
			c-0.1-0.1-0.2-0.1-0.3-0.1h-2.6c-0.1,0-0.2,0-0.3,0.1c-0.1,0.1-0.1,0.2-0.1,0.3v6.3c0,0.1,0,0.2,0.1,0.3c0.1,0.1,0.2,0.1,0.3,0.1
			h2.6c0.1,0,0.2,0,0.3-0.1c0.1-0.1,0.1-0.2,0.1-0.3V358.8z"/>
		<path class="st1" d="M-191.3,356.6h5.5c0.2,0,0.5,0,0.7,0.1c0.2,0.1,0.4,0.2,0.6,0.4c0.2,0.2,0.3,0.3,0.4,0.6
			c0.1,0.2,0.1,0.4,0.1,0.7v3c0,0.2,0,0.5-0.1,0.7c-0.1,0.2-0.2,0.4-0.4,0.6s-0.3,0.3-0.6,0.4c-0.2,0.1-0.4,0.1-0.7,0.1h-3.5v4.1
			h-1.9V356.6z M-186,358.8c0-0.1,0-0.2-0.1-0.3c-0.1-0.1-0.2-0.1-0.3-0.1h-2.9v3h2.9c0.1,0,0.2,0,0.3-0.1c0.1-0.1,0.1-0.2,0.1-0.3
			V358.8z"/>
	</g>
</g>
<g>
	<g>
		<g>
			<path class="st2" d="M-200.7,290.4l21.2,21.2l2.1-2.1l-20.8-20.8V283c0-0.3-0.1-0.5-0.3-0.8l2.3-2.3c2-2,2-5.3,0-7.3
				c-0.6-0.6-1.2-1-1.9-1.2l0.4-0.4c2-2,2-5.3,0-7.3c-2-2-5.3-2-7.3,0l-0.4,0.4c-0.3-0.7-0.7-1.4-1.2-1.9c-1.9-1.9-5.2-2-7.2-0.2
				c-0.2-0.7-0.7-1.4-1.2-1.9c-1.7-1.7-4.3-1.9-6.3-0.8l-7.7-7.7c-2-2-5.4-2-7.3,0c-0.6,0.6-1,1.2-1.2,1.9l-0.4-0.4
				c-2-2-5.3-2-7.3,0c-0.6,0.6-1,1.2-1.2,1.9c-2-1.8-5.2-1.7-7.1,0.2c-1,1-1.5,2.3-1.5,3.7c0,1.4,0.5,2.7,1.5,3.7l0.4,0.4
				c-0.7,0.3-1.4,0.7-1.9,1.2c-1,1-1.5,2.3-1.5,3.7c0,1.4,0.5,2.7,1.5,3.7l10.8,10.8c-0.1,0.2-0.3,0.5-0.3,0.8v5.7l-23.5,23.5
				l2.1,2.1l23.9-23.9c0.3-0.3,0.4-0.7,0.4-1v-4.4l6,6c-2.2,0.1-4.2,1-5.8,2.6c-0.6,0.6-0.6,1.5,0,2.1l12.6,12.6
				c0.1,0.1,0.2,0.1,0.3,0.2l-20.3,20.3h-5.3v3h20.8c0.6,0,1.1-0.3,1.3-0.8l1.6-3.3l3.1,6.2c0.3,0.5,0.9,0.9,1.5,0.8
				c0.6-0.1,1.1-0.5,1.3-1.1l2.8-10.4l3.2,14.8c0.1,0.7,0.7,1.1,1.4,1.2c0,0,0.1,0,0.1,0c0.6,0,1.2-0.4,1.4-1l3.3-9.9l1.4,2.7
				c0.3,0.5,0.8,0.8,1.3,0.8h20.8v-3h-4.8l-22.5-22.5c-0.3-0.3-0.7-0.4-1-0.4h-9.9l-11-11c2.2-1.3,5.3-1,7.2,0.9l3.1,3.1
				c0.6,0.6,1.5,0.6,2.1,0c0.3-0.3,0.4-0.7,0.4-1c0-0.4-0.1-0.8-0.4-1l-27.2-27.3c-0.4-0.4-0.7-1-0.7-1.6s0.2-1.2,0.7-1.6
				c0.8-0.8,2.3-0.8,3.1,0l21,21c0.6,0.6,1.5,0.6,2.1,0c0.6-0.6,0.6-1.5,0-2.1l-24.6-24.6c-0.4-0.4-0.7-1-0.7-1.6
				c0-0.6,0.2-1.2,0.7-1.6c0.8-0.8,2.3-0.8,3.1,0l24.6,24.6c0.6,0.6,1.5,0.6,2.1,0c0.3-0.3,0.4-0.7,0.4-1c0-0.4-0.1-0.8-0.4-1
				l-21.5-21.5c-0.9-0.9-0.9-2.3,0-3.1c0.9-0.9,2.3-0.9,3.1,0l21.5,21.5c0.6,0.6,1.5,0.6,2.1,0s0.6-1.5,0-2.1l-17.8-17.8
				c-0.4-0.4-0.7-1-0.7-1.6s0.2-1.2,0.7-1.6c0.8-0.8,2.3-0.8,3.1,0l19.1,19.1l0,0l0,0l10.9,10.9v5.7
				C-201.2,289.7-201,290.1-200.7,290.4z M-224.8,308.6h6.7l20,20h-10.8l-2.6-5.1c-0.3-0.5-0.8-0.9-1.4-0.8c-0.6,0-1.1,0.4-1.3,1
				l-2.7,8.2l-3.3-15.4c-0.1-0.7-0.7-1.2-1.4-1.2c-0.7,0-1.3,0.4-1.5,1.1l-3.4,12.6l-2.7-5.4c-0.5-1-2.1-1-2.7,0l-2.6,5.1h-10.3
				L-224.8,308.6z M-216.5,264.1l-2.5-2.5c0.7-0.1,1.4,0.1,1.9,0.6C-216.6,262.7-216.4,263.4-216.5,264.1z M-214.1,266.5l2.3-2.2
				c0.8-0.8,2.3-0.8,3.1,0c0.4,0.4,0.7,1,0.7,1.6c0,0.6-0.2,1.2-0.7,1.6l-2.3,2.3L-214.1,266.5z M-208.9,271.7l5.9-5.9
				c0.9-0.9,2.3-0.9,3.1,0c0.9,0.9,0.9,2.3,0,3.1l-3.6,3.6c0,0,0,0,0,0l-2.2,2.2L-208.9,271.7z M-203.6,277l2.3-2.3
				c0.8-0.8,2.3-0.8,3.1,0c0.9,0.9,0.9,2.3,0,3.1l-2.3,2.2L-203.6,277z"/>
		</g>
	</g>
	<g>
		<g>
			<rect x="-260.2" y="328.6" class="st2" width="3" height="3"/>
		</g>
	</g>
	<g>
		<g>
			<rect x="-267.6" y="328.6" class="st2" width="4.4" height="3"/>
		</g>
	</g>
	<g>
		<g>
			<rect x="-186.1" y="328.6" class="st2" width="7.4" height="3"/>
		</g>
	</g>
</g>
</svg>
