<?xml version="1.0" encoding="utf-8"?>
<!-- Generator: Adobe Illustrator 19.0.0, SVG Export Plug-In . SVG Version: 6.00 Build 0)  -->
<svg version="1.1" id="Layer_1" xmlns="http://www.w3.org/2000/svg" xmlns:xlink="http://www.w3.org/1999/xlink" x="0px" y="0px"
	 viewBox="-351 186.4 256.4 188.6" style="enable-background:new -351 186.4 256.4 188.6;" xml:space="preserve">
<style type="text/css">
	.st0{opacity:0.19;fill:#9E8B8A;enable-background:new    ;}
	.st1{fill:#FFFFFF;}
	.st2{fill:#C7B299;}
</style>
<path id="XMLID_40_" class="st0" d="M-114.9,375h-215.8c-11.2,0-20.3-9.1-20.3-20.3v-148c0-11.2,9.1-20.3,20.3-20.3h215.8
	c11.2,0,20.3,9.1,20.3,20.3v148C-94.6,365.9-103.7,375-114.9,375z"/>
<g>
	<path class="st1" d="M-281.5,214.7v-14.6h8.9v2.4h-6.3v3.6h5.8v2.4h-5.8v6.1H-281.5z"/>
	<path class="st1" d="M-263.5,200.1h2.6v12.2c0,0.3-0.1,0.6-0.2,0.9c-0.1,0.3-0.3,0.5-0.5,0.8c-0.2,0.2-0.5,0.4-0.8,0.5
		c-0.3,0.1-0.6,0.2-0.9,0.2h-4.9c-0.3,0-0.6-0.1-0.9-0.2c-0.3-0.1-0.5-0.3-0.8-0.5s-0.4-0.5-0.5-0.8c-0.1-0.3-0.2-0.6-0.2-0.9v-12.2
		h2.6v11.6c0,0.2,0.1,0.3,0.2,0.4s0.3,0.2,0.4,0.2h3.3c0.2,0,0.3-0.1,0.4-0.2c0.1-0.1,0.2-0.2,0.2-0.4V200.1z"/>
	<path class="st1" d="M-251.5,209c-0.4-0.1-0.8-0.2-1.1-0.3s-0.6-0.2-0.9-0.3s-0.6-0.2-0.9-0.3c-0.3-0.1-0.7-0.2-1.1-0.3
		c-0.3-0.1-0.6-0.2-0.9-0.4c-0.3-0.1-0.5-0.3-0.7-0.5c-0.2-0.2-0.4-0.4-0.5-0.7c-0.1-0.2-0.2-0.5-0.2-0.9v-3c0-0.3,0.1-0.6,0.2-0.9
		c0.1-0.3,0.3-0.5,0.5-0.8c0.2-0.2,0.5-0.4,0.8-0.5c0.3-0.1,0.6-0.2,0.9-0.2h4.6c0.3,0,0.6,0.1,0.9,0.2c0.3,0.1,0.5,0.3,0.8,0.5
		c0.2,0.2,0.4,0.5,0.5,0.8c0.1,0.3,0.2,0.6,0.2,0.9v1.7l-2.6,0.4v-1.6c0-0.2-0.1-0.3-0.2-0.4s-0.3-0.2-0.4-0.2h-3
		c-0.2,0-0.3,0.1-0.4,0.2s-0.2,0.2-0.2,0.4v1.8c0,0.2,0.1,0.3,0.2,0.4s0.3,0.2,0.4,0.2c0.6,0.2,1.3,0.4,1.9,0.5
		c0.6,0.2,1.3,0.4,2.1,0.6c0.6,0.2,1.2,0.4,1.6,0.8c0.4,0.4,0.7,0.9,0.7,1.6v3.3c0,0.3-0.1,0.6-0.2,0.9c-0.1,0.3-0.3,0.5-0.5,0.8
		c-0.2,0.2-0.5,0.4-0.8,0.5c-0.3,0.1-0.6,0.2-0.9,0.2h-4.7c-0.3,0-0.6-0.1-0.9-0.2c-0.3-0.1-0.5-0.3-0.8-0.5
		c-0.2-0.2-0.4-0.5-0.5-0.8c-0.1-0.3-0.2-0.6-0.2-0.9v-1.7l2.6-0.4v1.5c0,0.2,0.1,0.3,0.2,0.4s0.3,0.2,0.4,0.2h3.1
		c0.2,0,0.3-0.1,0.4-0.2c0.1-0.1,0.2-0.2,0.2-0.4v-2.1c0-0.2-0.1-0.3-0.2-0.4S-251.4,209.1-251.5,209z"/>
	<path class="st1" d="M-242.7,214.7h-2.6v-14.6h2.6V214.7z"/>
	<path class="st1" d="M-238.1,214.5c-0.3-0.1-0.5-0.3-0.8-0.5s-0.4-0.5-0.5-0.8c-0.1-0.3-0.2-0.6-0.2-0.9v-9.8
		c0-0.3,0.1-0.6,0.2-0.9c0.1-0.3,0.3-0.5,0.5-0.8c0.2-0.2,0.5-0.4,0.8-0.5c0.3-0.1,0.6-0.2,0.9-0.2h5.1c0.3,0,0.6,0.1,0.9,0.2
		c0.3,0.1,0.5,0.3,0.8,0.5c0.2,0.2,0.4,0.5,0.5,0.8c0.1,0.3,0.2,0.6,0.2,0.9v9.8c0,0.3-0.1,0.6-0.2,0.9c-0.1,0.3-0.3,0.5-0.5,0.8
		s-0.5,0.4-0.8,0.5c-0.3,0.1-0.6,0.2-0.9,0.2h-5.1C-237.5,214.7-237.8,214.6-238.1,214.5z M-232.3,203.1c0-0.2-0.1-0.3-0.2-0.4
		c-0.1-0.1-0.3-0.2-0.4-0.2h-3.5c-0.2,0-0.3,0.1-0.4,0.2s-0.2,0.2-0.2,0.4v8.6c0,0.2,0.1,0.3,0.2,0.4s0.3,0.2,0.4,0.2h3.5
		c0.2,0,0.3-0.1,0.4-0.2c0.1-0.1,0.2-0.2,0.2-0.4V203.1z"/>
	<path class="st1" d="M-215.9,214.7h-2.5l-5.6-9.4v9.4h-2.5v-14.6h2.5l5.6,9.5v-9.5h2.5V214.7z"/>
	<path class="st1" d="M-193.2,203c0-0.2-0.1-0.3-0.2-0.4c-0.1-0.1-0.3-0.2-0.4-0.2h-2.2c-0.2,0-0.3,0.1-0.4,0.2
		c-0.1,0.1-0.2,0.2-0.2,0.4v1.2l-2.5-0.4v-1.3c0-0.3,0.1-0.6,0.2-0.9c0.1-0.3,0.3-0.5,0.5-0.7c0.2-0.2,0.4-0.4,0.7-0.5
		c0.3-0.1,0.6-0.2,0.9-0.2h3.7c0.3,0,0.6,0.1,0.9,0.2c0.3,0.1,0.5,0.3,0.7,0.5s0.4,0.4,0.5,0.7c0.1,0.3,0.2,0.6,0.2,0.9v3.3
		c0,0.3-0.1,0.6-0.3,0.9s-0.4,0.4-0.6,0.6c0.3,0.1,0.5,0.3,0.7,0.6c0.2,0.2,0.3,0.6,0.3,1v3.6c0,0.3-0.1,0.6-0.2,0.9
		c-0.1,0.3-0.3,0.5-0.5,0.7s-0.4,0.4-0.7,0.5s-0.6,0.2-0.9,0.2h-3.9c-0.3,0-0.6-0.1-0.9-0.2c-0.3-0.1-0.5-0.3-0.7-0.5
		s-0.4-0.5-0.5-0.7c-0.1-0.3-0.2-0.6-0.2-0.9v-1.3l2.5-0.4v1.2c0,0.2,0.1,0.3,0.2,0.4c0.1,0.1,0.3,0.2,0.4,0.2h2.3
		c0.2,0,0.3-0.1,0.4-0.2c0.1-0.1,0.2-0.2,0.2-0.4V209c0-0.2-0.1-0.3-0.2-0.4c-0.1-0.1-0.3-0.2-0.4-0.2h-3.1v-2.3h3.1
		c0.2,0,0.3-0.1,0.4-0.2c0.1-0.1,0.1-0.2,0.1-0.4V203z"/>
	<path class="st1" d="M-187.4,201.5c0.1-0.3,0.3-0.5,0.5-0.7c0.2-0.2,0.4-0.4,0.7-0.5c0.3-0.1,0.6-0.2,0.9-0.2h3.9
		c0.3,0,0.6,0.1,0.9,0.2c0.3,0.1,0.5,0.3,0.7,0.5c0.2,0.2,0.4,0.4,0.5,0.7c0.1,0.3,0.2,0.6,0.2,0.9v1.2l-2.5,0.4V203
		c0-0.2-0.1-0.3-0.2-0.4c-0.1-0.1-0.3-0.2-0.4-0.2h-2.3c-0.2,0-0.3,0.1-0.4,0.2c-0.1,0.1-0.2,0.2-0.2,0.4v4c0.6-0.2,1.2-0.3,1.9-0.5
		c0.7-0.1,1.3-0.2,1.8-0.2c0.7,0,1.3,0.2,1.7,0.7c0.4,0.4,0.6,1,0.6,1.6v3.8c0,0.3-0.1,0.6-0.2,0.9c-0.1,0.3-0.3,0.5-0.5,0.7
		c-0.2,0.2-0.4,0.4-0.7,0.5c-0.3,0.1-0.6,0.2-0.9,0.2h-4c-0.3,0-0.6-0.1-0.9-0.2s-0.5-0.3-0.7-0.5s-0.4-0.5-0.5-0.7
		c-0.1-0.3-0.2-0.6-0.2-0.9v-10C-187.6,202.1-187.5,201.8-187.4,201.5z M-185.1,211.8c0,0.2,0.1,0.3,0.2,0.4
		c0.1,0.1,0.3,0.2,0.4,0.2h2.4c0.2,0,0.3-0.1,0.4-0.2c0.1-0.1,0.2-0.2,0.2-0.4v-2.5c0-0.2-0.1-0.3-0.2-0.4c-0.1-0.1-0.2-0.2-0.4-0.2
		c-0.1,0-0.3,0-0.5,0c-0.2,0-0.4,0.1-0.7,0.1s-0.5,0.1-0.7,0.1c-0.2,0.1-0.4,0.1-0.5,0.1c-0.4,0.1-0.6,0.4-0.6,0.7V211.8z"/>
	<path class="st1" d="M-174.7,214.5c-0.3-0.1-0.5-0.3-0.7-0.5c-0.2-0.2-0.4-0.5-0.5-0.7c-0.1-0.3-0.2-0.6-0.2-0.9v-10
		c0-0.3,0.1-0.6,0.2-0.9c0.1-0.3,0.3-0.5,0.5-0.7c0.2-0.2,0.4-0.4,0.7-0.5c0.3-0.1,0.6-0.2,0.9-0.2h4.2c0.3,0,0.6,0.1,0.9,0.2
		c0.3,0.1,0.5,0.3,0.7,0.5c0.2,0.2,0.4,0.4,0.5,0.7c0.1,0.3,0.2,0.6,0.2,0.9v10c0,0.3-0.1,0.6-0.2,0.9c-0.1,0.3-0.3,0.5-0.5,0.7
		c-0.2,0.2-0.4,0.4-0.7,0.5c-0.3,0.1-0.6,0.2-0.9,0.2h-4.2C-174.1,214.7-174.4,214.6-174.7,214.5z M-169.7,203
		c0-0.2-0.1-0.3-0.2-0.4c-0.1-0.1-0.3-0.2-0.4-0.2h-2.6c-0.2,0-0.3,0.1-0.4,0.2c-0.1,0.1-0.2,0.2-0.2,0.4v8.8c0,0.2,0.1,0.3,0.2,0.4
		c0.1,0.1,0.3,0.2,0.4,0.2h2.6c0.2,0,0.3-0.1,0.4-0.2c0.1-0.1,0.2-0.2,0.2-0.4V203z"/>
</g>
<g>
	<g>
		<circle class="st2" cx="-188.3" cy="281.4" r="1.8"/>
	</g>
</g>
<g>
	<g>
		<path class="st1" d="M-249.5,351.9h1.3l1.6,5.8l0.9-5.8h1.5l-1.5,8.5h-1.5l-1.6-6.1l-1.6,6.1h-1.5l-1.5-8.5h1.5l0.9,5.8
			L-249.5,351.9z"/>
		<path class="st1" d="M-242.1,360.2c-0.2-0.1-0.3-0.2-0.4-0.3c-0.1-0.1-0.2-0.3-0.3-0.4s-0.1-0.4-0.1-0.5v-5.7c0-0.2,0-0.4,0.1-0.5
			s0.2-0.3,0.3-0.4c0.1-0.1,0.3-0.2,0.4-0.3c0.2-0.1,0.4-0.1,0.5-0.1h3c0.2,0,0.4,0,0.5,0.1c0.2,0.1,0.3,0.2,0.4,0.3
			c0.1,0.1,0.2,0.3,0.3,0.4s0.1,0.4,0.1,0.5v5.7c0,0.2,0,0.4-0.1,0.5s-0.2,0.3-0.3,0.4c-0.1,0.1-0.3,0.2-0.4,0.3s-0.4,0.1-0.5,0.1
			h-3C-241.8,360.3-242,360.3-242.1,360.2z M-238.7,353.6c0-0.1,0-0.2-0.1-0.2c-0.1-0.1-0.1-0.1-0.2-0.1h-2c-0.1,0-0.2,0-0.2,0.1
			c-0.1,0.1-0.1,0.1-0.1,0.2v5c0,0.1,0,0.2,0.1,0.2s0.1,0.1,0.2,0.1h2c0.1,0,0.2,0,0.2-0.1s0.1-0.1,0.1-0.2V353.6z"/>
		<path class="st1" d="M-232.2,357.1h-1.6v3.3h-1.5v-8.5h4.4c0.2,0,0.4,0,0.5,0.1c0.2,0.1,0.3,0.2,0.4,0.3c0.1,0.1,0.2,0.3,0.3,0.4
			s0.1,0.4,0.1,0.5v2.4c0,0.3-0.1,0.6-0.3,0.9c-0.2,0.3-0.5,0.4-0.8,0.5l1.6,3.3h-1.7L-232.2,357.1z M-231,353.6
			c0-0.1,0-0.2-0.1-0.2c-0.1-0.1-0.1-0.1-0.2-0.1h-2.4v2.4h2.4c0.1,0,0.2,0,0.2-0.1c0.1-0.1,0.1-0.1,0.1-0.2V353.6z"/>
		<path class="st1" d="M-227.5,351.9h1.5v4l2.6-4h1.8l-2.9,4.2l3,4.3h-1.8l-2.8-4v4h-1.5V351.9z"/>
		<path class="st1" d="M-216.9,357c-0.2-0.1-0.5-0.1-0.6-0.2c-0.2-0.1-0.4-0.1-0.5-0.1c-0.2,0-0.3-0.1-0.5-0.1
			c-0.2-0.1-0.4-0.1-0.6-0.2c-0.2-0.1-0.4-0.1-0.5-0.2c-0.2-0.1-0.3-0.2-0.4-0.3s-0.2-0.2-0.3-0.4s-0.1-0.3-0.1-0.5v-1.7
			c0-0.2,0-0.4,0.1-0.5s0.2-0.3,0.3-0.4c0.1-0.1,0.3-0.2,0.4-0.3c0.2-0.1,0.4-0.1,0.5-0.1h2.7c0.2,0,0.4,0,0.5,0.1
			c0.2,0.1,0.3,0.2,0.4,0.3c0.1,0.1,0.2,0.3,0.3,0.4s0.1,0.4,0.1,0.5v1l-1.5,0.3v-0.9c0-0.1,0-0.2-0.1-0.2c-0.1-0.1-0.1-0.1-0.2-0.1
			h-1.7c-0.1,0-0.2,0-0.2,0.1c-0.1,0.1-0.1,0.1-0.1,0.2v1.1c0,0.1,0,0.2,0.1,0.2s0.1,0.1,0.2,0.1c0.4,0.1,0.7,0.2,1.1,0.3
			s0.8,0.2,1.2,0.3c0.4,0.1,0.7,0.3,0.9,0.5s0.4,0.5,0.4,0.9v1.9c0,0.2,0,0.4-0.1,0.5s-0.2,0.3-0.3,0.4c-0.1,0.1-0.3,0.2-0.4,0.3
			s-0.4,0.1-0.5,0.1h-2.8c-0.2,0-0.4,0-0.5-0.1s-0.3-0.2-0.4-0.3c-0.1-0.1-0.2-0.3-0.3-0.4s-0.1-0.4-0.1-0.5v-1l1.5-0.3v0.9
			c0,0.1,0,0.2,0.1,0.2s0.1,0.1,0.2,0.1h1.8c0.1,0,0.2,0,0.2-0.1c0.1-0.1,0.1-0.1,0.1-0.2v-1.2c0-0.1,0-0.2-0.1-0.2
			C-216.7,357.1-216.8,357.1-216.9,357z"/>
		<path class="st1" d="M-208.9,356.7h-2.9v3.6h-1.5v-8.5h1.5v3.5h2.9v-3.5h1.5v8.5h-1.5V356.7z"/>
		<path class="st1" d="M-204.7,360.2c-0.2-0.1-0.3-0.2-0.4-0.3c-0.1-0.1-0.2-0.3-0.3-0.4s-0.1-0.4-0.1-0.5v-5.7c0-0.2,0-0.4,0.1-0.5
			s0.2-0.3,0.3-0.4c0.1-0.1,0.3-0.2,0.4-0.3c0.2-0.1,0.4-0.1,0.5-0.1h3c0.2,0,0.4,0,0.5,0.1c0.2,0.1,0.3,0.2,0.4,0.3
			c0.1,0.1,0.2,0.3,0.3,0.4s0.1,0.4,0.1,0.5v5.7c0,0.2,0,0.4-0.1,0.5s-0.2,0.3-0.3,0.4c-0.1,0.1-0.3,0.2-0.4,0.3s-0.4,0.1-0.5,0.1
			h-3C-204.3,360.3-204.5,360.3-204.7,360.2z M-201.3,353.6c0-0.1,0-0.2-0.1-0.2c-0.1-0.1-0.1-0.1-0.2-0.1h-2c-0.1,0-0.2,0-0.2,0.1
			c-0.1,0.1-0.1,0.1-0.1,0.2v5c0,0.1,0,0.2,0.1,0.2s0.1,0.1,0.2,0.1h2c0.1,0,0.2,0,0.2-0.1s0.1-0.1,0.1-0.2V353.6z"/>
		<path class="st1" d="M-197.9,351.9h4.3c0.2,0,0.4,0,0.5,0.1c0.2,0.1,0.3,0.2,0.4,0.3c0.1,0.1,0.2,0.3,0.3,0.4s0.1,0.4,0.1,0.5v2.4
			c0,0.2,0,0.4-0.1,0.5s-0.2,0.3-0.3,0.4c-0.1,0.1-0.3,0.2-0.4,0.3c-0.2,0.1-0.4,0.1-0.5,0.1h-2.8v3.3h-1.5V351.9z M-193.7,353.6
			c0-0.1,0-0.2-0.1-0.2c-0.1-0.1-0.1-0.1-0.2-0.1h-2.3v2.4h2.3c0.1,0,0.2,0,0.2-0.1c0.1-0.1,0.1-0.1,0.1-0.2V353.6z"/>
	</g>
</g>
<path class="st2" d="M-188.8,239.5H-260c-3.9,0-7.1,3.2-7.1,7.1v71.1c0,3.9,3.2,7.1,7.1,7.1h71.1c3.9,0,7.1-3.2,7.1-7.1v-71.1
	C-181.7,242.7-184.9,239.5-188.8,239.5z M-260,242.3h71.1c2.4,0,4.3,1.9,4.3,4.3v4.3h-79.6v-4.3C-264.2,244.3-262.3,242.3-260,242.3
	z M-188.8,322H-260c-2.4,0-4.3-1.9-4.3-4.3v-64h79.6v64C-184.6,320.1-186.5,322-188.8,322z"/>
<path class="st2" d="M-192.3,310.8l-15-9.5v-17.7c0-0.1,0-0.2,0-0.2c0,0,0-0.1,0-0.1c0-0.2-0.1-0.3-0.2-0.4c0,0,0-0.1-0.1-0.1
	c-0.1-0.1-0.2-0.2-0.3-0.3c0,0,0,0-0.1-0.1l-15-9.5v-12c0-0.8-0.6-1.4-1.4-1.4s-1.4,0.6-1.4,1.4v12l-4.3,2.7v-10.5
	c0-0.8-0.6-1.4-1.4-1.4c-0.8,0-1.4,0.6-1.4,1.4v12.3l-5.7,3.6v-10.2c0-0.8-0.6-1.4-1.4-1.4c-0.8,0-1.4,0.6-1.4,1.4v30.5l-15,9.5
	c-0.7,0.4-0.9,1.3-0.4,2c0.4,0.7,1.3,0.9,2,0.4l14.9-9.5l5.4,3.4l-9,5.7c-0.7,0.4-0.9,1.3-0.4,2s1.3,0.9,2,0.4l10-6.3
	c0,0,0.1-0.1,0.1-0.1l5,3.2l-3.8,2.4c-0.7,0.4-0.8,1.3-0.4,2c0.4,0.7,1.3,0.9,1.9,0.4l4.9-3.1l4.9,3.1c0.4,0.3,1,0.3,1.4,0.1
	c0.5-0.2,0.8-0.7,0.8-1.2c0-0.5-0.2-1-0.7-1.3l-3.8-2.4l5-3.2c0,0,0.1,0.1,0.1,0.1l10,6.3c0.4,0.3,1,0.3,1.4,0.1
	c0.5-0.2,0.7-0.7,0.8-1.2c0-0.5-0.2-1-0.7-1.3l-9-5.7l5.4-3.4l14.9,9.5c0.4,0.3,1,0.3,1.4,0.1c0.5-0.2,0.7-0.7,0.8-1.2
	C-191.7,311.6-191.9,311.1-192.3,310.8z M-211.4,283.6l-13,8.3l-13-8.3l13-8.3L-211.4,283.6z M-238.6,286.2l12.8,8.1v15.1l-12.8-8.1
	V286.2z M-210.2,301.3l-12.8,8.1v-15.1l12.8-8.1V301.3z"/>
<path class="st2" d="M-252.8,270.8c0.8,0,1.4-0.6,1.4-1.4c0-0.8-0.6-1.4-1.4-1.4c-2.4,0-4.3-1.9-4.3-4.3c0-2.4,1.9-4.3,4.3-4.3
	c2.4,0,4.3,1.9,4.3,4.3c0,0.8,0.6,1.4,1.4,1.4c0.8,0,1.4-0.6,1.4-1.4c0-3.9-3.2-7.1-7.1-7.1c-3.9,0-7.1,3.2-7.1,7.1
	C-260,267.6-256.8,270.8-252.8,270.8z"/>
<path class="st2" d="M-251.4,286.4c0-0.8-0.6-1.4-1.4-1.4c-2.4,0-4.3-1.9-4.3-4.3c0-2.4,1.9-4.3,4.3-4.3c2.4,0,4.3,1.9,4.3,4.3
	c0,0.8,0.6,1.4,1.4,1.4c0.8,0,1.4-0.6,1.4-1.4c0-3.9-3.2-7.1-7.1-7.1c-3.9,0-7.1,3.2-7.1,7.1c0,3.9,3.2,7.1,7.1,7.1
	c0.4,0,0.7-0.1,1-0.4C-251.6,287.2-251.4,286.8-251.4,286.4z"/>
<path class="st2" d="M-190.3,256.6h-8.5c-1.6,0-2.8,1.3-2.8,2.8v37c0,1.6,1.3,2.8,2.8,2.8h8.5c1.6,0,2.8-1.3,2.8-2.8v-37
	C-187.4,257.8-188.7,256.6-190.3,256.6z M-190.3,259.4v2.8h-8.5v-2.8H-190.3z M-198.8,265.1h2.8v2.8c-0.8,0-1.4,0.6-1.4,1.4
	c0,0.8,0.6,1.4,1.4,1.4v2.8c-0.8,0-1.4,0.6-1.4,1.4c0,0.8,0.6,1.4,1.4,1.4v2.8c-0.8,0-1.4,0.6-1.4,1.4c0,0.8,0.6,1.4,1.4,1.4v2.8
	c-0.8,0-1.4,0.6-1.4,1.4c0,0.8,0.6,1.4,1.4,1.4v2.8c-0.8,0-1.4,0.6-1.4,1.4c0,0.8,0.6,1.4,1.4,1.4v2.8h-2.8V265.1z M-193.1,296.4
	v-2.8c0.8,0,1.4-0.6,1.4-1.4c0-0.8-0.6-1.4-1.4-1.4v-2.8c0.8,0,1.4-0.6,1.4-1.4c0-0.8-0.6-1.4-1.4-1.4v-2.8c0.8,0,1.4-0.6,1.4-1.4
	c0-0.8-0.6-1.4-1.4-1.4v-2.8c0.8,0,1.4-0.6,1.4-1.4c0-0.8-0.6-1.4-1.4-1.4v-2.8c0.8,0,1.4-0.6,1.4-1.4c0-0.8-0.6-1.4-1.4-1.4v-2.8
	h2.8v31.3H-193.1z"/>
</svg>
