<?xml version="1.0" encoding="utf-8"?>
<!-- Generator: Adobe Illustrator 19.0.0, SVG Export Plug-In . SVG Version: 6.00 Build 0)  -->
<svg version="1.1" id="Layer_1" xmlns="http://www.w3.org/2000/svg" xmlns:xlink="http://www.w3.org/1999/xlink" x="0px" y="0px"
	 viewBox="-351 186.4 256.4 188.6" style="enable-background:new -351 186.4 256.4 188.6;" xml:space="preserve">
<style type="text/css">
	.st0{opacity:0.19;fill:#9E8B8A;enable-background:new    ;}
	.st1{enable-background:new    ;}
	.st2{fill:#FFFFFF;}
	.st3{fill:#C7B299;}
</style>
<path id="XMLID_40_" class="st0" d="M-114.9,375h-215.8c-11.2,0-20.3-9.1-20.3-20.3v-148c0-11.2,9.1-20.3,20.3-20.3h215.8
	c11.2,0,20.3,9.1,20.3,20.3v148C-94.6,365.9-103.7,375-114.9,375z"/>
<g class="st1">
	<path class="st2" d="M-302.5,199.6h2.2l2.5,9.4l1.4-9.4h2.4l-2.4,13.8h-2.5l-2.6-9.9l-2.6,9.9h-2.5l-2.4-13.8h2.4l1.4,9.4
		L-302.5,199.6z"/>
	<path class="st2" d="M-291.7,199.6h8.3v2.3h-5.9v3.4h5.3v2.3h-5.3v3.5h5.9v2.3h-8.3V199.6z"/>
	<path class="st2" d="M-280.7,199.6h6.8c0.3,0,0.6,0.1,0.9,0.2c0.3,0.1,0.5,0.3,0.7,0.5c0.2,0.2,0.3,0.4,0.5,0.7
		c0.1,0.3,0.2,0.5,0.2,0.8v3c0,0.3-0.1,0.6-0.3,0.9s-0.5,0.5-0.8,0.6c0.3,0.1,0.6,0.2,0.8,0.5s0.4,0.6,0.4,1v3.5
		c0,0.3-0.1,0.6-0.2,0.8c-0.1,0.3-0.3,0.5-0.5,0.7c-0.2,0.2-0.4,0.4-0.7,0.5s-0.6,0.2-0.9,0.2h-6.9V199.6z M-274.7,205.2
		c0.2,0,0.3-0.1,0.4-0.2s0.1-0.2,0.1-0.4v-2.3c0-0.2-0.1-0.3-0.2-0.4c-0.1-0.1-0.2-0.2-0.4-0.2h-3.5v3.3H-274.7z M-278.2,211.1h3.6
		c0.2,0,0.3-0.1,0.4-0.2s0.2-0.2,0.2-0.4V208c0-0.2-0.1-0.3-0.2-0.4s-0.2-0.2-0.4-0.2h-3.6V211.1z"/>
	<path class="st2" d="M-264.3,199.6h6.7c0.3,0,0.6,0.1,0.9,0.2c0.3,0.1,0.5,0.3,0.7,0.5c0.2,0.2,0.4,0.4,0.5,0.7
		c0.1,0.3,0.2,0.6,0.2,0.9v9.2c0,0.3-0.1,0.6-0.2,0.9c-0.1,0.3-0.3,0.5-0.5,0.7c-0.2,0.2-0.4,0.4-0.7,0.5c-0.3,0.1-0.6,0.2-0.9,0.2
		h-6.7V199.6z M-257.8,202.5c0-0.2-0.1-0.3-0.2-0.4c-0.1-0.1-0.2-0.2-0.4-0.2h-3.5v9.2h3.5c0.2,0,0.3-0.1,0.4-0.2
		c0.1-0.1,0.2-0.2,0.2-0.4V202.5z"/>
	<path class="st2" d="M-252.3,199.6h8.3v2.3h-5.9v3.4h5.3v2.3h-5.3v3.5h5.9v2.3h-8.3V199.6z"/>
	<path class="st2" d="M-235.8,213.4h-2.4l-4.2-13.8h2.5l3,10l3-10h2.5L-235.8,213.4z"/>
	<path class="st2" d="M-229.6,199.6h8.3v2.3h-5.9v3.4h5.3v2.3h-5.3v3.5h5.9v2.3h-8.3V199.6z"/>
	<path class="st2" d="M-218.6,199.6h2.5v11.5h5.6v2.3h-8.1V199.6z"/>
	<path class="st2" d="M-207.2,213.2c-0.3-0.1-0.5-0.3-0.7-0.5c-0.2-0.2-0.4-0.4-0.5-0.7c-0.1-0.3-0.2-0.6-0.2-0.9v-9.2
		c0-0.3,0.1-0.6,0.2-0.9c0.1-0.3,0.3-0.5,0.5-0.7c0.2-0.2,0.4-0.4,0.7-0.5c0.3-0.1,0.6-0.2,0.9-0.2h4.9c0.3,0,0.6,0.1,0.9,0.2
		c0.3,0.1,0.5,0.3,0.7,0.5c0.2,0.2,0.4,0.4,0.5,0.7c0.1,0.3,0.2,0.6,0.2,0.9v9.2c0,0.3-0.1,0.6-0.2,0.9c-0.1,0.3-0.3,0.5-0.5,0.7
		c-0.2,0.2-0.4,0.4-0.7,0.5c-0.3,0.1-0.6,0.2-0.9,0.2h-4.9C-206.6,213.4-206.9,213.3-207.2,213.2z M-201.6,202.5
		c0-0.2-0.1-0.3-0.2-0.4c-0.1-0.1-0.2-0.2-0.4-0.2h-3.3c-0.2,0-0.3,0.1-0.4,0.2c-0.1,0.1-0.2,0.2-0.2,0.4v8.1c0,0.2,0.1,0.3,0.2,0.4
		c0.1,0.1,0.2,0.2,0.4,0.2h3.3c0.2,0,0.3-0.1,0.4-0.2c0.1-0.1,0.2-0.2,0.2-0.4V202.5z"/>
	<path class="st2" d="M-196.2,199.6h7c0.3,0,0.6,0.1,0.9,0.2c0.3,0.1,0.5,0.3,0.7,0.5c0.2,0.2,0.4,0.4,0.5,0.7
		c0.1,0.3,0.2,0.6,0.2,0.9v3.9c0,0.3-0.1,0.6-0.2,0.9c-0.1,0.3-0.3,0.5-0.5,0.7c-0.2,0.2-0.4,0.4-0.7,0.5s-0.6,0.2-0.9,0.2h-4.5v5.3
		h-2.5V199.6z M-189.4,202.5c0-0.2-0.1-0.3-0.2-0.4c-0.1-0.1-0.2-0.2-0.4-0.2h-3.8v3.9h3.8c0.2,0,0.3-0.1,0.4-0.2
		c0.1-0.1,0.2-0.2,0.2-0.4V202.5z"/>
	<path class="st2" d="M-182.3,205.2v8.2h-2.4v-13.8h2.4l3.7,8.4l3.7-8.4h2.4v13.8h-2.4l0-8.2l-2.6,5.9h-2.1L-182.3,205.2z"/>
	<path class="st2" d="M-169.5,199.6h8.3v2.3h-5.9v3.4h5.3v2.3h-5.3v3.5h5.9v2.3h-8.3V199.6z"/>
	<path class="st2" d="M-148.4,213.4h-2.4l-5.2-8.9v8.9h-2.4v-13.8h2.4l5.2,8.9v-8.9h2.4V213.4z"/>
	<path class="st2" d="M-146.5,199.6h10v2.3h-3.7v11.5h-2.5v-11.5h-3.7V199.6z"/>
</g>
<g>
	<g>
		<path class="st2" d="M-251.3,356.8h1.4l1.7,6.2l1-6.2h1.6l-1.6,9.1h-1.6l-1.7-6.5l-1.7,6.5h-1.6l-1.6-9.1h1.6l1,6.2L-251.3,356.8z
			"/>
		<path class="st2" d="M-243.5,365.7c-0.2-0.1-0.3-0.2-0.5-0.3s-0.2-0.3-0.3-0.5s-0.1-0.4-0.1-0.6v-6.1c0-0.2,0-0.4,0.1-0.6
			c0.1-0.2,0.2-0.3,0.3-0.5c0.1-0.1,0.3-0.2,0.5-0.3s0.4-0.1,0.6-0.1h3.2c0.2,0,0.4,0,0.6,0.1c0.2,0.1,0.3,0.2,0.5,0.3
			c0.1,0.1,0.2,0.3,0.3,0.5c0.1,0.2,0.1,0.4,0.1,0.6v6.1c0,0.2,0,0.4-0.1,0.6s-0.2,0.3-0.3,0.5c-0.1,0.1-0.3,0.2-0.5,0.3
			c-0.2,0.1-0.4,0.1-0.6,0.1h-3.2C-243.1,365.8-243.3,365.8-243.5,365.7z M-239.8,358.6c0-0.1,0-0.2-0.1-0.3
			c-0.1-0.1-0.2-0.1-0.3-0.1h-2.2c-0.1,0-0.2,0-0.3,0.1c-0.1,0.1-0.1,0.2-0.1,0.3v5.4c0,0.1,0,0.2,0.1,0.3c0.1,0.1,0.2,0.1,0.3,0.1
			h2.2c0.1,0,0.2,0,0.3-0.1c0.1-0.1,0.1-0.2,0.1-0.3V358.6z"/>
		<path class="st2" d="M-232.9,362.3h-1.7v3.5h-1.6v-9.1h4.8c0.2,0,0.4,0,0.6,0.1c0.2,0.1,0.3,0.2,0.5,0.3c0.1,0.1,0.2,0.3,0.3,0.5
			c0.1,0.2,0.1,0.4,0.1,0.6v2.6c0,0.4-0.1,0.7-0.3,0.9s-0.5,0.4-0.8,0.5l1.7,3.5h-1.8L-232.9,362.3z M-231.6,358.6
			c0-0.1,0-0.2-0.1-0.3c-0.1-0.1-0.2-0.1-0.3-0.1h-2.6v2.6h2.6c0.1,0,0.2,0,0.3-0.1c0.1-0.1,0.1-0.2,0.1-0.3V358.6z"/>
		<path class="st2" d="M-227.8,356.8h1.6v4.2l2.8-4.2h1.9l-3,4.5l3.2,4.6h-1.9l-3-4.3v4.3h-1.6V356.8z"/>
		<path class="st2" d="M-216.5,362.3c-0.3-0.1-0.5-0.1-0.7-0.2s-0.4-0.1-0.6-0.2s-0.4-0.1-0.5-0.2c-0.2-0.1-0.4-0.1-0.7-0.2
			c-0.2-0.1-0.4-0.1-0.6-0.2c-0.2-0.1-0.3-0.2-0.5-0.3c-0.1-0.1-0.2-0.3-0.3-0.4s-0.1-0.3-0.1-0.5v-1.9c0-0.2,0-0.4,0.1-0.6
			c0.1-0.2,0.2-0.3,0.3-0.5c0.1-0.1,0.3-0.2,0.5-0.3s0.4-0.1,0.6-0.1h2.9c0.2,0,0.4,0,0.6,0.1c0.2,0.1,0.3,0.2,0.5,0.3
			c0.1,0.1,0.2,0.3,0.3,0.5c0.1,0.2,0.1,0.4,0.1,0.6v1.1l-1.6,0.3v-1c0-0.1,0-0.2-0.1-0.3c-0.1-0.1-0.2-0.1-0.3-0.1h-1.9
			c-0.1,0-0.2,0-0.3,0.1c-0.1,0.1-0.1,0.2-0.1,0.3v1.1c0,0.1,0,0.2,0.1,0.3c0.1,0.1,0.2,0.1,0.3,0.1c0.4,0.1,0.8,0.2,1.2,0.3
			c0.4,0.1,0.8,0.2,1.3,0.4c0.4,0.1,0.7,0.3,1,0.5c0.3,0.2,0.4,0.5,0.4,1v2c0,0.2,0,0.4-0.1,0.6s-0.2,0.3-0.3,0.5
			c-0.1,0.1-0.3,0.2-0.5,0.3c-0.2,0.1-0.4,0.1-0.6,0.1h-2.9c-0.2,0-0.4,0-0.6-0.1s-0.3-0.2-0.5-0.3c-0.1-0.1-0.2-0.3-0.3-0.5
			s-0.1-0.4-0.1-0.6v-1l1.6-0.3v1c0,0.1,0,0.2,0.1,0.3c0.1,0.1,0.2,0.1,0.3,0.1h1.9c0.1,0,0.2,0,0.3-0.1c0.1-0.1,0.1-0.2,0.1-0.3
			v-1.3c0-0.1,0-0.2-0.1-0.2C-216.3,362.4-216.4,362.3-216.5,362.3z"/>
		<path class="st2" d="M-208,361.9h-3.1v3.9h-1.6v-9.1h1.6v3.7h3.1v-3.7h1.6v9.1h-1.6V361.9z"/>
		<path class="st2" d="M-203.4,365.7c-0.2-0.1-0.3-0.2-0.5-0.3c-0.1-0.1-0.2-0.3-0.3-0.5s-0.1-0.4-0.1-0.6v-6.1c0-0.2,0-0.4,0.1-0.6
			c0.1-0.2,0.2-0.3,0.3-0.5c0.1-0.1,0.3-0.2,0.5-0.3c0.2-0.1,0.4-0.1,0.6-0.1h3.2c0.2,0,0.4,0,0.6,0.1s0.3,0.2,0.5,0.3
			c0.1,0.1,0.2,0.3,0.3,0.5c0.1,0.2,0.1,0.4,0.1,0.6v6.1c0,0.2,0,0.4-0.1,0.6s-0.2,0.3-0.3,0.5c-0.1,0.1-0.3,0.2-0.5,0.3
			s-0.4,0.1-0.6,0.1h-3.2C-203.1,365.8-203.3,365.8-203.4,365.7z M-199.8,358.6c0-0.1,0-0.2-0.1-0.3c-0.1-0.1-0.2-0.1-0.3-0.1h-2.2
			c-0.1,0-0.2,0-0.3,0.1c-0.1,0.1-0.1,0.2-0.1,0.3v5.4c0,0.1,0,0.2,0.1,0.3c0.1,0.1,0.2,0.1,0.3,0.1h2.2c0.1,0,0.2,0,0.3-0.1
			c0.1-0.1,0.1-0.2,0.1-0.3V358.6z"/>
		<path class="st2" d="M-196.2,356.8h4.6c0.2,0,0.4,0,0.6,0.1s0.3,0.2,0.5,0.3c0.1,0.1,0.2,0.3,0.3,0.5c0.1,0.2,0.1,0.4,0.1,0.6v2.6
			c0,0.2,0,0.4-0.1,0.6c-0.1,0.2-0.2,0.3-0.3,0.5c-0.1,0.1-0.3,0.2-0.5,0.3s-0.4,0.1-0.6,0.1h-3v3.5h-1.6V356.8z M-191.7,358.6
			c0-0.1,0-0.2-0.1-0.3c-0.1-0.1-0.2-0.1-0.3-0.1h-2.5v2.6h2.5c0.1,0,0.2,0,0.3-0.1c0.1-0.1,0.1-0.2,0.1-0.3V358.6z"/>
	</g>
</g>
<g>
	<g>
		<path class="st3" d="M-198.7,237.8h-57c-4.1,0-7.5,3.4-7.5,7.5v40.5c0,4.1,3.4,7.5,7.5,7.5h20.5l-2.1,7.5h-4.9v3h30v-3h-4.9
			l-2.1-7.5h20.5c4.1,0,7.5-3.4,7.5-7.5v-40.5C-191.2,241.2-194.5,237.8-198.7,237.8z M-234.2,300.8l2.1-7.5h9.7l2.1,7.5H-234.2z
			 M-194.2,285.8c0,2.5-2,4.5-4.5,4.5h-57c-2.5,0-4.5-2-4.5-4.5v-3h66V285.8z M-194.2,279.8h-66v-34.5c0-2.5,2-4.5,4.5-4.5h57
			c2.5,0,4.5,2,4.5,4.5V279.8z"/>
	</g>
</g>
<g>
	<g>
		<path class="st3" d="M-215.2,306.8h-42c-0.8,0-1.5,0.7-1.5,1.5v18c0,0.8,0.7,1.5,1.5,1.5h42c0.8,0,1.5-0.7,1.5-1.5v-18
			C-213.7,307.5-214.3,306.8-215.2,306.8z M-216.7,324.8h-39v-15h39V324.8z"/>
	</g>
</g>
<g>
	<g>
		<rect x="-252.7" y="318.8" class="st3" width="3" height="3"/>
	</g>
</g>
<g>
	<g>
		<rect x="-252.7" y="312.8" class="st3" width="3" height="3"/>
	</g>
</g>
<g>
	<g>
		<rect x="-246.7" y="312.8" class="st3" width="3" height="3"/>
	</g>
</g>
<g>
	<g>
		<rect x="-240.7" y="312.8" class="st3" width="3" height="3"/>
	</g>
</g>
<g>
	<g>
		<rect x="-228.7" y="312.8" class="st3" width="3" height="3"/>
	</g>
</g>
<g>
	<g>
		<rect x="-234.7" y="312.8" class="st3" width="3" height="3"/>
	</g>
</g>
<g>
	<g>
		<rect x="-222.7" y="318.8" class="st3" width="3" height="3"/>
	</g>
</g>
<g>
	<g>
		<rect x="-222.7" y="312.8" class="st3" width="3" height="3"/>
	</g>
</g>
<g>
	<g>
		<rect x="-246.7" y="318.8" class="st3" width="21" height="3"/>
	</g>
</g>
<g>
	<g>
		<path class="st3" d="M-203.2,306.8c-4.1,0-7.5,3.4-7.5,7.5v6c0,4.1,3.4,7.5,7.5,7.5s7.5-3.4,7.5-7.5v-6
			C-195.7,310.2-199,306.8-203.2,306.8z M-198.7,320.3c0,2.5-2,4.5-4.5,4.5s-4.5-2-4.5-4.5v-6c0-2.5,2-4.5,4.5-4.5s4.5,2,4.5,4.5
			V320.3z"/>
	</g>
</g>
<g>
	<g>
		<rect x="-204.7" y="312.8" class="st3" width="3" height="3"/>
	</g>
</g>
<g>
	<g>
		
			<rect x="-238.1" y="260.3" transform="matrix(-0.2751 0.9614 -0.9614 -0.2751 -37.9527 552.2639)" class="st3" width="21.8" height="3"/>
	</g>
</g>
<g>
	<g>
		<path class="st3" d="M-235.2,255.5l-1.9-2.3l-9,7.5c-0.6,0.5-0.7,1.5-0.2,2.1c0.1,0.1,0.1,0.1,0.2,0.2l9,7.5l1.9-2.3l-7.6-6.3
			L-235.2,255.5z"/>
	</g>
</g>
<g>
	<g>
		<path class="st3" d="M-208,260.8c-0.1-0.1-0.1-0.1-0.2-0.2l-9-7.5l-1.9,2.3l7.6,6.3l-7.6,6.3l1.9,2.3l9-7.5
			C-207.6,262.4-207.5,261.5-208,260.8z"/>
	</g>
</g>
</svg>
